<?xml version="1.0" encoding="utf-8"?>
<!-- Generator: Adobe Illustrator 15.1.0, SVG Export Plug-In . SVG Version: 6.00 Build 0)  -->
<!DOCTYPE svg PUBLIC "-//W3C//DTD SVG 1.1//EN" "http://www.w3.org/Graphics/SVG/1.1/DTD/svg11.dtd">
<svg version="1.1" id="Calque_1" xmlns="http://www.w3.org/2000/svg" xmlns:xlink="http://www.w3.org/1999/xlink" x="0px" y="0px"
	 width="78.75px" height="77.748px" viewBox="0 0 78.75 77.748" enable-background="new 0 0 78.75 77.748" xml:space="preserve">
<g>
	<polygon fill="#FFD412" points="73.961,41.966 78.25,39.082 73.793,36.086 77.695,32.328 72.785,30.152 75.975,25.773 
		70.764,24.483 73.145,19.617 67.787,19.251 69.287,14.045 63.947,14.616 64.521,9.229 59.363,10.717 58.992,5.312 54.17,7.674 
		52.865,2.417 48.527,5.58 46.33,0.628 42.185,4.568 38.67,0 36.003,4.362 32.45,0.591 30.318,5.411 26.034,2.345 24.711,7.477 
		19.927,5.208 19.497,10.496 14.384,9.095 14.875,14.378 9.596,13.887 10.996,19.005 5.709,19.438 7.977,24.234 2.844,25.58 
		5.91,29.909 1.09,32.125 5.059,36.051 0.5,39.207 4.893,42.248 1.148,45.953 6.002,48.185 2.957,52.484 8.127,53.838 5.875,58.6 
		11.199,59.037 9.809,64.118 15.129,63.624 14.641,68.869 19.795,67.458 20.225,72.708 25.057,70.423 26.391,75.519 30.752,72.431 
		32.951,77.217 36.161,73.616 38.67,77.748 42.042,73.386 46.125,77.158 48.34,72.338 52.67,75.404 54.016,70.273 58.812,72.541 
		59.246,67.253 64.361,68.654 63.871,63.373 69.154,63.863 67.752,58.746 73.041,58.312 70.773,53.517 75.904,52.169 72.84,47.843 
		77.658,45.625 	"/>
	<g>
		<polygon fill="#FFE603" points="35.753,4.362 32.325,0.591 30.256,5.411 26.003,2.345 24.696,7.477 19.919,5.208 19.493,10.496 
			14.382,9.095 14.874,14.378 9.595,13.887 10.996,19.005 5.709,19.438 7.977,24.234 2.844,25.58 5.91,29.909 1.09,32.125 
			5.059,36.05 0.5,39.207 4.893,42.248 1.148,45.953 6.002,48.185 2.957,52.484 8.127,53.838 5.875,58.6 11.199,59.037 
			9.809,64.118 15.129,63.624 14.641,68.869 19.795,67.458 20.225,72.708 25.057,70.423 26.391,75.519 30.752,72.431 32.951,77.217 
			35.911,73.616 38.17,77.748 38.17,0 		"/>
		<polygon fill="#FFD412" points="46.125,77.158 48.34,72.338 52.67,75.404 54.016,70.273 58.812,72.541 59.246,67.253 
			64.361,68.654 63.871,63.373 69.154,63.863 67.752,58.746 73.041,58.312 70.773,53.517 75.904,52.169 72.84,47.843 77.658,45.625 
			73.961,41.966 78.25,39.082 73.793,36.086 77.695,32.328 72.785,30.152 75.975,25.773 70.764,24.483 73.145,19.617 67.787,19.251 
			69.287,14.045 63.947,14.616 64.521,9.229 59.363,10.717 58.992,5.312 54.17,7.674 52.865,2.417 48.527,5.58 46.33,0.628 
			41.935,4.568 38.17,0 38.17,77.748 41.792,73.386 		"/>
	</g>
</g>
</svg>
