<?xml version="1.0" encoding="utf-8"?>
<!-- Generator: Adobe Illustrator 15.1.0, SVG Export Plug-In . SVG Version: 6.00 Build 0)  -->
<!DOCTYPE svg PUBLIC "-//W3C//DTD SVG 1.1//EN" "http://www.w3.org/Graphics/SVG/1.1/DTD/svg11.dtd">
<svg version="1.1" id="Calque_1" xmlns="http://www.w3.org/2000/svg" xmlns:xlink="http://www.w3.org/1999/xlink" x="0px" y="0px"
	 width="800px" height="600px" viewBox="0 0 800 600" enable-background="new 0 0 800 600" xml:space="preserve">
<g>
	<rect fill="#2E3192" width="800" height="600"/>
	<rect y="318" opacity="0.17" width="800" height="282"/>
	<polygon fill="#3A3EB9" points="459.5,517.667 177.667,513.667 130.979,600 506.214,600 	"/>
	<rect x="340.5" y="90" fill="#8C6239" width="119" height="228"/>
	<rect x="538" y="196.023" fill="#A67C52" width="231" height="7"/>
	<rect x="572.334" y="184.711" fill="#3A3EB9" width="53.667" height="11.312"/>
	<rect x="581.001" y="173.398" fill="#4145C3" width="36.333" height="11.312"/>
	<rect x="587.335" y="162.086" fill="#4E51C7" width="23.665" height="11.312"/>
	<rect x="594.585" y="150.773" fill="#5B5ECB" width="9.165" height="11.312"/>
	<g>
		<rect x="64" y="278" fill="#8C6239" width="208" height="40"/>
		<rect x="64" y="198" fill="#8C6239" width="208" height="120"/>
		<rect x="64" y="238" fill="#986A3E" width="208" height="40"/>
		<rect x="64" y="198" fill="#A47343" width="208" height="40"/>
		<circle fill="#B88451" cx="111.333" cy="298" r="5"/>
		<circle fill="#B88451" cx="224.667" cy="298" r="5"/>
		<circle fill="#B88451" cx="111.333" cy="258" r="5"/>
		<circle fill="#B88451" cx="224.667" cy="258" r="5"/>
		<circle fill="#B88451" cx="111.333" cy="218" r="5"/>
		<circle fill="#B88451" cx="224.667" cy="218" r="5"/>
	</g>
	<rect x="666.334" y="143.023" fill="#049372" width="10.667" height="53"/>
	<rect x="677.001" y="129.023" fill="#F9BF3B" width="5.333" height="67"/>
	<rect x="686.293" y="147.097" fill="#D64541" width="4.75" height="48.927"/>
	<rect x="697.545" y="143.023" fill="#515151" width="6.829" height="54.838"/>
	<path fill="#4E51C7" d="M140.411,164.834h14.277l-11.786-35.584h-26.471l-11.785,35.584h14.277
		c-4.591,3.331-7.589,8.726-7.589,14.833c0,10.125,8.208,18.333,18.333,18.333c10.125,0,18.333-8.208,18.333-18.333
		C148,173.56,145.002,168.165,140.411,164.834z"/>
	<polygon fill="#4E51C7" points="434.096,373 203.096,373 130.979,600 219.667,593.667 241.865,580.94 408.167,580.667 427,594.333 
		466.333,590.333 506.214,600 	"/>
	<polygon opacity="0.5" fill="#4145C3" points="296.88,387.923 308.789,380.632 321.183,381.36 327.501,389.866 323.613,379.417 
		314.864,376.5 304.9,379.417 	"/>
	<polygon opacity="0.5" fill="#4145C3" points="363.532,387.923 351.624,380.632 339.229,381.36 332.91,389.866 336.799,379.417 
		345.548,376.5 355.512,379.417 	"/>
	<polygon opacity="0.5" fill="#4145C3" points="276.864,538.334 309,526.334 329.428,532.334 346.333,526.334 385,538.334 
		357.667,521.667 337,521.667 325.333,525.667 312.333,521.667 299.201,521.667 	"/>
	<polygon opacity="0.5" fill="#4145C3" points="281.903,421.035 298.585,414.974 312.189,418.005 321.537,421.035 313.963,414.974 
		301.72,411.667 285.573,416.352 	"/>
	<polygon opacity="0.5" fill="#4145C3" points="330.932,430.403 347.614,424.342 361.218,427.373 370.566,430.403 362.992,424.342 
		350.749,421.035 334.602,425.72 	"/>
	<polygon opacity="0.5" fill="#4145C3" points="279,475.5 307,472.5 318.597,475.5 332.911,472.5 350.749,472.5 373.5,480.5 
		355,470 340.5,467 321.537,469.5 312.191,469.5 305.5,467 290,470.5 	"/>
	<rect x="438.5" y="184" fill="#A47343" width="11.5" height="29"/>
	<rect x="419.5" y="189.203" fill="#B88451" width="27" height="4.594"/>
</g>
</svg>
