<?xml version="1.0" encoding="utf-8"?>
<!-- Generator: Adobe Illustrator 15.1.0, SVG Export Plug-In . SVG Version: 6.00 Build 0)  -->
<!DOCTYPE svg PUBLIC "-//W3C//DTD SVG 1.1//EN" "http://www.w3.org/Graphics/SVG/1.1/DTD/svg11.dtd">
<svg version="1.1" id="Calque_1" xmlns="http://www.w3.org/2000/svg" xmlns:xlink="http://www.w3.org/1999/xlink" x="0px" y="0px"
	 width="93.557px" height="215.67px" viewBox="0 0 93.557 215.67" enable-background="new 0 0 93.557 215.67" xml:space="preserve">
<g>
	<path fill="#C5EFF7" d="M24.845,49.634c43.245,101.555,64.453,131.919,64.453,131.919l4.258-1.858
		C47.803,94.533,30.278,49.634,30.278,49.634H24.845z"/>
	<polygon fill="#A7E7F3" points="85.073,173.474 76.873,161.031 59.201,126.252 40.943,83.042 27.603,49.634 23.27,49.623 
		12.474,52.961 11.072,57.542 17.068,80.038 16.76,100.944 7.184,146.752 0,188.741 34.036,192.276 68.956,190.438 89.299,181.553 	
		"/>
</g>
<g>
	<polygon fill="#E8A990" points="13.771,116.84 15.08,118.949 15.326,123.879 18.916,129.493 19.832,129.167 18.221,126.229 
		19.026,125.804 21.093,129.84 22.247,129.428 20.038,125.229 20.744,124.771 23.309,130.032 24.563,129.584 21.91,124.211 
		22.368,123.981 24.542,127.954 25.659,127.435 23.699,123.479 23.18,121.883 23.71,121.28 24.452,121.215 25.494,121.781 
		26.949,123.873 28.12,123.282 25.26,119.485 23.86,118.656 22.22,117.688 19.41,117.744 18.178,113.907 	"/>
	<path fill="#89DFEF" d="M17.313,78.839l-2.647,3.93l-2.262,9.269l4.809,13.271l1.575,9.706l-5.413,6.43l-5.009-5.371l-5.01-20.782
		l1.697-15.358c0,0,1.414-24.936,8.32-27.476C20.283,49.917,17.313,78.839,17.313,78.839z"/>
</g>
<g>
	<polygon fill="#E8A990" points="66.906,115.991 65.596,118.103 65.351,123.03 61.76,128.646 60.844,128.317 62.455,125.381 
		61.65,124.955 59.584,128.992 58.429,128.58 60.638,124.382 59.933,123.922 57.367,129.185 56.113,128.735 58.766,123.362 
		58.308,123.135 56.134,127.106 55.017,126.584 56.977,122.631 57.496,121.035 56.967,120.433 56.225,120.366 55.181,120.935 
		53.727,123.024 52.556,122.435 55.417,118.638 56.817,117.808 58.457,116.838 61.265,116.896 62.498,113.06 	"/>
	<path fill="#A7E7F3" d="M63.363,78.555l2.647,3.93l2.262,9.269l-4.807,13.271l-1.575,9.705l5.413,6.433l5.008-5.373l5.009-20.782
		l-1.696-15.358c0,0-1.414-24.935-8.32-27.475C60.393,49.634,63.363,78.557,63.363,78.555z"/>
</g>
<polygon fill="#DE9D7E" points="42.709,186.569 55.496,186.569 53.902,213.343 44.303,213.343 "/>
<polygon fill="#DE9D7E" points="22.633,186.569 35.419,186.569 33.824,213.343 24.226,213.343 "/>
<polygon fill="#89DFEF" points="7.184,146.752 16.76,100.944 17.068,80.038 12.474,52.961 23.27,49.623 59.181,49.623 
	67.581,52.299 64.914,79.705 65.127,100.944 74.703,146.752 81.886,188.741 0,188.741 "/>
<path fill="#DE9D7E" d="M29.026,37.564l1.252,12.07c0,0,3.394,2.276,11.037,2.276s10.486-2.276,10.486-2.276l1.254-12.463
	L29.026,37.564z"/>
<polygon fill="#E8A990" points="24.152,7 21.288,15.707 23.973,31.816 28.901,41.306 39.478,46.251 43.367,46.622 53.46,41.376 
	58.962,31.611 61.284,14.589 58.793,7 "/>
<polygon fill="#643C18" points="15.949,31.465 16.445,36.343 15.949,42.378 18.916,45.992 25.199,45.992 28.762,44.614 
	34.903,46.335 38.388,45.741 44.649,46.622 51.802,46.147 53.403,45.041 57.822,45.913 64.105,45.913 67.074,42.299 66.577,36.264 
	67.074,31.386 67.074,27.321 66.237,22.712 66.26,18.454 64.078,14.873 63.23,10.709 59.201,4.454 51.768,0 45.202,0 41.446,0.742 
	41.446,0.795 37.821,0.079 31.252,0.079 23.821,4.533 19.792,10.789 18.943,14.952 16.763,18.533 16.785,22.792 15.949,27.399 "/>
<path fill="#A7E7F3" d="M49.102,215.67c3.733,0,6.758,0.021,6.758-1.836c0-1.858-3.024-3.364-6.758-3.364s-6.758,1.506-6.758,3.364
	C42.344,215.69,45.369,215.67,49.102,215.67z"/>
<path fill="#A7E7F3" d="M28.121,215.67c3.732,0,6.757,0.021,6.757-1.836c0-1.858-3.025-3.364-6.757-3.364
	c-3.732,0-6.758,1.506-6.758,3.364C21.363,215.69,24.388,215.67,28.121,215.67z"/>
<path fill="#C5EFF7" d="M67.542,112.256c-29.266,13.572-52.877-0.425-52.877-0.425l1.558-5.514
	c24.741,15.411,50.33,0.849,50.33,0.849L67.542,112.256z"/>
</svg>
