<?xml version="1.0" encoding="utf-8"?>
<!-- Generator: Adobe Illustrator 15.1.0, SVG Export Plug-In . SVG Version: 6.00 Build 0)  -->
<!DOCTYPE svg PUBLIC "-//W3C//DTD SVG 1.1//EN" "http://www.w3.org/Graphics/SVG/1.1/DTD/svg11.dtd">
<svg version="1.1" id="Calque_1" xmlns="http://www.w3.org/2000/svg" xmlns:xlink="http://www.w3.org/1999/xlink" x="0px" y="0px"
	 width="134.356px" height="354.884px" viewBox="0 0 134.356 354.884" enable-background="new 0 0 134.356 354.884"
	 xml:space="preserve">
<g>
	<polygon fill="#F7CA83" points="43.531,45.261 51.536,72.729 46.411,74.675 43.875,76.02 40.793,75.37 36.212,76.02 37.88,69.997 
		37.138,66.237 38.43,63.973 39.177,60.075 37.88,57.304 36.212,53.691 36.711,49.615 37.762,47.192 37.636,44.781 	"/>
	<polygon fill="#F7CA83" points="90.623,46.749 80.501,73.842 85.626,75.788 88.176,75.121 91.245,76.482 95.328,75.693 
		93.051,71.062 94.402,69.252 93.607,65.087 91.245,61.196 93.467,58.555 92.634,55.776 94.402,51.884 94.275,48.306 94.402,45.894 
			"/>
	<path fill="#DE9D7E" d="M97.116,33.463c0,0,2.548,5.092-1.379,12.129l-5.114,1.157l2.196-12.713L97.116,33.463z"/>
	<polygon fill="#8C6239" points="108.078,350.389 101.999,344.957 86.202,346.879 82.859,351.059 82.23,337.832 78.05,318.397 
		77.633,288.908 71.148,257.571 71.417,246.055 66.185,242.071 60.592,246.055 59.663,262.769 58.411,311.024 54.229,332.807 
		54.021,351.059 44.626,344.296 37.32,342.648 30.555,344.957 24.062,350.389 25.143,326.82 21.623,292.194 23.787,248.008 
		19.729,225.404 21.069,191 111.068,191 107.681,235.623 109.906,253.194 107.138,285.554 109,301.398 106.87,325.16 
		108.236,341.991 	"/>
	<polygon fill="#E2A28A" points="111.406,191 21.052,191 21.11,108.127 28.716,78.965 46.47,77 82.918,77 112.214,80.62 
		111.426,108.229 	"/>
	<polygon fill="#42210B" points="41.93,354.192 52.379,353.837 43.454,343.826 37.354,341 31.501,341 24.901,346.161 
		23.366,352.758 31.501,353.994 	"/>
	<polygon fill="#42210B" points="81.522,354.884 76.616,353.837 80.345,344.36 90.597,341 96.452,341 103.052,346.161 
		104.586,352.758 96.452,353.994 	"/>
	<path fill="#DE9D7E" d="M44.978,59.864L47.1,78.036c0,0,4.809,4.78,17.738,4.78c12.931,0,18.67-4.78,18.67-4.78l2.119-17.599
		L44.978,59.864z"/>
	<polygon fill="#E8A990" points="41.354,23 40.441,30.634 43.834,67.101 61.247,74.559 74.375,72.959 88.401,65.301 93.102,32.121 
		91.73,23 	"/>
	<path fill="#DE9D7E" d="M36.583,33.463c0,0-3.66,5.092,0.267,12.129l5.116,1.157l-1.184-12.792L36.583,33.463z"/>
	<polygon fill="#DE9D7E" points="58.725,49.614 66.633,45.894 74.939,49.985 	"/>
	<g>
		<path fill="#FFFFFF" d="M72.75,41.728c0.865-2.855,7.335-4.79,9.021-4.626c1.69,0.165,3.089,1.005,3.162,2.42
			c0.074,1.416-1.398,3.524-2.533,4.083c-1.135,0.562-4.194,0.646-5.729,0.354C75.133,43.667,72.515,42.501,72.75,41.728z"/>
		<circle fill="#603813" cx="78.906" cy="40.785" r="2.706"/>
		<circle fill="#333333" cx="79.023" cy="40.764" r="1.076"/>
		<path fill="#FFFFFF" d="M80.501,39.89c0,0.319-0.256,0.576-0.574,0.576c-0.32,0-0.575-0.257-0.575-0.576
			c0-0.318,0.255-0.577,0.575-0.577C80.246,39.313,80.501,39.572,80.501,39.89z"/>
	</g>
	<polygon opacity="0.27" fill="#C1272D" points="57.566,60.011 63.162,62 70.287,62 76.893,59.833 70.199,57 64.063,57 	"/>
	<polygon fill="#DE9D7E" points="60.057,67.344 62.438,65 70.737,65 72.712,67.344 70.287,66.441 63.162,65.788 	"/>
	<polygon fill="#F7CA83" points="71.515,38.329 81.039,36.269 87.003,36.896 83.19,33.583 75.769,34.921 	"/>
	<polygon fill="#F7CA83" points="62.544,38.329 53.021,36.269 47.057,36.896 50.869,33.583 58.29,34.921 	"/>
	<path fill="#F7CA83" d="M93.102,21.449l-0.746-4.169l-8.754,0.694l-3.801-0.694l-6.084,0.694l-6.585,1.01l-6.585-1.01l-6.083-0.694
		l-3.8,0.694l-8.755-0.694l-0.415,2.641c0,0,1.112,0.903,1.112,1.319c0,0.417-1.25,1.877-1.25,1.877l-1.239,6.157l-2.538,3.09
		l0.169,1.235l3.035,0.356l2.192-3.242l-0.092,1.301l2.898-1.39l2.03-2.408l5.055,0.278l4.702-1.205l3.846,1.298l3.419-1.221
		l4.039,0.752l3.842-0.829l2.689,1.182l6.21-1.182l4.015,2.363l3.533,0.358l1.338,2.698l0.551,4.106l1.771-2.78l2.509-0.198v-3.217
		l-1.157-1.347c0,0-1.068-4.073-1.068-4.49S93.102,21.449,93.102,21.449z"/>
	<polygon fill="#F7CA83" points="82.35,65.087 82.35,62.585 81.612,61.188 81.612,57.304 80.099,54.664 79.801,52.023 77.947,51.19 
		74.939,51.19 71.927,51.19 66.831,50.078 61.63,51.19 58.62,51.19 55.611,51.19 53.757,52.023 53.458,54.664 51.947,57.304 
		51.947,61.188 51.208,62.585 51.208,65.087 49.515,69.5 52.169,70.641 53.63,68.562 54.207,66.237 53.757,63.419 54.722,61.751 
		55.611,58.241 55.611,56.331 57.357,55.914 59.963,55.22 62.047,55.497 64.549,54.247 66.831,54.409 69.009,54.247 71.511,55.497 
		73.595,55.22 76.201,55.914 77.947,56.331 77.947,58.241 78.836,61.751 79.801,63.419 79.352,66.237 79.927,67.388 81.15,69.252 
		83.135,68.169 	"/>
	<g>
		<path fill="#FFFFFF" d="M60.463,41.728c-0.866-2.855-7.334-4.79-9.021-4.626c-1.691,0.165-3.09,1.005-3.164,2.42
			c-0.074,1.416,1.399,3.524,2.534,4.083c1.135,0.562,4.195,0.646,5.729,0.354C58.08,43.667,60.698,42.501,60.463,41.728z"/>
		<circle fill="#603813" cx="54.447" cy="40.785" r="2.705"/>
		<circle fill="#333333" cx="54.565" cy="40.764" r="1.076"/>
		<circle fill="#FFFFFF" cx="55.467" cy="39.89" r="0.575"/>
	</g>
	<g>
		<g>
			<path fill="#E6E6E6" d="M93.411,13.055L83.846,4.8L67.401,0L50.956,4.8l-9.563,8.255l-1.019,15.801
				c0,0,10.245-3.331,27.028-3.331c16.783,0,27.028,3.331,27.028,3.331L93.411,13.055z"/>
			<path fill="#D7A265" d="M67.401,20.8c-15.167,0-24.964,2.712-26.718,3.236l-0.311,4.82c0,0,10.245-3.331,27.028-3.331
				c16.783,0,27.028,3.331,27.028,3.331l-0.312-4.82C92.366,23.512,82.566,20.8,67.401,20.8z"/>
		</g>
		<path fill="#D7A265" d="M67.401,17.673c14.247,0,23.952,2.401,26.51,3.127l-0.31-4.785c-3.155-0.852-12.773-3.067-26.2-3.067
			s-23.044,2.198-26.199,3.049l-0.31,4.803C43.449,20.074,53.154,17.673,67.401,17.673z"/>
	</g>
	<polygon fill="#754C24" points="36.212,93.463 70.563,96.596 78.835,93.463 94.275,95.029 95.328,107.559 96.666,125.047 
		102.668,132.616 101.325,150.891 105.405,160.545 104.235,175.946 102.668,190.562 107.106,224.495 85.626,229.977 73.696,226.322 
		68.997,228.672 52.814,223.974 37.936,227.889 31.932,231.804 17.576,231.804 25.146,214.258 23.37,192.912 27.322,164.722 
		33.053,151.671 30.105,142.796 33.053,127.918 35.064,115.65 	"/>
	<polygon fill="#603813" points="38.854,77.008 48.188,103.319 41.683,104.504 33.053,77.605 	"/>
	<polygon fill="#603813" points="40.736,148.085 40.471,154.764 21.313,154.937 20.97,147.959 	"/>
	<polygon fill="#603813" points="112.769,147.646 112.76,153.458 92.795,154.104 92.195,147.994 	"/>
	<polygon fill="#603813" points="92.247,77.488 83.461,104.056 89.758,105.36 97.84,78.205 	"/>
	<g>
		<polygon fill="#E8A990" points="0.559,133.514 6.782,106.512 14.295,87.33 22.213,80.478 30.536,79.779 35.411,88.215 
			36.212,101.033 35.064,115.65 26.712,132.355 17.576,141.491 20.97,147.959 17.881,186.417 23.208,187.928 25.75,190.925 
			27.919,193.491 31.165,203.176 28.625,203.745 27.066,198.48 25.419,196.674 23.987,196.388 22.646,197.351 22.722,201.027 
			24.181,210.517 21.783,210.97 19.929,201.316 18.934,201.529 20.899,214.426 18.283,214.644 16.42,202.032 14.833,202.595 
			16.625,212.749 14.213,212.951 12.601,203.221 10.842,203.651 12.221,210.795 10.308,210.953 8.975,203.793 6.715,197.003 
			9.039,186.442 1.079,153.841 2.051,148.035 0,141.395 		"/>
	</g>
	<g>
		<polygon fill="#E8A990" points="133.797,133.514 127.574,106.512 120.061,87.33 112.143,80.478 103.821,79.779 98.945,88.215 
			98.143,101.033 99.292,115.65 107.644,132.355 116.78,141.491 113.386,147.959 116.474,186.417 111.148,187.928 108.606,190.925 
			106.437,193.491 103.191,203.176 105.732,203.745 107.291,198.48 108.937,196.674 110.369,196.388 111.71,197.351 
			111.634,201.027 110.175,210.517 112.573,210.97 114.426,201.316 115.421,201.529 113.458,214.426 116.074,214.644 
			117.936,202.032 119.523,202.595 117.732,212.749 120.143,212.951 121.755,203.221 123.514,203.651 122.135,210.795 
			124.047,210.953 125.381,203.793 127.641,197.003 125.318,186.442 133.277,153.841 132.305,148.035 134.356,141.395 		"/>
	</g>
</g>
</svg>
