<?xml version="1.0" encoding="utf-8"?>
<!-- Generator: Adobe Illustrator 15.1.0, SVG Export Plug-In . SVG Version: 6.00 Build 0)  -->
<!DOCTYPE svg PUBLIC "-//W3C//DTD SVG 1.1//EN" "http://www.w3.org/Graphics/SVG/1.1/DTD/svg11.dtd">
<svg version="1.1" id="Calque_1" xmlns="http://www.w3.org/2000/svg" xmlns:xlink="http://www.w3.org/1999/xlink" x="0px" y="0px"
	 width="157.639px" height="481.406px" viewBox="0 0 157.639 481.406" enable-background="new 0 0 157.639 481.406"
	 xml:space="preserve">
<g>
	<polygon fill="#C7B299" points="131.98,475.359 124.232,468.437 104.101,470.888 99.841,476.214 99.041,459.358 93.715,434.589 
		93.183,397.009 84.917,357.074 85.261,342.398 78.594,337.324 71.466,342.398 70.281,363.701 68.684,425.195 63.357,452.953 
		63.091,476.214 51.118,467.597 41.807,465.496 33.185,468.437 24.911,475.359 26.287,445.324 21.805,401.199 24.563,344.886 
		19.39,316.316 21.1,272.703 135.793,272.703 131.475,329.343 134.31,351.615 130.785,392.795 133.155,412.955 130.44,443.223 
		132.183,464.666 	"/>
	<polygon fill="#DE9D7E" points="136.22,272.703 21.076,272.703 21.149,166.861 30.845,129.453 53.467,126.703 99.919,126.703 
		137.251,131.443 136.246,166.925 	"/>
	<polygon fill="#42210B" points="50.773,480.466 64.954,479.984 52.843,467.966 44.565,465.703 36.622,465.703 27.667,471.138 
		25.584,479.302 36.622,480.587 	"/>
	<polygon fill="#42210B" points="104.501,481.406 97.844,479.984 102.903,468.695 116.818,465.703 124.763,465.703 133.718,471.138 
		135.801,479.302 124.763,480.587 	"/>
	<polygon fill="#A67C52" points="106.703,123.924 103.369,148.712 91.355,168.923 18.168,175.822 13.108,214.457 18.628,249.871 
		13.108,277.005 38.576,290.804 73.358,287.125 100.034,290.804 128.09,283.906 144.647,282.525 140.048,243.892 128.573,210.544 
		123.289,194.333 134.069,152.194 141.888,128.91 	"/>
	<path fill="#CD957E" d="M51.569,102.461l2.701,23.159c0,0,6.128,6.09,22.606,6.09s23.79-6.09,23.79-6.09l2.702-22.429
		L51.569,102.461z"/>
	<polygon fill="#DE9D7E" points="44.872,58.703 47.46,103.321 72.299,124.018 89.029,121.891 109.556,101.16 114.552,58.703 	"/>
	<path fill="#CD957E" d="M120.423,68.996c0,0,0.862,9.143-4.14,18.112l-5.28,1.561l1.938-16.555L120.423,68.996z"/>
	<path fill="#CD957E" d="M37.069,68.996c0,0-0.862,9.143,4.14,18.112l5.412,1.561l-0.936-16.204L37.069,68.996z"/>
	<polygon fill="#CD957E" points="70.369,90.391 80.832,84.527 88.191,89.586 	"/>
	<g>
		<path fill="#D2D2D2" d="M37.819,50.895v7.808h76.416l6.584-1.781v-6.716C120.819,50.205,78.819,47.456,37.819,50.895z"/>
		<path fill="#E6E6E6" d="M80.199,13.799c-36.908,0-39.819,36.739-39.819,36.739l39.819,0.874l39.821-0.874
			C120.021,50.538,117.109,13.799,80.199,13.799z"/>
	</g>
	<polygon fill="#D2D2D2" points="44.269,38.054 56.604,21.397 53.052,16.86 37.535,37.966 	"/>
	<polygon fill="#D2D2D2" points="116.102,38.054 103.766,21.397 107.318,16.86 122.834,37.966 	"/>
	<polyline fill="#D2D2D2" points="79.729,8.689 83.344,14.723 79.74,18.859 76.061,14.733 79.729,8.689 	"/>
	<path fill="#E8E3E3" d="M39.355,35.492c0,0-21.563-13.931-4.832-35.492c0,0-0.089,12.823,16.297,19.895L39.355,35.492z"/>
	<path fill="#E8E3E3" d="M121.003,35.476c0,0,6.565-4.03,9.667-11.137l-2.178-5.064l-3.162,0.46l0.92-2.473l-5.376-5.323
		c-2.452,2.917-5.856,5.768-11.229,8.086L121.003,35.476z"/>
	<polygon fill="#8C6239" points="45.686,72.454 38.161,69.436 35.891,65.579 37.628,58.703 59.66,58.703 51.455,65.033 
		46.38,62.275 	"/>
	<polygon fill="#8C6239" points="41.816,87.283 38.576,102.177 47.188,98.491 46.621,88.668 	"/>
	<polygon fill="#8C6239" points="116.005,87.189 119.626,102.35 116.569,101.042 112.625,104.419 110.343,100.765 109.556,101.022 
		111.003,88.668 	"/>
	<polygon fill="#8C6239" points="111.003,58.703 109.556,62.55 111.971,63.33 113.545,65.999 109.061,73.165 112.941,72.124 
		119.246,69.492 122.857,63.948 121.113,59.453 118.115,57.796 114.552,58.703 	"/>
	<polygon fill="#8C6239" points="86.926,58.703 97.965,63.188 106.703,58.703 	"/>
	<polyline fill="#8C6239" points="61.17,58.374 56.604,66.763 65.54,71.477 60.251,65.412 66.115,58.374 	"/>
	<path fill="#FFFFFF" d="M70.782,78.947c0.048-1.025-0.438-2.444-1.932-3.507c-1.493-1.062-7.594-2.32-9.737-2.048
		c-2.143,0.272-3.898,1.396-3.938,3.202c-0.038,1.805,1.915,4.437,3.383,5.106c1.467,0.67,5.368,0.663,7.312,0.234
		S70.733,79.972,70.782,78.947z"/>
	<circle fill="#99C6E4" cx="62.893" cy="77.976" r="3.447"/>
	<circle fill="#4D4D4D" cx="62.988" cy="77.949" r="1.371"/>
	<circle fill="#FFFFFF" cx="64.14" cy="76.834" r="0.733"/>
	<path fill="#FFFFFF" d="M86.914,78.947c-0.049-1.025,0.437-2.444,1.931-3.507c1.493-1.062,7.595-2.32,9.737-2.048
		s3.898,1.396,3.937,3.202c0.04,1.805-1.914,4.437-3.381,5.106c-1.467,0.67-5.369,0.663-7.313,0.234S86.963,79.972,86.914,78.947z"
		/>
	<circle fill="#99C6E4" cx="94.803" cy="77.976" r="3.447"/>
	<circle fill="#4D4D4D" cx="94.954" cy="77.949" r="1.372"/>
	<circle fill="#FFFFFF" cx="96.104" cy="76.834" r="0.733"/>
	<polygon opacity="0.27" fill="#C1272D" points="67.609,104.225 74.738,107.703 83.822,107.703 92.676,104.225 83.707,102.703 
		75.889,102.703 	"/>
	<polygon opacity="0.55" fill="#CD957E" points="70.785,114.672 73.818,111.703 84.397,111.703 86.911,114.672 83.822,113.513 
		74.738,112.684 	"/>
	<polygon fill="#8C6239" points="86.911,73.354 97.477,71.649 104.979,73.834 99.61,70.079 93.582,70.461 	"/>
	<polygon fill="#8C6239" points="70.656,73.354 60.091,71.649 52.589,73.834 57.956,70.079 63.984,70.461 	"/>
	<g>
		<polygon fill="#DE9D7E" points="0,201.411 4.296,166.364 11.267,141.05 20.388,131.311 30.845,129.318 38.146,139.36 
			38.939,155.206 36.997,169.295 29.237,194.887 19.523,208.662 23.029,217.534 28.995,266.157 35.946,267.36 39.569,270.824 
			42.657,273.787 48.061,285.63 44.915,286.689 42.242,280.224 39.914,278.152 38.058,277.984 36.49,279.379 37.073,284.029 
			40.186,295.863 37.205,296.756 33.573,284.767 32.34,285.167 36.546,301.253 33.26,301.876 29.218,286.14 27.284,287.066 
			30.906,299.699 27.876,300.273 24.537,288.154 22.366,288.935 25.062,297.806 22.659,298.261 20.02,289.367 16.25,281.056 
			17.791,267.365 3.364,227.105 3.825,219.617 0.342,211.472 		"/>
		<polygon fill="#FBB03B" points="29.066,263.646 16.632,265.735 9.968,247.359 26.513,243.666 		"/>
	</g>
	<g>
		<polygon fill="#DE9D7E" points="157.639,201.411 153.344,166.364 146.373,141.05 137.251,131.311 126.794,129.318 119.493,139.36 
			118.7,155.206 120.642,169.295 128.402,194.887 138.116,208.662 134.609,217.534 128.644,266.157 121.692,267.36 118.07,270.824 
			114.982,273.787 109.578,285.63 112.724,286.689 115.396,280.224 117.726,278.152 119.581,277.984 121.149,279.379 
			120.565,284.029 117.453,295.863 120.435,296.756 124.065,284.767 125.3,285.167 121.093,301.253 124.379,301.876 128.421,286.14 
			130.355,287.066 126.733,299.699 129.763,300.273 133.102,288.154 135.273,288.935 132.577,297.806 134.979,298.261 
			137.619,289.367 141.389,281.056 139.848,267.365 154.275,227.105 153.814,219.617 157.297,211.472 		"/>
		<polygon fill="#FBB03B" points="128.573,263.646 141.008,265.735 147.671,247.359 131.127,243.666 		"/>
	</g>
	<polygon fill="#A67C52" points="111.819,124.563 142.188,128.91 138.272,153.593 128.649,165.934 125.891,185.486 111.819,182.951 
			"/>
</g>
</svg>
