<?xml version="1.0" encoding="utf-8"?>
<!-- Generator: Adobe Illustrator 15.1.0, SVG Export Plug-In . SVG Version: 6.00 Build 0)  -->
<!DOCTYPE svg PUBLIC "-//W3C//DTD SVG 1.1//EN" "http://www.w3.org/Graphics/SVG/1.1/DTD/svg11.dtd">
<svg version="1.1" id="Calque_1" xmlns="http://www.w3.org/2000/svg" xmlns:xlink="http://www.w3.org/1999/xlink" x="0px" y="0px"
	 width="156.948px" height="313.056px" viewBox="0 0 156.948 313.056" enable-background="new 0 0 156.948 313.056"
	 xml:space="preserve">
<g>
	<path fill="#DE9D7E" d="M49.275,29.313c0,0-2.551,5.1,1.382,12.147l5.122,1.159l-2.2-12.732L49.275,29.313z"/>
	<polygon fill="#603813" points="26.078,309.689 33.865,304.982 54.104,306.648 58.386,310.27 59.191,298.808 64.546,281.965 
		65.08,256.41 73.388,229.254 73.042,219.273 79.746,215.821 86.911,219.273 88.102,233.758 89.706,275.575 95.062,294.452 
		95.33,310.27 107.365,304.41 116.724,302.982 125.391,304.982 133.709,309.689 132.324,289.265 136.834,259.258 134.062,220.965 
		139.261,201.182 137.544,171.172 22.247,171.172 26.587,210.039 23.737,225.363 27.28,253.456 24.897,267.209 27.626,287.814 
		25.875,302.405 	"/>
	<polygon fill="#E2A28A" points="21.814,171.172 137.565,171.172 137.491,99.549 127.747,74.576 105.003,73.172 58.309,73.172 
		20.779,76.107 21.789,99.737 	"/>
	<path fill="#C2AD94" d="M21.814,171.172h115.751l-0.074-71.623l-9.744-24.959l-22.744-1.432c0,0-10.319,12.568-23.865,12.568
		S58.309,73.188,58.309,73.188l-37.529,2.927l1.01,23.626L21.814,171.172z"/>
	<polygon fill="#42210B" points="108.145,312.985 94.757,312.677 106.191,304.312 114.005,302.172 121.504,302.172 129.959,306.334 
		131.927,311.897 121.504,312.892 	"/>
	<polygon fill="#42210B" points="54.748,313.585 61.033,312.677 56.256,304.775 43.121,302.172 35.621,302.172 27.166,306.334 
		25.2,311.897 35.621,312.892 	"/>
	<path fill="#DE9D7E" d="M101.494,55.755L99.37,73.956c0,0-4.816,4.787-17.766,4.787c-12.95,0-18.698-4.787-18.698-4.787
		L60.782,56.33L101.494,55.755z"/>
	<polygon fill="#E8A990" points="105.124,19.172 106.038,26.648 104.017,64.397 85.201,70.515 72.052,68.892 55.779,63.133 
		53.297,28.144 54.67,19.172 	"/>
	<path fill="#DE9D7E" d="M109.902,29.313c0,0,3.666,5.1-0.268,12.147l-4.459,1.159l0.521-12.812L109.902,29.313z"/>
	<polygon fill="#DE9D7E" points="87.542,45.834 79.668,40.649 71.487,45.861 	"/>
	<polygon opacity="0.27" fill="#C1272D" points="88.887,53.561 83.451,56.172 75.15,56.172 69.005,53.626 76.234,53.172 
		82.38,53.172 	"/>
	<polygon fill="#DE9D7E" points="86.392,62.884 84.007,60.172 75.695,60.172 73.717,62.884 76.146,62.161 83.282,61.416 	"/>
	<path fill="#FFFFFF" d="M97.987,39.432c0.891-2.76-1.45-3.786-4.435-4.749c-2.983-0.963-5.481-1.499-6.373,1.261
		c-0.891,2.76,0.485,6.774,3.469,7.737C93.633,44.645,97.096,42.192,97.987,39.432z"/>
	<g>
		<circle fill="#603813" cx="92.011" cy="39.784" r="2.709"/>
		<circle fill="#333333" cx="91.893" cy="39.763" r="1.078"/>
		<circle fill="#FFFFFF" cx="90.989" cy="38.888" r="0.576"/>
	</g>
	<path fill="#FFFFFF" d="M62.007,39.432c-0.891-2.76,1.449-3.786,4.434-4.749c2.984-0.963,5.482-1.499,6.373,1.261
		c0.892,2.76-0.484,6.774-3.469,7.737C66.36,44.645,62.897,42.192,62.007,39.432z"/>
	<g>
		<circle fill="#603813" cx="67.982" cy="39.784" r="2.709"/>
		<circle fill="#333333" cx="68.101" cy="39.763" r="1.078"/>
		<circle fill="#FFFFFF" cx="69.005" cy="38.888" r="0.575"/>
	</g>
	<polygon fill="#8C6239" points="72.841,32.166 64.65,32.268 57.457,34.62 62.529,28.54 68.126,27.607 	"/>
	<polygon fill="#8C6239" points="85.69,32.166 93.88,32.268 101.073,34.62 96.001,28.54 90.404,27.607 	"/>
	<path fill="#8C6239" d="M53.297,53.152l-1.176,1.747l1.789,5.751l2.614,7.451l4.258,2.371l5.611,5.229l9.215,3.043l4.964-0.012
		l3.532,0.48l6.711-3.511l6.36-2.633l4.318-5.098l3.682-2.857l1.673-4.462l-0.811-4.183l-0.862-4.183l0.683-3.268l-0.855-3.156
		l0.173-3.241l-3.057,4.175l-3.94,3.137l-6.614,1.177l-2.678-2.484l-5.828-1.176l-5.098-0.261l-4.879,0.784l-4.077,0.523
		l-1.022,2.091l-7.2-0.784l-3.996-2.222l-1.568-2.932l-0.841-1.392l-2.256,3.147L53.297,53.152z M69.187,57.382l-1.738-1.627
		l-0.425-1.771l2.163-1.307l7.163-1.699l2.687,0.294l2.716-0.294l7.135,0.784l2.678,1.568l-0.749,3.137l-5.044,2.091l-6.104,0.262
		l-6.445-0.523L69.187,57.382z"/>
	<polygon fill="#8C6239" points="105.696,29.808 111.455,26.927 109.362,20.783 112.989,17.708 110.297,10.718 108.315,10.718 
		105.176,6.667 101.072,3.921 95.476,4.967 92.73,1.307 86.496,2.743 79.008,0 72.671,2.743 61.229,2.743 60.769,6.144 
		57.046,6.928 52.25,9.15 52.121,13.333 48.247,14.378 48.247,20.26 52.121,22.744 51.427,24.443 53.427,29.808 53.94,37.076 
		55.752,34.62 58.747,26.147 67.448,22.941 81.138,21.965 96.914,22.941 101.494,26.278 102.927,28.626 104.104,34.62 
		105.176,35.967 	"/>
	<polygon fill="#E8A990" points="0,124.229 4.401,99.936 11.543,82.392 20.89,75.642 31.602,74.26 39.084,81.222 39.897,92.204 
		37.907,101.97 29.955,119.708 20.002,129.254 23.598,135.403 29.707,169.104 36.831,169.939 40.541,172.339 43.707,174.394 
		49.242,182.602 46.021,183.336 43.279,178.854 40.895,177.42 38.994,177.301 37.385,178.27 37.985,181.491 41.173,189.694 
		38.121,190.313 34.397,182.004 33.136,182.283 37.445,193.431 34.076,193.863 29.938,182.957 27.953,183.597 31.665,192.353 
		28.562,192.751 25.141,184.353 22.915,184.893 25.68,191.04 23.217,191.357 16.649,179.432 18.228,169.942 3.446,142.038 
		3.918,136.848 0.349,131.203 	"/>
	<polygon fill="#C7B299" points="0,124.229 4.401,99.936 11.543,82.392 20.89,75.642 31.602,74.26 39.084,81.222 39.897,92.204 
		37.907,101.97 29.955,119.708 20.002,129.254 23.598,135.403 28.45,162.173 15.969,165.68 3.446,142.038 3.918,136.848 
		0.349,131.203 	"/>
	<g>
		<polygon fill="#E8A990" points="156.948,124.229 152.548,99.936 145.405,82.392 136.06,75.642 125.348,74.26 117.865,81.222 
			117.051,92.204 119.042,101.97 126.993,119.708 136.946,129.254 133.351,135.403 127.241,169.104 120.117,169.939 
			116.407,172.339 113.241,174.394 107.706,182.602 110.929,183.336 113.67,178.854 116.055,177.42 117.954,177.301 119.563,178.27 
			118.964,181.491 115.775,189.694 118.828,190.313 122.552,182.004 123.813,182.283 119.504,193.431 122.872,193.863 
			127.011,182.957 128.995,183.597 125.283,192.353 128.387,192.751 131.808,184.353 134.033,184.893 131.27,191.04 
			133.731,191.357 140.3,179.432 138.722,169.942 153.502,142.038 153.031,136.848 156.6,131.203 		"/>
		<polygon fill="#C7B299" points="156.948,124.229 152.548,99.936 145.405,82.392 136.06,75.642 125.348,74.26 117.865,81.222 
			117.051,92.204 119.042,101.97 126.993,119.708 136.946,129.254 133.351,135.403 128.498,162.173 140.98,165.68 153.502,142.038 
			153.031,136.848 156.6,131.203 		"/>
	</g>
</g>
</svg>
