<?xml version="1.0" encoding="utf-8"?>
<!-- Generator: Adobe Illustrator 15.1.0, SVG Export Plug-In . SVG Version: 6.00 Build 0)  -->
<!DOCTYPE svg PUBLIC "-//W3C//DTD SVG 1.1//EN" "http://www.w3.org/Graphics/SVG/1.1/DTD/svg11.dtd">
<svg version="1.1" id="Calque_1" xmlns="http://www.w3.org/2000/svg" xmlns:xlink="http://www.w3.org/1999/xlink" x="0px" y="0px"
	 width="800px" height="600px" viewBox="0 0 800 600" enable-background="new 0 0 800 600" xml:space="preserve">
<rect x="1" fill="#009145" width="800" height="600"/>
<polygon fill="#F7CA83" points="279,0 202,43 168,89 136,157 123.058,235.515 143,270 118,302 118,388.666 142,458.866 179,538 
	223,580 240,600 460,600 460,0 "/>
<polygon fill="#F7E0D6" points="358,65 281,97 238,150 229,236 250,272 229,307 235,381.462 252,456.963 289,505.462 349,555 
	401,554 460,560 460,44 406,53 "/>
<polygon fill="#F2F2F2" points="745,186 772,270 738,346 766,456 744,533.248 755,551.695 729,576.924 743,551.695 729,533.822 
	750.5,458 729,347 760,270 "/>
<polygon fill="#F7CA83" points="404.313,259.738 369.27,200.696 376.186,157.416 401.354,128.166 412.758,136.537 389.387,163.627 
	384.771,199.846 "/>
<polygon fill="#F7CA83" points="411.941,326.564 370.459,381.275 372.448,425.06 394.155,456.963 406.432,449.932 386.266,420.378 
	385.766,383.869 "/>
<polygon fill="#FAFAFA" points="801,0 456,0 391.014,19 420,102 370.459,219 401,368 381,416 431,476 413,498.824 440,555.295 
	444,585.246 460,594.605 455,600 801,600 "/>
<polygon fill="#F2F2F2" points="558,576.924 517,516.041 547,471.551 532,434 558,471.551 533,515.404 "/>
<polygon fill="#F2F2F2" points="582,353 626,224 604,185 614,160 593,100 607,51 604,99 621,159 613,185 638,224 "/>
<polygon fill="#F2F2F2" points="517,15 482,58 517,90 499.5,112 525,89 494,56 "/>
<polygon fill="#F2F2F2" points="509,212 468,280 503.5,373 475,281 "/>
</svg>
