<?xml version="1.0" encoding="utf-8"?>
<!-- Generator: Adobe Illustrator 15.1.0, SVG Export Plug-In . SVG Version: 6.00 Build 0)  -->
<!DOCTYPE svg PUBLIC "-//W3C//DTD SVG 1.1//EN" "http://www.w3.org/Graphics/SVG/1.1/DTD/svg11.dtd">
<svg version="1.1" id="Calque_1" xmlns="http://www.w3.org/2000/svg" xmlns:xlink="http://www.w3.org/1999/xlink" x="0px" y="0px"
	 width="800px" height="600px" viewBox="0 0 800 600" enable-background="new 0 0 800 600" xml:space="preserve">
<rect x="1" fill="#2E3192" width="800" height="600"/>
<rect x="1" y="318" opacity="0.17" width="800" height="282"/>
<rect x="341.5" y="56.968" opacity="0.36" width="119" height="261.032"/>
<polygon fill="#3A3EB9" points="460.5,517.667 178.667,513.667 131.979,600 507.214,600 "/>
<rect x="539" y="196.023" fill="#A67C52" width="231" height="7"/>
<rect x="573.334" y="184.711" fill="#3A3EB9" width="53.667" height="11.312"/>
<rect x="582.001" y="173.398" fill="#4145C3" width="36.333" height="11.312"/>
<rect x="588.335" y="162.086" fill="#4E51C7" width="23.665" height="11.312"/>
<rect x="595.585" y="150.773" fill="#5B5ECB" width="9.165" height="11.312"/>
<g>
	<rect x="65" y="278" fill="#8C6239" width="208" height="40"/>
	<rect x="65" y="198" fill="#8C6239" width="208" height="120"/>
	<rect x="65" y="238" fill="#986A3E" width="208" height="40"/>
	<rect x="65" y="198" fill="#A47343" width="208" height="40"/>
	<circle fill="#B88451" cx="112.333" cy="298" r="5"/>
	<circle fill="#B88451" cx="225.667" cy="298" r="5"/>
	<circle fill="#B88451" cx="112.333" cy="258" r="5"/>
	<circle fill="#B88451" cx="225.667" cy="258" r="5"/>
	<circle fill="#B88451" cx="112.333" cy="218" r="5"/>
	<circle fill="#B88451" cx="225.667" cy="218" r="5"/>
</g>
<rect x="667.334" y="143.023" fill="#049372" width="10.667" height="53"/>
<rect x="678.001" y="129.023" fill="#F9BF3B" width="5.333" height="67"/>
<rect x="687.293" y="147.097" fill="#D64541" width="4.75" height="48.927"/>
<rect x="698.545" y="143.023" fill="#515151" width="6.829" height="54.839"/>
<path fill="#4E51C7" d="M141.411,164.833h14.277l-11.786-35.583h-26.471l-11.785,35.583h14.277
	c-4.591,3.332-7.589,8.726-7.589,14.833c0,10.125,8.208,18.333,18.333,18.333c10.125,0,18.333-8.208,18.333-18.333
	C149,173.56,146.002,168.165,141.411,164.833z"/>
<polygon fill="#4E51C7" points="435.096,373 204.096,373 131.979,600 220.667,593.667 242.865,580.94 409.167,580.667 428,594.333 
	467.333,590.333 507.214,600 "/>
<polygon opacity="0.5" fill="#4145C3" points="297.88,387.923 309.789,380.632 322.183,381.36 328.501,389.866 324.613,379.417 
	315.864,376.5 305.9,379.417 "/>
<polygon opacity="0.5" fill="#4145C3" points="364.532,387.923 352.624,380.632 340.229,381.36 333.91,389.866 337.799,379.417 
	346.548,376.5 356.512,379.417 "/>
<polygon opacity="0.5" fill="#4145C3" points="277.864,538.334 310,526.334 330.428,532.334 347.333,526.334 386,538.334 
	358.667,521.667 338,521.667 326.333,525.667 313.333,521.667 300.201,521.667 "/>
<polygon opacity="0.5" fill="#4145C3" points="282.903,421.035 299.585,414.974 313.189,418.005 322.537,421.035 314.963,414.974 
	302.72,411.667 286.573,416.352 "/>
<polygon opacity="0.5" fill="#4145C3" points="331.932,430.403 348.614,424.342 362.218,427.373 371.566,430.403 363.992,424.342 
	351.749,421.035 335.602,425.72 "/>
<polygon opacity="0.5" fill="#4145C3" points="280,475.5 308,472.5 319.597,475.5 333.911,472.5 351.749,472.5 374.5,480.5 356,470 
	341.5,467 322.537,469.5 313.191,469.5 306.5,467 291,470.5 "/>
<polygon fill="#8C6239" points="341.5,56.968 255.597,88.491 255.597,347.043 341.5,315.52 "/>
<polygon opacity="0.16" points="341.5,56.968 255.597,88.491 255.597,349.523 341.5,318 "/>
<polygon fill="#A47343" points="265,242 276.5,235.995 276.5,206.994 265,213 "/>
<polygon fill="#B88451" points="295.5,210.785 268.5,223.798 268.5,219.204 295.5,206.191 "/>
</svg>
