<?xml version="1.0" encoding="utf-8"?>
<!-- Generator: Adobe Illustrator 15.1.0, SVG Export Plug-In . SVG Version: 6.00 Build 0)  -->
<!DOCTYPE svg PUBLIC "-//W3C//DTD SVG 1.1//EN" "http://www.w3.org/Graphics/SVG/1.1/DTD/svg11.dtd">
<svg version="1.1" id="Calque_1" xmlns="http://www.w3.org/2000/svg" xmlns:xlink="http://www.w3.org/1999/xlink" x="0px" y="0px"
	 width="182.999px" height="120.426px" viewBox="0 0 182.999 120.426" enable-background="new 0 0 182.999 120.426"
	 xml:space="preserve">
<g>
	<polygon fill="#5B5ECB" points="36.667,120.426 40.364,101.366 140.863,101.366 146.332,120.426 	"/>
	<g>
		<polygon fill="#F1A9A0" points="147.006,28.381 144.062,23.19 138.166,20.093 135.917,17.01 136.584,15.57 138.166,15.57 
			141.5,17.843 143.9,19.566 147.167,20.759 148.334,19.593 142.75,7.593 143.824,5.662 145.334,6.427 149.666,15.57 
			152.086,14.355 146.834,3.343 148,1.427 149.666,1.76 154.424,12.939 156.541,12.001 151.167,1.51 152.676,0 153.836,0.129 
			158.51,10.878 160.59,10.271 156.945,2.319 157.479,0.534 159.467,0.755 163.406,9.074 165.154,11.449 166.985,16.096 
			167.161,23.681 167.564,28.989 158.27,31.142 		"/>
		<polygon fill="#5B5ECB" points="146.332,117.426 157.666,77.426 157.666,64.093 146.332,28.759 157.666,28.759 169.666,20.759 
			177.666,42.759 182.999,65.426 182.999,89.426 170.999,120.426 146.332,120.426 		"/>
	</g>
	<g>
		<polygon fill="#F1A9A0" points="35.48,29.307 38.425,24.116 44.32,21.019 46.569,17.936 45.903,16.496 44.32,16.496 
			40.986,18.769 38.586,20.492 35.319,21.685 34.153,20.519 39.736,8.519 38.663,6.588 37.153,7.353 32.82,16.496 30.4,15.281 
			35.653,4.269 34.486,2.353 32.82,2.686 28.062,13.865 25.946,12.927 31.319,2.436 29.811,0.926 28.651,1.055 23.977,11.804 
			21.896,11.196 25.541,3.245 25.007,1.46 23.019,1.681 19.081,10 17.332,12.375 15.501,17.021 15.325,24.606 14.922,29.915 
			24.216,32.067 		"/>
		<polygon fill="#5B5ECB" points="36.667,117.426 25.333,77.426 25.333,64.093 36.667,28.759 25.333,28.759 13.333,20.759 
			5.333,42.759 0,65.426 0,89.426 12,120.426 36.667,120.426 		"/>
	</g>
</g>
</svg>
