<?xml version="1.0" encoding="utf-8"?>
<!-- Generator: Adobe Illustrator 15.1.0, SVG Export Plug-In . SVG Version: 6.00 Build 0)  -->
<!DOCTYPE svg PUBLIC "-//W3C//DTD SVG 1.1//EN" "http://www.w3.org/Graphics/SVG/1.1/DTD/svg11.dtd">
<svg version="1.1" id="Calque_1" xmlns="http://www.w3.org/2000/svg" xmlns:xlink="http://www.w3.org/1999/xlink" x="0px" y="0px"
	 width="93.556px" height="215.67px" viewBox="0 0 93.556 215.67" enable-background="new 0 0 93.556 215.67" xml:space="preserve">
<g>
	<polygon fill="#DE9D7E" points="49.253,213.343 39.654,213.343 38.06,186.57 50.847,186.57 	"/>
	<polygon fill="#DE9D7E" points="69.33,213.343 59.732,213.343 58.137,186.57 70.924,186.57 	"/>
	<polygon fill="#89DFEF" points="93.556,188.741 11.67,188.741 18.853,146.752 28.429,100.944 28.642,79.705 25.975,52.299 
		34.375,49.623 70.286,49.623 81.082,52.961 76.488,80.038 76.797,100.944 86.372,146.752 	"/>
	<path fill="#603813" d="M29.478,39.651l-1.273,5.719l5.938,0.942l6.357-0.437l3.292,1.416h13.89h6.848l5.24-0.979l3.393,0.979
		l2.334-0.979l-2.545-6.661c0,0-1.158-5.204-0.685-5.811c0.472-0.606,0.472-6.037,0.472-7.519c0-1.482-2.226-9.876-2.226-9.876
		L51.003,5.726L30.856,23.12L29.478,39.651z"/>
	<path fill="#DE9D7E" d="M40.501,37.171l1.254,12.463c0,0,2.842,3.277,10.486,3.277s11.037-3.277,11.037-3.277l1.252-12.07
		L40.501,37.171z"/>
	<polygon fill="#E8A990" points="34.763,7 32.272,14.589 34.594,31.611 40.096,41.376 50.189,46.622 54.078,46.251 64.655,41.306 
		69.583,31.816 72.268,15.707 69.404,7 	"/>
	<polygon fill="#DE9D7E" points="49.074,32.517 52.393,30.803 55.712,32.537 	"/>
	<polygon opacity="0.54" fill="#C1272D" points="44.454,37.572 49.307,40 55.243,40 60.771,37.599 55.139,37 50.261,37 	"/>
	<g>
		<polygon fill="#643C18" points="55.52,20.938 58.459,20.3 62.056,20.55 67.523,23.041 62.493,20.021 58.604,19.402 		"/>
		<g>
			<g>
				<path fill="#FFFFFF" d="M64.794,23.852c0,0-1.132,4.115-9.326,0.983C55.468,24.834,58.633,19.802,64.794,23.852z"/>
				<path fill="#FFFFFF" d="M64.794,23.852c0,0-1.132,4.115-9.326,0.983C55.468,24.834,58.464,18.551,64.794,23.852z"/>
				<g>
					<path d="M55.468,24.834c0,0,2.996-6.284,9.326-0.983C58.551,19.312,55.468,24.834,55.468,24.834z"/>
				</g>
			</g>
			<g>
				<circle fill="#00A99D" cx="60.021" cy="24.176" r="1.444"/>
				<circle fill="#333333" cx="59.958" cy="24.158" r="0.574"/>
				<circle fill="#FFFFFF" cx="59.525" cy="23.647" r="0.306"/>
			</g>
		</g>
	</g>
	<g>
		<polygon fill="#643C18" points="48.809,20.938 45.87,20.3 42.272,20.55 36.806,23.041 41.835,20.021 45.725,19.402 		"/>
		<g>
			<g>
				<path fill="#FFFFFF" d="M39.534,23.852c0,0,1.132,4.115,9.326,0.983C48.86,24.834,45.696,19.802,39.534,23.852z"/>
				<path fill="#FFFFFF" d="M39.534,23.852c0,0,1.132,4.115,9.326,0.983C48.86,24.834,45.864,18.551,39.534,23.852z"/>
				<g>
					<path d="M48.86,24.834c0,0-2.996-6.284-9.326-0.983C45.778,19.312,48.86,24.834,48.86,24.834z"/>
				</g>
			</g>
			<g>
				<circle fill="#00A99D" cx="44.309" cy="24.176" r="1.443"/>
				<circle fill="#333333" cx="44.37" cy="24.158" r="0.574"/>
				<circle fill="#FFFFFF" cx="44.803" cy="23.647" r="0.307"/>
			</g>
		</g>
	</g>
	<polygon fill="#643C18" points="77.607,27.399 76.771,22.792 76.793,18.533 74.613,14.952 73.764,10.789 69.735,4.533 
		62.304,0.079 55.735,0.079 52.11,0.795 52.11,0.742 48.354,0 41.788,0 34.355,4.454 30.326,10.709 29.478,14.873 27.297,18.454 
		27.319,22.712 26.482,27.321 26.482,31.386 26.979,36.264 26.482,42.299 29.451,45.913 35.734,45.913 39.297,44.535 36.806,38.619 
		36.158,32.049 36.37,24.812 38.278,17.705 41.778,12.724 50.625,11.349 51.979,11.252 53.466,11.428 62.312,12.803 65.812,17.784 
		67.721,24.891 67.934,32.128 67.286,38.698 64.794,44.614 68.357,45.992 74.64,45.992 77.607,42.378 77.111,36.343 77.607,31.465 	
		"/>
	<path fill="#DE9D7E" d="M41.755,49.634c0,0,3.353,12.736,10.637,18.538c7.286,5.801,19.875-7.447,19.875-7.447l-8.989-11.091
		H41.755z"/>
	<polygon fill="#A7E7F3" points="4.258,181.553 24.6,190.438 59.52,192.277 93.556,188.741 86.372,146.752 76.797,100.944 
		76.488,80.038 82.484,57.542 81.082,52.961 70.286,49.623 65.953,49.634 52.613,83.042 34.355,126.252 16.683,161.031 
		8.483,173.473 	"/>
	<path fill="#C5EFF7" d="M63.278,49.634c0,0-17.525,44.899-63.278,130.06l4.258,1.859c0,0,21.208-30.365,64.453-131.919H63.278z"/>
	<path fill="#A7E7F3" d="M51.212,212.951c0-2.751-3.025-4.981-6.758-4.981c-3.734,0-6.758,2.23-6.758,4.981
		c0,2.75,3.024,2.719,6.758,2.719C48.187,215.67,51.212,215.701,51.212,212.951z"/>
	<path fill="#A7E7F3" d="M72.193,212.951c0-2.751-3.025-4.981-6.758-4.981c-3.731,0-6.757,2.23-6.757,4.981
		c0,2.75,3.025,2.719,6.757,2.719C69.168,215.67,72.193,215.701,72.193,212.951z"/>
	<path fill="#C5EFF7" d="M27.004,107.166c0,0,25.589,14.562,50.33-0.849l1.557,5.514c0,0-23.611,13.997-52.877,0.425L27.004,107.166
		z"/>
	<g>
		<polygon fill="#E8A990" points="75.378,113.907 74.146,117.744 71.336,117.688 69.696,118.656 68.297,119.485 65.436,123.282 
			66.607,123.873 68.062,121.781 69.104,121.215 69.846,121.28 70.376,121.883 69.857,123.479 67.897,127.434 69.014,127.954 
			71.188,123.982 71.646,124.211 68.993,129.584 70.247,130.032 72.812,124.77 73.518,125.23 71.309,129.428 72.464,129.84 
			74.53,125.804 75.335,126.229 73.724,129.167 74.64,129.493 78.23,123.879 78.476,118.949 79.785,116.84 		"/>
		<path fill="#89DFEF" d="M80.182,52.457c6.907,2.54,8.321,27.476,8.321,27.476L90.2,95.291l-5.01,20.782l-5.009,5.372l-5.413-6.431
			l1.576-9.705l4.808-13.271l-2.262-9.269l-2.647-3.93C76.243,78.839,73.273,49.917,80.182,52.457z"/>
	</g>
	<g>
		<polygon fill="#E8A990" points="31.058,113.059 32.291,116.896 35.099,116.838 36.739,117.807 38.139,118.637 41,122.434 
			39.829,123.025 38.375,120.934 37.331,120.366 36.59,120.433 36.06,121.035 36.579,122.631 38.539,126.584 37.423,127.106 
			35.248,123.135 34.79,123.363 37.443,128.736 36.189,129.184 33.623,123.922 32.918,124.382 35.127,128.58 33.972,128.992 
			31.906,124.955 31.101,125.381 32.713,128.318 31.796,128.646 28.205,123.03 27.96,118.102 26.65,115.991 		"/>
		<path fill="#A7E7F3" d="M26.253,52.174c-6.907,2.54-8.321,27.475-8.321,27.475l-1.696,15.358l5.009,20.782l5.008,5.373
			l5.413-6.432l-1.575-9.705l-4.807-13.271l2.262-9.269l2.647-3.93C30.193,78.557,33.163,49.634,26.253,52.174z"/>
	</g>
</g>
</svg>
