<?xml version="1.0" encoding="utf-8"?>
<!-- Generator: Adobe Illustrator 15.1.0, SVG Export Plug-In . SVG Version: 6.00 Build 0)  -->
<!DOCTYPE svg PUBLIC "-//W3C//DTD SVG 1.1//EN" "http://www.w3.org/Graphics/SVG/1.1/DTD/svg11.dtd">
<svg version="1.1" id="Calque_1" xmlns="http://www.w3.org/2000/svg" xmlns:xlink="http://www.w3.org/1999/xlink" x="0px" y="0px"
	 width="67.42px" height="215.479px" viewBox="0 0 67.42 215.479" enable-background="new 0 0 67.42 215.479" xml:space="preserve">
<g>
	<path fill="#DE9D7E" d="M18.1,61.504l1.657,20.665c0,0,3.754,5.433,13.852,5.433c10.096,0,14.578-5.433,14.578-5.433l1.654-20.014
		L18.1,61.504z"/>
	<polygon fill="#E8A990" points="5.909,16.243 3.752,19.951 1.876,26.618 3.002,36.254 0.002,49.819 3.754,50.993 6.834,62.127 
		6.667,65.536 7.751,69.786 13.641,72.035 48.648,75.816 64.321,52.634 62.875,25.868 58.04,12.868 	"/>
	<polygon fill="#DE9D7E" points="0.248,49.868 4,49.712 4,50.993 	"/>
	<polygon opacity="0.54" fill="#C1272D" points="5.656,57.934 6.209,60 10.314,60 16.1,56.184 9.689,55.901 5.173,56.172 	"/>
	<polygon fill="#643C18" points="4.259,36.254 8.679,33.941 14.538,32.759 24.374,34.333 15.004,31.72 8.516,32.441 	"/>
	<g>
		<g>
			<path fill="#FFFFFF" d="M18.498,38.883c0,0-1.004,5.142-11.322,2.069C7.176,40.952,10.583,34.498,18.498,38.883z"/>
			<path fill="#FFFFFF" d="M18.498,38.883c0,0-1.004,5.142-11.322,2.069C7.176,40.952,10.259,32.984,18.498,38.883z"/>
			<g>
				<path d="M7.176,40.952c0,0,3.083-7.968,11.322-2.069C10.435,33.907,7.176,40.952,7.176,40.952z"/>
			</g>
		</g>
		<g>
			<circle fill="#00A99D" cx="12.686" cy="39.723" r="1.772"/>
			<path fill="#333333" d="M11.904,39.691c-0.01,0.389,0.299,0.711,0.69,0.72c0.386,0.01,0.708-0.298,0.717-0.688
				c0.011-0.39-0.298-0.711-0.684-0.72C12.235,38.993,11.914,39.303,11.904,39.691z"/>
			<circle fill="#FFFFFF" cx="12.032" cy="39.122" r="0.376"/>
		</g>
	</g>
	<polygon fill="#643C18" points="68.773,45.3 67.386,37.659 67.423,30.599 63.808,24.659 62.399,17.758 55.72,7.386 43.397,0 
		32.506,0 26.495,1.188 26.495,1.1 15.475,2.739 7.752,7.368 3.754,18.328 9.974,17.781 16.1,20.743 21.564,23.868 23.462,39.831 
		26.387,49.493 23.234,59.868 26.387,75.493 38.502,73.493 41.322,75.335 53.436,76.131 63.852,76.131 68.773,70.138 67.95,60.131 
		68.773,52.041 	"/>
	<polygon fill="#A7E7F3" points="7.088,141.204 6.421,163.87 5.754,191.538 62.087,193.539 67.42,158.203 66.42,111.536 
		60.753,86.118 51.42,82.169 18.1,82.169 13.312,87.602 8.446,107.541 3.752,115.343 1.876,122.535 3.421,133.537 	"/>
	<g>
		<polygon fill="#E8A990" points="26.931,188.741 24.887,195.104 20.229,195.011 17.509,196.616 15.188,197.992 10.444,204.287 
			12.389,205.267 14.8,201.799 16.528,200.86 17.757,200.967 18.637,201.967 17.776,204.612 14.526,211.171 16.377,212.034 
			19.982,205.448 20.743,205.827 16.345,214.736 18.424,215.479 22.678,206.753 23.846,207.518 20.183,214.478 22.1,215.161 
			25.525,208.468 26.859,209.174 24.188,214.046 25.706,214.586 31.659,205.276 32.067,197.103 34.237,193.604 		"/>
		<path fill="#89DFEF" d="M34.896,86.848c13.98-0.262,13.798,45.559,13.798,45.559l2.813,18.962l-8.307,40.964l-5.449,4.286
			l-11.831-6.041l2.612-16.093l6.115-23.991l-1.712-12.639l-4.57-7.26C28.366,130.595,22.693,87.076,34.896,86.848z"/>
	</g>
</g>
</svg>
