<?xml version="1.0" encoding="utf-8"?>
<!-- Generator: Adobe Illustrator 15.1.0, SVG Export Plug-In . SVG Version: 6.00 Build 0)  -->
<!DOCTYPE svg PUBLIC "-//W3C//DTD SVG 1.1//EN" "http://www.w3.org/Graphics/SVG/1.1/DTD/svg11.dtd">
<svg version="1.1" id="Calque_1" xmlns="http://www.w3.org/2000/svg" xmlns:xlink="http://www.w3.org/1999/xlink" x="0px" y="0px"
	 width="99.225px" height="241.291px" viewBox="0 0 99.225 241.291" enable-background="new 0 0 99.225 241.291"
	 xml:space="preserve">
<g>
	<polygon fill="#EFDCCF" points="76.865,101.408 22.368,101.408 25.425,63.409 72.391,63.409 	"/>
	<path fill="#B3B3B3" d="M80.083,33.033c0,12.61-15.631,23.287-30.413,23.287S19.259,45.644,19.259,33.033S34.889,0,49.671,0
		S80.083,20.423,80.083,33.033z"/>
	<path fill="#EBD3C3" d="M65.658,46.728L63.68,62.646c0,0-3.766,3.378-13.895,3.378c-10.127,0-14.622-3.378-14.622-3.378
		l-1.729-14.407L65.658,46.728z"/>
	<polygon fill="#EFDCCF" points="33.531,20.229 29.615,26.504 33.437,48.271 41.018,56.868 47.465,59.091 52.935,59.091 
		59.686,56.854 65.658,46.697 70.486,26.815 67.071,20.229 	"/>
	<polygon fill="#EBD3C3" points="46.48,40.177 50.27,38.053 52.935,39.886 	"/>
	<g>
		<path fill="#FFFFFF" d="M43.378,32.087c-0.555-0.199-0.84-0.251-1.564-0.383c0.077,0.222,0.12,0.457,0.12,0.704
			c0,1.191-0.966,2.157-2.157,2.157c-1.19,0-2.156-0.966-2.156-2.157c0-0.471,0.154-0.906,0.41-1.261
			c-0.338-0.042-0.602-0.072-0.744-0.088c-0.796-0.083-2.484,1.56-2.464,2.51c0.022,0.951,1.803,1.134,2.115,1.17
			c0.314,0.037,3.36,0.414,4.575,0.146c1.216-0.27,3.101-1.427,3.073-1.869C44.558,32.573,43.935,32.286,43.378,32.087z"/>
		<path opacity="0.35" fill="#8CC63F" enable-background="new    " d="M39.778,34.565c1.191,0,2.156-0.966,2.156-2.157
			c0-0.247-0.043-0.482-0.12-0.704c-0.259-0.047-0.535-0.094-0.817-0.14c0.012,0.041,0.021,0.084,0.021,0.129
			c0,0.219-0.154,0.4-0.358,0.447c0.022,0.08,0.036,0.164,0.036,0.25c0,0.475-0.385,0.857-0.857,0.857
			c-0.474,0-0.857-0.383-0.857-0.857s0.384-0.857,0.857-0.857c0.098,0,0.189,0.017,0.278,0.046c0.013-0.052,0.032-0.1,0.062-0.143
			c-0.795-0.118-1.578-0.222-2.145-0.291c-0.257,0.354-0.411,0.791-0.411,1.261C37.621,33.6,38.587,34.565,39.778,34.565z"/>
		<path fill="#4D4D4D" d="M40.099,31.695c0-0.04,0.006-0.077,0.017-0.113c-0.089-0.029-0.181-0.046-0.278-0.046
			c-0.474,0-0.857,0.383-0.857,0.857s0.384,0.856,0.857,0.856c0.473,0,0.857-0.383,0.857-0.856c0-0.087-0.014-0.17-0.036-0.25
			c-0.032,0.007-0.066,0.012-0.102,0.012C40.304,32.152,40.099,31.947,40.099,31.695z"/>
		<path fill="#FFFFFF" d="M40.115,31.58c0.259,0.089,0.463,0.297,0.543,0.561c0.204-0.046,0.358-0.229,0.358-0.447
			c0-0.045-0.009-0.088-0.021-0.129c-0.27-0.043-0.545-0.086-0.82-0.126C40.148,31.482,40.129,31.529,40.115,31.58z"/>
		<path fill="#FFFFFF" d="M40.115,31.58c-0.011,0.037-0.017,0.074-0.017,0.113c0,0.253,0.205,0.458,0.458,0.458
			c0.035,0,0.068-0.004,0.102-0.012C40.578,31.878,40.374,31.669,40.115,31.58z"/>
	</g>
	<g>
		<path fill="#FFFFFF" d="M55.648,32.087c0.557-0.199,0.841-0.251,1.564-0.383c-0.076,0.222-0.121,0.457-0.121,0.704
			c0,1.191,0.965,2.157,2.158,2.157c1.189,0,2.154-0.966,2.154-2.157c0-0.471-0.152-0.906-0.409-1.261
			c0.34-0.042,0.602-0.072,0.743-0.088c0.799-0.083,2.486,1.56,2.466,2.51c-0.022,0.951-1.804,1.134-2.116,1.17
			c-0.313,0.037-3.359,0.414-4.576,0.146c-1.216-0.27-3.1-1.427-3.071-1.869C54.469,32.573,55.092,32.286,55.648,32.087z"/>
		<path opacity="0.35" fill="#8CC63F" enable-background="new    " d="M59.249,34.565c-1.192,0-2.158-0.966-2.158-2.157
			c0-0.247,0.045-0.482,0.121-0.704c0.26-0.047,0.535-0.094,0.816-0.14c-0.012,0.041-0.019,0.084-0.019,0.129
			c0,0.219,0.152,0.4,0.357,0.447c-0.024,0.08-0.037,0.164-0.037,0.25c0,0.475,0.383,0.857,0.856,0.857
			c0.475,0,0.857-0.383,0.857-0.857s-0.383-0.857-0.857-0.857c-0.096,0-0.189,0.017-0.275,0.046c-0.015-0.052-0.033-0.1-0.062-0.143
			c0.796-0.118,1.578-0.222,2.146-0.291c0.257,0.354,0.409,0.791,0.409,1.261C61.405,33.6,60.44,34.565,59.249,34.565z"/>
		<path fill="#4D4D4D" d="M58.927,31.695c0-0.04-0.006-0.077-0.016-0.113c0.087-0.029,0.181-0.046,0.275-0.046
			c0.476,0,0.857,0.383,0.857,0.857s-0.383,0.856-0.857,0.856c-0.474,0-0.856-0.383-0.856-0.856c0-0.087,0.013-0.17,0.037-0.25
			c0.032,0.007,0.065,0.012,0.101,0.012C58.723,32.152,58.927,31.947,58.927,31.695z"/>
		<path fill="#FFFFFF" d="M58.911,31.58c-0.261,0.089-0.465,0.297-0.544,0.561c-0.205-0.046-0.357-0.229-0.357-0.447
			c0-0.045,0.008-0.088,0.019-0.129c0.271-0.043,0.547-0.086,0.819-0.126C58.878,31.482,58.899,31.529,58.911,31.58z"/>
		<path fill="#FFFFFF" d="M58.911,31.58c0.01,0.037,0.016,0.074,0.016,0.113c0,0.253-0.204,0.458-0.458,0.458
			c-0.035,0-0.067-0.004-0.101-0.012C58.448,31.878,58.653,31.669,58.911,31.58z"/>
	</g>
	<polygon opacity="0.4" fill="#C1272D" enable-background="new    " points="42.729,47.968 47.189,51.319 52.871,51.319 
		58.41,47.968 52.8,47.864 47.908,47.864 	"/>
	<polygon fill="#B3B3B3" points="54.803,29.518 61.413,28.451 66.108,29.818 62.75,27.47 58.978,27.708 	"/>
	<polygon fill="#B3B3B3" points="44.635,29.518 38.026,28.451 33.331,29.818 36.69,27.47 40.461,27.708 	"/>
	<path fill="#BEBEBE" d="M71.356,18.643c-0.729-1.869-2.812-3.217-5.269-3.217c-0.438,0-0.864,0.044-1.272,0.125
		c-0.991-0.784-2.323-1.265-3.79-1.265c-1.637,0-3.105,0.599-4.12,1.548c-1.009-1.168-2.641-1.928-4.483-1.928
		c-0.886,0-1.725,0.177-2.468,0.489c-0.744-0.312-1.581-0.489-2.469-0.489c-2.044,0-3.828,0.937-4.791,2.325
		c-0.979-0.737-2.271-1.188-3.688-1.188c-2.288,0-4.251,1.171-5.1,2.842c-0.892-0.515-1.968-0.814-3.127-0.814
		c-2.768,0-5.06,1.71-5.478,3.948c-1.77,0.782-2.979,2.347-2.979,4.15c0,2.585,2.482,4.683,5.546,4.683
		c2.768,0,5.062-1.712,5.478-3.949c1.129-0.5,2.028-1.313,2.533-2.308c0.89,0.513,1.966,0.813,3.126,0.813
		c2.044,0,3.83-0.934,4.792-2.324c0.979,0.737,2.271,1.187,3.688,1.187c0.888,0,1.726-0.176,2.469-0.489
		c0.744,0.313,1.581,0.489,2.468,0.489c1.636,0,3.105-0.599,4.12-1.549c1.009,1.169,2.641,1.928,4.484,1.928
		c0.438,0,0.865-0.044,1.273-0.125c0.799,0.631,1.817,1.065,2.95,1.211c0.729,1.869,2.812,3.217,5.268,3.217
		c3.064,0,5.548-2.097,5.548-4.682C76.064,20.927,74.02,18.984,71.356,18.643z"/>
	<polygon fill="#665891" points="99.225,202.451 0,202.451 14.784,138.998 24.333,92.222 26.836,63.409 30.719,63.409 
		29.887,91.908 69.571,91.908 69.04,63.409 72.391,63.409 74.941,92.578 84.443,139.146 	"/>
	<polygon fill="#EFDCCF" points="44.141,202.451 43.145,236.996 28.762,236.996 23.324,202.451 	"/>
	<polygon fill="#EFDCCF" points="51.279,202.451 52.194,236.996 66.576,236.996 71.65,202.451 	"/>
	<polygon opacity="0.3" enable-background="new    " points="13.169,141.136 76.008,141.136 85.692,151.016 78.457,136.711 	"/>
	<path fill="#603813" d="M40.166,241.277l3.976-0.725c0,0-0.501-6.299-1.367-7.17c-0.865-0.869-4.92-2.293-5.65-2.411
		c-0.729-0.118-2.654-0.535-3.894,0c-1.237,0.536-3.721,2.501-4.389,3.862c-0.667,1.362-1.021,5.539-1.021,5.539l5.409,0.918
		L40.166,241.277z"/>
	<path fill="#603813" d="M55.244,241.277l-3.976-0.725c0,0,0.5-6.299,1.367-7.17c0.866-0.869,4.92-2.293,5.65-2.411
		c0.729-0.118,2.653-0.535,3.894,0c1.237,0.536,3.721,2.501,4.389,3.862c0.667,1.362,1.021,5.539,1.021,5.539l-5.409,0.918
		L55.244,241.277z"/>
	<path fill="#EFDCCF" d="M5.648,106.197l0.656-5.408c0,0,11.204-29.952,13.076-34.878c1.872-4.927,13.366-2.612,13.366-2.612
		l-15.903,41.44l-0.035,0.005l1.939,37.723l3.608,0.627l1.88,1.797l1.604,1.539l2.806,6.146l-1.634,0.551l-1.387-3.356l-1.208-1.076
		l-0.964-0.086l-0.813,0.726l0.303,2.412l1.616,6.146l-1.548,0.464l-1.885-6.225l-0.642,0.207l2.184,8.352l-1.706,0.323
		l-2.099-8.169l-1.004,0.479l1.881,6.561l-1.573,0.3l-1.734-6.293l-1.127,0.405l1.4,4.604l-1.248,0.236l-1.37-4.618l-1.957-4.314
		l0.799-7.105L5.648,106.197z"/>
	<path fill="#EFDCCF" d="M93.978,106.197l-0.654-5.408c0,0-11.205-29.952-13.076-34.878s-13.365-2.612-13.365-2.612l15.901,41.44
		l0.033,0.005l-1.938,37.723l-3.609,0.627l-1.88,1.797l-1.604,1.539l-2.807,6.146l1.634,0.551l1.389-3.356l1.208-1.076l0.965-0.086
		l0.812,0.726l-0.302,2.412l-1.616,6.146l1.549,0.464l1.885-6.225l0.641,0.207l-2.184,8.352l1.707,0.323l2.098-8.169l1.005,0.479
		l-1.881,6.561l1.574,0.3l1.731-6.293l1.128,0.405l-1.399,4.604l1.247,0.236l1.371-4.618l1.957-4.314l-0.801-7.105L93.978,106.197z"
		/>
	<polygon fill="#665891" points="23.236,97.516 24.333,92.28 26.836,62.546 30.719,62.546 29.887,91.908 69.571,91.908 
		68.526,62.546 71.875,62.546 74.941,92.405 76.127,98.22 	"/>
</g>
</svg>
