<?xml version="1.0" encoding="utf-8"?>
<!-- Generator: Adobe Illustrator 15.1.0, SVG Export Plug-In . SVG Version: 6.00 Build 0)  -->
<!DOCTYPE svg PUBLIC "-//W3C//DTD SVG 1.1//EN" "http://www.w3.org/Graphics/SVG/1.1/DTD/svg11.dtd">
<svg version="1.1" id="Calque_1" xmlns="http://www.w3.org/2000/svg" xmlns:xlink="http://www.w3.org/1999/xlink" x="0px" y="0px"
	 width="124.774px" height="155.853px" viewBox="0 0 124.774 155.853" enable-background="new 0 0 124.774 155.853"
	 xml:space="preserve">
<g id="Calque_2">
	<path fill="#00557C" d="M121.361,132.227l-5.54-20.12l-7.251-7.739l-8.312-1.584l-0.065,0.092l-17.913-2.184h-1.035
		c0.268-0.187,0.395-0.299,0.395-0.299l1.603-14.135l11.057-5.001l-2.573-11.839l0.042-0.111l0.257-0.074
		c3.978-7.129,2.693-14.153,2.693-14.153l-2.035-14.912c0,0-0.354-4.479-2.548-9.93l3.386-1.996
		C96.529,25.988,109.128,15.193,97.337,0c0,0-0.867,10.047-12.993,15.758l-3.146,1.846c-3.989-2.962-10.395-6.054-17.266-6.535
		l-2.523-4.163l-2.469,4.117c-7.263,0.36-12.754,2.579-16.898,5.65l-4.402-0.771c-4.042-1.818-7.056-4.175-8.936-6.411l-7.786,9.854
		c1.904,4.365,5.979,7.554,7.735,8.781l3.278,2.111c-3.693,4.865-2.87,24.602-2.87,24.602s-0.686,7.266,3.289,14.395l-2.475,12.16
		l13.423,6.452l1.466,12.548l-4.416,0.938l-27.581,6.152l-4.33,4.624l-5.539,20.12L0,155.853h26.753l2.017-11.781l0.802,11.781h64
		l1.365-11.781l1.385,11.781h28.452L121.361,132.227z"/>
</g>
</svg>
