<?xml version="1.0" encoding="utf-8"?>
<!-- Generator: Adobe Illustrator 15.1.0, SVG Export Plug-In . SVG Version: 6.00 Build 0)  -->
<!DOCTYPE svg PUBLIC "-//W3C//DTD SVG 1.1//EN" "http://www.w3.org/Graphics/SVG/1.1/DTD/svg11.dtd">
<svg version="1.1" id="Calque_4" xmlns="http://www.w3.org/2000/svg" xmlns:xlink="http://www.w3.org/1999/xlink" x="0px" y="0px"
	 width="800px" height="9430.609px" viewBox="0 0 800 9430.609" enable-background="new 0 0 800 9430.609" xml:space="preserve">
<g>
	<rect y="-0.393" fill="#CEECF2" width="800" height="9431.002"/>
	<rect y="-0.393" opacity="0.28" fill="#CEECF2" enable-background="new    " width="800" height="9431.002"/>
</g>
<g>
	<polygon fill="#459DBF" points="-1,-7.428 -131.066,365.608 -1,365.608 	"/>
	<polygon fill="#3285A6" points="-1,-7.428 131.348,365.608 -1,365.608 	"/>
	<rect x="-23" y="365.608" fill="#464541" width="46" height="86"/>
	<polygon opacity="0.1" fill="#464541" enable-background="new    " points="-131.066,365.608 50.586,134.067 131.348,365.608 	"/>
</g>
<g>
	<g>
		<rect x="766" y="309.608" fill="#464541" width="59" height="150"/>
		<g>
			<path fill="#459DBF" d="M803,342.385c-54,0-107.832-60.94-107.832-136.12C695.168,131.094,749,70.158,803,70.158V342.385z"/>
			<path fill="#3285A6" d="M794,342.385c65,0,107.832-60.94,107.832-136.12C901.832,131.094,859,70.158,794,70.158V342.385z"/>
		</g>
	</g>
	<g opacity="0.1">
		<path fill="#464541" d="M794,342.291v0.094c0,0,3.857-0.021,4.5-0.034c0.629,0.013,4.5,0.034,4.5,0.034v-0.094
			c56-2.538,103.86-62.465,103.86-136.026c0-15.665-2.208-30.707-6.08-44.715l-207.954,55.99
			C697.293,285.863,749,339.88,794,342.291z"/>
	</g>
</g>
<g>
	<g>
		<rect x="138" y="372.608" fill="#464541" width="59" height="150"/>
		<g>
			<path fill="#3285A6" d="M175,405.245c-54,0-107.832-60.94-107.832-136.12C67.168,193.954,121,133.019,175,133.019V405.245z"/>
			<path fill="#3285A6" d="M166,405.245c65,0,107.832-60.94,107.832-136.12c0-75.171-42.832-136.106-107.832-136.106V405.245z"/>
		</g>
	</g>
	<g opacity="0.1">
		<path fill="#464541" d="M166,405.151v0.094c0,0,3.857-0.022,4.5-0.034c0.628,0.012,4.5,0.034,4.5,0.034v-0.094
			c56-2.538,103.86-62.466,103.86-136.026c0-15.665-2.208-30.706-6.08-44.715L64.826,280.399C69.292,348.723,121,402.74,166,405.151
			z"/>
	</g>
</g>
<g>
	<rect x="631" y="376.608" fill="#464541" width="57" height="32"/>
	<polygon fill="#3285A6" points="712.822,151.608 752.279,151.608 659.324,-0.873 566.345,151.608 605.807,151.608 527.943,376.608 
		658.99,376.608 790.685,376.608 	"/>
	<polygon fill="#3285A6" points="659.324,0 566.345,151.608 605.807,151.608 527.943,376.608 658.99,376.608 	"/>
	<polygon fill="#3285A6" points="659.324,0 752.279,151.608 712.822,151.608 790.685,376.608 658.99,376.608 	"/>
	<polygon opacity="0.1" fill="#464541" enable-background="new    " points="527.943,376.608 712.822,153.357 790.685,376.608 	"/>
</g>
<g>
	<rect x="603" y="641.608" fill="#464541" width="57" height="32"/>
	<polygon fill="#3285A6" points="684.906,416.608 724.363,416.608 631.408,264.127 538.429,416.608 577.891,416.608 
		500.027,641.608 631.074,641.608 762.77,641.608 	"/>
	<polygon fill="#459DBF" points="631.408,265 538.429,416.608 577.891,416.608 500.027,641.608 631.074,641.608 	"/>
	<polygon fill="#3285A6" points="631.408,265 724.363,416.608 684.906,416.608 762.77,641.608 631.074,641.608 	"/>
	<polygon opacity="0.1" fill="#464541" enable-background="new    " points="500.027,641.608 684.906,418.357 762.77,641.608 	"/>
</g>
<g>
	<rect x="82" y="711.608" fill="#464541" width="57" height="32"/>
	<polygon fill="#3285A6" points="163.906,486.608 203.364,486.608 110.408,334.127 17.429,486.608 56.89,486.608 -20.973,711.608 
		110.075,711.608 241.769,711.608 	"/>
	<polygon fill="#459DBF" points="110.408,335 17.429,486.608 56.89,486.608 -20.973,711.608 110.075,711.608 	"/>
	<polygon fill="#3285A6" points="110.408,335 203.364,486.608 163.906,486.608 241.769,711.608 110.075,711.608 	"/>
	<polygon opacity="0.1" fill="#464541" enable-background="new    " points="-20.973,711.608 163.906,488.357 241.769,711.608 	"/>
</g>
<g>
	<polygon fill="#3285A6" points="17,328.384 -112.688,700.608 17,700.608 	"/>
	<polygon fill="#3285A6" points="17,329.251 149.727,700.608 17,700.608 	"/>
	<rect x="-10" y="700.608" fill="#464541" width="54" height="89"/>
	<polygon opacity="0.1" fill="#464541" enable-background="new    " points="-112.688,700.608 68.971,469.065 149.727,700.608 	"/>
</g>
<g>
	<polygon fill="#459DBF" points="-1,562.571 -131.066,935.608 -1,935.608 	"/>
	<polygon fill="#3285A6" points="-1,562.571 131.348,935.608 -1,935.608 	"/>
	<rect x="-23" y="935.608" fill="#464541" width="46" height="86"/>
	<polygon opacity="0.1" fill="#464541" enable-background="new    " points="-131.066,935.608 50.586,704.067 131.348,935.608 	"/>
</g>
<g>
	<g>
		<rect x="138" y="942.608" fill="#464541" width="59" height="149.999"/>
		<g>
			<path fill="#3285A6" d="M175,975.245c-54,0-107.832-60.94-107.832-136.12C67.168,763.954,121,703.019,175,703.019V975.245z"/>
			<path fill="#3285A6" d="M166,975.245c65,0,107.832-60.94,107.832-136.12c0-75.171-42.832-136.106-107.832-136.106V975.245z"/>
		</g>
	</g>
	<g opacity="0.1">
		<path fill="#464541" d="M166,975.151v0.094c0,0,3.857-0.022,4.5-0.034c0.628,0.012,4.5,0.034,4.5,0.034v-0.094
			c56-2.538,103.86-62.466,103.86-136.026c0-15.665-2.208-30.706-6.08-44.715L64.826,850.399C69.292,918.723,121,972.74,166,975.151
			z"/>
	</g>
</g>
<g>
	<rect x="82" y="1281.608" fill="#464541" width="57" height="32"/>
	<polygon fill="#3285A6" points="163.906,1056.608 203.364,1056.608 110.408,904.127 17.429,1056.608 56.89,1056.608 
		-20.973,1281.608 110.075,1281.608 241.769,1281.608 	"/>
	<polygon fill="#459DBF" points="110.408,905 17.429,1056.608 56.89,1056.608 -20.973,1281.608 110.075,1281.608 	"/>
	<polygon fill="#3285A6" points="110.408,905 203.364,1056.608 163.906,1056.608 241.769,1281.608 110.075,1281.608 	"/>
	<polygon opacity="0.1" fill="#464541" enable-background="new    " points="-20.973,1281.608 163.906,1058.357 241.769,1281.608 	
		"/>
</g>
<g>
	<polygon fill="#3285A6" points="17,898.384 -112.688,1270.608 17,1270.608 	"/>
	<polygon fill="#3285A6" points="17,899.251 149.727,1270.608 17,1270.608 	"/>
	<rect x="-10" y="1270.608" fill="#464541" width="54" height="89"/>
	<polygon opacity="0.1" fill="#464541" enable-background="new    " points="-112.688,1270.608 68.971,1039.064 149.727,1270.608 	
		"/>
</g>
<g>
	<polygon fill="#459DBF" points="-1,1132.571 -131.066,1505.608 -1,1505.608 	"/>
	<polygon fill="#3285A6" points="-1,1132.571 131.348,1505.608 -1,1505.608 	"/>
	<rect x="-23" y="1505.608" fill="#464541" width="46" height="86"/>
	<polygon opacity="0.1" fill="#464541" enable-background="new    " points="-131.066,1505.608 50.586,1274.067 131.348,1505.608 	
		"/>
</g>
<g>
	<g>
		<rect x="138" y="1512.608" fill="#464541" width="59" height="150"/>
		<g>
			<path fill="#3285A6" d="M175,1545.245c-54,0-107.832-60.94-107.832-136.12c0-75.171,53.832-136.105,107.832-136.105V1545.245z"/>
			<path fill="#3285A6" d="M166,1545.245c65,0,107.832-60.94,107.832-136.12c0-75.171-42.832-136.105-107.832-136.105V1545.245z"/>
		</g>
	</g>
	<g opacity="0.1">
		<path fill="#464541" d="M166,1545.151v0.094c0,0,3.857-0.022,4.5-0.034c0.628,0.012,4.5,0.034,4.5,0.034v-0.094
			c56-2.538,103.86-62.466,103.86-136.026c0-15.665-2.208-30.706-6.08-44.715l-207.954,55.989
			C69.292,1488.723,121,1542.74,166,1545.151z"/>
	</g>
</g>
<g>
	<rect x="82" y="1851.608" fill="#464541" width="57" height="32"/>
	<polygon fill="#3285A6" points="163.906,1626.608 203.364,1626.608 110.408,1474.127 17.429,1626.608 56.89,1626.608 
		-20.973,1851.608 110.075,1851.608 241.769,1851.608 	"/>
	<polygon fill="#459DBF" points="110.408,1475 17.429,1626.608 56.89,1626.608 -20.973,1851.608 110.075,1851.608 	"/>
	<polygon fill="#3285A6" points="110.408,1475 203.364,1626.608 163.906,1626.608 241.769,1851.608 110.075,1851.608 	"/>
	<polygon opacity="0.1" fill="#464541" enable-background="new    " points="-20.973,1851.608 163.906,1628.357 241.769,1851.608 	
		"/>
</g>
<g>
	<polygon fill="#3285A6" points="17,1468.384 -112.688,1840.608 17,1840.608 	"/>
	<polygon fill="#3285A6" points="17,1469.251 149.727,1840.608 17,1840.608 	"/>
	<rect x="-10" y="1840.608" fill="#464541" width="54" height="89"/>
	<polygon opacity="0.1" fill="#464541" enable-background="new    " points="-112.688,1840.608 68.971,1609.064 149.727,1840.608 	
		"/>
</g>
<g>
	<polygon fill="#459DBF" points="-1,1702.571 -131.066,2075.607 -1,2075.607 	"/>
	<polygon fill="#3285A6" points="-1,1702.571 131.348,2075.607 -1,2075.607 	"/>
	<rect x="-23" y="2075.607" fill="#464541" width="46" height="86"/>
	<polygon opacity="0.1" fill="#464541" enable-background="new    " points="-131.066,2075.607 50.586,1844.067 131.348,2075.607 	
		"/>
</g>
<g>
	<g>
		<rect x="138" y="2082.607" fill="#464541" width="59" height="150"/>
		<g>
			<path fill="#3285A6" d="M175,2115.245c-54,0-107.832-60.94-107.832-136.12c0-75.171,53.832-136.105,107.832-136.105V2115.245z"/>
			<path fill="#3285A6" d="M166,2115.245c65,0,107.832-60.94,107.832-136.12c0-75.171-42.832-136.105-107.832-136.105V2115.245z"/>
		</g>
	</g>
	<g opacity="0.1">
		<path fill="#464541" d="M166,2115.15v0.095c0,0,3.857-0.022,4.5-0.034c0.628,0.012,4.5,0.034,4.5,0.034v-0.095
			c56-2.537,103.86-62.465,103.86-136.025c0-15.665-2.208-30.706-6.08-44.715l-207.954,55.988
			C69.292,2058.723,121,2112.74,166,2115.15z"/>
	</g>
</g>
<g>
	<rect x="82" y="2421.607" fill="#464541" width="57" height="32"/>
	<polygon fill="#3285A6" points="163.906,2196.607 203.364,2196.607 110.408,2044.127 17.429,2196.607 56.89,2196.607 
		-20.973,2421.607 110.075,2421.607 241.769,2421.607 	"/>
	<polygon fill="#459DBF" points="110.408,2045 17.429,2196.607 56.89,2196.607 -20.973,2421.607 110.075,2421.607 	"/>
	<polygon fill="#3285A6" points="110.408,2045 203.364,2196.607 163.906,2196.607 241.769,2421.607 110.075,2421.607 	"/>
	<polygon opacity="0.1" fill="#464541" enable-background="new    " points="-20.973,2421.607 163.906,2198.357 241.769,2421.607 	
		"/>
</g>
<g>
	<polygon fill="#3285A6" points="17,2038.384 -112.688,2410.607 17,2410.607 	"/>
	<polygon fill="#3285A6" points="17,2039.251 149.727,2410.607 17,2410.607 	"/>
	<rect x="-10" y="2410.607" fill="#464541" width="54" height="89"/>
	<polygon opacity="0.1" fill="#464541" enable-background="new    " points="-112.688,2410.607 68.971,2179.064 149.727,2410.607 	
		"/>
</g>
<g>
	<polygon fill="#459DBF" points="-1,2298.571 -131.066,2671.607 -1,2671.607 	"/>
	<polygon fill="#3285A6" points="-1,2298.571 131.348,2671.607 -1,2671.607 	"/>
	<rect x="-23" y="2671.607" fill="#464541" width="46" height="86"/>
	<polygon opacity="0.1" fill="#464541" enable-background="new    " points="-131.066,2671.607 50.586,2440.066 131.348,2671.607 	
		"/>
</g>
<g>
	<g>
		<rect x="138" y="2678.607" fill="#464541" width="59" height="150"/>
		<g>
			<path fill="#3285A6" d="M175,2711.245c-54,0-107.832-60.94-107.832-136.12c0-75.171,53.832-136.105,107.832-136.105V2711.245z"/>
			<path fill="#3285A6" d="M166,2711.245c65,0,107.832-60.94,107.832-136.12c0-75.171-42.832-136.105-107.832-136.105V2711.245z"/>
		</g>
	</g>
	<g opacity="0.1">
		<path fill="#464541" d="M166,2711.15v0.095c0,0,3.857-0.022,4.5-0.034c0.628,0.012,4.5,0.034,4.5,0.034v-0.095
			c56-2.537,103.86-62.465,103.86-136.025c0-15.665-2.208-30.706-6.08-44.715l-207.954,55.988
			C69.292,2654.723,121,2708.74,166,2711.15z"/>
	</g>
</g>
<g>
	<rect x="82" y="3017.607" fill="#464541" width="57" height="32"/>
	<polygon fill="#3285A6" points="163.906,2792.607 203.364,2792.607 110.408,2640.127 17.429,2792.607 56.89,2792.607 
		-20.973,3017.607 110.075,3017.607 241.769,3017.607 	"/>
	<polygon fill="#459DBF" points="110.408,2641 17.429,2792.607 56.89,2792.607 -20.973,3017.607 110.075,3017.607 	"/>
	<polygon fill="#3285A6" points="110.408,2641 203.364,2792.607 163.906,2792.607 241.769,3017.607 110.075,3017.607 	"/>
	<polygon opacity="0.1" fill="#464541" enable-background="new    " points="-20.973,3017.607 163.906,2794.357 241.769,3017.607 	
		"/>
</g>
<g>
	<polygon fill="#3285A6" points="17,2634.384 -112.688,3006.607 17,3006.607 	"/>
	<polygon fill="#3285A6" points="17,2635.251 149.727,3006.607 17,3006.607 	"/>
	<rect x="-10" y="3006.607" fill="#464541" width="54" height="89"/>
	<polygon opacity="0.1" fill="#464541" enable-background="new    " points="-112.688,3006.607 68.971,2775.064 149.727,3006.607 	
		"/>
</g>
<g>
	<polygon fill="#459DBF" points="-1,2868.571 -131.066,3241.607 -1,3241.607 	"/>
	<polygon fill="#3285A6" points="-1,2868.571 131.348,3241.607 -1,3241.607 	"/>
	<rect x="-23" y="3241.607" fill="#464541" width="46" height="86"/>
	<polygon opacity="0.1" fill="#464541" enable-background="new    " points="-131.066,3241.607 50.586,3010.066 131.348,3241.607 	
		"/>
</g>
<g>
	<g>
		<rect x="138" y="3248.607" fill="#464541" width="59" height="150"/>
		<g>
			<path fill="#3285A6" d="M175,3281.245c-54,0-107.832-60.94-107.832-136.12c0-75.171,53.832-136.105,107.832-136.105V3281.245z"/>
			<path fill="#3285A6" d="M166,3281.245c65,0,107.832-60.94,107.832-136.12c0-75.171-42.832-136.105-107.832-136.105V3281.245z"/>
		</g>
	</g>
	<g opacity="0.1">
		<path fill="#464541" d="M166,3281.15v0.095c0,0,3.857-0.022,4.5-0.034c0.628,0.012,4.5,0.034,4.5,0.034v-0.095
			c56-2.537,103.86-62.465,103.86-136.025c0-15.665-2.208-30.706-6.08-44.715l-207.954,55.988
			C69.292,3224.723,121,3278.74,166,3281.15z"/>
	</g>
</g>
<g>
	<rect x="82" y="3587.607" fill="#464541" width="57" height="32"/>
	<polygon fill="#3285A6" points="163.906,3362.607 203.364,3362.607 110.408,3210.127 17.429,3362.607 56.89,3362.607 
		-20.973,3587.607 110.075,3587.607 241.769,3587.607 	"/>
	<polygon fill="#459DBF" points="110.408,3211 17.429,3362.607 56.89,3362.607 -20.973,3587.607 110.075,3587.607 	"/>
	<polygon fill="#3285A6" points="110.408,3211 203.364,3362.607 163.906,3362.607 241.769,3587.607 110.075,3587.607 	"/>
	<polygon opacity="0.1" fill="#464541" enable-background="new    " points="-20.973,3587.607 163.906,3364.357 241.769,3587.607 	
		"/>
</g>
<g>
	<polygon fill="#3285A6" points="17,3204.384 -112.688,3576.607 17,3576.607 	"/>
	<polygon fill="#3285A6" points="17,3205.251 149.727,3576.607 17,3576.607 	"/>
	<rect x="-10" y="3576.607" fill="#464541" width="54" height="89"/>
	<polygon opacity="0.1" fill="#464541" enable-background="new    " points="-112.688,3576.607 68.971,3345.064 149.727,3576.607 	
		"/>
</g>
<g>
	<polygon fill="#459DBF" points="-1,3438.571 -131.066,3811.607 -1,3811.607 	"/>
	<polygon fill="#3285A6" points="-1,3438.571 131.348,3811.607 -1,3811.607 	"/>
	<rect x="-23" y="3811.607" fill="#464541" width="46" height="86"/>
	<polygon opacity="0.1" fill="#464541" enable-background="new    " points="-131.066,3811.607 50.586,3580.066 131.348,3811.607 	
		"/>
</g>
<g>
	<g>
		<rect x="138" y="3818.607" fill="#464541" width="59" height="150"/>
		<g>
			<path fill="#3285A6" d="M175,3851.245c-54,0-107.832-60.94-107.832-136.12c0-75.171,53.832-136.105,107.832-136.105V3851.245z"/>
			<path fill="#3285A6" d="M166,3851.245c65,0,107.832-60.94,107.832-136.12c0-75.171-42.832-136.105-107.832-136.105V3851.245z"/>
		</g>
	</g>
	<g opacity="0.1">
		<path fill="#464541" d="M166,3851.15v0.095c0,0,3.857-0.022,4.5-0.034c0.628,0.012,4.5,0.034,4.5,0.034v-0.095
			c56-2.537,103.86-62.465,103.86-136.025c0-15.665-2.208-30.706-6.08-44.715l-207.954,55.988
			C69.292,3794.723,121,3848.74,166,3851.15z"/>
	</g>
</g>
<g>
	<rect x="82" y="4157.607" fill="#464541" width="57" height="32"/>
	<polygon fill="#3285A6" points="163.906,3932.607 203.364,3932.607 110.408,3780.127 17.429,3932.607 56.89,3932.607 
		-20.973,4157.607 110.075,4157.607 241.769,4157.607 	"/>
	<polygon fill="#459DBF" points="110.408,3781 17.429,3932.607 56.89,3932.607 -20.973,4157.607 110.075,4157.607 	"/>
	<polygon fill="#3285A6" points="110.408,3781 203.364,3932.607 163.906,3932.607 241.769,4157.607 110.075,4157.607 	"/>
	<polygon opacity="0.1" fill="#464541" enable-background="new    " points="-20.973,4157.607 163.906,3934.357 241.769,4157.607 	
		"/>
</g>
<g>
	<polygon fill="#3285A6" points="17,3774.384 -112.688,4146.607 17,4146.607 	"/>
	<polygon fill="#3285A6" points="17,3775.251 149.727,4146.607 17,4146.607 	"/>
	<rect x="-10" y="4146.607" fill="#464541" width="54" height="89"/>
	<polygon opacity="0.1" fill="#464541" enable-background="new    " points="-112.688,4146.607 68.971,3915.064 149.727,4146.607 	
		"/>
</g>
<g>
	<polygon fill="#459DBF" points="-1,4008.571 -131.066,4381.607 -1,4381.607 	"/>
	<polygon fill="#3285A6" points="-1,4008.571 131.348,4381.607 -1,4381.607 	"/>
	<rect x="-23" y="4381.607" fill="#464541" width="46" height="86"/>
	<polygon opacity="0.1" fill="#464541" enable-background="new    " points="-131.066,4381.607 50.586,4150.066 131.348,4381.607 	
		"/>
</g>
<g>
	<g>
		<rect x="138" y="4388.607" fill="#464541" width="59" height="150"/>
		<g>
			<path fill="#3285A6" d="M175,4421.245c-54,0-107.832-60.94-107.832-136.12c0-75.171,53.832-136.105,107.832-136.105V4421.245z"/>
			<path fill="#3285A6" d="M166,4421.245c65,0,107.832-60.94,107.832-136.12c0-75.171-42.832-136.105-107.832-136.105V4421.245z"/>
		</g>
	</g>
	<g opacity="0.1">
		<path fill="#464541" d="M166,4421.15v0.095c0,0,3.857-0.022,4.5-0.034c0.628,0.012,4.5,0.034,4.5,0.034v-0.095
			c56-2.537,103.86-62.465,103.86-136.025c0-15.665-2.208-30.706-6.08-44.715l-207.954,55.988
			C69.292,4364.723,121,4418.74,166,4421.15z"/>
	</g>
</g>
<g>
	<rect x="82" y="4727.607" fill="#464541" width="57" height="32"/>
	<polygon fill="#3285A6" points="163.906,4502.607 203.364,4502.607 110.408,4350.127 17.429,4502.607 56.89,4502.607 
		-20.973,4727.607 110.075,4727.607 241.769,4727.607 	"/>
	<polygon fill="#459DBF" points="110.408,4351 17.429,4502.607 56.89,4502.607 -20.973,4727.607 110.075,4727.607 	"/>
	<polygon fill="#3285A6" points="110.408,4351 203.364,4502.607 163.906,4502.607 241.769,4727.607 110.075,4727.607 	"/>
	<polygon opacity="0.1" fill="#464541" enable-background="new    " points="-20.973,4727.607 163.906,4504.357 241.769,4727.607 	
		"/>
</g>
<g>
	<polygon fill="#3285A6" points="17,4344.384 -112.688,4716.607 17,4716.607 	"/>
	<polygon fill="#3285A6" points="17,4345.251 149.727,4716.607 17,4716.607 	"/>
	<rect x="-10" y="4716.607" fill="#464541" width="54" height="89"/>
	<polygon opacity="0.1" fill="#464541" enable-background="new    " points="-112.688,4716.607 68.971,4485.064 149.727,4716.607 	
		"/>
</g>
<g>
	<polygon fill="#459DBF" points="-1,4617.57 -131.066,4990.607 -1,4990.607 	"/>
	<polygon fill="#3285A6" points="-1,4617.57 131.348,4990.607 -1,4990.607 	"/>
	<rect x="-23" y="4990.607" fill="#464541" width="46" height="86"/>
	<polygon opacity="0.1" fill="#464541" enable-background="new    " points="-131.066,4990.607 50.586,4759.066 131.348,4990.607 	
		"/>
</g>
<g>
	<g>
		<rect x="138" y="4997.607" fill="#464541" width="59" height="150"/>
		<g>
			<path fill="#3285A6" d="M175,5030.245c-54,0-107.832-60.94-107.832-136.12c0-75.171,53.832-136.105,107.832-136.105V5030.245z"/>
			<path fill="#3285A6" d="M166,5030.245c65,0,107.832-60.94,107.832-136.12c0-75.171-42.832-136.105-107.832-136.105V5030.245z"/>
		</g>
	</g>
	<g opacity="0.1">
		<path fill="#464541" d="M166,5030.15v0.095c0,0,3.857-0.022,4.5-0.034c0.628,0.012,4.5,0.034,4.5,0.034v-0.095
			c56-2.537,103.86-62.465,103.86-136.025c0-15.665-2.208-30.706-6.08-44.715l-207.954,55.988
			C69.292,4973.723,121,5027.74,166,5030.15z"/>
	</g>
</g>
<g>
	<rect x="82" y="5336.607" fill="#464541" width="57" height="32"/>
	<polygon fill="#3285A6" points="163.906,5111.607 203.364,5111.607 110.408,4959.127 17.429,5111.607 56.89,5111.607 
		-20.973,5336.607 110.075,5336.607 241.769,5336.607 	"/>
	<polygon fill="#459DBF" points="110.408,4960 17.429,5111.607 56.89,5111.607 -20.973,5336.607 110.075,5336.607 	"/>
	<polygon fill="#3285A6" points="110.408,4960 203.364,5111.607 163.906,5111.607 241.769,5336.607 110.075,5336.607 	"/>
	<polygon opacity="0.1" fill="#464541" enable-background="new    " points="-20.973,5336.607 163.906,5113.357 241.769,5336.607 	
		"/>
</g>
<g>
	<polygon fill="#3285A6" points="17,4953.384 -112.688,5325.607 17,5325.607 	"/>
	<polygon fill="#3285A6" points="17,4954.251 149.727,5325.607 17,5325.607 	"/>
	<rect x="-10" y="5325.607" fill="#464541" width="54" height="89"/>
	<polygon opacity="0.1" fill="#464541" enable-background="new    " points="-112.688,5325.607 68.971,5094.064 149.727,5325.607 	
		"/>
</g>
<g>
	<polygon fill="#459DBF" points="-1,5187.57 -131.066,5560.607 -1,5560.607 	"/>
	<polygon fill="#3285A6" points="-1,5187.57 131.348,5560.607 -1,5560.607 	"/>
	<rect x="-23" y="5560.607" fill="#464541" width="46" height="86"/>
	<polygon opacity="0.1" fill="#464541" enable-background="new    " points="-131.066,5560.607 50.586,5329.066 131.348,5560.607 	
		"/>
</g>
<g>
	<g>
		<rect x="138" y="5567.607" fill="#464541" width="59" height="150"/>
		<g>
			<path fill="#3285A6" d="M175,5600.245c-54,0-107.832-60.94-107.832-136.12c0-75.171,53.832-136.105,107.832-136.105V5600.245z"/>
			<path fill="#3285A6" d="M166,5600.245c65,0,107.832-60.94,107.832-136.12c0-75.171-42.832-136.105-107.832-136.105V5600.245z"/>
		</g>
	</g>
	<g opacity="0.1">
		<path fill="#464541" d="M166,5600.15v0.095c0,0,3.857-0.022,4.5-0.034c0.628,0.012,4.5,0.034,4.5,0.034v-0.095
			c56-2.537,103.86-62.465,103.86-136.025c0-15.665-2.208-30.706-6.08-44.715l-207.954,55.988
			C69.292,5543.723,121,5597.74,166,5600.15z"/>
	</g>
</g>
<g>
	<rect x="82" y="5906.607" fill="#464541" width="57" height="32"/>
	<polygon fill="#3285A6" points="163.906,5681.607 203.364,5681.607 110.408,5529.127 17.429,5681.607 56.89,5681.607 
		-20.973,5906.607 110.075,5906.607 241.769,5906.607 	"/>
	<polygon fill="#459DBF" points="110.408,5530 17.429,5681.607 56.89,5681.607 -20.973,5906.607 110.075,5906.607 	"/>
	<polygon fill="#3285A6" points="110.408,5530 203.364,5681.607 163.906,5681.607 241.769,5906.607 110.075,5906.607 	"/>
	<polygon opacity="0.1" fill="#464541" enable-background="new    " points="-20.973,5906.607 163.906,5683.357 241.769,5906.607 	
		"/>
</g>
<g>
	<polygon fill="#3285A6" points="17,5523.384 -112.688,5895.607 17,5895.607 	"/>
	<polygon fill="#3285A6" points="17,5524.251 149.727,5895.607 17,5895.607 	"/>
	<rect x="-10" y="5895.607" fill="#464541" width="54" height="89"/>
	<polygon opacity="0.1" fill="#464541" enable-background="new    " points="-112.688,5895.607 68.971,5664.064 149.727,5895.607 	
		"/>
</g>
<g>
	<polygon fill="#459DBF" points="-1,5757.57 -131.066,6130.607 -1,6130.607 	"/>
	<polygon fill="#3285A6" points="-1,5757.57 131.348,6130.607 -1,6130.607 	"/>
	<rect x="-23" y="6130.607" fill="#464541" width="46" height="86"/>
	<polygon opacity="0.1" fill="#464541" enable-background="new    " points="-131.066,6130.607 50.586,5899.066 131.348,6130.607 	
		"/>
</g>
<g>
	<g>
		<rect x="138" y="6137.607" fill="#464541" width="59" height="150"/>
		<g>
			<path fill="#3285A6" d="M175,6170.245c-54,0-107.832-60.94-107.832-136.12c0-75.171,53.832-136.105,107.832-136.105V6170.245z"/>
			<path fill="#3285A6" d="M166,6170.245c65,0,107.832-60.94,107.832-136.12c0-75.171-42.832-136.105-107.832-136.105V6170.245z"/>
		</g>
	</g>
	<g opacity="0.1">
		<path fill="#464541" d="M166,6170.15v0.095c0,0,3.857-0.022,4.5-0.034c0.628,0.012,4.5,0.034,4.5,0.034v-0.095
			c56-2.537,103.86-62.465,103.86-136.025c0-15.665-2.208-30.706-6.08-44.715l-207.954,55.988
			C69.292,6113.723,121,6167.74,166,6170.15z"/>
	</g>
</g>
<g>
	<rect x="82" y="6476.607" fill="#464541" width="57" height="32"/>
	<polygon fill="#3285A6" points="163.906,6251.607 203.364,6251.607 110.408,6099.127 17.429,6251.607 56.89,6251.607 
		-20.973,6476.607 110.075,6476.607 241.769,6476.607 	"/>
	<polygon fill="#459DBF" points="110.408,6100 17.429,6251.607 56.89,6251.607 -20.973,6476.607 110.075,6476.607 	"/>
	<polygon fill="#3285A6" points="110.408,6100 203.364,6251.607 163.906,6251.607 241.769,6476.607 110.075,6476.607 	"/>
	<polygon opacity="0.1" fill="#464541" enable-background="new    " points="-20.973,6476.607 163.906,6253.357 241.769,6476.607 	
		"/>
</g>
<g>
	<polygon fill="#3285A6" points="17,6093.384 -112.688,6465.607 17,6465.607 	"/>
	<polygon fill="#3285A6" points="17,6094.251 149.727,6465.607 17,6465.607 	"/>
	<rect x="-10" y="6465.607" fill="#464541" width="54" height="89"/>
	<polygon opacity="0.1" fill="#464541" enable-background="new    " points="-112.688,6465.607 68.971,6234.064 149.727,6465.607 	
		"/>
</g>
<g>
	<polygon fill="#459DBF" points="-1,6327.57 -131.066,6700.607 -1,6700.607 	"/>
	<polygon fill="#3285A6" points="-1,6327.57 131.348,6700.607 -1,6700.607 	"/>
	<rect x="-23" y="6700.607" fill="#464541" width="46" height="86"/>
	<polygon opacity="0.1" fill="#464541" enable-background="new    " points="-131.066,6700.607 50.586,6469.066 131.348,6700.607 	
		"/>
</g>
<g>
	<g>
		<rect x="138" y="6707.607" fill="#464541" width="59" height="150"/>
		<g>
			<path fill="#3285A6" d="M175,6740.245c-54,0-107.832-60.94-107.832-136.12c0-75.171,53.832-136.105,107.832-136.105V6740.245z"/>
			<path fill="#3285A6" d="M166,6740.245c65,0,107.832-60.94,107.832-136.12c0-75.171-42.832-136.105-107.832-136.105V6740.245z"/>
		</g>
	</g>
	<g opacity="0.1">
		<path fill="#464541" d="M166,6740.15v0.095c0,0,3.857-0.022,4.5-0.034c0.628,0.012,4.5,0.034,4.5,0.034v-0.095
			c56-2.537,103.86-62.465,103.86-136.025c0-15.665-2.208-30.706-6.08-44.715l-207.954,55.988
			C69.292,6683.723,121,6737.74,166,6740.15z"/>
	</g>
</g>
<g>
	<rect x="82" y="7046.607" fill="#464541" width="57" height="32"/>
	<polygon fill="#3285A6" points="163.906,6821.607 203.364,6821.607 110.408,6669.127 17.429,6821.607 56.89,6821.607 
		-20.973,7046.607 110.075,7046.607 241.769,7046.607 	"/>
	<polygon fill="#459DBF" points="110.408,6670 17.429,6821.607 56.89,6821.607 -20.973,7046.607 110.075,7046.607 	"/>
	<polygon fill="#3285A6" points="110.408,6670 203.364,6821.607 163.906,6821.607 241.769,7046.607 110.075,7046.607 	"/>
	<polygon opacity="0.1" fill="#464541" enable-background="new    " points="-20.973,7046.607 163.906,6823.357 241.769,7046.607 	
		"/>
</g>
<g>
	<polygon fill="#3285A6" points="17,6663.384 -112.688,7035.607 17,7035.607 	"/>
	<polygon fill="#3285A6" points="17,6664.251 149.727,7035.607 17,7035.607 	"/>
	<rect x="-10" y="7035.607" fill="#464541" width="54" height="89"/>
	<polygon opacity="0.1" fill="#464541" enable-background="new    " points="-112.688,7035.607 68.971,6804.064 149.727,7035.607 	
		"/>
</g>
<g>
	<polygon fill="#459DBF" points="-1,6923.57 -131.066,7296.607 -1,7296.607 	"/>
	<polygon fill="#3285A6" points="-1,6923.57 131.348,7296.607 -1,7296.607 	"/>
	<rect x="-23" y="7296.607" fill="#464541" width="46" height="86"/>
	<polygon opacity="0.1" fill="#464541" enable-background="new    " points="-131.066,7296.607 50.586,7065.066 131.348,7296.607 	
		"/>
</g>
<g>
	<g>
		<rect x="138" y="7303.607" fill="#464541" width="59" height="150"/>
		<g>
			<path fill="#3285A6" d="M175,7336.245c-54,0-107.832-60.94-107.832-136.12c0-75.171,53.832-136.105,107.832-136.105V7336.245z"/>
			<path fill="#3285A6" d="M166,7336.245c65,0,107.832-60.94,107.832-136.12c0-75.171-42.832-136.105-107.832-136.105V7336.245z"/>
		</g>
	</g>
	<g opacity="0.1">
		<path fill="#464541" d="M166,7336.15v0.095c0,0,3.857-0.022,4.5-0.034c0.628,0.012,4.5,0.034,4.5,0.034v-0.095
			c56-2.537,103.86-62.465,103.86-136.025c0-15.665-2.208-30.706-6.08-44.715l-207.954,55.988
			C69.292,7279.723,121,7333.74,166,7336.15z"/>
	</g>
</g>
<g>
	<rect x="82" y="7642.607" fill="#464541" width="57" height="32"/>
	<polygon fill="#3285A6" points="163.906,7417.607 203.364,7417.607 110.408,7265.127 17.429,7417.607 56.89,7417.607 
		-20.973,7642.607 110.075,7642.607 241.769,7642.607 	"/>
	<polygon fill="#459DBF" points="110.408,7266 17.429,7417.607 56.89,7417.607 -20.973,7642.607 110.075,7642.607 	"/>
	<polygon fill="#3285A6" points="110.408,7266 203.364,7417.607 163.906,7417.607 241.769,7642.607 110.075,7642.607 	"/>
	<polygon opacity="0.1" fill="#464541" enable-background="new    " points="-20.973,7642.607 163.906,7419.357 241.769,7642.607 	
		"/>
</g>
<g>
	<polygon fill="#3285A6" points="17,7259.384 -112.688,7631.607 17,7631.607 	"/>
	<polygon fill="#3285A6" points="17,7260.251 149.727,7631.607 17,7631.607 	"/>
	<rect x="-10" y="7631.607" fill="#464541" width="54" height="89"/>
	<polygon opacity="0.1" fill="#464541" enable-background="new    " points="-112.688,7631.607 68.971,7400.064 149.727,7631.607 	
		"/>
</g>
<g>
	<polygon fill="#459DBF" points="-1,7493.57 -131.066,7866.607 -1,7866.607 	"/>
	<polygon fill="#3285A6" points="-1,7493.57 131.348,7866.607 -1,7866.607 	"/>
	<rect x="-23" y="7866.607" fill="#464541" width="46" height="86"/>
	<polygon opacity="0.1" fill="#464541" enable-background="new    " points="-131.066,7866.607 50.586,7635.066 131.348,7866.607 	
		"/>
</g>
<g>
	<g>
		<rect x="138" y="7873.607" fill="#464541" width="59" height="150"/>
		<g>
			<path fill="#3285A6" d="M175,7906.245c-54,0-107.832-60.94-107.832-136.12c0-75.171,53.832-136.105,107.832-136.105V7906.245z"/>
			<path fill="#3285A6" d="M166,7906.245c65,0,107.832-60.94,107.832-136.12c0-75.171-42.832-136.105-107.832-136.105V7906.245z"/>
		</g>
	</g>
	<g opacity="0.1">
		<path fill="#464541" d="M166,7906.15v0.095c0,0,3.857-0.022,4.5-0.034c0.628,0.012,4.5,0.034,4.5,0.034v-0.095
			c56-2.537,103.86-62.465,103.86-136.025c0-15.665-2.208-30.706-6.08-44.715l-207.954,55.988
			C69.292,7849.723,121,7903.74,166,7906.15z"/>
	</g>
</g>
<g>
	<rect x="82" y="8212.608" fill="#464541" width="57" height="32"/>
	<polygon fill="#3285A6" points="163.906,7987.607 203.364,7987.607 110.408,7835.127 17.429,7987.607 56.89,7987.607 
		-20.973,8212.608 110.075,8212.608 241.769,8212.608 	"/>
	<polygon fill="#459DBF" points="110.408,7836 17.429,7987.607 56.89,7987.607 -20.973,8212.608 110.075,8212.608 	"/>
	<polygon fill="#3285A6" points="110.408,7836 203.364,7987.607 163.906,7987.607 241.769,8212.608 110.075,8212.608 	"/>
	<polygon opacity="0.1" fill="#464541" enable-background="new    " points="-20.973,8212.608 163.906,7989.357 241.769,8212.608 	
		"/>
</g>
<g>
	<polygon fill="#3285A6" points="17,7829.384 -112.688,8201.608 17,8201.608 	"/>
	<polygon fill="#3285A6" points="17,7830.251 149.727,8201.608 17,8201.608 	"/>
	<rect x="-10" y="8201.608" fill="#464541" width="54" height="89"/>
	<polygon opacity="0.1" fill="#464541" enable-background="new    " points="-112.688,8201.608 68.971,7970.064 149.727,8201.608 	
		"/>
</g>
<g>
	<polygon fill="#459DBF" points="-1,8063.57 -131.066,8436.608 -1,8436.608 	"/>
	<polygon fill="#3285A6" points="-1,8063.57 131.348,8436.608 -1,8436.608 	"/>
	<rect x="-23" y="8436.609" fill="#464541" width="46" height="86.001"/>
	<polygon opacity="0.1" fill="#464541" enable-background="new    " points="-131.066,8436.608 50.586,8205.067 131.348,8436.608 	
		"/>
</g>
<g>
	<g>
		<rect x="138" y="8443.609" fill="#464541" width="59" height="150.001"/>
		<g>
			<path fill="#3285A6" d="M175,8476.245c-54,0-107.832-60.94-107.832-136.12c0-75.171,53.832-136.106,107.832-136.106V8476.245z"/>
			<path fill="#3285A6" d="M166,8476.245c65,0,107.832-60.94,107.832-136.12c0-75.171-42.832-136.106-107.832-136.106V8476.245z"/>
		</g>
	</g>
	<g opacity="0.1">
		<path fill="#464541" d="M166,8476.151v0.094c0,0,3.857-0.022,4.5-0.034c0.628,0.012,4.5,0.034,4.5,0.034v-0.094
			c56-2.538,103.86-62.465,103.86-136.026c0-15.665-2.208-30.706-6.08-44.715l-207.954,55.989
			C69.292,8419.723,121,8473.74,166,8476.151z"/>
	</g>
</g>
<g>
	<rect x="82" y="8782.609" fill="#464541" width="57" height="32"/>
	<polygon fill="#3285A6" points="163.906,8557.609 203.364,8557.609 110.408,8405.127 17.429,8557.609 56.89,8557.609 
		-20.973,8782.609 110.075,8782.609 241.769,8782.609 	"/>
	<polygon fill="#459DBF" points="110.408,8406 17.429,8557.609 56.89,8557.609 -20.973,8782.609 110.075,8782.609 	"/>
	<polygon fill="#3285A6" points="110.408,8406 203.364,8557.609 163.906,8557.609 241.769,8782.609 110.075,8782.609 	"/>
	<polygon opacity="0.1" fill="#464541" enable-background="new    " points="-20.973,8782.609 163.906,8559.357 241.769,8782.609 	
		"/>
</g>
<g>
	<polygon fill="#3285A6" points="17,8399.384 -112.688,8771.609 17,8771.609 	"/>
	<polygon fill="#3285A6" points="17,8400.251 149.727,8771.609 17,8771.609 	"/>
	<rect x="-10" y="8771.609" fill="#464541" width="54" height="89"/>
	<polygon opacity="0.1" fill="#464541" enable-background="new    " points="-112.688,8771.609 68.971,8540.066 149.727,8771.609 	
		"/>
</g>
<g>
	<polygon fill="#459DBF" points="-1,8633.57 -131.066,9006.609 -1,9006.609 	"/>
	<polygon fill="#3285A6" points="-1,8633.57 131.348,9006.609 -1,9006.609 	"/>
	<rect x="-23" y="9006.609" fill="#464541" width="46" height="86"/>
	<polygon opacity="0.1" fill="#464541" enable-background="new    " points="-131.066,9006.609 50.586,8775.066 131.348,9006.609 	
		"/>
</g>
<g>
	<g>
		<rect x="138" y="9013.609" fill="#464541" width="59" height="150"/>
		<g>
			<path fill="#3285A6" d="M175,9046.246c-54,0-107.832-60.941-107.832-136.121c0-75.172,53.832-136.105,107.832-136.105V9046.246z"
				/>
			<path fill="#3285A6" d="M166,9046.246c65,0,107.832-60.941,107.832-136.121c0-75.172-42.832-136.105-107.832-136.105V9046.246z"
				/>
		</g>
	</g>
	<g opacity="0.1">
		<path fill="#464541" d="M166,9046.152v0.094c0,0,3.857-0.023,4.5-0.035c0.628,0.012,4.5,0.035,4.5,0.035v-0.094
			c56-2.539,103.86-62.465,103.86-136.027c0-15.664-2.208-30.707-6.08-44.715l-207.954,55.988
			C69.292,8989.723,121,9043.742,166,9046.152z"/>
	</g>
</g>
<g>
	<rect x="82" y="9352.609" fill="#464541" width="57" height="32"/>
	<polygon fill="#3285A6" points="163.906,9127.609 203.364,9127.609 110.408,8975.129 17.429,9127.609 56.89,9127.609 
		-20.973,9352.609 110.075,9352.609 241.769,9352.609 	"/>
	<polygon fill="#459DBF" points="110.408,8976 17.429,9127.609 56.89,9127.609 -20.973,9352.609 110.075,9352.609 	"/>
	<polygon fill="#3285A6" points="110.408,8976 203.364,9127.609 163.906,9127.609 241.769,9352.609 110.075,9352.609 	"/>
	<polygon opacity="0.1" fill="#464541" enable-background="new    " points="-20.973,9352.609 163.906,9129.359 241.769,9352.609 	
		"/>
</g>
<g>
	<polygon fill="#3285A6" points="17,8969.383 -112.688,9341.609 17,9341.609 	"/>
	<polygon fill="#3285A6" points="17,8970.25 149.727,9341.609 17,9341.609 	"/>
	<rect x="-10" y="9341.609" fill="#464541" width="54" height="89"/>
	<polygon opacity="0.1" fill="#464541" enable-background="new    " points="-112.688,9341.609 68.971,9110.066 149.727,9341.609 	
		"/>
</g>
<g>
	<polygon fill="#3285A6" points="787,222.384 657.312,594.608 787,594.608 	"/>
	<polygon fill="#3285A6" points="787,223.251 919.727,594.608 787,594.608 	"/>
	<rect x="760" y="594.608" fill="#464541" width="54" height="89"/>
	<polygon opacity="0.1" fill="#464541" enable-background="new    " points="657.312,594.608 838.971,363.066 919.727,594.608 	"/>
</g>
<g>
	<g>
		<rect x="766" y="787.608" fill="#464541" width="59" height="150"/>
		<g>
			<path fill="#459DBF" d="M803,820.385c-54,0-107.832-60.939-107.832-136.12c0-75.171,53.832-136.106,107.832-136.106V820.385z"/>
			<path fill="#3285A6" d="M794,820.385c65,0,107.832-60.939,107.832-136.12c0-75.171-42.832-136.106-107.832-136.106V820.385z"/>
		</g>
	</g>
	<g opacity="0.1">
		<path fill="#464541" d="M794,820.291v0.094c0,0,3.857-0.021,4.5-0.034c0.629,0.013,4.5,0.034,4.5,0.034v-0.094
			c56-2.538,103.86-62.465,103.86-136.026c0-15.665-2.208-30.707-6.08-44.715l-207.954,55.99
			C697.293,763.863,749,817.88,794,820.291z"/>
	</g>
</g>
<g>
	<rect x="631" y="854.608" fill="#464541" width="57" height="32"/>
	<polygon fill="#3285A6" points="712.822,629.608 752.279,629.608 659.324,477.127 566.345,629.608 605.807,629.608 
		527.943,854.608 658.99,854.608 790.685,854.608 	"/>
	<polygon fill="#3285A6" points="659.324,478 566.345,629.608 605.807,629.608 527.943,854.608 658.99,854.608 	"/>
	<polygon fill="#3285A6" points="659.324,478 752.279,629.608 712.822,629.608 790.685,854.608 658.99,854.608 	"/>
	<polygon opacity="0.1" fill="#464541" enable-background="new    " points="527.943,854.608 712.822,631.357 790.685,854.608 	"/>
</g>
<g>
	<rect x="603" y="1119.608" fill="#464541" width="57" height="32"/>
	<polygon fill="#3285A6" points="684.906,894.608 724.363,894.608 631.408,742.127 538.429,894.608 577.891,894.608 
		500.027,1119.608 631.074,1119.608 762.77,1119.608 	"/>
	<polygon fill="#459DBF" points="631.408,743 538.429,894.608 577.891,894.608 500.027,1119.608 631.074,1119.608 	"/>
	<polygon fill="#3285A6" points="631.408,743 724.363,894.608 684.906,894.608 762.77,1119.608 631.074,1119.608 	"/>
	<polygon opacity="0.1" fill="#464541" enable-background="new    " points="500.027,1119.608 684.906,896.357 762.77,1119.608 	"/>
</g>
<g>
	<polygon fill="#3285A6" points="787,700.384 657.312,1072.608 787,1072.608 	"/>
	<polygon fill="#3285A6" points="787,701.251 919.727,1072.608 787,1072.608 	"/>
	<rect x="760" y="1072.608" fill="#464541" width="54" height="89"/>
	<polygon opacity="0.1" fill="#464541" enable-background="new    " points="657.312,1072.608 838.971,841.066 919.727,1072.608 	
		"/>
</g>
<g>
	<g>
		<rect x="766" y="1265.608" fill="#464541" width="59" height="150"/>
		<g>
			<path fill="#459DBF" d="M803,1298.385c-54,0-107.832-60.939-107.832-136.12c0-75.171,53.832-136.106,107.832-136.106V1298.385z"
				/>
			<path fill="#3285A6" d="M794,1298.385c65,0,107.832-60.939,107.832-136.12c0-75.171-42.832-136.106-107.832-136.106V1298.385z"/>
		</g>
	</g>
	<g opacity="0.1">
		<path fill="#464541" d="M794,1298.291v0.094c0,0,3.857-0.021,4.5-0.034c0.629,0.013,4.5,0.034,4.5,0.034v-0.094
			c56-2.538,103.86-62.465,103.86-136.026c0-15.663-2.208-30.706-6.08-44.715l-207.954,55.99
			C697.293,1241.862,749,1295.88,794,1298.291z"/>
	</g>
</g>
<g>
	<rect x="631" y="1332.608" fill="#464541" width="57" height="32"/>
	<polygon fill="#3285A6" points="712.822,1107.608 752.279,1107.608 659.324,955.127 566.345,1107.608 605.807,1107.608 
		527.943,1332.608 658.99,1332.608 790.685,1332.608 	"/>
	<polygon fill="#3285A6" points="659.324,956 566.345,1107.608 605.807,1107.608 527.943,1332.608 658.99,1332.608 	"/>
	<polygon fill="#3285A6" points="659.324,956 752.279,1107.608 712.822,1107.608 790.685,1332.608 658.99,1332.608 	"/>
	<polygon opacity="0.1" fill="#464541" enable-background="new    " points="527.943,1332.608 712.822,1109.357 790.685,1332.608 	
		"/>
</g>
<g>
	<rect x="603" y="1597.608" fill="#464541" width="57" height="32"/>
	<polygon fill="#3285A6" points="684.906,1372.608 724.363,1372.608 631.408,1220.127 538.429,1372.608 577.891,1372.608 
		500.027,1597.608 631.074,1597.608 762.77,1597.608 	"/>
	<polygon fill="#459DBF" points="631.408,1221 538.429,1372.608 577.891,1372.608 500.027,1597.608 631.074,1597.608 	"/>
	<polygon fill="#3285A6" points="631.408,1221 724.363,1372.608 684.906,1372.608 762.77,1597.608 631.074,1597.608 	"/>
	<polygon opacity="0.1" fill="#464541" enable-background="new    " points="500.027,1597.608 684.906,1374.357 762.77,1597.608 	
		"/>
</g>
<g>
	<polygon fill="#3285A6" points="787,1178.384 657.312,1550.608 787,1550.608 	"/>
	<polygon fill="#3285A6" points="787,1179.251 919.727,1550.608 787,1550.608 	"/>
	<rect x="760" y="1550.608" fill="#464541" width="54" height="89"/>
	<polygon opacity="0.1" fill="#464541" enable-background="new    " points="657.312,1550.608 838.971,1319.064 919.727,1550.608 	
		"/>
</g>
<g>
	<g>
		<rect x="766" y="1743.608" fill="#464541" width="59" height="150"/>
		<g>
			<path fill="#459DBF" d="M803,1776.385c-54,0-107.832-60.939-107.832-136.12c0-75.171,53.832-136.106,107.832-136.106V1776.385z"
				/>
			<path fill="#3285A6" d="M794,1776.385c65,0,107.832-60.939,107.832-136.12c0-75.171-42.832-136.106-107.832-136.106V1776.385z"/>
		</g>
	</g>
	<g opacity="0.1">
		<path fill="#464541" d="M794,1776.291v0.094c0,0,3.857-0.021,4.5-0.034c0.629,0.013,4.5,0.034,4.5,0.034v-0.094
			c56-2.538,103.86-62.465,103.86-136.026c0-15.663-2.208-30.706-6.08-44.715l-207.954,55.99
			C697.293,1719.862,749,1773.88,794,1776.291z"/>
	</g>
</g>
<g>
	<rect x="631" y="1810.608" fill="#464541" width="57" height="32"/>
	<polygon fill="#3285A6" points="712.822,1585.608 752.279,1585.608 659.324,1433.127 566.345,1585.608 605.807,1585.608 
		527.943,1810.608 658.99,1810.608 790.685,1810.608 	"/>
	<polygon fill="#3285A6" points="659.324,1434 566.345,1585.608 605.807,1585.608 527.943,1810.608 658.99,1810.608 	"/>
	<polygon fill="#3285A6" points="659.324,1434 752.279,1585.608 712.822,1585.608 790.685,1810.608 658.99,1810.608 	"/>
	<polygon opacity="0.1" fill="#464541" enable-background="new    " points="527.943,1810.608 712.822,1587.357 790.685,1810.608 	
		"/>
</g>
<g>
	<rect x="603" y="2075.607" fill="#464541" width="57" height="32"/>
	<polygon fill="#3285A6" points="684.906,1850.608 724.363,1850.608 631.408,1698.127 538.429,1850.608 577.891,1850.608 
		500.027,2075.607 631.074,2075.607 762.77,2075.607 	"/>
	<polygon fill="#459DBF" points="631.408,1699 538.429,1850.608 577.891,1850.608 500.027,2075.607 631.074,2075.607 	"/>
	<polygon fill="#3285A6" points="631.408,1699 724.363,1850.608 684.906,1850.608 762.77,2075.607 631.074,2075.607 	"/>
	<polygon opacity="0.1" fill="#464541" enable-background="new    " points="500.027,2075.607 684.906,1852.357 762.77,2075.607 	
		"/>
</g>
<g>
	<polygon fill="#3285A6" points="787,1656.384 657.312,2028.608 787,2028.608 	"/>
	<polygon fill="#3285A6" points="787,1657.251 919.727,2028.608 787,2028.608 	"/>
	<rect x="760" y="2028.608" fill="#464541" width="54" height="88.999"/>
	<polygon opacity="0.1" fill="#464541" enable-background="new    " points="657.312,2028.608 838.971,1797.064 919.727,2028.608 	
		"/>
</g>
<g>
	<g>
		<rect x="766" y="2221.607" fill="#464541" width="59" height="150"/>
		<g>
			<path fill="#459DBF" d="M803,2254.385c-54,0-107.832-60.939-107.832-136.119c0-75.172,53.832-136.107,107.832-136.107V2254.385z"
				/>
			<path fill="#3285A6" d="M794,2254.385c65,0,107.832-60.939,107.832-136.119c0-75.172-42.832-136.107-107.832-136.107V2254.385z"
				/>
		</g>
	</g>
	<g opacity="0.1">
		<path fill="#464541" d="M794,2254.291v0.094c0,0,3.857-0.021,4.5-0.033c0.629,0.012,4.5,0.033,4.5,0.033v-0.094
			c56-2.538,103.86-62.465,103.86-136.025c0-15.664-2.208-30.707-6.08-44.716l-207.954,55.99
			C697.293,2197.862,749,2251.88,794,2254.291z"/>
	</g>
</g>
<g>
	<rect x="631" y="2288.607" fill="#464541" width="57" height="32"/>
	<polygon fill="#3285A6" points="712.822,2063.607 752.279,2063.607 659.324,1911.127 566.345,2063.607 605.807,2063.607 
		527.943,2288.607 658.99,2288.607 790.685,2288.607 	"/>
	<polygon fill="#3285A6" points="659.324,1912 566.345,2063.607 605.807,2063.607 527.943,2288.607 658.99,2288.607 	"/>
	<polygon fill="#3285A6" points="659.324,1912 752.279,2063.607 712.822,2063.607 790.685,2288.607 658.99,2288.607 	"/>
	<polygon opacity="0.1" fill="#464541" enable-background="new    " points="527.943,2288.607 712.822,2065.357 790.685,2288.607 	
		"/>
</g>
<g>
	<rect x="603" y="2553.607" fill="#464541" width="57" height="32"/>
	<polygon fill="#3285A6" points="684.906,2328.607 724.363,2328.607 631.408,2176.127 538.429,2328.607 577.891,2328.607 
		500.027,2553.607 631.074,2553.607 762.77,2553.607 	"/>
	<polygon fill="#459DBF" points="631.408,2177 538.429,2328.607 577.891,2328.607 500.027,2553.607 631.074,2553.607 	"/>
	<polygon fill="#3285A6" points="631.408,2177 724.363,2328.607 684.906,2328.607 762.77,2553.607 631.074,2553.607 	"/>
	<polygon opacity="0.1" fill="#464541" enable-background="new    " points="500.027,2553.607 684.906,2330.357 762.77,2553.607 	
		"/>
</g>
<g>
	<polygon fill="#3285A6" points="787,2134.384 657.312,2506.607 787,2506.607 	"/>
	<polygon fill="#3285A6" points="787,2135.251 919.727,2506.607 787,2506.607 	"/>
	<rect x="760" y="2506.607" fill="#464541" width="54" height="89"/>
	<polygon opacity="0.1" fill="#464541" enable-background="new    " points="657.312,2506.607 838.971,2275.064 919.727,2506.607 	
		"/>
</g>
<g>
	<g>
		<rect x="766" y="2699.607" fill="#464541" width="59" height="150"/>
		<g>
			<path fill="#459DBF" d="M803,2732.385c-54,0-107.832-60.939-107.832-136.119c0-75.172,53.832-136.107,107.832-136.107V2732.385z"
				/>
			<path fill="#3285A6" d="M794,2732.385c65,0,107.832-60.939,107.832-136.119c0-75.172-42.832-136.107-107.832-136.107V2732.385z"
				/>
		</g>
	</g>
	<g opacity="0.1">
		<path fill="#464541" d="M794,2732.291v0.094c0,0,3.857-0.021,4.5-0.033c0.629,0.012,4.5,0.033,4.5,0.033v-0.094
			c56-2.538,103.86-62.465,103.86-136.025c0-15.664-2.208-30.707-6.08-44.716l-207.954,55.99
			C697.293,2675.862,749,2729.88,794,2732.291z"/>
	</g>
</g>
<g>
	<rect x="631" y="2766.607" fill="#464541" width="57" height="32"/>
	<polygon fill="#3285A6" points="712.822,2541.607 752.279,2541.607 659.324,2389.127 566.345,2541.607 605.807,2541.607 
		527.943,2766.607 658.99,2766.607 790.685,2766.607 	"/>
	<polygon fill="#3285A6" points="659.324,2390 566.345,2541.607 605.807,2541.607 527.943,2766.607 658.99,2766.607 	"/>
	<polygon fill="#3285A6" points="659.324,2390 752.279,2541.607 712.822,2541.607 790.685,2766.607 658.99,2766.607 	"/>
	<polygon opacity="0.1" fill="#464541" enable-background="new    " points="527.943,2766.607 712.822,2543.357 790.685,2766.607 	
		"/>
</g>
<g>
	<rect x="603" y="3031.607" fill="#464541" width="57" height="32"/>
	<polygon fill="#3285A6" points="684.906,2806.607 724.363,2806.607 631.408,2654.127 538.429,2806.607 577.891,2806.607 
		500.027,3031.607 631.074,3031.607 762.77,3031.607 	"/>
	<polygon fill="#459DBF" points="631.408,2655 538.429,2806.607 577.891,2806.607 500.027,3031.607 631.074,3031.607 	"/>
	<polygon fill="#3285A6" points="631.408,2655 724.363,2806.607 684.906,2806.607 762.77,3031.607 631.074,3031.607 	"/>
	<polygon opacity="0.1" fill="#464541" enable-background="new    " points="500.027,3031.607 684.906,2808.357 762.77,3031.607 	
		"/>
</g>
<g>
	<polygon fill="#3285A6" points="787,2612.384 657.312,2984.607 787,2984.607 	"/>
	<polygon fill="#3285A6" points="787,2613.251 919.727,2984.607 787,2984.607 	"/>
	<rect x="760" y="2984.607" fill="#464541" width="54" height="89"/>
	<polygon opacity="0.1" fill="#464541" enable-background="new    " points="657.312,2984.607 838.971,2753.064 919.727,2984.607 	
		"/>
</g>
<g>
	<g>
		<rect x="766" y="3177.607" fill="#464541" width="59" height="150"/>
		<g>
			<path fill="#459DBF" d="M803,3210.385c-54,0-107.832-60.939-107.832-136.119c0-75.172,53.832-136.107,107.832-136.107V3210.385z"
				/>
			<path fill="#3285A6" d="M794,3210.385c65,0,107.832-60.939,107.832-136.119c0-75.172-42.832-136.107-107.832-136.107V3210.385z"
				/>
		</g>
	</g>
	<g opacity="0.1">
		<path fill="#464541" d="M794,3210.291v0.094c0,0,3.857-0.021,4.5-0.033c0.629,0.012,4.5,0.033,4.5,0.033v-0.094
			c56-2.538,103.86-62.465,103.86-136.025c0-15.664-2.208-30.707-6.08-44.716l-207.954,55.99
			C697.293,3153.862,749,3207.88,794,3210.291z"/>
	</g>
</g>
<g>
	<rect x="631" y="3244.607" fill="#464541" width="57" height="32"/>
	<polygon fill="#3285A6" points="712.822,3019.607 752.279,3019.607 659.324,2867.127 566.345,3019.607 605.807,3019.607 
		527.943,3244.607 658.99,3244.607 790.685,3244.607 	"/>
	<polygon fill="#3285A6" points="659.324,2868 566.345,3019.607 605.807,3019.607 527.943,3244.607 658.99,3244.607 	"/>
	<polygon fill="#3285A6" points="659.324,2868 752.279,3019.607 712.822,3019.607 790.685,3244.607 658.99,3244.607 	"/>
	<polygon opacity="0.1" fill="#464541" enable-background="new    " points="527.943,3244.607 712.822,3021.357 790.685,3244.607 	
		"/>
</g>
<g>
	<rect x="603" y="3509.607" fill="#464541" width="57" height="32"/>
	<polygon fill="#3285A6" points="684.906,3284.607 724.363,3284.607 631.408,3132.127 538.429,3284.607 577.891,3284.607 
		500.027,3509.607 631.074,3509.607 762.77,3509.607 	"/>
	<polygon fill="#459DBF" points="631.408,3133 538.429,3284.607 577.891,3284.607 500.027,3509.607 631.074,3509.607 	"/>
	<polygon fill="#3285A6" points="631.408,3133 724.363,3284.607 684.906,3284.607 762.77,3509.607 631.074,3509.607 	"/>
	<polygon opacity="0.1" fill="#464541" enable-background="new    " points="500.027,3509.607 684.906,3286.357 762.77,3509.607 	
		"/>
</g>
<g>
	<polygon fill="#3285A6" points="787,3090.384 657.312,3462.607 787,3462.607 	"/>
	<polygon fill="#3285A6" points="787,3091.251 919.727,3462.607 787,3462.607 	"/>
	<rect x="760" y="3462.607" fill="#464541" width="54" height="89"/>
	<polygon opacity="0.1" fill="#464541" enable-background="new    " points="657.312,3462.607 838.971,3231.064 919.727,3462.607 	
		"/>
</g>
<g>
	<g>
		<rect x="766" y="3655.607" fill="#464541" width="59" height="150"/>
		<g>
			<path fill="#459DBF" d="M803,3688.385c-54,0-107.832-60.939-107.832-136.119c0-75.172,53.832-136.107,107.832-136.107V3688.385z"
				/>
			<path fill="#3285A6" d="M794,3688.385c65,0,107.832-60.939,107.832-136.119c0-75.172-42.832-136.107-107.832-136.107V3688.385z"
				/>
		</g>
	</g>
	<g opacity="0.1">
		<path fill="#464541" d="M794,3688.291v0.094c0,0,3.857-0.021,4.5-0.033c0.629,0.012,4.5,0.033,4.5,0.033v-0.094
			c56-2.538,103.86-62.465,103.86-136.025c0-15.664-2.208-30.707-6.08-44.716l-207.954,55.99
			C697.293,3631.862,749,3685.88,794,3688.291z"/>
	</g>
</g>
<g>
	<rect x="631" y="3722.607" fill="#464541" width="57" height="32"/>
	<polygon fill="#3285A6" points="712.822,3497.607 752.279,3497.607 659.324,3345.127 566.345,3497.607 605.807,3497.607 
		527.943,3722.607 658.99,3722.607 790.685,3722.607 	"/>
	<polygon fill="#3285A6" points="659.324,3346 566.345,3497.607 605.807,3497.607 527.943,3722.607 658.99,3722.607 	"/>
	<polygon fill="#3285A6" points="659.324,3346 752.279,3497.607 712.822,3497.607 790.685,3722.607 658.99,3722.607 	"/>
	<polygon opacity="0.1" fill="#464541" enable-background="new    " points="527.943,3722.607 712.822,3499.357 790.685,3722.607 	
		"/>
</g>
<g>
	<rect x="603" y="3987.607" fill="#464541" width="57" height="32"/>
	<polygon fill="#3285A6" points="684.906,3762.607 724.363,3762.607 631.408,3610.127 538.429,3762.607 577.891,3762.607 
		500.027,3987.607 631.074,3987.607 762.77,3987.607 	"/>
	<polygon fill="#459DBF" points="631.408,3611 538.429,3762.607 577.891,3762.607 500.027,3987.607 631.074,3987.607 	"/>
	<polygon fill="#3285A6" points="631.408,3611 724.363,3762.607 684.906,3762.607 762.77,3987.607 631.074,3987.607 	"/>
	<polygon opacity="0.1" fill="#464541" enable-background="new    " points="500.027,3987.607 684.906,3764.357 762.77,3987.607 	
		"/>
</g>
<g>
	<polygon fill="#3285A6" points="787,3568.384 657.312,3940.607 787,3940.607 	"/>
	<polygon fill="#3285A6" points="787,3569.251 919.727,3940.607 787,3940.607 	"/>
	<rect x="760" y="3940.607" fill="#464541" width="54" height="89"/>
	<polygon opacity="0.1" fill="#464541" enable-background="new    " points="657.312,3940.607 838.971,3709.064 919.727,3940.607 	
		"/>
</g>
<g>
	<g>
		<rect x="766" y="4133.607" fill="#464541" width="59" height="150"/>
		<g>
			<path fill="#459DBF" d="M803,4166.385c-54,0-107.832-60.939-107.832-136.12c0-75.171,53.832-136.106,107.832-136.106V4166.385z"
				/>
			<path fill="#3285A6" d="M794,4166.385c65,0,107.832-60.939,107.832-136.12c0-75.171-42.832-136.106-107.832-136.106V4166.385z"/>
		</g>
	</g>
	<g opacity="0.1">
		<path fill="#464541" d="M794,4166.291v0.094c0,0,3.857-0.021,4.5-0.033c0.629,0.012,4.5,0.033,4.5,0.033v-0.094
			c56-2.538,103.86-62.465,103.86-136.025c0-15.664-2.208-30.707-6.08-44.716l-207.954,55.99
			C697.293,4109.861,749,4163.88,794,4166.291z"/>
	</g>
</g>
<g>
	<rect x="631" y="4200.607" fill="#464541" width="57" height="32"/>
	<polygon fill="#3285A6" points="712.822,3975.607 752.279,3975.607 659.324,3823.127 566.345,3975.607 605.807,3975.607 
		527.943,4200.607 658.99,4200.607 790.685,4200.607 	"/>
	<polygon fill="#3285A6" points="659.324,3824 566.345,3975.607 605.807,3975.607 527.943,4200.607 658.99,4200.607 	"/>
	<polygon fill="#3285A6" points="659.324,3824 752.279,3975.607 712.822,3975.607 790.685,4200.607 658.99,4200.607 	"/>
	<polygon opacity="0.1" fill="#464541" enable-background="new    " points="527.943,4200.607 712.822,3977.357 790.685,4200.607 	
		"/>
</g>
<g>
	<rect x="603" y="4465.607" fill="#464541" width="57" height="32"/>
	<polygon fill="#3285A6" points="684.906,4240.607 724.363,4240.607 631.408,4088.127 538.429,4240.607 577.891,4240.607 
		500.027,4465.607 631.074,4465.607 762.77,4465.607 	"/>
	<polygon fill="#459DBF" points="631.408,4089 538.429,4240.607 577.891,4240.607 500.027,4465.607 631.074,4465.607 	"/>
	<polygon fill="#3285A6" points="631.408,4089 724.363,4240.607 684.906,4240.607 762.77,4465.607 631.074,4465.607 	"/>
	<polygon opacity="0.1" fill="#464541" enable-background="new    " points="500.027,4465.607 684.906,4242.357 762.77,4465.607 	
		"/>
</g>
<g>
	<polygon fill="#3285A6" points="787,4046.384 657.312,4418.607 787,4418.607 	"/>
	<polygon fill="#3285A6" points="787,4047.251 919.727,4418.607 787,4418.607 	"/>
	<rect x="760" y="4418.607" fill="#464541" width="54" height="89"/>
	<polygon opacity="0.1" fill="#464541" enable-background="new    " points="657.312,4418.607 838.971,4187.064 919.727,4418.607 	
		"/>
</g>
<g>
	<g>
		<rect x="766" y="4666.607" fill="#464541" width="59" height="150"/>
		<g>
			<path fill="#459DBF" d="M803,4699.385c-54,0-107.832-60.939-107.832-136.12c0-75.171,53.832-136.106,107.832-136.106V4699.385z"
				/>
			<path fill="#3285A6" d="M794,4699.385c65,0,107.832-60.939,107.832-136.12c0-75.171-42.832-136.106-107.832-136.106V4699.385z"/>
		</g>
	</g>
	<g opacity="0.1">
		<path fill="#464541" d="M794,4699.291v0.094c0,0,3.857-0.021,4.5-0.033c0.629,0.012,4.5,0.033,4.5,0.033v-0.094
			c56-2.538,103.86-62.465,103.86-136.025c0-15.664-2.208-30.707-6.08-44.715l-207.954,55.99
			C697.293,4642.861,749,4696.88,794,4699.291z"/>
	</g>
</g>
<g>
	<rect x="631" y="4733.607" fill="#464541" width="57" height="32"/>
	<polygon fill="#3285A6" points="712.822,4508.607 752.279,4508.607 659.324,4356.127 566.345,4508.607 605.807,4508.607 
		527.943,4733.607 658.99,4733.607 790.685,4733.607 	"/>
	<polygon fill="#3285A6" points="659.324,4357 566.345,4508.607 605.807,4508.607 527.943,4733.607 658.99,4733.607 	"/>
	<polygon fill="#3285A6" points="659.324,4357 752.279,4508.607 712.822,4508.607 790.685,4733.607 658.99,4733.607 	"/>
	<polygon opacity="0.1" fill="#464541" enable-background="new    " points="527.943,4733.607 712.822,4510.357 790.685,4733.607 	
		"/>
</g>
<g>
	<rect x="603" y="4998.607" fill="#464541" width="57" height="32"/>
	<polygon fill="#3285A6" points="684.906,4773.607 724.363,4773.607 631.408,4621.127 538.429,4773.607 577.891,4773.607 
		500.027,4998.607 631.074,4998.607 762.77,4998.607 	"/>
	<polygon fill="#459DBF" points="631.408,4622 538.429,4773.607 577.891,4773.607 500.027,4998.607 631.074,4998.607 	"/>
	<polygon fill="#3285A6" points="631.408,4622 724.363,4773.607 684.906,4773.607 762.77,4998.607 631.074,4998.607 	"/>
	<polygon opacity="0.1" fill="#464541" enable-background="new    " points="500.027,4998.607 684.906,4775.357 762.77,4998.607 	
		"/>
</g>
<g>
	<polygon fill="#3285A6" points="787,4579.384 657.312,4951.607 787,4951.607 	"/>
	<polygon fill="#3285A6" points="787,4580.251 919.727,4951.607 787,4951.607 	"/>
	<rect x="760" y="4951.607" fill="#464541" width="54" height="89"/>
	<polygon opacity="0.1" fill="#464541" enable-background="new    " points="657.312,4951.607 838.971,4720.064 919.727,4951.607 	
		"/>
</g>
<g>
	<g>
		<rect x="766" y="5144.607" fill="#464541" width="59" height="150"/>
		<g>
			<path fill="#459DBF" d="M803,5177.385c-54,0-107.832-60.939-107.832-136.12c0-75.171,53.832-136.106,107.832-136.106V5177.385z"
				/>
			<path fill="#3285A6" d="M794,5177.385c65,0,107.832-60.939,107.832-136.12c0-75.171-42.832-136.106-107.832-136.106V5177.385z"/>
		</g>
	</g>
	<g opacity="0.1">
		<path fill="#464541" d="M794,5177.291v0.094c0,0,3.857-0.021,4.5-0.033c0.629,0.012,4.5,0.033,4.5,0.033v-0.094
			c56-2.538,103.86-62.465,103.86-136.025c0-15.664-2.208-30.707-6.08-44.715l-207.954,55.99
			C697.293,5120.861,749,5174.88,794,5177.291z"/>
	</g>
</g>
<g>
	<rect x="631" y="5211.607" fill="#464541" width="57" height="32"/>
	<polygon fill="#3285A6" points="712.822,4986.607 752.279,4986.607 659.324,4834.127 566.345,4986.607 605.807,4986.607 
		527.943,5211.607 658.99,5211.607 790.685,5211.607 	"/>
	<polygon fill="#3285A6" points="659.324,4835 566.345,4986.607 605.807,4986.607 527.943,5211.607 658.99,5211.607 	"/>
	<polygon fill="#3285A6" points="659.324,4835 752.279,4986.607 712.822,4986.607 790.685,5211.607 658.99,5211.607 	"/>
	<polygon opacity="0.1" fill="#464541" enable-background="new    " points="527.943,5211.607 712.822,4988.357 790.685,5211.607 	
		"/>
</g>
<g>
	<rect x="603" y="5476.607" fill="#464541" width="57" height="32"/>
	<polygon fill="#3285A6" points="684.906,5251.607 724.363,5251.607 631.408,5099.127 538.429,5251.607 577.891,5251.607 
		500.027,5476.607 631.074,5476.607 762.77,5476.607 	"/>
	<polygon fill="#459DBF" points="631.408,5100 538.429,5251.607 577.891,5251.607 500.027,5476.607 631.074,5476.607 	"/>
	<polygon fill="#3285A6" points="631.408,5100 724.363,5251.607 684.906,5251.607 762.77,5476.607 631.074,5476.607 	"/>
	<polygon opacity="0.1" fill="#464541" enable-background="new    " points="500.027,5476.607 684.906,5253.357 762.77,5476.607 	
		"/>
</g>
<g>
	<polygon fill="#3285A6" points="787,5057.384 657.312,5429.607 787,5429.607 	"/>
	<polygon fill="#3285A6" points="787,5058.251 919.727,5429.607 787,5429.607 	"/>
	<rect x="760" y="5429.607" fill="#464541" width="54" height="89"/>
	<polygon opacity="0.1" fill="#464541" enable-background="new    " points="657.312,5429.607 838.971,5198.064 919.727,5429.607 	
		"/>
</g>
<g>
	<g>
		<rect x="766" y="5622.607" fill="#464541" width="59" height="150"/>
		<g>
			<path fill="#459DBF" d="M803,5655.385c-54,0-107.832-60.939-107.832-136.12c0-75.171,53.832-136.106,107.832-136.106V5655.385z"
				/>
			<path fill="#3285A6" d="M794,5655.385c65,0,107.832-60.939,107.832-136.12c0-75.171-42.832-136.106-107.832-136.106V5655.385z"/>
		</g>
	</g>
	<g opacity="0.1">
		<path fill="#464541" d="M794,5655.291v0.094c0,0,3.857-0.021,4.5-0.033c0.629,0.012,4.5,0.033,4.5,0.033v-0.094
			c56-2.538,103.86-62.465,103.86-136.025c0-15.664-2.208-30.707-6.08-44.715l-207.954,55.99
			C697.293,5598.861,749,5652.88,794,5655.291z"/>
	</g>
</g>
<g>
	<rect x="631" y="5689.607" fill="#464541" width="57" height="32"/>
	<polygon fill="#3285A6" points="712.822,5464.607 752.279,5464.607 659.324,5312.127 566.345,5464.607 605.807,5464.607 
		527.943,5689.607 658.99,5689.607 790.685,5689.607 	"/>
	<polygon fill="#3285A6" points="659.324,5313 566.345,5464.607 605.807,5464.607 527.943,5689.607 658.99,5689.607 	"/>
	<polygon fill="#3285A6" points="659.324,5313 752.279,5464.607 712.822,5464.607 790.685,5689.607 658.99,5689.607 	"/>
	<polygon opacity="0.1" fill="#464541" enable-background="new    " points="527.943,5689.607 712.822,5466.357 790.685,5689.607 	
		"/>
</g>
<g>
	<rect x="603" y="5954.607" fill="#464541" width="57" height="32"/>
	<polygon fill="#3285A6" points="684.906,5729.607 724.363,5729.607 631.408,5577.127 538.429,5729.607 577.891,5729.607 
		500.027,5954.607 631.074,5954.607 762.77,5954.607 	"/>
	<polygon fill="#459DBF" points="631.408,5578 538.429,5729.607 577.891,5729.607 500.027,5954.607 631.074,5954.607 	"/>
	<polygon fill="#3285A6" points="631.408,5578 724.363,5729.607 684.906,5729.607 762.77,5954.607 631.074,5954.607 	"/>
	<polygon opacity="0.1" fill="#464541" enable-background="new    " points="500.027,5954.607 684.906,5731.357 762.77,5954.607 	
		"/>
</g>
<g>
	<polygon fill="#3285A6" points="787,5535.384 657.312,5907.607 787,5907.607 	"/>
	<polygon fill="#3285A6" points="787,5536.251 919.727,5907.607 787,5907.607 	"/>
	<rect x="760" y="5907.607" fill="#464541" width="54" height="89"/>
	<polygon opacity="0.1" fill="#464541" enable-background="new    " points="657.312,5907.607 838.971,5676.064 919.727,5907.607 	
		"/>
</g>
<g>
	<g>
		<rect x="766" y="6100.607" fill="#464541" width="59" height="150"/>
		<g>
			<path fill="#459DBF" d="M803,6133.385c-54,0-107.832-60.939-107.832-136.12c0-75.171,53.832-136.106,107.832-136.106V6133.385z"
				/>
			<path fill="#3285A6" d="M794,6133.385c65,0,107.832-60.939,107.832-136.12c0-75.171-42.832-136.106-107.832-136.106V6133.385z"/>
		</g>
	</g>
	<g opacity="0.1">
		<path fill="#464541" d="M794,6133.291v0.094c0,0,3.857-0.021,4.5-0.033c0.629,0.012,4.5,0.033,4.5,0.033v-0.094
			c56-2.538,103.86-62.465,103.86-136.025c0-15.664-2.208-30.707-6.08-44.715l-207.954,55.99
			C697.293,6076.861,749,6130.88,794,6133.291z"/>
	</g>
</g>
<g>
	<rect x="631" y="6167.607" fill="#464541" width="57" height="32"/>
	<polygon fill="#3285A6" points="712.822,5942.607 752.279,5942.607 659.324,5790.127 566.345,5942.607 605.807,5942.607 
		527.943,6167.607 658.99,6167.607 790.685,6167.607 	"/>
	<polygon fill="#3285A6" points="659.324,5791 566.345,5942.607 605.807,5942.607 527.943,6167.607 658.99,6167.607 	"/>
	<polygon fill="#3285A6" points="659.324,5791 752.279,5942.607 712.822,5942.607 790.685,6167.607 658.99,6167.607 	"/>
	<polygon opacity="0.1" fill="#464541" enable-background="new    " points="527.943,6167.607 712.822,5944.357 790.685,6167.607 	
		"/>
</g>
<g>
	<rect x="603" y="6432.607" fill="#464541" width="57" height="32"/>
	<polygon fill="#3285A6" points="684.906,6207.607 724.363,6207.607 631.408,6055.127 538.429,6207.607 577.891,6207.607 
		500.027,6432.607 631.074,6432.607 762.77,6432.607 	"/>
	<polygon fill="#459DBF" points="631.408,6056 538.429,6207.607 577.891,6207.607 500.027,6432.607 631.074,6432.607 	"/>
	<polygon fill="#3285A6" points="631.408,6056 724.363,6207.607 684.906,6207.607 762.77,6432.607 631.074,6432.607 	"/>
	<polygon opacity="0.1" fill="#464541" enable-background="new    " points="500.027,6432.607 684.906,6209.357 762.77,6432.607 	
		"/>
</g>
<g>
	<polygon fill="#3285A6" points="787,6013.384 657.312,6385.607 787,6385.607 	"/>
	<polygon fill="#3285A6" points="787,6014.251 919.727,6385.607 787,6385.607 	"/>
	<rect x="760" y="6385.607" fill="#464541" width="54" height="89"/>
	<polygon opacity="0.1" fill="#464541" enable-background="new    " points="657.312,6385.607 838.971,6154.064 919.727,6385.607 	
		"/>
</g>
<g>
	<g>
		<rect x="766" y="6578.607" fill="#464541" width="59" height="150"/>
		<g>
			<path fill="#459DBF" d="M803,6611.385c-54,0-107.832-60.939-107.832-136.12c0-75.171,53.832-136.106,107.832-136.106V6611.385z"
				/>
			<path fill="#3285A6" d="M794,6611.385c65,0,107.832-60.939,107.832-136.12c0-75.171-42.832-136.106-107.832-136.106V6611.385z"/>
		</g>
	</g>
	<g opacity="0.1">
		<path fill="#464541" d="M794,6611.291v0.094c0,0,3.857-0.021,4.5-0.033c0.629,0.012,4.5,0.033,4.5,0.033v-0.094
			c56-2.538,103.86-62.465,103.86-136.025c0-15.664-2.208-30.707-6.08-44.715l-207.954,55.99
			C697.293,6554.861,749,6608.88,794,6611.291z"/>
	</g>
</g>
<g>
	<rect x="631" y="6645.607" fill="#464541" width="57" height="32"/>
	<polygon fill="#3285A6" points="712.822,6420.607 752.279,6420.607 659.324,6268.127 566.345,6420.607 605.807,6420.607 
		527.943,6645.607 658.99,6645.607 790.685,6645.607 	"/>
	<polygon fill="#3285A6" points="659.324,6269 566.345,6420.607 605.807,6420.607 527.943,6645.607 658.99,6645.607 	"/>
	<polygon fill="#3285A6" points="659.324,6269 752.279,6420.607 712.822,6420.607 790.685,6645.607 658.99,6645.607 	"/>
	<polygon opacity="0.1" fill="#464541" enable-background="new    " points="527.943,6645.607 712.822,6422.357 790.685,6645.607 	
		"/>
</g>
<g>
	<rect x="603" y="6910.607" fill="#464541" width="57" height="32"/>
	<polygon fill="#3285A6" points="684.906,6685.607 724.363,6685.607 631.408,6533.127 538.429,6685.607 577.891,6685.607 
		500.027,6910.607 631.074,6910.607 762.77,6910.607 	"/>
	<polygon fill="#459DBF" points="631.408,6534 538.429,6685.607 577.891,6685.607 500.027,6910.607 631.074,6910.607 	"/>
	<polygon fill="#3285A6" points="631.408,6534 724.363,6685.607 684.906,6685.607 762.77,6910.607 631.074,6910.607 	"/>
	<polygon opacity="0.1" fill="#464541" enable-background="new    " points="500.027,6910.607 684.906,6687.357 762.77,6910.607 	
		"/>
</g>
<g>
	<polygon fill="#3285A6" points="787,6491.384 657.312,6863.607 787,6863.607 	"/>
	<polygon fill="#3285A6" points="787,6492.251 919.727,6863.607 787,6863.607 	"/>
	<rect x="760" y="6863.607" fill="#464541" width="54" height="89"/>
	<polygon opacity="0.1" fill="#464541" enable-background="new    " points="657.312,6863.607 838.971,6632.064 919.727,6863.607 	
		"/>
</g>
<g>
	<g>
		<rect x="766" y="7056.607" fill="#464541" width="59" height="150"/>
		<g>
			<path fill="#459DBF" d="M803,7089.385c-54,0-107.832-60.939-107.832-136.12c0-75.171,53.832-136.106,107.832-136.106V7089.385z"
				/>
			<path fill="#3285A6" d="M794,7089.385c65,0,107.832-60.939,107.832-136.12c0-75.171-42.832-136.106-107.832-136.106V7089.385z"/>
		</g>
	</g>
	<g opacity="0.1">
		<path fill="#464541" d="M794,7089.291v0.094c0,0,3.857-0.021,4.5-0.033c0.629,0.012,4.5,0.033,4.5,0.033v-0.094
			c56-2.538,103.86-62.465,103.86-136.025c0-15.664-2.208-30.707-6.08-44.715l-207.954,55.99
			C697.293,7032.861,749,7086.88,794,7089.291z"/>
	</g>
</g>
<g>
	<rect x="631" y="7123.607" fill="#464541" width="57" height="32"/>
	<polygon fill="#3285A6" points="712.822,6898.607 752.279,6898.607 659.324,6746.127 566.345,6898.607 605.807,6898.607 
		527.943,7123.607 658.99,7123.607 790.685,7123.607 	"/>
	<polygon fill="#3285A6" points="659.324,6747 566.345,6898.607 605.807,6898.607 527.943,7123.607 658.99,7123.607 	"/>
	<polygon fill="#3285A6" points="659.324,6747 752.279,6898.607 712.822,6898.607 790.685,7123.607 658.99,7123.607 	"/>
	<polygon opacity="0.1" fill="#464541" enable-background="new    " points="527.943,7123.607 712.822,6900.357 790.685,7123.607 	
		"/>
</g>
<g>
	<rect x="603" y="7388.607" fill="#464541" width="57" height="32"/>
	<polygon fill="#3285A6" points="684.906,7163.607 724.363,7163.607 631.408,7011.127 538.429,7163.607 577.891,7163.607 
		500.027,7388.607 631.074,7388.607 762.77,7388.607 	"/>
	<polygon fill="#459DBF" points="631.408,7012 538.429,7163.607 577.891,7163.607 500.027,7388.607 631.074,7388.607 	"/>
	<polygon fill="#3285A6" points="631.408,7012 724.363,7163.607 684.906,7163.607 762.77,7388.607 631.074,7388.607 	"/>
	<polygon opacity="0.1" fill="#464541" enable-background="new    " points="500.027,7388.607 684.906,7165.357 762.77,7388.607 	
		"/>
</g>
<g>
	<polygon fill="#3285A6" points="787,6969.384 657.312,7341.607 787,7341.607 	"/>
	<polygon fill="#3285A6" points="787,6970.251 919.727,7341.607 787,7341.607 	"/>
	<rect x="760" y="7341.607" fill="#464541" width="54" height="89"/>
	<polygon opacity="0.1" fill="#464541" enable-background="new    " points="657.312,7341.607 838.971,7110.064 919.727,7341.607 	
		"/>
</g>
<g>
	<g>
		<rect x="766" y="7534.607" fill="#464541" width="59" height="150"/>
		<g>
			<path fill="#459DBF" d="M803,7567.385c-54,0-107.832-60.939-107.832-136.12c0-75.171,53.832-136.106,107.832-136.106V7567.385z"
				/>
			<path fill="#3285A6" d="M794,7567.385c65,0,107.832-60.939,107.832-136.12c0-75.171-42.832-136.106-107.832-136.106V7567.385z"/>
		</g>
	</g>
	<g opacity="0.1">
		<path fill="#464541" d="M794,7567.291v0.094c0,0,3.857-0.021,4.5-0.033c0.629,0.012,4.5,0.033,4.5,0.033v-0.094
			c56-2.538,103.86-62.465,103.86-136.025c0-15.664-2.208-30.707-6.08-44.715l-207.954,55.99
			C697.293,7510.861,749,7564.88,794,7567.291z"/>
	</g>
</g>
<g>
	<rect x="631" y="7601.607" fill="#464541" width="57" height="32"/>
	<polygon fill="#3285A6" points="712.822,7376.607 752.279,7376.607 659.324,7224.127 566.345,7376.607 605.807,7376.607 
		527.943,7601.607 658.99,7601.607 790.685,7601.607 	"/>
	<polygon fill="#3285A6" points="659.324,7225 566.345,7376.607 605.807,7376.607 527.943,7601.607 658.99,7601.607 	"/>
	<polygon fill="#3285A6" points="659.324,7225 752.279,7376.607 712.822,7376.607 790.685,7601.607 658.99,7601.607 	"/>
	<polygon opacity="0.1" fill="#464541" enable-background="new    " points="527.943,7601.607 712.822,7378.357 790.685,7601.607 	
		"/>
</g>
<g>
	<rect x="603" y="7866.607" fill="#464541" width="57" height="32"/>
	<polygon fill="#3285A6" points="684.906,7641.607 724.363,7641.607 631.408,7489.127 538.429,7641.607 577.891,7641.607 
		500.027,7866.607 631.074,7866.607 762.77,7866.607 	"/>
	<polygon fill="#459DBF" points="631.408,7490 538.429,7641.607 577.891,7641.607 500.027,7866.607 631.074,7866.607 	"/>
	<polygon fill="#3285A6" points="631.408,7490 724.363,7641.607 684.906,7641.607 762.77,7866.607 631.074,7866.607 	"/>
	<polygon opacity="0.1" fill="#464541" enable-background="new    " points="500.027,7866.607 684.906,7643.357 762.77,7866.607 	
		"/>
</g>
<g>
	<polygon fill="#3285A6" points="787,7447.384 657.312,7819.607 787,7819.607 	"/>
	<polygon fill="#3285A6" points="787,7448.251 919.727,7819.607 787,7819.607 	"/>
	<rect x="760" y="7819.607" fill="#464541" width="54" height="89"/>
	<polygon opacity="0.1" fill="#464541" enable-background="new    " points="657.312,7819.607 838.971,7588.064 919.727,7819.607 	
		"/>
</g>
<g>
	<g>
		<rect x="766" y="8012.607" fill="#464541" width="59" height="150"/>
		<g>
			<path fill="#459DBF" d="M803,8045.385c-54,0-107.832-60.939-107.832-136.12c0-75.171,53.832-136.106,107.832-136.106V8045.385z"
				/>
			<path fill="#3285A6" d="M794,8045.385c65,0,107.832-60.939,107.832-136.12c0-75.171-42.832-136.106-107.832-136.106V8045.385z"/>
		</g>
	</g>
	<g opacity="0.1">
		<path fill="#464541" d="M794,8045.291v0.094c0,0,3.857-0.021,4.5-0.033c0.629,0.012,4.5,0.033,4.5,0.033v-0.094
			c56-2.538,103.86-62.465,103.86-136.025c0-15.664-2.208-30.707-6.08-44.715l-207.954,55.99
			C697.293,7988.861,749,8042.88,794,8045.291z"/>
	</g>
</g>
<g>
	<rect x="631" y="8079.607" fill="#464541" width="57" height="32"/>
	<polygon fill="#3285A6" points="712.822,7854.607 752.279,7854.607 659.324,7702.127 566.345,7854.607 605.807,7854.607 
		527.943,8079.607 658.99,8079.607 790.685,8079.607 	"/>
	<polygon fill="#3285A6" points="659.324,7703 566.345,7854.607 605.807,7854.607 527.943,8079.607 658.99,8079.607 	"/>
	<polygon fill="#3285A6" points="659.324,7703 752.279,7854.607 712.822,7854.607 790.685,8079.607 658.99,8079.607 	"/>
	<polygon opacity="0.1" fill="#464541" enable-background="new    " points="527.943,8079.607 712.822,7856.357 790.685,8079.607 	
		"/>
</g>
<g>
	<rect x="603" y="8344.608" fill="#464541" width="57" height="32"/>
	<polygon fill="#3285A6" points="684.906,8119.607 724.363,8119.607 631.408,7967.127 538.429,8119.607 577.891,8119.607 
		500.027,8344.608 631.074,8344.608 762.77,8344.608 	"/>
	<polygon fill="#459DBF" points="631.408,7968 538.429,8119.607 577.891,8119.607 500.027,8344.608 631.074,8344.608 	"/>
	<polygon fill="#3285A6" points="631.408,7968 724.363,8119.607 684.906,8119.607 762.77,8344.608 631.074,8344.608 	"/>
	<polygon opacity="0.1" fill="#464541" enable-background="new    " points="500.027,8344.608 684.906,8121.357 762.77,8344.608 	
		"/>
</g>
<g>
	<polygon fill="#3285A6" points="787,7925.384 657.312,8297.608 787,8297.608 	"/>
	<polygon fill="#3285A6" points="787,7926.251 919.727,8297.608 787,8297.608 	"/>
	<rect x="760" y="8297.608" fill="#464541" width="54" height="89"/>
	<polygon opacity="0.1" fill="#464541" enable-background="new    " points="657.312,8297.608 838.971,8066.064 919.727,8297.608 	
		"/>
</g>
<g>
	<g>
		<rect x="766" y="8490.609" fill="#464541" width="59" height="150.001"/>
		<g>
			<path fill="#459DBF" d="M803,8523.387c-54,0-107.832-60.942-107.832-136.122c0-75.171,53.832-136.107,107.832-136.107V8523.387z"
				/>
			<path fill="#3285A6" d="M794,8523.387c65,0,107.832-60.942,107.832-136.122c0-75.171-42.832-136.107-107.832-136.107V8523.387z"
				/>
		</g>
	</g>
	<g opacity="0.1">
		<path fill="#464541" d="M794,8523.293v0.094c0,0,3.857-0.023,4.5-0.035c0.629,0.012,4.5,0.035,4.5,0.035v-0.094
			c56-2.539,103.86-62.466,103.86-136.028c0-15.664-2.208-30.706-6.08-44.715l-207.954,55.99
			C697.293,8466.862,749,8520.879,794,8523.293z"/>
	</g>
</g>
<g>
	<rect x="631" y="8557.609" fill="#464541" width="57" height="32"/>
	<polygon fill="#3285A6" points="712.822,8332.608 752.279,8332.608 659.324,8180.127 566.345,8332.608 605.807,8332.608 
		527.943,8557.609 658.99,8557.609 790.685,8557.609 	"/>
	<polygon fill="#3285A6" points="659.324,8181 566.345,8332.608 605.807,8332.608 527.943,8557.609 658.99,8557.609 	"/>
	<polygon fill="#3285A6" points="659.324,8181 752.279,8332.608 712.822,8332.608 790.685,8557.609 658.99,8557.609 	"/>
	<polygon opacity="0.1" fill="#464541" enable-background="new    " points="527.943,8557.609 712.822,8334.357 790.685,8557.609 	
		"/>
</g>
<g>
	<rect x="603" y="8822.609" fill="#464541" width="57" height="32"/>
	<polygon fill="#3285A6" points="684.906,8597.609 724.363,8597.609 631.408,8445.128 538.429,8597.609 577.891,8597.609 
		500.027,8822.609 631.074,8822.609 762.77,8822.609 	"/>
	<polygon fill="#459DBF" points="631.408,8445.999 538.429,8597.609 577.891,8597.609 500.027,8822.609 631.074,8822.609 	"/>
	<polygon fill="#3285A6" points="631.408,8445.999 724.363,8597.609 684.906,8597.609 762.77,8822.609 631.074,8822.609 	"/>
	<polygon opacity="0.1" fill="#464541" enable-background="new    " points="500.027,8822.609 684.906,8599.359 762.77,8822.609 	
		"/>
</g>
<g>
	<polygon fill="#3285A6" points="787,8403.384 657.312,8775.609 787,8775.609 	"/>
	<polygon fill="#3285A6" points="787,8404.251 919.727,8775.609 787,8775.609 	"/>
	<rect x="760" y="8775.609" fill="#464541" width="54" height="89"/>
	<polygon opacity="0.1" fill="#464541" enable-background="new    " points="657.312,8775.609 838.971,8544.066 919.727,8775.609 	
		"/>
</g>
</svg>
