<?xml version="1.0" encoding="utf-8"?>
<!-- Generator: Adobe Illustrator 15.1.0, SVG Export Plug-In . SVG Version: 6.00 Build 0)  -->
<!DOCTYPE svg PUBLIC "-//W3C//DTD SVG 1.1//EN" "http://www.w3.org/Graphics/SVG/1.1/DTD/svg11.dtd">
<svg version="1.1" id="Calque_1" xmlns="http://www.w3.org/2000/svg" xmlns:xlink="http://www.w3.org/1999/xlink" x="0px" y="0px"
	 width="800px" height="600px" viewBox="0 0 800 600" enable-background="new 0 0 800 600" xml:space="preserve">
<g>
	<polygon fill="#C7B299" points="540.438,1265.799 519.969,1247.514 466.787,1253.986 455.534,1268.057 453.421,1223.529 
		439.351,1158.094 437.944,1058.814 416.109,953.316 417.017,914.547 399.404,901.143 380.574,914.547 377.441,970.824 
		373.224,1133.277 359.15,1206.607 358.449,1268.057 326.82,1245.293 302.221,1239.742 279.443,1247.514 257.587,1265.799 
		261.222,1186.453 249.381,1069.885 256.666,921.117 243,845.645 247.518,730.428 550.512,730.428 539.104,880.057 546.593,938.896 
		537.282,1047.684 543.541,1100.941 536.369,1180.902 540.974,1237.551 	"/>
	<polygon fill="#DE9D7E" points="551.639,730.428 247.456,730.428 247.646,450.814 273.262,351.994 333.024,344.729 455.74,344.729 
		554.363,357.248 551.709,450.984 	"/>
	<polygon fill="#42210B" points="325.906,1279.289 363.371,1278.018 331.376,1246.268 309.507,1240.289 288.524,1240.289 
		264.867,1254.646 259.364,1276.215 288.524,1279.609 	"/>
	<polygon fill="#42210B" points="467.846,1281.773 450.258,1278.018 463.622,1248.195 500.383,1240.289 521.372,1240.289 
		545.029,1254.646 550.532,1276.215 521.372,1279.609 	"/>
	<polygon fill="#A67C52" points="473.663,337.387 464.855,402.871 433.115,456.264 239.773,474.49 226.404,576.555 240.988,670.111 
		226.404,741.791 293.687,778.248 385.571,768.527 456.045,778.248 530.162,760.023 573.9,756.375 561.752,654.316 531.438,566.217 
		517.479,523.391 545.955,412.07 566.612,350.559 	"/>
	<path fill="#CD957E" d="M328.01,280.686l7.135,61.181c0,0,16.189,16.088,59.722,16.088c43.53,0,62.848-16.088,62.848-16.088
		l7.139-59.253L328.01,280.686z"/>
	<polygon fill="#DE9D7E" points="310.319,165.088 317.156,282.959 382.774,337.637 426.97,332.018 481.198,277.25 494.397,165.088 	
		"/>
	<path fill="#CD957E" d="M509.907,192.28c0,0,2.278,24.155-10.937,47.849l-13.949,4.123l5.119-43.734L509.907,192.28z"/>
	<path fill="#CD957E" d="M289.703,192.28c0,0-2.275,24.155,10.939,47.849l14.297,4.123l-2.474-42.808L289.703,192.28z"/>
	<polygon fill="#CD957E" points="377.677,248.802 405.317,233.307 424.756,246.673 	"/>
	<g>
		<path fill="#D2D2D2" d="M291.685,144.462v20.625h201.874l17.394-4.706v-17.742C510.952,142.638,399.998,135.376,291.685,144.462z"
			/>
		<path fill="#E6E6E6" d="M403.646,46.461c-97.503,0-105.193,97.057-105.193,97.057l105.193,2.309l105.196-2.309
			C508.844,143.518,501.151,46.461,403.646,46.461z"/>
	</g>
	<polygon fill="#D2D2D2" points="308.725,110.537 341.311,66.535 331.928,54.549 290.937,110.305 	"/>
	<polygon fill="#D2D2D2" points="498.491,110.537 465.902,66.535 475.285,54.549 516.277,110.305 	"/>
	<polyline fill="#D2D2D2" points="402.402,32.96 411.953,48.904 402.433,59.827 392.712,48.93 402.402,32.96 	"/>
	<path fill="#E8E3E3" d="M295.743,103.77c0,0-56.964-36.802-12.766-93.762c0,0-0.234,33.876,43.053,52.559L295.743,103.77z"/>
	<path fill="#E8E3E3" d="M511.439,103.726c0,0,17.342-10.645,25.538-29.42l-5.753-13.379l-8.354,1.218l2.43-6.532L511.1,41.546
		c-6.479,7.708-15.472,15.239-29.666,21.361L511.439,103.726z"/>
	<polygon fill="#8C6239" points="312.469,201.415 292.59,193.443 286.592,183.253 291.182,165.088 349.386,165.088 327.71,181.811 
		314.303,174.522 	"/>
	<polygon fill="#8C6239" points="302.244,240.59 293.687,279.935 316.436,270.199 314.939,244.249 	"/>
	<polygon fill="#8C6239" points="498.236,240.34 507.802,280.395 499.725,276.938 489.307,285.859 483.277,276.205 481.198,276.886 
		485.021,244.249 	"/>
	<polygon fill="#8C6239" points="485.021,165.088 481.198,175.25 487.578,177.312 491.737,184.362 479.891,203.293 490.141,200.543 
		506.799,193.59 516.336,178.944 511.729,167.069 503.811,162.691 494.397,165.088 	"/>
	<polygon fill="#8C6239" points="421.416,165.088 450.578,176.938 473.663,165.088 	"/>
	<polyline fill="#8C6239" points="353.375,164.219 341.311,186.379 364.919,198.835 350.947,182.812 366.438,164.219 	"/>
	<path fill="#FFFFFF" d="M378.768,218.568c0.127-2.708-1.158-6.457-5.105-9.264c-3.944-2.807-20.061-6.13-25.724-5.413
		c-5.66,0.72-10.296,3.689-10.401,8.459c-0.102,4.77,5.059,11.723,8.937,13.49c3.874,1.77,14.181,1.751,19.317,0.619
		C370.925,225.325,378.637,221.275,378.768,218.568z"/>
	<circle fill="#99C6E4" cx="357.926" cy="216.001" r="9.107"/>
	<circle fill="#4D4D4D" cx="358.176" cy="215.931" r="3.621"/>
	<circle fill="#FFFFFF" cx="361.22" cy="212.986" r="1.938"/>
	<path fill="#FFFFFF" d="M421.385,218.568c-0.129-2.708,1.153-6.457,5.1-9.264c3.945-2.807,20.064-6.13,25.725-5.413
		c5.657,0.72,10.296,3.689,10.399,8.459c0.105,4.77-5.057,11.723-8.932,13.49c-3.875,1.77-14.185,1.751-19.318,0.619
		C429.223,225.325,421.514,221.275,421.385,218.568z"/>
	<circle fill="#99C6E4" cx="442.225" cy="216.001" r="9.107"/>
	<path fill="#4D4D4D" d="M442.625,212.307c2.002,0,3.624,1.623,3.624,3.625c0,1.999-1.622,3.625-3.624,3.625
		S439,217.931,439,215.932C439,213.93,440.623,212.307,442.625,212.307z"/>
	<circle fill="#FFFFFF" cx="445.661" cy="212.986" r="1.938"/>
	<polygon opacity="0.27" fill="#C1272D" enable-background="new    " points="370.383,285.348 389.217,294.535 413.214,294.535 
		436.605,285.348 412.912,281.326 392.258,281.326 	"/>
	<polygon opacity="0.55" fill="#CD957E" enable-background="new    " points="378.775,312.945 386.786,305.103 414.733,305.103 
		421.377,312.945 413.214,309.883 389.217,307.695 	"/>
	<polygon fill="#8C6239" points="421.377,203.793 449.288,199.289 469.106,205.061 454.923,195.141 439,196.149 	"/>
	<polygon fill="#8C6239" points="378.433,203.793 350.523,199.289 330.705,205.061 344.884,195.141 360.807,196.149 	"/>
	<g>
		<polygon fill="#DE9D7E" points="191.777,542.09 203.126,449.504 221.541,382.629 245.637,356.902 273.262,351.635 
			292.549,378.166 294.645,420.027 289.516,457.246 269.014,524.857 243.352,561.246 252.613,584.684 268.376,713.135 
			286.736,716.311 296.308,725.465 304.468,733.291 318.742,764.578 310.433,767.377 303.371,750.297 297.221,744.824 
			292.316,744.379 288.176,748.064 289.717,760.35 297.938,791.611 290.064,793.969 280.471,762.299 277.212,763.354 
			288.323,805.85 279.643,807.496 268.964,765.926 263.855,768.373 273.422,801.746 265.42,803.262 256.599,771.246 
			250.863,773.311 257.984,796.746 251.638,797.945 244.664,774.451 234.706,752.496 238.777,716.326 200.662,609.967 
			201.883,590.188 192.68,568.668 		"/>
		<polygon fill="#FBB03B" points="268.562,706.502 235.715,712.018 218.109,663.475 261.818,653.719 		"/>
	</g>
	<g>
		<polygon fill="#DE9D7E" points="608.223,542.09 596.877,449.504 578.462,382.629 554.363,356.902 526.738,351.635 
			507.451,378.166 505.356,420.027 510.485,457.246 530.984,524.857 556.649,561.246 547.383,584.684 531.625,713.135 
			513.259,716.311 503.689,725.465 495.532,733.291 481.258,764.578 489.567,767.377 496.626,750.297 502.781,744.824 
			507.684,744.379 511.824,748.064 510.281,760.35 502.062,791.611 509.938,793.969 519.527,762.299 522.791,763.354 
			511.677,805.85 520.358,807.496 531.036,765.926 536.145,768.373 526.576,801.746 534.581,803.262 543.401,771.246 
			549.137,773.311 542.016,796.746 548.36,797.945 555.336,774.451 565.294,752.496 561.223,716.326 599.336,609.967 
			598.117,590.188 607.32,568.668 		"/>
		<polygon fill="#FBB03B" points="531.438,706.502 564.288,712.018 581.891,663.475 538.186,653.719 		"/>
	</g>
	<polygon fill="#A67C52" points="487.176,339.076 567.404,350.559 557.06,415.766 531.638,448.369 524.352,500.018 487.176,493.324 
			"/>
</g>
</svg>
