<?xml version="1.0" encoding="utf-8"?>
<!-- Generator: Adobe Illustrator 15.1.0, SVG Export Plug-In . SVG Version: 6.00 Build 0)  -->
<!DOCTYPE svg PUBLIC "-//W3C//DTD SVG 1.1//EN" "http://www.w3.org/Graphics/SVG/1.1/DTD/svg11.dtd">
<svg version="1.1" id="Calque_1" xmlns="http://www.w3.org/2000/svg" xmlns:xlink="http://www.w3.org/1999/xlink" x="0px" y="0px"
	 width="800px" height="600px" viewBox="0 0 800 600" enable-background="new 0 0 800 600" xml:space="preserve">
<polygon fill="#C7B299" points="540.438,1265.799 519.969,1247.514 466.787,1253.986 455.534,1268.057 453.421,1223.529 
	439.351,1158.094 437.944,1058.814 416.109,953.316 417.017,914.547 399.404,901.143 380.574,914.547 377.441,970.824 
	373.224,1133.277 359.15,1206.607 358.449,1268.057 326.82,1245.293 302.221,1239.742 279.443,1247.514 257.587,1265.799 
	261.222,1186.453 249.381,1069.885 256.666,921.117 243,845.645 247.518,730.428 550.512,730.428 539.104,880.057 546.593,938.896 
	537.282,1047.684 543.541,1100.941 536.369,1180.902 540.974,1237.551 "/>
<polygon fill="#DE9D7E" points="551.639,730.428 247.456,730.428 247.646,450.814 273.262,351.994 333.024,344.729 455.74,344.729 
	554.363,357.248 551.709,450.984 "/>
<polygon fill="#42210B" points="325.906,1279.289 363.371,1278.018 331.376,1246.268 309.507,1240.289 288.524,1240.289 
	264.867,1254.646 259.364,1276.215 288.524,1279.609 "/>
<polygon fill="#42210B" points="467.846,1281.773 450.258,1278.018 463.622,1248.195 500.383,1240.289 521.372,1240.289 
	545.029,1254.646 550.532,1276.215 521.372,1279.609 "/>
<polygon fill="#A67C52" points="473.663,337.387 464.855,402.871 433.115,456.264 239.773,474.49 226.404,576.555 240.988,670.111 
	226.404,741.791 293.687,778.248 385.571,768.527 456.045,778.248 530.162,760.023 573.9,756.375 561.752,654.316 531.438,566.217 
	517.479,523.391 545.955,412.07 566.612,350.559 "/>
<path fill="#CD957E" d="M328.01,284.69l7.135,61.181c0,0,16.189,16.088,59.722,16.088c43.53,0,62.848-16.088,62.848-16.088
	l7.139-59.253L328.01,284.69z"/>
<polygon fill="#DE9D7E" points="310.319,169.092 317.156,286.963 382.774,341.641 426.97,336.021 481.198,281.254 494.397,169.092 
	"/>
<path fill="#CD957E" d="M509.907,196.284c0,0,2.277,24.155-10.938,47.849l-13.948,4.123l5.118-43.734L509.907,196.284z"/>
<path fill="#CD957E" d="M289.703,196.284c0,0-2.275,24.155,10.939,47.849l14.297,4.123l-2.474-42.808L289.703,196.284z"/>
<polygon fill="#CD957E" points="377.677,252.806 405.317,237.311 424.756,250.677 "/>
<g>
	<path fill="#D2D2D2" d="M291.685,148.466v20.625h201.874l17.395-4.706v-17.742C510.952,146.642,399.998,139.38,291.685,148.466z"/>
	<path fill="#E6E6E6" d="M403.646,50.465c-97.503,0-105.193,97.057-105.193,97.057l105.193,2.309l105.195-2.309
		C508.844,147.522,501.151,50.465,403.646,50.465z"/>
</g>
<polygon fill="#D2D2D2" points="308.725,114.541 341.311,70.539 331.928,58.553 290.937,114.309 "/>
<polygon fill="#D2D2D2" points="498.491,114.541 465.902,70.539 475.285,58.553 516.277,114.309 "/>
<polyline fill="#D2D2D2" points="402.402,36.964 411.953,52.908 402.433,63.831 392.712,52.934 402.402,36.964 "/>
<path fill="#E8E3E3" d="M295.743,107.774c0,0-56.964-36.802-12.766-93.762c0,0-0.234,33.876,43.053,52.559L295.743,107.774z"/>
<path fill="#E8E3E3" d="M511.439,107.73c0,0,17.342-10.645,25.537-29.42l-5.753-13.379l-8.354,1.218l2.43-6.532L511.1,45.55
	c-6.479,7.708-15.472,15.239-29.666,21.361L511.439,107.73z"/>
<polygon fill="#8C6239" points="312.469,205.419 292.59,197.447 286.592,187.257 291.182,169.092 349.386,169.092 327.71,185.815 
	314.303,178.526 "/>
<polygon fill="#8C6239" points="302.244,244.594 293.687,283.939 316.436,274.203 314.939,248.253 "/>
<polygon fill="#8C6239" points="498.236,244.344 507.802,284.399 499.725,280.942 489.307,289.863 483.277,280.209 481.198,280.89 
	485.021,248.253 "/>
<polygon fill="#8C6239" points="485.021,169.092 481.198,179.254 487.578,181.316 491.737,188.366 479.891,207.297 490.141,204.547 
	506.799,197.594 516.336,182.948 511.729,171.073 503.811,166.695 494.397,169.092 "/>
<polygon fill="#8C6239" points="421.416,169.092 450.578,180.942 473.663,169.092 "/>
<polyline fill="#8C6239" points="353.375,168.223 341.311,190.383 364.919,202.839 350.947,186.816 366.438,168.223 "/>
<path fill="#FFFFFF" d="M378.768,222.572c0.127-2.708-1.158-6.457-5.105-9.264c-3.944-2.807-20.061-6.13-25.724-5.413
	c-5.66,0.72-10.296,3.689-10.401,8.459c-0.102,4.77,5.059,11.723,8.937,13.49c3.874,1.77,14.181,1.751,19.317,0.619
	C370.925,229.329,378.637,225.279,378.768,222.572z"/>
<circle fill="#99C6E4" cx="357.926" cy="220.005" r="9.107"/>
<circle fill="#4D4D4D" cx="358.176" cy="219.935" r="3.621"/>
<circle fill="#FFFFFF" cx="361.22" cy="216.99" r="1.938"/>
<path fill="#FFFFFF" d="M421.385,222.572c-0.129-2.708,1.153-6.457,5.101-9.264c3.944-2.807,20.063-6.13,25.725-5.413
	c5.657,0.72,10.296,3.689,10.399,8.459c0.104,4.77-5.058,11.723-8.933,13.49c-3.875,1.77-14.185,1.751-19.317,0.619
	C429.223,229.329,421.514,225.279,421.385,222.572z"/>
<circle fill="#99C6E4" cx="442.225" cy="220.005" r="9.107"/>
<path fill="#4D4D4D" d="M442.625,216.311c2.002,0,3.624,1.623,3.624,3.625c0,1.999-1.622,3.625-3.624,3.625S439,221.935,439,219.936
	C439,217.934,440.623,216.311,442.625,216.311z"/>
<circle fill="#FFFFFF" cx="445.661" cy="216.99" r="1.938"/>
<polygon opacity="0.27" fill="#C1272D" enable-background="new    " points="370.383,289.352 389.217,298.539 413.214,298.539 
	436.605,289.352 412.912,285.33 392.258,285.33 "/>
<polygon opacity="0.55" fill="#CD957E" enable-background="new    " points="378.775,316.949 386.786,309.107 414.733,309.107 
	421.377,316.949 413.214,313.887 389.217,311.699 "/>
<polygon fill="#8C6239" points="421.377,207.797 449.288,203.293 469.106,209.065 454.923,199.145 439,200.153 "/>
<polygon fill="#8C6239" points="378.433,207.797 350.523,203.293 330.705,209.065 344.884,199.145 360.807,200.153 "/>
<g>
	<polygon fill="#DE9D7E" points="191.777,542.09 203.126,449.504 221.541,382.629 245.637,356.902 273.262,351.635 292.549,378.166 
		294.645,420.027 289.516,457.246 269.014,524.857 243.352,561.246 252.613,584.684 268.376,713.135 286.736,716.311 
		296.308,725.465 304.468,733.291 318.742,764.578 310.433,767.377 303.371,750.297 297.221,744.824 292.316,744.379 
		288.176,748.064 289.717,760.35 297.938,791.611 290.064,793.969 280.471,762.299 277.212,763.354 288.323,805.85 279.643,807.496 
		268.964,765.926 263.855,768.373 273.422,801.746 265.42,803.262 256.599,771.246 250.863,773.311 257.984,796.746 
		251.638,797.945 244.664,774.451 234.706,752.496 238.777,716.326 200.662,609.967 201.883,590.188 192.68,568.668 	"/>
	<polygon fill="#FBB03B" points="268.562,706.502 235.715,712.018 218.109,663.475 261.818,653.719 	"/>
</g>
<g>
	<polygon fill="#DE9D7E" points="608.223,542.09 596.877,449.504 578.462,382.629 554.363,356.902 526.738,351.635 507.451,378.166 
		505.356,420.027 510.485,457.246 530.984,524.857 556.649,561.246 547.383,584.684 531.625,713.135 513.259,716.311 
		503.689,725.465 495.532,733.291 481.258,764.578 489.567,767.377 496.626,750.297 502.781,744.824 507.684,744.379 
		511.824,748.064 510.281,760.35 502.062,791.611 509.938,793.969 519.527,762.299 522.791,763.354 511.677,805.85 520.358,807.496 
		531.036,765.926 536.145,768.373 526.576,801.746 534.581,803.262 543.401,771.246 549.137,773.311 542.016,796.746 
		548.36,797.945 555.336,774.451 565.294,752.496 561.223,716.326 599.336,609.967 598.117,590.188 607.32,568.668 	"/>
	<polygon fill="#FBB03B" points="531.438,706.502 564.288,712.018 581.891,663.475 538.186,653.719 	"/>
</g>
<polygon fill="#A67C52" points="487.176,339.076 567.404,350.559 557.06,415.766 531.638,448.369 524.352,500.018 487.176,493.324 
	"/>
</svg>
