<?xml version="1.0" encoding="utf-8"?>
<!-- Generator: Adobe Illustrator 15.1.0, SVG Export Plug-In . SVG Version: 6.00 Build 0)  -->
<!DOCTYPE svg PUBLIC "-//W3C//DTD SVG 1.1//EN" "http://www.w3.org/Graphics/SVG/1.1/DTD/svg11.dtd">
<svg version="1.1" id="Calque_1" xmlns="http://www.w3.org/2000/svg" xmlns:xlink="http://www.w3.org/1999/xlink" x="0px" y="0px"
	 width="124.774px" height="155.854px" viewBox="0 0 124.774 155.854" enable-background="new 0 0 124.774 155.854"
	 xml:space="preserve">
<g id="Calque_2">
	<path fill="#00557C" d="M121.36,132.227l-5.539-20.119l-7.252-7.74l-8.311-1.584l-0.066,0.092l-17.912-2.184h-1.035
		c0.268-0.186,0.395-0.299,0.395-0.299l1.602-14.135l11.057-5l-2.572-11.84l0.041-0.111l0.258-0.074
		c3.977-7.129,2.693-14.152,2.693-14.152l-2.035-14.912c0,0-0.354-4.48-2.549-9.93l3.387-1.996
		C96.528,25.988,109.128,15.193,97.337,0c0,0-0.867,10.047-12.992,15.758l-3.146,1.846c-3.99-2.961-10.395-6.053-17.266-6.535
		l-2.524-4.162l-2.469,4.117c-7.263,0.359-12.754,2.578-16.898,5.65l-4.402-0.771c-4.042-1.818-7.056-4.176-8.936-6.412
		l-7.786,9.855c1.904,4.365,5.979,7.553,7.735,8.781l3.278,2.111c-3.693,4.865-2.87,24.602-2.87,24.602s-0.686,7.266,3.289,14.395
		l-2.475,12.16l13.423,6.451l1.466,12.549l-4.416,0.938l-27.581,6.152l-4.33,4.623l-5.539,20.121L0,155.854h26.753l2.017-11.781
		l0.802,11.781h63.999l1.365-11.781l1.385,11.781h28.453L121.36,132.227z"/>
</g>
</svg>
