<?xml version="1.0" encoding="utf-8"?>
<!-- Generator: Adobe Illustrator 15.1.0, SVG Export Plug-In . SVG Version: 6.00 Build 0)  -->
<!DOCTYPE svg PUBLIC "-//W3C//DTD SVG 1.1//EN" "http://www.w3.org/Graphics/SVG/1.1/DTD/svg11.dtd">
<svg version="1.1" id="Calque_1" xmlns="http://www.w3.org/2000/svg" xmlns:xlink="http://www.w3.org/1999/xlink" x="0px" y="0px"
	 width="800px" height="600px" viewBox="0 0 800 600" enable-background="new 0 0 800 600" xml:space="preserve">
<image overflow="visible" width="800" height="600" xlink:href="../Capture d’écran 2015-01-26 à 19.42.12.png"  transform="matrix(1 0 0 1 1 0)">
</image>
<g opacity="0.7">
	<path fill="#FFFFFF" d="M321,133v157h157V133H321z M364.5,237l36-52l36,52H364.5z"/>
	<path fill="#FFFFFF" d="M478,467V310H321v157H478z M435.5,363l-36,52l-36-52H435.5z"/>
	<path fill="#FFFFFF" d="M655,310H498v157h157V310z M551,353l52,36l-52,36V353z"/>
	<path fill="#FFFFFF" d="M144,467h157V310H144V467z M248,424l-52-36l52-36V424z"/>
</g>
</svg>
