<?xml version="1.0" encoding="utf-8"?>
<!-- Generator: Adobe Illustrator 15.1.0, SVG Export Plug-In . SVG Version: 6.00 Build 0)  -->
<!DOCTYPE svg PUBLIC "-//W3C//DTD SVG 1.1//EN" "http://www.w3.org/Graphics/SVG/1.1/DTD/svg11.dtd">
<svg version="1.1" id="Calque_1" xmlns="http://www.w3.org/2000/svg" xmlns:xlink="http://www.w3.org/1999/xlink" x="0px" y="0px"
	 width="128.684px" height="339.901px" viewBox="0 0 128.684 339.901" enable-background="new 0 0 128.684 339.901"
	 xml:space="preserve">
<g>
	<polygon fill="#42210B" points="86.524,339.239 76.516,338.898 85.064,329.612 90.906,327.206 96.513,327.206 102.834,331.849 
		104.305,338.015 96.513,339.124 	"/>
	<polygon fill="#42210B" points="46.604,339.901 51.303,338.898 47.73,330.124 37.911,327.206 32.304,327.206 25.982,331.849 
		24.513,338.015 32.304,339.124 	"/>
	<g>
		<polygon fill="#E8A990" points="128.148,127.877 122.188,102.016 114.992,83.643 107.408,77.08 99.438,76.411 94.768,84.491 
			94,96.768 95.1,110.768 103.1,126.768 111.85,135.518 108.6,141.713 111.557,178.547 106.455,179.994 104.021,182.864 
			101.943,185.322 98.834,194.599 101.268,195.144 102.761,190.101 104.338,188.371 105.709,188.097 106.994,189.019 
			106.921,192.54 105.523,201.629 107.82,202.063 109.596,192.817 110.549,193.021 108.667,205.373 111.173,205.582 
			112.957,193.503 114.477,194.042 112.762,203.768 115.07,203.961 116.615,194.642 118.3,195.054 116.979,201.896 118.811,202.047 
			120.088,195.189 122.252,188.686 120.027,178.571 127.65,147.347 126.72,141.785 128.684,135.426 		"/>
	</g>
	<g>
		<polygon fill="#E8A990" points="0.535,127.877 6.496,102.016 13.692,83.643 21.275,77.08 29.246,76.411 33.916,84.491 
			34.684,96.768 33.584,110.768 25.584,126.768 16.834,135.518 20.084,141.713 17.126,178.547 22.229,179.994 24.663,182.864 
			26.74,185.322 29.849,194.599 27.416,195.144 25.923,190.101 24.346,188.371 22.974,188.097 21.69,189.019 21.763,192.54 
			23.16,201.629 20.863,202.063 19.087,192.817 18.135,193.021 20.017,205.373 17.511,205.582 15.727,193.503 14.207,194.042 
			15.922,203.768 13.613,203.961 12.069,194.642 10.384,195.054 11.705,201.896 9.873,202.047 8.596,195.189 6.432,188.686 
			8.657,178.571 1.033,147.347 1.964,141.785 0,135.426 		"/>
	</g>
	<path fill="#DE9D7E" d="M35.667,32.05c0,0-2.44,4.877,1.321,11.617l4.898,1.108l-2.104-12.176L35.667,32.05z"/>
	<polygon fill="#8C6239" points="25.169,335.596 30.991,336.394 42.122,338.234 49.323,336.237 49.926,323.569 53.929,304.955 
		54.328,276.711 60.539,246.697 60.281,235.667 65.293,231.852 70.649,235.667 71.54,251.675 72.739,297.894 76.744,318.756 
		76.943,336.237 85.941,335.761 92.939,334.183 99.418,332.394 105.638,335.596 104.603,313.022 107.975,279.858 105.901,237.537 
		109.788,216.022 108.504,183.206 22.304,183.206 25.549,225.812 23.418,242.572 26.068,273.532 24.286,288.69 26.326,311.441 
		25.017,327.557 	"/>
	<polygon fill="#E2A28A" points="21.981,183.206 108.521,183.206 108.465,103.697 101.18,75.928 84.176,74.206 49.266,74.206 
		21.207,77.444 21.962,103.909 	"/>
	<path fill="#DE9D7E" d="M85.604,57.337l-2.032,17.405c0,0-4.605,4.578-16.988,4.578c-12.385,0-17.882-4.578-17.882-4.578
		l-2.031-16.856L85.604,57.337z"/>
	<polygon fill="#E8A990" points="89.076,22.206 89.95,29.429 86.699,64.312 70.023,71.434 57.449,69.89 44.015,62.549 
		39.513,30.856 40.826,22.206 	"/>
	<path fill="#DE9D7E" d="M93.646,32.05c0,0,3.505,4.877-0.256,11.617l-4.899,1.108l1.133-12.252L93.646,32.05z"/>
	<path fill="#F7CA83" d="M39.513,20.543l0.714-3.993l8.385,0.665l3.64-0.665l5.827,0.665l6.308,0.967l6.307-0.967l5.826-0.665
		l3.641,0.665l8.386-0.665l0.397,2.529c0,0-1.065,0.865-1.065,1.264c0,0.399,1.198,1.797,1.198,1.797l1.186,5.897l2.431,2.96
		l-0.162,1.183l-2.907,0.341l-2.1-3.105l0.088,1.247l-2.775-1.332l-1.943-2.307l-4.842,0.267l-4.503-1.154l-3.684,1.243
		l-3.274-1.169l-3.869,0.721l-3.68-0.794l-2.576,1.132l-5.947-1.132l-3.847,2.264l-3.383,0.343l-1.281,2.584l-0.527,3.933
		l-1.696-2.663l-2.402-0.189v-3.081l1.108-1.29c0,0,1.023-3.901,1.023-4.3S39.513,20.543,39.513,20.543z"/>
	<g>
		<g>
			<path fill="#E6E6E6" d="M39.217,12.504l9.16-7.906L64.128,0l15.751,4.598l9.16,7.906l0.977,15.134c0,0-9.812-3.19-25.888-3.19
				c-16.074,0-25.887,3.19-25.887,3.19L39.217,12.504z"/>
			<path fill="#D7A265" d="M64.128,19.922c14.526,0,23.91,2.597,25.59,3.099l0.298,4.616c0,0-9.812-3.19-25.888-3.19
				c-16.074,0-25.887,3.19-25.887,3.19l0.297-4.616C40.218,22.52,49.603,19.922,64.128,19.922z"/>
		</g>
		<path fill="#D7A265" d="M64.129,16.927c-13.646,0-22.941,2.3-25.391,2.996l0.296-4.583c3.022-0.815,12.234-2.938,25.095-2.938
			c12.859,0,22.07,2.105,25.092,2.92l0.297,4.601C87.068,19.227,77.773,16.927,64.129,16.927z"/>
	</g>
	<polygon fill="#603813" points="91.47,73.757 61.447,143.145 67.676,144.279 97.025,74.329 	"/>
	<polygon fill="#603813" points="61.946,140.922 62.2,147.319 108.271,147.614 108.6,140.932 	"/>
	<polygon fill="#603813" points="20.676,141.413 20.683,146.979 61.994,147.278 62.57,141.427 	"/>
	<polygon fill="#603813" points="40.332,74.217 62.117,143.019 56.086,144.268 34.974,74.903 	"/>
	<polygon fill="#F7CA83" points="93.113,63.441 91.876,61.272 91.161,57.539 92.402,54.885 94,51.424 93.522,47.52 92.516,45.2 
		92.637,42.891 91.811,36.393 92.692,33.018 92.53,32.182 84.644,26.693 78.334,25.906 62.459,25.906 55.708,25.243 45.209,26.768 
		37.381,32.41 37.381,36.143 39.513,40.643 38.447,42.891 38.268,43.956 38.388,46.266 38.268,49.694 39.96,53.421 39.162,56.083 
		41.291,58.612 39.028,62.339 38.268,66.328 39.561,68.062 37.381,72.497 41.291,73.253 44.23,71.949 46.671,72.588 49.5,71.515 
		49.5,71.515 53.625,72.56 57.5,71.41 61.417,73.757 62.709,73.018 63.834,73.253 65.69,72.583 67.917,73.757 73.75,71.143 
		76.625,72.45 78.667,71.643 81.417,72.45 83.448,71.224 84.232,71.522 86.662,72.811 89.613,72.188 94,72.811 92.402,67.042 	"/>
	<g>
		<g>
			<g>
				<path fill="#603813" d="M62.463,145.113c-0.18,0.175-0.347,0.12-0.515,0.136c-0.166-0.005-0.329-0.03-0.488-0.066
					c-0.319-0.073-0.624-0.189-0.915-0.331c-0.052,0.115-0.333,0.389-0.633,0.579c-0.309,0.204-0.665,0.388-1.037,0.553
					c-0.749,0.331-1.562,0.591-2.39,0.815c-0.829,0.223-1.678,0.407-2.535,0.568c-0.833,0.138-1.882,0.354-2.772,0.753
					c-1.839,0.761-3.457,2.327-4.131,4.285c-0.346,0.969-0.485,2.008-0.388,3.043c0.104,1.03,0.42,2.086,1.155,2.988
					c0.367,0.444,0.858,0.841,1.447,1.074c0.292,0.117,0.604,0.191,0.915,0.221c0.287,0.026,0.512,0.029,0.77,0.028
					c0.999-0.009,1.987-0.183,2.926-0.499c1.887-0.626,3.53-1.856,4.753-3.354c2.457-3.047,3.387-6.828,3.801-10.441l-1.987-0.512
					c-0.35,3.452-1.22,6.95-3.271,9.56c-1.016,1.291-2.342,2.298-3.851,2.825c-0.751,0.264-1.544,0.412-2.333,0.428
					c-0.196,0.004-0.395,0-0.586-0.014c-0.131-0.008-0.255-0.036-0.375-0.08c-0.238-0.088-0.466-0.253-0.665-0.489
					c-0.823-0.983-0.96-2.756-0.438-4.143c0.507-1.431,1.664-2.556,3.12-3.151c0.363-0.151,0.744-0.274,1.135-0.37
					c0.196-0.048,0.394-0.088,0.596-0.126l0.68-0.125c0.906-0.175,1.812-0.377,2.715-0.628c0.903-0.254,1.806-0.549,2.703-0.966
					c0.449-0.211,0.896-0.451,1.341-0.774c0.222-0.164,0.442-0.347,0.659-0.584c0.107-0.12,0.214-0.252,0.315-0.416
					c0.051-0.082,0.101-0.172,0.147-0.278c0.023-0.055,0.046-0.112,0.067-0.18C62.422,145.349,62.438,145.351,62.463,145.113z"/>
			</g>
		</g>
	</g>
	<g>
		<g>
			<g>
				<path fill="#603813" d="M62.735,144.576l-0.011-0.015l-0.005-0.007l-0.003-0.003l-1.079,0.07l0.066-0.004l0.118-0.01l0.15-0.016
					l0.194-0.024c0.029-0.003,0.155-0.025,0.103-0.015l-0.151,0.03c-0.2,0.046-0.396,0.11-0.59,0.184
					c-0.386,0.149-0.758,0.34-1.116,0.556c0.325,0.85,0.818,1.373,1.316,1.846c0.505,0.462,1.04,0.831,1.584,1.155
					c1.09,0.643,2.216,1.108,3.349,1.504c1.108,0.391,2.336,0.709,3.368,0.968c0.95,0.266,1.816,0.729,2.548,1.361
					c1.47,1.265,2.352,3.221,2.639,5.257c0.146,1.019,0.149,2.067-0.002,3.067c-0.147,0.988-0.478,1.973-0.969,2.596
					c-0.243,0.311-0.497,0.471-0.696,0.512c-0.049,0.018-0.363,0.04-0.573,0.036c-0.231-0.002-0.464-0.02-0.696-0.052
					c-0.93-0.128-1.842-0.497-2.663-1.041c-1.656-1.093-2.93-2.845-3.871-4.763c-1.876-3.892-2.624-8.392-2.982-12.847l-2.597-0.196
					c0.373,4.7,1.095,9.488,3.194,13.963c1.066,2.206,2.541,4.37,4.741,5.877c1.094,0.744,2.368,1.292,3.733,1.495
					c0.341,0.051,0.687,0.081,1.034,0.086c0.174,0.004,0.349,0,0.523-0.008l0.263-0.018l0.348-0.048
					c0.965-0.188,1.705-0.791,2.182-1.388c0.954-1.23,1.303-2.544,1.514-3.828c0.191-1.29,0.177-2.579-0.009-3.85
					c-0.371-2.515-1.495-5.077-3.601-6.835c-1.039-0.872-2.29-1.49-3.578-1.819c-1.151-0.281-2.188-0.564-3.235-0.936
					c-1.033-0.367-2.034-0.8-2.9-1.339c-0.43-0.268-0.826-0.566-1.136-0.879c-0.154-0.156-0.286-0.316-0.381-0.463
					c-0.047-0.073-0.084-0.144-0.108-0.199l-0.024-0.065l-0.003-0.008v-0.001l-0.116,0.027l-0.309,0.059l-0.235,0.034l-0.175,0.02
					C62.356,144.583,60.539,144.667,62.735,144.576z"/>
			</g>
		</g>
	</g>
</g>
</svg>
