<?xml version="1.0" encoding="utf-8"?>
<!-- Generator: Adobe Illustrator 15.1.0, SVG Export Plug-In . SVG Version: 6.00 Build 0)  -->
<!DOCTYPE svg PUBLIC "-//W3C//DTD SVG 1.1//EN" "http://www.w3.org/Graphics/SVG/1.1/DTD/svg11.dtd">
<svg version="1.1" id="Calque_4" xmlns="http://www.w3.org/2000/svg" xmlns:xlink="http://www.w3.org/1999/xlink" x="0px" y="0px"
	 width="800px" height="9430.608px" viewBox="0 0 800 9430.608" enable-background="new 0 0 800 9430.608" xml:space="preserve">
<g>
	<rect y="-0.392" fill="#464541" width="800" height="9431"/>
	<rect y="-0.392" opacity="0.28" fill="#FFFFFF" width="800" height="9431"/>
</g>
<g>
	<polygon fill="#D3D55A" points="-1,-7.428 -131.066,365.608 -1,365.608 	"/>
	<polygon fill="#B8BF57" points="-1,-7.428 131.348,365.608 -1,365.608 	"/>
	<rect x="-23" y="365.608" fill="#464541" width="46" height="86"/>
	<polygon opacity="0.1" fill="#464541" points="-131.066,365.608 50.586,134.067 131.348,365.608 	"/>
</g>
<g>
	<g>
		<rect x="766" y="309.608" fill="#464541" width="59" height="150"/>
		<g>
			<path fill="#D3D55A" d="M803,342.385c-54,0-107.832-60.94-107.832-136.12C695.168,131.094,749,70.158,803,70.158V342.385z"/>
			<path fill="#B8BF57" d="M794,342.385c65,0,107.832-60.94,107.832-136.12C901.832,131.094,859,70.158,794,70.158V342.385z"/>
		</g>
	</g>
	<g opacity="0.1">
		<path fill="#464541" d="M794,342.291v0.094c0,0,3.857-0.022,4.5-0.034c0.629,0.012,4.5,0.034,4.5,0.034v-0.094
			c56-2.538,103.86-62.465,103.86-136.026c0-15.665-2.208-30.707-6.08-44.715l-207.954,55.99
			C697.293,285.863,749,339.88,794,342.291z"/>
	</g>
</g>
<g>
	<g>
		<rect x="138" y="372.608" fill="#464541" width="59" height="150"/>
		<g>
			<path fill="#B8BF57" d="M175,405.245c-54,0-107.832-60.94-107.832-136.12C67.168,193.954,121,133.019,175,133.019V405.245z"/>
			<path fill="#868C4F" d="M166,405.245c65,0,107.832-60.94,107.832-136.12c0-75.171-42.832-136.106-107.832-136.106V405.245z"/>
		</g>
	</g>
	<g opacity="0.1">
		<path fill="#464541" d="M166,405.151v0.094c0,0,3.857-0.022,4.5-0.034c0.628,0.012,4.5,0.034,4.5,0.034v-0.094
			c56-2.538,103.86-62.465,103.86-136.026c0-15.665-2.208-30.706-6.08-44.715L64.826,280.399C69.292,348.723,121,402.74,166,405.151
			z"/>
	</g>
</g>
<g>
	<rect x="631" y="376.608" fill="#464541" width="57" height="32"/>
	<polygon fill="#B8BF57" points="712.822,151.608 752.279,151.608 659.324,-0.873 566.345,151.608 605.807,151.608 527.943,376.608 
		658.99,376.608 790.685,376.608 	"/>
	<polygon fill="#B8BF57" points="659.324,0 566.345,151.608 605.807,151.608 527.943,376.608 658.99,376.608 	"/>
	<polygon fill="#868C4F" points="659.324,0 752.279,151.608 712.822,151.608 790.685,376.608 658.99,376.608 	"/>
	<polygon opacity="0.1" fill="#464541" points="527.943,376.608 712.822,153.357 790.685,376.608 	"/>
</g>
<g>
	<rect x="603" y="641.608" fill="#464541" width="57" height="32"/>
	<polygon fill="#B8BF57" points="684.906,416.608 724.363,416.608 631.408,264.127 538.429,416.608 577.891,416.608 
		500.027,641.608 631.074,641.608 762.77,641.608 	"/>
	<polygon fill="#D3D55A" points="631.408,265 538.429,416.608 577.891,416.608 500.027,641.608 631.074,641.608 	"/>
	<polygon fill="#B8BF57" points="631.408,265 724.363,416.608 684.906,416.608 762.77,641.608 631.074,641.608 	"/>
	<polygon opacity="0.1" fill="#464541" points="500.027,641.608 684.906,418.357 762.77,641.608 	"/>
</g>
<g>
	<rect x="82" y="711.608" fill="#464541" width="57" height="32"/>
	<polygon fill="#B8BF57" points="163.906,486.608 203.364,486.608 110.408,334.127 17.429,486.608 56.89,486.608 -20.973,711.608 
		110.075,711.608 241.769,711.608 	"/>
	<polygon fill="#D3D55A" points="110.408,335 17.429,486.608 56.89,486.608 -20.973,711.608 110.075,711.608 	"/>
	<polygon fill="#B8BF57" points="110.408,335 203.364,486.608 163.906,486.608 241.769,711.608 110.075,711.608 	"/>
	<polygon opacity="0.1" fill="#464541" points="-20.973,711.608 163.906,488.357 241.769,711.608 	"/>
</g>
<g>
	<polygon fill="#B8BF57" points="17,328.384 -112.688,700.608 17,700.608 	"/>
	<polygon fill="#868C4F" points="17,329.251 149.727,700.608 17,700.608 	"/>
	<rect x="-10" y="700.608" fill="#464541" width="54" height="89"/>
	<polygon opacity="0.1" fill="#464541" points="-112.688,700.608 68.971,469.065 149.727,700.608 	"/>
</g>
<g>
	<polygon fill="#D3D55A" points="-1,562.571 -131.066,935.608 -1,935.608 	"/>
	<polygon fill="#B8BF57" points="-1,562.571 131.348,935.608 -1,935.608 	"/>
	<rect x="-23" y="935.608" fill="#464541" width="46" height="86"/>
	<polygon opacity="0.1" fill="#464541" points="-131.066,935.608 50.586,704.067 131.348,935.608 	"/>
</g>
<g>
	<g>
		<rect x="138" y="942.608" fill="#464541" width="59" height="150"/>
		<g>
			<path fill="#B8BF57" d="M175,975.245c-54,0-107.832-60.94-107.832-136.12C67.168,763.954,121,703.019,175,703.019V975.245z"/>
			<path fill="#868C4F" d="M166,975.245c65,0,107.832-60.94,107.832-136.12c0-75.171-42.832-136.106-107.832-136.106V975.245z"/>
		</g>
	</g>
	<g opacity="0.1">
		<path fill="#464541" d="M166,975.151v0.094c0,0,3.857-0.022,4.5-0.034c0.628,0.012,4.5,0.034,4.5,0.034v-0.094
			c56-2.538,103.86-62.465,103.86-136.026c0-15.665-2.208-30.706-6.08-44.715L64.826,850.399C69.292,918.723,121,972.74,166,975.151
			z"/>
	</g>
</g>
<g>
	<rect x="82" y="1281.608" fill="#464541" width="57" height="32"/>
	<polygon fill="#B8BF57" points="163.906,1056.608 203.364,1056.608 110.408,904.127 17.429,1056.608 56.89,1056.608 
		-20.973,1281.608 110.075,1281.608 241.769,1281.608 	"/>
	<polygon fill="#D3D55A" points="110.408,905 17.429,1056.608 56.89,1056.608 -20.973,1281.608 110.075,1281.608 	"/>
	<polygon fill="#B8BF57" points="110.408,905 203.364,1056.608 163.906,1056.608 241.769,1281.608 110.075,1281.608 	"/>
	<polygon opacity="0.1" fill="#464541" points="-20.973,1281.608 163.906,1058.357 241.769,1281.608 	"/>
</g>
<g>
	<polygon fill="#B8BF57" points="17,898.384 -112.688,1270.608 17,1270.608 	"/>
	<polygon fill="#868C4F" points="17,899.251 149.727,1270.608 17,1270.608 	"/>
	<rect x="-10" y="1270.608" fill="#464541" width="54" height="89"/>
	<polygon opacity="0.1" fill="#464541" points="-112.688,1270.608 68.971,1039.065 149.727,1270.608 	"/>
</g>
<g>
	<polygon fill="#D3D55A" points="-1,1132.571 -131.066,1505.608 -1,1505.608 	"/>
	<polygon fill="#B8BF57" points="-1,1132.571 131.348,1505.608 -1,1505.608 	"/>
	<rect x="-23" y="1505.608" fill="#464541" width="46" height="86"/>
	<polygon opacity="0.1" fill="#464541" points="-131.066,1505.608 50.586,1274.067 131.348,1505.608 	"/>
</g>
<g>
	<g>
		<rect x="138" y="1512.608" fill="#464541" width="59" height="150"/>
		<g>
			<path fill="#B8BF57" d="M175,1545.245c-54,0-107.832-60.94-107.832-136.12c0-75.171,53.832-136.106,107.832-136.106V1545.245z"/>
			<path fill="#868C4F" d="M166,1545.245c65,0,107.832-60.94,107.832-136.12c0-75.171-42.832-136.106-107.832-136.106V1545.245z"/>
		</g>
	</g>
	<g opacity="0.1">
		<path fill="#464541" d="M166,1545.151v0.094c0,0,3.857-0.022,4.5-0.034c0.628,0.012,4.5,0.034,4.5,0.034v-0.094
			c56-2.538,103.86-62.465,103.86-136.026c0-15.665-2.208-30.706-6.08-44.715l-207.954,55.989
			C69.292,1488.723,121,1542.74,166,1545.151z"/>
	</g>
</g>
<g>
	<rect x="82" y="1851.608" fill="#464541" width="57" height="32"/>
	<polygon fill="#B8BF57" points="163.906,1626.608 203.364,1626.608 110.408,1474.127 17.429,1626.608 56.89,1626.608 
		-20.973,1851.608 110.075,1851.608 241.769,1851.608 	"/>
	<polygon fill="#D3D55A" points="110.408,1475 17.429,1626.608 56.89,1626.608 -20.973,1851.608 110.075,1851.608 	"/>
	<polygon fill="#B8BF57" points="110.408,1475 203.364,1626.608 163.906,1626.608 241.769,1851.608 110.075,1851.608 	"/>
	<polygon opacity="0.1" fill="#464541" points="-20.973,1851.608 163.906,1628.357 241.769,1851.608 	"/>
</g>
<g>
	<polygon fill="#B8BF57" points="17,1468.384 -112.688,1840.608 17,1840.608 	"/>
	<polygon fill="#868C4F" points="17,1469.251 149.727,1840.608 17,1840.608 	"/>
	<rect x="-10" y="1840.608" fill="#464541" width="54" height="89"/>
	<polygon opacity="0.1" fill="#464541" points="-112.688,1840.608 68.971,1609.065 149.727,1840.608 	"/>
</g>
<g>
	<polygon fill="#D3D55A" points="-1,1702.571 -131.066,2075.608 -1,2075.608 	"/>
	<polygon fill="#B8BF57" points="-1,1702.571 131.348,2075.608 -1,2075.608 	"/>
	<rect x="-23" y="2075.608" fill="#464541" width="46" height="86"/>
	<polygon opacity="0.1" fill="#464541" points="-131.066,2075.608 50.586,1844.067 131.348,2075.608 	"/>
</g>
<g>
	<g>
		<rect x="138" y="2082.608" fill="#464541" width="59" height="150"/>
		<g>
			<path fill="#B8BF57" d="M175,2115.245c-54,0-107.832-60.94-107.832-136.12c0-75.171,53.832-136.106,107.832-136.106V2115.245z"/>
			<path fill="#868C4F" d="M166,2115.245c65,0,107.832-60.94,107.832-136.12c0-75.171-42.832-136.106-107.832-136.106V2115.245z"/>
		</g>
	</g>
	<g opacity="0.1">
		<path fill="#464541" d="M166,2115.151v0.094c0,0,3.857-0.022,4.5-0.034c0.628,0.012,4.5,0.034,4.5,0.034v-0.094
			c56-2.538,103.86-62.465,103.86-136.026c0-15.665-2.208-30.706-6.08-44.715l-207.954,55.989
			C69.292,2058.723,121,2112.74,166,2115.151z"/>
	</g>
</g>
<g>
	<rect x="82" y="2421.608" fill="#464541" width="57" height="32"/>
	<polygon fill="#B8BF57" points="163.906,2196.608 203.364,2196.608 110.408,2044.127 17.429,2196.608 56.89,2196.608 
		-20.973,2421.608 110.075,2421.608 241.769,2421.608 	"/>
	<polygon fill="#D3D55A" points="110.408,2045 17.429,2196.608 56.89,2196.608 -20.973,2421.608 110.075,2421.608 	"/>
	<polygon fill="#B8BF57" points="110.408,2045 203.364,2196.608 163.906,2196.608 241.769,2421.608 110.075,2421.608 	"/>
	<polygon opacity="0.1" fill="#464541" points="-20.973,2421.608 163.906,2198.357 241.769,2421.608 	"/>
</g>
<g>
	<polygon fill="#B8BF57" points="17,2038.384 -112.688,2410.608 17,2410.608 	"/>
	<polygon fill="#868C4F" points="17,2039.251 149.727,2410.608 17,2410.608 	"/>
	<rect x="-10" y="2410.608" fill="#464541" width="54" height="89"/>
	<polygon opacity="0.1" fill="#464541" points="-112.688,2410.608 68.971,2179.065 149.727,2410.608 	"/>
</g>
<g>
	<polygon fill="#D3D55A" points="-1,2298.571 -131.066,2671.608 -1,2671.608 	"/>
	<polygon fill="#B8BF57" points="-1,2298.571 131.348,2671.608 -1,2671.608 	"/>
	<rect x="-23" y="2671.608" fill="#464541" width="46" height="86"/>
	<polygon opacity="0.1" fill="#464541" points="-131.066,2671.608 50.586,2440.067 131.348,2671.608 	"/>
</g>
<g>
	<g>
		<rect x="138" y="2678.608" fill="#464541" width="59" height="150"/>
		<g>
			<path fill="#B8BF57" d="M175,2711.245c-54,0-107.832-60.94-107.832-136.12c0-75.171,53.832-136.106,107.832-136.106V2711.245z"/>
			<path fill="#868C4F" d="M166,2711.245c65,0,107.832-60.94,107.832-136.12c0-75.171-42.832-136.106-107.832-136.106V2711.245z"/>
		</g>
	</g>
	<g opacity="0.1">
		<path fill="#464541" d="M166,2711.151v0.094c0,0,3.857-0.022,4.5-0.034c0.628,0.012,4.5,0.034,4.5,0.034v-0.094
			c56-2.538,103.86-62.465,103.86-136.026c0-15.665-2.208-30.706-6.08-44.715l-207.954,55.989
			C69.292,2654.723,121,2708.74,166,2711.151z"/>
	</g>
</g>
<g>
	<rect x="82" y="3017.608" fill="#464541" width="57" height="32"/>
	<polygon fill="#B8BF57" points="163.906,2792.608 203.364,2792.608 110.408,2640.127 17.429,2792.608 56.89,2792.608 
		-20.973,3017.608 110.075,3017.608 241.769,3017.608 	"/>
	<polygon fill="#D3D55A" points="110.408,2641 17.429,2792.608 56.89,2792.608 -20.973,3017.608 110.075,3017.608 	"/>
	<polygon fill="#B8BF57" points="110.408,2641 203.364,2792.608 163.906,2792.608 241.769,3017.608 110.075,3017.608 	"/>
	<polygon opacity="0.1" fill="#464541" points="-20.973,3017.608 163.906,2794.357 241.769,3017.608 	"/>
</g>
<g>
	<polygon fill="#B8BF57" points="17,2634.384 -112.688,3006.608 17,3006.608 	"/>
	<polygon fill="#868C4F" points="17,2635.251 149.727,3006.608 17,3006.608 	"/>
	<rect x="-10" y="3006.608" fill="#464541" width="54" height="89"/>
	<polygon opacity="0.1" fill="#464541" points="-112.688,3006.608 68.971,2775.065 149.727,3006.608 	"/>
</g>
<g>
	<polygon fill="#D3D55A" points="-1,2868.571 -131.066,3241.608 -1,3241.608 	"/>
	<polygon fill="#B8BF57" points="-1,2868.571 131.348,3241.608 -1,3241.608 	"/>
	<rect x="-23" y="3241.608" fill="#464541" width="46" height="86"/>
	<polygon opacity="0.1" fill="#464541" points="-131.066,3241.608 50.586,3010.067 131.348,3241.608 	"/>
</g>
<g>
	<g>
		<rect x="138" y="3248.608" fill="#464541" width="59" height="150"/>
		<g>
			<path fill="#B8BF57" d="M175,3281.245c-54,0-107.832-60.94-107.832-136.12c0-75.171,53.832-136.106,107.832-136.106V3281.245z"/>
			<path fill="#868C4F" d="M166,3281.245c65,0,107.832-60.94,107.832-136.12c0-75.171-42.832-136.106-107.832-136.106V3281.245z"/>
		</g>
	</g>
	<g opacity="0.1">
		<path fill="#464541" d="M166,3281.151v0.094c0,0,3.857-0.022,4.5-0.034c0.628,0.012,4.5,0.034,4.5,0.034v-0.094
			c56-2.538,103.86-62.465,103.86-136.026c0-15.665-2.208-30.706-6.08-44.715l-207.954,55.989
			C69.292,3224.723,121,3278.74,166,3281.151z"/>
	</g>
</g>
<g>
	<rect x="82" y="3587.608" fill="#464541" width="57" height="32"/>
	<polygon fill="#B8BF57" points="163.906,3362.608 203.364,3362.608 110.408,3210.127 17.429,3362.608 56.89,3362.608 
		-20.973,3587.608 110.075,3587.608 241.769,3587.608 	"/>
	<polygon fill="#D3D55A" points="110.408,3211 17.429,3362.608 56.89,3362.608 -20.973,3587.608 110.075,3587.608 	"/>
	<polygon fill="#B8BF57" points="110.408,3211 203.364,3362.608 163.906,3362.608 241.769,3587.608 110.075,3587.608 	"/>
	<polygon opacity="0.1" fill="#464541" points="-20.973,3587.608 163.906,3364.357 241.769,3587.608 	"/>
</g>
<g>
	<polygon fill="#B8BF57" points="17,3204.384 -112.688,3576.608 17,3576.608 	"/>
	<polygon fill="#868C4F" points="17,3205.251 149.727,3576.608 17,3576.608 	"/>
	<rect x="-10" y="3576.608" fill="#464541" width="54" height="89"/>
	<polygon opacity="0.1" fill="#464541" points="-112.688,3576.608 68.971,3345.065 149.727,3576.608 	"/>
</g>
<g>
	<polygon fill="#D3D55A" points="-1,3438.571 -131.066,3811.608 -1,3811.608 	"/>
	<polygon fill="#B8BF57" points="-1,3438.571 131.348,3811.608 -1,3811.608 	"/>
	<rect x="-23" y="3811.608" fill="#464541" width="46" height="86"/>
	<polygon opacity="0.1" fill="#464541" points="-131.066,3811.608 50.586,3580.067 131.348,3811.608 	"/>
</g>
<g>
	<g>
		<rect x="138" y="3818.608" fill="#464541" width="59" height="150"/>
		<g>
			<path fill="#B8BF57" d="M175,3851.245c-54,0-107.832-60.94-107.832-136.12c0-75.171,53.832-136.106,107.832-136.106V3851.245z"/>
			<path fill="#868C4F" d="M166,3851.245c65,0,107.832-60.94,107.832-136.12c0-75.171-42.832-136.106-107.832-136.106V3851.245z"/>
		</g>
	</g>
	<g opacity="0.1">
		<path fill="#464541" d="M166,3851.151v0.094c0,0,3.857-0.022,4.5-0.034c0.628,0.012,4.5,0.034,4.5,0.034v-0.094
			c56-2.538,103.86-62.465,103.86-136.026c0-15.665-2.208-30.706-6.08-44.715l-207.954,55.989
			C69.292,3794.723,121,3848.74,166,3851.151z"/>
	</g>
</g>
<g>
	<rect x="82" y="4157.608" fill="#464541" width="57" height="32"/>
	<polygon fill="#B8BF57" points="163.906,3932.608 203.364,3932.608 110.408,3780.127 17.429,3932.608 56.89,3932.608 
		-20.973,4157.608 110.075,4157.608 241.769,4157.608 	"/>
	<polygon fill="#D3D55A" points="110.408,3781 17.429,3932.608 56.89,3932.608 -20.973,4157.608 110.075,4157.608 	"/>
	<polygon fill="#B8BF57" points="110.408,3781 203.364,3932.608 163.906,3932.608 241.769,4157.608 110.075,4157.608 	"/>
	<polygon opacity="0.1" fill="#464541" points="-20.973,4157.608 163.906,3934.357 241.769,4157.608 	"/>
</g>
<g>
	<polygon fill="#B8BF57" points="17,3774.384 -112.688,4146.608 17,4146.608 	"/>
	<polygon fill="#868C4F" points="17,3775.251 149.727,4146.608 17,4146.608 	"/>
	<rect x="-10" y="4146.608" fill="#464541" width="54" height="89"/>
	<polygon opacity="0.1" fill="#464541" points="-112.688,4146.608 68.971,3915.065 149.727,4146.608 	"/>
</g>
<g>
	<polygon fill="#D3D55A" points="-1,4008.571 -131.066,4381.608 -1,4381.608 	"/>
	<polygon fill="#B8BF57" points="-1,4008.571 131.348,4381.608 -1,4381.608 	"/>
	<rect x="-23" y="4381.608" fill="#464541" width="46" height="86"/>
	<polygon opacity="0.1" fill="#464541" points="-131.066,4381.608 50.586,4150.067 131.348,4381.608 	"/>
</g>
<g>
	<g>
		<rect x="138" y="4388.608" fill="#464541" width="59" height="150"/>
		<g>
			<path fill="#B8BF57" d="M175,4421.245c-54,0-107.832-60.94-107.832-136.12c0-75.171,53.832-136.106,107.832-136.106V4421.245z"/>
			<path fill="#868C4F" d="M166,4421.245c65,0,107.832-60.94,107.832-136.12c0-75.171-42.832-136.106-107.832-136.106V4421.245z"/>
		</g>
	</g>
	<g opacity="0.1">
		<path fill="#464541" d="M166,4421.151v0.094c0,0,3.857-0.022,4.5-0.034c0.628,0.012,4.5,0.034,4.5,0.034v-0.094
			c56-2.538,103.86-62.465,103.86-136.026c0-15.665-2.208-30.706-6.08-44.715l-207.954,55.989
			C69.292,4364.723,121,4418.74,166,4421.151z"/>
	</g>
</g>
<g>
	<rect x="82" y="4727.608" fill="#464541" width="57" height="32"/>
	<polygon fill="#B8BF57" points="163.906,4502.608 203.364,4502.608 110.408,4350.127 17.429,4502.608 56.89,4502.608 
		-20.973,4727.608 110.075,4727.608 241.769,4727.608 	"/>
	<polygon fill="#D3D55A" points="110.408,4351 17.429,4502.608 56.89,4502.608 -20.973,4727.608 110.075,4727.608 	"/>
	<polygon fill="#B8BF57" points="110.408,4351 203.364,4502.608 163.906,4502.608 241.769,4727.608 110.075,4727.608 	"/>
	<polygon opacity="0.1" fill="#464541" points="-20.973,4727.608 163.906,4504.357 241.769,4727.608 	"/>
</g>
<g>
	<polygon fill="#B8BF57" points="17,4344.384 -112.688,4716.608 17,4716.608 	"/>
	<polygon fill="#868C4F" points="17,4345.251 149.727,4716.608 17,4716.608 	"/>
	<rect x="-10" y="4716.608" fill="#464541" width="54" height="89"/>
	<polygon opacity="0.1" fill="#464541" points="-112.688,4716.608 68.971,4485.065 149.727,4716.608 	"/>
</g>
<g>
	<polygon fill="#D3D55A" points="-1,4617.571 -131.066,4990.608 -1,4990.608 	"/>
	<polygon fill="#B8BF57" points="-1,4617.571 131.348,4990.608 -1,4990.608 	"/>
	<rect x="-23" y="4990.608" fill="#464541" width="46" height="86"/>
	<polygon opacity="0.1" fill="#464541" points="-131.066,4990.608 50.586,4759.067 131.348,4990.608 	"/>
</g>
<g>
	<g>
		<rect x="138" y="4997.608" fill="#464541" width="59" height="150"/>
		<g>
			<path fill="#B8BF57" d="M175,5030.245c-54,0-107.832-60.94-107.832-136.12c0-75.171,53.832-136.106,107.832-136.106V5030.245z"/>
			<path fill="#868C4F" d="M166,5030.245c65,0,107.832-60.94,107.832-136.12c0-75.171-42.832-136.106-107.832-136.106V5030.245z"/>
		</g>
	</g>
	<g opacity="0.1">
		<path fill="#464541" d="M166,5030.151v0.094c0,0,3.857-0.022,4.5-0.034c0.628,0.012,4.5,0.034,4.5,0.034v-0.094
			c56-2.538,103.86-62.465,103.86-136.026c0-15.665-2.208-30.706-6.08-44.715l-207.954,55.989
			C69.292,4973.723,121,5027.74,166,5030.151z"/>
	</g>
</g>
<g>
	<rect x="82" y="5336.608" fill="#464541" width="57" height="32"/>
	<polygon fill="#B8BF57" points="163.906,5111.608 203.364,5111.608 110.408,4959.127 17.429,5111.608 56.89,5111.608 
		-20.973,5336.608 110.075,5336.608 241.769,5336.608 	"/>
	<polygon fill="#D3D55A" points="110.408,4960 17.429,5111.608 56.89,5111.608 -20.973,5336.608 110.075,5336.608 	"/>
	<polygon fill="#B8BF57" points="110.408,4960 203.364,5111.608 163.906,5111.608 241.769,5336.608 110.075,5336.608 	"/>
	<polygon opacity="0.1" fill="#464541" points="-20.973,5336.608 163.906,5113.357 241.769,5336.608 	"/>
</g>
<g>
	<polygon fill="#B8BF57" points="17,4953.384 -112.688,5325.608 17,5325.608 	"/>
	<polygon fill="#868C4F" points="17,4954.251 149.727,5325.608 17,5325.608 	"/>
	<rect x="-10" y="5325.608" fill="#464541" width="54" height="89"/>
	<polygon opacity="0.1" fill="#464541" points="-112.688,5325.608 68.971,5094.065 149.727,5325.608 	"/>
</g>
<g>
	<polygon fill="#D3D55A" points="-1,5187.571 -131.066,5560.608 -1,5560.608 	"/>
	<polygon fill="#B8BF57" points="-1,5187.571 131.348,5560.608 -1,5560.608 	"/>
	<rect x="-23" y="5560.608" fill="#464541" width="46" height="86"/>
	<polygon opacity="0.1" fill="#464541" points="-131.066,5560.608 50.586,5329.067 131.348,5560.608 	"/>
</g>
<g>
	<g>
		<rect x="138" y="5567.608" fill="#464541" width="59" height="150"/>
		<g>
			<path fill="#B8BF57" d="M175,5600.245c-54,0-107.832-60.94-107.832-136.12c0-75.171,53.832-136.106,107.832-136.106V5600.245z"/>
			<path fill="#868C4F" d="M166,5600.245c65,0,107.832-60.94,107.832-136.12c0-75.171-42.832-136.106-107.832-136.106V5600.245z"/>
		</g>
	</g>
	<g opacity="0.1">
		<path fill="#464541" d="M166,5600.151v0.094c0,0,3.857-0.022,4.5-0.034c0.628,0.012,4.5,0.034,4.5,0.034v-0.094
			c56-2.538,103.86-62.465,103.86-136.026c0-15.665-2.208-30.706-6.08-44.715l-207.954,55.989
			C69.292,5543.723,121,5597.74,166,5600.151z"/>
	</g>
</g>
<g>
	<rect x="82" y="5906.608" fill="#464541" width="57" height="32"/>
	<polygon fill="#B8BF57" points="163.906,5681.608 203.364,5681.608 110.408,5529.127 17.429,5681.608 56.89,5681.608 
		-20.973,5906.608 110.075,5906.608 241.769,5906.608 	"/>
	<polygon fill="#D3D55A" points="110.408,5530 17.429,5681.608 56.89,5681.608 -20.973,5906.608 110.075,5906.608 	"/>
	<polygon fill="#B8BF57" points="110.408,5530 203.364,5681.608 163.906,5681.608 241.769,5906.608 110.075,5906.608 	"/>
	<polygon opacity="0.1" fill="#464541" points="-20.973,5906.608 163.906,5683.357 241.769,5906.608 	"/>
</g>
<g>
	<polygon fill="#B8BF57" points="17,5523.384 -112.688,5895.608 17,5895.608 	"/>
	<polygon fill="#868C4F" points="17,5524.251 149.727,5895.608 17,5895.608 	"/>
	<rect x="-10" y="5895.608" fill="#464541" width="54" height="89"/>
	<polygon opacity="0.1" fill="#464541" points="-112.688,5895.608 68.971,5664.065 149.727,5895.608 	"/>
</g>
<g>
	<polygon fill="#D3D55A" points="-1,5757.571 -131.066,6130.608 -1,6130.608 	"/>
	<polygon fill="#B8BF57" points="-1,5757.571 131.348,6130.608 -1,6130.608 	"/>
	<rect x="-23" y="6130.608" fill="#464541" width="46" height="86"/>
	<polygon opacity="0.1" fill="#464541" points="-131.066,6130.608 50.586,5899.067 131.348,6130.608 	"/>
</g>
<g>
	<g>
		<rect x="138" y="6137.608" fill="#464541" width="59" height="150"/>
		<g>
			<path fill="#B8BF57" d="M175,6170.245c-54,0-107.832-60.94-107.832-136.12c0-75.171,53.832-136.106,107.832-136.106V6170.245z"/>
			<path fill="#868C4F" d="M166,6170.245c65,0,107.832-60.94,107.832-136.12c0-75.171-42.832-136.106-107.832-136.106V6170.245z"/>
		</g>
	</g>
	<g opacity="0.1">
		<path fill="#464541" d="M166,6170.151v0.094c0,0,3.857-0.022,4.5-0.034c0.628,0.012,4.5,0.034,4.5,0.034v-0.094
			c56-2.538,103.86-62.465,103.86-136.026c0-15.665-2.208-30.706-6.08-44.715l-207.954,55.989
			C69.292,6113.723,121,6167.74,166,6170.151z"/>
	</g>
</g>
<g>
	<rect x="82" y="6476.608" fill="#464541" width="57" height="32"/>
	<polygon fill="#B8BF57" points="163.906,6251.608 203.364,6251.608 110.408,6099.127 17.429,6251.608 56.89,6251.608 
		-20.973,6476.608 110.075,6476.608 241.769,6476.608 	"/>
	<polygon fill="#D3D55A" points="110.408,6100 17.429,6251.608 56.89,6251.608 -20.973,6476.608 110.075,6476.608 	"/>
	<polygon fill="#B8BF57" points="110.408,6100 203.364,6251.608 163.906,6251.608 241.769,6476.608 110.075,6476.608 	"/>
	<polygon opacity="0.1" fill="#464541" points="-20.973,6476.608 163.906,6253.357 241.769,6476.608 	"/>
</g>
<g>
	<polygon fill="#B8BF57" points="17,6093.384 -112.688,6465.608 17,6465.608 	"/>
	<polygon fill="#868C4F" points="17,6094.251 149.727,6465.608 17,6465.608 	"/>
	<rect x="-10" y="6465.608" fill="#464541" width="54" height="89"/>
	<polygon opacity="0.1" fill="#464541" points="-112.688,6465.608 68.971,6234.065 149.727,6465.608 	"/>
</g>
<g>
	<polygon fill="#D3D55A" points="-1,6327.571 -131.066,6700.608 -1,6700.608 	"/>
	<polygon fill="#B8BF57" points="-1,6327.571 131.348,6700.608 -1,6700.608 	"/>
	<rect x="-23" y="6700.608" fill="#464541" width="46" height="86"/>
	<polygon opacity="0.1" fill="#464541" points="-131.066,6700.608 50.586,6469.067 131.348,6700.608 	"/>
</g>
<g>
	<g>
		<rect x="138" y="6707.608" fill="#464541" width="59" height="150"/>
		<g>
			<path fill="#B8BF57" d="M175,6740.245c-54,0-107.832-60.94-107.832-136.12c0-75.171,53.832-136.106,107.832-136.106V6740.245z"/>
			<path fill="#868C4F" d="M166,6740.245c65,0,107.832-60.94,107.832-136.12c0-75.171-42.832-136.106-107.832-136.106V6740.245z"/>
		</g>
	</g>
	<g opacity="0.1">
		<path fill="#464541" d="M166,6740.151v0.094c0,0,3.857-0.022,4.5-0.034c0.628,0.012,4.5,0.034,4.5,0.034v-0.094
			c56-2.538,103.86-62.465,103.86-136.026c0-15.665-2.208-30.706-6.08-44.715l-207.954,55.989
			C69.292,6683.723,121,6737.74,166,6740.151z"/>
	</g>
</g>
<g>
	<rect x="82" y="7046.608" fill="#464541" width="57" height="32"/>
	<polygon fill="#B8BF57" points="163.906,6821.608 203.364,6821.608 110.408,6669.127 17.429,6821.608 56.89,6821.608 
		-20.973,7046.608 110.075,7046.608 241.769,7046.608 	"/>
	<polygon fill="#D3D55A" points="110.408,6670 17.429,6821.608 56.89,6821.608 -20.973,7046.608 110.075,7046.608 	"/>
	<polygon fill="#B8BF57" points="110.408,6670 203.364,6821.608 163.906,6821.608 241.769,7046.608 110.075,7046.608 	"/>
	<polygon opacity="0.1" fill="#464541" points="-20.973,7046.608 163.906,6823.357 241.769,7046.608 	"/>
</g>
<g>
	<polygon fill="#B8BF57" points="17,6663.384 -112.688,7035.608 17,7035.608 	"/>
	<polygon fill="#868C4F" points="17,6664.251 149.727,7035.608 17,7035.608 	"/>
	<rect x="-10" y="7035.608" fill="#464541" width="54" height="89"/>
	<polygon opacity="0.1" fill="#464541" points="-112.688,7035.608 68.971,6804.065 149.727,7035.608 	"/>
</g>
<g>
	<polygon fill="#D3D55A" points="-1,6923.571 -131.066,7296.608 -1,7296.608 	"/>
	<polygon fill="#B8BF57" points="-1,6923.571 131.348,7296.608 -1,7296.608 	"/>
	<rect x="-23" y="7296.608" fill="#464541" width="46" height="86"/>
	<polygon opacity="0.1" fill="#464541" points="-131.066,7296.608 50.586,7065.067 131.348,7296.608 	"/>
</g>
<g>
	<g>
		<rect x="138" y="7303.608" fill="#464541" width="59" height="150"/>
		<g>
			<path fill="#B8BF57" d="M175,7336.245c-54,0-107.832-60.94-107.832-136.12c0-75.171,53.832-136.106,107.832-136.106V7336.245z"/>
			<path fill="#868C4F" d="M166,7336.245c65,0,107.832-60.94,107.832-136.12c0-75.171-42.832-136.106-107.832-136.106V7336.245z"/>
		</g>
	</g>
	<g opacity="0.1">
		<path fill="#464541" d="M166,7336.151v0.094c0,0,3.857-0.022,4.5-0.034c0.628,0.012,4.5,0.034,4.5,0.034v-0.094
			c56-2.538,103.86-62.465,103.86-136.026c0-15.665-2.208-30.706-6.08-44.715l-207.954,55.989
			C69.292,7279.723,121,7333.74,166,7336.151z"/>
	</g>
</g>
<g>
	<rect x="82" y="7642.608" fill="#464541" width="57" height="32"/>
	<polygon fill="#B8BF57" points="163.906,7417.608 203.364,7417.608 110.408,7265.127 17.429,7417.608 56.89,7417.608 
		-20.973,7642.608 110.075,7642.608 241.769,7642.608 	"/>
	<polygon fill="#D3D55A" points="110.408,7266 17.429,7417.608 56.89,7417.608 -20.973,7642.608 110.075,7642.608 	"/>
	<polygon fill="#B8BF57" points="110.408,7266 203.364,7417.608 163.906,7417.608 241.769,7642.608 110.075,7642.608 	"/>
	<polygon opacity="0.1" fill="#464541" points="-20.973,7642.608 163.906,7419.357 241.769,7642.608 	"/>
</g>
<g>
	<polygon fill="#B8BF57" points="17,7259.384 -112.688,7631.608 17,7631.608 	"/>
	<polygon fill="#868C4F" points="17,7260.251 149.727,7631.608 17,7631.608 	"/>
	<rect x="-10" y="7631.608" fill="#464541" width="54" height="89"/>
	<polygon opacity="0.1" fill="#464541" points="-112.688,7631.608 68.971,7400.065 149.727,7631.608 	"/>
</g>
<g>
	<polygon fill="#D3D55A" points="-1,7493.571 -131.066,7866.608 -1,7866.608 	"/>
	<polygon fill="#B8BF57" points="-1,7493.571 131.348,7866.608 -1,7866.608 	"/>
	<rect x="-23" y="7866.608" fill="#464541" width="46" height="86"/>
	<polygon opacity="0.1" fill="#464541" points="-131.066,7866.608 50.586,7635.067 131.348,7866.608 	"/>
</g>
<g>
	<g>
		<rect x="138" y="7873.608" fill="#464541" width="59" height="150"/>
		<g>
			<path fill="#B8BF57" d="M175,7906.245c-54,0-107.832-60.94-107.832-136.12c0-75.171,53.832-136.106,107.832-136.106V7906.245z"/>
			<path fill="#868C4F" d="M166,7906.245c65,0,107.832-60.94,107.832-136.12c0-75.171-42.832-136.106-107.832-136.106V7906.245z"/>
		</g>
	</g>
	<g opacity="0.1">
		<path fill="#464541" d="M166,7906.151v0.094c0,0,3.857-0.022,4.5-0.034c0.628,0.012,4.5,0.034,4.5,0.034v-0.094
			c56-2.538,103.86-62.465,103.86-136.026c0-15.665-2.208-30.706-6.08-44.715l-207.954,55.989
			C69.292,7849.723,121,7903.74,166,7906.151z"/>
	</g>
</g>
<g>
	<rect x="82" y="8212.608" fill="#464541" width="57" height="32"/>
	<polygon fill="#B8BF57" points="163.906,7987.608 203.364,7987.608 110.408,7835.127 17.429,7987.608 56.89,7987.608 
		-20.973,8212.608 110.075,8212.608 241.769,8212.608 	"/>
	<polygon fill="#D3D55A" points="110.408,7836 17.429,7987.608 56.89,7987.608 -20.973,8212.608 110.075,8212.608 	"/>
	<polygon fill="#B8BF57" points="110.408,7836 203.364,7987.608 163.906,7987.608 241.769,8212.608 110.075,8212.608 	"/>
	<polygon opacity="0.1" fill="#464541" points="-20.973,8212.608 163.906,7989.357 241.769,8212.608 	"/>
</g>
<g>
	<polygon fill="#B8BF57" points="17,7829.384 -112.688,8201.608 17,8201.608 	"/>
	<polygon fill="#868C4F" points="17,7830.251 149.727,8201.608 17,8201.608 	"/>
	<rect x="-10" y="8201.608" fill="#464541" width="54" height="89"/>
	<polygon opacity="0.1" fill="#464541" points="-112.688,8201.608 68.971,7970.065 149.727,8201.608 	"/>
</g>
<g>
	<polygon fill="#D3D55A" points="-1,8063.571 -131.066,8436.608 -1,8436.608 	"/>
	<polygon fill="#B8BF57" points="-1,8063.571 131.348,8436.608 -1,8436.608 	"/>
	<rect x="-23" y="8436.608" fill="#464541" width="46" height="86"/>
	<polygon opacity="0.1" fill="#464541" points="-131.066,8436.608 50.586,8205.067 131.348,8436.608 	"/>
</g>
<g>
	<g>
		<rect x="138" y="8443.608" fill="#464541" width="59" height="150"/>
		<g>
			<path fill="#B8BF57" d="M175,8476.245c-54,0-107.832-60.94-107.832-136.12c0-75.171,53.832-136.106,107.832-136.106V8476.245z"/>
			<path fill="#868C4F" d="M166,8476.245c65,0,107.832-60.94,107.832-136.12c0-75.171-42.832-136.106-107.832-136.106V8476.245z"/>
		</g>
	</g>
	<g opacity="0.1">
		<path fill="#464541" d="M166,8476.151v0.094c0,0,3.857-0.022,4.5-0.034c0.628,0.012,4.5,0.034,4.5,0.034v-0.094
			c56-2.538,103.86-62.465,103.86-136.026c0-15.665-2.208-30.706-6.08-44.715l-207.954,55.989
			C69.292,8419.723,121,8473.74,166,8476.151z"/>
	</g>
</g>
<g>
	<rect x="82" y="8782.608" fill="#464541" width="57" height="32"/>
	<polygon fill="#B8BF57" points="163.906,8557.608 203.364,8557.608 110.408,8405.127 17.429,8557.608 56.89,8557.608 
		-20.973,8782.608 110.075,8782.608 241.769,8782.608 	"/>
	<polygon fill="#D3D55A" points="110.408,8406 17.429,8557.608 56.89,8557.608 -20.973,8782.608 110.075,8782.608 	"/>
	<polygon fill="#B8BF57" points="110.408,8406 203.364,8557.608 163.906,8557.608 241.769,8782.608 110.075,8782.608 	"/>
	<polygon opacity="0.1" fill="#464541" points="-20.973,8782.608 163.906,8559.357 241.769,8782.608 	"/>
</g>
<g>
	<polygon fill="#B8BF57" points="17,8399.384 -112.688,8771.608 17,8771.608 	"/>
	<polygon fill="#868C4F" points="17,8400.251 149.727,8771.608 17,8771.608 	"/>
	<rect x="-10" y="8771.608" fill="#464541" width="54" height="89"/>
	<polygon opacity="0.1" fill="#464541" points="-112.688,8771.608 68.971,8540.065 149.727,8771.608 	"/>
</g>
<g>
	<polygon fill="#D3D55A" points="-1,8633.571 -131.066,9006.608 -1,9006.608 	"/>
	<polygon fill="#B8BF57" points="-1,8633.571 131.348,9006.608 -1,9006.608 	"/>
	<rect x="-23" y="9006.608" fill="#464541" width="46" height="86"/>
	<polygon opacity="0.1" fill="#464541" points="-131.066,9006.608 50.586,8775.067 131.348,9006.608 	"/>
</g>
<g>
	<g>
		<rect x="138" y="9013.608" fill="#464541" width="59" height="150"/>
		<g>
			<path fill="#B8BF57" d="M175,9046.245c-54,0-107.832-60.941-107.832-136.121c0-75.17,53.832-136.105,107.832-136.105V9046.245z"
				/>
			<path fill="#868C4F" d="M166,9046.245c65,0,107.832-60.941,107.832-136.121c0-75.17-42.832-136.105-107.832-136.105V9046.245z"/>
		</g>
	</g>
	<g opacity="0.1">
		<path fill="#464541" d="M166,9046.151v0.094c0,0,3.857-0.023,4.5-0.035c0.628,0.012,4.5,0.035,4.5,0.035v-0.094
			c56-2.539,103.86-62.465,103.86-136.027c0-15.664-2.208-30.705-6.08-44.714l-207.954,55.989
			C69.292,8989.722,121,9043.741,166,9046.151z"/>
	</g>
</g>
<g>
	<rect x="82" y="9352.608" fill="#464541" width="57" height="32"/>
	<polygon fill="#B8BF57" points="163.906,9127.608 203.364,9127.608 110.408,8975.128 17.429,9127.608 56.89,9127.608 
		-20.973,9352.608 110.075,9352.608 241.769,9352.608 	"/>
	<polygon fill="#D3D55A" points="110.408,8975.999 17.429,9127.608 56.89,9127.608 -20.973,9352.608 110.075,9352.608 	"/>
	<polygon fill="#B8BF57" points="110.408,8975.999 203.364,9127.608 163.906,9127.608 241.769,9352.608 110.075,9352.608 	"/>
	<polygon opacity="0.1" fill="#464541" points="-20.973,9352.608 163.906,9129.358 241.769,9352.608 	"/>
</g>
<g>
	<polygon fill="#B8BF57" points="17,8969.384 -112.688,9341.608 17,9341.608 	"/>
	<polygon fill="#868C4F" points="17,8970.251 149.727,9341.608 17,9341.608 	"/>
	<rect x="-10" y="9341.608" fill="#464541" width="54" height="89"/>
	<polygon opacity="0.1" fill="#464541" points="-112.688,9341.608 68.971,9110.065 149.727,9341.608 	"/>
</g>
<g>
	<polygon fill="#B8BF57" points="787,222.384 657.312,594.608 787,594.608 	"/>
	<polygon fill="#868C4F" points="787,223.251 919.727,594.608 787,594.608 	"/>
	<rect x="760" y="594.608" fill="#464541" width="54" height="89"/>
	<polygon opacity="0.1" fill="#464541" points="657.312,594.608 838.971,363.066 919.727,594.608 	"/>
</g>
<g>
	<g>
		<rect x="766" y="787.608" fill="#464541" width="59" height="150"/>
		<g>
			<path fill="#D3D55A" d="M803,820.385c-54,0-107.832-60.94-107.832-136.12c0-75.171,53.832-136.107,107.832-136.107V820.385z"/>
			<path fill="#B8BF57" d="M794,820.385c65,0,107.832-60.94,107.832-136.12c0-75.171-42.832-136.107-107.832-136.107V820.385z"/>
		</g>
	</g>
	<g opacity="0.1">
		<path fill="#464541" d="M794,820.291v0.094c0,0,3.857-0.022,4.5-0.034c0.629,0.012,4.5,0.034,4.5,0.034v-0.094
			c56-2.538,103.86-62.465,103.86-136.026c0-15.665-2.208-30.707-6.08-44.715l-207.954,55.99
			C697.293,763.863,749,817.88,794,820.291z"/>
	</g>
</g>
<g>
	<rect x="631" y="854.608" fill="#464541" width="57" height="32"/>
	<polygon fill="#B8BF57" points="712.822,629.608 752.279,629.608 659.324,477.127 566.345,629.608 605.807,629.608 
		527.943,854.608 658.99,854.608 790.685,854.608 	"/>
	<polygon fill="#B8BF57" points="659.324,478 566.345,629.608 605.807,629.608 527.943,854.608 658.99,854.608 	"/>
	<polygon fill="#868C4F" points="659.324,478 752.279,629.608 712.822,629.608 790.685,854.608 658.99,854.608 	"/>
	<polygon opacity="0.1" fill="#464541" points="527.943,854.608 712.822,631.357 790.685,854.608 	"/>
</g>
<g>
	<rect x="603" y="1119.608" fill="#464541" width="57" height="32"/>
	<polygon fill="#B8BF57" points="684.906,894.608 724.363,894.608 631.408,742.127 538.429,894.608 577.891,894.608 
		500.027,1119.608 631.074,1119.608 762.77,1119.608 	"/>
	<polygon fill="#D3D55A" points="631.408,743 538.429,894.608 577.891,894.608 500.027,1119.608 631.074,1119.608 	"/>
	<polygon fill="#B8BF57" points="631.408,743 724.363,894.608 684.906,894.608 762.77,1119.608 631.074,1119.608 	"/>
	<polygon opacity="0.1" fill="#464541" points="500.027,1119.608 684.906,896.357 762.77,1119.608 	"/>
</g>
<g>
	<polygon fill="#B8BF57" points="787,700.384 657.312,1072.608 787,1072.608 	"/>
	<polygon fill="#868C4F" points="787,701.251 919.727,1072.608 787,1072.608 	"/>
	<rect x="760" y="1072.608" fill="#464541" width="54" height="89"/>
	<polygon opacity="0.1" fill="#464541" points="657.312,1072.608 838.971,841.066 919.727,1072.608 	"/>
</g>
<g>
	<g>
		<rect x="766" y="1265.608" fill="#464541" width="59" height="150"/>
		<g>
			<path fill="#D3D55A" d="M803,1298.385c-54,0-107.832-60.94-107.832-136.12c0-75.171,53.832-136.107,107.832-136.107V1298.385z"/>
			<path fill="#B8BF57" d="M794,1298.385c65,0,107.832-60.94,107.832-136.12c0-75.171-42.832-136.107-107.832-136.107V1298.385z"/>
		</g>
	</g>
	<g opacity="0.1">
		<path fill="#464541" d="M794,1298.291v0.094c0,0,3.857-0.022,4.5-0.034c0.629,0.012,4.5,0.034,4.5,0.034v-0.094
			c56-2.538,103.86-62.465,103.86-136.026c0-15.664-2.208-30.706-6.08-44.715l-207.954,55.99
			C697.293,1241.862,749,1295.88,794,1298.291z"/>
	</g>
</g>
<g>
	<rect x="631" y="1332.608" fill="#464541" width="57" height="32"/>
	<polygon fill="#B8BF57" points="712.822,1107.608 752.279,1107.608 659.324,955.127 566.345,1107.608 605.807,1107.608 
		527.943,1332.608 658.99,1332.608 790.685,1332.608 	"/>
	<polygon fill="#B8BF57" points="659.324,956 566.345,1107.608 605.807,1107.608 527.943,1332.608 658.99,1332.608 	"/>
	<polygon fill="#868C4F" points="659.324,956 752.279,1107.608 712.822,1107.608 790.685,1332.608 658.99,1332.608 	"/>
	<polygon opacity="0.1" fill="#464541" points="527.943,1332.608 712.822,1109.357 790.685,1332.608 	"/>
</g>
<g>
	<rect x="603" y="1597.608" fill="#464541" width="57" height="32"/>
	<polygon fill="#B8BF57" points="684.906,1372.608 724.363,1372.608 631.408,1220.127 538.429,1372.608 577.891,1372.608 
		500.027,1597.608 631.074,1597.608 762.77,1597.608 	"/>
	<polygon fill="#D3D55A" points="631.408,1221 538.429,1372.608 577.891,1372.608 500.027,1597.608 631.074,1597.608 	"/>
	<polygon fill="#B8BF57" points="631.408,1221 724.363,1372.608 684.906,1372.608 762.77,1597.608 631.074,1597.608 	"/>
	<polygon opacity="0.1" fill="#464541" points="500.027,1597.608 684.906,1374.357 762.77,1597.608 	"/>
</g>
<g>
	<polygon fill="#B8BF57" points="787,1178.384 657.312,1550.608 787,1550.608 	"/>
	<polygon fill="#868C4F" points="787,1179.251 919.727,1550.608 787,1550.608 	"/>
	<rect x="760" y="1550.608" fill="#464541" width="54" height="89"/>
	<polygon opacity="0.1" fill="#464541" points="657.312,1550.608 838.971,1319.065 919.727,1550.608 	"/>
</g>
<g>
	<g>
		<rect x="766" y="1743.608" fill="#464541" width="59" height="150"/>
		<g>
			<path fill="#D3D55A" d="M803,1776.385c-54,0-107.832-60.94-107.832-136.12c0-75.171,53.832-136.107,107.832-136.107V1776.385z"/>
			<path fill="#B8BF57" d="M794,1776.385c65,0,107.832-60.94,107.832-136.12c0-75.171-42.832-136.107-107.832-136.107V1776.385z"/>
		</g>
	</g>
	<g opacity="0.1">
		<path fill="#464541" d="M794,1776.291v0.094c0,0,3.857-0.022,4.5-0.034c0.629,0.012,4.5,0.034,4.5,0.034v-0.094
			c56-2.538,103.86-62.465,103.86-136.026c0-15.664-2.208-30.706-6.08-44.715l-207.954,55.99
			C697.293,1719.862,749,1773.88,794,1776.291z"/>
	</g>
</g>
<g>
	<rect x="631" y="1810.608" fill="#464541" width="57" height="32"/>
	<polygon fill="#B8BF57" points="712.822,1585.608 752.279,1585.608 659.324,1433.127 566.345,1585.608 605.807,1585.608 
		527.943,1810.608 658.99,1810.608 790.685,1810.608 	"/>
	<polygon fill="#B8BF57" points="659.324,1434 566.345,1585.608 605.807,1585.608 527.943,1810.608 658.99,1810.608 	"/>
	<polygon fill="#868C4F" points="659.324,1434 752.279,1585.608 712.822,1585.608 790.685,1810.608 658.99,1810.608 	"/>
	<polygon opacity="0.1" fill="#464541" points="527.943,1810.608 712.822,1587.357 790.685,1810.608 	"/>
</g>
<g>
	<rect x="603" y="2075.608" fill="#464541" width="57" height="32"/>
	<polygon fill="#B8BF57" points="684.906,1850.608 724.363,1850.608 631.408,1698.127 538.429,1850.608 577.891,1850.608 
		500.027,2075.608 631.074,2075.608 762.77,2075.608 	"/>
	<polygon fill="#D3D55A" points="631.408,1699 538.429,1850.608 577.891,1850.608 500.027,2075.608 631.074,2075.608 	"/>
	<polygon fill="#B8BF57" points="631.408,1699 724.363,1850.608 684.906,1850.608 762.77,2075.608 631.074,2075.608 	"/>
	<polygon opacity="0.1" fill="#464541" points="500.027,2075.608 684.906,1852.357 762.77,2075.608 	"/>
</g>
<g>
	<polygon fill="#B8BF57" points="787,1656.384 657.312,2028.608 787,2028.608 	"/>
	<polygon fill="#868C4F" points="787,1657.251 919.727,2028.608 787,2028.608 	"/>
	<rect x="760" y="2028.608" fill="#464541" width="54" height="89"/>
	<polygon opacity="0.1" fill="#464541" points="657.312,2028.608 838.971,1797.065 919.727,2028.608 	"/>
</g>
<g>
	<g>
		<rect x="766" y="2221.608" fill="#464541" width="59" height="150"/>
		<g>
			<path fill="#D3D55A" d="M803,2254.385c-54,0-107.832-60.94-107.832-136.12c0-75.171,53.832-136.107,107.832-136.107V2254.385z"/>
			<path fill="#B8BF57" d="M794,2254.385c65,0,107.832-60.94,107.832-136.12c0-75.171-42.832-136.107-107.832-136.107V2254.385z"/>
		</g>
	</g>
	<g opacity="0.1">
		<path fill="#464541" d="M794,2254.291v0.094c0,0,3.857-0.022,4.5-0.034c0.629,0.012,4.5,0.034,4.5,0.034v-0.094
			c56-2.538,103.86-62.465,103.86-136.026c0-15.664-2.208-30.706-6.08-44.715l-207.954,55.99
			C697.293,2197.862,749,2251.88,794,2254.291z"/>
	</g>
</g>
<g>
	<rect x="631" y="2288.608" fill="#464541" width="57" height="32"/>
	<polygon fill="#B8BF57" points="712.822,2063.608 752.279,2063.608 659.324,1911.127 566.345,2063.608 605.807,2063.608 
		527.943,2288.608 658.99,2288.608 790.685,2288.608 	"/>
	<polygon fill="#B8BF57" points="659.324,1912 566.345,2063.608 605.807,2063.608 527.943,2288.608 658.99,2288.608 	"/>
	<polygon fill="#868C4F" points="659.324,1912 752.279,2063.608 712.822,2063.608 790.685,2288.608 658.99,2288.608 	"/>
	<polygon opacity="0.1" fill="#464541" points="527.943,2288.608 712.822,2065.357 790.685,2288.608 	"/>
</g>
<g>
	<rect x="603" y="2553.608" fill="#464541" width="57" height="32"/>
	<polygon fill="#B8BF57" points="684.906,2328.608 724.363,2328.608 631.408,2176.127 538.429,2328.608 577.891,2328.608 
		500.027,2553.608 631.074,2553.608 762.77,2553.608 	"/>
	<polygon fill="#D3D55A" points="631.408,2177 538.429,2328.608 577.891,2328.608 500.027,2553.608 631.074,2553.608 	"/>
	<polygon fill="#B8BF57" points="631.408,2177 724.363,2328.608 684.906,2328.608 762.77,2553.608 631.074,2553.608 	"/>
	<polygon opacity="0.1" fill="#464541" points="500.027,2553.608 684.906,2330.357 762.77,2553.608 	"/>
</g>
<g>
	<polygon fill="#B8BF57" points="787,2134.384 657.312,2506.608 787,2506.608 	"/>
	<polygon fill="#868C4F" points="787,2135.251 919.727,2506.608 787,2506.608 	"/>
	<rect x="760" y="2506.608" fill="#464541" width="54" height="89"/>
	<polygon opacity="0.1" fill="#464541" points="657.312,2506.608 838.971,2275.065 919.727,2506.608 	"/>
</g>
<g>
	<g>
		<rect x="766" y="2699.608" fill="#464541" width="59" height="150"/>
		<g>
			<path fill="#D3D55A" d="M803,2732.385c-54,0-107.832-60.94-107.832-136.12c0-75.171,53.832-136.107,107.832-136.107V2732.385z"/>
			<path fill="#B8BF57" d="M794,2732.385c65,0,107.832-60.94,107.832-136.12c0-75.171-42.832-136.107-107.832-136.107V2732.385z"/>
		</g>
	</g>
	<g opacity="0.1">
		<path fill="#464541" d="M794,2732.291v0.094c0,0,3.857-0.022,4.5-0.034c0.629,0.012,4.5,0.034,4.5,0.034v-0.094
			c56-2.538,103.86-62.465,103.86-136.026c0-15.664-2.208-30.706-6.08-44.715l-207.954,55.99
			C697.293,2675.862,749,2729.88,794,2732.291z"/>
	</g>
</g>
<g>
	<rect x="631" y="2766.608" fill="#464541" width="57" height="32"/>
	<polygon fill="#B8BF57" points="712.822,2541.608 752.279,2541.608 659.324,2389.127 566.345,2541.608 605.807,2541.608 
		527.943,2766.608 658.99,2766.608 790.685,2766.608 	"/>
	<polygon fill="#B8BF57" points="659.324,2390 566.345,2541.608 605.807,2541.608 527.943,2766.608 658.99,2766.608 	"/>
	<polygon fill="#868C4F" points="659.324,2390 752.279,2541.608 712.822,2541.608 790.685,2766.608 658.99,2766.608 	"/>
	<polygon opacity="0.1" fill="#464541" points="527.943,2766.608 712.822,2543.357 790.685,2766.608 	"/>
</g>
<g>
	<rect x="603" y="3031.608" fill="#464541" width="57" height="32"/>
	<polygon fill="#B8BF57" points="684.906,2806.608 724.363,2806.608 631.408,2654.127 538.429,2806.608 577.891,2806.608 
		500.027,3031.608 631.074,3031.608 762.77,3031.608 	"/>
	<polygon fill="#D3D55A" points="631.408,2655 538.429,2806.608 577.891,2806.608 500.027,3031.608 631.074,3031.608 	"/>
	<polygon fill="#B8BF57" points="631.408,2655 724.363,2806.608 684.906,2806.608 762.77,3031.608 631.074,3031.608 	"/>
	<polygon opacity="0.1" fill="#464541" points="500.027,3031.608 684.906,2808.357 762.77,3031.608 	"/>
</g>
<g>
	<polygon fill="#B8BF57" points="787,2612.384 657.312,2984.608 787,2984.608 	"/>
	<polygon fill="#868C4F" points="787,2613.251 919.727,2984.608 787,2984.608 	"/>
	<rect x="760" y="2984.608" fill="#464541" width="54" height="89"/>
	<polygon opacity="0.1" fill="#464541" points="657.312,2984.608 838.971,2753.065 919.727,2984.608 	"/>
</g>
<g>
	<g>
		<rect x="766" y="3177.608" fill="#464541" width="59" height="150"/>
		<g>
			<path fill="#D3D55A" d="M803,3210.385c-54,0-107.832-60.94-107.832-136.12c0-75.171,53.832-136.107,107.832-136.107V3210.385z"/>
			<path fill="#B8BF57" d="M794,3210.385c65,0,107.832-60.94,107.832-136.12c0-75.171-42.832-136.107-107.832-136.107V3210.385z"/>
		</g>
	</g>
	<g opacity="0.1">
		<path fill="#464541" d="M794,3210.291v0.094c0,0,3.857-0.022,4.5-0.034c0.629,0.012,4.5,0.034,4.5,0.034v-0.094
			c56-2.538,103.86-62.465,103.86-136.026c0-15.664-2.208-30.706-6.08-44.715l-207.954,55.99
			C697.293,3153.862,749,3207.88,794,3210.291z"/>
	</g>
</g>
<g>
	<rect x="631" y="3244.608" fill="#464541" width="57" height="32"/>
	<polygon fill="#B8BF57" points="712.822,3019.608 752.279,3019.608 659.324,2867.127 566.345,3019.608 605.807,3019.608 
		527.943,3244.608 658.99,3244.608 790.685,3244.608 	"/>
	<polygon fill="#B8BF57" points="659.324,2868 566.345,3019.608 605.807,3019.608 527.943,3244.608 658.99,3244.608 	"/>
	<polygon fill="#868C4F" points="659.324,2868 752.279,3019.608 712.822,3019.608 790.685,3244.608 658.99,3244.608 	"/>
	<polygon opacity="0.1" fill="#464541" points="527.943,3244.608 712.822,3021.357 790.685,3244.608 	"/>
</g>
<g>
	<rect x="603" y="3509.608" fill="#464541" width="57" height="32"/>
	<polygon fill="#B8BF57" points="684.906,3284.608 724.363,3284.608 631.408,3132.127 538.429,3284.608 577.891,3284.608 
		500.027,3509.608 631.074,3509.608 762.77,3509.608 	"/>
	<polygon fill="#D3D55A" points="631.408,3133 538.429,3284.608 577.891,3284.608 500.027,3509.608 631.074,3509.608 	"/>
	<polygon fill="#B8BF57" points="631.408,3133 724.363,3284.608 684.906,3284.608 762.77,3509.608 631.074,3509.608 	"/>
	<polygon opacity="0.1" fill="#464541" points="500.027,3509.608 684.906,3286.357 762.77,3509.608 	"/>
</g>
<g>
	<polygon fill="#B8BF57" points="787,3090.384 657.312,3462.608 787,3462.608 	"/>
	<polygon fill="#868C4F" points="787,3091.251 919.727,3462.608 787,3462.608 	"/>
	<rect x="760" y="3462.608" fill="#464541" width="54" height="89"/>
	<polygon opacity="0.1" fill="#464541" points="657.312,3462.608 838.971,3231.065 919.727,3462.608 	"/>
</g>
<g>
	<g>
		<rect x="766" y="3655.608" fill="#464541" width="59" height="150"/>
		<g>
			<path fill="#D3D55A" d="M803,3688.385c-54,0-107.832-60.94-107.832-136.12c0-75.171,53.832-136.107,107.832-136.107V3688.385z"/>
			<path fill="#B8BF57" d="M794,3688.385c65,0,107.832-60.94,107.832-136.12c0-75.171-42.832-136.107-107.832-136.107V3688.385z"/>
		</g>
	</g>
	<g opacity="0.1">
		<path fill="#464541" d="M794,3688.291v0.094c0,0,3.857-0.022,4.5-0.034c0.629,0.012,4.5,0.034,4.5,0.034v-0.094
			c56-2.538,103.86-62.465,103.86-136.026c0-15.664-2.208-30.706-6.08-44.715l-207.954,55.99
			C697.293,3631.862,749,3685.88,794,3688.291z"/>
	</g>
</g>
<g>
	<rect x="631" y="3722.608" fill="#464541" width="57" height="32"/>
	<polygon fill="#B8BF57" points="712.822,3497.608 752.279,3497.608 659.324,3345.127 566.345,3497.608 605.807,3497.608 
		527.943,3722.608 658.99,3722.608 790.685,3722.608 	"/>
	<polygon fill="#B8BF57" points="659.324,3346 566.345,3497.608 605.807,3497.608 527.943,3722.608 658.99,3722.608 	"/>
	<polygon fill="#868C4F" points="659.324,3346 752.279,3497.608 712.822,3497.608 790.685,3722.608 658.99,3722.608 	"/>
	<polygon opacity="0.1" fill="#464541" points="527.943,3722.608 712.822,3499.357 790.685,3722.608 	"/>
</g>
<g>
	<rect x="603" y="3987.608" fill="#464541" width="57" height="32"/>
	<polygon fill="#B8BF57" points="684.906,3762.608 724.363,3762.608 631.408,3610.127 538.429,3762.608 577.891,3762.608 
		500.027,3987.608 631.074,3987.608 762.77,3987.608 	"/>
	<polygon fill="#D3D55A" points="631.408,3611 538.429,3762.608 577.891,3762.608 500.027,3987.608 631.074,3987.608 	"/>
	<polygon fill="#B8BF57" points="631.408,3611 724.363,3762.608 684.906,3762.608 762.77,3987.608 631.074,3987.608 	"/>
	<polygon opacity="0.1" fill="#464541" points="500.027,3987.608 684.906,3764.357 762.77,3987.608 	"/>
</g>
<g>
	<polygon fill="#B8BF57" points="787,3568.384 657.312,3940.608 787,3940.608 	"/>
	<polygon fill="#868C4F" points="787,3569.251 919.727,3940.608 787,3940.608 	"/>
	<rect x="760" y="3940.608" fill="#464541" width="54" height="89"/>
	<polygon opacity="0.1" fill="#464541" points="657.312,3940.608 838.971,3709.065 919.727,3940.608 	"/>
</g>
<g>
	<g>
		<rect x="766" y="4133.608" fill="#464541" width="59" height="150"/>
		<g>
			<path fill="#D3D55A" d="M803,4166.385c-54,0-107.832-60.94-107.832-136.12c0-75.171,53.832-136.107,107.832-136.107V4166.385z"/>
			<path fill="#B8BF57" d="M794,4166.385c65,0,107.832-60.94,107.832-136.12c0-75.171-42.832-136.107-107.832-136.107V4166.385z"/>
		</g>
	</g>
	<g opacity="0.1">
		<path fill="#464541" d="M794,4166.291v0.094c0,0,3.857-0.022,4.5-0.034c0.629,0.012,4.5,0.034,4.5,0.034v-0.094
			c56-2.538,103.86-62.465,103.86-136.026c0-15.664-2.208-30.706-6.08-44.715l-207.954,55.99
			C697.293,4109.862,749,4163.88,794,4166.291z"/>
	</g>
</g>
<g>
	<rect x="631" y="4200.608" fill="#464541" width="57" height="32"/>
	<polygon fill="#B8BF57" points="712.822,3975.608 752.279,3975.608 659.324,3823.127 566.345,3975.608 605.807,3975.608 
		527.943,4200.608 658.99,4200.608 790.685,4200.608 	"/>
	<polygon fill="#B8BF57" points="659.324,3824 566.345,3975.608 605.807,3975.608 527.943,4200.608 658.99,4200.608 	"/>
	<polygon fill="#868C4F" points="659.324,3824 752.279,3975.608 712.822,3975.608 790.685,4200.608 658.99,4200.608 	"/>
	<polygon opacity="0.1" fill="#464541" points="527.943,4200.608 712.822,3977.357 790.685,4200.608 	"/>
</g>
<g>
	<rect x="603" y="4465.608" fill="#464541" width="57" height="32"/>
	<polygon fill="#B8BF57" points="684.906,4240.608 724.363,4240.608 631.408,4088.127 538.429,4240.608 577.891,4240.608 
		500.027,4465.608 631.074,4465.608 762.77,4465.608 	"/>
	<polygon fill="#D3D55A" points="631.408,4089 538.429,4240.608 577.891,4240.608 500.027,4465.608 631.074,4465.608 	"/>
	<polygon fill="#B8BF57" points="631.408,4089 724.363,4240.608 684.906,4240.608 762.77,4465.608 631.074,4465.608 	"/>
	<polygon opacity="0.1" fill="#464541" points="500.027,4465.608 684.906,4242.357 762.77,4465.608 	"/>
</g>
<g>
	<polygon fill="#B8BF57" points="787,4046.384 657.312,4418.608 787,4418.608 	"/>
	<polygon fill="#868C4F" points="787,4047.251 919.727,4418.608 787,4418.608 	"/>
	<rect x="760" y="4418.608" fill="#464541" width="54" height="89"/>
	<polygon opacity="0.1" fill="#464541" points="657.312,4418.608 838.971,4187.065 919.727,4418.608 	"/>
</g>
<g>
	<g>
		<rect x="766" y="4666.608" fill="#464541" width="59" height="150"/>
		<g>
			<path fill="#D3D55A" d="M803,4699.385c-54,0-107.832-60.94-107.832-136.12c0-75.171,53.832-136.107,107.832-136.107V4699.385z"/>
			<path fill="#B8BF57" d="M794,4699.385c65,0,107.832-60.94,107.832-136.12c0-75.171-42.832-136.107-107.832-136.107V4699.385z"/>
		</g>
	</g>
	<g opacity="0.1">
		<path fill="#464541" d="M794,4699.291v0.094c0,0,3.857-0.022,4.5-0.034c0.629,0.012,4.5,0.034,4.5,0.034v-0.094
			c56-2.538,103.86-62.465,103.86-136.026c0-15.664-2.208-30.706-6.08-44.715l-207.954,55.99
			C697.293,4642.862,749,4696.88,794,4699.291z"/>
	</g>
</g>
<g>
	<rect x="631" y="4733.608" fill="#464541" width="57" height="32"/>
	<polygon fill="#B8BF57" points="712.822,4508.608 752.279,4508.608 659.324,4356.127 566.345,4508.608 605.807,4508.608 
		527.943,4733.608 658.99,4733.608 790.685,4733.608 	"/>
	<polygon fill="#B8BF57" points="659.324,4357 566.345,4508.608 605.807,4508.608 527.943,4733.608 658.99,4733.608 	"/>
	<polygon fill="#868C4F" points="659.324,4357 752.279,4508.608 712.822,4508.608 790.685,4733.608 658.99,4733.608 	"/>
	<polygon opacity="0.1" fill="#464541" points="527.943,4733.608 712.822,4510.357 790.685,4733.608 	"/>
</g>
<g>
	<rect x="603" y="4998.608" fill="#464541" width="57" height="32"/>
	<polygon fill="#B8BF57" points="684.906,4773.608 724.363,4773.608 631.408,4621.127 538.429,4773.608 577.891,4773.608 
		500.027,4998.608 631.074,4998.608 762.77,4998.608 	"/>
	<polygon fill="#D3D55A" points="631.408,4622 538.429,4773.608 577.891,4773.608 500.027,4998.608 631.074,4998.608 	"/>
	<polygon fill="#B8BF57" points="631.408,4622 724.363,4773.608 684.906,4773.608 762.77,4998.608 631.074,4998.608 	"/>
	<polygon opacity="0.1" fill="#464541" points="500.027,4998.608 684.906,4775.357 762.77,4998.608 	"/>
</g>
<g>
	<polygon fill="#B8BF57" points="787,4579.384 657.312,4951.608 787,4951.608 	"/>
	<polygon fill="#868C4F" points="787,4580.251 919.727,4951.608 787,4951.608 	"/>
	<rect x="760" y="4951.608" fill="#464541" width="54" height="89"/>
	<polygon opacity="0.1" fill="#464541" points="657.312,4951.608 838.971,4720.065 919.727,4951.608 	"/>
</g>
<g>
	<g>
		<rect x="766" y="5144.608" fill="#464541" width="59" height="150"/>
		<g>
			<path fill="#D3D55A" d="M803,5177.385c-54,0-107.832-60.94-107.832-136.12c0-75.171,53.832-136.107,107.832-136.107V5177.385z"/>
			<path fill="#B8BF57" d="M794,5177.385c65,0,107.832-60.94,107.832-136.12c0-75.171-42.832-136.107-107.832-136.107V5177.385z"/>
		</g>
	</g>
	<g opacity="0.1">
		<path fill="#464541" d="M794,5177.291v0.094c0,0,3.857-0.022,4.5-0.034c0.629,0.012,4.5,0.034,4.5,0.034v-0.094
			c56-2.538,103.86-62.465,103.86-136.026c0-15.664-2.208-30.706-6.08-44.715l-207.954,55.99
			C697.293,5120.862,749,5174.88,794,5177.291z"/>
	</g>
</g>
<g>
	<rect x="631" y="5211.608" fill="#464541" width="57" height="32"/>
	<polygon fill="#B8BF57" points="712.822,4986.608 752.279,4986.608 659.324,4834.127 566.345,4986.608 605.807,4986.608 
		527.943,5211.608 658.99,5211.608 790.685,5211.608 	"/>
	<polygon fill="#B8BF57" points="659.324,4835 566.345,4986.608 605.807,4986.608 527.943,5211.608 658.99,5211.608 	"/>
	<polygon fill="#868C4F" points="659.324,4835 752.279,4986.608 712.822,4986.608 790.685,5211.608 658.99,5211.608 	"/>
	<polygon opacity="0.1" fill="#464541" points="527.943,5211.608 712.822,4988.357 790.685,5211.608 	"/>
</g>
<g>
	<rect x="603" y="5476.608" fill="#464541" width="57" height="32"/>
	<polygon fill="#B8BF57" points="684.906,5251.608 724.363,5251.608 631.408,5099.127 538.429,5251.608 577.891,5251.608 
		500.027,5476.608 631.074,5476.608 762.77,5476.608 	"/>
	<polygon fill="#D3D55A" points="631.408,5100 538.429,5251.608 577.891,5251.608 500.027,5476.608 631.074,5476.608 	"/>
	<polygon fill="#B8BF57" points="631.408,5100 724.363,5251.608 684.906,5251.608 762.77,5476.608 631.074,5476.608 	"/>
	<polygon opacity="0.1" fill="#464541" points="500.027,5476.608 684.906,5253.357 762.77,5476.608 	"/>
</g>
<g>
	<polygon fill="#B8BF57" points="787,5057.384 657.312,5429.608 787,5429.608 	"/>
	<polygon fill="#868C4F" points="787,5058.251 919.727,5429.608 787,5429.608 	"/>
	<rect x="760" y="5429.608" fill="#464541" width="54" height="89"/>
	<polygon opacity="0.1" fill="#464541" points="657.312,5429.608 838.971,5198.065 919.727,5429.608 	"/>
</g>
<g>
	<g>
		<rect x="766" y="5622.608" fill="#464541" width="59" height="150"/>
		<g>
			<path fill="#D3D55A" d="M803,5655.385c-54,0-107.832-60.94-107.832-136.12c0-75.171,53.832-136.107,107.832-136.107V5655.385z"/>
			<path fill="#B8BF57" d="M794,5655.385c65,0,107.832-60.94,107.832-136.12c0-75.171-42.832-136.107-107.832-136.107V5655.385z"/>
		</g>
	</g>
	<g opacity="0.1">
		<path fill="#464541" d="M794,5655.291v0.094c0,0,3.857-0.022,4.5-0.034c0.629,0.012,4.5,0.034,4.5,0.034v-0.094
			c56-2.538,103.86-62.465,103.86-136.026c0-15.664-2.208-30.706-6.08-44.715l-207.954,55.99
			C697.293,5598.862,749,5652.88,794,5655.291z"/>
	</g>
</g>
<g>
	<rect x="631" y="5689.608" fill="#464541" width="57" height="32"/>
	<polygon fill="#B8BF57" points="712.822,5464.608 752.279,5464.608 659.324,5312.127 566.345,5464.608 605.807,5464.608 
		527.943,5689.608 658.99,5689.608 790.685,5689.608 	"/>
	<polygon fill="#B8BF57" points="659.324,5313 566.345,5464.608 605.807,5464.608 527.943,5689.608 658.99,5689.608 	"/>
	<polygon fill="#868C4F" points="659.324,5313 752.279,5464.608 712.822,5464.608 790.685,5689.608 658.99,5689.608 	"/>
	<polygon opacity="0.1" fill="#464541" points="527.943,5689.608 712.822,5466.357 790.685,5689.608 	"/>
</g>
<g>
	<rect x="603" y="5954.608" fill="#464541" width="57" height="32"/>
	<polygon fill="#B8BF57" points="684.906,5729.608 724.363,5729.608 631.408,5577.127 538.429,5729.608 577.891,5729.608 
		500.027,5954.608 631.074,5954.608 762.77,5954.608 	"/>
	<polygon fill="#D3D55A" points="631.408,5578 538.429,5729.608 577.891,5729.608 500.027,5954.608 631.074,5954.608 	"/>
	<polygon fill="#B8BF57" points="631.408,5578 724.363,5729.608 684.906,5729.608 762.77,5954.608 631.074,5954.608 	"/>
	<polygon opacity="0.1" fill="#464541" points="500.027,5954.608 684.906,5731.357 762.77,5954.608 	"/>
</g>
<g>
	<polygon fill="#B8BF57" points="787,5535.384 657.312,5907.608 787,5907.608 	"/>
	<polygon fill="#868C4F" points="787,5536.251 919.727,5907.608 787,5907.608 	"/>
	<rect x="760" y="5907.608" fill="#464541" width="54" height="89"/>
	<polygon opacity="0.1" fill="#464541" points="657.312,5907.608 838.971,5676.065 919.727,5907.608 	"/>
</g>
<g>
	<g>
		<rect x="766" y="6100.608" fill="#464541" width="59" height="150"/>
		<g>
			<path fill="#D3D55A" d="M803,6133.385c-54,0-107.832-60.94-107.832-136.12c0-75.171,53.832-136.107,107.832-136.107V6133.385z"/>
			<path fill="#B8BF57" d="M794,6133.385c65,0,107.832-60.94,107.832-136.12c0-75.171-42.832-136.107-107.832-136.107V6133.385z"/>
		</g>
	</g>
	<g opacity="0.1">
		<path fill="#464541" d="M794,6133.291v0.094c0,0,3.857-0.022,4.5-0.034c0.629,0.012,4.5,0.034,4.5,0.034v-0.094
			c56-2.538,103.86-62.465,103.86-136.026c0-15.664-2.208-30.706-6.08-44.715l-207.954,55.99
			C697.293,6076.862,749,6130.88,794,6133.291z"/>
	</g>
</g>
<g>
	<rect x="631" y="6167.608" fill="#464541" width="57" height="32"/>
	<polygon fill="#B8BF57" points="712.822,5942.608 752.279,5942.608 659.324,5790.127 566.345,5942.608 605.807,5942.608 
		527.943,6167.608 658.99,6167.608 790.685,6167.608 	"/>
	<polygon fill="#B8BF57" points="659.324,5791 566.345,5942.608 605.807,5942.608 527.943,6167.608 658.99,6167.608 	"/>
	<polygon fill="#868C4F" points="659.324,5791 752.279,5942.608 712.822,5942.608 790.685,6167.608 658.99,6167.608 	"/>
	<polygon opacity="0.1" fill="#464541" points="527.943,6167.608 712.822,5944.357 790.685,6167.608 	"/>
</g>
<g>
	<rect x="603" y="6432.608" fill="#464541" width="57" height="32"/>
	<polygon fill="#B8BF57" points="684.906,6207.608 724.363,6207.608 631.408,6055.127 538.429,6207.608 577.891,6207.608 
		500.027,6432.608 631.074,6432.608 762.77,6432.608 	"/>
	<polygon fill="#D3D55A" points="631.408,6056 538.429,6207.608 577.891,6207.608 500.027,6432.608 631.074,6432.608 	"/>
	<polygon fill="#B8BF57" points="631.408,6056 724.363,6207.608 684.906,6207.608 762.77,6432.608 631.074,6432.608 	"/>
	<polygon opacity="0.1" fill="#464541" points="500.027,6432.608 684.906,6209.357 762.77,6432.608 	"/>
</g>
<g>
	<polygon fill="#B8BF57" points="787,6013.384 657.312,6385.608 787,6385.608 	"/>
	<polygon fill="#868C4F" points="787,6014.251 919.727,6385.608 787,6385.608 	"/>
	<rect x="760" y="6385.608" fill="#464541" width="54" height="89"/>
	<polygon opacity="0.1" fill="#464541" points="657.312,6385.608 838.971,6154.065 919.727,6385.608 	"/>
</g>
<g>
	<g>
		<rect x="766" y="6578.608" fill="#464541" width="59" height="150"/>
		<g>
			<path fill="#D3D55A" d="M803,6611.385c-54,0-107.832-60.94-107.832-136.12c0-75.171,53.832-136.107,107.832-136.107V6611.385z"/>
			<path fill="#B8BF57" d="M794,6611.385c65,0,107.832-60.94,107.832-136.12c0-75.171-42.832-136.107-107.832-136.107V6611.385z"/>
		</g>
	</g>
	<g opacity="0.1">
		<path fill="#464541" d="M794,6611.291v0.094c0,0,3.857-0.022,4.5-0.034c0.629,0.012,4.5,0.034,4.5,0.034v-0.094
			c56-2.538,103.86-62.465,103.86-136.026c0-15.664-2.208-30.706-6.08-44.715l-207.954,55.99
			C697.293,6554.862,749,6608.88,794,6611.291z"/>
	</g>
</g>
<g>
	<rect x="631" y="6645.608" fill="#464541" width="57" height="32"/>
	<polygon fill="#B8BF57" points="712.822,6420.608 752.279,6420.608 659.324,6268.127 566.345,6420.608 605.807,6420.608 
		527.943,6645.608 658.99,6645.608 790.685,6645.608 	"/>
	<polygon fill="#B8BF57" points="659.324,6269 566.345,6420.608 605.807,6420.608 527.943,6645.608 658.99,6645.608 	"/>
	<polygon fill="#868C4F" points="659.324,6269 752.279,6420.608 712.822,6420.608 790.685,6645.608 658.99,6645.608 	"/>
	<polygon opacity="0.1" fill="#464541" points="527.943,6645.608 712.822,6422.357 790.685,6645.608 	"/>
</g>
<g>
	<rect x="603" y="6910.608" fill="#464541" width="57" height="32"/>
	<polygon fill="#B8BF57" points="684.906,6685.608 724.363,6685.608 631.408,6533.127 538.429,6685.608 577.891,6685.608 
		500.027,6910.608 631.074,6910.608 762.77,6910.608 	"/>
	<polygon fill="#D3D55A" points="631.408,6534 538.429,6685.608 577.891,6685.608 500.027,6910.608 631.074,6910.608 	"/>
	<polygon fill="#B8BF57" points="631.408,6534 724.363,6685.608 684.906,6685.608 762.77,6910.608 631.074,6910.608 	"/>
	<polygon opacity="0.1" fill="#464541" points="500.027,6910.608 684.906,6687.357 762.77,6910.608 	"/>
</g>
<g>
	<polygon fill="#B8BF57" points="787,6491.384 657.312,6863.608 787,6863.608 	"/>
	<polygon fill="#868C4F" points="787,6492.251 919.727,6863.608 787,6863.608 	"/>
	<rect x="760" y="6863.608" fill="#464541" width="54" height="89"/>
	<polygon opacity="0.1" fill="#464541" points="657.312,6863.608 838.971,6632.065 919.727,6863.608 	"/>
</g>
<g>
	<g>
		<rect x="766" y="7056.608" fill="#464541" width="59" height="150"/>
		<g>
			<path fill="#D3D55A" d="M803,7089.385c-54,0-107.832-60.94-107.832-136.12c0-75.171,53.832-136.107,107.832-136.107V7089.385z"/>
			<path fill="#B8BF57" d="M794,7089.385c65,0,107.832-60.94,107.832-136.12c0-75.171-42.832-136.107-107.832-136.107V7089.385z"/>
		</g>
	</g>
	<g opacity="0.1">
		<path fill="#464541" d="M794,7089.291v0.094c0,0,3.857-0.022,4.5-0.034c0.629,0.012,4.5,0.034,4.5,0.034v-0.094
			c56-2.538,103.86-62.465,103.86-136.026c0-15.664-2.208-30.706-6.08-44.715l-207.954,55.99
			C697.293,7032.862,749,7086.88,794,7089.291z"/>
	</g>
</g>
<g>
	<rect x="631" y="7123.608" fill="#464541" width="57" height="32"/>
	<polygon fill="#B8BF57" points="712.822,6898.608 752.279,6898.608 659.324,6746.127 566.345,6898.608 605.807,6898.608 
		527.943,7123.608 658.99,7123.608 790.685,7123.608 	"/>
	<polygon fill="#B8BF57" points="659.324,6747 566.345,6898.608 605.807,6898.608 527.943,7123.608 658.99,7123.608 	"/>
	<polygon fill="#868C4F" points="659.324,6747 752.279,6898.608 712.822,6898.608 790.685,7123.608 658.99,7123.608 	"/>
	<polygon opacity="0.1" fill="#464541" points="527.943,7123.608 712.822,6900.357 790.685,7123.608 	"/>
</g>
<g>
	<rect x="603" y="7388.608" fill="#464541" width="57" height="32"/>
	<polygon fill="#B8BF57" points="684.906,7163.608 724.363,7163.608 631.408,7011.127 538.429,7163.608 577.891,7163.608 
		500.027,7388.608 631.074,7388.608 762.77,7388.608 	"/>
	<polygon fill="#D3D55A" points="631.408,7012 538.429,7163.608 577.891,7163.608 500.027,7388.608 631.074,7388.608 	"/>
	<polygon fill="#B8BF57" points="631.408,7012 724.363,7163.608 684.906,7163.608 762.77,7388.608 631.074,7388.608 	"/>
	<polygon opacity="0.1" fill="#464541" points="500.027,7388.608 684.906,7165.357 762.77,7388.608 	"/>
</g>
<g>
	<polygon fill="#B8BF57" points="787,6969.384 657.312,7341.608 787,7341.608 	"/>
	<polygon fill="#868C4F" points="787,6970.251 919.727,7341.608 787,7341.608 	"/>
	<rect x="760" y="7341.608" fill="#464541" width="54" height="89"/>
	<polygon opacity="0.1" fill="#464541" points="657.312,7341.608 838.971,7110.065 919.727,7341.608 	"/>
</g>
<g>
	<g>
		<rect x="766" y="7534.608" fill="#464541" width="59" height="150"/>
		<g>
			<path fill="#D3D55A" d="M803,7567.385c-54,0-107.832-60.94-107.832-136.12c0-75.171,53.832-136.107,107.832-136.107V7567.385z"/>
			<path fill="#B8BF57" d="M794,7567.385c65,0,107.832-60.94,107.832-136.12c0-75.171-42.832-136.107-107.832-136.107V7567.385z"/>
		</g>
	</g>
	<g opacity="0.1">
		<path fill="#464541" d="M794,7567.291v0.094c0,0,3.857-0.022,4.5-0.034c0.629,0.012,4.5,0.034,4.5,0.034v-0.094
			c56-2.538,103.86-62.465,103.86-136.026c0-15.664-2.208-30.706-6.08-44.715l-207.954,55.99
			C697.293,7510.862,749,7564.88,794,7567.291z"/>
	</g>
</g>
<g>
	<rect x="631" y="7601.608" fill="#464541" width="57" height="32"/>
	<polygon fill="#B8BF57" points="712.822,7376.608 752.279,7376.608 659.324,7224.127 566.345,7376.608 605.807,7376.608 
		527.943,7601.608 658.99,7601.608 790.685,7601.608 	"/>
	<polygon fill="#B8BF57" points="659.324,7225 566.345,7376.608 605.807,7376.608 527.943,7601.608 658.99,7601.608 	"/>
	<polygon fill="#868C4F" points="659.324,7225 752.279,7376.608 712.822,7376.608 790.685,7601.608 658.99,7601.608 	"/>
	<polygon opacity="0.1" fill="#464541" points="527.943,7601.608 712.822,7378.357 790.685,7601.608 	"/>
</g>
<g>
	<rect x="603" y="7866.608" fill="#464541" width="57" height="32"/>
	<polygon fill="#B8BF57" points="684.906,7641.608 724.363,7641.608 631.408,7489.127 538.429,7641.608 577.891,7641.608 
		500.027,7866.608 631.074,7866.608 762.77,7866.608 	"/>
	<polygon fill="#D3D55A" points="631.408,7490 538.429,7641.608 577.891,7641.608 500.027,7866.608 631.074,7866.608 	"/>
	<polygon fill="#B8BF57" points="631.408,7490 724.363,7641.608 684.906,7641.608 762.77,7866.608 631.074,7866.608 	"/>
	<polygon opacity="0.1" fill="#464541" points="500.027,7866.608 684.906,7643.357 762.77,7866.608 	"/>
</g>
<g>
	<polygon fill="#B8BF57" points="787,7447.384 657.312,7819.608 787,7819.608 	"/>
	<polygon fill="#868C4F" points="787,7448.251 919.727,7819.608 787,7819.608 	"/>
	<rect x="760" y="7819.608" fill="#464541" width="54" height="89"/>
	<polygon opacity="0.1" fill="#464541" points="657.312,7819.608 838.971,7588.065 919.727,7819.608 	"/>
</g>
<g>
	<g>
		<rect x="766" y="8012.608" fill="#464541" width="59" height="150"/>
		<g>
			<path fill="#D3D55A" d="M803,8045.385c-54,0-107.832-60.94-107.832-136.12c0-75.171,53.832-136.107,107.832-136.107V8045.385z"/>
			<path fill="#B8BF57" d="M794,8045.385c65,0,107.832-60.94,107.832-136.12c0-75.171-42.832-136.107-107.832-136.107V8045.385z"/>
		</g>
	</g>
	<g opacity="0.1">
		<path fill="#464541" d="M794,8045.291v0.094c0,0,3.857-0.022,4.5-0.034c0.629,0.012,4.5,0.034,4.5,0.034v-0.094
			c56-2.538,103.86-62.465,103.86-136.026c0-15.664-2.208-30.706-6.08-44.715l-207.954,55.99
			C697.293,7988.862,749,8042.88,794,8045.291z"/>
	</g>
</g>
<g>
	<rect x="631" y="8079.608" fill="#464541" width="57" height="32"/>
	<polygon fill="#B8BF57" points="712.822,7854.608 752.279,7854.608 659.324,7702.127 566.345,7854.608 605.807,7854.608 
		527.943,8079.608 658.99,8079.608 790.685,8079.608 	"/>
	<polygon fill="#B8BF57" points="659.324,7703 566.345,7854.608 605.807,7854.608 527.943,8079.608 658.99,8079.608 	"/>
	<polygon fill="#868C4F" points="659.324,7703 752.279,7854.608 712.822,7854.608 790.685,8079.608 658.99,8079.608 	"/>
	<polygon opacity="0.1" fill="#464541" points="527.943,8079.608 712.822,7856.357 790.685,8079.608 	"/>
</g>
<g>
	<rect x="603" y="8344.608" fill="#464541" width="57" height="32"/>
	<polygon fill="#B8BF57" points="684.906,8119.608 724.363,8119.608 631.408,7967.127 538.429,8119.608 577.891,8119.608 
		500.027,8344.608 631.074,8344.608 762.77,8344.608 	"/>
	<polygon fill="#D3D55A" points="631.408,7968 538.429,8119.608 577.891,8119.608 500.027,8344.608 631.074,8344.608 	"/>
	<polygon fill="#B8BF57" points="631.408,7968 724.363,8119.608 684.906,8119.608 762.77,8344.608 631.074,8344.608 	"/>
	<polygon opacity="0.1" fill="#464541" points="500.027,8344.608 684.906,8121.357 762.77,8344.608 	"/>
</g>
<g>
	<polygon fill="#B8BF57" points="787,7925.384 657.312,8297.608 787,8297.608 	"/>
	<polygon fill="#868C4F" points="787,7926.251 919.727,8297.608 787,8297.608 	"/>
	<rect x="760" y="8297.608" fill="#464541" width="54" height="89"/>
	<polygon opacity="0.1" fill="#464541" points="657.312,8297.608 838.971,8066.065 919.727,8297.608 	"/>
</g>
<g>
	<g>
		<rect x="766" y="8490.608" fill="#464541" width="59" height="150"/>
		<g>
			<path fill="#D3D55A" d="M803,8523.386c-54,0-107.832-60.941-107.832-136.121c0-75.171,53.832-136.107,107.832-136.107V8523.386z"
				/>
			<path fill="#B8BF57" d="M794,8523.386c65,0,107.832-60.941,107.832-136.121c0-75.171-42.832-136.107-107.832-136.107V8523.386z"
				/>
		</g>
	</g>
	<g opacity="0.1">
		<path fill="#464541" d="M794,8523.292v0.094c0,0,3.857-0.023,4.5-0.035c0.629,0.012,4.5,0.035,4.5,0.035v-0.094
			c56-2.539,103.86-62.465,103.86-136.027c0-15.664-2.208-30.706-6.08-44.715l-207.954,55.99
			C697.293,8466.862,749,8520.88,794,8523.292z"/>
	</g>
</g>
<g>
	<rect x="631" y="8557.608" fill="#464541" width="57" height="32"/>
	<polygon fill="#B8BF57" points="712.822,8332.608 752.279,8332.608 659.324,8180.127 566.345,8332.608 605.807,8332.608 
		527.943,8557.608 658.99,8557.608 790.685,8557.608 	"/>
	<polygon fill="#B8BF57" points="659.324,8181 566.345,8332.608 605.807,8332.608 527.943,8557.608 658.99,8557.608 	"/>
	<polygon fill="#868C4F" points="659.324,8181 752.279,8332.608 712.822,8332.608 790.685,8557.608 658.99,8557.608 	"/>
	<polygon opacity="0.1" fill="#464541" points="527.943,8557.608 712.822,8334.357 790.685,8557.608 	"/>
</g>
<g>
	<rect x="603" y="8822.608" fill="#464541" width="57" height="32"/>
	<polygon fill="#B8BF57" points="684.906,8597.608 724.363,8597.608 631.408,8445.128 538.429,8597.608 577.891,8597.608 
		500.027,8822.608 631.074,8822.608 762.77,8822.608 	"/>
	<polygon fill="#D3D55A" points="631.408,8445.999 538.429,8597.608 577.891,8597.608 500.027,8822.608 631.074,8822.608 	"/>
	<polygon fill="#B8BF57" points="631.408,8445.999 724.363,8597.608 684.906,8597.608 762.77,8822.608 631.074,8822.608 	"/>
	<polygon opacity="0.1" fill="#464541" points="500.027,8822.608 684.906,8599.358 762.77,8822.608 	"/>
</g>
<g>
	<polygon fill="#B8BF57" points="787,8403.384 657.312,8775.608 787,8775.608 	"/>
	<polygon fill="#868C4F" points="787,8404.251 919.727,8775.608 787,8775.608 	"/>
	<rect x="760" y="8775.608" fill="#464541" width="54" height="89"/>
	<polygon opacity="0.1" fill="#464541" points="657.312,8775.608 838.971,8544.065 919.727,8775.608 	"/>
</g>
</svg>
