<?xml version="1.0" encoding="utf-8"?>
<!-- Generator: Adobe Illustrator 15.1.0, SVG Export Plug-In . SVG Version: 6.00 Build 0)  -->
<!DOCTYPE svg PUBLIC "-//W3C//DTD SVG 1.1//EN" "http://www.w3.org/Graphics/SVG/1.1/DTD/svg11.dtd">
<svg version="1.1" id="Calque_1" xmlns="http://www.w3.org/2000/svg" xmlns:xlink="http://www.w3.org/1999/xlink" x="0px" y="0px"
	 width="800px" height="600px" viewBox="0 0 800 600" enable-background="new 0 0 800 600" xml:space="preserve">
<g>
	<polygon fill="#F7CA83" points="291.047,152.39 318.031,244.98 300.753,251.535 292.206,256.071 281.819,253.878 266.38,256.071 
		272.001,235.77 269.499,223.098 273.855,215.465 276.37,202.327 272.001,192.985 266.38,180.805 268.06,167.065 271.602,158.903 
		271.178,150.775 	"/>
	<polygon fill="#F7CA83" points="449.781,157.408 415.663,248.73 432.94,255.287 441.531,253.04 451.876,257.631 465.637,254.969 
		457.966,239.362 462.517,233.257 459.838,219.222 451.876,206.104 459.368,197.199 456.561,187.837 462.517,174.716 
		462.09,162.652 462.517,154.524 	"/>
	<path fill="#DE9D7E" d="M473.341,112.626c0,0,8.587,17.164-4.647,40.881l-17.238,3.901l7.402-42.851L473.341,112.626z"/>
	<polygon fill="#8C6239" points="510.289,1180.882 489.799,1162.574 436.553,1169.053 425.284,1183.14 423.164,1138.559 
		409.076,1073.049 407.67,973.651 385.812,868.025 386.72,829.207 369.082,815.778 350.231,829.207 347.098,885.542 
		342.876,1048.198 328.782,1121.619 328.08,1183.14 296.413,1160.349 271.789,1154.794 248.986,1162.574 227.099,1180.882 
		230.741,1101.441 218.876,984.728 226.17,835.787 212.493,759.783 217.01,644 520.369,644 508.951,794.229 516.451,853.362 
		507.124,962.393 513.397,1015.773 506.216,1095.858 510.821,1152.58 	"/>
	<polygon fill="#E2A28A" points="521.507,644 216.953,644 217.149,364.48 242.786,266.404 302.629,260 425.487,260 524.231,271.886 
		521.575,364.977 	"/>
	<polygon fill="#42210B" points="287.325,1193.705 322.549,1192.506 292.463,1159.145 271.904,1150 252.173,1150 229.926,1167.016 
		224.751,1189.057 252.173,1193.13 	"/>
	<polygon fill="#42210B" points="420.778,1196.034 404.24,1192.506 416.812,1160.945 451.369,1150 471.103,1150 493.35,1167.016 
		498.522,1189.057 471.103,1193.13 	"/>
	<path fill="#DE9D7E" d="M297.601,201.616l7.149,61.253c0,0,16.21,16.111,59.79,16.111c43.584,0,62.931-16.111,62.931-16.111
		l7.145-59.323L297.601,201.616z"/>
	<polygon fill="#E8A990" points="285.385,77 282.307,102.911 293.746,225.919 352.437,251.103 396.686,245.731 443.966,219.927 
		459.81,107.92 455.188,77 	"/>
	<path fill="#DE9D7E" d="M269.302,112.626c0,0-12.336,17.164,0.9,40.881l17.244,3.901l-3.987-43.118L269.302,112.626z"/>
	<polygon fill="#DE9D7E" points="343.935,167.065 370.593,154.524 398.59,168.316 	"/>
	<g>
		<path fill="#FFFFFF" d="M391.208,140.485c2.918-9.626,24.725-16.146,30.408-15.596c5.698,0.557,10.414,3.389,10.662,8.159
			c0.247,4.773-4.716,11.881-8.541,13.762c-3.825,1.896-14.14,2.178-19.312,1.191C399.243,147.019,390.417,143.09,391.208,140.485z"
			/>
		<path fill="#603813" d="M402.843,137.306c0,5.038,4.077,9.118,9.116,9.118c5.032,0,9.121-4.08,9.121-9.118
			c0-5.035-4.089-9.118-9.121-9.118C406.92,128.188,402.843,132.271,402.843,137.306z"/>
		<path fill="#333333" d="M415.983,137.234c0,2.003-1.619,3.622-3.625,3.622c-2,0-3.629-1.619-3.629-3.622
			c0-2,1.629-3.626,3.629-3.626C414.364,133.608,415.983,135.234,415.983,137.234z"/>
		<path fill="#FFFFFF" d="M417.339,134.289c0,1.076-0.863,1.942-1.937,1.942c-1.079,0-1.938-0.866-1.938-1.942
			c0-1.068,0.859-1.945,1.938-1.945C416.476,132.343,417.339,133.22,417.339,134.289z"/>
	</g>
	<polygon opacity="0.27" fill="#C1272D" points="340.031,202.722 358.892,208 382.909,208 405.175,202.124 382.613,194 361.93,194 	
		"/>
	<polygon fill="#DE9D7E" points="348.427,226.364 356.454,218 384.427,218 391.084,226.364 382.909,223.555 358.892,221.234 	"/>
	<polygon fill="#F7CA83" points="387.05,129.027 419.15,122.081 439.254,124.194 426.401,113.025 401.388,117.541 	"/>
	<polygon fill="#F7CA83" points="356.811,129.027 324.71,122.081 304.607,124.194 317.457,113.025 342.469,117.541 	"/>
	<path fill="#F7CA83" d="M458.135,72.127l-2.513-14.05l-29.509,2.341l-12.812-2.341l-20.506,2.341l-22.196,3.405l-22.197-3.405
		l-20.505-2.341l-12.812,2.341l-29.511-2.341l-1.397,8.902c0,0,3.748,3.045,3.748,4.446c0,1.406-4.215,6.325-4.215,6.325
		l-4.176,20.758l-8.552,10.413l0.571,4.167l10.232,1.203l7.389-10.93l-0.311,4.386l9.768-4.687l6.842-8.118l17.038,0.941
		l15.847-4.062l12.964,4.372l11.524-4.114l13.615,2.537l12.95-2.794l9.067,3.979l20.93-3.979l13.535,7.966l11.909,1.207l4.507,9.097
		l1.856,13.836l5.969-9.369l8.455-0.667v-10.846l-3.9-4.536c0,0-3.602-13.73-3.602-15.136
		C458.135,81.967,458.135,72.127,458.135,72.127z"/>
	<polygon fill="#F7CA83" points="421.894,219.222 421.894,210.788 419.405,206.077 419.405,192.985 414.309,184.085 
		413.301,175.187 407.054,172.378 396.916,172.378 386.763,172.378 369.584,168.625 352.055,172.378 341.907,172.378 
		331.765,172.378 325.516,175.187 324.509,184.085 319.416,192.985 319.416,206.077 316.922,210.788 316.922,219.222 
		311.219,234.097 320.165,237.939 325.088,230.931 327.032,223.098 325.516,213.599 328.769,207.977 331.765,196.144 
		331.765,189.707 337.651,188.301 346.436,185.961 353.46,186.896 361.895,182.682 369.584,183.225 376.927,182.682 
		385.361,186.896 392.385,185.961 401.167,188.301 407.054,189.707 407.054,196.144 410.05,207.977 413.301,213.599 
		411.789,223.098 413.728,226.976 417.849,233.257 424.54,229.607 	"/>
	<g>
		<path fill="#FFFFFF" d="M349.795,140.485c-2.918-9.626-24.72-16.146-30.405-15.596c-5.7,0.557-10.417,3.389-10.664,8.159
			c-0.248,4.773,4.715,11.881,8.542,13.762c3.826,1.896,14.141,2.178,19.31,1.191C341.761,147.019,350.589,143.09,349.795,140.485z"
			/>
		<path fill="#603813" d="M320.397,137.306c0,5.038,4.079,9.118,9.117,9.118c5.032,0,9.121-4.08,9.121-9.118
			c0-5.035-4.089-9.118-9.121-9.118C324.476,128.188,320.397,132.271,320.397,137.306z"/>
		<path fill="#333333" d="M333.541,137.234c0,2.003-1.622,3.622-3.631,3.622c-1.998,0-3.623-1.619-3.623-3.622
			c0-2,1.625-3.626,3.623-3.626C331.919,133.608,333.541,135.234,333.541,137.234z"/>
		<path fill="#FFFFFF" d="M334.894,134.289c0,1.076-0.863,1.942-1.933,1.942c-1.079,0-1.94-0.866-1.94-1.942
			c0-1.068,0.861-1.945,1.94-1.945C334.031,132.343,334.894,133.22,334.894,134.289z"/>
	</g>
	<g>
		<g>
			<path fill="#E6E6E6" d="M459.175,43.835l-32.236-27.824L371.508-0.169l-55.434,16.181l-32.236,27.824l-3.435,53.26
				c0,0,34.531-11.228,91.104-11.228c56.569,0,91.102,11.228,91.102,11.228L459.175,43.835z"/>
			<path fill="#D7A265" d="M371.508,69.942c-51.123,0-84.147,9.142-90.058,10.908l-1.047,16.246c0,0,34.531-11.228,91.104-11.228
				c56.569,0,91.102,11.228,91.102,11.228l-1.048-16.246C455.652,79.083,422.622,69.942,371.508,69.942z"/>
		</g>
		<path fill="#D7A265" d="M371.506,59.401c48.023,0,80.734,8.093,89.354,10.541l-1.041-16.125
			c-10.637-2.873-43.057-10.341-88.313-10.341c-45.258,0-77.676,7.406-88.309,10.279l-1.042,16.188
			C290.772,67.494,323.485,59.401,371.506,59.401z"/>
	</g>
	<polygon fill="#754C24" points="266.38,314.866 382.165,325.425 410.046,314.866 462.09,320.146 465.637,362.377 470.146,421.326 
		490.382,446.84 485.853,508.438 499.606,540.98 495.661,592.89 490.382,642.158 505.34,756.535 432.94,775.012 392.722,762.694 
		376.886,770.612 322.336,754.776 272.188,767.974 251.952,781.17 203.562,781.17 229.076,722.026 223.091,650.078 236.413,555.058 
		255.73,511.066 245.793,481.153 255.73,431.005 262.509,389.652 	"/>
	<polygon fill="#603813" points="275.285,259.401 306.743,348.088 284.819,352.081 255.73,261.412 	"/>
	<polygon fill="#603813" points="281.626,498.98 280.733,521.494 216.157,522.075 215.002,498.557 	"/>
	<polygon fill="#603813" points="524.427,497.502 524.4,517.092 457.103,519.267 455.079,498.673 	"/>
	<polygon fill="#603813" points="455.252,261.02 425.641,350.568 446.865,354.968 474.108,263.437 	"/>
	<g>
		<polygon fill="#E8A990" points="608.131,442.938 582.101,353.24 553.201,290.096 525.266,268.528 497.125,267.744 
			482.305,297.053 482.022,340.343 488.641,389.32 519.898,443.968 552.365,472.991 542.161,495.399 546.761,523.916 
			565.677,538.181 595.585,530.818 610.211,511.448 605.848,492.09 611.497,469.357 		"/>
	</g>
	<g>
		<polygon fill="#E8A990" points="137.578,442.938 163.608,353.24 192.508,290.096 220.443,268.528 248.584,267.744 
			263.404,297.053 263.687,340.343 257.068,389.32 225.811,443.968 193.345,472.991 203.548,495.399 198.949,523.916 
			180.032,538.181 150.125,530.818 135.499,511.448 139.862,492.09 134.212,469.357 		"/>
	</g>
	<polygon fill="#EBB49E" points="715.773,518.521 769.047,510.387 780.09,514.384 760.848,522.094 729.478,530.827 725.797,542.775 
		715.773,548 700.951,548 694.509,530.666 679.785,519.19 	"/>
	<polygon fill="#F7CA83" points="35.611,514.327 42.988,556.584 39.306,583.271 43,613.639 43,644 99.122,644 118,644 118,621.921 
		118,589.713 112.702,569.468 110.974,548.019 123.913,538.181 115.676,515.283 88.066,487.567 	"/>
	<polygon fill="#FFFFFF" points="760.848,508.384 699.109,522.075 639.296,530.818 500.341,522.075 417.339,538.181 
		340.031,516.094 282.854,510.263 229.794,530.818 122.128,514.254 73.356,522.075 20.82,511.292 33.787,427.753 73.356,399.226 
		129.49,397.385 174.581,413.489 263.687,395.545 362.307,402.962 442.326,399.226 530.674,379.901 591.645,395.23 660.888,439.557 
		713.635,478.161 	"/>
	<polygon fill="#F2F2F2" points="249.837,447.077 291.064,436.648 313.188,452.139 356.106,448.482 386.231,464 407.398,464 
		421.812,472.391 409.543,459 388.073,459 358.624,441.536 314.453,447.068 292.368,428.67 	"/>
	<polygon fill="#F2F2F2" points="588.066,444.778 616.9,452.215 621.194,475.338 644.507,482.681 654.937,497.513 675.289,498.561 
		680,508.384 680,494.009 656.885,493.704 646.401,476.581 623.675,472.231 619.981,450.453 	"/>
	<polygon fill="#F2F2F2" points="427.332,519.42 459.819,497.579 489.3,505.398 503.407,498.575 524.232,510.371 534.693,503 
		524.267,503 507.015,491.758 485.614,498.504 459.81,491.838 	"/>
	<polygon fill="#F2F2F2" points="51.575,479.132 45.439,463.774 73.598,450.185 71.186,431.914 100,424.994 100,411.188 
		94.497,420.086 64.143,426.222 66.905,446.157 38.074,463.698 	"/>
	<g>
		<polygon fill="#EBB49E" points="136.781,530.818 133.412,501.712 137.792,477.483 225.687,381.636 211.85,372.079 
			204.153,356.882 203.596,342.82 217.807,302.475 227.664,307.132 219.259,328.538 220.05,338.74 224.043,343.374 230.948,343.648 
			244.762,322.104 268.057,284.242 277.143,288.916 254.734,328.341 258.57,330.195 288.96,279.779 298.162,285.793 268.17,335.009 
			274.86,337.233 298.765,296.32 307.248,301.859 283.846,340.912 290.763,344.019 308.28,314.113 315.002,318.516 297.295,348.358 
			278.796,384.732 249.25,399.892 202.863,503.06 198.949,523.916 179.943,538.385 		"/>
	</g>
	<g>
		<polygon fill="#EBB49E" points="607.946,530.818 611.315,501.712 606.936,477.483 519.041,381.636 532.878,372.079 
			540.574,356.882 541.133,342.82 526.921,302.475 517.064,307.132 525.47,328.538 524.677,338.74 520.685,343.374 513.779,343.648 
			499.967,322.104 476.671,284.242 467.585,288.916 489.994,328.341 486.157,330.195 455.768,279.779 446.566,285.793 
			476.557,335.009 469.868,337.233 445.963,296.32 437.479,301.859 460.882,340.912 453.965,344.019 436.448,314.113 
			429.725,318.516 447.433,348.358 465.932,384.732 495.479,399.892 541.864,503.06 545.779,523.916 564.785,538.385 		"/>
	</g>
</g>
</svg>
