<?xml version="1.0" encoding="utf-8"?>
<!-- Generator: Adobe Illustrator 15.1.0, SVG Export Plug-In . SVG Version: 6.00 Build 0)  -->
<!DOCTYPE svg PUBLIC "-//W3C//DTD SVG 1.1//EN" "http://www.w3.org/Graphics/SVG/1.1/DTD/svg11.dtd">
<svg version="1.1" id="Calque_1" xmlns="http://www.w3.org/2000/svg" xmlns:xlink="http://www.w3.org/1999/xlink" x="0px" y="0px"
	 width="149.757px" height="299.884px" viewBox="0 0 149.757 299.884" enable-background="new 0 0 149.757 299.884"
	 xml:space="preserve">
<g>
	<path fill="#DE9D7E" d="M47.122,28.033c0,0-2.439,4.877,1.322,11.617l4.898,1.108l-2.104-12.176L47.122,28.033z"/>
	<polygon fill="#603813" points="24.938,296.158 32.386,291.657 51.739,293.25 55.835,296.713 56.605,285.752 61.726,269.646 
		62.236,245.207 70.181,219.237 69.851,209.692 76.262,206.392 83.113,209.692 84.253,223.544 85.786,263.535 90.909,281.587 
		91.165,296.713 102.674,291.109 111.624,289.744 119.912,291.657 127.867,296.158 126.543,276.626 130.855,247.931 
		128.204,211.311 133.176,192.751 131.534,164.413 21.274,164.413 25.425,201.222 22.7,215.696 26.089,242.472 23.81,255.579 
		26.419,275.262 24.744,289.204 	"/>
	<polygon fill="#E2A28A" points="20.861,164.413 131.555,164.413 131.483,95.56 122.165,71.717 100.415,70.413 55.761,70.413 
		19.871,73 20.837,95.849 	"/>
	<path fill="#C2AD94" d="M20.861,164.413h110.693l-0.071-68.853l-9.318-24.049l-21.75-1.459c0,0-9.868,11.974-22.822,11.974
		S55.761,70.013,55.761,70.013L19.871,72.8l0.966,22.949L20.861,164.413z"/>
	<polygon fill="#42210B" points="103.419,299.311 90.616,299.016 101.552,291.237 109.024,289.413 116.195,289.413 124.28,293.173 
		126.162,298.381 116.195,299.276 	"/>
	<polygon fill="#42210B" points="52.356,299.884 58.366,299.016 53.798,291.681 41.237,289.413 34.065,289.413 25.979,293.173 
		24.099,298.381 34.065,299.276 	"/>
	<path fill="#DE9D7E" d="M97.06,53.319l-2.031,17.405c0,0-4.606,4.578-16.99,4.578s-17.881-4.578-17.881-4.578l-2.031-16.856
		L97.06,53.319z"/>
	<polygon fill="#E8A990" points="100.53,18.413 101.405,25.524 99.472,61.603 81.478,67.444 68.903,65.886 53.343,60.377 
		50.968,26.955 52.28,18.413 	"/>
	<path fill="#DE9D7E" d="M105.101,28.033c0,0,3.506,4.877-0.256,11.617l-4.265,1.108l0.498-12.252L105.101,28.033z"/>
	<polygon fill="#DE9D7E" points="83.718,43.832 76.187,38.873 68.364,43.857 	"/>
	<polygon opacity="0.27" fill="#C1272D" points="85.003,51.851 79.805,54.413 71.867,54.413 65.989,51.913 72.903,51.413 
		78.78,51.413 	"/>
	<polygon fill="#DE9D7E" points="82.617,60.571 80.337,58.413 72.388,58.413 70.496,60.571 72.819,59.663 79.644,59.058 	"/>
	<path fill="#FFFFFF" d="M93.706,37.709c0.852-2.639-1.387-3.621-4.24-4.542c-2.854-0.921-5.243-1.433-6.096,1.206
		c-0.852,2.639,0.465,6.479,3.318,7.399C89.542,42.694,92.854,40.349,93.706,37.709z"/>
	<g>
		<circle fill="#603813" cx="87.991" cy="38.046" r="2.591"/>
		<circle fill="#333333" cx="87.877" cy="38.025" r="1.031"/>
		<circle fill="#FFFFFF" cx="87.013" cy="37.188" r="0.55"/>
	</g>
	<path fill="#FFFFFF" d="M59.298,37.709c-0.852-2.639,1.386-3.621,4.24-4.542c2.854-0.921,5.242-1.433,6.094,1.206
		c0.853,2.639-0.463,6.479-3.316,7.399C63.461,42.694,60.149,40.349,59.298,37.709z"/>
	<g>
		<circle fill="#603813" cx="65.012" cy="38.046" r="2.591"/>
		<circle fill="#333333" cx="65.125" cy="38.025" r="1.03"/>
		<circle fill="#FFFFFF" cx="65.99" cy="37.188" r="0.55"/>
	</g>
	<polygon fill="#8C6239" points="69.657,30.76 61.825,30.857 54.946,33.107 59.798,27.292 65.149,26.4 	"/>
	<polygon fill="#8C6239" points="81.946,30.76 89.778,30.857 96.657,33.107 91.806,27.292 86.454,26.4 	"/>
	<path fill="#8C6239" d="M50.968,50.83l-1.125,1.67l1.712,5.5l2.5,7.125l4.071,2.268l5.366,5l8.812,2.91l4.747-0.012l3.378,0.459
		l6.417-3.357l6.083-2.518L97.06,65l3.521-2.733l1.6-4.267l-0.774-4l-0.825-4l0.653-3.125l-0.818-3.018l0.165-3.099l-2.923,3.992
		l-3.769,3l-6.325,1.125L85.003,46.5l-5.573-1.125l-4.875-0.25l-4.666,0.75l-3.899,0.5l-0.978,2l-6.886-0.75L54.305,45.5l-1.5-2.804
		l-0.804-1.331l-2.158,3.01L50.968,50.83z M66.163,54.875l-1.662-1.556l-0.406-1.694l2.068-1.25l6.85-1.625l2.57,0.281l2.597-0.281
		l6.823,0.75l2.561,1.5l-0.717,3l-4.823,2l-5.837,0.25l-6.163-0.5L66.163,54.875z"/>
	<polygon fill="#8C6239" points="101.078,28.505 106.585,25.75 104.583,19.875 108.053,16.934 105.478,10.25 103.583,10.25 
		100.58,6.375 96.656,3.75 91.304,4.75 88.679,1.25 82.716,2.623 75.556,0 69.495,2.623 58.554,2.623 58.113,5.875 54.554,6.625 
		49.967,8.75 49.843,12.75 46.139,13.75 46.139,19.375 49.843,21.75 49.18,23.375 51.093,28.505 51.583,35.456 53.315,33.107 
		56.18,25.005 64.501,21.938 77.593,21.005 92.68,21.938 97.06,25.13 98.43,27.375 99.555,33.107 100.58,34.396 	"/>
	<polygon fill="#E8A990" points="0,118.801 4.208,95.569 11.038,78.792 19.977,72.337 30.22,71.016 37.376,77.673 38.154,88.175 
		36.251,97.515 28.646,114.478 19.128,123.606 22.566,129.487 28.409,161.716 35.222,162.515 38.77,164.809 41.798,166.773 
		47.091,174.623 44.009,175.325 41.388,171.04 39.107,169.668 37.29,169.554 35.751,170.48 36.325,173.562 39.374,181.406 
		36.455,181.998 32.894,174.052 31.688,174.318 35.809,184.979 32.587,185.393 28.63,174.963 26.731,175.575 30.281,183.948 
		27.313,184.329 24.042,176.298 21.914,176.814 24.558,182.693 22.202,182.996 15.921,171.592 17.431,162.518 3.296,135.832 
		3.746,130.868 0.333,125.471 	"/>
	<polygon fill="#C7B299" points="0,118.801 4.208,95.569 11.038,78.792 19.977,72.337 30.22,71.016 37.376,77.673 38.154,88.175 
		36.251,97.515 28.646,114.478 19.128,123.606 22.566,129.487 27.207,155.087 15.271,158.44 3.296,135.832 3.746,130.868 
		0.333,125.471 	"/>
	<g>
		<polygon fill="#E8A990" points="150.091,118.801 145.882,95.569 139.052,78.792 130.114,72.337 119.87,71.016 112.715,77.673 
			111.937,88.175 113.841,97.515 121.444,114.478 130.963,123.606 127.524,129.487 121.682,161.716 114.869,162.515 
			111.321,164.809 108.294,166.773 103,174.623 106.081,175.325 108.703,171.04 110.983,169.668 112.8,169.554 114.339,170.48 
			113.766,173.562 110.717,181.406 113.636,181.998 117.196,174.052 118.403,174.318 114.282,184.979 117.503,185.393 
			121.461,174.963 123.358,175.575 119.81,183.948 122.777,184.329 126.049,176.298 128.177,176.814 125.534,182.693 
			127.888,182.996 134.169,171.592 132.66,162.518 146.795,135.832 146.345,130.868 149.757,125.471 		"/>
		<polygon fill="#C7B299" points="150.091,118.801 145.882,95.569 139.052,78.792 130.114,72.337 119.87,71.016 112.715,77.673 
			111.937,88.175 113.841,97.515 121.444,114.478 130.963,123.606 127.524,129.487 122.884,155.087 134.82,158.44 146.795,135.832 
			146.345,130.868 149.757,125.471 		"/>
	</g>
</g>
</svg>
