<?xml version="1.0" encoding="utf-8"?>
<!-- Generator: Adobe Illustrator 15.1.0, SVG Export Plug-In . SVG Version: 6.00 Build 0)  -->
<!DOCTYPE svg PUBLIC "-//W3C//DTD SVG 1.1//EN" "http://www.w3.org/Graphics/SVG/1.1/DTD/svg11.dtd">
<svg version="1.1" id="Calque_1" xmlns="http://www.w3.org/2000/svg" xmlns:xlink="http://www.w3.org/1999/xlink" x="0px" y="0px"
	 width="800px" height="600px" viewBox="0 0 800 600" enable-background="new 0 0 800 600" xml:space="preserve">
<g>
	<rect fill="#009145" width="800" height="600"/>
	<polygon fill="#F7CA83" points="278,0 201,43 167,89 135,157 122.058,235.515 142,270 117,302 117,388.666 141,458.866 178,538 
		222,580 239,600 459,600 459,0 	"/>
	<polygon fill="#F7E0D6" points="357,65 280,97 237,150 228,236 249,272 228,307 234,381.462 251,456.963 288,505.462 348,555 
		400,554 459,560 459,44 405,53 	"/>
	<polygon fill="#F2F2F2" points="744,186 771,270 737,346 765,456 743,533.248 754,551.695 728,576.924 742,551.695 728,533.822 
		749.5,458 728,347 759,270 	"/>
	<polygon fill="#F7CA83" points="403.312,259.738 368.27,200.696 375.186,157.416 400.354,128.166 411.758,136.537 388.387,163.627 
		383.771,199.846 	"/>
	<polygon fill="#F7CA83" points="410.941,326.564 369.459,381.275 371.448,425.06 393.155,456.963 405.432,449.932 385.266,420.378 
		384.766,383.869 	"/>
	<polygon fill="#FAFAFA" points="800,0 455,0 390.014,19 419,102 369.459,219 400,368 380,416 430,476 412,498.824 439,555.295 
		443,585.246 459,594.605 454,600 800,600 	"/>
	<polygon fill="#F2F2F2" points="557,576.924 516,516.041 546,471.551 531,434 557,471.551 532,515.404 	"/>
	<polygon fill="#F2F2F2" points="581,353 625,224 603,185 613,160 592,100 606,51 603,99 620,159 612,185 637,224 	"/>
	<polygon fill="#F2F2F2" points="516,15 481,58 516,90 498.5,112 524,89 493,56 	"/>
	<polygon fill="#F2F2F2" points="508,212 467,280 502.5,373 474,281 	"/>
</g>
</svg>
