<?xml version="1.0" encoding="utf-8"?>
<!-- Generator: Adobe Illustrator 15.1.0, SVG Export Plug-In . SVG Version: 6.00 Build 0)  -->
<!DOCTYPE svg PUBLIC "-//W3C//DTD SVG 1.1//EN" "http://www.w3.org/Graphics/SVG/1.1/DTD/svg11.dtd">
<svg version="1.1" id="Calque_1" xmlns="http://www.w3.org/2000/svg" xmlns:xlink="http://www.w3.org/1999/xlink" x="0px" y="0px"
	 width="383px" height="656.912px" viewBox="0 0 383 656.912" enable-background="new 0 0 383 656.912" xml:space="preserve">
<polygon fill="#EBB49E" points="207.363,451.866 217.895,412.229 290.308,353.572 308.081,322.6 335.071,291.64 355.744,265.302 
	383,251.468 383,238.96 365.948,230.402 331.418,239.618 313.166,251.468 284.951,279.773 259.98,288.332 246.838,278.457 
	239.607,258.05 236.321,237.643 240.274,210.653 241.592,189.588 254.76,125.075 258.709,74.387 258.051,39.982 250.81,29.935 
	235.669,29.935 226.453,34.387 217.895,65.578 213.945,99.605 203.412,145.543 197.817,177.77 194.854,187.628 189.449,191.57 
	182.068,190.904 182.068,159.965 185.5,102.035 182.277,22.382 174.412,5.924 163.897,0 150.082,3.949 142.695,16.457 
	138.602,102.035 138.602,181.029 135.459,188.93 129.609,188.271 123.722,182.348 119.79,153.382 107.293,100.061 102.689,64.513 
	95.449,34.231 88.211,26.99 76.361,25.674 65.83,32.914 63.196,53.321 66.269,77.459 70.658,104.669 71.974,144.604 83.385,193.756 
	85.58,207.36 84.263,214.822 76.363,216.577 71.097,209.994 50.031,166.547 34.672,120.467 24.578,100.717 11.85,95.012 0,101.156 
	0,116.518 4.5,144.164 12.564,166.105 15.279,182.344 33.754,226.669 40.357,257.39 42.562,284.159 47.832,315.759 56.174,368.86 
	63.196,389.926 70.219,414.939 71.994,481.825 65,656.912 215,656.912 208.748,481.825 "/>
</svg>
