<?xml version="1.0" encoding="utf-8"?>
<!-- Generator: Adobe Illustrator 15.1.0, SVG Export Plug-In . SVG Version: 6.00 Build 0)  -->
<!DOCTYPE svg PUBLIC "-//W3C//DTD SVG 1.1//EN" "http://www.w3.org/Graphics/SVG/1.1/DTD/svg11.dtd">
<svg version="1.1" id="Calque_1" xmlns="http://www.w3.org/2000/svg" xmlns:xlink="http://www.w3.org/1999/xlink" x="0px" y="0px"
	 width="163.444px" height="45.779px" viewBox="0 0 163.444 45.779" enable-background="new 0 0 163.444 45.779"
	 xml:space="preserve">
<path opacity="0.7" fill="#FFFFFF" d="M2.516,45.779c-1.603-2-2.517-5.182-2.517-8.211c0-9.689,9.308-17.466,20.788-17.466
	c4.204,0,8.113,1.096,11.385,2.907C32.525,10.233,43.295,0,56.536,0c9.96,0,18.521,5.814,22.304,14.126
	c4.305-3.742,10.958-6.141,18.43-6.141c9.188,0,17.138,3.634,21.003,8.923c1.896-0.909,3.807-1.418,6.051-1.418
	c8.019,0,14.305,6.502,14.305,14.521c0,0.001,0,0.003,0,0.004c0-0.001,0.369-0.004,0.447-0.004c13.336,0,24.255,6.983,24.255,15.792
	c0,0.045,0.113-0.023,0.113-0.023H2.516z"/>
</svg>
