<?xml version="1.0" encoding="utf-8"?>
<!-- Generator: Adobe Illustrator 15.1.0, SVG Export Plug-In . SVG Version: 6.00 Build 0)  -->
<!DOCTYPE svg PUBLIC "-//W3C//DTD SVG 1.1//EN" "http://www.w3.org/Graphics/SVG/1.1/DTD/svg11.dtd">
<svg version="1.1" id="Calque_1" xmlns="http://www.w3.org/2000/svg" xmlns:xlink="http://www.w3.org/1999/xlink" x="0px" y="0px"
	 width="800px" height="600px" viewBox="0 0 800 600" enable-background="new 0 0 800 600" xml:space="preserve">
<rect y="255" fill="#009145" width="801" height="345"/>
<g>
	<rect fill="#464541" width="801" height="256"/>
	<rect opacity="0.28" fill="#FFFFFF" enable-background="new    " width="801" height="256"/>
</g>
<g>
	<g>
		<rect x="552" y="82" fill="#464541" width="33" height="85"/>
		<g>
			<path fill="#B8BF57" d="M574,97.955c-35,0-63.846-36.08-63.846-80.595c0-44.51,28.846-80.592,63.846-80.592V97.955z"/>
			<path fill="#868C4F" d="M566,97.955c37,0,63.842-36.08,63.842-80.595c0-44.51-26.842-80.592-63.842-80.592V97.955z"/>
		</g>
	</g>
	<g opacity="0.1">
		<path fill="#464541" d="M566,97.901v0.053c0,0,3.625-0.009,4-0.017c0.375,0.007,4,0.017,4,0.017v-0.053
			c34-1.501,60.734-36.986,60.734-80.542c0-9.272-1.684-18.179-3.977-26.477L506.852,24.038C509.496,64.489,539,96.476,566,97.901z"
			/>
	</g>
</g>
<g>
	<rect x="420" y="164" fill="#464541" width="35" height="48"/>
	<polygon fill="#B8BF57" points="468.802,29 492.164,29 437.122,-61.285 382.068,29 405.435,29 359.333,164 436.926,164 
		514.904,164 	"/>
	<polygon fill="#B8BF57" points="437.122,-59.884 382.068,29 405.435,29 359.333,164 436.926,164 	"/>
	<polygon fill="#868C4F" points="437.122,-59.884 492.164,29 468.802,29 514.904,164 436.926,164 	"/>
	<polygon opacity="0.1" fill="#464541" enable-background="new    " points="359.333,164 468.802,31.808 514.904,164 	"/>
</g>
<g>
	<polygon fill="#B8BF57" points="145,-144.205 67.996,76 145,76 	"/>
	<polygon fill="#868C4F" points="145,-143.691 223.376,76 145,76 	"/>
	<rect x="129" y="76" fill="#464541" width="32" height="53"/>
	<polygon opacity="0.1" fill="#464541" enable-background="new    " points="67.996,76 175.559,-61.1 223.376,76 	"/>
</g>
<g>
	<polygon fill="#D3D55A" points="519,-12.61 437.05,209 519,209 	"/>
	<polygon fill="#B8BF57" points="519,-12.61 592.427,209 519,209 	"/>
	<rect x="500" y="209" fill="#464541" width="30" height="48"/>
	<polygon opacity="0.1" fill="#464541" enable-background="new    " points="437.05,209 544.611,71.902 592.427,209 	"/>
</g>
<g>
	<polygon fill="#D3D55A" points="44,-50.094 -33.178,171 44,171 	"/>
	<polygon fill="#B8BF57" points="44,-50.094 122.201,171 44,171 	"/>
	<rect x="31" y="171" fill="#464541" width="27" height="51"/>
	<polygon opacity="0.1" fill="#464541" enable-background="new    " points="-33.178,171 74.381,33.901 122.201,171 	"/>
</g>
<g>
	<g>
		<rect x="99" y="203" fill="#464541" width="35" height="89"/>
		<g>
			<path fill="#D3D55A" d="M121,222.575c-32,0-63.849-36.084-63.849-80.598C57.151,97.467,89,61.386,121,61.386V222.575z"/>
			<path fill="#B8BF57" d="M116,222.575c38,0,63.849-36.084,63.849-80.598c0-44.51-25.849-80.591-63.849-80.591V222.575z"/>
		</g>
	</g>
	<g opacity="0.1">
		<path fill="#464541" d="M116,222.52v0.056c0,0,2.119-0.014,2.5-0.021c0.372,0.007,2.5,0.021,2.5,0.021v-0.056
			c33-1.503,61.523-36.986,61.523-80.542c0-9.275-1.294-18.182-3.587-26.477L55.949,148.653C58.593,189.107,89,221.092,116,222.52z"
			/>
	</g>
</g>
<g>
	<g>
		<polygon fill="#464541" points="730.609,161 692.491,161 692.511,96 730.629,96 		"/>
		<g>
			<path fill="#B8BF57" d="M715,111.953c-36,0-63.844-36.082-63.844-80.597c0-44.509,27.844-80.592,63.844-80.592V111.953z"/>
			<path fill="#868C4F" d="M713,111.953c35,0,63.842-36.082,63.842-80.597c0-44.509-28.842-80.592-63.842-80.592V111.953z"/>
		</g>
	</g>
	<g opacity="0.1">
		<path fill="#464541" d="M713,111.898v0.055c0,0,0.622-0.009,1-0.017c0.369,0.008,1,0.017,1,0.017v-0.055
			c36-1.5,61.288-36.985,61.288-80.542c0-9.275-1.405-18.181-3.701-26.478L651.262,38.034C653.908,78.486,679,110.471,713,111.898z"
			/>
	</g>
</g>
<g>
	<g>
		<rect x="302" y="105" fill="#464541" width="34" height="84"/>
		<g>
			<path fill="#D3D55A" d="M323,122.251c-35,0-63.847-36.084-63.847-80.598C259.153-2.855,288-38.939,323-38.939V122.251z"/>
			<path fill="#B8BF57" d="M318,122.251c35,0,63.848-36.084,63.848-80.598C381.848-2.855,353-38.939,318-38.939V122.251z"/>
		</g>
	</g>
	<g opacity="0.1">
		<path fill="#464541" d="M318,122.195v0.056c0,0,2.12-0.01,2.5-0.018c0.372,0.007,2.5,0.018,2.5,0.018v-0.056
			c30-1.504,60.589-36.986,60.589-80.542c0-9.273-1.762-18.18-4.058-26.478L257.245,48.332C259.89,88.783,288,120.768,318,122.195z"
			/>
	</g>
</g>
<g>
	<rect x="792" y="205" fill="#464541" width="32" height="49"/>
	<polygon fill="#B8BF57" points="839.447,72 862.811,72 807.769,-18.286 752.714,72 776.081,72 729.979,205 807.573,205 885.55,205 
			"/>
	<polygon fill="#B8BF57" points="807.769,-17.881 752.714,72 776.081,72 729.979,205 807.573,205 	"/>
	<polygon fill="#868C4F" points="807.769,-17.881 862.811,72 839.447,72 885.55,205 807.573,205 	"/>
	<polygon opacity="0.1" fill="#464541" enable-background="new    " points="729.979,205 839.447,72.809 885.55,205 	"/>
</g>
<g>
	<rect x="226" y="237" fill="#464541" width="34" height="19"/>
	<polygon fill="#B8BF57" points="274.705,104 298.069,104 243.028,13.714 187.974,104 211.339,104 165.236,237 242.831,237 
		320.808,237 	"/>
	<polygon fill="#B8BF57" points="243.028,14.118 187.974,104 211.339,104 165.236,237 242.831,237 	"/>
	<polygon fill="#868C4F" points="243.028,14.118 298.069,104 274.705,104 320.808,237 242.831,237 	"/>
	<polygon opacity="0.1" fill="#464541" enable-background="new    " points="165.236,237 274.705,104.81 320.808,237 	"/>
</g>
<g>
	
		<radialGradient id="SVGID_1_" cx="997.6279" cy="189.0039" r="378.2858" gradientTransform="matrix(1.2445 -0.0115 -0.0063 -0.4372 -212.802 493.1159)" gradientUnits="userSpaceOnUse">
		<stop  offset="0" style="stop-color:#000100;stop-opacity:0.4"/>
		<stop  offset="1" style="stop-color:#000100;stop-opacity:0"/>
	</radialGradient>
	<path fill="url(#SVGID_1_)" d="M1502.529,403.222c0,92.796-218.291,168.011-487.521,168.011
		c-269.3,0-487.591-75.215-487.591-168.011c0-92.787,218.291-167.997,487.591-167.997
		C1284.238,235.225,1502.529,310.435,1502.529,403.222z"/>
	<g>
		<path fill="#E5E6E5" d="M1310,372.071c0,0-144.055,40.161-306.135,40.161S718,372.071,718,372.071V-24h592V372.071z"/>
		<path opacity="0.27" fill="#333333" enable-background="new    " d="M1009,21.532c-33.582,0-68,27.219-68,60.794v327.938
			c30.335,1.97,44.709,2.688,65.715,2.688c20.672,0,29.954-0.718,70.285-3.282V82.326C1077,48.751,1042.578,21.532,1009,21.532z"/>
		<g>
			<path fill="#BCCBD4" d="M1128,107.812v40.521c0,0,27.434-0.797,54.867-6.203l-0.512-40.152
				C1156.223,107.064,1128,107.812,1128,107.812z"/>
			<path fill="#BCCBD4" d="M1246,130.761V90.234c0,0-23.502,7.246-57.969,11.088l1.142,40.074
				C1228.305,136.614,1246,130.761,1246,130.761z"/>
		</g>
		<g>
			<path fill="#BCCBD4" d="M1128,153.812v40.521c0,0,27.434-0.797,54.867-6.203l-0.512-40.152
				C1156.223,153.064,1128,153.812,1128,153.812z"/>
			<path fill="#BCCBD4" d="M1246,176.761v-40.526c0,0-23.502,7.246-57.969,11.088l1.142,40.074
				C1228.305,182.614,1246,176.761,1246,176.761z"/>
		</g>
		<g>
			<path fill="#BCCBD4" d="M891,107.812v40.521c0,0-27.434-0.797-54.867-6.203l0.512-40.152
				C862.777,107.064,891,107.812,891,107.812z"/>
			<path fill="#BCCBD4" d="M773,130.761V90.234c0,0,23.502,7.246,57.969,11.088l-1.142,40.074
				C790.695,136.614,773,130.761,773,130.761z"/>
		</g>
		<g>
			<path fill="#BCCBD4" d="M891,153.812v40.521c0,0-27.434-0.797-54.867-6.203l0.512-40.152
				C862.777,153.064,891,153.812,891,153.812z"/>
			<path fill="#BCCBD4" d="M773,176.761v-40.526c0,0,23.502,7.246,57.969,11.088l-1.142,40.074
				C790.695,182.614,773,176.761,773,176.761z"/>
		</g>
		<g opacity="0.1">
			<path fill="#464541" d="M1002.602-4.701C876.921-6.176,866.333-31.756,718-28.519v20.267C812.668,9,846.986,15.56,1002.602,15.56
				C1152.333,15.56,1246,9.379,1310-11.5v-20.256C1210.333-21.667,1131.667-3.187,1002.602-4.701z"/>
		</g>
		<path fill="#464541" d="M1347.024-26.605c0,0-163.156,30.904-345.716,30.904c-182.595,0-322.924-30.904-322.924-30.904
			l324.188-405.238L1347.024-26.605z"/>
		<path opacity="0.15" fill="#000100" enable-background="new    " d="M982.176-406.315l111.764,408.14
			C1224-4,1347.024-26.605,1347.024-26.605l-344.45-405.238L982.176-406.315z"/>
	</g>
</g>
<g>
	<g>
		<rect x="617" y="177" fill="#464541" width="35" height="86"/>
		<g>
			<path fill="#D3D55A" d="M636,192.604c-35,0-63.848-36.083-63.848-80.597c0-44.51,28.848-80.594,63.848-80.594V192.604z"/>
			<path fill="#B8BF57" d="M634,192.604c33,0,63.849-36.083,63.849-80.597c0-44.51-30.849-80.594-63.849-80.594V192.604z"/>
		</g>
	</g>
	<g opacity="0.1">
		<path fill="#464541" d="M634,192.549v0.056c0,0,0.619-0.01,1-0.017c0.373,0.007,1,0.017,1,0.017v-0.056
			c31-1.502,61.403-36.984,61.403-80.542c0-9.275-1.358-18.181-3.647-26.478l-121.402,33.154C575,159.137,601,191.123,634,192.549z"
			/>
	</g>
</g>
</svg>
