<?xml version="1.0" encoding="utf-8"?>
<!-- Generator: Adobe Illustrator 15.1.0, SVG Export Plug-In . SVG Version: 6.00 Build 0)  -->
<!DOCTYPE svg PUBLIC "-//W3C//DTD SVG 1.1//EN" "http://www.w3.org/Graphics/SVG/1.1/DTD/svg11.dtd">
<svg version="1.1" id="Calque_1" xmlns="http://www.w3.org/2000/svg" xmlns:xlink="http://www.w3.org/1999/xlink" x="0px" y="0px"
	 width="800px" height="600px" viewBox="0 0 800 600" enable-background="new 0 0 800 600" xml:space="preserve">
<g>
	<g>
		<rect fill="#8B6332" width="800" height="600"/>
		<rect opacity="0.35" width="800" height="600"/>
	</g>
	<rect opacity="0.2" width="800" height="600"/>
</g>
<rect x="42" y="47.976" fill="#A47343" width="724" height="310"/>
<rect x="413.97" y="417.329" fill="#A47343" width="340.948" height="145.986"/>
<circle fill="#C2ABE8" cx="471.75" cy="483.25" r="31.751"/>
<path opacity="0.78" fill="#BDCCD4" d="M471.75,445c-21.125,0-38.25,17.125-38.25,38.25s17.125,38.25,38.25,38.25
	S510,504.375,510,483.25S492.875,445,471.75,445z M472,488.664c-2.946,0-5.334-2.388-5.334-5.334c0-2.945,2.388-5.333,5.334-5.333
	c2.945,0,5.333,2.388,5.333,5.333C477.333,486.276,474.945,488.664,472,488.664z"/>
<circle fill="#CBB8EC" cx="568.833" cy="459.5" r="14.5"/>
<circle fill="#9168D6" cx="612.833" cy="465.5" r="8.497"/>
<circle fill="#6B36C4" cx="657.833" cy="494.5" r="3.833"/>
<circle fill="#7E4DCF" cx="571.833" cy="504.5" r="4.167"/>
<circle fill="#A583DD" cx="654.833" cy="447.5" r="12.167"/>
<circle fill="#B89DE4" cx="620.833" cy="515.5" r="19.834"/>
<g>
	<path fill="#FBB03B" d="M571.736,459.461c0-1.678-1.226-4.71-2.735-4.71s-2.735,3.032-2.735,4.71c0,1.68,1.226,3.04,2.735,3.04
		S571.736,461.141,571.736,459.461z"/>
	<path opacity="0.65" fill="#C1272D" d="M566.266,459c0,1.542,0.485,3.501,2.735,3.501c2.208,0,2.735-1.751,2.735-3.501
		c0,0-1.235,2-2.777,2S566.266,459,566.266,459z"/>
</g>
<g>
	<path fill="#FBB03B" d="M623.736,514.461c0-1.678-1.226-4.71-2.735-4.71s-2.735,3.032-2.735,4.71c0,1.68,1.226,3.04,2.735,3.04
		S623.736,516.141,623.736,514.461z"/>
	<path opacity="0.65" fill="#C1272D" d="M618.266,514c0,1.542,0.485,3.501,2.735,3.501c2.208,0,2.735-1.751,2.735-3.501
		c0,0-1.235,2-2.777,2S618.266,514,618.266,514z"/>
</g>
<g>
	<path fill="#FBB03B" d="M615.111,465.271c0-1.295-0.945-3.634-2.11-3.634s-2.11,2.339-2.11,3.634c0,1.296,0.945,2.345,2.11,2.345
		S615.111,466.566,615.111,465.271z"/>
	<path opacity="0.65" fill="#C1272D" d="M610.891,464.914c0,1.19,0.374,2.701,2.11,2.701c1.703,0,2.11-1.351,2.11-2.701
		c0,0-0.953,1.544-2.143,1.544S610.891,464.914,610.891,464.914z"/>
</g>
<g>
	<path fill="#FBB03B" d="M659.389,494.05c0-0.852-0.622-2.389-1.388-2.389s-1.388,1.537-1.388,2.389s0.622,1.541,1.388,1.541
		S659.389,494.901,659.389,494.05z"/>
	<path opacity="0.65" fill="#C1272D" d="M656.613,493.815c0,0.782,0.246,1.775,1.388,1.775c1.12,0,1.388-0.888,1.388-1.775
		c0,0-0.627,1.015-1.409,1.015C657.198,494.83,656.613,493.815,656.613,493.815z"/>
</g>
<g>
	<path fill="#FBB03B" d="M573.389,504.05c0-0.852-0.622-2.389-1.388-2.389s-1.388,1.537-1.388,2.389s0.622,1.541,1.388,1.541
		S573.389,504.901,573.389,504.05z"/>
	<path opacity="0.65" fill="#C1272D" d="M570.613,503.815c0,0.782,0.246,1.775,1.388,1.775c1.12,0,1.388-0.888,1.388-1.775
		c0,0-0.627,1.015-1.409,1.015C571.198,504.83,570.613,503.815,570.613,503.815z"/>
</g>
<g>
	<path fill="#FBB03B" d="M657.641,447.433c0-1.62-1.183-4.546-2.64-4.546s-2.64,2.926-2.64,4.546s1.183,2.933,2.64,2.933
		S657.641,449.053,657.641,447.433z"/>
	<path opacity="0.65" fill="#C1272D" d="M652.361,446.986c0,1.489,0.468,3.379,2.64,3.379c2.131,0,2.64-1.689,2.64-3.379
		c0,0-1.192,1.932-2.68,1.932C653.473,448.918,652.361,446.986,652.361,446.986z"/>
</g>
<rect x="694" y="473" fill="#8C6239" width="21" height="59"/>
<rect x="704" y="476" fill="#31185A" width="1" height="52"/>
<rect x="704" y="476" fill="#808080" width="1" height="18"/>
<rect x="704" y="494" fill="#F15A24" width="1" height="3"/>
<rect x="704" y="518" fill="#C7B299" width="1" height="10"/>
</svg>
