<?xml version="1.0" encoding="utf-8"?>
<!-- Generator: Adobe Illustrator 15.1.0, SVG Export Plug-In . SVG Version: 6.00 Build 0)  -->
<!DOCTYPE svg PUBLIC "-//W3C//DTD SVG 1.1//EN" "http://www.w3.org/Graphics/SVG/1.1/DTD/svg11.dtd">
<svg version="1.1" xmlns="http://www.w3.org/2000/svg" xmlns:xlink="http://www.w3.org/1999/xlink" x="0px" y="0px" width="800px"
	 height="600px" viewBox="0 0 800 600" enable-background="new 0 0 800 600" xml:space="preserve">
<g id="Calque_1">
	<polygon fill="#F7CA83" points="313.383,188.767 342.706,289.383 323.931,296.506 314.642,301.436 303.355,299.052 
		286.577,301.436 292.686,279.374 289.967,265.604 294.7,257.31 297.434,243.032 292.686,232.88 286.577,219.645 288.403,204.714 
		292.252,195.844 291.791,187.011 	"/>
	<polygon fill="#F7CA83" points="485.877,194.219 448.802,293.458 467.576,300.583 476.912,298.142 488.154,303.131 
		503.107,300.237 494.771,283.277 499.717,276.644 496.807,261.392 488.154,247.136 496.296,237.459 493.244,227.286 
		499.717,213.028 499.254,199.918 499.717,191.086 	"/>
	<path fill="#DE9D7E" d="M509.659,145.556c0,0,9.332,18.651-5.05,44.425l-18.732,4.239l8.043-46.565L509.659,145.556z"/>
	<polygon fill="#8C6239" points="549.811,1306.417 527.544,1286.522 469.683,1293.562 457.437,1308.871 455.133,1260.425 
		439.824,1189.236 438.296,1081.222 414.543,966.439 415.529,924.256 396.362,909.663 375.878,924.256 372.472,985.475 
		367.885,1162.231 352.569,1242.017 351.806,1308.871 317.394,1284.104 290.635,1278.067 265.855,1286.522 242.07,1306.417 
		246.029,1220.09 233.135,1093.258 241.062,931.406 226.198,848.816 231.107,723 560.765,723 548.357,886.248 556.507,950.507 
		546.371,1068.987 553.188,1126.996 545.385,1214.023 550.389,1275.663 	"/>
	<polygon fill="#E2A28A" points="562,723 231.045,723 231.259,419.246 259.117,312.812 324.148,306 457.657,306 564.962,318.769 
		562.075,419.859 	"/>
	<polygon fill="#42210B" points="307.518,1320.352 345.795,1319.049 313.102,1282.867 290.76,1273 269.318,1273 245.144,1291.419 
		239.52,1315.336 269.318,1319.745 	"/>
	<polygon fill="#42210B" points="452.54,1322.884 434.568,1319.049 448.229,1284.823 485.782,1273 507.228,1273 531.402,1291.419 
		537.023,1315.336 507.228,1319.745 	"/>
	<path fill="#DE9D7E" d="M318.685,242.259l7.77,66.563c0,0,17.615,17.509,64.973,17.509c47.362,0,68.386-17.509,68.386-17.509
		l7.764-64.465L318.685,242.259z"/>
	<polygon fill="#E8A990" points="305.409,107 302.064,135.077 314.495,268.709 378.273,296.057 426.359,290.208 477.738,262.164 
		494.955,140.523 489.933,107 	"/>
	<path fill="#DE9D7E" d="M287.933,145.556c0,0-13.405,18.651,0.979,44.425l18.738,4.239l-4.333-46.855L287.933,145.556z"/>
	<polygon fill="#DE9D7E" points="369.035,204.714 398.004,191.086 428.429,206.073 	"/>
	<g>
		<path fill="#FFFFFF" d="M420.406,175.829c3.171-10.46,26.867-17.545,33.045-16.948c6.192,0.605,11.316,3.683,11.586,8.867
			c0.269,5.188-5.125,12.911-9.281,14.954c-4.157,2.061-15.365,2.368-20.986,1.295C429.138,182.929,419.547,178.66,420.406,175.829z
			"/>
		<path fill="#603813" d="M433.049,172.375c0,5.475,4.432,9.908,9.907,9.908c5.469,0,9.912-4.433,9.912-9.908
			c0-5.471-4.443-9.909-9.912-9.909C437.48,162.466,433.049,166.904,433.049,172.375z"/>
		<path fill="#333333" d="M447.33,172.296c0,2.177-1.76,3.936-3.939,3.936c-2.174,0-3.944-1.759-3.944-3.936
			c0-2.173,1.771-3.94,3.944-3.94C445.57,168.356,447.33,170.123,447.33,172.296z"/>
		<path fill="#FFFFFF" d="M448.802,169.096c0,1.169-0.938,2.11-2.104,2.11c-1.173,0-2.106-0.941-2.106-2.11
			c0-1.161,0.934-2.114,2.106-2.114C447.864,166.982,448.802,167.935,448.802,169.096z"/>
	</g>
	<polygon opacity="0.27" fill="#C1272D" points="364.793,243.371 385.289,249 411.388,249 435.584,242.721 411.066,234 388.591,234 
			"/>
	<polygon fill="#DE9D7E" points="373.917,269.121 382.64,260 413.037,260 420.271,269.121 411.388,266.084 385.289,263.554 	"/>
	<polygon fill="#F7CA83" points="415.888,163.378 450.771,155.83 472.618,158.127 458.65,145.989 431.469,150.896 	"/>
	<polygon fill="#F7CA83" points="383.027,163.378 348.144,155.83 326.298,158.127 340.262,145.989 367.442,150.896 	"/>
	<path fill="#F7CA83" d="M494.955,101.546l-2.73-15.268l-32.066,2.543l-13.923-2.543l-22.284,2.543l-24.12,3.701l-24.121-3.701
		l-22.283-2.543l-13.922,2.543l-32.069-2.543l-1.519,9.673c0,0,4.072,3.309,4.072,4.832c0,1.528-4.58,6.873-4.58,6.873
		l-4.538,22.558l-9.294,11.315l0.62,4.527l11.119,1.307l8.029-11.877l-0.338,4.766l10.614-5.094l7.436-8.821l18.515,1.023
		l17.221-4.415l14.088,4.75l12.523-4.471l14.795,2.757l14.072-3.037l9.853,4.325l22.744-4.325l14.708,8.657l12.941,1.311
		l4.898,9.886l2.018,15.036l6.486-10.181l9.188-0.725v-11.786l-4.238-4.93c0,0-3.914-14.92-3.914-16.448
		C494.955,112.238,494.955,101.546,494.955,101.546z"/>
	<polygon fill="#F7CA83" points="455.572,261.392 455.572,252.227 452.868,247.107 452.868,232.88 447.33,223.208 446.235,213.539 
		439.446,210.488 428.429,210.488 417.396,210.488 398.729,206.409 379.68,210.488 368.652,210.488 357.63,210.488 350.84,213.539 
		349.746,223.208 344.211,232.88 344.211,247.107 341.501,252.227 341.501,261.392 335.304,277.556 345.025,281.731 
		350.375,274.116 352.487,265.604 350.84,255.282 354.375,249.171 357.63,236.313 357.63,229.318 364.027,227.79 373.573,225.248 
		381.207,226.264 390.372,221.685 398.729,222.274 406.708,221.685 415.873,226.264 423.506,225.248 433.049,227.79 
		439.446,229.318 439.446,236.313 442.702,249.171 446.235,255.282 444.592,265.604 446.698,269.817 451.177,276.644 
		458.448,272.678 	"/>
	<g>
		<path fill="#FFFFFF" d="M375.403,175.829c-3.171-10.46-26.863-17.545-33.041-16.948c-6.194,0.605-11.32,3.683-11.589,8.867
			c-0.27,5.188,5.124,12.911,9.283,14.954c4.158,2.061,15.366,2.368,20.983,1.295C366.673,182.929,376.267,178.66,375.403,175.829z"
			/>
		<path fill="#603813" d="M343.457,172.375c0,5.475,4.433,9.908,9.907,9.908c5.468,0,9.911-4.433,9.911-9.908
			c0-5.471-4.443-9.909-9.911-9.909C347.89,162.466,343.457,166.904,343.457,172.375z"/>
		<path fill="#333333" d="M357.74,172.296c0,2.177-1.762,3.936-3.946,3.936c-2.171,0-3.937-1.759-3.937-3.936
			c0-2.173,1.766-3.94,3.937-3.94C355.979,168.356,357.74,170.123,357.74,172.296z"/>
		<path fill="#FFFFFF" d="M359.21,169.096c0,1.169-0.938,2.11-2.101,2.11c-1.172,0-2.108-0.941-2.108-2.11
			c0-1.161,0.937-2.114,2.108-2.114C358.272,166.982,359.21,167.935,359.21,169.096z"/>
	</g>
	<g>
		<g>
			<path fill="#E6E6E6" d="M496.086,70.801l-35.031-30.236l-60.236-17.583l-60.239,17.583l-35.03,30.236l-3.732,57.877
				c0,0,37.524-12.201,99.002-12.201c61.474,0,98.999,12.201,98.999,12.201L496.086,70.801z"/>
			<path fill="#D7A265" d="M400.818,99.171c-55.555,0-91.441,9.934-97.864,11.854l-1.138,17.654c0,0,37.524-12.201,99.002-12.201
				c61.474,0,98.999,12.201,98.999,12.201l-1.139-17.654C492.258,109.105,456.364,99.171,400.818,99.171z"/>
		</g>
		<path fill="#D7A265" d="M400.816,87.716c52.187,0,87.733,8.795,97.101,11.455l-1.132-17.523
			c-11.559-3.122-46.788-11.238-95.969-11.238s-84.409,8.048-95.964,11.17l-1.133,17.591
			C313.084,96.511,348.633,87.716,400.816,87.716z"/>
	</g>
	<polygon fill="#754C24" points="286.577,365.328 412.399,376.802 442.698,365.328 499.254,371.065 503.107,416.957 
		508.008,481.016 529.998,508.742 525.075,575.68 540.021,611.043 535.734,667.452 529.998,720.992 546.252,845.284 
		467.576,865.362 423.872,851.978 406.663,860.582 347.385,843.373 292.889,857.715 270.898,872.055 218.313,872.055 
		246.04,807.784 239.536,729.599 254.013,626.341 275.005,578.536 264.206,546.029 275.005,491.533 282.371,446.597 	"/>
	<polygon fill="#603813" points="296.254,305.054 330.439,401.429 306.615,405.769 275.005,307.239 	"/>
	<polygon fill="#603813" points="303.146,565.402 302.175,589.867 232.001,590.499 230.745,564.941 	"/>
	<polygon fill="#603813" points="566.994,563.796 566.965,585.084 493.834,587.447 491.635,565.068 	"/>
	<polygon fill="#603813" points="491.822,306.813 459.644,404.125 482.709,408.905 512.314,309.439 	"/>
	<g>
		<polygon fill="#E8A990" points="656.135,504.502 627.848,407.028 596.442,338.41 566.086,314.973 535.505,314.119 519.4,345.97 
			519.094,393.013 526.286,446.236 560.253,505.62 595.533,537.16 584.445,561.511 589.443,592.5 610,608 642.5,600 
			658.395,578.951 653.652,557.914 659.792,533.211 		"/>
	</g>
	<g>
		<polygon fill="#E8A990" points="144.789,504.502 173.076,407.028 204.481,338.41 234.838,314.973 265.419,314.119 281.523,345.97 
			281.83,393.013 274.638,446.236 240.671,505.62 205.391,537.16 216.479,561.511 211.48,592.5 190.924,608 158.424,600 
			142.529,578.951 147.271,557.914 141.132,533.211 		"/>
	</g>
</g>
<g id="Calque_3">
	<polygon fill="#EBB49E" points="773.107,586.638 831,577.798 843,582.141 822.09,590.519 788,600.01 784,613.159 773.107,619 
		757,619 750,600 734,587.447 	"/>
	<polygon fill="#F7CA83" points="33.983,582.08 42,628 37.992,657 42,690 42,723 103,723 124,723 124,699 124,664 118,642 
		116,618.691 130,608 121.019,583.119 91,553 	"/>
	<polygon fill="#FFFFFF" points="822.09,575.621 755,590.499 690,600 539,590.499 448.802,608 364.793,584 302.659,577.662 245,600 
		128,582 75,590.499 17.91,578.781 32,488 75,457 136,455 185,472.5 281.83,453 389,461.06 475.955,457 571.962,436 
		638.219,452.659 713.465,500.827 770.784,542.777 	"/>
	<polygon fill="#F2F2F2" points="266.781,509 311.582,497.667 335.623,514.5 382.262,510.333 414.998,527 438,527 453.664,536.334 
		440.331,522 417,522 384.998,503.001 336.998,509.001 312.998,489.001 	"/>
	<polygon fill="#F2F2F2" points="634.33,506.502 665.664,514.583 670.33,539.71 695.664,547.689 706.997,563.807 728.997,564.946 
		734,575.621 734,560 708.997,559.669 697.664,541.062 672.997,536.334 668.997,512.668 	"/>
	<polygon fill="#F2F2F2" points="459.662,587.613 494.965,563.879 527.001,572.377 542.332,564.962 564.963,577.896 576.33,570 
		565,570 546.252,557.669 522.996,564.941 494.955,557.669 	"/>
	<polygon fill="#F2F2F2" points="51.331,543.834 44.664,527.145 75.263,512.377 72.665,492.522 104,485.002 104,470 97.996,479.669 
		65,486.336 67.996,508 36.663,527.062 	"/>
</g>
<g id="Calque_2">
	<g>
		<polygon fill="#EBB49E" points="657,600 660.661,568.371 655.901,542.042 560.388,437.886 572.376,421.526 572.973,407.146 
			573.46,394.848 561.03,359.56 552.409,363.633 559.761,382.355 559.068,391.279 555.576,395.332 549.536,395.571 541.479,384.777 
			524.323,354.076 516.376,358.164 532.757,390.231 529.401,391.854 506.04,350.172 497.992,355.433 521.004,396.063 
			515.153,398.01 497.465,364.64 490.045,369.484 507.294,401.227 501.244,403.944 489.143,380.202 483.263,384.053 495.53,407.739 
			504.291,432.447 534.782,457.724 585.189,569.835 589.443,592.5 610.097,608.223 		"/>
	</g>
	<g>
		<polygon fill="#EBB49E" points="143.924,600 140.263,568.371 145.022,542.042 240.536,437.886 228.548,421.526 227.951,407.146 
			227.464,394.848 239.894,359.56 248.515,363.633 241.163,382.355 241.855,391.279 245.348,395.332 251.388,395.571 
			259.445,384.777 276.601,354.076 284.548,358.164 268.167,390.231 271.522,391.854 294.884,350.172 302.932,355.433 
			279.92,396.063 285.771,398.01 303.459,364.64 310.879,369.484 293.63,401.227 299.68,403.944 311.781,380.202 317.661,384.053 
			305.394,407.739 296.633,432.447 266.142,457.724 215.734,569.835 211.48,592.5 190.827,608.223 		"/>
	</g>
</g>
</svg>
