<?xml version="1.0" encoding="utf-8"?>
<!-- Generator: Adobe Illustrator 15.1.0, SVG Export Plug-In . SVG Version: 6.00 Build 0)  -->
<!DOCTYPE svg PUBLIC "-//W3C//DTD SVG 1.1//EN" "http://www.w3.org/Graphics/SVG/1.1/DTD/svg11.dtd">
<svg version="1.1" xmlns="http://www.w3.org/2000/svg" xmlns:xlink="http://www.w3.org/1999/xlink" x="0px" y="0px" width="800px"
	 height="600px" viewBox="0 0 800 600" enable-background="new 0 0 800 600" xml:space="preserve">
<g id="Calque_1">
	<rect fill="#CEECF2" width="800" height="600"/>
	<g>
		<polygon fill="#B4DCED" points="606.917,14.837 660.881,-11.387 696.949,10.707 746.233,-3.334 769.361,14.837 783.561,4.306 
			791.938,14.837 800,0 800,80.868 606.917,65.427 		"/>
		<polygon fill="#91C9E8" points="660.881,-11.387 696.949,10.707 717.26,4.92 		"/>
		<polygon fill="#91C9E8" points="746.233,-3.334 769.361,14.837 779.254,7.5 		"/>
		<polygon fill="#91C9E8" points="783.561,4.306 791.938,14.837 796.018,7.329 		"/>
	</g>
	<g>
		<polygon fill="#B4DCED" points="167.307,65.427 0,63.953 0,14.837 27.99,-3.334 77.274,10.707 113.342,-11.387 167.307,14.837 		
			"/>
		<polygon fill="#91C9E8" points="56.964,4.92 77.274,10.707 113.342,-11.387 		"/>
		<polygon fill="#91C9E8" points="0,5.85 0,14.837 27.99,-3.334 		"/>
	</g>
	<polygon fill="#91C9E8" points="512.203,-11.387 545.386,18.141 558.7,7.28 	"/>
	<polygon fill="#B4DCED" points="166.389,14.837 220.354,-11.387 256.422,10.707 305.706,-3.334 328.834,14.837 343.033,4.306 
		351.411,14.837 388.448,-11.387 426.38,18.141 452.266,0.383 490.728,12.359 512.203,-11.387 545.386,18.141 581.586,-11.387 
		606.916,14.011 606.916,70.554 166.389,74.436 	"/>
	<g>
		<polygon fill="#E8F8FF" points="476.135,84.63 510,32.595 521.974,46.636 545.386,0.383 567.27,55.722 579.383,48.288 
			596.729,81.326 		"/>
		<polygon fill="#BBE5F3" points="510,32.595 521.974,46.636 526.887,36.931 		"/>
		<polygon fill="#BBE5F3" points="567.27,55.722 545.386,0.383 574.119,51.519 		"/>
		<polygon fill="#BBE5F3" points="579.383,48.288 596.729,81.326 604.163,71.773 		"/>
	</g>
	<g>
		<polygon fill="#E8F8FF" points="734.863,83.141 687.796,31.361 670.806,50.138 632.981,1.872 594.251,79.127 		"/>
		<polygon fill="#BBE5F3" points="739.011,65.177 734.863,83.141 687.796,31.361 		"/>
		<polygon fill="#BBE5F3" points="680.705,39.197 670.806,50.138 632.981,1.872 		"/>
	</g>
	<g>
		<polygon fill="#BBE5F3" points="169.055,72.654 150.663,75.751 116.798,23.716 		"/>
		<polygon fill="#E8F8FF" points="30.068,72.447 47.415,39.409 59.528,46.843 81.412,-8.496 104.824,37.757 116.798,23.716 
			150.663,75.751 		"/>
		<polygon fill="#BBE5F3" points="111.465,29.97 81.412,-8.496 104.824,37.757 		"/>
		<polygon fill="#BBE5F3" points="59.528,46.843 60.853,43.494 47.415,39.409 		"/>
	</g>
	
		<linearGradient id="SVGID_1_" gradientUnits="userSpaceOnUse" x1="331.4526" y1="258.0215" x2="426.1846" y2="258.0215" gradientTransform="matrix(1 0 0 -1 4 596)">
		<stop  offset="0" style="stop-color:#E7FAFB"/>
		<stop  offset="1" style="stop-color:#E7FAFB"/>
	</linearGradient>
	<path fill="url(#SVGID_1_)" d="M366.071,182.121c12.409-51.69,27.746-58.159,29.087-72.39s-13.624-33.773-13.624-33.773h9.279
		c0,0,12.619,17.155,13.188,39.681c0.568,22.525-15.336,60.071-15.699,69.878C386.575,232.225,386.652,305,430.185,600h-94.732
		C335.453,600,346.277,264.569,366.071,182.121z"/>
	<polygon fill="#91C9E8" points="220.354,-11.387 256.422,10.707 276.732,4.92 	"/>
	<polygon fill="#91C9E8" points="305.706,-3.334 328.834,14.837 338.726,7.5 	"/>
	<polygon fill="#91C9E8" points="343.033,4.306 351.411,14.837 360.349,8.508 	"/>
	<polygon fill="#91C9E8" points="388.448,-11.387 426.38,18.141 440.208,8.654 	"/>
	<polygon fill="#91C9E8" points="452.266,0.383 490.728,12.359 494.273,8.439 	"/>
	<polygon fill="#91C9E8" points="581.586,-11.387 606.916,14.011 619.64,8.654 	"/>
	<g>
		<polygon fill="#E8F8FF" points="144.167,76.577 185.464,-11.387 211.894,47.668 230.064,31.562 242.454,57.373 267.446,4.306 
			322.618,80.293 		"/>
		<polygon fill="#BBE5F3" points="248.532,44.468 230.064,31.562 242.454,57.373 		"/>
		<polygon fill="#BBE5F3" points="211.894,47.668 185.464,-11.387 224.707,36.312 		"/>
		<polygon fill="#BBE5F3" points="339.847,61.127 267.446,4.306 322.618,80.293 		"/>
	</g>
	<g>
		<polygon fill="#E8F8FF" points="422.831,75.958 416.921,-3.334 376.19,42.506 349.439,31.356 310.217,71.494 		"/>
		<polygon fill="#BBE5F3" points="349.439,31.356 385.029,32.56 376.19,42.506 		"/>
		<polygon fill="#BBE5F3" points="416.921,-3.334 422.831,75.958 461.727,69.938 		"/>
	</g>
	<g>
		<polygon fill="#E8F8FF" points="426.38,88.586 456.985,34.453 465.179,96.399 		"/>
		<polygon fill="#BBE5F3" points="497.072,84.68 456.985,34.453 465.179,96.399 		"/>
	</g>
	<g>
		<polygon fill="#E8F8FF" points="-5.278,78.881 25.328,24.749 33.521,86.695 		"/>
		<polygon fill="#BBE5F3" points="65.415,74.975 25.328,24.749 33.521,86.695 		"/>
	</g>
	<g>
		<polygon fill="#E8F8FF" points="307.626,77.609 336.268,40.854 330.486,82.236 		"/>
		<polygon fill="#BBE5F3" points="357.193,75.958 336.268,40.854 330.486,82.236 		"/>
	</g>
	<g>
		<polygon fill="#E8F8FF" points="716.866,86.424 768.623,20.009 758.174,94.785 		"/>
		<polygon fill="#BBE5F3" points="806.434,83.44 768.623,20.009 758.174,94.785 		"/>
	</g>
	<g>
		<rect x="203.834" y="85.548" fill="#464541" width="1.652" height="3.304"/>
		<polygon fill="#B4DCED" points="206.604,77.839 208.054,77.839 204.637,72.233 201.219,77.839 202.669,77.839 199.807,85.548 
			204.625,85.548 209.466,85.548 		"/>
		<polygon fill="#459DBF" points="204.637,71.895 201.219,77.839 202.669,77.839 199.807,85.548 204.625,85.548 		"/>
		<polygon fill="#3285A6" points="204.637,71.895 208.054,77.839 206.604,77.839 209.466,85.548 204.625,85.548 		"/>
		<polygon opacity="0.1" fill="#464541" enable-background="new    " points="199.807,85.548 206.665,77.341 209.466,85.548 		"/>
	</g>
	<g>
		<rect x="246.786" y="224.315" fill="#464541" width="6.057" height="10.463"/>
		<polygon fill="#B4DCED" points="255.771,198.984 260.149,198.984 249.834,182.067 239.519,198.984 243.897,198.984 
			235.258,224.315 249.798,224.315 264.41,224.315 		"/>
		<polygon fill="#459DBF" points="249.834,182.075 239.519,198.984 243.897,198.984 235.258,224.315 249.798,224.315 		"/>
		<polygon fill="#3285A6" points="249.834,182.075 260.149,198.984 255.771,198.984 264.41,224.315 249.798,224.315 		"/>
		<polygon opacity="0.1" fill="#464541" enable-background="new    " points="235.258,224.315 255.956,199.544 264.41,224.315 		"/>
	</g>
	<g>
		<rect x="279.825" y="387.86" fill="#464541" width="13.767" height="23.128"/>
		<polygon fill="#B4DCED" points="299.997,331.143 309.781,331.143 286.728,293.334 263.676,331.143 273.46,331.143 254.153,387.86 
			286.648,387.86 319.303,387.86 		"/>
		<polygon fill="#459DBF" points="286.728,293.407 263.676,331.143 273.46,331.143 254.153,387.86 286.648,387.86 		"/>
		<polygon fill="#3285A6" points="286.728,293.407 309.781,331.143 299.997,331.143 319.303,387.86 286.648,387.86 		"/>
		<polygon opacity="0.1" fill="#464541" enable-background="new    " points="254.153,387.86 300.41,332.502 319.303,387.86 		"/>
	</g>
	<g>
		<rect x="307.909" y="177.509" fill="#464541" width="3.855" height="7.159"/>
		<polygon fill="#B4DCED" points="314.013,158.786 317.284,158.786 309.578,146.148 301.872,158.786 305.143,158.786 
			298.688,177.509 309.551,177.509 320.466,177.509 		"/>
		<polygon fill="#459DBF" points="309.578,146.054 301.872,158.786 305.143,158.786 298.688,177.509 309.551,177.509 		"/>
		<polygon fill="#3285A6" points="309.578,146.054 317.284,158.786 314.013,158.786 320.466,177.509 309.551,177.509 		"/>
		<polygon opacity="0.1" fill="#464541" enable-background="new    " points="298.688,177.509 314.151,159.004 320.466,177.509 		
			"/>
	</g>
	<g>
		<rect x="263.856" y="124.095" fill="#464541" width="2.203" height="4.956"/>
		<polygon fill="#B4DCED" points="267.81,111.429 269.946,111.429 264.913,103.175 259.879,111.429 262.016,111.429 257.8,124.095 
			264.895,124.095 272.024,124.095 		"/>
		<polygon fill="#459DBF" points="264.913,103.332 259.879,111.429 262.016,111.429 257.8,124.095 264.895,124.095 		"/>
		<polygon fill="#3285A6" points="264.913,103.332 269.946,111.429 267.81,111.429 272.024,124.095 264.895,124.095 		"/>
		<polygon opacity="0.1" fill="#464541" enable-background="new    " points="257.8,124.095 267.9,112.008 272.024,124.095 		"/>
	</g>
	<g>
		<rect x="169.143" y="126.297" fill="#464541" width="2.203" height="4.956"/>
		<polygon fill="#B4DCED" points="173.097,113.632 175.232,113.632 170.2,105.377 165.166,113.632 167.303,113.632 163.087,126.297 
			170.182,126.297 177.311,126.297 		"/>
		<polygon fill="#459DBF" points="170.2,105.534 165.166,113.632 167.303,113.632 163.087,126.297 170.182,126.297 		"/>
		<polygon fill="#3285A6" points="170.2,105.534 175.232,113.632 173.097,113.632 177.311,126.297 170.182,126.297 		"/>
		<polygon opacity="0.1" fill="#464541" enable-background="new    " points="163.087,126.297 173.187,114.211 177.311,126.297 		
			"/>
	</g>
	<g>
		<rect x="248.988" y="98.214" fill="#464541" width="1.652" height="3.304"/>
		<polygon fill="#B4DCED" points="251.961,89.954 253.413,89.954 249.995,84.348 246.577,89.954 248.028,89.954 245.165,98.214 
			249.983,98.214 254.825,98.214 		"/>
		<polygon fill="#459DBF" points="249.995,84.285 246.577,89.954 248.028,89.954 245.165,98.214 249.983,98.214 		"/>
		<polygon fill="#3285A6" points="249.995,84.285 253.413,89.954 251.961,89.954 254.825,98.214 249.983,98.214 		"/>
		<polygon opacity="0.1" fill="#464541" enable-background="new    " points="245.165,98.214 252.023,90.006 254.825,98.214 		"/>
	</g>
	<g>
		<rect x="312.865" y="113.632" fill="#464541" width="2.202" height="3.854"/>
		<polygon fill="#B4DCED" points="316.16,103.72 317.898,103.72 313.802,97.001 309.705,103.72 311.444,103.72 308.012,113.632 
			313.788,113.632 319.59,113.632 		"/>
		<polygon fill="#459DBF" points="313.802,96.93 309.705,103.72 311.444,103.72 308.012,113.632 313.788,113.632 		"/>
		<polygon fill="#3285A6" points="313.802,96.93 317.898,103.72 316.16,103.72 319.59,113.632 313.788,113.632 		"/>
		<polygon opacity="0.1" fill="#464541" enable-background="new    " points="308.012,113.632 316.233,103.794 319.59,113.632 		"/>
	</g>
	<g>
		<rect x="240.178" y="85.548" fill="#464541" width="2.203" height="2.753"/>
		<polygon fill="#91C9E8" points="243.159,77.289 244.538,77.289 241.289,71.959 238.04,77.289 239.419,77.289 236.698,85.548 
			241.278,85.548 245.88,85.548 		"/>
		<polygon fill="#147DA5" points="241.289,72.131 238.04,77.289 239.419,77.289 236.698,85.548 241.278,85.548 		"/>
		<polygon fill="#00557C" points="241.289,72.131 244.538,77.289 243.159,77.289 245.88,85.548 241.278,85.548 		"/>
		<polygon opacity="0.4" fill="#464541" enable-background="new    " points="236.698,85.548 243.236,77.853 245.88,85.548 		"/>
	</g>
	<g>
		<rect x="273.768" y="97.112" fill="#464541" width="2.203" height="3.304"/>
		<polygon fill="#91C9E8" points="276.62,88.853 277.999,88.853 274.75,83.523 271.501,88.853 272.88,88.853 270.159,97.112 
			274.739,97.112 279.341,97.112 		"/>
		<polygon fill="#147DA5" points="274.75,83.695 271.501,88.853 272.88,88.853 270.159,97.112 274.739,97.112 		"/>
		<polygon fill="#00557C" points="274.75,83.695 277.999,88.853 276.62,88.853 279.341,97.112 274.739,97.112 		"/>
		<polygon opacity="0.4" fill="#464541" enable-background="new    " points="270.159,97.112 276.696,89.417 279.341,97.112 		"/>
	</g>
	<g>
		<rect x="184.561" y="87.201" fill="#464541" width="2.203" height="3.304"/>
		<polygon fill="#91C9E8" points="187.414,78.941 188.792,78.941 185.543,73.611 182.294,78.941 183.673,78.941 180.952,87.201 
			185.532,87.201 190.134,87.201 		"/>
		<polygon fill="#147DA5" points="185.543,73.783 182.294,78.941 183.673,78.941 180.952,87.201 185.532,87.201 		"/>
		<polygon fill="#00557C" points="185.543,73.783 188.792,78.941 187.414,78.941 190.134,87.201 185.532,87.201 		"/>
		<polygon opacity="0.4" fill="#464541" enable-background="new    " points="180.952,87.201 187.49,79.505 190.134,87.201 		"/>
	</g>
	<g>
		<rect x="224.208" y="190.725" fill="#464541" width="4.956" height="6.608"/>
		<polygon fill="#91C9E8" points="230.91,170.35 234.24,170.35 226.392,157.479 218.544,170.35 221.876,170.35 215.303,190.725 
			226.365,190.725 237.482,190.725 		"/>
		<polygon fill="#147DA5" points="226.392,158.106 218.544,170.35 221.876,170.35 215.303,190.725 226.365,190.725 		"/>
		<polygon fill="#00557C" points="226.392,158.106 234.24,170.35 230.91,170.35 237.482,190.725 226.365,190.725 		"/>
		<polygon opacity="0.4" fill="#464541" enable-background="new    " points="215.303,190.725 231.094,172.137 237.482,190.725 		
			"/>
	</g>
	<g>
		<rect x="251.742" y="148.324" fill="#464541" width="3.304" height="5.506"/>
		<polygon fill="#91C9E8" points="256.787,132.354 259.467,132.354 253.151,121.995 246.834,132.354 249.516,132.354 
			244.226,148.324 253.129,148.324 262.077,148.324 		"/>
		<polygon fill="#147DA5" points="253.151,122.284 246.834,132.354 249.516,132.354 244.226,148.324 253.129,148.324 		"/>
		<polygon fill="#00557C" points="253.151,122.284 259.467,132.354 256.787,132.354 262.077,148.324 253.129,148.324 		"/>
		<polygon opacity="0.4" fill="#464541" enable-background="new    " points="244.226,148.324 256.936,133.364 262.077,148.324 		
			"/>
	</g>
	<g>
		<rect x="288.635" y="115.835" fill="#464541" width="2.754" height="4.405"/>
		<polygon fill="#91C9E8" points="292.334,104.271 294.243,104.271 289.746,96.893 285.247,104.271 287.156,104.271 
			283.389,115.835 289.729,115.835 296.102,115.835 		"/>
		<polygon fill="#147DA5" points="289.746,97.196 285.247,104.271 287.156,104.271 283.389,115.835 289.729,115.835 		"/>
		<polygon fill="#00557C" points="289.746,97.196 294.243,104.271 292.334,104.271 296.102,115.835 289.729,115.835 		"/>
		<polygon opacity="0.4" fill="#464541" enable-background="new    " points="283.389,115.835 292.44,105.181 296.102,115.835 		"/>
	</g>
	<g>
		<rect x="312.314" y="227.619" fill="#464541" width="6.057" height="8.811"/>
		<polygon fill="#91C9E8" points="321.021,202.289 325.252,202.289 315.284,185.938 305.314,202.289 309.546,202.289 
			301.197,227.619 315.249,227.619 329.371,227.619 		"/>
		<polygon fill="#147DA5" points="315.284,186.458 305.314,202.289 309.546,202.289 301.197,227.619 315.249,227.619 		"/>
		<polygon fill="#00557C" points="315.284,186.458 325.252,202.289 321.021,202.289 329.371,227.619 315.249,227.619 		"/>
		<polygon opacity="0.4" fill="#464541" enable-background="new    " points="301.197,227.619 321.255,204.008 329.371,227.619 		
			"/>
	</g>
	<g>
		<rect x="190.068" y="370.239" fill="#464541" width="13.216" height="19.273"/>
		<polygon fill="#91C9E8" points="208.943,314.623 218.234,314.623 196.342,278.712 174.446,314.623 183.739,314.623 
			165.404,370.239 196.265,370.239 227.28,370.239 		"/>
		<polygon fill="#147DA5" points="196.342,279.847 174.446,314.623 183.739,314.623 165.404,370.239 196.265,370.239 		"/>
		<polygon fill="#00557C" points="196.342,279.847 218.234,314.623 208.943,314.623 227.28,370.239 196.265,370.239 		"/>
		<polygon opacity="0.4" fill="#464541" enable-background="new    " points="165.404,370.239 209.456,318.384 227.28,370.239 		"/>
	</g>
	<g>
		<polygon fill="#147DA5" points="265.508,72.181 260.137,86.65 265.508,86.65 		"/>
		<polygon fill="#00557C" points="265.508,72.213 270.274,86.65 265.508,86.65 		"/>
		<rect x="264.407" y="86.65" fill="#464541" width="1.652" height="3.304"/>
		<polygon opacity="0.4" fill="#464541" enable-background="new    " points="260.137,86.65 267.155,77.706 270.274,86.65 		"/>
	</g>
	<g>
		<polygon fill="#147DA5" points="309.561,77.014 304.38,91.606 309.561,91.606 		"/>
		<polygon fill="#00557C" points="309.561,77.047 314.517,91.606 309.561,91.606 		"/>
		<rect x="308.459" y="91.606" fill="#464541" width="1.652" height="2.753"/>
		<polygon opacity="0.4" fill="#464541" enable-background="new    " points="304.38,91.606 311.397,82.662 314.517,91.606 		"/>
	</g>
	<g>
		<polygon fill="#147DA5" points="209.341,84.449 204.37,98.765 209.341,98.765 		"/>
		<polygon fill="#00557C" points="209.341,84.482 214.506,98.765 209.341,98.765 		"/>
		<rect x="208.79" y="98.765" fill="#464541" width="1.652" height="3.304"/>
		<polygon opacity="0.4" fill="#464541" enable-background="new    " points="204.37,98.765 211.386,89.821 214.506,98.765 		"/>
	</g>
	<g>
		<polygon fill="#147DA5" points="218.702,96.748 211.619,116.937 218.702,116.937 		"/>
		<polygon fill="#00557C" points="218.702,96.795 225.979,116.937 218.702,116.937 		"/>
		<rect x="218.151" y="116.937" fill="#464541" width="2.203" height="4.956"/>
		<polygon opacity="0.4" fill="#464541" enable-background="new    " points="211.619,116.937 221.559,104.266 225.979,116.937 		
			"/>
	</g>
	<g>
		<polygon fill="#147DA5" points="330.486,87.478 325.97,100.417 330.486,100.417 		"/>
		<polygon fill="#00557C" points="330.486,87.508 335.194,100.417 330.486,100.417 		"/>
		<rect x="329.935" y="100.417" fill="#464541" width="1.652" height="3.304"/>
		<polygon opacity="0.4" fill="#464541" enable-background="new    " points="325.97,100.417 332.356,92.278 335.194,100.417 		"/>
	</g>
	<g>
		<polygon fill="#147DA5" points="177.953,174.686 161.954,219.359 177.953,219.359 		"/>
		<polygon fill="#00557C" points="177.953,174.787 191.557,219.359 177.953,219.359 		"/>
		<rect x="174.099" y="219.359" fill="#464541" width="5.507" height="8.26"/>
		<polygon opacity="0.4" fill="#464541" enable-background="new    " points="161.954,219.359 182.447,192.218 191.557,219.359 		
			"/>
	</g>
	<g>
		<polygon fill="#147DA5" points="279.274,219.236 257.768,278.83 279.274,278.83 		"/>
		<polygon fill="#00557C" points="279.274,219.371 297.285,278.83 279.274,278.83 		"/>
		<rect x="273.768" y="278.83" fill="#464541" width="7.709" height="11.013"/>
		<polygon opacity="0.4" fill="#464541" enable-background="new    " points="257.768,278.83 285.124,242.6 297.285,278.83 		"/>
	</g>
	<g>
		<polygon fill="#147DA5" points="324.428,116.42 314.637,143.918 324.428,143.918 		"/>
		<polygon fill="#00557C" points="324.428,116.481 332.551,143.918 324.428,143.918 		"/>
		<rect x="322.226" y="143.918" fill="#464541" width="2.753" height="4.956"/>
		<polygon opacity="0.4" fill="#464541" enable-background="new    " points="314.637,143.918 327.038,127.494 332.551,143.918 		
			"/>
	</g>
	<g>
		<polygon fill="#147DA5" points="177.953,128.534 167.25,158.786 177.953,158.786 		"/>
		<polygon fill="#00557C" points="177.953,128.602 186.987,158.786 177.953,158.786 		"/>
		<rect x="175.75" y="158.786" fill="#464541" width="2.753" height="5.507"/>
		<polygon opacity="0.4" fill="#464541" enable-background="new    " points="167.25,158.786 180.913,140.689 186.987,158.786 		"/>
	</g>
	<g>
		<polygon fill="#147DA5" points="258.9,149.483 248.109,181.363 258.9,181.363 		"/>
		<polygon fill="#00557C" points="258.9,149.555 269.168,181.363 258.9,181.363 		"/>
		<rect x="256.697" y="181.363" fill="#464541" width="3.855" height="6.058"/>
		<polygon opacity="0.4" fill="#464541" enable-background="new    " points="248.109,181.363 262.688,162.055 269.168,181.363 		
			"/>
	</g>
	<g>
		<polygon fill="#459DBF" points="287.534,72.673 282.491,87.201 287.534,87.201 		"/>
		<polygon fill="#3285A6" points="287.534,72.673 292.39,87.201 287.534,87.201 		"/>
		<rect x="286.433" y="87.201" fill="#464541" width="2.202" height="2.753"/>
		<polygon opacity="0.1" fill="#464541" enable-background="new    " points="282.491,87.201 289.344,78.465 292.39,87.201 		"/>
	</g>
	<g>
		<polygon fill="#459DBF" points="174.099,85.338 169.055,99.866 174.099,99.866 		"/>
		<polygon fill="#3285A6" points="174.099,85.338 178.954,99.866 174.099,99.866 		"/>
		<rect x="172.997" y="99.866" fill="#464541" width="2.203" height="2.753"/>
		<polygon opacity="0.1" fill="#464541" enable-background="new    " points="169.055,99.866 175.908,91.13 178.954,99.866 		"/>
	</g>
	<g>
		<polygon fill="#459DBF" points="200.53,136.974 188.421,170.901 200.53,170.901 		"/>
		<polygon fill="#3285A6" points="200.53,136.974 211.984,170.901 200.53,170.901 		"/>
		<rect x="197.227" y="170.901" fill="#464541" width="4.956" height="6.608"/>
		<polygon opacity="0.1" fill="#464541" enable-background="new    " points="188.421,170.901 204.733,150.108 211.984,170.901 		
			"/>
	</g>
	<g>
		<polygon fill="#459DBF" points="242.38,102.209 234.424,122.994 242.38,122.994 		"/>
		<polygon fill="#3285A6" points="242.38,102.209 248.608,122.994 242.38,122.994 		"/>
		<rect x="239.627" y="122.994" fill="#464541" width="3.304" height="3.854"/>
		<polygon opacity="0.1" fill="#464541" enable-background="new    " points="234.424,122.994 244.243,110.477 248.608,122.994 		
			"/>
	</g>
	<g>
		<polygon fill="#459DBF" points="282.028,123.884 272.873,149.425 282.028,149.425 		"/>
		<polygon fill="#3285A6" points="282.028,123.884 290.481,149.425 282.028,149.425 		"/>
		<rect x="279.825" y="149.425" fill="#464541" width="3.304" height="4.956"/>
		<polygon opacity="0.1" fill="#464541" enable-background="new    " points="272.873,149.425 285.062,133.887 290.481,149.425 		
			"/>
	</g>
	<g>
		<polygon fill="#459DBF" points="300.199,107.913 293.482,126.297 300.199,126.297 		"/>
		<polygon fill="#3285A6" points="300.199,107.913 306.379,126.297 300.199,126.297 		"/>
		<rect x="298.547" y="126.297" fill="#464541" width="2.753" height="3.854"/>
		<polygon opacity="0.1" fill="#464541" enable-background="new    " points="293.482,126.297 302.409,114.917 306.379,126.297 		
			"/>
	</g>
	<g>
		<polygon fill="#459DBF" points="283.68,167.096 271.464,201.188 283.68,201.188 		"/>
		<polygon fill="#3285A6" points="283.68,167.096 295.026,201.188 283.68,201.188 		"/>
		<rect x="280.375" y="201.188" fill="#464541" width="4.957" height="6.608"/>
		<polygon opacity="0.1" fill="#464541" enable-background="new    " points="271.464,201.188 287.775,180.395 295.026,201.188 		
			"/>
	</g>
	<g>
		<polygon fill="#459DBF" points="210.993,208.335 192.366,261.209 210.993,261.209 		"/>
		<polygon fill="#3285A6" points="210.993,208.335 228.75,261.209 210.993,261.209 		"/>
		<rect x="206.037" y="261.209" fill="#464541" width="7.709" height="9.912"/>
		<polygon opacity="0.1" fill="#464541" enable-background="new    " points="192.366,261.209 217.554,229.102 228.75,261.209 		"/>
	</g>
	<g>
		<polygon fill="#459DBF" points="224.208,77.135 218.915,91.606 224.208,91.606 		"/>
		<polygon fill="#3285A6" points="224.208,77.135 228.815,91.606 224.208,91.606 		"/>
		<rect x="222.557" y="91.606" fill="#464541" width="2.203" height="2.203"/>
		<polygon opacity="0.1" fill="#464541" enable-background="new    " points="218.915,91.606 225.768,82.871 228.815,91.606 		"/>
	</g>
	<g>
		<polygon fill="#3488AD" points="417.664,79.358 411.072,81.136 407.651,82.508 414.244,80.732 		"/>
		<polygon fill="#186D94" points="412.543,90.637 408.694,88.764 408.694,82.236 412.543,84.11 		"/>
		<polygon fill="#00557C" points="418.604,88.654 412.543,90.637 412.543,84.11 418.604,82.127 		"/>
		<polygon fill="#186D94" points="408.694,82.236 411.035,81.136 412.543,84.11 412.543,85.015 408.694,82.772 		"/>
		<polygon fill="#3488AD" points="419.549,83.357 412.955,85.134 411.035,81.136 417.629,79.358 		"/>
		<polygon fill="#186D94" points="412.946,82.293 412.578,81.738 412.578,80.48 412.946,81.035 		"/>
		<polygon fill="#00557C" points="413.744,82.138 412.946,82.293 412.946,81.035 413.744,80.879 		"/>
		<polygon fill="#67B8DE" points="413.744,80.881 412.946,81.034 412.58,80.481 413.378,80.329 		"/>
	</g>
	<polygon fill="#CEECF2" points="412.724,79.629 411.227,77.22 407.854,76.669 407.096,72.608 400.557,69.855 399.249,67.102 
		396.749,57.396 398.009,40.854 412.527,34.453 422.831,42.3 424.455,54.161 422.079,62.972 417.685,67.377 416.921,70.864 
		416.921,75.723 414.573,76.921 414.163,79.629 413.452,80.341 	"/>
	<g>
		<rect x="193.372" y="124.095" fill="#464541" width="2.753" height="4.405"/>
		<polygon fill="#91C9E8" points="197.291,110.879 199.459,110.879 194.35,102.499 189.24,110.879 191.409,110.879 187.13,124.095 
			194.332,124.095 201.569,124.095 		"/>
		<polygon fill="#147DA5" points="194.35,102.882 189.24,110.879 191.409,110.879 187.13,124.095 194.332,124.095 		"/>
		<polygon fill="#00557C" points="194.35,102.882 199.459,110.879 197.291,110.879 201.569,124.095 194.332,124.095 		"/>
		<polygon opacity="0.4" fill="#464541" enable-background="new    " points="187.13,124.095 197.41,111.993 201.569,124.095 		"/>
	</g>
	<g>
		<rect x="217.601" y="146.121" fill="#464541" width="3.304" height="6.608"/>
		<polygon fill="#B4DCED" points="222.87,130.152 225.693,130.152 219.042,119.244 212.392,130.152 215.214,130.152 
			209.644,146.121 219.02,146.121 228.44,146.121 		"/>
		<polygon fill="#459DBF" points="219.042,119.067 212.392,130.152 215.214,130.152 209.644,146.121 219.02,146.121 		"/>
		<polygon fill="#3285A6" points="219.042,119.067 225.693,130.152 222.87,130.152 228.44,146.121 219.02,146.121 		"/>
		<polygon opacity="0.1" fill="#464541" enable-background="new    " points="209.644,146.121 222.99,130.15 228.44,146.121 		"/>
	</g>
	<g>
		<rect x="345.904" y="126.297" fill="#464541" width="2.203" height="4.956"/>
		<polygon fill="#B4DCED" points="349.858,113.632 351.994,113.632 346.961,105.377 341.927,113.632 344.064,113.632 
			339.848,126.297 346.943,126.297 354.073,126.297 		"/>
		<polygon fill="#459DBF" points="346.961,105.534 341.927,113.632 344.064,113.632 339.848,126.297 346.943,126.297 		"/>
		<polygon fill="#3285A6" points="346.961,105.534 351.994,113.632 349.858,113.632 354.073,126.297 346.943,126.297 		"/>
		<polygon opacity="0.1" fill="#464541" enable-background="new    " points="339.848,126.297 349.948,114.211 354.073,126.297 		
			"/>
	</g>
	<g>
		<polygon fill="#147DA5" points="365.177,70.845 360.912,82.795 365.177,82.795 		"/>
		<polygon fill="#00557C" points="365.177,70.874 369.547,82.795 365.177,82.795 		"/>
		<rect x="364.627" y="82.795" fill="#464541" width="1.651" height="3.304"/>
		<polygon opacity="0.4" fill="#464541" enable-background="new    " points="360.912,82.795 366.89,75.177 369.547,82.795 		"/>
	</g>
	<g>
		<polygon fill="#147DA5" points="354.715,128.534 344.011,158.786 354.715,158.786 		"/>
		<polygon fill="#00557C" points="354.715,128.602 363.749,158.786 354.715,158.786 		"/>
		<rect x="352.512" y="158.786" fill="#464541" width="2.753" height="5.507"/>
		<polygon opacity="0.4" fill="#464541" enable-background="new    " points="344.011,158.786 357.674,140.689 363.749,158.786 		
			"/>
	</g>
	<g>
		<polygon fill="#459DBF" points="349.208,80.933 344.165,95.46 349.208,95.46 		"/>
		<polygon fill="#3285A6" points="349.208,80.933 354.063,95.46 349.208,95.46 		"/>
		<rect x="348.107" y="95.46" fill="#464541" width="2.202" height="2.753"/>
		<polygon opacity="0.1" fill="#464541" enable-background="new    " points="344.165,95.46 351.018,86.725 354.063,95.46 		"/>
	</g>
	<g>
		<polygon fill="#459DBF" points="340.397,147.987 328.289,181.914 340.397,181.914 		"/>
		<polygon fill="#3285A6" points="340.397,147.987 351.852,181.914 340.397,181.914 		"/>
		<rect x="337.094" y="181.914" fill="#464541" width="4.956" height="6.608"/>
		<polygon opacity="0.1" fill="#464541" enable-background="new    " points="328.289,181.914 344.6,161.122 351.852,181.914 		"/>
	</g>
	<g>
		<polygon fill="#459DBF" points="427.402,108.817 419.445,129.601 427.402,129.601 		"/>
		<polygon fill="#3285A6" points="427.402,108.817 433.63,129.601 427.402,129.601 		"/>
		<rect x="424.648" y="129.601" fill="#464541" width="3.304" height="3.855"/>
		<polygon opacity="0.1" fill="#464541" enable-background="new    " points="419.445,129.601 429.264,117.085 433.63,129.601 		"/>
	</g>
	<g>
		<rect x="370.133" y="124.095" fill="#464541" width="2.753" height="4.405"/>
		<polygon fill="#91C9E8" points="374.052,110.879 376.22,110.879 371.111,102.499 366.001,110.879 368.17,110.879 363.891,124.095 
			371.094,124.095 378.331,124.095 		"/>
		<polygon fill="#147DA5" points="371.111,102.882 366.001,110.879 368.17,110.879 363.891,124.095 371.094,124.095 		"/>
		<polygon fill="#00557C" points="371.111,102.882 376.22,110.879 374.052,110.879 378.331,124.095 371.094,124.095 		"/>
		<polygon opacity="0.4" fill="#464541" enable-background="new    " points="363.891,124.095 374.172,111.993 378.331,124.095 		
			"/>
	</g>
	<g>
		<rect x="373.988" y="96.562" fill="#464541" width="1.652" height="3.854"/>
		<polygon fill="#B4DCED" points="376.533,88.302 378.038,88.302 374.493,82.488 370.948,88.302 372.453,88.302 369.484,96.562 
			374.48,96.562 379.501,96.562 		"/>
		<polygon fill="#459DBF" points="374.493,82.269 370.948,88.302 372.453,88.302 369.484,96.562 374.48,96.562 		"/>
		<polygon fill="#3285A6" points="374.493,82.269 378.038,88.302 376.533,88.302 379.501,96.562 374.48,96.562 		"/>
		<polygon opacity="0.1" fill="#464541" enable-background="new    " points="369.484,96.562 376.597,88.05 379.501,96.562 		"/>
	</g>
	<g>
		<rect x="487.424" y="97.663" fill="#464541" width="1.651" height="3.304"/>
		<polygon fill="#B4DCED" points="490.193,89.954 491.645,89.954 488.227,84.348 484.809,89.954 486.259,89.954 483.396,97.663 
			488.214,97.663 493.056,97.663 		"/>
		<polygon fill="#459DBF" points="488.227,84.01 484.809,89.954 486.259,89.954 483.396,97.663 488.214,97.663 		"/>
		<polygon fill="#3285A6" points="488.227,84.01 491.645,89.954 490.193,89.954 493.056,97.663 488.214,97.663 		"/>
		<polygon opacity="0.1" fill="#464541" enable-background="new    " points="483.396,97.663 490.254,89.456 493.056,97.663 		"/>
	</g>
	<g>
		<rect x="514.406" y="228.17" fill="#464541" width="6.057" height="10.462"/>
		<polygon fill="#B4DCED" points="523.392,202.839 527.769,202.839 517.453,185.921 507.14,202.839 511.518,202.839 502.879,228.17 
			517.418,228.17 532.029,228.17 		"/>
		<polygon fill="#459DBF" points="517.453,185.93 507.14,202.839 511.518,202.839 502.879,228.17 517.418,228.17 		"/>
		<polygon fill="#3285A6" points="517.453,185.93 527.769,202.839 523.392,202.839 532.029,228.17 517.418,228.17 		"/>
		<polygon opacity="0.1" fill="#464541" enable-background="new    " points="502.879,228.17 523.576,203.398 532.029,228.17 		"/>
	</g>
	<g>
		<rect x="414.792" y="286.02" fill="#464541" width="9.455" height="16.332"/>
		<polygon fill="#B4DCED" points="428.818,246.477 435.651,246.477 419.549,220.067 403.448,246.477 410.283,246.477 
			396.797,286.02 419.493,286.02 442.303,286.02 		"/>
		<polygon fill="#459DBF" points="419.549,220.081 403.448,246.477 410.283,246.477 396.797,286.02 419.493,286.02 		"/>
		<polygon fill="#3285A6" points="419.549,220.081 435.651,246.477 428.818,246.477 442.303,286.02 419.493,286.02 		"/>
		<polygon opacity="0.1" fill="#464541" enable-background="new    " points="396.797,286.02 429.106,247.35 442.303,286.02 		"/>
	</g>
	<g>
		<rect x="626.508" y="239.119" fill="#464541" width="6.057" height="10.462"/>
		<polygon fill="#B4DCED" points="635.493,213.788 639.87,213.788 629.555,196.87 619.241,213.788 623.619,213.788 614.98,239.119 
			629.52,239.119 644.131,239.119 		"/>
		<polygon fill="#459DBF" points="629.555,196.879 619.241,213.788 623.619,213.788 614.98,239.119 629.52,239.119 		"/>
		<polygon fill="#3285A6" points="629.555,196.879 639.87,213.788 635.493,213.788 644.131,239.119 629.52,239.119 		"/>
		<polygon opacity="0.1" fill="#464541" enable-background="new    " points="614.98,239.119 635.678,214.347 644.131,239.119 		"/>
	</g>
	<g>
		<rect x="547.445" y="391.715" fill="#464541" width="13.767" height="23.128"/>
		<polygon fill="#B4DCED" points="567.617,334.997 577.4,334.997 554.348,297.188 531.297,334.997 541.081,334.997 521.773,391.715 
			554.268,391.715 586.923,391.715 		"/>
		<polygon fill="#459DBF" points="554.348,297.261 531.297,334.997 541.081,334.997 521.773,391.715 554.268,391.715 		"/>
		<polygon fill="#3285A6" points="554.348,297.261 577.4,334.997 567.617,334.997 586.923,391.715 554.268,391.715 		"/>
		<polygon opacity="0.1" fill="#464541" enable-background="new    " points="521.773,391.715 568.03,336.357 586.923,391.715 		"/>
	</g>
	<g>
		<rect x="575.529" y="181.363" fill="#464541" width="3.854" height="7.159"/>
		<polygon fill="#B4DCED" points="581.633,162.641 584.904,162.641 577.198,150.003 569.492,162.641 572.763,162.641 
			566.309,181.363 577.171,181.363 588.086,181.363 		"/>
		<polygon fill="#459DBF" points="577.198,149.909 569.492,162.641 572.763,162.641 566.309,181.363 577.171,181.363 		"/>
		<polygon fill="#3285A6" points="577.198,149.909 584.904,162.641 581.633,162.641 588.086,181.363 577.171,181.363 		"/>
		<polygon opacity="0.1" fill="#464541" enable-background="new    " points="566.309,181.363 581.771,162.858 588.086,181.363 		
			"/>
	</g>
	<g>
		<rect x="531.477" y="127.949" fill="#464541" width="2.202" height="4.956"/>
		<polygon fill="#B4DCED" points="535.43,115.284 537.566,115.284 532.533,107.029 527.499,115.284 529.637,115.284 525.42,127.949 
			532.516,127.949 539.645,127.949 		"/>
		<polygon fill="#459DBF" points="532.533,107.186 527.499,115.284 529.637,115.284 525.42,127.949 532.516,127.949 		"/>
		<polygon fill="#3285A6" points="532.533,107.186 537.566,115.284 535.43,115.284 539.645,127.949 532.516,127.949 		"/>
		<polygon opacity="0.1" fill="#464541" enable-background="new    " points="525.42,127.949 535.52,115.863 539.645,127.949 		"/>
	</g>
	<g>
		<rect x="516.608" y="102.068" fill="#464541" width="1.651" height="3.304"/>
		<polygon fill="#B4DCED" points="519.582,93.809 521.033,93.809 517.615,88.203 514.197,93.809 515.648,93.809 512.785,102.068 
			517.604,102.068 522.444,102.068 		"/>
		<polygon fill="#459DBF" points="517.615,88.139 514.197,93.809 515.648,93.809 512.785,102.068 517.604,102.068 		"/>
		<polygon fill="#3285A6" points="517.615,88.139 521.033,93.809 519.582,93.809 522.444,102.068 517.604,102.068 		"/>
		<polygon opacity="0.1" fill="#464541" enable-background="new    " points="512.785,102.068 519.644,93.861 522.444,102.068 		"/>
	</g>
	<g>
		<rect x="580.484" y="117.487" fill="#464541" width="2.203" height="3.854"/>
		<polygon fill="#B4DCED" points="583.78,107.575 585.519,107.575 581.422,100.856 577.324,107.575 579.064,107.575 
			575.633,117.487 581.407,117.487 587.211,117.487 		"/>
		<polygon fill="#459DBF" points="581.422,100.785 577.324,107.575 579.064,107.575 575.633,117.487 581.407,117.487 		"/>
		<polygon fill="#3285A6" points="581.422,100.785 585.519,107.575 583.78,107.575 587.211,117.487 581.407,117.487 		"/>
		<polygon opacity="0.1" fill="#464541" enable-background="new    " points="575.633,117.487 583.854,107.648 587.211,117.487 		
			"/>
	</g>
	<g>
		<rect x="507.798" y="89.403" fill="#464541" width="2.202" height="2.753"/>
		<polygon fill="#91C9E8" points="510.779,81.144 512.158,81.144 508.908,75.814 505.659,81.144 507.039,81.144 504.318,89.403 
			508.898,89.403 513.5,89.403 		"/>
		<polygon fill="#147DA5" points="508.908,75.986 505.659,81.144 507.039,81.144 504.318,89.403 508.898,89.403 		"/>
		<polygon fill="#00557C" points="508.908,75.986 512.158,81.144 510.779,81.144 513.5,89.403 508.898,89.403 		"/>
		<polygon opacity="0.4" fill="#464541" enable-background="new    " points="504.318,89.403 510.855,81.708 513.5,89.403 		"/>
	</g>
	<g>
		<rect x="541.389" y="100.967" fill="#464541" width="2.202" height="3.304"/>
		<polygon fill="#91C9E8" points="544.24,92.707 545.619,92.707 542.369,87.378 539.121,92.707 540.5,92.707 537.779,100.967 
			542.359,100.967 546.961,100.967 		"/>
		<polygon fill="#147DA5" points="542.369,87.549 539.121,92.707 540.5,92.707 537.779,100.967 542.359,100.967 		"/>
		<polygon fill="#00557C" points="542.369,87.549 545.619,92.707 544.24,92.707 546.961,100.967 542.359,100.967 		"/>
		<polygon opacity="0.4" fill="#464541" enable-background="new    " points="537.779,100.967 544.316,93.271 546.961,100.967 		"/>
	</g>
	<g>
		<rect x="454.935" y="102.068" fill="#464541" width="2.202" height="3.304"/>
		<polygon fill="#91C9E8" points="457.787,93.809 459.166,93.809 455.917,88.479 452.668,93.809 454.047,93.809 451.325,102.068 
			455.905,102.068 460.508,102.068 		"/>
		<polygon fill="#147DA5" points="455.917,88.65 452.668,93.809 454.047,93.809 451.325,102.068 455.905,102.068 		"/>
		<polygon fill="#00557C" points="455.917,88.65 459.166,93.809 457.787,93.809 460.508,102.068 455.905,102.068 		"/>
		<polygon opacity="0.4" fill="#464541" enable-background="new    " points="451.325,102.068 457.863,94.373 460.508,102.068 		"/>
	</g>
	<g>
		<rect x="491.828" y="194.58" fill="#464541" width="4.957" height="6.608"/>
		<polygon fill="#91C9E8" points="498.53,174.205 501.859,174.205 494.013,161.333 486.166,174.205 489.496,174.205 482.924,194.58 
			493.984,194.58 505.104,194.58 		"/>
		<polygon fill="#147DA5" points="494.013,161.96 486.166,174.205 489.496,174.205 482.924,194.58 493.984,194.58 		"/>
		<polygon fill="#00557C" points="494.013,161.96 501.859,174.205 498.53,174.205 505.104,194.58 493.984,194.58 		"/>
		<polygon opacity="0.4" fill="#464541" enable-background="new    " points="482.924,194.58 498.714,175.991 505.104,194.58 		"/>
	</g>
	<g>
		<rect x="606.661" y="188.883" fill="#464541" width="4.956" height="6.608"/>
		<polygon fill="#91C9E8" points="613.362,168.509 616.692,168.509 608.846,155.637 600.997,168.509 604.328,168.509 
			597.755,188.883 608.817,188.883 619.935,188.883 		"/>
		<polygon fill="#147DA5" points="608.846,156.264 600.997,168.509 604.328,168.509 597.755,188.883 608.817,188.883 		"/>
		<polygon fill="#00557C" points="608.846,156.264 616.692,168.509 613.362,168.509 619.935,188.883 608.817,188.883 		"/>
		<polygon opacity="0.4" fill="#464541" enable-background="new    " points="597.755,188.883 613.546,170.295 619.935,188.883 		
			"/>
	</g>
	<g>
		<rect x="519.361" y="152.179" fill="#464541" width="3.305" height="5.506"/>
		<polygon fill="#91C9E8" points="524.407,136.209 527.087,136.209 520.771,125.849 514.455,136.209 517.136,136.209 
			511.846,152.179 520.749,152.179 529.697,152.179 		"/>
		<polygon fill="#147DA5" points="520.771,126.139 514.455,136.209 517.136,136.209 511.846,152.179 520.749,152.179 		"/>
		<polygon fill="#00557C" points="520.771,126.139 527.087,136.209 524.407,136.209 529.697,152.179 520.749,152.179 		"/>
		<polygon opacity="0.4" fill="#464541" enable-background="new    " points="511.846,152.179 524.556,137.218 529.697,152.179 		
			"/>
	</g>
	<g>
		<rect x="556.256" y="119.689" fill="#464541" width="2.754" height="4.405"/>
		<polygon fill="#91C9E8" points="559.955,108.126 561.863,108.126 557.365,100.748 552.867,108.126 554.776,108.126 
			551.01,119.689 557.35,119.689 563.722,119.689 		"/>
		<polygon fill="#147DA5" points="557.365,101.05 552.867,108.126 554.776,108.126 551.01,119.689 557.35,119.689 		"/>
		<polygon fill="#00557C" points="557.365,101.05 561.863,108.126 559.955,108.126 563.722,119.689 557.35,119.689 		"/>
		<polygon opacity="0.4" fill="#464541" enable-background="new    " points="551.01,119.689 560.061,109.036 563.722,119.689 		"/>
	</g>
	<g>
		<rect x="595.903" y="97.112" fill="#464541" width="2.203" height="3.304"/>
		<polygon fill="#91C9E8" points="599.158,87.201 600.74,87.201 597.014,81.086 593.285,87.201 594.867,87.201 591.746,97.112 
			597,97.112 602.28,97.112 		"/>
		<polygon fill="#147DA5" points="597.014,81.5 593.285,87.201 594.867,87.201 591.746,97.112 597,97.112 		"/>
		<polygon fill="#00557C" points="597.014,81.5 600.74,87.201 599.158,87.201 602.28,97.112 597,97.112 		"/>
		<polygon opacity="0.4" fill="#464541" enable-background="new    " points="591.746,97.112 599.245,88.283 602.28,97.112 		"/>
	</g>
	<g>
		<rect x="579.934" y="231.474" fill="#464541" width="6.058" height="8.811"/>
		<polygon fill="#91C9E8" points="588.642,206.143 592.872,206.143 582.904,189.792 572.935,206.143 577.166,206.143 
			568.818,231.474 582.869,231.474 596.99,231.474 		"/>
		<polygon fill="#147DA5" points="582.904,190.312 572.935,206.143 577.166,206.143 568.818,231.474 582.869,231.474 		"/>
		<polygon fill="#00557C" points="582.904,190.312 592.872,206.143 588.642,206.143 596.99,231.474 582.869,231.474 		"/>
		<polygon opacity="0.4" fill="#464541" enable-background="new    " points="568.818,231.474 588.876,207.863 596.99,231.474 		"/>
	</g>
	<g>
		<rect x="457.688" y="374.094" fill="#464541" width="13.217" height="19.273"/>
		<polygon fill="#91C9E8" points="476.563,318.478 485.854,318.478 463.961,282.566 442.066,318.478 451.359,318.478 
			433.024,374.094 463.885,374.094 494.899,374.094 		"/>
		<polygon fill="#147DA5" points="463.961,283.701 442.066,318.478 451.359,318.478 433.024,374.094 463.885,374.094 		"/>
		<polygon fill="#00557C" points="463.961,283.701 485.854,318.478 476.563,318.478 494.899,374.094 463.885,374.094 		"/>
		<polygon opacity="0.4" fill="#464541" enable-background="new    " points="433.024,374.094 477.077,322.239 494.899,374.094 		
			"/>
	</g>
	<g>
		<rect x="720.074" y="617.896" fill="#464541" width="26.815" height="39.104"/>
		<polygon fill="#91C9E8" points="758.371,505.059 777.222,505.059 732.803,432.199 688.382,505.059 707.235,505.059 
			670.036,617.896 732.648,617.896 795.573,617.896 		"/>
		<polygon fill="#147DA5" points="732.803,434.502 688.382,505.059 707.235,505.059 670.036,617.896 732.648,617.896 		"/>
		<polygon fill="#00557C" points="732.803,434.502 777.222,505.059 758.371,505.059 795.573,617.896 732.648,617.896 		"/>
		<polygon opacity="0.4" fill="#464541" enable-background="new    " points="670.036,617.896 759.414,512.69 795.573,617.896 		"/>
	</g>
	<g>
		<polygon fill="#147DA5" points="533.129,76.035 527.758,90.505 533.129,90.505 		"/>
		<polygon fill="#00557C" points="533.129,76.068 537.895,90.505 533.129,90.505 		"/>
		<rect x="532.027" y="90.505" fill="#464541" width="1.651" height="3.304"/>
		<polygon opacity="0.4" fill="#464541" enable-background="new    " points="527.758,90.505 534.774,81.56 537.895,90.505 		"/>
	</g>
	<g>
		<polygon fill="#147DA5" points="577.181,80.868 572,95.46 577.181,95.46 		"/>
		<polygon fill="#00557C" points="577.181,80.901 582.137,95.46 577.181,95.46 		"/>
		<rect x="576.08" y="95.46" fill="#464541" width="1.651" height="2.753"/>
		<polygon opacity="0.4" fill="#464541" enable-background="new    " points="572,95.46 579.018,86.517 582.137,95.46 		"/>
	</g>
	<g>
		<polygon fill="#147DA5" points="467.049,105.374 462.078,119.689 467.049,119.689 		"/>
		<polygon fill="#00557C" points="467.049,105.408 472.214,119.689 467.049,119.689 		"/>
		<rect x="466.498" y="119.689" fill="#464541" width="1.652" height="3.304"/>
		<polygon opacity="0.4" fill="#464541" enable-background="new    " points="462.078,119.689 469.095,110.746 472.214,119.689 		
			"/>
	</g>
	<g>
		<polygon fill="#147DA5" points="486.322,100.602 479.238,120.791 486.322,120.791 		"/>
		<polygon fill="#00557C" points="486.322,100.65 493.6,120.791 486.322,120.791 		"/>
		<rect x="485.771" y="120.791" fill="#464541" width="2.203" height="4.957"/>
		<polygon opacity="0.4" fill="#464541" enable-background="new    " points="479.238,120.791 489.18,108.121 493.6,120.791 		"/>
	</g>
	<g>
		<polygon fill="#147DA5" points="445.573,178.541 429.574,223.213 445.573,223.213 		"/>
		<polygon fill="#00557C" points="445.573,178.642 459.178,223.213 445.573,223.213 		"/>
		<rect x="441.719" y="223.213" fill="#464541" width="5.506" height="8.26"/>
		<polygon opacity="0.4" fill="#464541" enable-background="new    " points="429.574,223.213 450.067,196.072 459.178,223.213 		
			"/>
	</g>
	<g>
		<polygon fill="#147DA5" points="546.895,223.091 525.388,282.685 546.895,282.685 		"/>
		<polygon fill="#00557C" points="546.895,223.225 564.904,282.685 546.895,282.685 		"/>
		<rect x="541.389" y="282.685" fill="#464541" width="7.709" height="11.013"/>
		<polygon opacity="0.4" fill="#464541" enable-background="new    " points="525.388,282.685 552.744,246.454 564.904,282.685 		
			"/>
	</g>
	<g>
		<polygon fill="#147DA5" points="503.586,397.193 453.873,534.943 503.586,534.943 		"/>
		<polygon fill="#00557C" points="503.586,397.5 545.215,534.943 503.586,534.943 		"/>
		<rect x="490.859" y="534.943" fill="#464541" width="17.819" height="25.453"/>
		<polygon opacity="0.4" fill="#464541" enable-background="new    " points="453.873,534.943 517.107,451.195 545.215,534.943 		
			"/>
	</g>
	<g>
		<polygon fill="#147DA5" points="592.049,120.275 582.256,147.773 592.049,147.773 		"/>
		<polygon fill="#00557C" points="592.049,120.336 600.171,147.773 592.049,147.773 		"/>
		<rect x="589.847" y="147.773" fill="#464541" width="2.753" height="4.956"/>
		<polygon opacity="0.4" fill="#464541" enable-background="new    " points="582.256,147.773 594.658,131.349 600.171,147.773 		
			"/>
	</g>
	<g>
		<polygon fill="#147DA5" points="445.023,135.142 434.319,165.395 445.023,165.395 		"/>
		<polygon fill="#00557C" points="445.023,135.21 454.057,165.395 445.023,165.395 		"/>
		<rect x="442.82" y="165.395" fill="#464541" width="2.753" height="5.506"/>
		<polygon opacity="0.4" fill="#464541" enable-background="new    " points="434.319,165.395 447.982,147.298 454.057,165.395 		
			"/>
	</g>
	<g>
		<polygon fill="#147DA5" points="526.52,153.337 515.729,185.218 526.52,185.218 		"/>
		<polygon fill="#00557C" points="526.52,153.41 536.789,185.218 526.52,185.218 		"/>
		<rect x="524.317" y="185.218" fill="#464541" width="3.854" height="6.057"/>
		<polygon opacity="0.4" fill="#464541" enable-background="new    " points="515.729,185.218 530.309,165.91 536.789,185.218 		"/>
	</g>
	<g>
		<polygon fill="#459DBF" points="555.154,76.528 550.111,91.055 555.154,91.055 		"/>
		<polygon fill="#3285A6" points="555.154,76.528 560.011,91.055 555.154,91.055 		"/>
		<rect x="554.053" y="91.055" fill="#464541" width="2.203" height="2.753"/>
		<polygon opacity="0.1" fill="#464541" enable-background="new    " points="550.111,91.055 556.964,82.319 560.011,91.055 		"/>
	</g>
	<g>
		<polygon fill="#459DBF" points="436.763,89.193 431.719,103.72 436.763,103.72 		"/>
		<polygon fill="#3285A6" points="436.763,89.193 441.619,103.72 436.763,103.72 		"/>
		<rect x="435.662" y="103.72" fill="#464541" width="2.202" height="2.753"/>
		<polygon opacity="0.1" fill="#464541" enable-background="new    " points="431.719,103.72 438.572,94.984 441.619,103.72 		"/>
	</g>
	<g>
		<polygon fill="#459DBF" points="468.15,140.829 456.041,174.756 468.15,174.756 		"/>
		<polygon fill="#3285A6" points="468.15,140.829 479.604,174.756 468.15,174.756 		"/>
		<rect x="464.847" y="174.756" fill="#464541" width="4.956" height="6.607"/>
		<polygon opacity="0.1" fill="#464541" enable-background="new    " points="456.041,174.756 472.353,153.963 479.604,174.756 		
			"/>
	</g>
	<g>
		<polygon fill="#459DBF" points="510,106.064 502.044,126.848 510,126.848 		"/>
		<polygon fill="#3285A6" points="510,106.064 516.229,126.848 510,126.848 		"/>
		<rect x="507.247" y="126.848" fill="#464541" width="3.304" height="3.854"/>
		<polygon opacity="0.1" fill="#464541" enable-background="new    " points="502.044,126.848 511.863,114.332 516.229,126.848 		
			"/>
	</g>
	<g>
		<polygon fill="#459DBF" points="549.648,127.738 540.492,153.28 549.648,153.28 		"/>
		<polygon fill="#3285A6" points="549.648,127.738 558.102,153.28 549.648,153.28 		"/>
		<rect x="547.445" y="153.28" fill="#464541" width="3.305" height="4.956"/>
		<polygon opacity="0.1" fill="#464541" enable-background="new    " points="540.492,153.28 552.682,137.742 558.102,153.28 		"/>
	</g>
	<g>
		<polygon fill="#459DBF" points="567.82,111.767 561.102,130.152 567.82,130.152 		"/>
		<polygon fill="#3285A6" points="567.82,111.767 573.998,130.152 567.82,130.152 		"/>
		<rect x="566.168" y="130.152" fill="#464541" width="2.753" height="3.855"/>
		<polygon opacity="0.1" fill="#464541" enable-background="new    " points="561.102,130.152 570.029,118.772 573.998,130.152 		
			"/>
	</g>
	<g>
		<polygon fill="#459DBF" points="607.468,106.26 600.75,124.646 607.468,124.646 		"/>
		<polygon fill="#3285A6" points="607.468,106.26 613.646,124.646 607.468,124.646 		"/>
		<rect x="605.814" y="124.646" fill="#464541" width="2.754" height="3.854"/>
		<polygon opacity="0.1" fill="#464541" enable-background="new    " points="600.75,124.646 609.677,113.266 613.646,124.646 		"/>
	</g>
	<g>
		<polygon fill="#459DBF" points="551.3,170.95 539.084,205.042 551.3,205.042 		"/>
		<polygon fill="#3285A6" points="551.3,170.95 562.646,205.042 551.3,205.042 		"/>
		<rect x="547.996" y="205.042" fill="#464541" width="4.956" height="6.607"/>
		<polygon opacity="0.1" fill="#464541" enable-background="new    " points="539.084,205.042 555.395,184.249 562.646,205.042 		
			"/>
	</g>
	<g>
		<polygon fill="#459DBF" points="478.613,212.189 459.986,265.064 478.613,265.064 		"/>
		<polygon fill="#3285A6" points="478.613,212.189 496.371,265.064 478.613,265.064 		"/>
		<rect x="473.656" y="265.064" fill="#464541" width="7.71" height="9.912"/>
		<polygon opacity="0.1" fill="#464541" enable-background="new    " points="459.986,265.064 485.174,232.957 496.371,265.064 		
			"/>
	</g>
	<g>
		<polygon fill="#459DBF" points="598.106,238.622 579.479,291.495 598.106,291.495 		"/>
		<polygon fill="#3285A6" points="598.106,238.622 615.864,291.495 598.106,291.495 		"/>
		<rect x="593.149" y="291.495" fill="#464541" width="7.71" height="9.912"/>
		<polygon opacity="0.1" fill="#464541" enable-background="new    " points="579.479,291.495 604.666,259.389 615.864,291.495 		
			"/>
	</g>
	<g>
		<polygon fill="#459DBF" points="500.639,92.002 495.346,106.474 500.639,106.474 		"/>
		<polygon fill="#3285A6" points="500.639,92.002 505.246,106.474 500.639,106.474 		"/>
		<rect x="498.987" y="106.474" fill="#464541" width="2.202" height="2.203"/>
		<polygon opacity="0.1" fill="#464541" enable-background="new    " points="495.346,106.474 502.199,97.739 505.246,106.474 		"/>
	</g>
	<g>
		<rect x="448.326" y="132.905" fill="#464541" width="2.754" height="4.405"/>
		<polygon fill="#91C9E8" points="452.245,119.689 454.413,119.689 449.305,111.31 444.194,119.689 446.364,119.689 
			442.085,132.905 449.287,132.905 456.524,132.905 		"/>
		<polygon fill="#147DA5" points="449.305,111.693 444.194,119.689 446.364,119.689 442.085,132.905 449.287,132.905 		"/>
		<polygon fill="#00557C" points="449.305,111.693 454.413,119.689 452.245,119.689 456.524,132.905 449.287,132.905 		"/>
		<polygon opacity="0.4" fill="#464541" enable-background="new    " points="442.085,132.905 452.365,120.804 456.524,132.905 		
			"/>
	</g>
	<g>
		<rect x="485.221" y="149.976" fill="#464541" width="3.305" height="6.608"/>
		<polygon fill="#B4DCED" points="490.49,134.007 493.314,134.007 486.662,123.099 480.012,134.007 482.835,134.007 
			477.264,149.976 486.64,149.976 496.061,149.976 		"/>
		<polygon fill="#459DBF" points="486.662,122.922 480.012,134.007 482.835,134.007 477.264,149.976 486.64,149.976 		"/>
		<polygon fill="#3285A6" points="486.662,122.922 493.314,134.007 490.49,134.007 496.061,149.976 486.64,149.976 		"/>
		<polygon opacity="0.1" fill="#464541" enable-background="new    " points="477.264,149.976 490.609,134.004 496.061,149.976 		
			"/>
	</g>
	<g>
		<rect x="419.142" y="192.377" fill="#464541" width="4.956" height="9.912"/>
		<polygon fill="#B4DCED" points="426.889,168.698 431.131,168.698 421.135,152.304 411.139,168.698 415.382,168.698 
			407.009,192.377 421.1,192.377 435.26,192.377 		"/>
		<polygon fill="#459DBF" points="421.135,151.876 411.139,168.698 415.382,168.698 407.009,192.377 421.1,192.377 		"/>
		<polygon fill="#3285A6" points="421.135,151.876 431.131,168.698 426.889,168.698 435.26,192.377 421.1,192.377 		"/>
		<polygon opacity="0.1" fill="#464541" enable-background="new    " points="407.009,192.377 427.067,168.372 435.26,192.377 		"/>
	</g>
	<g>
		<polygon fill="#459DBF" points="650.041,108.817 642.084,129.601 650.041,129.601 		"/>
		<polygon fill="#3285A6" points="650.041,108.817 656.269,129.601 650.041,129.601 		"/>
		<rect x="647.287" y="129.601" fill="#464541" width="3.304" height="3.855"/>
		<polygon opacity="0.1" fill="#464541" enable-background="new    " points="642.084,129.601 651.902,117.085 656.269,129.601 		
			"/>
	</g>
	<g>
		<rect x="710.062" y="97.663" fill="#464541" width="1.651" height="3.304"/>
		<polygon fill="#B4DCED" points="712.832,89.954 714.283,89.954 710.865,84.348 707.447,89.954 708.897,89.954 706.035,97.663 
			710.853,97.663 715.694,97.663 		"/>
		<polygon fill="#459DBF" points="710.865,84.01 707.447,89.954 708.897,89.954 706.035,97.663 710.853,97.663 		"/>
		<polygon fill="#3285A6" points="710.865,84.01 714.283,89.954 712.832,89.954 715.694,97.663 710.853,97.663 		"/>
		<polygon opacity="0.1" fill="#464541" enable-background="new    " points="706.035,97.663 712.893,89.456 715.694,97.663 		"/>
	</g>
	<g>
		<rect x="737.045" y="228.17" fill="#464541" width="6.057" height="10.462"/>
		<polygon fill="#B4DCED" points="746.03,202.839 750.407,202.839 740.092,185.921 729.778,202.839 734.156,202.839 725.518,228.17 
			740.057,228.17 754.668,228.17 		"/>
		<polygon fill="#459DBF" points="740.092,185.93 729.778,202.839 734.156,202.839 725.518,228.17 740.057,228.17 		"/>
		<polygon fill="#3285A6" points="740.092,185.93 750.407,202.839 746.03,202.839 754.668,228.17 740.057,228.17 		"/>
		<polygon opacity="0.1" fill="#464541" enable-background="new    " points="725.518,228.17 746.215,203.398 754.668,228.17 		"/>
	</g>
	<g>
		<rect x="770.084" y="391.715" fill="#464541" width="13.767" height="23.128"/>
		<polygon fill="#B4DCED" points="790.256,334.997 800.039,334.997 776.986,297.188 753.936,334.997 763.72,334.997 
			744.412,391.715 776.906,391.715 809.562,391.715 		"/>
		<polygon fill="#459DBF" points="776.986,297.261 753.936,334.997 763.72,334.997 744.412,391.715 776.906,391.715 		"/>
		<polygon fill="#3285A6" points="776.986,297.261 800.039,334.997 790.256,334.997 809.562,391.715 776.906,391.715 		"/>
		<polygon opacity="0.1" fill="#464541" enable-background="new    " points="744.412,391.715 790.669,336.357 809.562,391.715 		
			"/>
	</g>
	<g>
		<rect x="798.168" y="181.363" fill="#464541" width="3.854" height="7.159"/>
		<polygon fill="#B4DCED" points="804.271,162.641 807.543,162.641 799.837,150.003 792.131,162.641 795.401,162.641 
			788.947,181.363 799.81,181.363 810.725,181.363 		"/>
		<polygon fill="#459DBF" points="799.837,149.909 792.131,162.641 795.401,162.641 788.947,181.363 799.81,181.363 		"/>
		<polygon fill="#3285A6" points="799.837,149.909 807.543,162.641 804.271,162.641 810.725,181.363 799.81,181.363 		"/>
		<polygon opacity="0.1" fill="#464541" enable-background="new    " points="788.947,181.363 804.41,162.858 810.725,181.363 		"/>
	</g>
	<g>
		<rect x="754.115" y="127.949" fill="#464541" width="2.202" height="4.956"/>
		<polygon fill="#B4DCED" points="758.068,115.284 760.205,115.284 755.172,107.029 750.138,115.284 752.275,115.284 
			748.059,127.949 755.154,127.949 762.283,127.949 		"/>
		<polygon fill="#459DBF" points="755.172,107.186 750.138,115.284 752.275,115.284 748.059,127.949 755.154,127.949 		"/>
		<polygon fill="#3285A6" points="755.172,107.186 760.205,115.284 758.068,115.284 762.283,127.949 755.154,127.949 		"/>
		<polygon opacity="0.1" fill="#464541" enable-background="new    " points="748.059,127.949 758.158,115.863 762.283,127.949 		
			"/>
	</g>
	<g>
		<rect x="739.247" y="102.068" fill="#464541" width="1.651" height="3.304"/>
		<polygon fill="#B4DCED" points="742.221,93.809 743.672,93.809 740.254,88.203 736.836,93.809 738.287,93.809 735.424,102.068 
			740.242,102.068 745.083,102.068 		"/>
		<polygon fill="#459DBF" points="740.254,88.139 736.836,93.809 738.287,93.809 735.424,102.068 740.242,102.068 		"/>
		<polygon fill="#3285A6" points="740.254,88.139 743.672,93.809 742.221,93.809 745.083,102.068 740.242,102.068 		"/>
		<polygon opacity="0.1" fill="#464541" enable-background="new    " points="735.424,102.068 742.282,93.861 745.083,102.068 		"/>
	</g>
	<g>
		<rect x="619.771" y="110.695" fill="#464541" width="2.203" height="3.854"/>
		<polygon fill="#B4DCED" points="623.067,100.783 624.806,100.783 620.709,94.064 616.611,100.783 618.352,100.783 614.92,110.695 
			620.694,110.695 626.498,110.695 		"/>
		<polygon fill="#459DBF" points="620.709,93.993 616.611,100.783 618.352,100.783 614.92,110.695 620.694,110.695 		"/>
		<polygon fill="#3285A6" points="620.709,93.993 624.806,100.783 623.067,100.783 626.498,110.695 620.694,110.695 		"/>
		<polygon opacity="0.1" fill="#464541" enable-background="new    " points="614.92,110.695 623.141,100.856 626.498,110.695 		"/>
	</g>
	<g>
		<rect x="636.461" y="89.403" fill="#464541" width="2.202" height="2.753"/>
		<polygon fill="#91C9E8" points="639.442,81.144 640.821,81.144 637.571,75.814 634.322,81.144 635.702,81.144 632.981,89.403 
			637.562,89.403 642.163,89.403 		"/>
		<polygon fill="#147DA5" points="637.571,75.986 634.322,81.144 635.702,81.144 632.981,89.403 637.562,89.403 		"/>
		<polygon fill="#00557C" points="637.571,75.986 640.821,81.144 639.442,81.144 642.163,89.403 637.562,89.403 		"/>
		<polygon opacity="0.4" fill="#464541" enable-background="new    " points="632.981,89.403 639.519,81.708 642.163,89.403 		"/>
	</g>
	<g>
		<rect x="764.027" y="100.967" fill="#464541" width="2.202" height="3.304"/>
		<polygon fill="#91C9E8" points="766.879,92.707 768.258,92.707 765.008,87.378 761.76,92.707 763.139,92.707 760.418,100.967 
			764.998,100.967 769.6,100.967 		"/>
		<polygon fill="#147DA5" points="765.008,87.549 761.76,92.707 763.139,92.707 760.418,100.967 764.998,100.967 		"/>
		<polygon fill="#00557C" points="765.008,87.549 768.258,92.707 766.879,92.707 769.6,100.967 764.998,100.967 		"/>
		<polygon opacity="0.4" fill="#464541" enable-background="new    " points="760.418,100.967 766.955,93.271 769.6,100.967 		"/>
	</g>
	<g>
		<rect x="677.573" y="102.068" fill="#464541" width="2.202" height="3.304"/>
		<polygon fill="#91C9E8" points="680.426,93.809 681.805,93.809 678.556,88.479 675.307,93.809 676.686,93.809 673.964,102.068 
			678.544,102.068 683.146,102.068 		"/>
		<polygon fill="#147DA5" points="678.556,88.65 675.307,93.809 676.686,93.809 673.964,102.068 678.544,102.068 		"/>
		<polygon fill="#00557C" points="678.556,88.65 681.805,93.809 680.426,93.809 683.146,102.068 678.544,102.068 		"/>
		<polygon opacity="0.4" fill="#464541" enable-background="new    " points="673.964,102.068 680.502,94.373 683.146,102.068 		"/>
	</g>
	<g>
		<rect x="714.467" y="194.58" fill="#464541" width="4.957" height="6.608"/>
		<polygon fill="#91C9E8" points="721.169,174.205 724.498,174.205 716.651,161.333 708.805,174.205 712.135,174.205 
			705.562,194.58 716.623,194.58 727.742,194.58 		"/>
		<polygon fill="#147DA5" points="716.651,161.96 708.805,174.205 712.135,174.205 705.562,194.58 716.623,194.58 		"/>
		<polygon fill="#00557C" points="716.651,161.96 724.498,174.205 721.169,174.205 727.742,194.58 716.623,194.58 		"/>
		<polygon opacity="0.4" fill="#464541" enable-background="new    " points="705.562,194.58 721.353,175.991 727.742,194.58 		"/>
	</g>
	<g>
		<rect x="742" y="152.179" fill="#464541" width="3.305" height="5.506"/>
		<polygon fill="#91C9E8" points="747.046,136.209 749.726,136.209 743.41,125.849 737.094,136.209 739.774,136.209 
			734.484,152.179 743.388,152.179 752.336,152.179 		"/>
		<polygon fill="#147DA5" points="743.41,126.139 737.094,136.209 739.774,136.209 734.484,152.179 743.388,152.179 		"/>
		<polygon fill="#00557C" points="743.41,126.139 749.726,136.209 747.046,136.209 752.336,152.179 743.388,152.179 		"/>
		<polygon opacity="0.4" fill="#464541" enable-background="new    " points="734.484,152.179 747.194,137.218 752.336,152.179 		
			"/>
	</g>
	<g>
		<rect x="778.895" y="119.689" fill="#464541" width="2.754" height="4.405"/>
		<polygon fill="#91C9E8" points="782.594,108.126 784.502,108.126 780.004,100.748 775.506,108.126 777.415,108.126 
			773.648,119.689 779.988,119.689 786.36,119.689 		"/>
		<polygon fill="#147DA5" points="780.004,101.05 775.506,108.126 777.415,108.126 773.648,119.689 779.988,119.689 		"/>
		<polygon fill="#00557C" points="780.004,101.05 784.502,108.126 782.594,108.126 786.36,119.689 779.988,119.689 		"/>
		<polygon opacity="0.4" fill="#464541" enable-background="new    " points="773.648,119.689 782.699,109.036 786.36,119.689 		"/>
	</g>
	<g>
		<rect x="646.178" y="108.429" fill="#464541" width="2.203" height="3.304"/>
		<polygon fill="#91C9E8" points="649.433,98.518 651.015,98.518 647.288,92.403 643.56,98.518 645.142,98.518 642.021,108.429 
			647.274,108.429 652.555,108.429 		"/>
		<polygon fill="#147DA5" points="647.288,92.817 643.56,98.518 645.142,98.518 642.021,108.429 647.274,108.429 		"/>
		<polygon fill="#00557C" points="647.288,92.817 651.015,98.518 649.433,98.518 652.555,108.429 647.274,108.429 		"/>
		<polygon opacity="0.4" fill="#464541" enable-background="new    " points="642.021,108.429 649.52,99.6 652.555,108.429 		"/>
	</g>
	<g>
		<rect x="802.572" y="231.474" fill="#464541" width="6.058" height="8.811"/>
		<polygon fill="#91C9E8" points="811.28,206.143 815.511,206.143 805.543,189.792 795.573,206.143 799.805,206.143 
			791.457,231.474 805.508,231.474 819.629,231.474 		"/>
		<polygon fill="#147DA5" points="805.543,190.312 795.573,206.143 799.805,206.143 791.457,231.474 805.508,231.474 		"/>
		<polygon fill="#00557C" points="805.543,190.312 815.511,206.143 811.28,206.143 819.629,231.474 805.508,231.474 		"/>
		<polygon opacity="0.4" fill="#464541" enable-background="new    " points="791.457,231.474 811.515,207.863 819.629,231.474 		
			"/>
	</g>
	<g>
		<rect x="655.721" y="305.041" fill="#464541" width="8.483" height="12.338"/>
		<polygon fill="#91C9E8" points="667.916,269.564 673.841,269.564 659.881,246.665 645.918,269.564 651.844,269.564 
			640.153,305.041 659.832,305.041 679.608,305.041 		"/>
		<polygon fill="#147DA5" points="659.881,247.393 645.918,269.564 651.844,269.564 640.153,305.041 659.832,305.041 		"/>
		<polygon fill="#00557C" points="659.881,247.393 673.841,269.564 667.916,269.564 679.608,305.041 659.832,305.041 		"/>
		<polygon opacity="0.4" fill="#464541" enable-background="new    " points="640.153,305.041 668.244,271.973 679.608,305.041 		
			"/>
	</g>
	<g>
		<rect x="692.514" y="384.294" fill="#464541" width="13.217" height="19.273"/>
		<polygon fill="#91C9E8" points="711.39,328.678 720.681,328.678 698.787,292.767 676.893,328.678 686.186,328.678 
			667.851,384.294 698.711,384.294 729.726,384.294 		"/>
		<polygon fill="#147DA5" points="698.787,293.901 676.893,328.678 686.186,328.678 667.851,384.294 698.711,384.294 		"/>
		<polygon fill="#00557C" points="698.787,293.901 720.681,328.678 711.39,328.678 729.726,384.294 698.711,384.294 		"/>
		<polygon opacity="0.4" fill="#464541" enable-background="new    " points="667.851,384.294 711.903,332.439 729.726,384.294 		
			"/>
	</g>
	<g>
		<polygon fill="#147DA5" points="670.166,76.035 664.795,90.505 670.166,90.505 		"/>
		<polygon fill="#00557C" points="670.166,76.068 674.932,90.505 670.166,90.505 		"/>
		<rect x="669.064" y="90.505" fill="#464541" width="1.651" height="3.304"/>
		<polygon opacity="0.4" fill="#464541" enable-background="new    " points="664.795,90.505 671.812,81.56 674.932,90.505 		"/>
	</g>
	<g>
		<polygon fill="#147DA5" points="696.407,80.868 691.227,95.46 696.407,95.46 		"/>
		<polygon fill="#00557C" points="696.407,80.901 701.363,95.46 696.407,95.46 		"/>
		<rect x="695.307" y="95.46" fill="#464541" width="1.651" height="2.753"/>
		<polygon opacity="0.4" fill="#464541" enable-background="new    " points="691.227,95.46 698.244,86.517 701.363,95.46 		"/>
	</g>
	<g>
		<polygon fill="#147DA5" points="698.788,105.401 693.817,119.717 698.788,119.717 		"/>
		<polygon fill="#00557C" points="698.788,105.435 703.953,119.717 698.788,119.717 		"/>
		<rect x="698.237" y="119.717" fill="#464541" width="1.652" height="3.304"/>
		<polygon opacity="0.4" fill="#464541" enable-background="new    " points="693.817,119.717 700.834,110.773 703.953,119.717 		
			"/>
	</g>
	<g>
		<polygon fill="#147DA5" points="668.212,178.541 652.213,223.213 668.212,223.213 		"/>
		<polygon fill="#00557C" points="668.212,178.642 681.816,223.213 668.212,223.213 		"/>
		<rect x="664.357" y="223.213" fill="#464541" width="5.506" height="8.26"/>
		<polygon opacity="0.4" fill="#464541" enable-background="new    " points="652.213,223.213 672.706,196.072 681.816,223.213 		
			"/>
	</g>
	<g>
		<polygon fill="#147DA5" points="769.533,223.091 748.026,282.685 769.533,282.685 		"/>
		<polygon fill="#00557C" points="769.533,223.225 787.543,282.685 769.533,282.685 		"/>
		<rect x="764.027" y="282.685" fill="#464541" width="7.709" height="11.013"/>
		<polygon opacity="0.4" fill="#464541" enable-background="new    " points="748.026,282.685 775.383,246.454 787.543,282.685 		
			"/>
	</g>
	<g>
		<polygon fill="#147DA5" points="631.758,120.275 621.965,147.773 631.758,147.773 		"/>
		<polygon fill="#00557C" points="631.758,120.336 639.88,147.773 631.758,147.773 		"/>
		<rect x="629.556" y="147.773" fill="#464541" width="2.753" height="4.956"/>
		<polygon opacity="0.4" fill="#464541" enable-background="new    " points="621.965,147.773 634.367,131.349 639.88,147.773 		"/>
	</g>
	<g>
		<polygon fill="#147DA5" points="667.662,135.142 656.958,165.395 667.662,165.395 		"/>
		<polygon fill="#00557C" points="667.662,135.21 676.695,165.395 667.662,165.395 		"/>
		<rect x="665.459" y="165.395" fill="#464541" width="2.753" height="5.506"/>
		<polygon opacity="0.4" fill="#464541" enable-background="new    " points="656.958,165.395 670.621,147.298 676.695,165.395 		
			"/>
	</g>
	<g>
		<polygon fill="#147DA5" points="749.158,153.337 738.367,185.218 749.158,185.218 		"/>
		<polygon fill="#00557C" points="749.158,153.41 759.428,185.218 749.158,185.218 		"/>
		<rect x="746.956" y="185.218" fill="#464541" width="3.854" height="6.057"/>
		<polygon opacity="0.4" fill="#464541" enable-background="new    " points="738.367,185.218 752.947,165.91 759.428,185.218 		"/>
	</g>
	<g>
		<polygon fill="#459DBF" points="615.957,76.528 610.914,91.055 615.957,91.055 		"/>
		<polygon fill="#3285A6" points="615.957,76.528 620.813,91.055 615.957,91.055 		"/>
		<rect x="614.855" y="91.055" fill="#464541" width="2.203" height="2.753"/>
		<polygon opacity="0.1" fill="#464541" enable-background="new    " points="610.914,91.055 617.767,82.319 620.813,91.055 		"/>
	</g>
	<g>
		<polygon fill="#459DBF" points="659.401,89.193 654.357,103.72 659.401,103.72 		"/>
		<polygon fill="#3285A6" points="659.401,89.193 664.258,103.72 659.401,103.72 		"/>
		<rect x="658.301" y="103.72" fill="#464541" width="2.202" height="2.753"/>
		<polygon opacity="0.1" fill="#464541" enable-background="new    " points="654.357,103.72 661.211,94.984 664.258,103.72 		"/>
	</g>
	<g>
		<polygon fill="#459DBF" points="690.789,140.829 678.68,174.756 690.789,174.756 		"/>
		<polygon fill="#3285A6" points="690.789,140.829 702.243,174.756 690.789,174.756 		"/>
		<rect x="687.485" y="174.756" fill="#464541" width="4.956" height="6.607"/>
		<polygon opacity="0.1" fill="#464541" enable-background="new    " points="678.68,174.756 694.991,153.963 702.243,174.756 		"/>
	</g>
	<g>
		<polygon fill="#459DBF" points="732.639,106.064 724.683,126.848 732.639,126.848 		"/>
		<polygon fill="#3285A6" points="732.639,106.064 738.867,126.848 732.639,126.848 		"/>
		<rect x="729.886" y="126.848" fill="#464541" width="3.304" height="3.854"/>
		<polygon opacity="0.1" fill="#464541" enable-background="new    " points="724.683,126.848 734.502,114.332 738.867,126.848 		
			"/>
	</g>
	<g>
		<polygon fill="#459DBF" points="772.287,127.738 763.131,153.28 772.287,153.28 		"/>
		<polygon fill="#3285A6" points="772.287,127.738 780.74,153.28 772.287,153.28 		"/>
		<rect x="770.084" y="153.28" fill="#464541" width="3.305" height="4.956"/>
		<polygon opacity="0.1" fill="#464541" enable-background="new    " points="763.131,153.28 775.32,137.742 780.74,153.28 		"/>
	</g>
	<g>
		<polygon fill="#459DBF" points="790.459,111.767 783.74,130.152 790.459,130.152 		"/>
		<polygon fill="#3285A6" points="790.459,111.767 796.637,130.152 790.459,130.152 		"/>
		<rect x="788.807" y="130.152" fill="#464541" width="2.753" height="3.855"/>
		<polygon opacity="0.1" fill="#464541" enable-background="new    " points="783.74,130.152 792.668,118.772 796.637,130.152 		"/>
	</g>
	<g>
		<polygon fill="#459DBF" points="773.938,170.95 761.723,205.042 773.938,205.042 		"/>
		<polygon fill="#3285A6" points="773.938,170.95 785.285,205.042 773.938,205.042 		"/>
		<rect x="770.635" y="205.042" fill="#464541" width="4.956" height="6.607"/>
		<polygon opacity="0.1" fill="#464541" enable-background="new    " points="761.723,205.042 778.033,184.249 785.285,205.042 		
			"/>
	</g>
	<g>
		<polygon fill="#459DBF" points="701.252,212.189 682.625,265.064 701.252,265.064 		"/>
		<polygon fill="#3285A6" points="701.252,212.189 719.01,265.064 701.252,265.064 		"/>
		<rect x="696.295" y="265.064" fill="#464541" width="7.71" height="9.912"/>
		<polygon opacity="0.1" fill="#464541" enable-background="new    " points="682.625,265.064 707.812,232.957 719.01,265.064 		"/>
	</g>
	<g>
		<polygon fill="#459DBF" points="627.959,331.689 580.907,465.252 627.959,465.252 		"/>
		<polygon fill="#3285A6" points="627.959,331.689 672.815,465.252 627.959,465.252 		"/>
		<rect x="615.438" y="465.252" fill="#464541" width="19.476" height="25.036"/>
		<polygon opacity="0.1" fill="#464541" enable-background="new    " points="580.907,465.252 644.531,384.148 672.815,465.252 		
			"/>
	</g>
	<g>
		<polygon fill="#459DBF" points="723.277,92.002 717.984,106.474 723.277,106.474 		"/>
		<polygon fill="#3285A6" points="723.277,92.002 727.885,106.474 723.277,106.474 		"/>
		<rect x="721.626" y="106.474" fill="#464541" width="2.202" height="2.203"/>
		<polygon opacity="0.1" fill="#464541" enable-background="new    " points="717.984,106.474 724.838,97.739 727.885,106.474 		"/>
	</g>
	<g>
		<rect x="670.965" y="132.905" fill="#464541" width="2.754" height="4.405"/>
		<polygon fill="#91C9E8" points="674.884,119.689 677.052,119.689 671.943,111.31 666.833,119.689 669.003,119.689 
			664.724,132.905 671.926,132.905 679.163,132.905 		"/>
		<polygon fill="#147DA5" points="671.943,111.693 666.833,119.689 669.003,119.689 664.724,132.905 671.926,132.905 		"/>
		<polygon fill="#00557C" points="671.943,111.693 677.052,119.689 674.884,119.689 679.163,132.905 671.926,132.905 		"/>
		<polygon opacity="0.4" fill="#464541" enable-background="new    " points="664.724,132.905 675.004,120.804 679.163,132.905 		
			"/>
	</g>
	<g>
		<rect x="707.859" y="149.976" fill="#464541" width="3.305" height="6.608"/>
		<polygon fill="#B4DCED" points="713.129,134.007 715.953,134.007 709.301,123.099 702.65,134.007 705.474,134.007 
			699.902,149.976 709.278,149.976 718.699,149.976 		"/>
		<polygon fill="#459DBF" points="709.301,122.922 702.65,134.007 705.474,134.007 699.902,149.976 709.278,149.976 		"/>
		<polygon fill="#3285A6" points="709.301,122.922 715.953,134.007 713.129,134.007 718.699,149.976 709.278,149.976 		"/>
		<polygon opacity="0.1" fill="#464541" enable-background="new    " points="699.902,149.976 713.248,134.004 718.699,149.976 		
			"/>
	</g>
	<g>
		<rect x="641.78" y="192.377" fill="#464541" width="4.956" height="9.912"/>
		<polygon fill="#B4DCED" points="649.527,168.698 653.77,168.698 643.773,152.304 633.777,168.698 638.021,168.698 
			629.647,192.377 643.738,192.377 657.898,192.377 		"/>
		<polygon fill="#459DBF" points="643.773,151.876 633.777,168.698 638.021,168.698 629.647,192.377 643.738,192.377 		"/>
		<polygon fill="#3285A6" points="643.773,151.876 653.77,168.698 649.527,168.698 657.898,192.377 643.738,192.377 		"/>
		<polygon opacity="0.1" fill="#464541" enable-background="new    " points="629.647,192.377 649.706,168.372 657.898,192.377 		
			"/>
	</g>
</g>
<g id="Calque_2_1_">
	<g>
		<rect x="42.851" y="95.12" fill="#464541" width="1.651" height="3.304"/>
		<polygon fill="#B4DCED" points="45.62,87.411 47.071,87.411 43.653,81.805 40.235,87.411 41.686,87.411 38.823,95.12 
			43.641,95.12 48.482,95.12 		"/>
		<polygon fill="#459DBF" points="43.653,81.467 40.235,87.411 41.686,87.411 38.823,95.12 43.641,95.12 		"/>
		<polygon fill="#3285A6" points="43.653,81.467 47.071,87.411 45.62,87.411 48.482,95.12 43.641,95.12 		"/>
		<polygon opacity="0.1" fill="#464541" enable-background="new    " points="38.823,95.12 45.681,86.913 48.482,95.12 		"/>
	</g>
	<g>
		<rect x="77.841" y="229.631" fill="#464541" width="6.057" height="10.462"/>
		<polygon fill="#B4DCED" points="86.826,204.3 91.203,204.3 80.888,187.382 70.574,204.3 74.952,204.3 66.313,229.631 
			80.853,229.631 95.464,229.631 		"/>
		<polygon fill="#459DBF" points="80.888,187.391 70.574,204.3 74.952,204.3 66.313,229.631 80.853,229.631 		"/>
		<polygon fill="#3285A6" points="80.888,187.391 91.203,204.3 86.826,204.3 95.464,229.631 80.853,229.631 		"/>
		<polygon opacity="0.1" fill="#464541" enable-background="new    " points="66.313,229.631 87.011,204.859 95.464,229.631 		"/>
	</g>
	<g>
		<rect x="-21.773" y="287.48" fill="#464541" width="9.455" height="16.332"/>
		<polygon fill="#B4DCED" points="-7.747,247.938 -0.914,247.938 -17.017,221.528 -33.117,247.938 -26.282,247.938 -39.769,287.48 
			-17.072,287.48 5.737,287.48 		"/>
		<polygon fill="#459DBF" points="-17.017,221.542 -33.117,247.938 -26.282,247.938 -39.769,287.48 -17.072,287.48 		"/>
		<polygon fill="#3285A6" points="-17.017,221.542 -0.914,247.938 -7.747,247.938 5.737,287.48 -17.072,287.48 		"/>
		<polygon opacity="0.1" fill="#464541" enable-background="new    " points="-39.769,287.48 -7.459,248.811 5.737,287.48 		"/>
	</g>
	<g>
		<rect x="110.88" y="393.176" fill="#464541" width="13.767" height="23.128"/>
		<polygon fill="#B4DCED" points="131.052,336.458 140.835,336.458 117.782,298.649 94.731,336.458 104.516,336.458 85.208,393.176 
			117.702,393.176 150.357,393.176 		"/>
		<polygon fill="#459DBF" points="117.782,298.722 94.731,336.458 104.516,336.458 85.208,393.176 117.702,393.176 		"/>
		<polygon fill="#3285A6" points="117.782,298.722 140.835,336.458 131.052,336.458 150.357,393.176 117.702,393.176 		"/>
		<polygon opacity="0.1" fill="#464541" enable-background="new    " points="85.208,393.176 131.465,337.818 150.357,393.176 		"/>
	</g>
	<g>
		<rect x="284.343" y="616.059" fill="#464541" width="25.81" height="43.36"/>
		<polygon fill="#B4DCED" points="322.161,509.726 340.502,509.726 297.284,438.843 254.068,509.726 272.412,509.726 
			236.214,616.059 297.134,616.059 358.355,616.059 		"/>
		<polygon fill="#459DBF" points="297.284,438.979 254.068,509.726 272.412,509.726 236.214,616.059 297.134,616.059 		"/>
		<polygon fill="#3285A6" points="297.284,438.979 340.502,509.726 322.161,509.726 358.355,616.059 297.134,616.059 		"/>
		<polygon opacity="0.1" fill="#464541" enable-background="new    " points="236.214,616.059 322.936,512.276 358.355,616.059 		
			"/>
	</g>
	<g>
		<rect x="152.278" y="187.875" fill="#464541" width="3.854" height="7.159"/>
		<polygon fill="#B4DCED" points="158.381,169.153 161.653,169.153 153.947,156.515 146.241,169.153 149.511,169.153 
			143.057,187.875 153.919,187.875 164.834,187.875 		"/>
		<polygon fill="#459DBF" points="153.947,156.42 146.241,169.153 149.511,169.153 143.057,187.875 153.919,187.875 		"/>
		<polygon fill="#3285A6" points="153.947,156.42 161.653,169.153 158.381,169.153 164.834,187.875 153.919,187.875 		"/>
		<polygon opacity="0.1" fill="#464541" enable-background="new    " points="143.057,187.875 158.52,169.37 164.834,187.875 		"/>
	</g>
	<g>
		<rect x="86.903" y="125.406" fill="#464541" width="2.202" height="4.956"/>
		<polygon fill="#B4DCED" points="90.856,112.741 92.993,112.741 87.96,104.486 82.926,112.741 85.063,112.741 80.847,125.406 
			87.942,125.406 95.071,125.406 		"/>
		<polygon fill="#459DBF" points="87.96,104.643 82.926,112.741 85.063,112.741 80.847,125.406 87.942,125.406 		"/>
		<polygon fill="#3285A6" points="87.96,104.643 92.993,112.741 90.856,112.741 95.071,125.406 87.942,125.406 		"/>
		<polygon opacity="0.1" fill="#464541" enable-background="new    " points="80.847,125.406 90.946,113.32 95.071,125.406 		"/>
	</g>
	<g>
		<rect x="72.035" y="99.525" fill="#464541" width="1.651" height="3.304"/>
		<polygon fill="#B4DCED" points="75.009,91.266 76.46,91.266 73.042,85.66 69.624,91.266 71.075,91.266 68.212,99.525 
			73.03,99.525 77.871,99.525 		"/>
		<polygon fill="#459DBF" points="73.042,85.596 69.624,91.266 71.075,91.266 68.212,99.525 73.03,99.525 		"/>
		<polygon fill="#3285A6" points="73.042,85.596 76.46,91.266 75.009,91.266 77.871,99.525 73.03,99.525 		"/>
		<polygon opacity="0.1" fill="#464541" enable-background="new    " points="68.212,99.525 75.07,91.318 77.871,99.525 		"/>
	</g>
	<g>
		<rect x="135.911" y="114.944" fill="#464541" width="2.203" height="3.854"/>
		<polygon fill="#B4DCED" points="139.207,105.032 140.945,105.032 136.849,98.313 132.751,105.032 134.491,105.032 131.06,114.944 
			136.834,114.944 142.638,114.944 		"/>
		<polygon fill="#459DBF" points="136.849,98.242 132.751,105.032 134.491,105.032 131.06,114.944 136.834,114.944 		"/>
		<polygon fill="#3285A6" points="136.849,98.242 140.945,105.032 139.207,105.032 142.638,114.944 136.834,114.944 		"/>
		<polygon opacity="0.1" fill="#464541" enable-background="new    " points="131.06,114.944 139.28,105.105 142.638,114.944 		"/>
	</g>
	<g>
		<rect x="63.225" y="86.86" fill="#464541" width="2.202" height="2.753"/>
		<polygon fill="#91C9E8" points="66.206,78.601 67.585,78.601 64.335,73.271 61.086,78.601 62.466,78.601 59.745,86.86 
			64.325,86.86 68.927,86.86 		"/>
		<polygon fill="#147DA5" points="64.335,73.443 61.086,78.601 62.466,78.601 59.745,86.86 64.325,86.86 		"/>
		<polygon fill="#00557C" points="64.335,73.443 67.585,78.601 66.206,78.601 68.927,86.86 64.325,86.86 		"/>
		<polygon opacity="0.4" fill="#464541" enable-background="new    " points="59.745,86.86 66.282,79.165 68.927,86.86 		"/>
	</g>
	<g>
		<rect x="96.815" y="98.424" fill="#464541" width="2.202" height="3.304"/>
		<polygon fill="#91C9E8" points="99.667,90.164 101.046,90.164 97.796,84.835 94.548,90.164 95.927,90.164 93.206,98.424 
			97.786,98.424 102.388,98.424 		"/>
		<polygon fill="#147DA5" points="97.796,85.006 94.548,90.164 95.927,90.164 93.206,98.424 97.786,98.424 		"/>
		<polygon fill="#00557C" points="97.796,85.006 101.046,90.164 99.667,90.164 102.388,98.424 97.786,98.424 		"/>
		<polygon opacity="0.4" fill="#464541" enable-background="new    " points="93.206,98.424 99.743,90.729 102.388,98.424 		"/>
	</g>
	<g>
		<rect x="10.361" y="99.525" fill="#464541" width="2.202" height="3.304"/>
		<polygon fill="#91C9E8" points="13.214,91.266 14.593,91.266 11.344,85.937 8.095,91.266 9.474,91.266 6.752,99.525 
			11.332,99.525 15.935,99.525 		"/>
		<polygon fill="#147DA5" points="11.344,86.107 8.095,91.266 9.474,91.266 6.752,99.525 11.332,99.525 		"/>
		<polygon fill="#00557C" points="11.344,86.107 14.593,91.266 13.214,91.266 15.935,99.525 11.332,99.525 		"/>
		<polygon opacity="0.4" fill="#464541" enable-background="new    " points="6.752,99.525 13.29,91.83 15.935,99.525 		"/>
	</g>
	<g>
		<rect x="47.255" y="192.037" fill="#464541" width="4.957" height="6.608"/>
		<polygon fill="#91C9E8" points="53.957,171.662 57.286,171.662 49.439,158.791 41.593,171.662 44.923,171.662 38.351,192.037 
			49.411,192.037 60.53,192.037 		"/>
		<polygon fill="#147DA5" points="49.439,159.417 41.593,171.662 44.923,171.662 38.351,192.037 49.411,192.037 		"/>
		<polygon fill="#00557C" points="49.439,159.417 57.286,171.662 53.957,171.662 60.53,192.037 49.411,192.037 		"/>
		<polygon opacity="0.4" fill="#464541" enable-background="new    " points="38.351,192.037 54.141,173.448 60.53,192.037 		"/>
	</g>
	<g>
		<rect x="74.788" y="149.636" fill="#464541" width="3.305" height="5.506"/>
		<polygon fill="#91C9E8" points="79.834,133.666 82.514,133.666 76.198,123.306 69.882,133.666 72.562,133.666 67.272,149.636 
			76.176,149.636 85.124,149.636 		"/>
		<polygon fill="#147DA5" points="76.198,123.596 69.882,133.666 72.562,133.666 67.272,149.636 76.176,149.636 		"/>
		<polygon fill="#00557C" points="76.198,123.596 82.514,133.666 79.834,133.666 85.124,149.636 76.176,149.636 		"/>
		<polygon opacity="0.4" fill="#464541" enable-background="new    " points="67.272,149.636 79.982,134.675 85.124,149.636 		"/>
	</g>
	<g>
		<rect x="111.683" y="117.146" fill="#464541" width="2.754" height="4.405"/>
		<polygon fill="#91C9E8" points="115.382,105.583 117.29,105.583 112.792,98.205 108.294,105.583 110.203,105.583 106.437,117.146 
			112.776,117.146 119.148,117.146 		"/>
		<polygon fill="#147DA5" points="112.792,98.507 108.294,105.583 110.203,105.583 106.437,117.146 112.776,117.146 		"/>
		<polygon fill="#00557C" points="112.792,98.507 117.29,105.583 115.382,105.583 119.148,117.146 112.776,117.146 		"/>
		<polygon opacity="0.4" fill="#464541" enable-background="new    " points="106.437,117.146 115.487,106.493 119.148,117.146 		
			"/>
	</g>
	<g>
		<rect x="151.33" y="94.569" fill="#464541" width="2.203" height="3.304"/>
		<polygon fill="#91C9E8" points="154.585,84.658 156.167,84.658 152.44,78.543 148.712,84.658 150.294,84.658 147.173,94.569 
			152.427,94.569 157.707,94.569 		"/>
		<polygon fill="#147DA5" points="152.44,78.958 148.712,84.658 150.294,84.658 147.173,94.569 152.427,94.569 		"/>
		<polygon fill="#00557C" points="152.44,78.958 156.167,84.658 154.585,84.658 157.707,94.569 152.427,94.569 		"/>
		<polygon opacity="0.4" fill="#464541" enable-background="new    " points="147.173,94.569 154.672,85.74 157.707,94.569 		"/>
	</g>
	<g>
		<rect x="143.368" y="232.935" fill="#464541" width="6.058" height="8.811"/>
		<polygon fill="#91C9E8" points="152.076,207.604 156.307,207.604 146.339,191.253 136.369,207.604 140.601,207.604 
			132.253,232.935 146.304,232.935 160.425,232.935 		"/>
		<polygon fill="#147DA5" points="146.339,191.773 136.369,207.604 140.601,207.604 132.253,232.935 146.304,232.935 		"/>
		<polygon fill="#00557C" points="146.339,191.773 156.307,207.604 152.076,207.604 160.425,232.935 146.304,232.935 		"/>
		<polygon opacity="0.4" fill="#464541" enable-background="new    " points="132.253,232.935 152.311,209.324 160.425,232.935 		
			"/>
	</g>
	<g>
		<rect x="21.122" y="375.555" fill="#464541" width="13.217" height="19.273"/>
		<polygon fill="#91C9E8" points="39.998,319.938 49.289,319.938 27.396,284.027 5.501,319.938 14.794,319.938 -3.541,375.555 
			27.319,375.555 58.334,375.555 		"/>
		<polygon fill="#147DA5" points="27.396,285.162 5.501,319.938 14.794,319.938 -3.541,375.555 27.319,375.555 		"/>
		<polygon fill="#00557C" points="27.396,285.162 49.289,319.938 39.998,319.938 58.334,375.555 27.319,375.555 		"/>
		<polygon opacity="0.4" fill="#464541" enable-background="new    " points="-3.541,375.555 40.512,323.7 58.334,375.555 		"/>
	</g>
	<g>
		<rect x="144.819" y="724.423" fill="#464541" width="27.15" height="39.593"/>
		<polygon fill="#91C9E8" points="183.595,610.175 202.681,610.175 157.707,536.404 112.73,610.175 131.82,610.175 94.155,724.423 
			157.55,724.423 221.262,724.423 		"/>
		<polygon fill="#147DA5" points="157.707,538.735 112.73,610.175 131.82,610.175 94.155,724.423 157.55,724.423 		"/>
		<polygon fill="#00557C" points="157.707,538.735 202.681,610.175 183.595,610.175 221.262,724.423 157.55,724.423 		"/>
		<polygon opacity="0.4" fill="#464541" enable-background="new    " points="94.155,724.423 184.65,617.901 221.262,724.423 		"/>
	</g>
	<g>
		<polygon fill="#147DA5" points="88.556,73.492 83.185,87.962 88.556,87.962 		"/>
		<polygon fill="#00557C" points="88.556,73.525 93.321,87.962 88.556,87.962 		"/>
		<rect x="87.454" y="87.962" fill="#464541" width="1.651" height="3.304"/>
		<polygon opacity="0.4" fill="#464541" enable-background="new    " points="83.185,87.962 90.201,79.017 93.321,87.962 		"/>
	</g>
	<g>
		<polygon fill="#147DA5" points="132.607,78.325 127.427,92.917 132.607,92.917 		"/>
		<polygon fill="#00557C" points="132.607,78.358 137.563,92.917 132.607,92.917 		"/>
		<rect x="131.507" y="92.917" fill="#464541" width="1.651" height="2.753"/>
		<polygon opacity="0.4" fill="#464541" enable-background="new    " points="127.427,92.917 134.444,83.974 137.563,92.917 		"/>
	</g>
	<g>
		<polygon fill="#147DA5" points="22.476,102.831 17.505,117.146 22.476,117.146 		"/>
		<polygon fill="#00557C" points="22.476,102.865 27.641,117.146 22.476,117.146 		"/>
		<rect x="21.925" y="117.146" fill="#464541" width="1.652" height="3.304"/>
		<polygon opacity="0.4" fill="#464541" enable-background="new    " points="17.505,117.146 24.521,108.203 27.641,117.146 		"/>
	</g>
	<g>
		<polygon fill="#147DA5" points="41.749,98.059 34.665,118.248 41.749,118.248 		"/>
		<polygon fill="#00557C" points="41.749,98.107 49.026,118.248 41.749,118.248 		"/>
		<rect x="41.198" y="118.248" fill="#464541" width="2.203" height="4.957"/>
		<polygon opacity="0.4" fill="#464541" enable-background="new    " points="34.665,118.248 44.606,105.578 49.026,118.248 		"/>
	</g>
	<g>
		<polygon fill="#147DA5" points="9.008,180.001 -6.991,224.674 9.008,224.674 		"/>
		<polygon fill="#00557C" points="9.008,180.103 22.612,224.674 9.008,224.674 		"/>
		<rect x="5.153" y="224.674" fill="#464541" width="5.506" height="8.26"/>
		<polygon opacity="0.4" fill="#464541" enable-background="new    " points="-6.991,224.674 13.502,197.533 22.612,224.674 		"/>
	</g>
	<g>
		<polygon fill="#147DA5" points="110.329,224.552 88.822,284.146 110.329,284.146 		"/>
		<polygon fill="#00557C" points="110.329,224.686 128.339,284.146 110.329,284.146 		"/>
		<rect x="104.823" y="284.146" fill="#464541" width="7.709" height="11.012"/>
		<polygon opacity="0.4" fill="#464541" enable-background="new    " points="88.822,284.146 116.179,247.915 128.339,284.146 		"/>
	</g>
	<g>
		<polygon fill="#147DA5" points="67.021,398.654 17.308,536.404 67.021,536.404 		"/>
		<polygon fill="#00557C" points="67.021,398.961 108.649,536.404 67.021,536.404 		"/>
		<rect x="54.294" y="536.404" fill="#464541" width="17.819" height="25.453"/>
		<polygon opacity="0.4" fill="#464541" enable-background="new    " points="17.308,536.404 80.542,452.656 108.649,536.404 		"/>
	</g>
	<g>
		<polygon fill="#147DA5" points="147.476,117.732 137.683,145.23 147.476,145.23 		"/>
		<polygon fill="#00557C" points="147.476,117.793 155.598,145.23 147.476,145.23 		"/>
		<rect x="145.273" y="145.23" fill="#464541" width="2.753" height="4.956"/>
		<polygon opacity="0.4" fill="#464541" enable-background="new    " points="137.683,145.23 150.085,128.806 155.598,145.23 		"/>
	</g>
	<g>
		<polygon fill="#147DA5" points="0.45,132.599 -10.254,162.852 0.45,162.852 		"/>
		<polygon fill="#00557C" points="0.45,132.667 9.483,162.852 0.45,162.852 		"/>
		<rect x="-1.753" y="162.852" fill="#464541" width="2.753" height="5.506"/>
		<polygon opacity="0.4" fill="#464541" enable-background="new    " points="-10.254,162.852 3.409,144.755 9.483,162.852 		"/>
	</g>
	<g>
		<polygon fill="#147DA5" points="126.597,141.978 115.806,173.859 126.597,173.859 		"/>
		<polygon fill="#00557C" points="126.597,142.05 136.866,173.859 126.597,173.859 		"/>
		<rect x="124.395" y="173.859" fill="#464541" width="3.854" height="6.057"/>
		<polygon opacity="0.4" fill="#464541" enable-background="new    " points="115.806,173.859 130.386,154.55 136.866,173.859 		"/>
	</g>
	<g>
		<polygon fill="#459DBF" points="110.581,73.985 105.538,88.512 110.581,88.512 		"/>
		<polygon fill="#3285A6" points="110.581,73.985 115.438,88.512 110.581,88.512 		"/>
		<rect x="109.479" y="88.512" fill="#464541" width="2.203" height="2.753"/>
		<polygon opacity="0.1" fill="#464541" enable-background="new    " points="105.538,88.512 112.391,79.776 115.438,88.512 		"/>
	</g>
	<g>
		<polygon fill="#459DBF" points="23.577,138.286 11.468,172.213 23.577,172.213 		"/>
		<polygon fill="#3285A6" points="23.577,138.286 35.031,172.213 23.577,172.213 		"/>
		<rect x="20.273" y="172.213" fill="#464541" width="4.956" height="6.607"/>
		<polygon opacity="0.1" fill="#464541" enable-background="new    " points="11.468,172.213 27.779,151.42 35.031,172.213 		"/>
	</g>
	<g>
		<polygon fill="#459DBF" points="65.427,103.521 57.471,124.305 65.427,124.305 		"/>
		<polygon fill="#3285A6" points="65.427,103.521 71.655,124.305 65.427,124.305 		"/>
		<rect x="62.674" y="124.305" fill="#464541" width="3.304" height="3.854"/>
		<polygon opacity="0.1" fill="#464541" enable-background="new    " points="57.471,124.305 67.29,111.789 71.655,124.305 		"/>
	</g>
	<g>
		<polygon fill="#459DBF" points="105.075,125.195 95.919,150.737 105.075,150.737 		"/>
		<polygon fill="#3285A6" points="105.075,125.195 113.528,150.737 105.075,150.737 		"/>
		<rect x="102.872" y="150.737" fill="#464541" width="3.305" height="4.956"/>
		<polygon opacity="0.1" fill="#464541" enable-background="new    " points="95.919,150.737 108.108,135.199 113.528,150.737 		"/>
	</g>
	<g>
		<polygon fill="#459DBF" points="123.247,109.224 116.528,127.609 123.247,127.609 		"/>
		<polygon fill="#3285A6" points="123.247,109.224 129.425,127.609 123.247,127.609 		"/>
		<rect x="121.595" y="127.609" fill="#464541" width="2.753" height="3.855"/>
		<polygon opacity="0.1" fill="#464541" enable-background="new    " points="116.528,127.609 125.456,116.229 129.425,127.609 		
			"/>
	</g>
	<g>
		<polygon fill="#459DBF" points="114.734,172.411 102.519,206.503 114.734,206.503 		"/>
		<polygon fill="#3285A6" points="114.734,172.411 126.081,206.503 114.734,206.503 		"/>
		<rect x="111.431" y="206.503" fill="#464541" width="4.956" height="6.607"/>
		<polygon opacity="0.1" fill="#464541" enable-background="new    " points="102.519,206.503 118.829,185.71 126.081,206.503 		"/>
	</g>
	<g>
		<polygon fill="#459DBF" points="42.048,213.65 23.421,266.525 42.048,266.525 		"/>
		<polygon fill="#3285A6" points="42.048,213.65 59.806,266.525 42.048,266.525 		"/>
		<rect x="37.091" y="266.525" fill="#464541" width="7.71" height="9.911"/>
		<polygon opacity="0.1" fill="#464541" enable-background="new    " points="23.421,266.525 48.608,234.417 59.806,266.525 		"/>
	</g>
	<g>
		<polygon fill="#459DBF" points="321.006,232.993 297.877,298.646 321.006,298.646 		"/>
		<polygon fill="#3285A6" points="321.006,232.993 343.055,298.646 321.006,298.646 		"/>
		<rect x="314.851" y="298.646" fill="#464541" width="9.573" height="12.307"/>
		<polygon opacity="0.1" fill="#464541" enable-background="new    " points="297.877,298.646 329.152,258.779 343.055,298.646 		
			"/>
	</g>
	<g>
		<polygon fill="#459DBF" points="161.541,240.083 142.914,292.956 161.541,292.956 		"/>
		<polygon fill="#3285A6" points="161.541,240.083 179.299,292.956 161.541,292.956 		"/>
		<rect x="156.584" y="292.956" fill="#464541" width="7.71" height="9.912"/>
		<polygon opacity="0.1" fill="#464541" enable-background="new    " points="142.914,292.956 168.101,260.85 179.299,292.956 		"/>
	</g>
	<g>
		<polygon fill="#459DBF" points="56.065,89.459 50.772,103.931 56.065,103.931 		"/>
		<polygon fill="#3285A6" points="56.065,89.459 60.673,103.931 56.065,103.931 		"/>
		<rect x="54.414" y="103.931" fill="#464541" width="2.202" height="2.203"/>
		<polygon opacity="0.1" fill="#464541" enable-background="new    " points="50.772,103.931 57.626,95.196 60.673,103.931 		"/>
	</g>
	<g>
		<rect x="3.753" y="130.362" fill="#464541" width="2.754" height="4.405"/>
		<polygon fill="#91C9E8" points="7.672,117.146 9.84,117.146 4.731,108.767 -0.379,117.146 1.791,117.146 -2.488,130.362 
			4.714,130.362 11.951,130.362 		"/>
		<polygon fill="#147DA5" points="4.731,109.15 -0.379,117.146 1.791,117.146 -2.488,130.362 4.714,130.362 		"/>
		<polygon fill="#00557C" points="4.731,109.15 9.84,117.146 7.672,117.146 11.951,130.362 4.714,130.362 		"/>
		<polygon opacity="0.4" fill="#464541" enable-background="new    " points="-2.488,130.362 7.792,118.261 11.951,130.362 		"/>
	</g>
	<g>
		<rect x="40.647" y="147.433" fill="#464541" width="3.305" height="6.608"/>
		<polygon fill="#B4DCED" points="45.917,131.464 48.741,131.464 42.089,120.556 35.438,131.464 38.262,131.464 32.69,147.433 
			42.066,147.433 51.487,147.433 		"/>
		<polygon fill="#459DBF" points="42.089,120.379 35.438,131.464 38.262,131.464 32.69,147.433 42.066,147.433 		"/>
		<polygon fill="#3285A6" points="42.089,120.379 48.741,131.464 45.917,131.464 51.487,147.433 42.066,147.433 		"/>
		<polygon opacity="0.1" fill="#464541" enable-background="new    " points="32.69,147.433 46.036,131.461 51.487,147.433 		"/>
	</g>
	<g>
		<rect x="81.87" y="171.998" fill="#464541" width="3.271" height="6.541"/>
		<polygon fill="#B4DCED" points="86.981,156.374 89.781,156.374 83.185,145.556 76.589,156.374 79.389,156.374 73.864,171.998 
			83.162,171.998 92.505,171.998 		"/>
		<polygon fill="#459DBF" points="83.185,145.273 76.589,156.374 79.389,156.374 73.864,171.998 83.162,171.998 		"/>
		<polygon fill="#3285A6" points="83.185,145.273 89.781,156.374 86.981,156.374 92.505,171.998 83.162,171.998 		"/>
		<polygon opacity="0.1" fill="#464541" enable-background="new    " points="73.864,171.998 87.1,156.158 92.505,171.998 		"/>
	</g>
	<g>
		<polygon fill="#459DBF" points="156.163,97.174 151.12,111.702 156.163,111.702 		"/>
		<polygon fill="#3285A6" points="156.163,97.174 161.019,111.702 156.163,111.702 		"/>
		<rect x="155.061" y="111.702" fill="#464541" width="2.203" height="2.753"/>
		<polygon opacity="0.1" fill="#464541" enable-background="new    " points="151.12,111.702 157.972,102.966 161.019,111.702 		"/>
	</g>
	<g>
		<polygon fill="#459DBF" points="198.324,346.861 151.272,480.424 198.324,480.424 		"/>
		<polygon fill="#3285A6" points="198.324,346.861 243.181,480.424 198.324,480.424 		"/>
		<rect x="185.803" y="480.424" fill="#464541" width="19.476" height="25.036"/>
		<polygon opacity="0.1" fill="#464541" enable-background="new    " points="151.272,480.424 214.896,399.32 243.181,480.424 		"/>
	</g>
</g>
</svg>
