<?xml version="1.0" encoding="utf-8"?>
<!-- Generator: Adobe Illustrator 15.1.0, SVG Export Plug-In . SVG Version: 6.00 Build 0)  -->
<!DOCTYPE svg PUBLIC "-//W3C//DTD SVG 1.1//EN" "http://www.w3.org/Graphics/SVG/1.1/DTD/svg11.dtd">
<svg version="1.1" id="Calque_1" xmlns="http://www.w3.org/2000/svg" xmlns:xlink="http://www.w3.org/1999/xlink" x="0px" y="0px"
	 width="800px" height="600px" viewBox="0 0 800 600" enable-background="new 0 0 800 600" xml:space="preserve">
<g>
	<g transform="translate(0 -1028.4)">
		<path fill="#186D94" d="M494.813,1224.993v27.088v108.359v27.089h-13.549h-6.771c-11.216,0-20.317-9.483-20.317-20.317v-27.088
			v-6.772v-27.092v-27.087v-6.772v-27.091c0-12.194,9.102-20.316,20.317-20.316h6.771H494.813z"/>
		<path fill="#3E9DD7" d="M508.356,1238.538c7.473,0,13.545,5.423,13.545,13.543v27.091v54.179v27.089
			c0,6.771-6.072,13.545-13.545,13.545h-13.543v-27.09v-81.267v-27.09H508.356z"/>
		<rect x="481.265" y="1224.993" fill="#71CBF1" width="27.092" height="162.536"/>
		<path fill="#3E9DD7" d="M291.641,1238.538c-7.479,0-13.544,6.071-13.544,13.543v27.091v54.179v27.089
			c0,7.473,6.065,13.545,13.544,13.545h13.547v-27.09v-81.267v-27.09H291.641z"/>
		<path fill="#186D94" d="M305.188,1224.993v27.088v108.359v27.089h13.544h6.772c11.223,0,20.316-9.483,20.316-20.317v-27.088
			v-6.772v-27.092v-27.087v-6.772v-27.091c0-12.194-9.094-20.316-20.316-20.316h-6.772H305.188z"/>
		<path fill="#186D94" d="M399.583,1061.109c-82.294,0-148.991,66.36-148.991,148.991l-0.007,13.544h13.544
			c0.562-62.312,42.407-113.78,99.045-130.036c3.016-1.349,6.203-1.349,9.312-2.712h2.534c3.412-1.348,7.069-1.348,10.595-1.348
			c4.644-1.351,9.166-1.351,13.962-1.351c4.795,0,9.317,0,13.968,1.351c3.671,0,7.011,0,10.582,1.348
			c3.967,0,8.029,1.363,11.851,2.712c56.64,16.256,98.479,67.724,99.047,130.036h13.544V1210.1
			c0-82.631-66.705-148.991-148.991-148.991H399.583z"/>
		<path fill="#186D94" d="M399.583,1074.653c-82.294,0-148.991,66.36-148.991,148.991h13.537
			c0.569-62.312,42.407-113.78,99.045-130.036c3.016-1.349,6.203-1.349,9.312-2.712h2.534c3.419-1.348,7.076-1.348,10.595-1.348
			c4.644-1.351,9.173-1.351,13.969-1.351c4.794,0,9.317,0,13.961,1.351c3.671,0,7.011,0,10.582,1.348
			c3.967,0,8.029,1.363,11.851,2.712c56.64,16.256,98.479,67.724,99.047,130.036h13.544
			C548.567,1141.013,481.862,1074.653,399.583,1074.653z"/>
		<path fill="#186D94" d="M284.868,1231.765c0,11.231-9.092,20.316-20.316,20.316c-11.222,0-20.316-9.085-20.316-20.316
			c0-11.229,9.095-20.316,20.316-20.316C275.776,1211.448,284.868,1220.536,284.868,1231.765z"/>
		<path fill="#186D94" d="M257.066,1227.705l21.03,78.555c0.967,2.713,4.684,5.426,8.294,4.062c3.611-1.349,5.761-4.062,4.787-8.121
			l-21.03-78.556L257.066,1227.705L257.066,1227.705z"/>
		<path fill="#186D94" d="M515.128,1231.765c0,11.231,9.102,20.316,20.317,20.316s20.319-9.085,20.319-20.316
			c0-11.229-9.104-20.316-20.319-20.316S515.128,1220.536,515.128,1231.765z"/>
		<path opacity="0.3" d="M548.379,1216.095c-3.916-79.086-69.037-141.442-148.796-141.442c-80.027,0-145.297,62.758-148.832,142.204
			c-4.006,3.71-6.516,9.013-6.516,14.908c0,11.231,9.095,20.316,20.316,20.316c11.225,0,20.316-9.085,20.316-20.316
			c0-11.153-8.971-20.189-20.09-20.311c5.513-56.763,45.496-102.663,98.396-117.846c3.017-1.349,6.204-1.349,9.312-2.712h2.533
			c3.419-1.348,7.076-1.348,10.595-1.348c4.644-1.351,9.174-1.351,13.969-1.351c4.794,0,9.317,0,13.961,1.351
			c3.671,0,7.011,0,10.582,1.348c3.968,0,8.029,1.363,11.851,2.712c52.907,15.185,92.895,61.096,98.399,117.869
			c-10.721,0.557-19.248,9.419-19.248,20.288c0,11.231,9.102,20.316,20.317,20.316s20.319-9.085,20.319-20.316
			C555.765,1225.454,552.888,1219.82,548.379,1216.095z"/>
		<g>
			<path fill="#186D94" d="M542.933,1227.705l-21.031,78.555c-0.953,2.713-4.683,5.426-8.281,4.062
				c-3.622-1.349-5.767-4.062-4.801-8.121l21.032-78.556L542.933,1227.705L542.933,1227.705z"/>
			<path fill="#186D94" d="M278.097,1230.417c0,7.473-6.065,13.544-13.545,13.544c-7.479,0-13.544-6.071-13.544-13.544
				c0-7.486,6.065-13.544,13.544-13.544C272.031,1216.872,278.097,1222.93,278.097,1230.417z"/>
			<path fill="#186D94" d="M548.991,1230.417c0,7.473-6.059,13.544-13.546,13.544c-7.486,0-13.544-6.071-13.544-13.544
				c0-7.486,6.058-13.544,13.544-13.544C542.933,1216.872,548.991,1222.93,548.991,1230.417z"/>
		</g>
		<rect x="291.641" y="1224.993" fill="#71CBF1" width="27.091" height="162.536"/>
	</g>
</g>
<g>
	<path fill="#186D94" d="M210.695,443.682c-0.787,0.406-2.438,0.812-4.52,0.812c-4.824,0-8.43-3.047-8.43-8.684
		c0-5.383,3.631-8.988,8.938-8.988c2.107,0,3.479,0.457,4.062,0.762l-0.559,1.803c-0.812-0.406-2.006-0.711-3.428-0.711
		c-4.012,0-6.678,2.564-6.678,7.059c0,4.215,2.412,6.881,6.551,6.881c1.371,0,2.742-0.279,3.631-0.711L210.695,443.682z"/>
	<path fill="#186D94" d="M214.379,438.477c0.051,3.021,1.955,4.266,4.215,4.266c1.6,0,2.59-0.279,3.402-0.635l0.406,1.6
		c-0.787,0.355-2.158,0.787-4.113,0.787c-3.783,0-6.043-2.514-6.043-6.221s2.184-6.602,5.764-6.602c4.037,0,5.078,3.504,5.078,5.764
		c0,0.457-0.025,0.787-0.076,1.041H214.379z M220.93,436.877c0.025-1.396-0.584-3.605-3.098-3.605c-2.285,0-3.25,2.057-3.428,3.605
		H220.93z"/>
	<path fill="#186D94" d="M228.22,447.82c1.041-0.076,1.904-0.355,2.438-0.965c0.609-0.686,0.863-1.65,0.863-4.596v-10.334h2.234
		v11.197c0,2.387-0.381,3.936-1.473,5.053c-0.99,0.99-2.615,1.396-3.809,1.396L228.22,447.82z M234.009,428.473
		c0,0.736-0.508,1.371-1.422,1.371c-0.812,0-1.346-0.635-1.346-1.371c0-0.762,0.559-1.396,1.396-1.396
		S234.009,427.711,234.009,428.473z"/>
	<path fill="#186D94" d="M238.657,438.477c0.051,3.021,1.955,4.266,4.215,4.266c1.6,0,2.59-0.279,3.402-0.635l0.406,1.6
		c-0.787,0.355-2.158,0.787-4.113,0.787c-3.783,0-6.043-2.514-6.043-6.221s2.184-6.602,5.764-6.602c4.037,0,5.078,3.504,5.078,5.764
		c0,0.457-0.025,0.787-0.076,1.041H238.657z M245.208,436.877c0.025-1.396-0.584-3.605-3.098-3.605c-2.285,0-3.25,2.057-3.428,3.605
		H245.208z"/>
	<path fill="#186D94" d="M260.418,440.838c0,1.295,0.025,2.412,0.102,3.377h-1.98l-0.127-2.006h-0.051
		c-0.559,0.99-1.879,2.285-4.062,2.285c-1.93,0-4.24-1.092-4.24-5.383v-7.186h2.234v6.779c0,2.336,0.736,3.936,2.742,3.936
		c1.498,0,2.539-1.041,2.945-2.057c0.127-0.305,0.203-0.711,0.203-1.143v-7.516h2.234V440.838z"/>
	<path fill="#186D94" d="M279.794,440.838c0,1.295,0.025,2.412,0.102,3.377h-1.98l-0.127-2.006h-0.051
		c-0.559,0.99-1.879,2.285-4.062,2.285c-1.93,0-4.24-1.092-4.24-5.383v-7.186h2.234v6.779c0,2.336,0.736,3.936,2.742,3.936
		c1.498,0,2.539-1.041,2.945-2.057c0.127-0.305,0.203-0.711,0.203-1.143v-7.516h2.234V440.838z"/>
	<path fill="#186D94" d="M286.195,428.98v2.945h3.199v1.701h-3.199v6.627c0,1.523,0.432,2.387,1.676,2.387
		c0.609,0,0.965-0.051,1.295-0.152l0.102,1.701c-0.432,0.152-1.117,0.305-1.98,0.305c-1.041,0-1.879-0.355-2.412-0.939
		c-0.609-0.686-0.863-1.777-0.863-3.225v-6.703h-1.904v-1.701h1.904v-2.285L286.195,428.98z"/>
	<path fill="#186D94" d="M294.397,428.473c0,0.762-0.533,1.371-1.422,1.371c-0.812,0-1.346-0.609-1.346-1.371
		s0.559-1.396,1.396-1.396C293.839,427.076,294.397,427.686,294.397,428.473z M291.909,444.215v-12.289h2.234v12.289H291.909z"/>
	<path fill="#186D94" d="M297.852,426.188h2.234v18.027h-2.234V426.188z"/>
	<path fill="#186D94" d="M306.333,428.473c0,0.762-0.533,1.371-1.422,1.371c-0.812,0-1.346-0.609-1.346-1.371
		s0.559-1.396,1.396-1.396C305.774,427.076,306.333,427.686,306.333,428.473z M303.845,444.215v-12.289h2.234v12.289H303.845z"/>
	<path fill="#186D94" d="M309.482,441.955c0.686,0.406,1.854,0.863,2.971,0.863c1.6,0,2.361-0.787,2.361-1.828
		c0-1.066-0.635-1.625-2.26-2.234c-2.234-0.812-3.275-2.006-3.275-3.479c0-1.98,1.625-3.605,4.24-3.605
		c1.244,0,2.336,0.33,2.996,0.762l-0.533,1.625c-0.482-0.305-1.371-0.736-2.514-0.736c-1.32,0-2.031,0.762-2.031,1.676
		c0,1.016,0.711,1.473,2.311,2.107c2.107,0.787,3.225,1.854,3.225,3.682c0,2.184-1.701,3.707-4.57,3.707
		c-1.346,0-2.59-0.355-3.453-0.863L309.482,441.955z"/>
	<path fill="#186D94" d="M321.087,438.477c0.051,3.021,1.955,4.266,4.215,4.266c1.6,0,2.59-0.279,3.402-0.635l0.406,1.6
		c-0.787,0.355-2.158,0.787-4.113,0.787c-3.783,0-6.043-2.514-6.043-6.221s2.184-6.602,5.764-6.602c4.037,0,5.078,3.504,5.078,5.764
		c0,0.457-0.025,0.787-0.076,1.041H321.087z M327.638,436.877c0.025-1.396-0.584-3.605-3.098-3.605c-2.285,0-3.25,2.057-3.428,3.605
		H327.638z"/>
	<path fill="#186D94" d="M337.949,426.188h2.234v18.027h-2.234V426.188z"/>
	<path fill="#186D94" d="M352.575,441.27c0,1.066,0.051,2.107,0.178,2.945h-2.006l-0.178-1.549h-0.076
		c-0.686,0.965-2.006,1.828-3.758,1.828c-2.488,0-3.758-1.752-3.758-3.529c0-2.971,2.641-4.596,7.389-4.57v-0.254
		c0-0.99-0.279-2.844-2.793-2.818c-1.168,0-2.361,0.33-3.225,0.914l-0.508-1.498c1.016-0.635,2.514-1.066,4.062-1.066
		c3.758,0,4.672,2.564,4.672,5.002V441.27z M350.417,437.943c-2.438-0.051-5.205,0.381-5.205,2.768c0,1.473,0.965,2.133,2.082,2.133
		c1.625,0,2.666-1.016,3.021-2.057c0.076-0.254,0.102-0.508,0.102-0.711V437.943z"/>
	<path fill="#186D94" d="M364.257,428.98v2.945h3.199v1.701h-3.199v6.627c0,1.523,0.432,2.387,1.676,2.387
		c0.609,0,0.965-0.051,1.295-0.152l0.102,1.701c-0.432,0.152-1.117,0.305-1.98,0.305c-1.041,0-1.879-0.355-2.412-0.939
		c-0.609-0.686-0.863-1.777-0.863-3.225v-6.703h-1.904v-1.701h1.904v-2.285L364.257,428.98z"/>
	<path fill="#186D94" d="M371.063,438.477c0.051,3.021,1.955,4.266,4.215,4.266c1.6,0,2.59-0.279,3.402-0.635l0.406,1.6
		c-0.787,0.355-2.158,0.787-4.113,0.787c-3.783,0-6.043-2.514-6.043-6.221s2.184-6.602,5.764-6.602c4.037,0,5.078,3.504,5.078,5.764
		c0,0.457-0.025,0.787-0.076,1.041H371.063z M377.614,436.877c0.025-1.396-0.584-3.605-3.098-3.605c-2.285,0-3.25,2.057-3.428,3.605
		H377.614z"/>
	<path fill="#186D94" d="M391.302,443.783c-0.584,0.279-1.879,0.711-3.529,0.711c-3.707,0-6.119-2.514-6.119-6.271
		c0-3.783,2.59-6.551,6.602-6.551c1.32,0,2.488,0.33,3.098,0.66l-0.508,1.701c-0.533-0.279-1.371-0.584-2.59-0.584
		c-2.818,0-4.342,2.107-4.342,4.646c0,2.844,1.828,4.596,4.266,4.596c1.27,0,2.107-0.305,2.742-0.584L391.302,443.783z"/>
	<path fill="#186D94" d="M393.919,426.188h2.234v7.693h0.051c0.355-0.635,0.914-1.219,1.6-1.6c0.66-0.381,1.447-0.609,2.285-0.609
		c1.65,0,4.291,1.016,4.291,5.23v7.312h-2.234v-7.059c0-1.98-0.736-3.631-2.844-3.631c-1.447,0-2.564,1.016-2.996,2.209
		c-0.127,0.33-0.152,0.66-0.152,1.066v7.414h-2.234V426.188z"/>
	<path fill="#186D94" d="M408.013,435.252c0-1.295-0.025-2.311-0.102-3.326h1.98l0.127,2.031h0.051
		c0.609-1.143,2.031-2.285,4.062-2.285c1.701,0,4.342,1.016,4.342,5.23v7.312h-2.234v-7.084c0-1.98-0.736-3.631-2.844-3.631
		c-1.447,0-2.59,1.041-2.996,2.285c-0.102,0.279-0.152,0.66-0.152,1.041v7.389h-2.234V435.252z"/>
	<path fill="#186D94" d="M433.229,437.969c0,4.545-3.174,6.525-6.119,6.525c-3.301,0-5.891-2.438-5.891-6.322
		c0-4.088,2.717-6.5,6.094-6.5C430.842,431.672,433.229,434.236,433.229,437.969z M423.504,438.096c0,2.691,1.523,4.723,3.707,4.723
		c2.133,0,3.732-2.006,3.732-4.773c0-2.082-1.041-4.697-3.682-4.697C424.646,433.348,423.504,435.785,423.504,438.096z"/>
	<path fill="#186D94" d="M436.049,426.188h2.234v18.027h-2.234V426.188z"/>
	<path fill="#186D94" d="M453.163,437.969c0,4.545-3.174,6.525-6.119,6.525c-3.301,0-5.891-2.438-5.891-6.322
		c0-4.088,2.717-6.5,6.094-6.5C450.776,431.672,453.163,434.236,453.163,437.969z M443.438,438.096c0,2.691,1.523,4.723,3.707,4.723
		c2.133,0,3.732-2.006,3.732-4.773c0-2.082-1.041-4.697-3.682-4.697C444.581,433.348,443.438,435.785,443.438,438.096z"/>
	<path fill="#186D94" d="M466.495,442.412c0,2.844-0.584,4.545-1.752,5.637c-1.219,1.092-2.945,1.473-4.494,1.473
		c-1.473,0-3.098-0.355-4.088-1.016l0.559-1.727c0.812,0.533,2.082,0.99,3.605,0.99c2.285,0,3.961-1.193,3.961-4.316v-1.346h-0.051
		c-0.66,1.143-2.006,2.057-3.91,2.057c-3.047,0-5.23-2.59-5.23-5.992c0-4.164,2.717-6.5,5.561-6.5c2.133,0,3.275,1.092,3.834,2.107
		h0.051l0.076-1.854h1.98c-0.076,0.863-0.102,1.879-0.102,3.352V442.412z M464.261,436.775c0-0.381-0.025-0.711-0.127-0.99
		c-0.406-1.32-1.473-2.387-3.123-2.387c-2.133,0-3.656,1.803-3.656,4.646c0,2.412,1.244,4.418,3.631,4.418
		c1.396,0,2.641-0.863,3.098-2.285c0.127-0.381,0.178-0.812,0.178-1.193V436.775z"/>
	<path fill="#186D94" d="M472.516,428.473c0,0.762-0.533,1.371-1.422,1.371c-0.812,0-1.346-0.609-1.346-1.371
		s0.559-1.396,1.396-1.396C471.957,427.076,472.516,427.686,472.516,428.473z M470.027,444.215v-12.289h2.234v12.289H470.027z"/>
	<path fill="#186D94" d="M477.213,438.477c0.051,3.021,1.955,4.266,4.215,4.266c1.6,0,2.59-0.279,3.402-0.635l0.406,1.6
		c-0.787,0.355-2.158,0.787-4.113,0.787c-3.783,0-6.043-2.514-6.043-6.221s2.184-6.602,5.764-6.602c4.037,0,5.078,3.504,5.078,5.764
		c0,0.457-0.025,0.787-0.076,1.041H477.213z M483.764,436.877c0.025-1.396-0.584-3.605-3.098-3.605c-2.285,0-3.25,2.057-3.428,3.605
		H483.764z"/>
	<path fill="#186D94" d="M494.075,426.188h2.209v7.719h0.051c0.787-1.371,2.209-2.234,4.189-2.234c3.072,0,5.205,2.539,5.205,6.246
		c0,4.393-2.793,6.576-5.535,6.576c-1.777,0-3.199-0.686-4.139-2.285h-0.051l-0.127,2.006h-1.904
		c0.051-0.838,0.102-2.082,0.102-3.174V426.188z M496.284,439.289c0,0.279,0.025,0.559,0.102,0.812
		c0.406,1.549,1.727,2.615,3.352,2.615c2.361,0,3.732-1.904,3.732-4.723c0-2.463-1.27-4.57-3.682-4.57
		c-1.498,0-2.92,1.066-3.377,2.742c-0.076,0.279-0.127,0.584-0.127,0.939V439.289z"/>
	<path fill="#186D94" d="M511.013,428.473c0,0.762-0.533,1.371-1.422,1.371c-0.812,0-1.346-0.609-1.346-1.371
		s0.559-1.396,1.396-1.396C510.454,427.076,511.013,427.686,511.013,428.473z M508.524,444.215v-12.289h2.234v12.289H508.524z"/>
	<path fill="#186D94" d="M514.467,435.252c0-1.295-0.025-2.311-0.102-3.326h1.98l0.127,2.031h0.051
		c0.609-1.143,2.031-2.285,4.062-2.285c1.701,0,4.342,1.016,4.342,5.23v7.312h-2.234v-7.084c0-1.98-0.736-3.631-2.844-3.631
		c-1.447,0-2.59,1.041-2.996,2.285c-0.102,0.279-0.152,0.66-0.152,1.041v7.389h-2.234V435.252z"/>
	<path fill="#186D94" d="M537.194,441.27c0,1.066,0.051,2.107,0.178,2.945h-2.006l-0.178-1.549h-0.076
		c-0.686,0.965-2.006,1.828-3.758,1.828c-2.488,0-3.758-1.752-3.758-3.529c0-2.971,2.641-4.596,7.389-4.57v-0.254
		c0-0.99-0.279-2.844-2.793-2.818c-1.168,0-2.361,0.33-3.225,0.914l-0.508-1.498c1.016-0.635,2.514-1.066,4.062-1.066
		c3.758,0,4.672,2.564,4.672,5.002V441.27z M535.036,437.943c-2.438-0.051-5.205,0.381-5.205,2.768c0,1.473,0.965,2.133,2.082,2.133
		c1.625,0,2.666-1.016,3.021-2.057c0.076-0.254,0.102-0.508,0.102-0.711V437.943z"/>
	<path fill="#186D94" d="M551.085,440.838c0,1.295,0.025,2.412,0.102,3.377h-1.98l-0.127-2.006h-0.051
		c-0.559,0.99-1.879,2.285-4.062,2.285c-1.93,0-4.24-1.092-4.24-5.383v-7.186h2.234v6.779c0,2.336,0.736,3.936,2.742,3.936
		c1.498,0,2.539-1.041,2.945-2.057c0.127-0.305,0.203-0.711,0.203-1.143v-7.516h2.234V440.838z"/>
	<path fill="#186D94" d="M554.794,435.76c0-1.447-0.025-2.691-0.102-3.834h1.955l0.102,2.438h0.076
		c0.559-1.65,1.93-2.691,3.428-2.691c0.229,0,0.406,0.025,0.609,0.051v2.107c-0.229-0.051-0.457-0.051-0.762-0.051
		c-1.574,0-2.691,1.168-2.996,2.844c-0.051,0.305-0.076,0.686-0.076,1.041v6.551h-2.234V435.76z"/>
	<path fill="#186D94" d="M571.604,441.27c0,1.066,0.051,2.107,0.178,2.945h-2.006l-0.178-1.549h-0.076
		c-0.686,0.965-2.006,1.828-3.758,1.828c-2.488,0-3.758-1.752-3.758-3.529c0-2.971,2.641-4.596,7.389-4.57v-0.254
		c0-0.99-0.279-2.844-2.793-2.818c-1.168,0-2.361,0.33-3.225,0.914l-0.508-1.498c1.016-0.635,2.514-1.066,4.062-1.066
		c3.758,0,4.672,2.564,4.672,5.002V441.27z M569.446,437.943c-2.438-0.051-5.205,0.381-5.205,2.768c0,1.473,0.965,2.133,2.082,2.133
		c1.625,0,2.666-1.016,3.021-2.057c0.076-0.254,0.102-0.508,0.102-0.711V437.943z"/>
	<path fill="#186D94" d="M575.212,426.188h2.234v18.027h-2.234V426.188z"/>
	<path fill="#186D94" d="M582.448,438.477c0.051,3.021,1.955,4.266,4.215,4.266c1.6,0,2.59-0.279,3.402-0.635l0.406,1.6
		c-0.787,0.355-2.158,0.787-4.113,0.787c-3.783,0-6.043-2.514-6.043-6.221s2.184-6.602,5.764-6.602c4.037,0,5.078,3.504,5.078,5.764
		c0,0.457-0.025,0.787-0.076,1.041H582.448z M588.999,436.877c0.025-1.396-0.584-3.605-3.098-3.605c-2.285,0-3.25,2.057-3.428,3.605
		H588.999z"/>
	<path fill="#186D94" d="M593.09,442.895c0-0.914,0.635-1.6,1.523-1.6s1.498,0.66,1.498,1.6c0,0.914-0.609,1.6-1.549,1.6
		C593.699,444.494,593.09,443.809,593.09,442.895z"/>
	<path fill="#186D94" d="M50.264,470.032c-0.127-2.387-0.279-5.281-0.279-7.389h-0.051c-0.609,1.98-1.295,4.139-2.158,6.5
		l-3.021,8.303h-1.676l-2.793-8.15c-0.812-2.438-1.473-4.621-1.955-6.652H38.28c-0.051,2.133-0.178,4.977-0.33,7.566l-0.457,7.338
		h-2.107l1.193-17.113h2.818l2.92,8.277c0.711,2.107,1.27,3.986,1.727,5.764h0.051c0.457-1.727,1.066-3.605,1.828-5.764l3.047-8.277
		h2.818l1.066,17.113H50.67L50.264,470.032z"/>
	<path fill="#186D94" d="M66.542,474.171c0,1.295,0.025,2.412,0.102,3.377h-1.98l-0.127-2.006h-0.051
		c-0.559,0.99-1.879,2.285-4.062,2.285c-1.93,0-4.24-1.092-4.24-5.383v-7.186h2.234v6.779c0,2.336,0.736,3.936,2.742,3.936
		c1.498,0,2.539-1.041,2.945-2.057c0.127-0.305,0.203-0.711,0.203-1.143v-7.516h2.234V474.171z"/>
	<path fill="#186D94" d="M70.252,468.585c0-1.295-0.025-2.311-0.102-3.326h1.98l0.127,2.031h0.051
		c0.609-1.143,2.031-2.285,4.062-2.285c1.701,0,4.342,1.016,4.342,5.23v7.312h-2.234v-7.084c0-1.98-0.736-3.631-2.844-3.631
		c-1.447,0-2.59,1.041-2.996,2.285c-0.102,0.279-0.152,0.66-0.152,1.041v7.389h-2.234V468.585z"/>
	<path fill="#186D94" d="M86.834,461.806c0,0.762-0.533,1.371-1.422,1.371c-0.812,0-1.346-0.609-1.346-1.371
		s0.559-1.396,1.396-1.396C86.275,460.409,86.834,461.019,86.834,461.806z M84.346,477.548v-12.289h2.234v12.289H84.346z"/>
	<path fill="#186D94" d="M89.983,475.288c0.686,0.406,1.854,0.863,2.971,0.863c1.6,0,2.361-0.787,2.361-1.828
		c0-1.066-0.635-1.625-2.26-2.234c-2.234-0.812-3.275-2.006-3.275-3.479c0-1.98,1.625-3.605,4.24-3.605
		c1.244,0,2.336,0.33,2.996,0.762l-0.533,1.625c-0.482-0.305-1.371-0.736-2.514-0.736c-1.32,0-2.031,0.762-2.031,1.676
		c0,1.016,0.711,1.473,2.311,2.107c2.107,0.787,3.225,1.854,3.225,3.682c0,2.184-1.701,3.707-4.57,3.707
		c-1.346,0-2.59-0.355-3.453-0.863L89.983,475.288z"/>
	<path fill="#186D94" d="M100.04,475.288c0.686,0.406,1.854,0.863,2.971,0.863c1.6,0,2.361-0.787,2.361-1.828
		c0-1.066-0.635-1.625-2.26-2.234c-2.234-0.812-3.275-2.006-3.275-3.479c0-1.98,1.625-3.605,4.24-3.605
		c1.244,0,2.336,0.33,2.996,0.762l-0.533,1.625c-0.482-0.305-1.371-0.736-2.514-0.736c-1.32,0-2.031,0.762-2.031,1.676
		c0,1.016,0.711,1.473,2.311,2.107c2.107,0.787,3.225,1.854,3.225,3.682c0,2.184-1.701,3.707-4.57,3.707
		c-1.346,0-2.59-0.355-3.453-0.863L100.04,475.288z"/>
	<path fill="#186D94" d="M111.645,471.81c0.051,3.021,1.955,4.266,4.215,4.266c1.6,0,2.59-0.279,3.402-0.635l0.406,1.6
		c-0.787,0.355-2.158,0.787-4.113,0.787c-3.783,0-6.043-2.514-6.043-6.221s2.184-6.602,5.764-6.602c4.037,0,5.078,3.504,5.078,5.764
		c0,0.457-0.025,0.787-0.076,1.041H111.645z M118.196,470.21c0.025-1.396-0.584-3.605-3.098-3.605c-2.285,0-3.25,2.057-3.428,3.605
		H118.196z"/>
	<path fill="#186D94" d="M121.727,476.253l5.535-7.236c0.559-0.686,1.066-1.27,1.625-1.93v-0.051h-6.652v-1.777h9.344v1.396
		l-5.484,7.135c-0.533,0.686-1.016,1.32-1.574,1.93v0.051h7.16v1.777h-9.953V476.253z"/>
	<path fill="#186D94" d="M139.172,469.88v1.625H132.9v-1.625H139.172z"/>
	<path fill="#186D94" d="M142.525,465.259l2.412,6.881c0.406,1.143,0.736,2.158,0.99,3.174h0.076
		c0.279-1.016,0.635-2.031,1.041-3.174l2.387-6.881h2.336l-4.824,12.289h-2.133l-4.672-12.289H142.525z"/>
	<path fill="#186D94" d="M164.744,471.302c0,4.545-3.174,6.525-6.119,6.525c-3.301,0-5.891-2.438-5.891-6.322
		c0-4.088,2.717-6.5,6.094-6.5C162.357,465.005,164.744,467.569,164.744,471.302z M155.019,471.429c0,2.691,1.523,4.723,3.707,4.723
		c2.133,0,3.732-2.006,3.732-4.773c0-2.082-1.041-4.697-3.682-4.697C156.162,466.681,155.019,469.118,155.019,471.429z"/>
	<path fill="#186D94" d="M177.848,474.171c0,1.295,0.025,2.412,0.102,3.377h-1.98l-0.127-2.006h-0.051
		c-0.559,0.99-1.879,2.285-4.062,2.285c-1.93,0-4.24-1.092-4.24-5.383v-7.186h2.234v6.779c0,2.336,0.736,3.936,2.742,3.936
		c1.498,0,2.539-1.041,2.945-2.057c0.127-0.305,0.203-0.711,0.203-1.143v-7.516h2.234V474.171z"/>
	<path fill="#186D94" d="M181.252,475.288c0.686,0.406,1.854,0.863,2.971,0.863c1.6,0,2.361-0.787,2.361-1.828
		c0-1.066-0.635-1.625-2.26-2.234c-2.234-0.812-3.275-2.006-3.275-3.479c0-1.98,1.625-3.605,4.24-3.605
		c1.244,0,2.336,0.33,2.996,0.762l-0.533,1.625c-0.482-0.305-1.371-0.736-2.514-0.736c-1.32,0-2.031,0.762-2.031,1.676
		c0,1.016,0.711,1.473,2.311,2.107c2.107,0.787,3.225,1.854,3.225,3.682c0,2.184-1.701,3.707-4.57,3.707
		c-1.346,0-2.59-0.355-3.453-0.863L181.252,475.288z"/>
	<path fill="#186D94" d="M207.584,459.521v14.854c0,1.092,0.051,2.336,0.102,3.174h-1.98l-0.102-2.133h-0.076
		c-0.66,1.371-2.133,2.412-4.139,2.412c-2.971,0-5.281-2.514-5.281-6.246c-0.025-4.088,2.539-6.576,5.51-6.576
		c1.904,0,3.148,0.889,3.707,1.854h0.051v-7.338H207.584z M205.375,470.261c0-0.279-0.025-0.66-0.102-0.939
		c-0.33-1.396-1.549-2.564-3.225-2.564c-2.311,0-3.682,2.031-3.682,4.723c0,2.488,1.244,4.545,3.631,4.545
		c1.498,0,2.869-1.016,3.275-2.666c0.076-0.305,0.102-0.609,0.102-0.965V470.261z"/>
	<path fill="#186D94" d="M214.265,459.978c-0.584,2.133-1.676,4.875-2.361,6.043l-1.422,0.152c0.533-1.498,1.219-4.113,1.498-5.941
		L214.265,459.978z"/>
	<path fill="#186D94" d="M227.011,474.171c0,1.295,0.025,2.412,0.102,3.377h-1.98l-0.127-2.006h-0.051
		c-0.559,0.99-1.879,2.285-4.062,2.285c-1.93,0-4.24-1.092-4.24-5.383v-7.186h2.234v6.779c0,2.336,0.736,3.936,2.742,3.936
		c1.498,0,2.539-1.041,2.945-2.057c0.127-0.305,0.203-0.711,0.203-1.143v-7.516h2.234V474.171z"/>
	<path fill="#186D94" d="M230.721,468.585c0-1.295-0.025-2.311-0.102-3.326h1.98l0.127,2.031h0.051
		c0.609-1.143,2.031-2.285,4.062-2.285c1.701,0,4.342,1.016,4.342,5.23v7.312h-2.234v-7.084c0-1.98-0.736-3.631-2.844-3.631
		c-1.447,0-2.59,1.041-2.996,2.285c-0.102,0.279-0.152,0.66-0.152,1.041v7.389h-2.234V468.585z"/>
	<path fill="#186D94" d="M258.958,477.116c-0.584,0.279-1.879,0.711-3.529,0.711c-3.707,0-6.119-2.514-6.119-6.271
		c0-3.783,2.59-6.551,6.602-6.551c1.32,0,2.488,0.33,3.098,0.66l-0.508,1.701c-0.533-0.279-1.371-0.584-2.59-0.584
		c-2.818,0-4.342,2.107-4.342,4.646c0,2.844,1.828,4.596,4.266,4.596c1.27,0,2.107-0.305,2.742-0.584L258.958,477.116z"/>
	<path fill="#186D94" d="M270.208,474.603c0,1.066,0.051,2.107,0.178,2.945h-2.006l-0.178-1.549h-0.076
		c-0.686,0.965-2.006,1.828-3.758,1.828c-2.488,0-3.758-1.752-3.758-3.529c0-2.971,2.641-4.596,7.389-4.57v-0.254
		c0-0.99-0.279-2.844-2.793-2.818c-1.168,0-2.361,0.33-3.225,0.914l-0.508-1.498c1.016-0.635,2.514-1.066,4.062-1.066
		c3.758,0,4.672,2.564,4.672,5.002V474.603z M268.05,471.276c-2.438-0.051-5.205,0.381-5.205,2.768c0,1.473,0.965,2.133,2.082,2.133
		c1.625,0,2.666-1.016,3.021-2.057c0.076-0.254,0.102-0.508,0.102-0.711V471.276z"/>
	<path fill="#186D94" d="M273.511,475.288c0.686,0.406,1.854,0.863,2.971,0.863c1.6,0,2.361-0.787,2.361-1.828
		c0-1.066-0.635-1.625-2.26-2.234c-2.234-0.812-3.275-2.006-3.275-3.479c0-1.98,1.625-3.605,4.24-3.605
		c1.244,0,2.336,0.33,2.996,0.762l-0.533,1.625c-0.482-0.305-1.371-0.736-2.514-0.736c-1.32,0-2.031,0.762-2.031,1.676
		c0,1.016,0.711,1.473,2.311,2.107c2.107,0.787,3.225,1.854,3.225,3.682c0,2.184-1.701,3.707-4.57,3.707
		c-1.346,0-2.59-0.355-3.453-0.863L273.511,475.288z"/>
	<path fill="#186D94" d="M292.25,475.669H292.2c-0.686,1.193-2.031,2.158-4.012,2.158c-2.869,0-5.205-2.463-5.205-6.195
		c0-4.621,2.971-6.627,5.561-6.627c1.904,0,3.174,0.939,3.783,2.107h0.051l0.076-1.854h2.107c-0.051,1.016-0.102,2.107-0.102,3.377
		v13.939h-2.209V475.669z M292.25,470.235c0-0.305-0.025-0.635-0.102-0.914c-0.355-1.371-1.523-2.539-3.199-2.539
		c-2.311,0-3.707,1.955-3.707,4.697c0,2.463,1.168,4.57,3.631,4.57c1.447,0,2.691-0.889,3.199-2.412
		c0.102-0.33,0.178-0.762,0.178-1.092V470.235z"/>
	<path fill="#186D94" d="M308.452,474.171c0,1.295,0.025,2.412,0.102,3.377h-1.98l-0.127-2.006h-0.051
		c-0.559,0.99-1.879,2.285-4.062,2.285c-1.93,0-4.24-1.092-4.24-5.383v-7.186h2.234v6.779c0,2.336,0.736,3.936,2.742,3.936
		c1.498,0,2.539-1.041,2.945-2.057c0.127-0.305,0.203-0.711,0.203-1.143v-7.516h2.234V474.171z"/>
	<path fill="#186D94" d="M313.405,471.81c0.051,3.021,1.955,4.266,4.215,4.266c1.6,0,2.59-0.279,3.402-0.635l0.406,1.6
		c-0.787,0.355-2.158,0.787-4.113,0.787c-3.783,0-6.043-2.514-6.043-6.221s2.184-6.602,5.764-6.602c4.037,0,5.078,3.504,5.078,5.764
		c0,0.457-0.025,0.787-0.076,1.041H313.405z M319.956,470.21c0.025-1.396-0.584-3.605-3.098-3.605c-2.285,0-3.25,2.057-3.428,3.605
		H319.956z"/>
	<path fill="#186D94" d="M338.9,474.603c0,1.066,0.051,2.107,0.178,2.945h-2.006l-0.178-1.549h-0.076
		c-0.686,0.965-2.006,1.828-3.758,1.828c-2.488,0-3.758-1.752-3.758-3.529c0-2.971,2.641-4.596,7.389-4.57v-0.254
		c0-0.99-0.279-2.844-2.793-2.818c-1.168,0-2.361,0.33-3.225,0.914l-0.508-1.498c1.016-0.635,2.514-1.066,4.062-1.066
		c3.758,0,4.672,2.564,4.672,5.002V474.603z M336.742,471.276c-2.438-0.051-5.205,0.381-5.205,2.768
		c0,1.473,0.965,2.133,2.082,2.133c1.625,0,2.666-1.016,3.021-2.057c0.076-0.254,0.102-0.508,0.102-0.711V471.276z"/>
	<path fill="#186D94" d="M342.736,477.548V466.96h-1.701v-1.701h1.701v-0.686c0-3.225,1.904-5.332,5.357-5.332
		c1.143,0,2.488,0.355,3.123,0.812l-0.635,1.701c-0.559-0.381-1.498-0.711-2.59-0.711c-2.361,0-3.047,1.65-3.047,3.605v0.609h7.135
		v12.289h-2.234V466.96h-4.9v10.588H342.736z"/>
	<path fill="#186D94" d="M355.789,468.585c0-1.295-0.025-2.311-0.102-3.326h1.98l0.127,2.031h0.051
		c0.609-1.143,2.031-2.285,4.062-2.285c1.701,0,4.342,1.016,4.342,5.23v7.312h-2.234v-7.084c0-1.98-0.736-3.631-2.844-3.631
		c-1.447,0-2.59,1.041-2.996,2.285c-0.102,0.279-0.152,0.66-0.152,1.041v7.389h-2.234V468.585z"/>
	<path fill="#186D94" d="M385.854,459.521v14.854c0,1.092,0.051,2.336,0.102,3.174h-1.98l-0.102-2.133h-0.076
		c-0.66,1.371-2.133,2.412-4.139,2.412c-2.971,0-5.281-2.514-5.281-6.246c-0.025-4.088,2.539-6.576,5.51-6.576
		c1.904,0,3.148,0.889,3.707,1.854h0.051v-7.338H385.854z M383.646,470.261c0-0.279-0.025-0.66-0.102-0.939
		c-0.33-1.396-1.549-2.564-3.225-2.564c-2.311,0-3.682,2.031-3.682,4.723c0,2.488,1.244,4.545,3.631,4.545
		c1.498,0,2.869-1.016,3.275-2.666c0.076-0.305,0.102-0.609,0.102-0.965V470.261z"/>
	<path fill="#186D94" d="M390.833,471.81c0.051,3.021,1.955,4.266,4.215,4.266c1.6,0,2.59-0.279,3.402-0.635l0.406,1.6
		c-0.787,0.355-2.158,0.787-4.113,0.787c-3.783,0-6.043-2.514-6.043-6.221s2.184-6.602,5.764-6.602c4.037,0,5.078,3.504,5.078,5.764
		c0,0.457-0.025,0.787-0.076,1.041H390.833z M397.384,470.21c0.025-1.396-0.584-3.605-3.098-3.605c-2.285,0-3.25,2.057-3.428,3.605
		H397.384z"/>
	<path fill="#186D94" d="M407.695,469.271c0-1.574-0.051-2.844-0.102-4.012h1.98l0.127,2.107h0.051
		c0.889-1.498,2.361-2.361,4.367-2.361c2.996,0,5.23,2.514,5.23,6.221c0,4.418-2.717,6.602-5.611,6.602
		c-1.625,0-3.047-0.711-3.783-1.93h-0.051v6.678h-2.209V469.271z M409.904,472.546c0,0.33,0.025,0.635,0.102,0.914
		c0.406,1.549,1.752,2.615,3.352,2.615c2.361,0,3.732-1.93,3.732-4.748c0-2.438-1.295-4.545-3.656-4.545
		c-1.523,0-2.971,1.066-3.377,2.742c-0.076,0.279-0.152,0.609-0.152,0.889V472.546z"/>
	<path fill="#186D94" d="M422.145,469.093c0-1.447-0.025-2.691-0.102-3.834h1.955l0.102,2.438h0.076
		c0.559-1.65,1.93-2.691,3.428-2.691c0.229,0,0.406,0.025,0.609,0.051v2.107c-0.229-0.051-0.457-0.051-0.762-0.051
		c-1.574,0-2.691,1.168-2.996,2.844c-0.051,0.305-0.076,0.686-0.076,1.041v6.551h-2.234V469.093z"/>
	<path fill="#186D94" d="M441.316,471.302c0,4.545-3.174,6.525-6.119,6.525c-3.301,0-5.891-2.438-5.891-6.322
		c0-4.088,2.717-6.5,6.094-6.5C438.93,465.005,441.316,467.569,441.316,471.302z M431.592,471.429c0,2.691,1.523,4.723,3.707,4.723
		c2.133,0,3.732-2.006,3.732-4.773c0-2.082-1.041-4.697-3.682-4.697C432.734,466.681,431.592,469.118,431.592,471.429z"/>
	<path fill="#186D94" d="M444.365,477.548V466.96h-1.701v-1.701h1.701v-0.686c0-3.225,1.904-5.332,5.357-5.332
		c1.143,0,2.488,0.355,3.123,0.812l-0.635,1.701c-0.559-0.381-1.498-0.711-2.59-0.711c-2.361,0-3.047,1.65-3.047,3.605v0.609h7.135
		v12.289h-2.234V466.96h-4.9v10.588H444.365z"/>
	<path fill="#186D94" d="M460.11,462.313v2.945h3.199v1.701h-3.199v6.627c0,1.523,0.432,2.387,1.676,2.387
		c0.609,0,0.965-0.051,1.295-0.152l0.102,1.701c-0.432,0.152-1.117,0.305-1.98,0.305c-1.041,0-1.879-0.355-2.412-0.939
		c-0.609-0.686-0.863-1.777-0.863-3.225v-6.703h-1.904v-1.701h1.904v-2.285L460.11,462.313z"/>
	<path fill="#186D94" d="M466.916,471.81c0.051,3.021,1.955,4.266,4.215,4.266c1.6,0,2.59-0.279,3.402-0.635l0.406,1.6
		c-0.787,0.355-2.158,0.787-4.113,0.787c-3.783,0-6.043-2.514-6.043-6.221s2.184-6.602,5.764-6.602c4.037,0,5.078,3.504,5.078,5.764
		c0,0.457-0.025,0.787-0.076,1.041H466.916z M473.467,470.21c0.025-1.396-0.584-3.605-3.098-3.605c-2.285,0-3.25,2.057-3.428,3.605
		H473.467z"/>
	<path fill="#186D94" d="M478.395,469.093c0-1.447-0.025-2.691-0.102-3.834h1.955l0.102,2.438h0.076
		c0.559-1.65,1.93-2.691,3.428-2.691c0.229,0,0.406,0.025,0.609,0.051v2.107c-0.229-0.051-0.457-0.051-0.762-0.051
		c-1.574,0-2.691,1.168-2.996,2.844c-0.051,0.305-0.076,0.686-0.076,1.041v6.551h-2.234V469.093z"/>
	<path fill="#186D94" d="M502.67,459.521v14.854c0,1.092,0.051,2.336,0.102,3.174h-1.98l-0.102-2.133h-0.076
		c-0.66,1.371-2.133,2.412-4.139,2.412c-2.971,0-5.281-2.514-5.281-6.246c-0.025-4.088,2.539-6.576,5.51-6.576
		c1.904,0,3.148,0.889,3.707,1.854h0.051v-7.338H502.67z M500.461,470.261c0-0.279-0.025-0.66-0.102-0.939
		c-0.33-1.396-1.549-2.564-3.225-2.564c-2.311,0-3.682,2.031-3.682,4.723c0,2.488,1.244,4.545,3.631,4.545
		c1.498,0,2.869-1.016,3.275-2.666c0.076-0.305,0.102-0.609,0.102-0.965V470.261z"/>
	<path fill="#186D94" d="M509.35,459.978c-0.584,2.133-1.676,4.875-2.361,6.043l-1.422,0.152c0.533-1.498,1.219-4.113,1.498-5.941
		L509.35,459.978z"/>
	<path fill="#186D94" d="M522.097,474.171c0,1.295,0.025,2.412,0.102,3.377h-1.98l-0.127-2.006h-0.051
		c-0.559,0.99-1.879,2.285-4.062,2.285c-1.93,0-4.24-1.092-4.24-5.383v-7.186h2.234v6.779c0,2.336,0.736,3.936,2.742,3.936
		c1.498,0,2.539-1.041,2.945-2.057c0.127-0.305,0.203-0.711,0.203-1.143v-7.516h2.234V474.171z"/>
	<path fill="#186D94" d="M525.806,468.585c0-1.295-0.025-2.311-0.102-3.326h1.98l0.127,2.031h0.051
		c0.609-1.143,2.031-2.285,4.062-2.285c1.701,0,4.342,1.016,4.342,5.23v7.312h-2.234v-7.084c0-1.98-0.736-3.631-2.844-3.631
		c-1.447,0-2.59,1.041-2.996,2.285c-0.102,0.279-0.152,0.66-0.152,1.041v7.389h-2.234V468.585z"/>
	<path fill="#186D94" d="M546.527,471.81c0.051,3.021,1.955,4.266,4.215,4.266c1.6,0,2.59-0.279,3.402-0.635l0.406,1.6
		c-0.787,0.355-2.158,0.787-4.113,0.787c-3.783,0-6.043-2.514-6.043-6.221s2.184-6.602,5.764-6.602c4.037,0,5.078,3.504,5.078,5.764
		c0,0.457-0.025,0.787-0.076,1.041H546.527z M553.078,470.21c0.025-1.396-0.584-3.605-3.098-3.605c-2.285,0-3.25,2.057-3.428,3.605
		H553.078z"/>
	<path fill="#186D94" d="M558.972,465.259l1.752,2.641c0.482,0.686,0.863,1.295,1.27,1.98h0.051
		c0.406-0.711,0.812-1.346,1.244-2.006l1.701-2.615h2.438l-4.189,5.941l4.291,6.348h-2.514l-1.828-2.768
		c-0.482-0.711-0.889-1.396-1.32-2.133h-0.051c-0.406,0.736-0.812,1.396-1.295,2.133l-1.777,2.768h-2.463l4.367-6.271l-4.164-6.018
		H558.972z"/>
	<path fill="#186D94" d="M569.688,469.271c0-1.574-0.051-2.844-0.102-4.012h1.98l0.127,2.107h0.051
		c0.889-1.498,2.361-2.361,4.367-2.361c2.996,0,5.23,2.514,5.23,6.221c0,4.418-2.717,6.602-5.611,6.602
		c-1.625,0-3.047-0.711-3.783-1.93h-0.051v6.678h-2.209V469.271z M571.897,472.546c0,0.33,0.025,0.635,0.102,0.914
		c0.406,1.549,1.752,2.615,3.352,2.615c2.361,0,3.732-1.93,3.732-4.748c0-2.438-1.295-4.545-3.656-4.545
		c-1.523,0-2.971,1.066-3.377,2.742c-0.076,0.279-0.152,0.609-0.152,0.889V472.546z"/>
	<path fill="#186D94" d="M585.382,471.81c0.051,3.021,1.955,4.266,4.215,4.266c1.6,0,2.59-0.279,3.402-0.635l0.406,1.6
		c-0.787,0.355-2.158,0.787-4.113,0.787c-3.783,0-6.043-2.514-6.043-6.221s2.184-6.602,5.764-6.602c4.037,0,5.078,3.504,5.078,5.764
		c0,0.457-0.025,0.787-0.076,1.041H585.382z M591.933,470.21c0.025-1.396-0.584-3.605-3.098-3.605c-2.285,0-3.25,2.057-3.428,3.605
		H591.933z M592.44,459.952l-3.098,3.631h-1.574l2.234-3.631H592.44z"/>
	<path fill="#186D94" d="M596.86,469.093c0-1.447-0.025-2.691-0.102-3.834h1.955l0.102,2.438h0.076
		c0.559-1.65,1.93-2.691,3.428-2.691c0.229,0,0.406,0.025,0.609,0.051v2.107c-0.229-0.051-0.457-0.051-0.762-0.051
		c-1.574,0-2.691,1.168-2.996,2.844c-0.051,0.305-0.076,0.686-0.076,1.041v6.551h-2.234V469.093z"/>
	<path fill="#186D94" d="M607.754,461.806c0,0.762-0.533,1.371-1.422,1.371c-0.812,0-1.346-0.609-1.346-1.371
		s0.559-1.396,1.396-1.396C607.195,460.409,607.754,461.019,607.754,461.806z M605.266,477.548v-12.289h2.234v12.289H605.266z"/>
	<path fill="#186D94" d="M612.452,471.81c0.051,3.021,1.955,4.266,4.215,4.266c1.6,0,2.59-0.279,3.402-0.635l0.406,1.6
		c-0.787,0.355-2.158,0.787-4.113,0.787c-3.783,0-6.043-2.514-6.043-6.221s2.184-6.602,5.764-6.602c4.037,0,5.078,3.504,5.078,5.764
		c0,0.457-0.025,0.787-0.076,1.041H612.452z M619.003,470.21c0.025-1.396-0.584-3.605-3.098-3.605c-2.285,0-3.25,2.057-3.428,3.605
		H619.003z"/>
	<path fill="#186D94" d="M623.931,468.585c0-1.295-0.025-2.311-0.102-3.326h1.98l0.127,2.031h0.051
		c0.609-1.143,2.031-2.285,4.062-2.285c1.701,0,4.342,1.016,4.342,5.23v7.312h-2.234v-7.084c0-1.98-0.736-3.631-2.844-3.631
		c-1.447,0-2.59,1.041-2.996,2.285c-0.102,0.279-0.152,0.66-0.152,1.041v7.389h-2.234V468.585z"/>
	<path fill="#186D94" d="M646.785,477.116c-0.584,0.279-1.879,0.711-3.529,0.711c-3.707,0-6.119-2.514-6.119-6.271
		c0-3.783,2.59-6.551,6.602-6.551c1.32,0,2.488,0.33,3.098,0.66l-0.508,1.701c-0.533-0.279-1.371-0.584-2.59-0.584
		c-2.818,0-4.342,2.107-4.342,4.646c0,2.844,1.828,4.596,4.266,4.596c1.27,0,2.107-0.305,2.742-0.584L646.785,477.116z"/>
	<path fill="#186D94" d="M650.493,471.81c0.051,3.021,1.955,4.266,4.215,4.266c1.6,0,2.59-0.279,3.402-0.635l0.406,1.6
		c-0.787,0.355-2.158,0.787-4.113,0.787c-3.783,0-6.043-2.514-6.043-6.221s2.184-6.602,5.764-6.602c4.037,0,5.078,3.504,5.078,5.764
		c0,0.457-0.025,0.787-0.076,1.041H650.493z M657.044,470.21c0.025-1.396-0.584-3.605-3.098-3.605c-2.285,0-3.25,2.057-3.428,3.605
		H657.044z"/>
	<path fill="#186D94" d="M678.477,471.302c0,4.545-3.174,6.525-6.119,6.525c-3.301,0-5.891-2.438-5.891-6.322
		c0-4.088,2.717-6.5,6.094-6.5C676.09,465.005,678.477,467.569,678.477,471.302z M668.752,471.429c0,2.691,1.523,4.723,3.707,4.723
		c2.133,0,3.732-2.006,3.732-4.773c0-2.082-1.041-4.697-3.682-4.697C669.895,466.681,668.752,469.118,668.752,471.429z"/>
	<path fill="#186D94" d="M681.298,469.271c0-1.574-0.051-2.844-0.102-4.012h1.98l0.127,2.107h0.051
		c0.889-1.498,2.361-2.361,4.367-2.361c2.996,0,5.23,2.514,5.23,6.221c0,4.418-2.717,6.602-5.611,6.602
		c-1.625,0-3.047-0.711-3.783-1.93h-0.051v6.678h-2.209V469.271z M683.507,472.546c0,0.33,0.025,0.635,0.102,0.914
		c0.406,1.549,1.752,2.615,3.352,2.615c2.361,0,3.732-1.93,3.732-4.748c0-2.438-1.295-4.545-3.656-4.545
		c-1.523,0-2.971,1.066-3.377,2.742c-0.076,0.279-0.152,0.609-0.152,0.889V472.546z"/>
	<path fill="#186D94" d="M698.438,462.313v2.945h3.199v1.701h-3.199v6.627c0,1.523,0.432,2.387,1.676,2.387
		c0.609,0,0.965-0.051,1.295-0.152l0.102,1.701c-0.432,0.152-1.117,0.305-1.98,0.305c-1.041,0-1.879-0.355-2.412-0.939
		c-0.609-0.686-0.863-1.777-0.863-3.225v-6.703h-1.904v-1.701h1.904v-2.285L698.438,462.313z"/>
	<path fill="#186D94" d="M706.641,461.806c0,0.762-0.533,1.371-1.422,1.371c-0.812,0-1.346-0.609-1.346-1.371
		s0.559-1.396,1.396-1.396C706.082,460.409,706.641,461.019,706.641,461.806z M704.152,477.548v-12.289h2.234v12.289H704.152z"/>
	<path fill="#186D94" d="M710.095,468.585c0-1.295-0.051-2.311-0.102-3.326h1.955l0.102,2.006h0.076
		c0.686-1.168,1.828-2.26,3.885-2.26c1.65,0,2.92,1.016,3.453,2.463h0.051c0.381-0.711,0.889-1.219,1.396-1.6
		c0.736-0.559,1.523-0.863,2.691-0.863c1.65,0,4.062,1.066,4.062,5.332v7.211h-2.184v-6.932c0-2.387-0.889-3.783-2.666-3.783
		c-1.295,0-2.26,0.939-2.666,2.006c-0.102,0.33-0.178,0.711-0.178,1.117v7.592h-2.184v-7.363c0-1.955-0.863-3.352-2.564-3.352
		c-1.371,0-2.412,1.117-2.768,2.234c-0.127,0.305-0.178,0.711-0.178,1.092v7.389h-2.184V468.585z"/>
	<path fill="#186D94" d="M739.907,474.603c0,1.066,0.051,2.107,0.178,2.945h-2.006l-0.178-1.549h-0.076
		c-0.686,0.965-2.006,1.828-3.758,1.828c-2.488,0-3.758-1.752-3.758-3.529c0-2.971,2.641-4.596,7.389-4.57v-0.254
		c0-0.99-0.279-2.844-2.793-2.818c-1.168,0-2.361,0.33-3.225,0.914l-0.508-1.498c1.016-0.635,2.514-1.066,4.062-1.066
		c3.758,0,4.672,2.564,4.672,5.002V474.603z M737.749,471.276c-2.438-0.051-5.205,0.381-5.205,2.768
		c0,1.473,0.965,2.133,2.082,2.133c1.625,0,2.666-1.016,3.021-2.057c0.076-0.254,0.102-0.508,0.102-0.711V471.276z"/>
	<path fill="#186D94" d="M743.515,459.521h2.234v18.027h-2.234V459.521z"/>
	<path fill="#186D94" d="M750.752,471.81c0.051,3.021,1.955,4.266,4.215,4.266c1.6,0,2.59-0.279,3.402-0.635l0.406,1.6
		c-0.787,0.355-2.158,0.787-4.113,0.787c-3.783,0-6.043-2.514-6.043-6.221s2.184-6.602,5.764-6.602c4.037,0,5.078,3.504,5.078,5.764
		c0,0.457-0.025,0.787-0.076,1.041H750.752z M757.303,470.21c0.025-1.396-0.584-3.605-3.098-3.605c-2.285,0-3.25,2.057-3.428,3.605
		H757.303z"/>
	<path fill="#186D94" d="M761.393,476.228c0-0.914,0.635-1.6,1.523-1.6s1.498,0.66,1.498,1.6c0,0.914-0.609,1.6-1.549,1.6
		C762.002,477.827,761.393,477.142,761.393,476.228z"/>
</g>
<g>
	<path fill="#186D94" d="M160.567,531.577l-1.777,5.383h-2.285l5.84-17.113h2.641l5.84,17.113h-2.361l-1.828-5.383H160.567z
		 M166.204,529.851l-1.701-4.926c-0.381-1.117-0.635-2.133-0.889-3.123h-0.051c-0.254,0.99-0.508,2.057-0.863,3.098l-1.676,4.951
		H166.204z"/>
	<path fill="#186D94" d="M173.189,528.683c0-1.574-0.051-2.844-0.102-4.012h1.98l0.127,2.107h0.051
		c0.889-1.498,2.361-2.361,4.367-2.361c2.996,0,5.23,2.514,5.23,6.221c0,4.418-2.717,6.602-5.611,6.602
		c-1.625,0-3.047-0.711-3.783-1.93h-0.051v6.678h-2.209V528.683z M175.398,531.958c0,0.33,0.025,0.635,0.102,0.914
		c0.406,1.549,1.752,2.615,3.352,2.615c2.361,0,3.732-1.93,3.732-4.748c0-2.438-1.295-4.545-3.656-4.545
		c-1.523,0-2.971,1.066-3.377,2.742c-0.076,0.279-0.152,0.609-0.152,0.889V531.958z"/>
	<path fill="#186D94" d="M187.639,528.683c0-1.574-0.051-2.844-0.102-4.012h1.98l0.127,2.107h0.051
		c0.889-1.498,2.361-2.361,4.367-2.361c2.996,0,5.23,2.514,5.23,6.221c0,4.418-2.717,6.602-5.611,6.602
		c-1.625,0-3.047-0.711-3.783-1.93h-0.051v6.678h-2.209V528.683z M189.848,531.958c0,0.33,0.025,0.635,0.102,0.914
		c0.406,1.549,1.752,2.615,3.352,2.615c2.361,0,3.732-1.93,3.732-4.748c0-2.438-1.295-4.545-3.656-4.545
		c-1.523,0-2.971,1.066-3.377,2.742c-0.076,0.279-0.152,0.609-0.152,0.889V531.958z"/>
	<path fill="#186D94" d="M212.372,533.583c0,1.295,0.025,2.412,0.102,3.377h-1.98l-0.127-2.006h-0.051
		c-0.559,0.99-1.879,2.285-4.062,2.285c-1.93,0-4.24-1.092-4.24-5.383v-7.186h2.234v6.779c0,2.336,0.736,3.936,2.742,3.936
		c1.498,0,2.539-1.041,2.945-2.057c0.127-0.305,0.203-0.711,0.203-1.143v-7.516h2.234V533.583z"/>
	<path fill="#186D94" d="M216.893,524.671l2.666,7.262c0.305,0.812,0.609,1.777,0.812,2.514h0.051
		c0.229-0.736,0.482-1.676,0.787-2.564l2.438-7.211h2.361l-3.352,8.76c-1.6,4.215-2.691,6.348-4.215,7.693
		c-1.117,0.939-2.184,1.32-2.742,1.422l-0.559-1.854c0.559-0.178,1.295-0.533,1.955-1.092c0.609-0.482,1.346-1.346,1.879-2.488
		c0.102-0.229,0.178-0.406,0.178-0.533s-0.051-0.305-0.178-0.584l-4.52-11.324H216.893z"/>
	<path fill="#186D94" d="M229.032,531.222c0.051,3.021,1.955,4.266,4.215,4.266c1.6,0,2.59-0.279,3.402-0.635l0.406,1.6
		c-0.787,0.355-2.158,0.787-4.113,0.787c-3.783,0-6.043-2.514-6.043-6.221s2.184-6.602,5.764-6.602c4.037,0,5.078,3.504,5.078,5.764
		c0,0.457-0.025,0.787-0.076,1.041H229.032z M235.583,529.622c0.025-1.396-0.584-3.605-3.098-3.605c-2.285,0-3.25,2.057-3.428,3.605
		H235.583z"/>
	<path fill="#186D94" d="M239.114,535.665l5.535-7.236c0.559-0.686,1.066-1.27,1.625-1.93v-0.051h-6.652v-1.777h9.344v1.396
		l-5.484,7.135c-0.533,0.686-1.016,1.32-1.574,1.93v0.051h7.16v1.777h-9.953V535.665z"/>
	<path fill="#186D94" d="M256.458,534.7c0.686,0.406,1.854,0.863,2.971,0.863c1.6,0,2.361-0.787,2.361-1.828
		c0-1.066-0.635-1.625-2.26-2.234c-2.234-0.812-3.275-2.006-3.275-3.479c0-1.98,1.625-3.605,4.24-3.605
		c1.244,0,2.336,0.33,2.996,0.762l-0.533,1.625c-0.482-0.305-1.371-0.736-2.514-0.736c-1.32,0-2.031,0.762-2.031,1.676
		c0,1.016,0.711,1.473,2.311,2.107c2.107,0.787,3.225,1.854,3.225,3.682c0,2.184-1.701,3.707-4.57,3.707
		c-1.346,0-2.59-0.355-3.453-0.863L256.458,534.7z"/>
	<path fill="#186D94" d="M277.103,533.583c0,1.295,0.025,2.412,0.102,3.377h-1.98l-0.127-2.006h-0.051
		c-0.559,0.99-1.879,2.285-4.062,2.285c-1.93,0-4.24-1.092-4.24-5.383v-7.186h2.234v6.779c0,2.336,0.736,3.936,2.742,3.936
		c1.498,0,2.539-1.041,2.945-2.057c0.127-0.305,0.203-0.711,0.203-1.143v-7.516h2.234V533.583z"/>
	<path fill="#186D94" d="M280.812,528.505c0-1.447-0.025-2.691-0.102-3.834h1.955l0.102,2.438h0.076
		c0.559-1.65,1.93-2.691,3.428-2.691c0.229,0,0.406,0.025,0.609,0.051v2.107c-0.229-0.051-0.457-0.051-0.762-0.051
		c-1.574,0-2.691,1.168-2.996,2.844c-0.051,0.305-0.076,0.686-0.076,1.041v6.551h-2.234V528.505z"/>
	<path fill="#186D94" d="M294.5,518.933h2.234v18.027H294.5V518.933z"/>
	<path fill="#186D94" d="M309.125,534.015c0,1.066,0.051,2.107,0.178,2.945h-2.006l-0.178-1.549h-0.076
		c-0.686,0.965-2.006,1.828-3.758,1.828c-2.488,0-3.758-1.752-3.758-3.529c0-2.971,2.641-4.596,7.389-4.57v-0.254
		c0-0.99-0.279-2.844-2.793-2.818c-1.168,0-2.361,0.33-3.225,0.914l-0.508-1.498c1.016-0.635,2.514-1.066,4.062-1.066
		c3.758,0,4.672,2.564,4.672,5.002V534.015z M306.967,530.688c-2.438-0.051-5.205,0.381-5.205,2.768
		c0,1.473,0.965,2.133,2.082,2.133c1.625,0,2.666-1.016,3.021-2.057c0.076-0.254,0.102-0.508,0.102-0.711V530.688z"/>
	<path fill="#186D94" d="M320.808,521.726v2.945h3.199v1.701h-3.199v6.627c0,1.523,0.432,2.387,1.676,2.387
		c0.609,0,0.965-0.051,1.295-0.152l0.102,1.701c-0.432,0.152-1.117,0.305-1.98,0.305c-1.041,0-1.879-0.355-2.412-0.939
		c-0.609-0.686-0.863-1.777-0.863-3.225v-6.703h-1.904v-1.701h1.904v-2.285L320.808,521.726z"/>
	<path fill="#186D94" d="M337.49,530.714c0,4.545-3.174,6.525-6.119,6.525c-3.301,0-5.891-2.438-5.891-6.322
		c0-4.088,2.717-6.5,6.094-6.5C335.104,524.417,337.49,526.981,337.49,530.714z M327.766,530.841c0,2.691,1.523,4.723,3.707,4.723
		c2.133,0,3.732-2.006,3.732-4.773c0-2.082-1.041-4.697-3.682-4.697C328.908,526.093,327.766,528.53,327.766,530.841z"/>
	<path fill="#186D94" d="M350.594,533.583c0,1.295,0.025,2.412,0.102,3.377h-1.98l-0.127-2.006h-0.051
		c-0.559,0.99-1.879,2.285-4.062,2.285c-1.93,0-4.24-1.092-4.24-5.383v-7.186h2.234v6.779c0,2.336,0.736,3.936,2.742,3.936
		c1.498,0,2.539-1.041,2.945-2.057c0.127-0.305,0.203-0.711,0.203-1.143v-7.516h2.234V533.583z"/>
	<path fill="#186D94" d="M363.063,536.528c-0.584,0.279-1.879,0.711-3.529,0.711c-3.707,0-6.119-2.514-6.119-6.271
		c0-3.783,2.59-6.551,6.602-6.551c1.32,0,2.488,0.33,3.098,0.66l-0.508,1.701c-0.533-0.279-1.371-0.584-2.59-0.584
		c-2.818,0-4.342,2.107-4.342,4.646c0,2.844,1.828,4.596,4.266,4.596c1.27,0,2.107-0.305,2.742-0.584L363.063,536.528z"/>
	<path fill="#186D94" d="M365.681,518.933h2.234v7.693h0.051c0.355-0.635,0.914-1.219,1.6-1.6c0.66-0.381,1.447-0.609,2.285-0.609
		c1.65,0,4.291,1.016,4.291,5.23v7.312h-2.234v-7.059c0-1.98-0.736-3.631-2.844-3.631c-1.447,0-2.564,1.016-2.996,2.209
		c-0.127,0.33-0.152,0.66-0.152,1.066v7.414h-2.234V518.933z"/>
	<path fill="#186D94" d="M381.019,531.222c0.051,3.021,1.955,4.266,4.215,4.266c1.6,0,2.59-0.279,3.402-0.635l0.406,1.6
		c-0.787,0.355-2.158,0.787-4.113,0.787c-3.783,0-6.043-2.514-6.043-6.221s2.184-6.602,5.764-6.602c4.037,0,5.078,3.504,5.078,5.764
		c0,0.457-0.025,0.787-0.076,1.041H381.019z M387.569,529.622c0.025-1.396-0.584-3.605-3.098-3.605c-2.285,0-3.25,2.057-3.428,3.605
		H387.569z"/>
	<path fill="#186D94" d="M401.156,532.313c0.152,0.99,1.6,1.549,3.199,1.549c1.193,0,2.311-0.127,3.428-0.482l0.584,3.047
		c-1.498,0.609-3.123,0.812-4.672,0.812c-4.393,0-6.881-2.438-6.881-6.398c0-2.92,1.879-6.652,6.475-6.652
		c4.037,0,5.764,2.971,5.764,6.398c0,0.762-0.102,1.422-0.178,1.727H401.156z M404.838,529.216c0-0.711-0.33-2.031-1.777-2.031
		c-1.346,0-1.879,1.244-1.955,2.031H404.838z"/>
	<path fill="#186D94" d="M411.238,533.126c0.711,0.432,2.336,0.939,3.479,0.939c0.965,0,1.346-0.229,1.346-0.686
		s-0.279-0.66-1.625-1.092c-2.742-0.863-3.682-2.361-3.656-3.809c0-2.488,2.107-4.291,5.383-4.291c1.549,0,2.92,0.33,3.732,0.711
		l-0.736,3.098c-0.584-0.279-1.752-0.686-2.768-0.686c-0.787,0-1.244,0.203-1.244,0.711c0,0.406,0.406,0.66,1.879,1.143
		c2.463,0.812,3.402,2.082,3.428,3.885c0,2.387-1.854,4.189-5.713,4.189c-1.727,0-3.275-0.381-4.266-0.889L411.238,533.126z"/>
	<path fill="#186D94" d="M422.59,528.708c0-1.65-0.051-3.072-0.102-4.24h3.936l0.203,1.574h0.051
		c0.939-1.219,2.336-1.854,4.037-1.854c2.615,0,5.154,2.311,5.154,6.373c0,4.57-2.971,6.678-5.688,6.678
		c-1.422,0-2.514-0.559-2.971-1.193h-0.051v5.941h-4.57V528.708z M427.16,531.501c0,0.279,0.025,0.533,0.076,0.762
		c0.178,0.812,0.863,1.498,1.777,1.498c1.371,0,2.209-1.193,2.209-2.996c0-1.752-0.711-3.021-2.158-3.021
		c-0.914,0-1.701,0.736-1.854,1.625c-0.051,0.178-0.051,0.381-0.051,0.584V531.501z"/>
	<path fill="#186D94" d="M449.176,533.913c0,1.244,0.051,2.412,0.203,3.047h-4.113l-0.254-1.092h-0.076
		c-0.889,0.99-2.133,1.371-3.479,1.371c-2.539,0-4.113-1.854-4.113-3.936c0-3.352,2.996-4.824,7.236-4.85v-0.102
		c0-0.508-0.381-1.066-2.031-1.066c-1.32,0-2.717,0.457-3.529,0.939l-0.812-2.92c0.812-0.406,2.59-1.117,5.18-1.117
		c4.291,0,5.789,2.387,5.789,5.51V533.913z M444.732,531.247c-1.854,0-2.92,0.533-2.92,1.625c0,0.787,0.533,1.193,1.295,1.193
		c0.66,0,1.371-0.457,1.574-1.143c0.051-0.203,0.051-0.432,0.051-0.66V531.247z"/>
	<path fill="#186D94" d="M461.568,536.706c-0.762,0.33-2.057,0.533-3.453,0.533c-4.139,0-6.754-2.438-6.754-6.424
		c0-3.555,2.438-6.627,7.312-6.627c0.914,0,2.006,0.127,2.895,0.432l-0.66,3.377c-0.432-0.178-1.041-0.33-1.955-0.33
		c-1.727,0-2.92,1.168-2.92,2.996c0,2.031,1.422,2.996,3.021,2.996c0.787,0,1.447-0.076,2.006-0.305L461.568,536.706z"/>
	<path fill="#186D94" d="M466.826,532.313c0.152,0.99,1.6,1.549,3.199,1.549c1.193,0,2.311-0.127,3.428-0.482l0.584,3.047
		c-1.498,0.609-3.123,0.812-4.672,0.812c-4.393,0-6.881-2.438-6.881-6.398c0-2.92,1.879-6.652,6.475-6.652
		c4.037,0,5.764,2.971,5.764,6.398c0,0.762-0.102,1.422-0.178,1.727H466.826z M470.508,529.216c0-0.711-0.33-2.031-1.777-2.031
		c-1.346,0-1.879,1.244-1.955,2.031H470.508z"/>
	<path fill="#186D94" d="M482.622,528.683c0-1.574-0.051-2.844-0.102-4.012h1.98l0.127,2.107h0.051
		c0.889-1.498,2.361-2.361,4.367-2.361c2.996,0,5.23,2.514,5.23,6.221c0,4.418-2.717,6.602-5.611,6.602
		c-1.625,0-3.047-0.711-3.783-1.93h-0.051v6.678h-2.209V528.683z M484.831,531.958c0,0.33,0.025,0.635,0.102,0.914
		c0.406,1.549,1.752,2.615,3.352,2.615c2.361,0,3.732-1.93,3.732-4.748c0-2.438-1.295-4.545-3.656-4.545
		c-1.523,0-2.971,1.066-3.377,2.742c-0.076,0.279-0.152,0.609-0.152,0.889V531.958z"/>
	<path fill="#186D94" d="M508.192,530.714c0,4.545-3.174,6.525-6.119,6.525c-3.301,0-5.891-2.438-5.891-6.322
		c0-4.088,2.717-6.5,6.094-6.5C505.806,524.417,508.192,526.981,508.192,530.714z M498.468,530.841c0,2.691,1.523,4.723,3.707,4.723
		c2.133,0,3.732-2.006,3.732-4.773c0-2.082-1.041-4.697-3.682-4.697C499.61,526.093,498.468,528.53,498.468,530.841z"/>
	<path fill="#186D94" d="M521.297,533.583c0,1.295,0.025,2.412,0.102,3.377h-1.98l-0.127-2.006h-0.051
		c-0.559,0.99-1.879,2.285-4.062,2.285c-1.93,0-4.24-1.092-4.24-5.383v-7.186h2.234v6.779c0,2.336,0.736,3.936,2.742,3.936
		c1.498,0,2.539-1.041,2.945-2.057c0.127-0.305,0.203-0.711,0.203-1.143v-7.516h2.234V533.583z"/>
	<path fill="#186D94" d="M525.006,528.505c0-1.447-0.025-2.691-0.102-3.834h1.955l0.102,2.438h0.076
		c0.559-1.65,1.93-2.691,3.428-2.691c0.229,0,0.406,0.025,0.609,0.051v2.107c-0.229-0.051-0.457-0.051-0.762-0.051
		c-1.574,0-2.691,1.168-2.996,2.844c-0.051,0.305-0.076,0.686-0.076,1.041v6.551h-2.234V528.505z"/>
	<path fill="#186D94" d="M547.453,536.528c-0.584,0.279-1.879,0.711-3.529,0.711c-3.707,0-6.119-2.514-6.119-6.271
		c0-3.783,2.59-6.551,6.602-6.551c1.32,0,2.488,0.33,3.098,0.66l-0.508,1.701c-0.533-0.279-1.371-0.584-2.59-0.584
		c-2.818,0-4.342,2.107-4.342,4.646c0,2.844,1.828,4.596,4.266,4.596c1.27,0,2.107-0.305,2.742-0.584L547.453,536.528z"/>
	<path fill="#186D94" d="M561.039,530.714c0,4.545-3.174,6.525-6.119,6.525c-3.301,0-5.891-2.438-5.891-6.322
		c0-4.088,2.717-6.5,6.094-6.5C558.652,524.417,561.039,526.981,561.039,530.714z M551.314,530.841c0,2.691,1.523,4.723,3.707,4.723
		c2.133,0,3.732-2.006,3.732-4.773c0-2.082-1.041-4.697-3.682-4.697C552.457,526.093,551.314,528.53,551.314,530.841z"/>
	<path fill="#186D94" d="M563.859,527.997c0-1.295-0.025-2.311-0.102-3.326h1.98l0.127,2.031h0.051
		c0.609-1.143,2.031-2.285,4.062-2.285c1.701,0,4.342,1.016,4.342,5.23v7.312h-2.234v-7.084c0-1.98-0.736-3.631-2.844-3.631
		c-1.447,0-2.59,1.041-2.996,2.285c-0.102,0.279-0.152,0.66-0.152,1.041v7.389h-2.234V527.997z"/>
	<path fill="#186D94" d="M580.544,521.726v2.945h3.199v1.701h-3.199v6.627c0,1.523,0.432,2.387,1.676,2.387
		c0.609,0,0.965-0.051,1.295-0.152l0.102,1.701c-0.432,0.152-1.117,0.305-1.98,0.305c-1.041,0-1.879-0.355-2.412-0.939
		c-0.609-0.686-0.863-1.777-0.863-3.225v-6.703h-1.904v-1.701h1.904v-2.285L580.544,521.726z"/>
	<path fill="#186D94" d="M588.746,521.218c0,0.762-0.533,1.371-1.422,1.371c-0.812,0-1.346-0.609-1.346-1.371
		s0.559-1.396,1.396-1.396C588.188,519.821,588.746,520.431,588.746,521.218z M586.258,536.96v-12.289h2.234v12.289H586.258z"/>
	<path fill="#186D94" d="M592.2,527.997c0-1.295-0.025-2.311-0.102-3.326h1.98l0.127,2.031h0.051
		c0.609-1.143,2.031-2.285,4.062-2.285c1.701,0,4.342,1.016,4.342,5.23v7.312h-2.234v-7.084c0-1.98-0.736-3.631-2.844-3.631
		c-1.447,0-2.59,1.041-2.996,2.285c-0.102,0.279-0.152,0.66-0.152,1.041v7.389H592.2V527.997z"/>
	<path fill="#186D94" d="M616.577,533.583c0,1.295,0.025,2.412,0.102,3.377h-1.98l-0.127-2.006h-0.051
		c-0.559,0.99-1.879,2.285-4.062,2.285c-1.93,0-4.24-1.092-4.24-5.383v-7.186h2.234v6.779c0,2.336,0.736,3.936,2.742,3.936
		c1.498,0,2.539-1.041,2.945-2.057c0.127-0.305,0.203-0.711,0.203-1.143v-7.516h2.234V533.583z"/>
	<path fill="#186D94" d="M621.531,531.222c0.051,3.021,1.955,4.266,4.215,4.266c1.6,0,2.59-0.279,3.402-0.635l0.406,1.6
		c-0.787,0.355-2.158,0.787-4.113,0.787c-3.783,0-6.043-2.514-6.043-6.221s2.184-6.602,5.764-6.602c4.037,0,5.078,3.504,5.078,5.764
		c0,0.457-0.025,0.787-0.076,1.041H621.531z M628.082,529.622c0.025-1.396-0.584-3.605-3.098-3.605c-2.285,0-3.25,2.057-3.428,3.605
		H628.082z"/>
	<path fill="#186D94" d="M633.01,528.505c0-1.447-0.025-2.691-0.102-3.834h1.955l0.102,2.438h0.076
		c0.559-1.65,1.93-2.691,3.428-2.691c0.229,0,0.406,0.025,0.609,0.051v2.107c-0.229-0.051-0.457-0.051-0.762-0.051
		c-1.574,0-2.691,1.168-2.996,2.844c-0.051,0.305-0.076,0.686-0.076,1.041v6.551h-2.234V528.505z"/>
	<path fill="#186D94" d="M639.435,535.64c0-0.914,0.635-1.6,1.523-1.6s1.498,0.66,1.498,1.6c0,0.914-0.609,1.6-1.549,1.6
		C640.044,537.239,639.435,536.554,639.435,535.64z"/>
</g>
<g opacity="0.3">
	<path d="M210.695,443.682c-0.787,0.406-2.438,0.812-4.52,0.812c-4.824,0-8.43-3.047-8.43-8.684c0-5.383,3.631-8.988,8.938-8.988
		c2.107,0,3.479,0.457,4.062,0.762l-0.559,1.803c-0.812-0.406-2.006-0.711-3.428-0.711c-4.012,0-6.678,2.564-6.678,7.059
		c0,4.215,2.412,6.881,6.551,6.881c1.371,0,2.742-0.279,3.631-0.711L210.695,443.682z"/>
	<path d="M214.379,438.477c0.051,3.021,1.955,4.266,4.215,4.266c1.6,0,2.59-0.279,3.402-0.635l0.406,1.6
		c-0.787,0.355-2.158,0.787-4.113,0.787c-3.783,0-6.043-2.514-6.043-6.221s2.184-6.602,5.764-6.602c4.037,0,5.078,3.504,5.078,5.764
		c0,0.457-0.025,0.787-0.076,1.041H214.379z M220.93,436.877c0.025-1.396-0.584-3.605-3.098-3.605c-2.285,0-3.25,2.057-3.428,3.605
		H220.93z"/>
	<path d="M228.22,447.82c1.041-0.076,1.904-0.355,2.438-0.965c0.609-0.686,0.863-1.65,0.863-4.596v-10.334h2.234v11.197
		c0,2.387-0.381,3.936-1.473,5.053c-0.99,0.99-2.615,1.396-3.809,1.396L228.22,447.82z M234.009,428.473
		c0,0.736-0.508,1.371-1.422,1.371c-0.812,0-1.346-0.635-1.346-1.371c0-0.762,0.559-1.396,1.396-1.396
		S234.009,427.711,234.009,428.473z"/>
	<path d="M238.657,438.477c0.051,3.021,1.955,4.266,4.215,4.266c1.6,0,2.59-0.279,3.402-0.635l0.406,1.6
		c-0.787,0.355-2.158,0.787-4.113,0.787c-3.783,0-6.043-2.514-6.043-6.221s2.184-6.602,5.764-6.602c4.037,0,5.078,3.504,5.078,5.764
		c0,0.457-0.025,0.787-0.076,1.041H238.657z M245.208,436.877c0.025-1.396-0.584-3.605-3.098-3.605c-2.285,0-3.25,2.057-3.428,3.605
		H245.208z"/>
	<path d="M260.418,440.838c0,1.295,0.025,2.412,0.102,3.377h-1.98l-0.127-2.006h-0.051c-0.559,0.99-1.879,2.285-4.062,2.285
		c-1.93,0-4.24-1.092-4.24-5.383v-7.186h2.234v6.779c0,2.336,0.736,3.936,2.742,3.936c1.498,0,2.539-1.041,2.945-2.057
		c0.127-0.305,0.203-0.711,0.203-1.143v-7.516h2.234V440.838z"/>
	<path d="M279.794,440.838c0,1.295,0.025,2.412,0.102,3.377h-1.98l-0.127-2.006h-0.051c-0.559,0.99-1.879,2.285-4.062,2.285
		c-1.93,0-4.24-1.092-4.24-5.383v-7.186h2.234v6.779c0,2.336,0.736,3.936,2.742,3.936c1.498,0,2.539-1.041,2.945-2.057
		c0.127-0.305,0.203-0.711,0.203-1.143v-7.516h2.234V440.838z"/>
	<path d="M286.195,428.98v2.945h3.199v1.701h-3.199v6.627c0,1.523,0.432,2.387,1.676,2.387c0.609,0,0.965-0.051,1.295-0.152
		l0.102,1.701c-0.432,0.152-1.117,0.305-1.98,0.305c-1.041,0-1.879-0.355-2.412-0.939c-0.609-0.686-0.863-1.777-0.863-3.225v-6.703
		h-1.904v-1.701h1.904v-2.285L286.195,428.98z"/>
	<path d="M294.397,428.473c0,0.762-0.533,1.371-1.422,1.371c-0.812,0-1.346-0.609-1.346-1.371s0.559-1.396,1.396-1.396
		C293.839,427.076,294.397,427.686,294.397,428.473z M291.909,444.215v-12.289h2.234v12.289H291.909z"/>
	<path d="M297.852,426.188h2.234v18.027h-2.234V426.188z"/>
	<path d="M306.333,428.473c0,0.762-0.533,1.371-1.422,1.371c-0.812,0-1.346-0.609-1.346-1.371s0.559-1.396,1.396-1.396
		C305.774,427.076,306.333,427.686,306.333,428.473z M303.845,444.215v-12.289h2.234v12.289H303.845z"/>
	<path d="M309.482,441.955c0.686,0.406,1.854,0.863,2.971,0.863c1.6,0,2.361-0.787,2.361-1.828c0-1.066-0.635-1.625-2.26-2.234
		c-2.234-0.812-3.275-2.006-3.275-3.479c0-1.98,1.625-3.605,4.24-3.605c1.244,0,2.336,0.33,2.996,0.762l-0.533,1.625
		c-0.482-0.305-1.371-0.736-2.514-0.736c-1.32,0-2.031,0.762-2.031,1.676c0,1.016,0.711,1.473,2.311,2.107
		c2.107,0.787,3.225,1.854,3.225,3.682c0,2.184-1.701,3.707-4.57,3.707c-1.346,0-2.59-0.355-3.453-0.863L309.482,441.955z"/>
	<path d="M321.087,438.477c0.051,3.021,1.955,4.266,4.215,4.266c1.6,0,2.59-0.279,3.402-0.635l0.406,1.6
		c-0.787,0.355-2.158,0.787-4.113,0.787c-3.783,0-6.043-2.514-6.043-6.221s2.184-6.602,5.764-6.602c4.037,0,5.078,3.504,5.078,5.764
		c0,0.457-0.025,0.787-0.076,1.041H321.087z M327.638,436.877c0.025-1.396-0.584-3.605-3.098-3.605c-2.285,0-3.25,2.057-3.428,3.605
		H327.638z"/>
	<path d="M337.949,426.188h2.234v18.027h-2.234V426.188z"/>
	<path d="M352.575,441.27c0,1.066,0.051,2.107,0.178,2.945h-2.006l-0.178-1.549h-0.076c-0.686,0.965-2.006,1.828-3.758,1.828
		c-2.488,0-3.758-1.752-3.758-3.529c0-2.971,2.641-4.596,7.389-4.57v-0.254c0-0.99-0.279-2.844-2.793-2.818
		c-1.168,0-2.361,0.33-3.225,0.914l-0.508-1.498c1.016-0.635,2.514-1.066,4.062-1.066c3.758,0,4.672,2.564,4.672,5.002V441.27z
		 M350.417,437.943c-2.438-0.051-5.205,0.381-5.205,2.768c0,1.473,0.965,2.133,2.082,2.133c1.625,0,2.666-1.016,3.021-2.057
		c0.076-0.254,0.102-0.508,0.102-0.711V437.943z"/>
	<path d="M364.257,428.98v2.945h3.199v1.701h-3.199v6.627c0,1.523,0.432,2.387,1.676,2.387c0.609,0,0.965-0.051,1.295-0.152
		l0.102,1.701c-0.432,0.152-1.117,0.305-1.98,0.305c-1.041,0-1.879-0.355-2.412-0.939c-0.609-0.686-0.863-1.777-0.863-3.225v-6.703
		h-1.904v-1.701h1.904v-2.285L364.257,428.98z"/>
	<path d="M371.063,438.477c0.051,3.021,1.955,4.266,4.215,4.266c1.6,0,2.59-0.279,3.402-0.635l0.406,1.6
		c-0.787,0.355-2.158,0.787-4.113,0.787c-3.783,0-6.043-2.514-6.043-6.221s2.184-6.602,5.764-6.602c4.037,0,5.078,3.504,5.078,5.764
		c0,0.457-0.025,0.787-0.076,1.041H371.063z M377.614,436.877c0.025-1.396-0.584-3.605-3.098-3.605c-2.285,0-3.25,2.057-3.428,3.605
		H377.614z"/>
	<path d="M391.302,443.783c-0.584,0.279-1.879,0.711-3.529,0.711c-3.707,0-6.119-2.514-6.119-6.271c0-3.783,2.59-6.551,6.602-6.551
		c1.32,0,2.488,0.33,3.098,0.66l-0.508,1.701c-0.533-0.279-1.371-0.584-2.59-0.584c-2.818,0-4.342,2.107-4.342,4.646
		c0,2.844,1.828,4.596,4.266,4.596c1.27,0,2.107-0.305,2.742-0.584L391.302,443.783z"/>
	<path d="M393.919,426.188h2.234v7.693h0.051c0.355-0.635,0.914-1.219,1.6-1.6c0.66-0.381,1.447-0.609,2.285-0.609
		c1.65,0,4.291,1.016,4.291,5.23v7.312h-2.234v-7.059c0-1.98-0.736-3.631-2.844-3.631c-1.447,0-2.564,1.016-2.996,2.209
		c-0.127,0.33-0.152,0.66-0.152,1.066v7.414h-2.234V426.188z"/>
	<path d="M408.013,435.252c0-1.295-0.025-2.311-0.102-3.326h1.98l0.127,2.031h0.051c0.609-1.143,2.031-2.285,4.062-2.285
		c1.701,0,4.342,1.016,4.342,5.23v7.312h-2.234v-7.084c0-1.98-0.736-3.631-2.844-3.631c-1.447,0-2.59,1.041-2.996,2.285
		c-0.102,0.279-0.152,0.66-0.152,1.041v7.389h-2.234V435.252z"/>
	<path d="M433.229,437.969c0,4.545-3.174,6.525-6.119,6.525c-3.301,0-5.891-2.438-5.891-6.322c0-4.088,2.717-6.5,6.094-6.5
		C430.842,431.672,433.229,434.236,433.229,437.969z M423.504,438.096c0,2.691,1.523,4.723,3.707,4.723
		c2.133,0,3.732-2.006,3.732-4.773c0-2.082-1.041-4.697-3.682-4.697C424.646,433.348,423.504,435.785,423.504,438.096z"/>
	<path d="M436.049,426.188h2.234v18.027h-2.234V426.188z"/>
	<path d="M453.163,437.969c0,4.545-3.174,6.525-6.119,6.525c-3.301,0-5.891-2.438-5.891-6.322c0-4.088,2.717-6.5,6.094-6.5
		C450.776,431.672,453.163,434.236,453.163,437.969z M443.438,438.096c0,2.691,1.523,4.723,3.707,4.723
		c2.133,0,3.732-2.006,3.732-4.773c0-2.082-1.041-4.697-3.682-4.697C444.581,433.348,443.438,435.785,443.438,438.096z"/>
	<path d="M466.495,442.412c0,2.844-0.584,4.545-1.752,5.637c-1.219,1.092-2.945,1.473-4.494,1.473c-1.473,0-3.098-0.355-4.088-1.016
		l0.559-1.727c0.812,0.533,2.082,0.99,3.605,0.99c2.285,0,3.961-1.193,3.961-4.316v-1.346h-0.051
		c-0.66,1.143-2.006,2.057-3.91,2.057c-3.047,0-5.23-2.59-5.23-5.992c0-4.164,2.717-6.5,5.561-6.5c2.133,0,3.275,1.092,3.834,2.107
		h0.051l0.076-1.854h1.98c-0.076,0.863-0.102,1.879-0.102,3.352V442.412z M464.261,436.775c0-0.381-0.025-0.711-0.127-0.99
		c-0.406-1.32-1.473-2.387-3.123-2.387c-2.133,0-3.656,1.803-3.656,4.646c0,2.412,1.244,4.418,3.631,4.418
		c1.396,0,2.641-0.863,3.098-2.285c0.127-0.381,0.178-0.812,0.178-1.193V436.775z"/>
	<path d="M472.516,428.473c0,0.762-0.533,1.371-1.422,1.371c-0.812,0-1.346-0.609-1.346-1.371s0.559-1.396,1.396-1.396
		C471.957,427.076,472.516,427.686,472.516,428.473z M470.027,444.215v-12.289h2.234v12.289H470.027z"/>
	<path d="M477.213,438.477c0.051,3.021,1.955,4.266,4.215,4.266c1.6,0,2.59-0.279,3.402-0.635l0.406,1.6
		c-0.787,0.355-2.158,0.787-4.113,0.787c-3.783,0-6.043-2.514-6.043-6.221s2.184-6.602,5.764-6.602c4.037,0,5.078,3.504,5.078,5.764
		c0,0.457-0.025,0.787-0.076,1.041H477.213z M483.764,436.877c0.025-1.396-0.584-3.605-3.098-3.605c-2.285,0-3.25,2.057-3.428,3.605
		H483.764z"/>
	<path d="M494.075,426.188h2.209v7.719h0.051c0.787-1.371,2.209-2.234,4.189-2.234c3.072,0,5.205,2.539,5.205,6.246
		c0,4.393-2.793,6.576-5.535,6.576c-1.777,0-3.199-0.686-4.139-2.285h-0.051l-0.127,2.006h-1.904
		c0.051-0.838,0.102-2.082,0.102-3.174V426.188z M496.284,439.289c0,0.279,0.025,0.559,0.102,0.812
		c0.406,1.549,1.727,2.615,3.352,2.615c2.361,0,3.732-1.904,3.732-4.723c0-2.463-1.27-4.57-3.682-4.57
		c-1.498,0-2.92,1.066-3.377,2.742c-0.076,0.279-0.127,0.584-0.127,0.939V439.289z"/>
	<path d="M511.013,428.473c0,0.762-0.533,1.371-1.422,1.371c-0.812,0-1.346-0.609-1.346-1.371s0.559-1.396,1.396-1.396
		C510.454,427.076,511.013,427.686,511.013,428.473z M508.524,444.215v-12.289h2.234v12.289H508.524z"/>
	<path d="M514.467,435.252c0-1.295-0.025-2.311-0.102-3.326h1.98l0.127,2.031h0.051c0.609-1.143,2.031-2.285,4.062-2.285
		c1.701,0,4.342,1.016,4.342,5.23v7.312h-2.234v-7.084c0-1.98-0.736-3.631-2.844-3.631c-1.447,0-2.59,1.041-2.996,2.285
		c-0.102,0.279-0.152,0.66-0.152,1.041v7.389h-2.234V435.252z"/>
	<path d="M537.194,441.27c0,1.066,0.051,2.107,0.178,2.945h-2.006l-0.178-1.549h-0.076c-0.686,0.965-2.006,1.828-3.758,1.828
		c-2.488,0-3.758-1.752-3.758-3.529c0-2.971,2.641-4.596,7.389-4.57v-0.254c0-0.99-0.279-2.844-2.793-2.818
		c-1.168,0-2.361,0.33-3.225,0.914l-0.508-1.498c1.016-0.635,2.514-1.066,4.062-1.066c3.758,0,4.672,2.564,4.672,5.002V441.27z
		 M535.036,437.943c-2.438-0.051-5.205,0.381-5.205,2.768c0,1.473,0.965,2.133,2.082,2.133c1.625,0,2.666-1.016,3.021-2.057
		c0.076-0.254,0.102-0.508,0.102-0.711V437.943z"/>
	<path d="M551.085,440.838c0,1.295,0.025,2.412,0.102,3.377h-1.98l-0.127-2.006h-0.051c-0.559,0.99-1.879,2.285-4.062,2.285
		c-1.93,0-4.24-1.092-4.24-5.383v-7.186h2.234v6.779c0,2.336,0.736,3.936,2.742,3.936c1.498,0,2.539-1.041,2.945-2.057
		c0.127-0.305,0.203-0.711,0.203-1.143v-7.516h2.234V440.838z"/>
	<path d="M554.794,435.76c0-1.447-0.025-2.691-0.102-3.834h1.955l0.102,2.438h0.076c0.559-1.65,1.93-2.691,3.428-2.691
		c0.229,0,0.406,0.025,0.609,0.051v2.107c-0.229-0.051-0.457-0.051-0.762-0.051c-1.574,0-2.691,1.168-2.996,2.844
		c-0.051,0.305-0.076,0.686-0.076,1.041v6.551h-2.234V435.76z"/>
	<path d="M571.604,441.27c0,1.066,0.051,2.107,0.178,2.945h-2.006l-0.178-1.549h-0.076c-0.686,0.965-2.006,1.828-3.758,1.828
		c-2.488,0-3.758-1.752-3.758-3.529c0-2.971,2.641-4.596,7.389-4.57v-0.254c0-0.99-0.279-2.844-2.793-2.818
		c-1.168,0-2.361,0.33-3.225,0.914l-0.508-1.498c1.016-0.635,2.514-1.066,4.062-1.066c3.758,0,4.672,2.564,4.672,5.002V441.27z
		 M569.446,437.943c-2.438-0.051-5.205,0.381-5.205,2.768c0,1.473,0.965,2.133,2.082,2.133c1.625,0,2.666-1.016,3.021-2.057
		c0.076-0.254,0.102-0.508,0.102-0.711V437.943z"/>
	<path d="M575.212,426.188h2.234v18.027h-2.234V426.188z"/>
	<path d="M582.448,438.477c0.051,3.021,1.955,4.266,4.215,4.266c1.6,0,2.59-0.279,3.402-0.635l0.406,1.6
		c-0.787,0.355-2.158,0.787-4.113,0.787c-3.783,0-6.043-2.514-6.043-6.221s2.184-6.602,5.764-6.602c4.037,0,5.078,3.504,5.078,5.764
		c0,0.457-0.025,0.787-0.076,1.041H582.448z M588.999,436.877c0.025-1.396-0.584-3.605-3.098-3.605c-2.285,0-3.25,2.057-3.428,3.605
		H588.999z"/>
	<path d="M593.09,442.895c0-0.914,0.635-1.6,1.523-1.6s1.498,0.66,1.498,1.6c0,0.914-0.609,1.6-1.549,1.6
		C593.699,444.494,593.09,443.809,593.09,442.895z"/>
	<path d="M50.264,470.032c-0.127-2.387-0.279-5.281-0.279-7.389h-0.051c-0.609,1.98-1.295,4.139-2.158,6.5l-3.021,8.303h-1.676
		l-2.793-8.15c-0.812-2.438-1.473-4.621-1.955-6.652H38.28c-0.051,2.133-0.178,4.977-0.33,7.566l-0.457,7.338h-2.107l1.193-17.113
		h2.818l2.92,8.277c0.711,2.107,1.27,3.986,1.727,5.764h0.051c0.457-1.727,1.066-3.605,1.828-5.764l3.047-8.277h2.818l1.066,17.113
		H50.67L50.264,470.032z"/>
	<path d="M66.542,474.171c0,1.295,0.025,2.412,0.102,3.377h-1.98l-0.127-2.006h-0.051c-0.559,0.99-1.879,2.285-4.062,2.285
		c-1.93,0-4.24-1.092-4.24-5.383v-7.186h2.234v6.779c0,2.336,0.736,3.936,2.742,3.936c1.498,0,2.539-1.041,2.945-2.057
		c0.127-0.305,0.203-0.711,0.203-1.143v-7.516h2.234V474.171z"/>
	<path d="M70.252,468.585c0-1.295-0.025-2.311-0.102-3.326h1.98l0.127,2.031h0.051c0.609-1.143,2.031-2.285,4.062-2.285
		c1.701,0,4.342,1.016,4.342,5.23v7.312h-2.234v-7.084c0-1.98-0.736-3.631-2.844-3.631c-1.447,0-2.59,1.041-2.996,2.285
		c-0.102,0.279-0.152,0.66-0.152,1.041v7.389h-2.234V468.585z"/>
	<path d="M86.834,461.806c0,0.762-0.533,1.371-1.422,1.371c-0.812,0-1.346-0.609-1.346-1.371s0.559-1.396,1.396-1.396
		C86.275,460.409,86.834,461.019,86.834,461.806z M84.346,477.548v-12.289h2.234v12.289H84.346z"/>
	<path d="M89.983,475.288c0.686,0.406,1.854,0.863,2.971,0.863c1.6,0,2.361-0.787,2.361-1.828c0-1.066-0.635-1.625-2.26-2.234
		c-2.234-0.812-3.275-2.006-3.275-3.479c0-1.98,1.625-3.605,4.24-3.605c1.244,0,2.336,0.33,2.996,0.762l-0.533,1.625
		c-0.482-0.305-1.371-0.736-2.514-0.736c-1.32,0-2.031,0.762-2.031,1.676c0,1.016,0.711,1.473,2.311,2.107
		c2.107,0.787,3.225,1.854,3.225,3.682c0,2.184-1.701,3.707-4.57,3.707c-1.346,0-2.59-0.355-3.453-0.863L89.983,475.288z"/>
	<path d="M100.04,475.288c0.686,0.406,1.854,0.863,2.971,0.863c1.6,0,2.361-0.787,2.361-1.828c0-1.066-0.635-1.625-2.26-2.234
		c-2.234-0.812-3.275-2.006-3.275-3.479c0-1.98,1.625-3.605,4.24-3.605c1.244,0,2.336,0.33,2.996,0.762l-0.533,1.625
		c-0.482-0.305-1.371-0.736-2.514-0.736c-1.32,0-2.031,0.762-2.031,1.676c0,1.016,0.711,1.473,2.311,2.107
		c2.107,0.787,3.225,1.854,3.225,3.682c0,2.184-1.701,3.707-4.57,3.707c-1.346,0-2.59-0.355-3.453-0.863L100.04,475.288z"/>
	<path d="M111.645,471.81c0.051,3.021,1.955,4.266,4.215,4.266c1.6,0,2.59-0.279,3.402-0.635l0.406,1.6
		c-0.787,0.355-2.158,0.787-4.113,0.787c-3.783,0-6.043-2.514-6.043-6.221s2.184-6.602,5.764-6.602c4.037,0,5.078,3.504,5.078,5.764
		c0,0.457-0.025,0.787-0.076,1.041H111.645z M118.196,470.21c0.025-1.396-0.584-3.605-3.098-3.605c-2.285,0-3.25,2.057-3.428,3.605
		H118.196z"/>
	<path d="M121.727,476.253l5.535-7.236c0.559-0.686,1.066-1.27,1.625-1.93v-0.051h-6.652v-1.777h9.344v1.396l-5.484,7.135
		c-0.533,0.686-1.016,1.32-1.574,1.93v0.051h7.16v1.777h-9.953V476.253z"/>
	<path d="M139.172,469.88v1.625H132.9v-1.625H139.172z"/>
	<path d="M142.525,465.259l2.412,6.881c0.406,1.143,0.736,2.158,0.99,3.174h0.076c0.279-1.016,0.635-2.031,1.041-3.174l2.387-6.881
		h2.336l-4.824,12.289h-2.133l-4.672-12.289H142.525z"/>
	<path d="M164.744,471.302c0,4.545-3.174,6.525-6.119,6.525c-3.301,0-5.891-2.438-5.891-6.322c0-4.088,2.717-6.5,6.094-6.5
		C162.357,465.005,164.744,467.569,164.744,471.302z M155.019,471.429c0,2.691,1.523,4.723,3.707,4.723
		c2.133,0,3.732-2.006,3.732-4.773c0-2.082-1.041-4.697-3.682-4.697C156.162,466.681,155.019,469.118,155.019,471.429z"/>
	<path d="M177.848,474.171c0,1.295,0.025,2.412,0.102,3.377h-1.98l-0.127-2.006h-0.051c-0.559,0.99-1.879,2.285-4.062,2.285
		c-1.93,0-4.24-1.092-4.24-5.383v-7.186h2.234v6.779c0,2.336,0.736,3.936,2.742,3.936c1.498,0,2.539-1.041,2.945-2.057
		c0.127-0.305,0.203-0.711,0.203-1.143v-7.516h2.234V474.171z"/>
	<path d="M181.252,475.288c0.686,0.406,1.854,0.863,2.971,0.863c1.6,0,2.361-0.787,2.361-1.828c0-1.066-0.635-1.625-2.26-2.234
		c-2.234-0.812-3.275-2.006-3.275-3.479c0-1.98,1.625-3.605,4.24-3.605c1.244,0,2.336,0.33,2.996,0.762l-0.533,1.625
		c-0.482-0.305-1.371-0.736-2.514-0.736c-1.32,0-2.031,0.762-2.031,1.676c0,1.016,0.711,1.473,2.311,2.107
		c2.107,0.787,3.225,1.854,3.225,3.682c0,2.184-1.701,3.707-4.57,3.707c-1.346,0-2.59-0.355-3.453-0.863L181.252,475.288z"/>
	<path d="M207.584,459.521v14.854c0,1.092,0.051,2.336,0.102,3.174h-1.98l-0.102-2.133h-0.076c-0.66,1.371-2.133,2.412-4.139,2.412
		c-2.971,0-5.281-2.514-5.281-6.246c-0.025-4.088,2.539-6.576,5.51-6.576c1.904,0,3.148,0.889,3.707,1.854h0.051v-7.338H207.584z
		 M205.375,470.261c0-0.279-0.025-0.66-0.102-0.939c-0.33-1.396-1.549-2.564-3.225-2.564c-2.311,0-3.682,2.031-3.682,4.723
		c0,2.488,1.244,4.545,3.631,4.545c1.498,0,2.869-1.016,3.275-2.666c0.076-0.305,0.102-0.609,0.102-0.965V470.261z"/>
	<path d="M214.265,459.978c-0.584,2.133-1.676,4.875-2.361,6.043l-1.422,0.152c0.533-1.498,1.219-4.113,1.498-5.941L214.265,459.978
		z"/>
	<path d="M227.011,474.171c0,1.295,0.025,2.412,0.102,3.377h-1.98l-0.127-2.006h-0.051c-0.559,0.99-1.879,2.285-4.062,2.285
		c-1.93,0-4.24-1.092-4.24-5.383v-7.186h2.234v6.779c0,2.336,0.736,3.936,2.742,3.936c1.498,0,2.539-1.041,2.945-2.057
		c0.127-0.305,0.203-0.711,0.203-1.143v-7.516h2.234V474.171z"/>
	<path d="M230.721,468.585c0-1.295-0.025-2.311-0.102-3.326h1.98l0.127,2.031h0.051c0.609-1.143,2.031-2.285,4.062-2.285
		c1.701,0,4.342,1.016,4.342,5.23v7.312h-2.234v-7.084c0-1.98-0.736-3.631-2.844-3.631c-1.447,0-2.59,1.041-2.996,2.285
		c-0.102,0.279-0.152,0.66-0.152,1.041v7.389h-2.234V468.585z"/>
	<path d="M258.958,477.116c-0.584,0.279-1.879,0.711-3.529,0.711c-3.707,0-6.119-2.514-6.119-6.271c0-3.783,2.59-6.551,6.602-6.551
		c1.32,0,2.488,0.33,3.098,0.66l-0.508,1.701c-0.533-0.279-1.371-0.584-2.59-0.584c-2.818,0-4.342,2.107-4.342,4.646
		c0,2.844,1.828,4.596,4.266,4.596c1.27,0,2.107-0.305,2.742-0.584L258.958,477.116z"/>
	<path d="M270.208,474.603c0,1.066,0.051,2.107,0.178,2.945h-2.006l-0.178-1.549h-0.076c-0.686,0.965-2.006,1.828-3.758,1.828
		c-2.488,0-3.758-1.752-3.758-3.529c0-2.971,2.641-4.596,7.389-4.57v-0.254c0-0.99-0.279-2.844-2.793-2.818
		c-1.168,0-2.361,0.33-3.225,0.914l-0.508-1.498c1.016-0.635,2.514-1.066,4.062-1.066c3.758,0,4.672,2.564,4.672,5.002V474.603z
		 M268.05,471.276c-2.438-0.051-5.205,0.381-5.205,2.768c0,1.473,0.965,2.133,2.082,2.133c1.625,0,2.666-1.016,3.021-2.057
		c0.076-0.254,0.102-0.508,0.102-0.711V471.276z"/>
	<path d="M273.511,475.288c0.686,0.406,1.854,0.863,2.971,0.863c1.6,0,2.361-0.787,2.361-1.828c0-1.066-0.635-1.625-2.26-2.234
		c-2.234-0.812-3.275-2.006-3.275-3.479c0-1.98,1.625-3.605,4.24-3.605c1.244,0,2.336,0.33,2.996,0.762l-0.533,1.625
		c-0.482-0.305-1.371-0.736-2.514-0.736c-1.32,0-2.031,0.762-2.031,1.676c0,1.016,0.711,1.473,2.311,2.107
		c2.107,0.787,3.225,1.854,3.225,3.682c0,2.184-1.701,3.707-4.57,3.707c-1.346,0-2.59-0.355-3.453-0.863L273.511,475.288z"/>
	<path d="M292.25,475.669H292.2c-0.686,1.193-2.031,2.158-4.012,2.158c-2.869,0-5.205-2.463-5.205-6.195
		c0-4.621,2.971-6.627,5.561-6.627c1.904,0,3.174,0.939,3.783,2.107h0.051l0.076-1.854h2.107c-0.051,1.016-0.102,2.107-0.102,3.377
		v13.939h-2.209V475.669z M292.25,470.235c0-0.305-0.025-0.635-0.102-0.914c-0.355-1.371-1.523-2.539-3.199-2.539
		c-2.311,0-3.707,1.955-3.707,4.697c0,2.463,1.168,4.57,3.631,4.57c1.447,0,2.691-0.889,3.199-2.412
		c0.102-0.33,0.178-0.762,0.178-1.092V470.235z"/>
	<path d="M308.452,474.171c0,1.295,0.025,2.412,0.102,3.377h-1.98l-0.127-2.006h-0.051c-0.559,0.99-1.879,2.285-4.062,2.285
		c-1.93,0-4.24-1.092-4.24-5.383v-7.186h2.234v6.779c0,2.336,0.736,3.936,2.742,3.936c1.498,0,2.539-1.041,2.945-2.057
		c0.127-0.305,0.203-0.711,0.203-1.143v-7.516h2.234V474.171z"/>
	<path d="M313.405,471.81c0.051,3.021,1.955,4.266,4.215,4.266c1.6,0,2.59-0.279,3.402-0.635l0.406,1.6
		c-0.787,0.355-2.158,0.787-4.113,0.787c-3.783,0-6.043-2.514-6.043-6.221s2.184-6.602,5.764-6.602c4.037,0,5.078,3.504,5.078,5.764
		c0,0.457-0.025,0.787-0.076,1.041H313.405z M319.956,470.21c0.025-1.396-0.584-3.605-3.098-3.605c-2.285,0-3.25,2.057-3.428,3.605
		H319.956z"/>
	<path d="M338.9,474.603c0,1.066,0.051,2.107,0.178,2.945h-2.006l-0.178-1.549h-0.076c-0.686,0.965-2.006,1.828-3.758,1.828
		c-2.488,0-3.758-1.752-3.758-3.529c0-2.971,2.641-4.596,7.389-4.57v-0.254c0-0.99-0.279-2.844-2.793-2.818
		c-1.168,0-2.361,0.33-3.225,0.914l-0.508-1.498c1.016-0.635,2.514-1.066,4.062-1.066c3.758,0,4.672,2.564,4.672,5.002V474.603z
		 M336.742,471.276c-2.438-0.051-5.205,0.381-5.205,2.768c0,1.473,0.965,2.133,2.082,2.133c1.625,0,2.666-1.016,3.021-2.057
		c0.076-0.254,0.102-0.508,0.102-0.711V471.276z"/>
	<path d="M342.736,477.548V466.96h-1.701v-1.701h1.701v-0.686c0-3.225,1.904-5.332,5.357-5.332c1.143,0,2.488,0.355,3.123,0.812
		l-0.635,1.701c-0.559-0.381-1.498-0.711-2.59-0.711c-2.361,0-3.047,1.65-3.047,3.605v0.609h7.135v12.289h-2.234V466.96h-4.9v10.588
		H342.736z"/>
	<path d="M355.789,468.585c0-1.295-0.025-2.311-0.102-3.326h1.98l0.127,2.031h0.051c0.609-1.143,2.031-2.285,4.062-2.285
		c1.701,0,4.342,1.016,4.342,5.23v7.312h-2.234v-7.084c0-1.98-0.736-3.631-2.844-3.631c-1.447,0-2.59,1.041-2.996,2.285
		c-0.102,0.279-0.152,0.66-0.152,1.041v7.389h-2.234V468.585z"/>
	<path d="M385.854,459.521v14.854c0,1.092,0.051,2.336,0.102,3.174h-1.98l-0.102-2.133h-0.076c-0.66,1.371-2.133,2.412-4.139,2.412
		c-2.971,0-5.281-2.514-5.281-6.246c-0.025-4.088,2.539-6.576,5.51-6.576c1.904,0,3.148,0.889,3.707,1.854h0.051v-7.338H385.854z
		 M383.646,470.261c0-0.279-0.025-0.66-0.102-0.939c-0.33-1.396-1.549-2.564-3.225-2.564c-2.311,0-3.682,2.031-3.682,4.723
		c0,2.488,1.244,4.545,3.631,4.545c1.498,0,2.869-1.016,3.275-2.666c0.076-0.305,0.102-0.609,0.102-0.965V470.261z"/>
	<path d="M390.833,471.81c0.051,3.021,1.955,4.266,4.215,4.266c1.6,0,2.59-0.279,3.402-0.635l0.406,1.6
		c-0.787,0.355-2.158,0.787-4.113,0.787c-3.783,0-6.043-2.514-6.043-6.221s2.184-6.602,5.764-6.602c4.037,0,5.078,3.504,5.078,5.764
		c0,0.457-0.025,0.787-0.076,1.041H390.833z M397.384,470.21c0.025-1.396-0.584-3.605-3.098-3.605c-2.285,0-3.25,2.057-3.428,3.605
		H397.384z"/>
	<path d="M407.695,469.271c0-1.574-0.051-2.844-0.102-4.012h1.98l0.127,2.107h0.051c0.889-1.498,2.361-2.361,4.367-2.361
		c2.996,0,5.23,2.514,5.23,6.221c0,4.418-2.717,6.602-5.611,6.602c-1.625,0-3.047-0.711-3.783-1.93h-0.051v6.678h-2.209V469.271z
		 M409.904,472.546c0,0.33,0.025,0.635,0.102,0.914c0.406,1.549,1.752,2.615,3.352,2.615c2.361,0,3.732-1.93,3.732-4.748
		c0-2.438-1.295-4.545-3.656-4.545c-1.523,0-2.971,1.066-3.377,2.742c-0.076,0.279-0.152,0.609-0.152,0.889V472.546z"/>
	<path d="M422.145,469.093c0-1.447-0.025-2.691-0.102-3.834h1.955l0.102,2.438h0.076c0.559-1.65,1.93-2.691,3.428-2.691
		c0.229,0,0.406,0.025,0.609,0.051v2.107c-0.229-0.051-0.457-0.051-0.762-0.051c-1.574,0-2.691,1.168-2.996,2.844
		c-0.051,0.305-0.076,0.686-0.076,1.041v6.551h-2.234V469.093z"/>
	<path d="M441.316,471.302c0,4.545-3.174,6.525-6.119,6.525c-3.301,0-5.891-2.438-5.891-6.322c0-4.088,2.717-6.5,6.094-6.5
		C438.93,465.005,441.316,467.569,441.316,471.302z M431.592,471.429c0,2.691,1.523,4.723,3.707,4.723
		c2.133,0,3.732-2.006,3.732-4.773c0-2.082-1.041-4.697-3.682-4.697C432.734,466.681,431.592,469.118,431.592,471.429z"/>
	<path d="M444.365,477.548V466.96h-1.701v-1.701h1.701v-0.686c0-3.225,1.904-5.332,5.357-5.332c1.143,0,2.488,0.355,3.123,0.812
		l-0.635,1.701c-0.559-0.381-1.498-0.711-2.59-0.711c-2.361,0-3.047,1.65-3.047,3.605v0.609h7.135v12.289h-2.234V466.96h-4.9v10.588
		H444.365z"/>
	<path d="M460.11,462.313v2.945h3.199v1.701h-3.199v6.627c0,1.523,0.432,2.387,1.676,2.387c0.609,0,0.965-0.051,1.295-0.152
		l0.102,1.701c-0.432,0.152-1.117,0.305-1.98,0.305c-1.041,0-1.879-0.355-2.412-0.939c-0.609-0.686-0.863-1.777-0.863-3.225v-6.703
		h-1.904v-1.701h1.904v-2.285L460.11,462.313z"/>
	<path d="M466.916,471.81c0.051,3.021,1.955,4.266,4.215,4.266c1.6,0,2.59-0.279,3.402-0.635l0.406,1.6
		c-0.787,0.355-2.158,0.787-4.113,0.787c-3.783,0-6.043-2.514-6.043-6.221s2.184-6.602,5.764-6.602c4.037,0,5.078,3.504,5.078,5.764
		c0,0.457-0.025,0.787-0.076,1.041H466.916z M473.467,470.21c0.025-1.396-0.584-3.605-3.098-3.605c-2.285,0-3.25,2.057-3.428,3.605
		H473.467z"/>
	<path d="M478.395,469.093c0-1.447-0.025-2.691-0.102-3.834h1.955l0.102,2.438h0.076c0.559-1.65,1.93-2.691,3.428-2.691
		c0.229,0,0.406,0.025,0.609,0.051v2.107c-0.229-0.051-0.457-0.051-0.762-0.051c-1.574,0-2.691,1.168-2.996,2.844
		c-0.051,0.305-0.076,0.686-0.076,1.041v6.551h-2.234V469.093z"/>
	<path d="M502.67,459.521v14.854c0,1.092,0.051,2.336,0.102,3.174h-1.98l-0.102-2.133h-0.076c-0.66,1.371-2.133,2.412-4.139,2.412
		c-2.971,0-5.281-2.514-5.281-6.246c-0.025-4.088,2.539-6.576,5.51-6.576c1.904,0,3.148,0.889,3.707,1.854h0.051v-7.338H502.67z
		 M500.461,470.261c0-0.279-0.025-0.66-0.102-0.939c-0.33-1.396-1.549-2.564-3.225-2.564c-2.311,0-3.682,2.031-3.682,4.723
		c0,2.488,1.244,4.545,3.631,4.545c1.498,0,2.869-1.016,3.275-2.666c0.076-0.305,0.102-0.609,0.102-0.965V470.261z"/>
	<path d="M509.35,459.978c-0.584,2.133-1.676,4.875-2.361,6.043l-1.422,0.152c0.533-1.498,1.219-4.113,1.498-5.941L509.35,459.978z"
		/>
	<path d="M522.097,474.171c0,1.295,0.025,2.412,0.102,3.377h-1.98l-0.127-2.006h-0.051c-0.559,0.99-1.879,2.285-4.062,2.285
		c-1.93,0-4.24-1.092-4.24-5.383v-7.186h2.234v6.779c0,2.336,0.736,3.936,2.742,3.936c1.498,0,2.539-1.041,2.945-2.057
		c0.127-0.305,0.203-0.711,0.203-1.143v-7.516h2.234V474.171z"/>
	<path d="M525.806,468.585c0-1.295-0.025-2.311-0.102-3.326h1.98l0.127,2.031h0.051c0.609-1.143,2.031-2.285,4.062-2.285
		c1.701,0,4.342,1.016,4.342,5.23v7.312h-2.234v-7.084c0-1.98-0.736-3.631-2.844-3.631c-1.447,0-2.59,1.041-2.996,2.285
		c-0.102,0.279-0.152,0.66-0.152,1.041v7.389h-2.234V468.585z"/>
	<path d="M546.527,471.81c0.051,3.021,1.955,4.266,4.215,4.266c1.6,0,2.59-0.279,3.402-0.635l0.406,1.6
		c-0.787,0.355-2.158,0.787-4.113,0.787c-3.783,0-6.043-2.514-6.043-6.221s2.184-6.602,5.764-6.602c4.037,0,5.078,3.504,5.078,5.764
		c0,0.457-0.025,0.787-0.076,1.041H546.527z M553.078,470.21c0.025-1.396-0.584-3.605-3.098-3.605c-2.285,0-3.25,2.057-3.428,3.605
		H553.078z"/>
	<path d="M558.972,465.259l1.752,2.641c0.482,0.686,0.863,1.295,1.27,1.98h0.051c0.406-0.711,0.812-1.346,1.244-2.006l1.701-2.615
		h2.438l-4.189,5.941l4.291,6.348h-2.514l-1.828-2.768c-0.482-0.711-0.889-1.396-1.32-2.133h-0.051
		c-0.406,0.736-0.812,1.396-1.295,2.133l-1.777,2.768h-2.463l4.367-6.271l-4.164-6.018H558.972z"/>
	<path d="M569.688,469.271c0-1.574-0.051-2.844-0.102-4.012h1.98l0.127,2.107h0.051c0.889-1.498,2.361-2.361,4.367-2.361
		c2.996,0,5.23,2.514,5.23,6.221c0,4.418-2.717,6.602-5.611,6.602c-1.625,0-3.047-0.711-3.783-1.93h-0.051v6.678h-2.209V469.271z
		 M571.897,472.546c0,0.33,0.025,0.635,0.102,0.914c0.406,1.549,1.752,2.615,3.352,2.615c2.361,0,3.732-1.93,3.732-4.748
		c0-2.438-1.295-4.545-3.656-4.545c-1.523,0-2.971,1.066-3.377,2.742c-0.076,0.279-0.152,0.609-0.152,0.889V472.546z"/>
	<path d="M585.382,471.81c0.051,3.021,1.955,4.266,4.215,4.266c1.6,0,2.59-0.279,3.402-0.635l0.406,1.6
		c-0.787,0.355-2.158,0.787-4.113,0.787c-3.783,0-6.043-2.514-6.043-6.221s2.184-6.602,5.764-6.602c4.037,0,5.078,3.504,5.078,5.764
		c0,0.457-0.025,0.787-0.076,1.041H585.382z M591.933,470.21c0.025-1.396-0.584-3.605-3.098-3.605c-2.285,0-3.25,2.057-3.428,3.605
		H591.933z M592.44,459.952l-3.098,3.631h-1.574l2.234-3.631H592.44z"/>
	<path d="M596.86,469.093c0-1.447-0.025-2.691-0.102-3.834h1.955l0.102,2.438h0.076c0.559-1.65,1.93-2.691,3.428-2.691
		c0.229,0,0.406,0.025,0.609,0.051v2.107c-0.229-0.051-0.457-0.051-0.762-0.051c-1.574,0-2.691,1.168-2.996,2.844
		c-0.051,0.305-0.076,0.686-0.076,1.041v6.551h-2.234V469.093z"/>
	<path d="M607.754,461.806c0,0.762-0.533,1.371-1.422,1.371c-0.812,0-1.346-0.609-1.346-1.371s0.559-1.396,1.396-1.396
		C607.195,460.409,607.754,461.019,607.754,461.806z M605.266,477.548v-12.289h2.234v12.289H605.266z"/>
	<path d="M612.452,471.81c0.051,3.021,1.955,4.266,4.215,4.266c1.6,0,2.59-0.279,3.402-0.635l0.406,1.6
		c-0.787,0.355-2.158,0.787-4.113,0.787c-3.783,0-6.043-2.514-6.043-6.221s2.184-6.602,5.764-6.602c4.037,0,5.078,3.504,5.078,5.764
		c0,0.457-0.025,0.787-0.076,1.041H612.452z M619.003,470.21c0.025-1.396-0.584-3.605-3.098-3.605c-2.285,0-3.25,2.057-3.428,3.605
		H619.003z"/>
	<path d="M623.931,468.585c0-1.295-0.025-2.311-0.102-3.326h1.98l0.127,2.031h0.051c0.609-1.143,2.031-2.285,4.062-2.285
		c1.701,0,4.342,1.016,4.342,5.23v7.312h-2.234v-7.084c0-1.98-0.736-3.631-2.844-3.631c-1.447,0-2.59,1.041-2.996,2.285
		c-0.102,0.279-0.152,0.66-0.152,1.041v7.389h-2.234V468.585z"/>
	<path d="M646.785,477.116c-0.584,0.279-1.879,0.711-3.529,0.711c-3.707,0-6.119-2.514-6.119-6.271c0-3.783,2.59-6.551,6.602-6.551
		c1.32,0,2.488,0.33,3.098,0.66l-0.508,1.701c-0.533-0.279-1.371-0.584-2.59-0.584c-2.818,0-4.342,2.107-4.342,4.646
		c0,2.844,1.828,4.596,4.266,4.596c1.27,0,2.107-0.305,2.742-0.584L646.785,477.116z"/>
	<path d="M650.493,471.81c0.051,3.021,1.955,4.266,4.215,4.266c1.6,0,2.59-0.279,3.402-0.635l0.406,1.6
		c-0.787,0.355-2.158,0.787-4.113,0.787c-3.783,0-6.043-2.514-6.043-6.221s2.184-6.602,5.764-6.602c4.037,0,5.078,3.504,5.078,5.764
		c0,0.457-0.025,0.787-0.076,1.041H650.493z M657.044,470.21c0.025-1.396-0.584-3.605-3.098-3.605c-2.285,0-3.25,2.057-3.428,3.605
		H657.044z"/>
	<path d="M678.477,471.302c0,4.545-3.174,6.525-6.119,6.525c-3.301,0-5.891-2.438-5.891-6.322c0-4.088,2.717-6.5,6.094-6.5
		C676.09,465.005,678.477,467.569,678.477,471.302z M668.752,471.429c0,2.691,1.523,4.723,3.707,4.723
		c2.133,0,3.732-2.006,3.732-4.773c0-2.082-1.041-4.697-3.682-4.697C669.895,466.681,668.752,469.118,668.752,471.429z"/>
	<path d="M681.298,469.271c0-1.574-0.051-2.844-0.102-4.012h1.98l0.127,2.107h0.051c0.889-1.498,2.361-2.361,4.367-2.361
		c2.996,0,5.23,2.514,5.23,6.221c0,4.418-2.717,6.602-5.611,6.602c-1.625,0-3.047-0.711-3.783-1.93h-0.051v6.678h-2.209V469.271z
		 M683.507,472.546c0,0.33,0.025,0.635,0.102,0.914c0.406,1.549,1.752,2.615,3.352,2.615c2.361,0,3.732-1.93,3.732-4.748
		c0-2.438-1.295-4.545-3.656-4.545c-1.523,0-2.971,1.066-3.377,2.742c-0.076,0.279-0.152,0.609-0.152,0.889V472.546z"/>
	<path d="M698.438,462.313v2.945h3.199v1.701h-3.199v6.627c0,1.523,0.432,2.387,1.676,2.387c0.609,0,0.965-0.051,1.295-0.152
		l0.102,1.701c-0.432,0.152-1.117,0.305-1.98,0.305c-1.041,0-1.879-0.355-2.412-0.939c-0.609-0.686-0.863-1.777-0.863-3.225v-6.703
		h-1.904v-1.701h1.904v-2.285L698.438,462.313z"/>
	<path d="M706.641,461.806c0,0.762-0.533,1.371-1.422,1.371c-0.812,0-1.346-0.609-1.346-1.371s0.559-1.396,1.396-1.396
		C706.082,460.409,706.641,461.019,706.641,461.806z M704.152,477.548v-12.289h2.234v12.289H704.152z"/>
	<path d="M710.095,468.585c0-1.295-0.051-2.311-0.102-3.326h1.955l0.102,2.006h0.076c0.686-1.168,1.828-2.26,3.885-2.26
		c1.65,0,2.92,1.016,3.453,2.463h0.051c0.381-0.711,0.889-1.219,1.396-1.6c0.736-0.559,1.523-0.863,2.691-0.863
		c1.65,0,4.062,1.066,4.062,5.332v7.211h-2.184v-6.932c0-2.387-0.889-3.783-2.666-3.783c-1.295,0-2.26,0.939-2.666,2.006
		c-0.102,0.33-0.178,0.711-0.178,1.117v7.592h-2.184v-7.363c0-1.955-0.863-3.352-2.564-3.352c-1.371,0-2.412,1.117-2.768,2.234
		c-0.127,0.305-0.178,0.711-0.178,1.092v7.389h-2.184V468.585z"/>
	<path d="M739.907,474.603c0,1.066,0.051,2.107,0.178,2.945h-2.006l-0.178-1.549h-0.076c-0.686,0.965-2.006,1.828-3.758,1.828
		c-2.488,0-3.758-1.752-3.758-3.529c0-2.971,2.641-4.596,7.389-4.57v-0.254c0-0.99-0.279-2.844-2.793-2.818
		c-1.168,0-2.361,0.33-3.225,0.914l-0.508-1.498c1.016-0.635,2.514-1.066,4.062-1.066c3.758,0,4.672,2.564,4.672,5.002V474.603z
		 M737.749,471.276c-2.438-0.051-5.205,0.381-5.205,2.768c0,1.473,0.965,2.133,2.082,2.133c1.625,0,2.666-1.016,3.021-2.057
		c0.076-0.254,0.102-0.508,0.102-0.711V471.276z"/>
	<path d="M743.515,459.521h2.234v18.027h-2.234V459.521z"/>
	<path d="M750.752,471.81c0.051,3.021,1.955,4.266,4.215,4.266c1.6,0,2.59-0.279,3.402-0.635l0.406,1.6
		c-0.787,0.355-2.158,0.787-4.113,0.787c-3.783,0-6.043-2.514-6.043-6.221s2.184-6.602,5.764-6.602c4.037,0,5.078,3.504,5.078,5.764
		c0,0.457-0.025,0.787-0.076,1.041H750.752z M757.303,470.21c0.025-1.396-0.584-3.605-3.098-3.605c-2.285,0-3.25,2.057-3.428,3.605
		H757.303z"/>
	<path d="M761.393,476.228c0-0.914,0.635-1.6,1.523-1.6s1.498,0.66,1.498,1.6c0,0.914-0.609,1.6-1.549,1.6
		C762.002,477.827,761.393,477.142,761.393,476.228z"/>
</g>
<g opacity="0.3">
	<path d="M160.567,531.577l-1.777,5.383h-2.285l5.84-17.113h2.641l5.84,17.113h-2.361l-1.828-5.383H160.567z M166.204,529.851
		l-1.701-4.926c-0.381-1.117-0.635-2.133-0.889-3.123h-0.051c-0.254,0.99-0.508,2.057-0.863,3.098l-1.676,4.951H166.204z"/>
	<path d="M173.189,528.683c0-1.574-0.051-2.844-0.102-4.012h1.98l0.127,2.107h0.051c0.889-1.498,2.361-2.361,4.367-2.361
		c2.996,0,5.23,2.514,5.23,6.221c0,4.418-2.717,6.602-5.611,6.602c-1.625,0-3.047-0.711-3.783-1.93h-0.051v6.678h-2.209V528.683z
		 M175.398,531.958c0,0.33,0.025,0.635,0.102,0.914c0.406,1.549,1.752,2.615,3.352,2.615c2.361,0,3.732-1.93,3.732-4.748
		c0-2.438-1.295-4.545-3.656-4.545c-1.523,0-2.971,1.066-3.377,2.742c-0.076,0.279-0.152,0.609-0.152,0.889V531.958z"/>
	<path d="M187.639,528.683c0-1.574-0.051-2.844-0.102-4.012h1.98l0.127,2.107h0.051c0.889-1.498,2.361-2.361,4.367-2.361
		c2.996,0,5.23,2.514,5.23,6.221c0,4.418-2.717,6.602-5.611,6.602c-1.625,0-3.047-0.711-3.783-1.93h-0.051v6.678h-2.209V528.683z
		 M189.848,531.958c0,0.33,0.025,0.635,0.102,0.914c0.406,1.549,1.752,2.615,3.352,2.615c2.361,0,3.732-1.93,3.732-4.748
		c0-2.438-1.295-4.545-3.656-4.545c-1.523,0-2.971,1.066-3.377,2.742c-0.076,0.279-0.152,0.609-0.152,0.889V531.958z"/>
	<path d="M212.372,533.583c0,1.295,0.025,2.412,0.102,3.377h-1.98l-0.127-2.006h-0.051c-0.559,0.99-1.879,2.285-4.062,2.285
		c-1.93,0-4.24-1.092-4.24-5.383v-7.186h2.234v6.779c0,2.336,0.736,3.936,2.742,3.936c1.498,0,2.539-1.041,2.945-2.057
		c0.127-0.305,0.203-0.711,0.203-1.143v-7.516h2.234V533.583z"/>
	<path d="M216.893,524.671l2.666,7.262c0.305,0.812,0.609,1.777,0.812,2.514h0.051c0.229-0.736,0.482-1.676,0.787-2.564l2.438-7.211
		h2.361l-3.352,8.76c-1.6,4.215-2.691,6.348-4.215,7.693c-1.117,0.939-2.184,1.32-2.742,1.422l-0.559-1.854
		c0.559-0.178,1.295-0.533,1.955-1.092c0.609-0.482,1.346-1.346,1.879-2.488c0.102-0.229,0.178-0.406,0.178-0.533
		s-0.051-0.305-0.178-0.584l-4.52-11.324H216.893z"/>
	<path d="M229.032,531.222c0.051,3.021,1.955,4.266,4.215,4.266c1.6,0,2.59-0.279,3.402-0.635l0.406,1.6
		c-0.787,0.355-2.158,0.787-4.113,0.787c-3.783,0-6.043-2.514-6.043-6.221s2.184-6.602,5.764-6.602c4.037,0,5.078,3.504,5.078,5.764
		c0,0.457-0.025,0.787-0.076,1.041H229.032z M235.583,529.622c0.025-1.396-0.584-3.605-3.098-3.605c-2.285,0-3.25,2.057-3.428,3.605
		H235.583z"/>
	<path d="M239.114,535.665l5.535-7.236c0.559-0.686,1.066-1.27,1.625-1.93v-0.051h-6.652v-1.777h9.344v1.396l-5.484,7.135
		c-0.533,0.686-1.016,1.32-1.574,1.93v0.051h7.16v1.777h-9.953V535.665z"/>
	<path d="M256.458,534.7c0.686,0.406,1.854,0.863,2.971,0.863c1.6,0,2.361-0.787,2.361-1.828c0-1.066-0.635-1.625-2.26-2.234
		c-2.234-0.812-3.275-2.006-3.275-3.479c0-1.98,1.625-3.605,4.24-3.605c1.244,0,2.336,0.33,2.996,0.762l-0.533,1.625
		c-0.482-0.305-1.371-0.736-2.514-0.736c-1.32,0-2.031,0.762-2.031,1.676c0,1.016,0.711,1.473,2.311,2.107
		c2.107,0.787,3.225,1.854,3.225,3.682c0,2.184-1.701,3.707-4.57,3.707c-1.346,0-2.59-0.355-3.453-0.863L256.458,534.7z"/>
	<path d="M277.103,533.583c0,1.295,0.025,2.412,0.102,3.377h-1.98l-0.127-2.006h-0.051c-0.559,0.99-1.879,2.285-4.062,2.285
		c-1.93,0-4.24-1.092-4.24-5.383v-7.186h2.234v6.779c0,2.336,0.736,3.936,2.742,3.936c1.498,0,2.539-1.041,2.945-2.057
		c0.127-0.305,0.203-0.711,0.203-1.143v-7.516h2.234V533.583z"/>
	<path d="M280.812,528.505c0-1.447-0.025-2.691-0.102-3.834h1.955l0.102,2.438h0.076c0.559-1.65,1.93-2.691,3.428-2.691
		c0.229,0,0.406,0.025,0.609,0.051v2.107c-0.229-0.051-0.457-0.051-0.762-0.051c-1.574,0-2.691,1.168-2.996,2.844
		c-0.051,0.305-0.076,0.686-0.076,1.041v6.551h-2.234V528.505z"/>
	<path d="M294.5,518.933h2.234v18.027H294.5V518.933z"/>
	<path d="M309.125,534.015c0,1.066,0.051,2.107,0.178,2.945h-2.006l-0.178-1.549h-0.076c-0.686,0.965-2.006,1.828-3.758,1.828
		c-2.488,0-3.758-1.752-3.758-3.529c0-2.971,2.641-4.596,7.389-4.57v-0.254c0-0.99-0.279-2.844-2.793-2.818
		c-1.168,0-2.361,0.33-3.225,0.914l-0.508-1.498c1.016-0.635,2.514-1.066,4.062-1.066c3.758,0,4.672,2.564,4.672,5.002V534.015z
		 M306.967,530.688c-2.438-0.051-5.205,0.381-5.205,2.768c0,1.473,0.965,2.133,2.082,2.133c1.625,0,2.666-1.016,3.021-2.057
		c0.076-0.254,0.102-0.508,0.102-0.711V530.688z"/>
	<path d="M320.808,521.726v2.945h3.199v1.701h-3.199v6.627c0,1.523,0.432,2.387,1.676,2.387c0.609,0,0.965-0.051,1.295-0.152
		l0.102,1.701c-0.432,0.152-1.117,0.305-1.98,0.305c-1.041,0-1.879-0.355-2.412-0.939c-0.609-0.686-0.863-1.777-0.863-3.225v-6.703
		h-1.904v-1.701h1.904v-2.285L320.808,521.726z"/>
	<path d="M337.49,530.714c0,4.545-3.174,6.525-6.119,6.525c-3.301,0-5.891-2.438-5.891-6.322c0-4.088,2.717-6.5,6.094-6.5
		C335.104,524.417,337.49,526.981,337.49,530.714z M327.766,530.841c0,2.691,1.523,4.723,3.707,4.723
		c2.133,0,3.732-2.006,3.732-4.773c0-2.082-1.041-4.697-3.682-4.697C328.908,526.093,327.766,528.53,327.766,530.841z"/>
	<path d="M350.594,533.583c0,1.295,0.025,2.412,0.102,3.377h-1.98l-0.127-2.006h-0.051c-0.559,0.99-1.879,2.285-4.062,2.285
		c-1.93,0-4.24-1.092-4.24-5.383v-7.186h2.234v6.779c0,2.336,0.736,3.936,2.742,3.936c1.498,0,2.539-1.041,2.945-2.057
		c0.127-0.305,0.203-0.711,0.203-1.143v-7.516h2.234V533.583z"/>
	<path d="M363.063,536.528c-0.584,0.279-1.879,0.711-3.529,0.711c-3.707,0-6.119-2.514-6.119-6.271c0-3.783,2.59-6.551,6.602-6.551
		c1.32,0,2.488,0.33,3.098,0.66l-0.508,1.701c-0.533-0.279-1.371-0.584-2.59-0.584c-2.818,0-4.342,2.107-4.342,4.646
		c0,2.844,1.828,4.596,4.266,4.596c1.27,0,2.107-0.305,2.742-0.584L363.063,536.528z"/>
	<path d="M365.681,518.933h2.234v7.693h0.051c0.355-0.635,0.914-1.219,1.6-1.6c0.66-0.381,1.447-0.609,2.285-0.609
		c1.65,0,4.291,1.016,4.291,5.23v7.312h-2.234v-7.059c0-1.98-0.736-3.631-2.844-3.631c-1.447,0-2.564,1.016-2.996,2.209
		c-0.127,0.33-0.152,0.66-0.152,1.066v7.414h-2.234V518.933z"/>
	<path d="M381.019,531.222c0.051,3.021,1.955,4.266,4.215,4.266c1.6,0,2.59-0.279,3.402-0.635l0.406,1.6
		c-0.787,0.355-2.158,0.787-4.113,0.787c-3.783,0-6.043-2.514-6.043-6.221s2.184-6.602,5.764-6.602c4.037,0,5.078,3.504,5.078,5.764
		c0,0.457-0.025,0.787-0.076,1.041H381.019z M387.569,529.622c0.025-1.396-0.584-3.605-3.098-3.605c-2.285,0-3.25,2.057-3.428,3.605
		H387.569z"/>
	<path d="M401.156,532.313c0.152,0.99,1.6,1.549,3.199,1.549c1.193,0,2.311-0.127,3.428-0.482l0.584,3.047
		c-1.498,0.609-3.123,0.812-4.672,0.812c-4.393,0-6.881-2.438-6.881-6.398c0-2.92,1.879-6.652,6.475-6.652
		c4.037,0,5.764,2.971,5.764,6.398c0,0.762-0.102,1.422-0.178,1.727H401.156z M404.838,529.216c0-0.711-0.33-2.031-1.777-2.031
		c-1.346,0-1.879,1.244-1.955,2.031H404.838z"/>
	<path d="M411.238,533.126c0.711,0.432,2.336,0.939,3.479,0.939c0.965,0,1.346-0.229,1.346-0.686s-0.279-0.66-1.625-1.092
		c-2.742-0.863-3.682-2.361-3.656-3.809c0-2.488,2.107-4.291,5.383-4.291c1.549,0,2.92,0.33,3.732,0.711l-0.736,3.098
		c-0.584-0.279-1.752-0.686-2.768-0.686c-0.787,0-1.244,0.203-1.244,0.711c0,0.406,0.406,0.66,1.879,1.143
		c2.463,0.812,3.402,2.082,3.428,3.885c0,2.387-1.854,4.189-5.713,4.189c-1.727,0-3.275-0.381-4.266-0.889L411.238,533.126z"/>
	<path d="M422.59,528.708c0-1.65-0.051-3.072-0.102-4.24h3.936l0.203,1.574h0.051c0.939-1.219,2.336-1.854,4.037-1.854
		c2.615,0,5.154,2.311,5.154,6.373c0,4.57-2.971,6.678-5.688,6.678c-1.422,0-2.514-0.559-2.971-1.193h-0.051v5.941h-4.57V528.708z
		 M427.16,531.501c0,0.279,0.025,0.533,0.076,0.762c0.178,0.812,0.863,1.498,1.777,1.498c1.371,0,2.209-1.193,2.209-2.996
		c0-1.752-0.711-3.021-2.158-3.021c-0.914,0-1.701,0.736-1.854,1.625c-0.051,0.178-0.051,0.381-0.051,0.584V531.501z"/>
	<path d="M449.176,533.913c0,1.244,0.051,2.412,0.203,3.047h-4.113l-0.254-1.092h-0.076c-0.889,0.99-2.133,1.371-3.479,1.371
		c-2.539,0-4.113-1.854-4.113-3.936c0-3.352,2.996-4.824,7.236-4.85v-0.102c0-0.508-0.381-1.066-2.031-1.066
		c-1.32,0-2.717,0.457-3.529,0.939l-0.812-2.92c0.812-0.406,2.59-1.117,5.18-1.117c4.291,0,5.789,2.387,5.789,5.51V533.913z
		 M444.732,531.247c-1.854,0-2.92,0.533-2.92,1.625c0,0.787,0.533,1.193,1.295,1.193c0.66,0,1.371-0.457,1.574-1.143
		c0.051-0.203,0.051-0.432,0.051-0.66V531.247z"/>
	<path d="M461.568,536.706c-0.762,0.33-2.057,0.533-3.453,0.533c-4.139,0-6.754-2.438-6.754-6.424c0-3.555,2.438-6.627,7.312-6.627
		c0.914,0,2.006,0.127,2.895,0.432l-0.66,3.377c-0.432-0.178-1.041-0.33-1.955-0.33c-1.727,0-2.92,1.168-2.92,2.996
		c0,2.031,1.422,2.996,3.021,2.996c0.787,0,1.447-0.076,2.006-0.305L461.568,536.706z"/>
	<path d="M466.826,532.313c0.152,0.99,1.6,1.549,3.199,1.549c1.193,0,2.311-0.127,3.428-0.482l0.584,3.047
		c-1.498,0.609-3.123,0.812-4.672,0.812c-4.393,0-6.881-2.438-6.881-6.398c0-2.92,1.879-6.652,6.475-6.652
		c4.037,0,5.764,2.971,5.764,6.398c0,0.762-0.102,1.422-0.178,1.727H466.826z M470.508,529.216c0-0.711-0.33-2.031-1.777-2.031
		c-1.346,0-1.879,1.244-1.955,2.031H470.508z"/>
	<path d="M482.622,528.683c0-1.574-0.051-2.844-0.102-4.012h1.98l0.127,2.107h0.051c0.889-1.498,2.361-2.361,4.367-2.361
		c2.996,0,5.23,2.514,5.23,6.221c0,4.418-2.717,6.602-5.611,6.602c-1.625,0-3.047-0.711-3.783-1.93h-0.051v6.678h-2.209V528.683z
		 M484.831,531.958c0,0.33,0.025,0.635,0.102,0.914c0.406,1.549,1.752,2.615,3.352,2.615c2.361,0,3.732-1.93,3.732-4.748
		c0-2.438-1.295-4.545-3.656-4.545c-1.523,0-2.971,1.066-3.377,2.742c-0.076,0.279-0.152,0.609-0.152,0.889V531.958z"/>
	<path d="M508.192,530.714c0,4.545-3.174,6.525-6.119,6.525c-3.301,0-5.891-2.438-5.891-6.322c0-4.088,2.717-6.5,6.094-6.5
		C505.806,524.417,508.192,526.981,508.192,530.714z M498.468,530.841c0,2.691,1.523,4.723,3.707,4.723
		c2.133,0,3.732-2.006,3.732-4.773c0-2.082-1.041-4.697-3.682-4.697C499.61,526.093,498.468,528.53,498.468,530.841z"/>
	<path d="M521.297,533.583c0,1.295,0.025,2.412,0.102,3.377h-1.98l-0.127-2.006h-0.051c-0.559,0.99-1.879,2.285-4.062,2.285
		c-1.93,0-4.24-1.092-4.24-5.383v-7.186h2.234v6.779c0,2.336,0.736,3.936,2.742,3.936c1.498,0,2.539-1.041,2.945-2.057
		c0.127-0.305,0.203-0.711,0.203-1.143v-7.516h2.234V533.583z"/>
	<path d="M525.006,528.505c0-1.447-0.025-2.691-0.102-3.834h1.955l0.102,2.438h0.076c0.559-1.65,1.93-2.691,3.428-2.691
		c0.229,0,0.406,0.025,0.609,0.051v2.107c-0.229-0.051-0.457-0.051-0.762-0.051c-1.574,0-2.691,1.168-2.996,2.844
		c-0.051,0.305-0.076,0.686-0.076,1.041v6.551h-2.234V528.505z"/>
	<path d="M547.453,536.528c-0.584,0.279-1.879,0.711-3.529,0.711c-3.707,0-6.119-2.514-6.119-6.271c0-3.783,2.59-6.551,6.602-6.551
		c1.32,0,2.488,0.33,3.098,0.66l-0.508,1.701c-0.533-0.279-1.371-0.584-2.59-0.584c-2.818,0-4.342,2.107-4.342,4.646
		c0,2.844,1.828,4.596,4.266,4.596c1.27,0,2.107-0.305,2.742-0.584L547.453,536.528z"/>
	<path d="M561.039,530.714c0,4.545-3.174,6.525-6.119,6.525c-3.301,0-5.891-2.438-5.891-6.322c0-4.088,2.717-6.5,6.094-6.5
		C558.652,524.417,561.039,526.981,561.039,530.714z M551.314,530.841c0,2.691,1.523,4.723,3.707,4.723
		c2.133,0,3.732-2.006,3.732-4.773c0-2.082-1.041-4.697-3.682-4.697C552.457,526.093,551.314,528.53,551.314,530.841z"/>
	<path d="M563.859,527.997c0-1.295-0.025-2.311-0.102-3.326h1.98l0.127,2.031h0.051c0.609-1.143,2.031-2.285,4.062-2.285
		c1.701,0,4.342,1.016,4.342,5.23v7.312h-2.234v-7.084c0-1.98-0.736-3.631-2.844-3.631c-1.447,0-2.59,1.041-2.996,2.285
		c-0.102,0.279-0.152,0.66-0.152,1.041v7.389h-2.234V527.997z"/>
	<path d="M580.544,521.726v2.945h3.199v1.701h-3.199v6.627c0,1.523,0.432,2.387,1.676,2.387c0.609,0,0.965-0.051,1.295-0.152
		l0.102,1.701c-0.432,0.152-1.117,0.305-1.98,0.305c-1.041,0-1.879-0.355-2.412-0.939c-0.609-0.686-0.863-1.777-0.863-3.225v-6.703
		h-1.904v-1.701h1.904v-2.285L580.544,521.726z"/>
	<path d="M588.746,521.218c0,0.762-0.533,1.371-1.422,1.371c-0.812,0-1.346-0.609-1.346-1.371s0.559-1.396,1.396-1.396
		C588.188,519.821,588.746,520.431,588.746,521.218z M586.258,536.96v-12.289h2.234v12.289H586.258z"/>
	<path d="M592.2,527.997c0-1.295-0.025-2.311-0.102-3.326h1.98l0.127,2.031h0.051c0.609-1.143,2.031-2.285,4.062-2.285
		c1.701,0,4.342,1.016,4.342,5.23v7.312h-2.234v-7.084c0-1.98-0.736-3.631-2.844-3.631c-1.447,0-2.59,1.041-2.996,2.285
		c-0.102,0.279-0.152,0.66-0.152,1.041v7.389H592.2V527.997z"/>
	<path d="M616.577,533.583c0,1.295,0.025,2.412,0.102,3.377h-1.98l-0.127-2.006h-0.051c-0.559,0.99-1.879,2.285-4.062,2.285
		c-1.93,0-4.24-1.092-4.24-5.383v-7.186h2.234v6.779c0,2.336,0.736,3.936,2.742,3.936c1.498,0,2.539-1.041,2.945-2.057
		c0.127-0.305,0.203-0.711,0.203-1.143v-7.516h2.234V533.583z"/>
	<path d="M621.531,531.222c0.051,3.021,1.955,4.266,4.215,4.266c1.6,0,2.59-0.279,3.402-0.635l0.406,1.6
		c-0.787,0.355-2.158,0.787-4.113,0.787c-3.783,0-6.043-2.514-6.043-6.221s2.184-6.602,5.764-6.602c4.037,0,5.078,3.504,5.078,5.764
		c0,0.457-0.025,0.787-0.076,1.041H621.531z M628.082,529.622c0.025-1.396-0.584-3.605-3.098-3.605c-2.285,0-3.25,2.057-3.428,3.605
		H628.082z"/>
	<path d="M633.01,528.505c0-1.447-0.025-2.691-0.102-3.834h1.955l0.102,2.438h0.076c0.559-1.65,1.93-2.691,3.428-2.691
		c0.229,0,0.406,0.025,0.609,0.051v2.107c-0.229-0.051-0.457-0.051-0.762-0.051c-1.574,0-2.691,1.168-2.996,2.844
		c-0.051,0.305-0.076,0.686-0.076,1.041v6.551h-2.234V528.505z"/>
	<path d="M639.435,535.64c0-0.914,0.635-1.6,1.523-1.6s1.498,0.66,1.498,1.6c0,0.914-0.609,1.6-1.549,1.6
		C640.044,537.239,639.435,536.554,639.435,535.64z"/>
</g>
<g>
	<path fill="#3E9DD7" d="M109.852,107.455c-9.425,9.425-22.403,15.301-36.745,15.301c-14.341,0-27.454-5.876-36.878-15.301
		c-9.425-9.424-15.164-22.4-15.164-36.742c0-14.478,5.739-27.456,15.164-36.881c9.424-9.425,22.537-15.295,36.878-15.295
		c14.342,0,27.32,5.871,36.745,15.295c9.424,9.425,15.298,22.403,15.298,36.881C125.15,85.054,119.276,98.031,109.852,107.455z
		 M117.363,70.712c0-12.295-4.917-23.357-12.977-31.279c-8.059-8.059-19.123-12.978-31.279-12.978
		c-12.293,0-23.357,4.919-31.279,12.978c-8.059,7.921-12.976,18.984-12.976,31.279c0,12.156,4.917,23.221,12.976,31.279
		c7.922,7.923,18.986,12.977,31.279,12.977c12.156,0,23.221-5.054,31.279-12.977C112.446,93.933,117.363,82.869,117.363,70.712z"/>
	<g>
		<polygon fill="#3E9DD7" points="73.107,42.464 53.824,60.057 53.824,81.643 73.107,99.23 92.391,81.643 92.391,60.057 		"/>
		<polygon fill="#186D94" points="73.107,99.23 92.391,81.643 53.824,81.643 		"/>
		<polygon fill="#71CBF1" points="73.107,42.464 92.391,60.057 53.824,60.057 		"/>
		<polygon opacity="0.3" points="73.107,99.23 92.391,81.643 92.391,60.057 73.107,42.464 		"/>
	</g>
	<path fill="#186D94" d="M30.833,135.964c-0.544-0.5-0.813-1.074-0.813-1.721c0-0.501,0.229-1.012,0.688-1.533
		c0.521-0.564,1.096-0.846,1.723-0.846c0.499,0,1.01,0.229,1.532,0.688c0.564,0.523,0.846,1.086,0.846,1.691
		c0,0.668-0.23,1.24-0.689,1.721c-0.459,0.459-1.021,0.689-1.688,0.689C31.886,136.654,31.353,136.423,30.833,135.964z
		 M30.833,151.99c-0.544-0.501-0.813-1.075-0.813-1.723c0-0.501,0.229-1.012,0.688-1.534c0.521-0.562,1.096-0.843,1.723-0.843
		c0.499,0,1.01,0.229,1.532,0.688c0.564,0.521,0.846,1.085,0.846,1.689c0,0.668-0.23,1.241-0.689,1.723
		c-0.459,0.459-1.021,0.688-1.688,0.688C31.886,152.677,31.353,152.449,30.833,151.99z M38.843,143.976
		c-0.542-0.501-0.813-1.074-0.813-1.721c0-0.5,0.23-1.013,0.688-1.533c0.522-0.564,1.095-0.846,1.722-0.846
		c0.501,0,1.013,0.229,1.534,0.689c0.562,0.521,0.845,1.084,0.845,1.689c0,0.668-0.23,1.242-0.688,1.721
		c-0.459,0.459-1.022,0.689-1.69,0.689C39.897,144.666,39.366,144.435,38.843,143.976z"/>
	<path fill="#186D94" d="M54.869,135.964c-0.543-0.5-0.813-1.074-0.813-1.721c0-0.501,0.229-1.012,0.688-1.533
		c0.521-0.564,1.096-0.846,1.722-0.846c0.5,0,1.011,0.229,1.532,0.688c0.563,0.523,0.846,1.086,0.846,1.691
		c0,0.668-0.229,1.24-0.688,1.721c-0.46,0.459-1.023,0.689-1.69,0.689C55.921,136.654,55.389,136.423,54.869,135.964z
		 M54.869,143.976c-0.543-0.501-0.813-1.074-0.813-1.721c0-0.5,0.229-1.013,0.688-1.533c0.521-0.564,1.096-0.846,1.722-0.846
		c0.5,0,1.011,0.229,1.532,0.689c0.563,0.521,0.846,1.084,0.846,1.689c0,0.668-0.229,1.242-0.688,1.721
		c-0.46,0.459-1.023,0.689-1.69,0.689C55.921,144.666,55.389,144.435,54.869,143.976z M54.869,151.99
		c-0.543-0.501-0.813-1.075-0.813-1.723c0-0.501,0.229-1.012,0.688-1.534c0.521-0.562,1.096-0.843,1.722-0.843
		c0.5,0,1.011,0.229,1.532,0.688c0.563,0.521,0.846,1.085,0.846,1.689c0,0.668-0.229,1.241-0.688,1.723
		c-0.46,0.459-1.023,0.688-1.69,0.688C55.921,152.677,55.389,152.449,54.869,151.99z M62.879,143.976
		c-0.542-0.501-0.813-1.074-0.813-1.721c0-0.5,0.229-1.013,0.688-1.533c0.521-0.564,1.095-0.846,1.723-0.846
		c0.5,0,1.011,0.229,1.533,0.689c0.562,0.521,0.844,1.084,0.844,1.689c0,0.668-0.229,1.242-0.688,1.721
		c-0.459,0.459-1.022,0.689-1.689,0.689C63.933,144.666,63.401,144.435,62.879,143.976z"/>
	<path fill="#186D94" d="M78.905,143.976c-0.543-0.501-0.814-1.074-0.814-1.721c0-0.5,0.229-1.013,0.688-1.533
		c0.521-0.564,1.096-0.846,1.721-0.846c0.501,0,1.012,0.229,1.533,0.689c0.563,0.521,0.846,1.084,0.846,1.689
		c0,0.668-0.229,1.242-0.689,1.721c-0.459,0.459-1.021,0.689-1.689,0.689C79.958,144.666,79.426,144.435,78.905,143.976z
		 M86.916,135.964c-0.543-0.5-0.813-1.074-0.813-1.721c0-0.501,0.229-1.012,0.688-1.533c0.521-0.564,1.095-0.846,1.721-0.846
		c0.501,0,1.012,0.229,1.534,0.688c0.562,0.523,0.845,1.086,0.845,1.691c0,0.668-0.229,1.24-0.688,1.721
		c-0.459,0.459-1.021,0.689-1.69,0.689C87.968,136.654,87.437,136.423,86.916,135.964z"/>
	<path fill="#186D94" d="M102.94,135.964c-0.543-0.5-0.815-1.074-0.815-1.721c0-0.501,0.23-1.012,0.689-1.533
		c0.522-0.564,1.096-0.846,1.722-0.846c0.5,0,1.013,0.229,1.533,0.688c0.564,0.523,0.846,1.086,0.846,1.691
		c0,0.668-0.229,1.24-0.689,1.721c-0.459,0.459-1.022,0.689-1.689,0.689C103.994,136.654,103.462,136.423,102.94,135.964z
		 M102.94,151.99c-0.543-0.501-0.815-1.075-0.815-1.723c0-0.501,0.23-1.012,0.689-1.534c0.522-0.562,1.096-0.843,1.722-0.843
		c0.5,0,1.013,0.229,1.533,0.688c0.564,0.521,0.846,1.085,0.846,1.689c0,0.668-0.229,1.241-0.689,1.723
		c-0.459,0.459-1.022,0.688-1.689,0.688C103.994,152.677,103.462,152.449,102.94,151.99z M110.952,143.976
		c-0.543-0.501-0.812-1.074-0.812-1.721c0-0.5,0.229-1.013,0.688-1.533c0.521-0.564,1.096-0.846,1.722-0.846
		c0.5,0,1.011,0.229,1.532,0.689c0.563,0.521,0.846,1.084,0.846,1.689c0,0.668-0.229,1.242-0.688,1.721
		c-0.46,0.459-1.022,0.689-1.689,0.689C112.004,144.666,111.473,144.435,110.952,143.976z"/>
</g>
</svg>
