<?xml version="1.0" encoding="utf-8"?>
<!-- Generator: Adobe Illustrator 15.1.0, SVG Export Plug-In . SVG Version: 6.00 Build 0)  -->
<!DOCTYPE svg PUBLIC "-//W3C//DTD SVG 1.1//EN" "http://www.w3.org/Graphics/SVG/1.1/DTD/svg11.dtd">
<svg version="1.1" id="Calque_1" xmlns="http://www.w3.org/2000/svg" xmlns:xlink="http://www.w3.org/1999/xlink" x="0px" y="0px"
	 width="124.774px" height="155.854px" viewBox="0 0 124.774 155.854" enable-background="new 0 0 124.774 155.854"
	 xml:space="preserve">
<path fill="#00557C" d="M121.361,132.228l-5.54-20.12l-7.251-7.739l-8.312-1.584l-0.065,0.091l-17.913-2.183h-1.036
	c0.268-0.187,0.395-0.299,0.395-0.299l1.603-14.135l11.056-5.001l-2.573-11.839l0.042-0.111l0.257-0.074
	c3.977-7.129,2.693-14.154,2.693-14.154L92.68,40.167c0,0-0.354-4.479-2.548-9.929l3.386-1.996
	C96.527,25.989,109.126,15.194,97.335,0c0,0-0.867,10.047-12.993,15.758l-3.146,1.846c-3.99-2.962-10.395-6.054-17.266-6.535
	l-2.524-4.163l-2.468,4.117c-7.263,0.36-12.754,2.579-16.899,5.65l-4.402-0.771c-4.042-1.819-7.056-4.175-8.936-6.411l-7.787,9.854
	c1.905,4.365,5.979,7.554,7.735,8.781l3.279,2.112c-3.693,4.865-2.871,24.601-2.871,24.601s-0.685,7.266,3.29,14.395l-2.475,12.16
	l13.423,6.452l1.466,12.548l-4.416,0.937l-27.581,6.153l-4.33,4.624l-5.54,20.12L0,155.854h26.753l2.017-11.781l0.802,11.781h64
	l1.365-11.781l1.385,11.781h28.452L121.361,132.228z"/>
</svg>
