<?xml version="1.0" encoding="utf-8"?>
<!-- Generator: Adobe Illustrator 15.1.0, SVG Export Plug-In . SVG Version: 6.00 Build 0)  -->
<!DOCTYPE svg PUBLIC "-//W3C//DTD SVG 1.1//EN" "http://www.w3.org/Graphics/SVG/1.1/DTD/svg11.dtd">
<svg version="1.1" id="Calque_1" xmlns="http://www.w3.org/2000/svg" xmlns:xlink="http://www.w3.org/1999/xlink" x="0px" y="0px"
	 width="800px" height="600px" viewBox="0 0 800 600" enable-background="new 0 0 800 600" xml:space="preserve">
<rect fill="#6EC6E3" width="800" height="600"/>
<g>
	<polygon fill="#FFE603" points="95.223,-15.028 91.613,-18.799 89.457,-13.979 85.158,-17.045 83.828,-11.913 79.039,-14.181 
		78.608,-8.894 73.494,-10.294 73.985,-5.012 68.705,-5.503 70.105,-0.385 64.818,0.048 67.086,4.845 61.954,6.19 65.021,10.52 
		60.199,12.735 64.169,16.661 59.609,19.817 64.003,22.857 60.258,26.563 65.112,28.795 62.067,33.094 67.236,34.449 64.984,39.21 
		70.31,39.647 68.918,44.728 74.238,44.234 73.75,49.479 78.904,48.068 79.335,53.318 84.166,51.033 85.5,56.129 89.861,53.041 
		92.061,57.828 95.381,54.226 98,58.358 98,-19.39 	"/>
	<polygon fill="#FFD412" points="105.234,57.768 107.45,52.949 111.78,56.014 113.125,50.883 117.922,53.15 118.355,47.864 
		123.472,49.264 122.981,43.983 128.264,44.473 126.862,39.356 132.15,38.922 129.883,34.127 135.015,32.78 131.949,28.453 
		136.769,26.236 133.07,22.577 137.359,19.692 132.902,16.697 136.805,12.938 131.895,10.763 135.085,6.384 129.873,5.094 
		132.254,0.227 126.897,-0.138 128.397,-5.344 123.058,-4.774 123.631,-10.161 118.473,-8.672 118.102,-14.077 113.279,-11.715 
		111.975,-16.973 107.637,-13.81 105.439,-18.762 101.404,-14.822 98,-19.39 98,58.358 101.262,53.997 	"/>
</g>
<g>
	<polygon fill="#938D80" points="164,158 204.15,215.396 233.343,185.499 	"/>
	<polygon fill="#ACA190" points="33.875,371 721,371 407,24 	"/>
	<polygon fill="#ACA190" points="0,371 313,371 164,158 	"/>
	<polygon fill="#737356" points="800,371 642,136 394,371 	"/>
	<polygon fill="#938D80" points="407,24 426,241.238 351,203.045 313,256.104 283,253.714 237,372 800,372 642,136.5 
		570.047,204.307 	"/>
	<polygon fill="#ACA190" points="570.047,204.307 642,136.5 531,161.126 	"/>
	<polygon fill="#F1F0F1" points="407,24 336.143,89.896 367,84.667 377.438,64.667 381.667,89.896 371.571,103.333 385.667,98 
		394,112 400,91.333 413.425,97.463 411.134,71.264 	"/>
	<polygon fill="#E4E5E5" points="411.134,71.264 413.425,97.463 420,80 428,101.5 424.5,112 431,105.5 437,108 428.5,75 433.5,63 
		440.5,77 442.5,68 457.5,79 407,24 	"/>
	<polygon fill="#F1F0F1" points="163.75,157.847 131.235,200.315 150.438,186.659 152.469,200.22 147.68,204 158,204 156.5,186.698 
		164,178 169,190 172,183.5 183,193 177.5,183 184.075,186.698 	"/>
	<polygon fill="#E4E5E5" points="183.95,186.523 177.438,171.913 193.219,183.282 196.5,179 193,179 181.75,169.75 198.671,171.749 
		163.75,157.847 	"/>
	<polygon fill="#F1F0F1" points="642,136.5 598.792,145.907 612.917,146 610.333,152.25 625,149.667 616.951,160.105 	"/>
	<polygon fill="#E4E5E5" points="616.951,160.021 632,150.75 634,155.583 644.583,150.583 649.167,152.75 649.715,147.413 
		642.021,136 	"/>
</g>
<rect y="404" fill="#009145" width="800" height="196"/>
<g>
	<polygon fill="#464541" points="0,370.5 0,452 168,452 220.194,436.75 278,429.625 322,409.984 417.26,418 439.699,418 
		483.613,409.922 526.098,421.711 623.903,429.605 659.405,430.542 721,424.519 746,436.806 800,424.5 800,371.5 	"/>
	<polygon opacity="0.28" fill="#FFFFFF" points="0,370.5 0,452 168,452 220.194,436.75 278,429.625 322,409.984 417.26,418 
		439.699,418 483.613,409.922 526.098,421.711 623.903,429.605 659.405,430.542 721,424.519 746,436.806 800,424.5 800,371.5 	"/>
	<g>
		<rect x="424" y="400" fill="#464541" width="9" height="14"/>
		<polygon fill="#B8BF57" points="437.683,362 444.305,362 428.702,336.409 413.1,362 419.722,362 406.653,400 428.647,400 
			450.75,400 		"/>
		<polygon fill="#D3D55A" points="428.702,336.674 413.1,362 419.722,362 406.653,400 428.647,400 		"/>
		<polygon fill="#B8BF57" points="428.702,336.674 444.305,362 437.683,362 450.75,400 428.647,400 		"/>
		<polygon opacity="0.1" fill="#464541" points="406.653,400 437.683,362.531 450.75,400 		"/>
	</g>
	<g>
		<rect x="536" y="381" fill="#464541" width="9" height="14"/>
		<polygon fill="#B8BF57" points="549.683,343 556.305,343 540.702,317.409 525.1,343 531.722,343 518.653,381 540.647,381 
			562.75,381 		"/>
		<polygon fill="#D3D55A" points="540.702,317.674 525.1,343 531.722,343 518.653,381 540.647,381 		"/>
		<polygon fill="#B8BF57" points="540.702,317.674 556.305,343 549.683,343 562.75,381 540.647,381 		"/>
		<polygon opacity="0.1" fill="#464541" points="518.653,381 549.683,343.531 562.75,381 		"/>
	</g>
	<g>
		<rect x="651" y="395" fill="#464541" width="9" height="14"/>
		<polygon fill="#B8BF57" points="664.683,357 671.305,357 655.702,331.409 640.1,357 646.722,357 633.653,395 655.647,395 
			677.75,395 		"/>
		<polygon fill="#D3D55A" points="655.702,331.674 640.1,357 646.722,357 633.653,395 655.647,395 		"/>
		<polygon fill="#B8BF57" points="655.702,331.674 671.305,357 664.683,357 677.75,395 655.647,395 		"/>
		<polygon opacity="0.1" fill="#464541" points="633.653,395 664.683,357.531 677.75,395 		"/>
	</g>
	<g>
		<rect x="63" y="433" fill="#464541" width="9" height="14"/>
		<polygon fill="#B8BF57" points="76.264,395 82.886,395 67.284,369.409 51.68,395 58.303,395 45.235,433 67.229,433 89.331,433 		
			"/>
		<polygon fill="#B8BF57" points="67.284,369.674 51.68,395 58.303,395 45.235,433 67.229,433 		"/>
		<polygon fill="#868C4F" points="67.284,369.674 82.886,395 76.264,395 89.331,433 67.229,433 		"/>
		<polygon opacity="0.1" fill="#464541" points="45.235,433 76.264,395.531 89.331,433 		"/>
	</g>
	<g>
		<rect x="168" y="396" fill="#464541" width="9" height="14"/>
		<polygon fill="#B8BF57" points="181.264,358 187.886,358 172.284,332.409 156.68,358 163.303,358 150.235,396 172.229,396 
			194.331,396 		"/>
		<polygon fill="#B8BF57" points="172.284,332.674 156.68,358 163.303,358 150.235,396 172.229,396 		"/>
		<polygon fill="#868C4F" points="172.284,332.674 187.886,358 181.264,358 194.331,396 172.229,396 		"/>
		<polygon opacity="0.1" fill="#464541" points="150.235,396 181.264,358.531 194.331,396 		"/>
	</g>
	<g>
		<rect x="384" y="393" fill="#464541" width="9" height="14"/>
		<polygon fill="#B8BF57" points="397.264,355 403.886,355 388.284,329.409 372.68,355 379.303,355 366.235,393 388.229,393 
			410.331,393 		"/>
		<polygon fill="#B8BF57" points="388.284,329.674 372.68,355 379.303,355 366.235,393 388.229,393 		"/>
		<polygon fill="#868C4F" points="388.284,329.674 403.886,355 397.264,355 410.331,393 388.229,393 		"/>
		<polygon opacity="0.1" fill="#464541" points="366.235,393 397.264,355.531 410.331,393 		"/>
	</g>
	<g>
		<polygon fill="#B8BF57" points="198,351.196 176.153,414 198,414 		"/>
		<polygon fill="#868C4F" points="198,351.342 220.194,414 198,414 		"/>
		<rect x="194" y="414" fill="#464541" width="9" height="14"/>
		<polygon opacity="0.1" fill="#464541" points="176.153,414 206.641,375.14 220.194,414 		"/>
	</g>
	<g>
		<polygon fill="#B8BF57" points="515,337.196 493.152,400 515,400 		"/>
		<polygon fill="#868C4F" points="515,337.342 537.194,400 515,400 		"/>
		<rect x="511" y="400" fill="#464541" width="9" height="14"/>
		<polygon opacity="0.1" fill="#464541" points="493.152,400 523.641,361.14 537.194,400 		"/>
	</g>
	<g>
		<polygon fill="#B8BF57" points="759,329.196 737.152,392 759,392 		"/>
		<polygon fill="#868C4F" points="759,329.342 781.194,392 759,392 		"/>
		<rect x="755" y="392" fill="#464541" width="9" height="14"/>
		<polygon opacity="0.1" fill="#464541" points="737.152,392 767.641,353.14 781.194,392 		"/>
	</g>
	<g>
		<polygon fill="#B8BF57" points="34,327.196 12.153,390 34,390 		"/>
		<polygon fill="#868C4F" points="34,327.342 56.194,390 34,390 		"/>
		<rect x="30" y="390" fill="#464541" width="9" height="14"/>
		<polygon opacity="0.1" fill="#464541" points="12.153,390 42.641,351.14 56.194,390 		"/>
	</g>
	<g>
		<polygon fill="#D3D55A" points="138,330.202 115.572,393 138,393 		"/>
		<polygon fill="#B8BF57" points="138,330.202 159.613,393 138,393 		"/>
		<rect x="133" y="393" fill="#464541" width="9" height="14"/>
		<polygon opacity="0.1" fill="#464541" points="115.572,393 146.06,354.14 159.613,393 		"/>
	</g>
	<g>
		<polygon fill="#D3D55A" points="306,331.202 283.572,394 306,394 		"/>
		<polygon fill="#B8BF57" points="306,331.202 327.613,394 306,394 		"/>
		<rect x="301" y="394" fill="#464541" width="9" height="14"/>
		<polygon opacity="0.1" fill="#464541" points="283.572,394 314.06,355.14 327.613,394 		"/>
	</g>
	<g>
		<polygon fill="#D3D55A" points="462,319.202 439.572,382 462,382 		"/>
		<polygon fill="#B8BF57" points="462,319.202 483.613,382 462,382 		"/>
		<rect x="457" y="382" fill="#464541" width="9" height="14"/>
		<polygon opacity="0.1" fill="#464541" points="439.572,382 470.06,343.14 483.613,382 		"/>
	</g>
	<g>
		<polygon fill="#D3D55A" points="587,324.202 564.572,387 587,387 		"/>
		<polygon fill="#B8BF57" points="587,324.202 608.613,387 587,387 		"/>
		<rect x="582" y="387" fill="#464541" width="9" height="14"/>
		<polygon opacity="0.1" fill="#464541" points="564.572,387 595.06,348.14 608.613,387 		"/>
	</g>
	<g>
		<polygon fill="#D3D55A" points="711,329.202 688.572,392 711,392 		"/>
		<polygon fill="#B8BF57" points="711,329.202 732.613,392 711,392 		"/>
		<rect x="706" y="392" fill="#464541" width="9" height="14"/>
		<polygon opacity="0.1" fill="#464541" points="688.572,392 719.06,353.14 732.613,392 		"/>
	</g>
	<g>
		<g>
			<rect x="782" y="397" fill="#464541" width="10" height="24"/>
			<g>
				<path fill="#D3D55A" d="M788,401.83c-10,0-18.098-10.228-18.098-22.845c0-12.616,8.098-22.844,18.098-22.844V401.83z"/>
				<path fill="#B8BF57" d="M787,401.83c10,0,18.098-10.228,18.098-22.845c0-12.616-8.098-22.844-18.098-22.844V401.83z"/>
			</g>
		</g>
		<g opacity="0.1">
			<path fill="#464541" d="M787,401.814v0.016c0,0,0.393-0.003,0.5-0.005c0.105,0.002,0.5,0.005,0.5,0.005v-0.016
				c9-0.426,17.316-10.483,17.316-22.829c0-2.629-0.428-5.153-1.078-7.505l-34.561,9.397C770.428,392.344,778,401.41,787,401.814z"
				/>
		</g>
	</g>
	<g>
		<g>
			<rect x="18" y="417" fill="#464541" width="10" height="24"/>
			<g>
				<path fill="#D3D55A" d="M24,421.83c-10,0-18.098-10.228-18.098-22.845c0-12.616,8.098-22.844,18.098-22.844V421.83z"/>
				<path fill="#B8BF57" d="M23,421.83c10,0,18.098-10.228,18.098-22.845c0-12.616-8.098-22.844-18.098-22.844V421.83z"/>
			</g>
		</g>
		<g opacity="0.1">
			<path fill="#464541" d="M23,421.814v0.016c0,0,0.393-0.003,0.5-0.005c0.105,0.002,0.5,0.005,0.5,0.005v-0.016
				c9-0.426,17.316-10.483,17.316-22.829c0-2.629-0.428-5.153-1.078-7.505l-34.561,9.397C6.428,412.344,14,421.41,23,421.814z"/>
		</g>
	</g>
	<g>
		<g>
			<rect x="222" y="396" fill="#464541" width="10" height="24"/>
			<g>
				<path fill="#D3D55A" d="M228,400.83c-10,0-18.098-10.228-18.098-22.845c0-12.616,8.098-22.844,18.098-22.844V400.83z"/>
				<path fill="#B8BF57" d="M227,400.83c10,0,18.098-10.228,18.098-22.845c0-12.616-8.098-22.844-18.098-22.844V400.83z"/>
			</g>
		</g>
		<g opacity="0.1">
			<path fill="#464541" d="M227,400.814v0.016c0,0,0.393-0.003,0.5-0.005c0.105,0.002,0.5,0.005,0.5,0.005v-0.016
				c9-0.426,17.316-10.483,17.316-22.829c0-2.629-0.428-5.153-1.078-7.505l-34.561,9.397C210.428,391.344,218,400.41,227,400.814z"
				/>
		</g>
	</g>
	<g>
		<g>
			<rect x="478" y="382" fill="#464541" width="10" height="24"/>
			<g>
				<path fill="#D3D55A" d="M484,386.83c-10,0-18.098-10.228-18.098-22.845c0-12.616,8.098-22.844,18.098-22.844V386.83z"/>
				<path fill="#B8BF57" d="M483,386.83c10,0,18.098-10.228,18.098-22.845c0-12.616-8.098-22.844-18.098-22.844V386.83z"/>
			</g>
		</g>
		<g opacity="0.1">
			<path fill="#464541" d="M483,386.814v0.016c0,0,0.393-0.003,0.5-0.005c0.105,0.002,0.5,0.005,0.5,0.005v-0.016
				c9-0.426,17.316-10.483,17.316-22.829c0-2.629-0.428-5.153-1.078-7.505l-34.561,9.397C466.428,377.344,474,386.41,483,386.814z"
				/>
		</g>
	</g>
	<g>
		<g>
			<rect x="557" y="393" fill="#464541" width="10" height="24"/>
			<g>
				<path fill="#D3D55A" d="M563,397.83c-10,0-18.098-10.228-18.098-22.845c0-12.616,8.098-22.844,18.098-22.844V397.83z"/>
				<path fill="#B8BF57" d="M562,397.83c10,0,18.098-10.228,18.098-22.845c0-12.616-8.098-22.844-18.098-22.844V397.83z"/>
			</g>
		</g>
		<g opacity="0.1">
			<path fill="#464541" d="M562,397.814v0.016c0,0,0.393-0.003,0.5-0.005c0.105,0.002,0.5,0.005,0.5,0.005v-0.016
				c9-0.426,17.316-10.483,17.316-22.829c0-2.629-0.428-5.153-1.078-7.505l-34.561,9.397C545.428,388.344,553,397.41,562,397.814z"
				/>
		</g>
	</g>
	<g>
		<g>
			<rect x="84" y="375" fill="#464541" width="10" height="24"/>
			<g>
				<path fill="#B8BF57" d="M90,379.83c-10,0-18.097-10.228-18.097-22.845c0-12.616,8.097-22.844,18.097-22.844V379.83z"/>
				<path fill="#868C4F" d="M89,379.83c10,0,18.096-10.228,18.096-22.845c0-12.616-8.096-22.844-18.096-22.844V379.83z"/>
			</g>
		</g>
		<g opacity="0.1">
			<path fill="#464541" d="M89,379.814v0.016c0,0,0.394-0.003,0.5-0.005c0.105,0.002,0.5,0.005,0.5,0.005v-0.016
				c10-0.426,17.405-10.483,17.405-22.829c0-2.629-0.382-5.153-1.032-7.505l-34.63,9.397C72.493,370.344,80,379.41,89,379.814z"/>
		</g>
	</g>
	<g>
		<g>
			<rect x="158" y="422" fill="#464541" width="10" height="24"/>
			<g>
				<path fill="#B8BF57" d="M164,426.83c-10,0-18.097-10.228-18.097-22.845c0-12.616,8.097-22.844,18.097-22.844V426.83z"/>
				<path fill="#868C4F" d="M163,426.83c10,0,18.096-10.228,18.096-22.845c0-12.616-8.096-22.844-18.096-22.844V426.83z"/>
			</g>
		</g>
		<g opacity="0.1">
			<path fill="#464541" d="M163,426.814v0.016c0,0,0.394-0.003,0.5-0.005c0.105,0.002,0.5,0.005,0.5,0.005v-0.016
				c10-0.426,17.405-10.483,17.405-22.829c0-2.629-0.382-5.153-1.032-7.505l-34.63,9.397C146.493,417.344,154,426.41,163,426.814z"
				/>
		</g>
	</g>
	<g>
		<g>
			<rect x="260" y="403" fill="#464541" width="10" height="24"/>
			<g>
				<path fill="#B8BF57" d="M266,407.83c-10,0-18.097-10.228-18.097-22.845c0-12.616,8.097-22.844,18.097-22.844V407.83z"/>
				<path fill="#868C4F" d="M265,407.83c10,0,18.096-10.228,18.096-22.845c0-12.616-8.096-22.844-18.096-22.844V407.83z"/>
			</g>
		</g>
		<g opacity="0.1">
			<path fill="#464541" d="M265,407.814v0.016c0,0,0.394-0.003,0.5-0.005c0.105,0.002,0.5,0.005,0.5,0.005v-0.016
				c10-0.426,17.405-10.483,17.405-22.829c0-2.629-0.382-5.153-1.032-7.505l-34.63,9.397C248.493,398.344,256,407.41,265,407.814z"
				/>
		</g>
	</g>
	<g>
		<g>
			<rect x="342" y="379" fill="#464541" width="10" height="24"/>
			<g>
				<path fill="#B8BF57" d="M348,383.83c-10,0-18.097-10.228-18.097-22.845c0-12.616,8.097-22.844,18.097-22.844V383.83z"/>
				<path fill="#868C4F" d="M347,383.83c10,0,18.096-10.228,18.096-22.845c0-12.616-8.096-22.844-18.096-22.844V383.83z"/>
			</g>
		</g>
		<g opacity="0.1">
			<path fill="#464541" d="M347,383.814v0.016c0,0,0.394-0.003,0.5-0.005c0.105,0.002,0.5,0.005,0.5,0.005v-0.016
				c10-0.426,17.405-10.483,17.405-22.829c0-2.629-0.382-5.153-1.032-7.505l-34.63,9.397C330.493,374.344,338,383.41,347,383.814z"
				/>
		</g>
	</g>
	<g>
		<g>
			<rect x="636" y="403" fill="#464541" width="10" height="24"/>
			<g>
				<path fill="#B8BF57" d="M642,407.83c-10,0-18.097-10.228-18.097-22.845c0-12.616,8.097-22.844,18.097-22.844V407.83z"/>
				<path fill="#868C4F" d="M641,407.83c10,0,18.096-10.228,18.096-22.845c0-12.616-8.096-22.844-18.096-22.844V407.83z"/>
			</g>
		</g>
		<g opacity="0.1">
			<path fill="#464541" d="M641,407.814v0.016c0,0,0.394-0.003,0.5-0.005c0.105,0.002,0.5,0.005,0.5,0.005v-0.016
				c10-0.426,17.405-10.483,17.405-22.829c0-2.629-0.382-5.153-1.032-7.505l-34.63,9.397C624.493,398.344,632,407.41,641,407.814z"
				/>
		</g>
	</g>
	<g>
		<rect x="602" y="407" fill="#464541" width="9" height="14"/>
		<polygon fill="#B8BF57" points="615.264,369 621.886,369 606.284,343.409 590.68,369 597.303,369 584.235,407 606.229,407 
			628.331,407 		"/>
		<polygon fill="#B8BF57" points="606.284,343.674 590.68,369 597.303,369 584.235,407 606.229,407 		"/>
		<polygon fill="#868C4F" points="606.284,343.674 621.886,369 615.264,369 628.331,407 606.229,407 		"/>
		<polygon opacity="0.1" fill="#464541" points="584.235,407 615.264,369.531 628.331,407 		"/>
	</g>
	<g>
		<rect x="673" y="411" fill="#464541" width="9" height="14"/>
		<polygon fill="#B8BF57" points="686.264,373 692.886,373 677.284,347.409 661.68,373 668.303,373 655.235,411 677.229,411 
			699.331,411 		"/>
		<polygon fill="#B8BF57" points="677.284,347.674 661.68,373 668.303,373 655.235,411 677.229,411 		"/>
		<polygon fill="#868C4F" points="677.284,347.674 692.886,373 686.264,373 699.331,411 677.229,411 		"/>
		<polygon opacity="0.1" fill="#464541" points="655.235,411 686.264,373.531 699.331,411 		"/>
	</g>
	<g>
		<rect x="728" y="413" fill="#464541" width="9" height="14"/>
		<polygon fill="#B8BF57" points="741.264,375 747.886,375 732.284,349.409 716.68,375 723.303,375 710.235,413 732.229,413 
			754.331,413 		"/>
		<polygon fill="#B8BF57" points="732.284,349.674 716.68,375 723.303,375 710.235,413 732.229,413 		"/>
		<polygon fill="#868C4F" points="732.284,349.674 747.886,375 741.264,375 754.331,413 732.229,413 		"/>
		<polygon opacity="0.1" fill="#464541" points="710.235,413 741.264,375.531 754.331,413 		"/>
	</g>
	<g>
		<g>
			<rect x="108" y="415" fill="#464541" width="10" height="24"/>
			<g>
				<path fill="#D3D55A" d="M114,419.83c-10,0-18.098-10.228-18.098-22.845c0-12.616,8.098-22.844,18.098-22.844V419.83z"/>
				<path fill="#B8BF57" d="M113,419.83c10,0,18.098-10.228,18.098-22.845c0-12.616-8.098-22.844-18.098-22.844V419.83z"/>
			</g>
		</g>
		<g opacity="0.1">
			<path fill="#464541" d="M113,419.814v0.016c0,0,0.393-0.003,0.5-0.005c0.105,0.002,0.5,0.005,0.5,0.005v-0.016
				c9-0.426,17.316-10.483,17.316-22.829c0-2.629-0.428-5.153-1.078-7.505l-34.561,9.397C96.428,410.344,104,419.41,113,419.814z"/>
		</g>
	</g>
</g>
<g>
	
		<radialGradient id="SVGID_1_" cx="568.2373" cy="431.501" r="18.6678" gradientTransform="matrix(1.2445 -0.0115 0.0063 0.4372 -220.7024 249.3722)" gradientUnits="userSpaceOnUse">
		<stop  offset="0" style="stop-color:#000100;stop-opacity:0.4"/>
		<stop  offset="1" style="stop-color:#000100;stop-opacity:0"/>
	</radialGradient>
	<ellipse fill="url(#SVGID_1_)" cx="488.562" cy="431.709" rx="24.062" ry="8.292"/>
	<g>
		<path fill="#E5E6E5" d="M503,430.172c0,0-7.001,4.696-15,4.696s-14-4.696-14-4.696V414h29V430.172z"/>
		<path fill="#464541" d="M505,414c0,0-8.053,5.868-17.062,5.868C478.926,419.868,472,414,472,414l16-20L505,414z"/>
		<g opacity="0.1">
			<path fill="#464541" d="M487.938,419.868c-6.11,0-11.254-2.695-13.938-4.433v1c2.684,1.737,7.827,4.433,13.938,4.433
				c6.303,0,12.125-2.866,15.062-4.593v-1C500.062,417.002,494.24,419.868,487.938,419.868z"/>
		</g>
		<path fill="#333333" d="M488,426c-1.657,0-3,1.343-3,3v5.649c0.961,0.137,1.963,0.219,3,0.219c1.021,0,2.024-0.078,3-0.212V429
			C491,427.343,489.657,426,488,426z"/>
		<path opacity="0.15" fill="#000100" d="M486.993,395.26l6.373,23.951C499.875,417.688,505,414,505,414l-17-20L486.993,395.26z"/>
		<g>
			<path fill="#BCCBD4" d="M494,424.418v2c0,0,1.079-0.167,2.856-0.573l-0.062-1.985C495.056,424.255,494,424.418,494,424.418z"/>
			<path fill="#BCCBD4" d="M500,424.563v-2c0,0-0.714,0.68-2.794,1.195l0.065,1.982C499.3,425.229,500,424.563,500,424.563z"/>
			<path fill="#BCCBD4" d="M494,421.917v2c0,0,1.525-0.203,2.778-0.603l-0.061-1.981C495.477,421.72,494,421.917,494,421.917z"/>
			<path fill="#BCCBD4" d="M500,422.062v-2c0,0-0.902,0.476-2.879,1.14l0.065,1.978C499.116,422.527,500,422.062,500,422.062z"/>
		</g>
		<g>
			<path fill="#BCCBD4" d="M483,424.418v2c0,0-1.079-0.167-2.856-0.573l0.062-1.985C481.944,424.255,483,424.418,483,424.418z"/>
			<path fill="#BCCBD4" d="M477,424.563v-2c0,0,0.714,0.68,2.794,1.195l-0.065,1.982C477.7,425.229,477,424.563,477,424.563z"/>
			<path fill="#BCCBD4" d="M483,421.917v2c0,0-1.525-0.203-2.778-0.603l0.061-1.981C481.523,421.72,483,421.917,483,421.917z"/>
			<path fill="#BCCBD4" d="M477,422.062v-2c0,0,0.902,0.476,2.879,1.14l-0.065,1.978C477.884,422.527,477,422.062,477,422.062z"/>
		</g>
	</g>
</g>
<g>
	
		<radialGradient id="SVGID_2_" cx="532.8848" cy="431.501" r="18.6678" gradientTransform="matrix(1.2445 -0.0115 0.0063 0.4372 -220.7054 248.9651)" gradientUnits="userSpaceOnUse">
		<stop  offset="0" style="stop-color:#000100;stop-opacity:0.4"/>
		<stop  offset="1" style="stop-color:#000100;stop-opacity:0"/>
	</radialGradient>
	<ellipse fill="url(#SVGID_2_)" cx="444.562" cy="431.709" rx="24.062" ry="8.292"/>
	<g>
		<path fill="#E5E6E5" d="M459,430.172c0,0-7.001,4.696-15,4.696s-14-4.696-14-4.696V414h29V430.172z"/>
		<path fill="#464541" d="M461,414c0,0-8.053,5.868-17.062,5.868C434.926,419.868,428,414,428,414l16-20L461,414z"/>
		<g opacity="0.1">
			<path fill="#464541" d="M443.938,419.868c-6.11,0-11.254-2.695-13.938-4.433v1c2.684,1.737,7.827,4.433,13.938,4.433
				c6.303,0,12.125-2.866,15.062-4.593v-1C456.062,417.002,450.24,419.868,443.938,419.868z"/>
		</g>
		<path fill="#333333" d="M444,426c-1.657,0-3,1.343-3,3v5.649c0.961,0.137,1.963,0.219,3,0.219c1.021,0,2.024-0.078,3-0.212V429
			C447,427.343,445.657,426,444,426z"/>
		<path opacity="0.15" fill="#000100" d="M442.993,395.26l6.373,23.951C455.875,417.688,461,414,461,414l-17-20L442.993,395.26z"/>
		<g>
			<path fill="#BCCBD4" d="M450,424.418v2c0,0,1.079-0.167,2.856-0.573l-0.062-1.985C451.056,424.255,450,424.418,450,424.418z"/>
			<path fill="#BCCBD4" d="M456,424.563v-2c0,0-0.714,0.68-2.794,1.195l0.065,1.982C455.3,425.229,456,424.563,456,424.563z"/>
			<path fill="#BCCBD4" d="M450,421.917v2c0,0,1.525-0.203,2.778-0.603l-0.061-1.981C451.477,421.72,450,421.917,450,421.917z"/>
			<path fill="#BCCBD4" d="M456,422.062v-2c0,0-0.902,0.476-2.879,1.14l0.065,1.978C455.116,422.527,456,422.062,456,422.062z"/>
		</g>
		<g>
			<path fill="#BCCBD4" d="M439,424.418v2c0,0-1.079-0.167-2.856-0.573l0.062-1.985C437.944,424.255,439,424.418,439,424.418z"/>
			<path fill="#BCCBD4" d="M433,424.563v-2c0,0,0.714,0.68,2.794,1.195l-0.065,1.982C433.7,425.229,433,424.563,433,424.563z"/>
			<path fill="#BCCBD4" d="M439,421.917v2c0,0-1.525-0.203-2.778-0.603l0.061-1.981C437.523,421.72,439,421.917,439,421.917z"/>
			<path fill="#BCCBD4" d="M433,422.062v-2c0,0,0.902,0.476,2.879,1.14l-0.065,1.978C433.884,422.527,433,422.062,433,422.062z"/>
		</g>
	</g>
</g>
<g>
	
		<radialGradient id="SVGID_3_" cx="605.1963" cy="434.501" r="18.6678" gradientTransform="matrix(1.2445 -0.0115 0.0063 0.4372 -220.7181 251.4861)" gradientUnits="userSpaceOnUse">
		<stop  offset="0" style="stop-color:#000100;stop-opacity:0.4"/>
		<stop  offset="1" style="stop-color:#000100;stop-opacity:0"/>
	</radialGradient>
	<ellipse fill="url(#SVGID_3_)" cx="534.562" cy="434.709" rx="24.062" ry="8.292"/>
	<g>
		<path fill="#E5E6E5" d="M549,433.172c0,0-7.001,4.696-15,4.696s-14-4.696-14-4.696V417h29V433.172z"/>
		<path fill="#464541" d="M551,417c0,0-8.053,5.868-17.062,5.868C524.926,422.868,518,417,518,417l16-20L551,417z"/>
		<g opacity="0.1">
			<path fill="#464541" d="M533.938,422.868c-6.11,0-11.254-2.695-13.938-4.433v1c2.684,1.737,7.827,4.433,13.938,4.433
				c6.303,0,12.125-2.866,15.062-4.593v-1C546.062,420.002,540.24,422.868,533.938,422.868z"/>
		</g>
		<path fill="#333333" d="M534,429c-1.657,0-3,1.343-3,3v5.649c0.961,0.137,1.963,0.219,3,0.219c1.021,0,2.024-0.078,3-0.212V432
			C537,430.343,535.657,429,534,429z"/>
		<path opacity="0.15" fill="#000100" d="M532.993,398.26l6.373,23.951C545.875,420.688,551,417,551,417l-17-20L532.993,398.26z"/>
		<g>
			<path fill="#BCCBD4" d="M540,427.418v2c0,0,1.079-0.167,2.856-0.573l-0.062-1.985C541.056,427.255,540,427.418,540,427.418z"/>
			<path fill="#BCCBD4" d="M546,427.563v-2c0,0-0.714,0.68-2.794,1.195l0.065,1.982C545.3,428.229,546,427.563,546,427.563z"/>
			<path fill="#BCCBD4" d="M540,424.917v2c0,0,1.525-0.203,2.778-0.603l-0.061-1.981C541.477,424.72,540,424.917,540,424.917z"/>
			<path fill="#BCCBD4" d="M546,425.062v-2c0,0-0.902,0.476-2.879,1.14l0.065,1.978C545.116,425.527,546,425.062,546,425.062z"/>
		</g>
		<g>
			<path fill="#BCCBD4" d="M529,427.418v2c0,0-1.079-0.167-2.856-0.573l0.062-1.985C527.944,427.255,529,427.418,529,427.418z"/>
			<path fill="#BCCBD4" d="M523,427.563v-2c0,0,0.714,0.68,2.794,1.195l-0.065,1.982C523.7,428.229,523,427.563,523,427.563z"/>
			<path fill="#BCCBD4" d="M529,424.917v2c0,0-1.525-0.203-2.778-0.603l0.061-1.981C527.523,424.72,529,424.917,529,424.917z"/>
			<path fill="#BCCBD4" d="M523,425.062v-2c0,0,0.902,0.476,2.879,1.14l-0.065,1.978C523.884,425.527,523,425.062,523,425.062z"/>
		</g>
	</g>
</g>
<g>
	
		<radialGradient id="SVGID_4_" cx="639.7471" cy="437.501" r="18.667" gradientTransform="matrix(1.2445 -0.0115 0.0063 0.4372 -220.7341 253.5723)" gradientUnits="userSpaceOnUse">
		<stop  offset="0" style="stop-color:#000100;stop-opacity:0.4"/>
		<stop  offset="1" style="stop-color:#000100;stop-opacity:0"/>
	</radialGradient>
	<ellipse fill="url(#SVGID_4_)" cx="577.562" cy="437.709" rx="24.062" ry="8.292"/>
	<g>
		<path fill="#E5E6E5" d="M592,436.172c0,0-7.001,4.696-15,4.696s-14-4.696-14-4.696V420h29V436.172z"/>
		<path fill="#464541" d="M594,420c0,0-8.053,5.868-17.062,5.868C567.926,425.868,561,420,561,420l16-20L594,420z"/>
		<g opacity="0.1">
			<path fill="#464541" d="M576.938,425.868c-6.11,0-11.254-2.695-13.938-4.433v1c2.684,1.737,7.827,4.433,13.938,4.433
				c6.303,0,12.125-2.866,15.062-4.593v-1C589.062,423.002,583.24,425.868,576.938,425.868z"/>
		</g>
		<path fill="#333333" d="M577,432c-1.657,0-3,1.343-3,3v5.649c0.961,0.137,1.963,0.219,3,0.219c1.021,0,2.024-0.078,3-0.212V435
			C580,433.343,578.657,432,577,432z"/>
		<path opacity="0.15" fill="#000100" d="M575.993,401.26l6.373,23.951C588.875,423.688,594,420,594,420l-17-20L575.993,401.26z"/>
		<g>
			<path fill="#BCCBD4" d="M583,430.418v2c0,0,1.079-0.167,2.856-0.573l-0.062-1.985C584.056,430.255,583,430.418,583,430.418z"/>
			<path fill="#BCCBD4" d="M589,430.563v-2c0,0-0.714,0.68-2.794,1.195l0.065,1.982C588.3,431.229,589,430.563,589,430.563z"/>
			<path fill="#BCCBD4" d="M583,427.917v2c0,0,1.525-0.203,2.778-0.603l-0.061-1.981C584.477,427.72,583,427.917,583,427.917z"/>
			<path fill="#BCCBD4" d="M589,428.062v-2c0,0-0.902,0.476-2.879,1.14l0.065,1.978C588.116,428.527,589,428.062,589,428.062z"/>
		</g>
		<g>
			<path fill="#BCCBD4" d="M572,430.418v2c0,0-1.079-0.167-2.856-0.573l0.062-1.985C570.944,430.255,572,430.418,572,430.418z"/>
			<path fill="#BCCBD4" d="M566,430.563v-2c0,0,0.714,0.68,2.794,1.195l-0.065,1.982C566.7,431.229,566,430.563,566,430.563z"/>
			<path fill="#BCCBD4" d="M572,427.917v2c0,0-1.525-0.203-2.778-0.603l0.061-1.981C570.523,427.72,572,427.917,572,427.917z"/>
			<path fill="#BCCBD4" d="M566,428.062v-2c0,0,0.902,0.476,2.879,1.14l-0.065,1.978C566.884,428.527,566,428.062,566,428.062z"/>
		</g>
	</g>
</g>
<g>
	
		<radialGradient id="SVGID_5_" cx="671.8857" cy="439.501" r="18.667" gradientTransform="matrix(1.2445 -0.0115 0.0063 0.4372 -220.744 255.0679)" gradientUnits="userSpaceOnUse">
		<stop  offset="0" style="stop-color:#000100;stop-opacity:0.4"/>
		<stop  offset="1" style="stop-color:#000100;stop-opacity:0"/>
	</radialGradient>
	<ellipse fill="url(#SVGID_5_)" cx="617.562" cy="439.709" rx="24.062" ry="8.292"/>
	<g>
		<path fill="#E5E6E5" d="M632,438.172c0,0-7.001,4.696-15,4.696s-14-4.696-14-4.696V422h29V438.172z"/>
		<path fill="#464541" d="M634,422c0,0-8.053,5.868-17.062,5.868C607.926,427.868,601,422,601,422l16-20L634,422z"/>
		<g opacity="0.1">
			<path fill="#464541" d="M616.938,427.868c-6.11,0-11.254-2.695-13.938-4.433v1c2.684,1.737,7.827,4.433,13.938,4.433
				c6.303,0,12.125-2.866,15.062-4.593v-1C629.062,425.002,623.24,427.868,616.938,427.868z"/>
		</g>
		<path fill="#333333" d="M617,434c-1.657,0-3,1.343-3,3v5.649c0.961,0.137,1.963,0.219,3,0.219c1.021,0,2.024-0.078,3-0.212V437
			C620,435.343,618.657,434,617,434z"/>
		<path opacity="0.15" fill="#000100" d="M615.993,403.26l6.373,23.951C628.875,425.688,634,422,634,422l-17-20L615.993,403.26z"/>
		<g>
			<path fill="#BCCBD4" d="M623,432.418v2c0,0,1.079-0.167,2.856-0.573l-0.062-1.985C624.056,432.255,623,432.418,623,432.418z"/>
			<path fill="#BCCBD4" d="M629,432.563v-2c0,0-0.714,0.68-2.794,1.195l0.065,1.982C628.3,433.229,629,432.563,629,432.563z"/>
			<path fill="#BCCBD4" d="M623,429.917v2c0,0,1.525-0.203,2.778-0.603l-0.061-1.981C624.477,429.72,623,429.917,623,429.917z"/>
			<path fill="#BCCBD4" d="M629,430.062v-2c0,0-0.902,0.476-2.879,1.14l0.065,1.978C628.116,430.527,629,430.062,629,430.062z"/>
		</g>
		<g>
			<path fill="#BCCBD4" d="M612,432.418v2c0,0-1.079-0.167-2.856-0.573l0.062-1.985C610.944,432.255,612,432.418,612,432.418z"/>
			<path fill="#BCCBD4" d="M606,432.563v-2c0,0,0.714,0.68,2.794,1.195l-0.065,1.982C606.7,433.229,606,432.563,606,432.563z"/>
			<path fill="#BCCBD4" d="M612,429.917v2c0,0-1.525-0.203-2.778-0.603l0.061-1.981C610.523,429.72,612,429.917,612,429.917z"/>
			<path fill="#BCCBD4" d="M606,430.062v-2c0,0,0.902,0.476,2.879,1.14l-0.065,1.978C606.884,430.527,606,430.062,606,430.062z"/>
		</g>
	</g>
</g>
<g>
	
		<radialGradient id="SVGID_6_" cx="705.6318" cy="442.501" r="18.667" gradientTransform="matrix(1.2445 -0.0115 0.0063 0.4372 -220.76 257.1448)" gradientUnits="userSpaceOnUse">
		<stop  offset="0" style="stop-color:#000100;stop-opacity:0.4"/>
		<stop  offset="1" style="stop-color:#000100;stop-opacity:0"/>
	</radialGradient>
	<ellipse fill="url(#SVGID_6_)" cx="659.562" cy="442.709" rx="24.062" ry="8.292"/>
	<g>
		<path fill="#E5E6E5" d="M674,441.172c0,0-7.001,4.696-15,4.696s-14-4.696-14-4.696V425h29V441.172z"/>
		<path fill="#464541" d="M676,425c0,0-8.053,5.868-17.062,5.868C649.926,430.868,643,425,643,425l16-20L676,425z"/>
		<g opacity="0.1">
			<path fill="#464541" d="M658.938,430.868c-6.11,0-11.254-2.695-13.938-4.433v1c2.684,1.737,7.827,4.433,13.938,4.433
				c6.303,0,12.125-2.866,15.062-4.593v-1C671.062,428.002,665.24,430.868,658.938,430.868z"/>
		</g>
		<path fill="#333333" d="M659,437c-1.657,0-3,1.343-3,3v5.649c0.961,0.137,1.963,0.219,3,0.219c1.021,0,2.024-0.078,3-0.212V440
			C662,438.343,660.657,437,659,437z"/>
		<path opacity="0.15" fill="#000100" d="M657.993,406.26l6.373,23.951C670.875,428.688,676,425,676,425l-17-20L657.993,406.26z"/>
		<g>
			<path fill="#BCCBD4" d="M665,435.418v2c0,0,1.079-0.167,2.856-0.573l-0.062-1.985C666.056,435.255,665,435.418,665,435.418z"/>
			<path fill="#BCCBD4" d="M671,435.563v-2c0,0-0.714,0.68-2.794,1.195l0.065,1.982C670.3,436.229,671,435.563,671,435.563z"/>
			<path fill="#BCCBD4" d="M665,432.917v2c0,0,1.525-0.203,2.778-0.603l-0.061-1.981C666.477,432.72,665,432.917,665,432.917z"/>
			<path fill="#BCCBD4" d="M671,433.062v-2c0,0-0.902,0.476-2.879,1.14l0.065,1.978C670.116,433.527,671,433.062,671,433.062z"/>
		</g>
		<g>
			<path fill="#BCCBD4" d="M654,435.418v2c0,0-1.079-0.167-2.856-0.573l0.062-1.985C652.944,435.255,654,435.418,654,435.418z"/>
			<path fill="#BCCBD4" d="M648,435.563v-2c0,0,0.714,0.68,2.794,1.195l-0.065,1.982C648.7,436.229,648,435.563,648,435.563z"/>
			<path fill="#BCCBD4" d="M654,432.917v2c0,0-1.525-0.203-2.778-0.603l0.061-1.981C652.523,432.72,654,432.917,654,432.917z"/>
			<path fill="#BCCBD4" d="M648,433.062v-2c0,0,0.902,0.476,2.879,1.14l-0.065,1.978C648.884,433.527,648,433.062,648,433.062z"/>
		</g>
	</g>
</g>
<g>
	
		<radialGradient id="SVGID_7_" cx="679.9209" cy="466.501" r="18.667" gradientTransform="matrix(1.2445 -0.0115 0.0063 0.4372 -220.9125 270.3547)" gradientUnits="userSpaceOnUse">
		<stop  offset="0" style="stop-color:#000100;stop-opacity:0.4"/>
		<stop  offset="1" style="stop-color:#000100;stop-opacity:0"/>
	</radialGradient>
	<ellipse fill="url(#SVGID_7_)" cx="627.562" cy="466.709" rx="24.062" ry="8.292"/>
	<g>
		<path fill="#E5E6E5" d="M642,465.172c0,0-7.001,4.696-15,4.696s-14-4.696-14-4.696V449h29V465.172z"/>
		<path fill="#464541" d="M644,449c0,0-8.053,5.868-17.062,5.868C617.926,454.868,611,449,611,449l16-20L644,449z"/>
		<g opacity="0.1">
			<path fill="#464541" d="M626.938,454.868c-6.11,0-11.254-2.695-13.938-4.433v1c2.684,1.737,7.827,4.433,13.938,4.433
				c6.303,0,12.125-2.866,15.062-4.593v-1C639.062,452.002,633.24,454.868,626.938,454.868z"/>
		</g>
		<path fill="#333333" d="M627,461c-1.657,0-3,1.343-3,3v5.649c0.961,0.137,1.963,0.219,3,0.219c1.021,0,2.024-0.078,3-0.212V464
			C630,462.343,628.657,461,627,461z"/>
		<path opacity="0.15" fill="#000100" d="M625.993,430.26l6.373,23.951C638.875,452.688,644,449,644,449l-17-20L625.993,430.26z"/>
		<g>
			<path fill="#BCCBD4" d="M633,459.418v2c0,0,1.079-0.167,2.856-0.573l-0.062-1.985C634.056,459.255,633,459.418,633,459.418z"/>
			<path fill="#BCCBD4" d="M639,459.563v-2c0,0-0.714,0.68-2.794,1.195l0.065,1.982C638.3,460.229,639,459.563,639,459.563z"/>
			<path fill="#BCCBD4" d="M633,456.917v2c0,0,1.525-0.203,2.778-0.603l-0.061-1.981C634.477,456.72,633,456.917,633,456.917z"/>
			<path fill="#BCCBD4" d="M639,457.062v-2c0,0-0.902,0.476-2.879,1.14l0.065,1.978C638.116,457.527,639,457.062,639,457.062z"/>
		</g>
		<g>
			<path fill="#BCCBD4" d="M622,459.418v2c0,0-1.079-0.167-2.856-0.573l0.062-1.985C620.944,459.255,622,459.418,622,459.418z"/>
			<path fill="#BCCBD4" d="M616,459.563v-2c0,0,0.714,0.68,2.794,1.195l-0.065,1.982C616.7,460.229,616,459.563,616,459.563z"/>
			<path fill="#BCCBD4" d="M622,456.917v2c0,0-1.525-0.203-2.778-0.603l0.061-1.981C620.523,456.72,622,456.917,622,456.917z"/>
			<path fill="#BCCBD4" d="M616,457.062v-2c0,0,0.902,0.476,2.879,1.14l-0.065,1.978C616.884,457.527,616,457.062,616,457.062z"/>
		</g>
	</g>
</g>
<g>
	
		<radialGradient id="SVGID_8_" cx="646.1748" cy="484.501" r="18.667" gradientTransform="matrix(1.2445 -0.0115 0.0063 0.4372 -221.0281 280.0957)" gradientUnits="userSpaceOnUse">
		<stop  offset="0" style="stop-color:#000100;stop-opacity:0.4"/>
		<stop  offset="1" style="stop-color:#000100;stop-opacity:0"/>
	</radialGradient>
	<ellipse fill="url(#SVGID_8_)" cx="585.562" cy="484.709" rx="24.062" ry="8.292"/>
	<g>
		<path fill="#E5E6E5" d="M600,483.172c0,0-7.001,4.696-15,4.696s-14-4.696-14-4.696V467h29V483.172z"/>
		<path fill="#464541" d="M602,467c0,0-8.053,5.868-17.062,5.868C575.926,472.868,569,467,569,467l16-20L602,467z"/>
		<g opacity="0.1">
			<path fill="#464541" d="M584.938,472.868c-6.11,0-11.254-2.695-13.938-4.433v1c2.684,1.737,7.827,4.433,13.938,4.433
				c6.303,0,12.125-2.866,15.062-4.593v-1C597.062,470.002,591.24,472.868,584.938,472.868z"/>
		</g>
		<path fill="#333333" d="M585,479c-1.657,0-3,1.343-3,3v5.649c0.961,0.137,1.963,0.219,3,0.219c1.021,0,2.024-0.078,3-0.212V482
			C588,480.343,586.657,479,585,479z"/>
		<path opacity="0.15" fill="#000100" d="M583.993,448.26l6.373,23.951C596.875,470.688,602,467,602,467l-17-20L583.993,448.26z"/>
		<g>
			<path fill="#BCCBD4" d="M591,477.418v2c0,0,1.079-0.167,2.856-0.573l-0.062-1.985C592.056,477.255,591,477.418,591,477.418z"/>
			<path fill="#BCCBD4" d="M597,477.563v-2c0,0-0.714,0.68-2.794,1.195l0.065,1.982C596.3,478.229,597,477.563,597,477.563z"/>
			<path fill="#BCCBD4" d="M591,474.917v2c0,0,1.525-0.203,2.778-0.603l-0.061-1.981C592.477,474.72,591,474.917,591,474.917z"/>
			<path fill="#BCCBD4" d="M597,475.062v-2c0,0-0.902,0.476-2.879,1.14l0.065,1.978C596.116,475.527,597,475.062,597,475.062z"/>
		</g>
		<g>
			<path fill="#BCCBD4" d="M580,477.418v2c0,0-1.079-0.167-2.856-0.573l0.062-1.985C578.944,477.255,580,477.418,580,477.418z"/>
			<path fill="#BCCBD4" d="M574,477.563v-2c0,0,0.714,0.68,2.794,1.195l-0.065,1.982C574.7,478.229,574,477.563,574,477.563z"/>
			<path fill="#BCCBD4" d="M580,474.917v2c0,0-1.525-0.203-2.778-0.603l0.061-1.981C578.523,474.72,580,474.917,580,474.917z"/>
			<path fill="#BCCBD4" d="M574,475.062v-2c0,0,0.902,0.476,2.879,1.14l-0.065,1.978C574.884,475.527,574,475.062,574,475.062z"/>
		</g>
	</g>
</g>
<g>
	
		<radialGradient id="SVGID_9_" cx="613.2314" cy="497.501" r="18.6678" gradientTransform="matrix(1.2445 -0.0115 0.0063 0.4372 -221.1123 287.0321)" gradientUnits="userSpaceOnUse">
		<stop  offset="0" style="stop-color:#000100;stop-opacity:0.4"/>
		<stop  offset="1" style="stop-color:#000100;stop-opacity:0"/>
	</radialGradient>
	<ellipse fill="url(#SVGID_9_)" cx="544.562" cy="497.709" rx="24.062" ry="8.292"/>
	<g>
		<path fill="#E5E6E5" d="M559,496.172c0,0-7.001,4.696-15,4.696s-14-4.696-14-4.696V480h29V496.172z"/>
		<path fill="#464541" d="M561,480c0,0-8.053,5.868-17.062,5.868C534.926,485.868,528,480,528,480l16-20L561,480z"/>
		<g opacity="0.1">
			<path fill="#464541" d="M543.938,485.868c-6.11,0-11.254-2.695-13.938-4.433v1c2.684,1.737,7.827,4.433,13.938,4.433
				c6.303,0,12.125-2.866,15.062-4.593v-1C556.062,483.002,550.24,485.868,543.938,485.868z"/>
		</g>
		<path fill="#333333" d="M544,492c-1.657,0-3,1.343-3,3v5.649c0.961,0.137,1.963,0.219,3,0.219c1.021,0,2.024-0.078,3-0.212V495
			C547,493.343,545.657,492,544,492z"/>
		<path opacity="0.15" fill="#000100" d="M542.993,461.26l6.373,23.951C555.875,483.688,561,480,561,480l-17-20L542.993,461.26z"/>
		<g>
			<path fill="#BCCBD4" d="M550,490.418v2c0,0,1.079-0.167,2.856-0.573l-0.062-1.985C551.056,490.255,550,490.418,550,490.418z"/>
			<path fill="#BCCBD4" d="M556,490.563v-2c0,0-0.714,0.68-2.794,1.195l0.065,1.982C555.3,491.229,556,490.563,556,490.563z"/>
			<path fill="#BCCBD4" d="M550,487.917v2c0,0,1.525-0.203,2.778-0.603l-0.061-1.981C551.477,487.72,550,487.917,550,487.917z"/>
			<path fill="#BCCBD4" d="M556,488.062v-2c0,0-0.902,0.476-2.879,1.14l0.065,1.978C555.116,488.527,556,488.062,556,488.062z"/>
		</g>
		<g>
			<path fill="#BCCBD4" d="M539,490.418v2c0,0-1.079-0.167-2.856-0.573l0.062-1.985C537.944,490.255,539,490.418,539,490.418z"/>
			<path fill="#BCCBD4" d="M533,490.563v-2c0,0,0.714,0.68,2.794,1.195l-0.065,1.982C533.7,491.229,533,490.563,533,490.563z"/>
			<path fill="#BCCBD4" d="M539,487.917v2c0,0-1.525-0.203-2.778-0.603l0.061-1.981C537.523,487.72,539,487.917,539,487.917z"/>
			<path fill="#BCCBD4" d="M533,488.062v-2c0,0,0.902,0.476,2.879,1.14l-0.065,1.978C533.884,488.527,533,488.062,533,488.062z"/>
		</g>
	</g>
</g>
<g>
	
		<radialGradient id="SVGID_10_" cx="576.2725" cy="497.501" r="18.667" gradientTransform="matrix(1.2445 -0.0115 0.0063 0.4372 -221.1154 286.6065)" gradientUnits="userSpaceOnUse">
		<stop  offset="0" style="stop-color:#000100;stop-opacity:0.4"/>
		<stop  offset="1" style="stop-color:#000100;stop-opacity:0"/>
	</radialGradient>
	<ellipse fill="url(#SVGID_10_)" cx="498.562" cy="497.709" rx="24.062" ry="8.292"/>
	<g>
		<path fill="#E5E6E5" d="M513,496.172c0,0-7.001,4.696-15,4.696s-14-4.696-14-4.696V480h29V496.172z"/>
		<path fill="#464541" d="M515,480c0,0-8.053,5.868-17.062,5.868C488.926,485.868,482,480,482,480l16-20L515,480z"/>
		<g opacity="0.1">
			<path fill="#464541" d="M497.938,485.868c-6.11,0-11.254-2.695-13.938-4.433v1c2.684,1.737,7.827,4.433,13.938,4.433
				c6.303,0,12.125-2.866,15.062-4.593v-1C510.062,483.002,504.24,485.868,497.938,485.868z"/>
		</g>
		<path fill="#333333" d="M498,492c-1.657,0-3,1.343-3,3v5.649c0.961,0.137,1.963,0.219,3,0.219c1.021,0,2.024-0.078,3-0.212V495
			C501,493.343,499.657,492,498,492z"/>
		<path opacity="0.15" fill="#000100" d="M496.993,461.26l6.373,23.951C509.875,483.688,515,480,515,480l-17-20L496.993,461.26z"/>
		<g>
			<path fill="#BCCBD4" d="M504,490.418v2c0,0,1.079-0.167,2.856-0.573l-0.062-1.985C505.056,490.255,504,490.418,504,490.418z"/>
			<path fill="#BCCBD4" d="M510,490.563v-2c0,0-0.714,0.68-2.794,1.195l0.065,1.982C509.3,491.229,510,490.563,510,490.563z"/>
			<path fill="#BCCBD4" d="M504,487.917v2c0,0,1.525-0.203,2.778-0.603l-0.061-1.981C505.477,487.72,504,487.917,504,487.917z"/>
			<path fill="#BCCBD4" d="M510,488.062v-2c0,0-0.902,0.476-2.879,1.14l0.065,1.978C509.116,488.527,510,488.062,510,488.062z"/>
		</g>
		<g>
			<path fill="#BCCBD4" d="M493,490.418v2c0,0-1.079-0.167-2.856-0.573l0.062-1.985C491.944,490.255,493,490.418,493,490.418z"/>
			<path fill="#BCCBD4" d="M487,490.563v-2c0,0,0.714,0.68,2.794,1.195l-0.065,1.982C487.7,491.229,487,490.563,487,490.563z"/>
			<path fill="#BCCBD4" d="M493,487.917v2c0,0-1.525-0.203-2.778-0.603l0.061-1.981C491.523,487.72,493,487.917,493,487.917z"/>
			<path fill="#BCCBD4" d="M487,488.062v-2c0,0,0.902,0.476,2.879,1.14l-0.065,1.978C487.884,488.527,487,488.062,487,488.062z"/>
		</g>
	</g>
</g>
<g>
	
		<radialGradient id="SVGID_11_" cx="524.0459" cy="431.501" r="18.6678" gradientTransform="matrix(-1.2445 -0.0115 -0.0063 0.4372 997.8311 248.8633)" gradientUnits="userSpaceOnUse">
		<stop  offset="0" style="stop-color:#000100;stop-opacity:0.4"/>
		<stop  offset="1" style="stop-color:#000100;stop-opacity:0"/>
	</radialGradient>
	<ellipse fill="url(#SVGID_11_)" cx="343.562" cy="431.709" rx="24.062" ry="8.292"/>
	<g>
		<path fill="#E5E6E5" d="M329,430.172c0,0,7.001,4.696,15,4.696s14-4.696,14-4.696V414h-29V430.172z"/>
		<path fill="#464541" d="M327.125,414c0,0,8.053,5.868,17.062,5.868c9.012,0,15.938-5.868,15.938-5.868l-16-20L327.125,414z"/>
		<g opacity="0.1">
			<path fill="#464541" d="M344.062,419.868c6.11,0,10.938-2.695,13.938-4.433v1c-3,1.737-7.827,4.433-13.938,4.433
				c-6.303,0-12.062-2.866-15.062-4.593v-1C332,417.002,337.76,419.868,344.062,419.868z"/>
		</g>
		<path fill="#333333" d="M344,426c1.657,0,3,1.343,3,3v5.649c-1,0.137-1.963,0.219-3,0.219c-1.021,0-2-0.078-3-0.212V429
			C341,427.343,342.343,426,344,426z"/>
		<path opacity="0.15" fill="#000100" d="M345.132,395.26l-6.373,23.951c-6.509-1.523-11.634-5.211-11.634-5.211l17-20
			L345.132,395.26z"/>
		<g>
			<path fill="#BCCBD4" d="M338,424.418v2c0,0-1.017-0.167-2.794-0.573l0.03-1.985C336.976,424.255,338,424.418,338,424.418z"/>
			<path fill="#BCCBD4" d="M332,424.563v-2c0,0,0.776,0.68,2.856,1.195l-0.097,1.982C332.731,425.229,332,424.563,332,424.563z"/>
			<path fill="#BCCBD4" d="M338,421.917v2c0,0-1.463-0.203-2.716-0.603l0.029-1.981C336.555,421.72,338,421.917,338,421.917z"/>
			<path fill="#BCCBD4" d="M332,422.062v-2c0,0,0.965,0.476,2.941,1.14l-0.097,1.978C332.915,422.527,332,422.062,332,422.062z"/>
		</g>
		<g>
			<path fill="#BCCBD4" d="M349,424.418v2c0,0,1.142-0.167,2.919-0.573l-0.093-1.985C350.087,424.255,349,424.418,349,424.418z"/>
			<path fill="#BCCBD4" d="M355,424.563v-2c0,0-0.651,0.68-2.731,1.195l0.034,1.982C354.331,425.229,355,424.563,355,424.563z"/>
			<path fill="#BCCBD4" d="M349,421.917v2c0,0,1.588-0.203,2.841-0.603l-0.092-1.981C350.508,421.72,349,421.917,349,421.917z"/>
			<path fill="#BCCBD4" d="M355,422.062v-2c0,0-0.84,0.476-2.816,1.14l0.034,1.978C354.147,422.527,355,422.062,355,422.062z"/>
		</g>
	</g>
</g>
<g>
	
		<radialGradient id="SVGID_12_" cx="568.2373" cy="463.501" r="18.6678" gradientTransform="matrix(1.2445 -0.0115 0.0063 0.4372 -220.9029 267.3803)" gradientUnits="userSpaceOnUse">
		<stop  offset="0" style="stop-color:#000100;stop-opacity:0.4"/>
		<stop  offset="1" style="stop-color:#000100;stop-opacity:0"/>
	</radialGradient>
	<ellipse fill="url(#SVGID_12_)" cx="488.562" cy="463.709" rx="24.062" ry="8.292"/>
	<g>
		<path fill="#E5E6E5" d="M503,462.172c0,0-7.001,4.696-15,4.696s-14-4.696-14-4.696V446h29V462.172z"/>
		<path fill="#464541" d="M505,446c0,0-8.053,5.868-17.062,5.868C478.926,451.868,472,446,472,446l16-20L505,446z"/>
		<g opacity="0.1">
			<path fill="#464541" d="M487.938,451.868c-6.11,0-11.254-2.695-13.938-4.433v1c2.684,1.737,7.827,4.433,13.938,4.433
				c6.303,0,12.125-2.866,15.062-4.593v-1C500.062,449.002,494.24,451.868,487.938,451.868z"/>
		</g>
		<path fill="#333333" d="M488,458c-1.657,0-3,1.343-3,3v5.649c0.961,0.137,1.963,0.219,3,0.219c1.021,0,2.024-0.078,3-0.212V461
			C491,459.343,489.657,458,488,458z"/>
		<path opacity="0.15" fill="#000100" d="M486.993,427.26l6.373,23.951C499.875,449.688,505,446,505,446l-17-20L486.993,427.26z"/>
		<g>
			<path fill="#BCCBD4" d="M494,456.418v2c0,0,1.079-0.167,2.856-0.573l-0.062-1.985C495.056,456.255,494,456.418,494,456.418z"/>
			<path fill="#BCCBD4" d="M500,456.563v-2c0,0-0.714,0.68-2.794,1.195l0.065,1.982C499.3,457.229,500,456.563,500,456.563z"/>
			<path fill="#BCCBD4" d="M494,453.917v2c0,0,1.525-0.203,2.778-0.603l-0.061-1.981C495.477,453.72,494,453.917,494,453.917z"/>
			<path fill="#BCCBD4" d="M500,454.062v-2c0,0-0.902,0.476-2.879,1.14l0.065,1.978C499.116,454.527,500,454.062,500,454.062z"/>
		</g>
		<g>
			<path fill="#BCCBD4" d="M483,456.418v2c0,0-1.079-0.167-2.856-0.573l0.062-1.985C481.944,456.255,483,456.418,483,456.418z"/>
			<path fill="#BCCBD4" d="M477,456.563v-2c0,0,0.714,0.68,2.794,1.195l-0.065,1.982C477.7,457.229,477,456.563,477,456.563z"/>
			<path fill="#BCCBD4" d="M483,453.917v2c0,0-1.525-0.203-2.778-0.603l0.061-1.981C481.523,453.72,483,453.917,483,453.917z"/>
			<path fill="#BCCBD4" d="M477,454.062v-2c0,0,0.902,0.476,2.879,1.14l-0.065,1.978C477.884,454.527,477,454.062,477,454.062z"/>
		</g>
	</g>
</g>
<g>
	
		<radialGradient id="SVGID_13_" cx="524.0459" cy="463.501" r="18.6678" gradientTransform="matrix(-1.2445 -0.0115 -0.0063 0.4372 998.0316 266.8715)" gradientUnits="userSpaceOnUse">
		<stop  offset="0" style="stop-color:#000100;stop-opacity:0.4"/>
		<stop  offset="1" style="stop-color:#000100;stop-opacity:0"/>
	</radialGradient>
	<ellipse fill="url(#SVGID_13_)" cx="343.562" cy="463.709" rx="24.062" ry="8.292"/>
	<g>
		<path fill="#E5E6E5" d="M329,462.172c0,0,7.001,4.696,15,4.696s14-4.696,14-4.696V446h-29V462.172z"/>
		<path fill="#464541" d="M327.125,446c0,0,8.053,5.868,17.062,5.868c9.012,0,15.938-5.868,15.938-5.868l-16-20L327.125,446z"/>
		<g opacity="0.1">
			<path fill="#464541" d="M344.062,451.868c6.11,0,10.938-2.695,13.938-4.433v1c-3,1.737-7.827,4.433-13.938,4.433
				c-6.303,0-12.062-2.866-15.062-4.593v-1C332,449.002,337.76,451.868,344.062,451.868z"/>
		</g>
		<path fill="#333333" d="M344,458c1.657,0,3,1.343,3,3v5.649c-1,0.137-1.963,0.219-3,0.219c-1.021,0-2-0.078-3-0.212V461
			C341,459.343,342.343,458,344,458z"/>
		<path opacity="0.15" fill="#000100" d="M345.132,427.26l-6.373,23.951c-6.509-1.523-11.634-5.211-11.634-5.211l17-20
			L345.132,427.26z"/>
		<g>
			<path fill="#BCCBD4" d="M338,456.418v2c0,0-1.017-0.167-2.794-0.573l0.03-1.985C336.976,456.255,338,456.418,338,456.418z"/>
			<path fill="#BCCBD4" d="M332,456.563v-2c0,0,0.776,0.68,2.856,1.195l-0.097,1.982C332.731,457.229,332,456.563,332,456.563z"/>
			<path fill="#BCCBD4" d="M338,453.917v2c0,0-1.463-0.203-2.716-0.603l0.029-1.981C336.555,453.72,338,453.917,338,453.917z"/>
			<path fill="#BCCBD4" d="M332,454.062v-2c0,0,0.965,0.476,2.941,1.14l-0.097,1.978C332.915,454.527,332,454.062,332,454.062z"/>
		</g>
		<g>
			<path fill="#BCCBD4" d="M349,456.418v2c0,0,1.142-0.167,2.919-0.573l-0.093-1.985C350.087,456.255,349,456.418,349,456.418z"/>
			<path fill="#BCCBD4" d="M355,456.563v-2c0,0-0.651,0.68-2.731,1.195l0.034,1.982C354.331,457.229,355,456.563,355,456.563z"/>
			<path fill="#BCCBD4" d="M349,453.917v2c0,0,1.588-0.203,2.841-0.603l-0.092-1.981C350.508,453.72,349,453.917,349,453.917z"/>
			<path fill="#BCCBD4" d="M355,454.062v-2c0,0-0.84,0.476-2.816,1.14l0.034,1.978C354.147,454.527,355,454.062,355,454.062z"/>
		</g>
	</g>
</g>
<g>
	
		<radialGradient id="SVGID_14_" cx="485.4795" cy="431.501" r="18.6678" gradientTransform="matrix(-1.2445 -0.0115 -0.0063 0.4372 997.8342 248.4192)" gradientUnits="userSpaceOnUse">
		<stop  offset="0" style="stop-color:#000100;stop-opacity:0.4"/>
		<stop  offset="1" style="stop-color:#000100;stop-opacity:0"/>
	</radialGradient>
	<ellipse fill="url(#SVGID_14_)" cx="391.562" cy="431.709" rx="24.062" ry="8.292"/>
	<g>
		<path fill="#E5E6E5" d="M377,430.172c0,0,7.001,4.696,15,4.696s14-4.696,14-4.696V414h-29V430.172z"/>
		<path fill="#464541" d="M375.125,414c0,0,8.053,5.868,17.062,5.868c9.012,0,15.938-5.868,15.938-5.868l-16-20L375.125,414z"/>
		<g opacity="0.1">
			<path fill="#464541" d="M392.062,419.868c6.11,0,10.938-2.695,13.938-4.433v1c-3,1.737-7.827,4.433-13.938,4.433
				c-6.303,0-12.062-2.866-15.062-4.593v-1C380,417.002,385.76,419.868,392.062,419.868z"/>
		</g>
		<path fill="#333333" d="M392,426c1.657,0,3,1.343,3,3v5.649c-1,0.137-1.963,0.219-3,0.219c-1.021,0-2-0.078-3-0.212V429
			C389,427.343,390.343,426,392,426z"/>
		<path opacity="0.15" fill="#000100" d="M393.132,395.26l-6.373,23.951c-6.509-1.523-11.634-5.211-11.634-5.211l17-20
			L393.132,395.26z"/>
		<g>
			<path fill="#BCCBD4" d="M386,424.418v2c0,0-1.017-0.167-2.794-0.573l0.03-1.985C384.976,424.255,386,424.418,386,424.418z"/>
			<path fill="#BCCBD4" d="M380,424.563v-2c0,0,0.776,0.68,2.856,1.195l-0.097,1.982C380.731,425.229,380,424.563,380,424.563z"/>
			<path fill="#BCCBD4" d="M386,421.917v2c0,0-1.463-0.203-2.716-0.603l0.029-1.981C384.555,421.72,386,421.917,386,421.917z"/>
			<path fill="#BCCBD4" d="M380,422.062v-2c0,0,0.965,0.476,2.941,1.14l-0.097,1.978C380.915,422.527,380,422.062,380,422.062z"/>
		</g>
		<g>
			<path fill="#BCCBD4" d="M397,424.418v2c0,0,1.142-0.167,2.919-0.573l-0.093-1.985C398.087,424.255,397,424.418,397,424.418z"/>
			<path fill="#BCCBD4" d="M403,424.563v-2c0,0-0.651,0.68-2.731,1.195l0.034,1.982C402.331,425.229,403,424.563,403,424.563z"/>
			<path fill="#BCCBD4" d="M397,421.917v2c0,0,1.588-0.203,2.841-0.603l-0.092-1.981C398.508,421.72,397,421.917,397,421.917z"/>
			<path fill="#BCCBD4" d="M403,422.062v-2c0,0-0.84,0.476-2.816,1.14l0.034,1.978C402.147,422.527,403,422.062,403,422.062z"/>
		</g>
	</g>
</g>
<g>
	
		<radialGradient id="SVGID_15_" cx="561.0059" cy="434.501" r="18.667" gradientTransform="matrix(-1.2445 -0.0115 -0.0063 0.4372 997.8467 250.9772)" gradientUnits="userSpaceOnUse">
		<stop  offset="0" style="stop-color:#000100;stop-opacity:0.4"/>
		<stop  offset="1" style="stop-color:#000100;stop-opacity:0"/>
	</radialGradient>
	<ellipse fill="url(#SVGID_15_)" cx="297.562" cy="434.709" rx="24.062" ry="8.292"/>
	<g>
		<path fill="#E5E6E5" d="M283,433.172c0,0,7.001,4.696,15,4.696s14-4.696,14-4.696V417h-29V433.172z"/>
		<path fill="#464541" d="M281.125,417c0,0,8.053,5.868,17.062,5.868c9.012,0,15.938-5.868,15.938-5.868l-16-20L281.125,417z"/>
		<g opacity="0.1">
			<path fill="#464541" d="M298.062,422.868c6.11,0,10.938-2.695,13.938-4.433v1c-3,1.737-7.827,4.433-13.938,4.433
				c-6.303,0-12.062-2.866-15.062-4.593v-1C286,420.002,291.76,422.868,298.062,422.868z"/>
		</g>
		<path fill="#333333" d="M298,429c1.657,0,3,1.343,3,3v5.649c-1,0.137-1.963,0.219-3,0.219c-1.021,0-2-0.078-3-0.212V432
			C295,430.343,296.343,429,298,429z"/>
		<path opacity="0.15" fill="#000100" d="M299.132,398.26l-6.373,23.951c-6.509-1.523-11.634-5.211-11.634-5.211l17-20
			L299.132,398.26z"/>
		<g>
			<path fill="#BCCBD4" d="M292,427.418v2c0,0-1.017-0.167-2.794-0.573l0.03-1.985C290.976,427.255,292,427.418,292,427.418z"/>
			<path fill="#BCCBD4" d="M286,427.563v-2c0,0,0.776,0.68,2.856,1.195l-0.097,1.982C286.731,428.229,286,427.563,286,427.563z"/>
			<path fill="#BCCBD4" d="M292,424.917v2c0,0-1.463-0.203-2.716-0.603l0.029-1.981C290.555,424.72,292,424.917,292,424.917z"/>
			<path fill="#BCCBD4" d="M286,425.062v-2c0,0,0.965,0.476,2.941,1.14l-0.097,1.978C286.915,425.527,286,425.062,286,425.062z"/>
		</g>
		<g>
			<path fill="#BCCBD4" d="M303,427.418v2c0,0,1.142-0.167,2.919-0.573l-0.093-1.985C304.087,427.255,303,427.418,303,427.418z"/>
			<path fill="#BCCBD4" d="M309,427.563v-2c0,0-0.651,0.68-2.731,1.195l0.034,1.982C308.331,428.229,309,427.563,309,427.563z"/>
			<path fill="#BCCBD4" d="M303,424.917v2c0,0,1.588-0.203,2.841-0.603l-0.092-1.981C304.508,424.72,303,424.917,303,424.917z"/>
			<path fill="#BCCBD4" d="M309,425.062v-2c0,0-0.84,0.476-2.816,1.14l0.034,1.978C308.147,425.527,309,425.062,309,425.062z"/>
		</g>
	</g>
</g>
<g>
	
		<radialGradient id="SVGID_16_" cx="605.1963" cy="462.501" r="18.6678" gradientTransform="matrix(1.2445 -0.0115 0.0063 0.4372 -220.8936 267.2432)" gradientUnits="userSpaceOnUse">
		<stop  offset="0" style="stop-color:#000100;stop-opacity:0.4"/>
		<stop  offset="1" style="stop-color:#000100;stop-opacity:0"/>
	</radialGradient>
	<ellipse fill="url(#SVGID_16_)" cx="534.562" cy="462.709" rx="24.062" ry="8.292"/>
	<g>
		<path fill="#E5E6E5" d="M549,461.172c0,0-7.001,4.696-15,4.696s-14-4.696-14-4.696V445h29V461.172z"/>
		<path fill="#464541" d="M551,445c0,0-8.053,5.868-17.062,5.868C524.926,450.868,518,445,518,445l16-20L551,445z"/>
		<g opacity="0.1">
			<path fill="#464541" d="M533.938,450.868c-6.11,0-11.254-2.695-13.938-4.433v1c2.684,1.737,7.827,4.433,13.938,4.433
				c6.303,0,12.125-2.866,15.062-4.593v-1C546.062,448.002,540.24,450.868,533.938,450.868z"/>
		</g>
		<path fill="#333333" d="M534,457c-1.657,0-3,1.343-3,3v5.649c0.961,0.137,1.963,0.219,3,0.219c1.021,0,2.024-0.078,3-0.212V460
			C537,458.343,535.657,457,534,457z"/>
		<path opacity="0.15" fill="#000100" d="M532.993,426.26l6.373,23.951C545.875,448.688,551,445,551,445l-17-20L532.993,426.26z"/>
		<g>
			<path fill="#BCCBD4" d="M540,455.418v2c0,0,1.079-0.167,2.856-0.573l-0.062-1.985C541.056,455.255,540,455.418,540,455.418z"/>
			<path fill="#BCCBD4" d="M546,455.563v-2c0,0-0.714,0.68-2.794,1.195l0.065,1.982C545.3,456.229,546,455.563,546,455.563z"/>
			<path fill="#BCCBD4" d="M540,452.917v2c0,0,1.525-0.203,2.778-0.603l-0.061-1.981C541.477,452.72,540,452.917,540,452.917z"/>
			<path fill="#BCCBD4" d="M546,453.062v-2c0,0-0.902,0.476-2.879,1.14l0.065,1.978C545.116,453.527,546,453.062,546,453.062z"/>
		</g>
		<g>
			<path fill="#BCCBD4" d="M529,455.418v2c0,0-1.079-0.167-2.856-0.573l0.062-1.985C527.944,455.255,529,455.418,529,455.418z"/>
			<path fill="#BCCBD4" d="M523,455.563v-2c0,0,0.714,0.68,2.794,1.195l-0.065,1.982C523.7,456.229,523,455.563,523,455.563z"/>
			<path fill="#BCCBD4" d="M529,452.917v2c0,0-1.525-0.203-2.778-0.603l0.061-1.981C527.523,452.72,529,452.917,529,452.917z"/>
			<path fill="#BCCBD4" d="M523,453.062v-2c0,0,0.902,0.476,2.879,1.14l-0.065,1.978C523.884,453.527,523,453.062,523,453.062z"/>
		</g>
	</g>
</g>
<g>
	
		<radialGradient id="SVGID_17_" cx="561.0059" cy="462.501" r="18.667" gradientTransform="matrix(-1.2445 -0.0115 -0.0063 0.4372 998.0222 266.7343)" gradientUnits="userSpaceOnUse">
		<stop  offset="0" style="stop-color:#000100;stop-opacity:0.4"/>
		<stop  offset="1" style="stop-color:#000100;stop-opacity:0"/>
	</radialGradient>
	<ellipse fill="url(#SVGID_17_)" cx="297.562" cy="462.709" rx="24.062" ry="8.292"/>
	<g>
		<path fill="#E5E6E5" d="M283,461.172c0,0,7.001,4.696,15,4.696s14-4.696,14-4.696V445h-29V461.172z"/>
		<path fill="#464541" d="M281.125,445c0,0,8.053,5.868,17.062,5.868c9.012,0,15.938-5.868,15.938-5.868l-16-20L281.125,445z"/>
		<g opacity="0.1">
			<path fill="#464541" d="M298.062,450.868c6.11,0,10.938-2.695,13.938-4.433v1c-3,1.737-7.827,4.433-13.938,4.433
				c-6.303,0-12.062-2.866-15.062-4.593v-1C286,448.002,291.76,450.868,298.062,450.868z"/>
		</g>
		<path fill="#333333" d="M298,457c1.657,0,3,1.343,3,3v5.649c-1,0.137-1.963,0.219-3,0.219c-1.021,0-2-0.078-3-0.212V460
			C295,458.343,296.343,457,298,457z"/>
		<path opacity="0.15" fill="#000100" d="M299.132,426.26l-6.373,23.951c-6.509-1.523-11.634-5.211-11.634-5.211l17-20
			L299.132,426.26z"/>
		<g>
			<path fill="#BCCBD4" d="M292,455.418v2c0,0-1.017-0.167-2.794-0.573l0.03-1.985C290.976,455.255,292,455.418,292,455.418z"/>
			<path fill="#BCCBD4" d="M286,455.563v-2c0,0,0.776,0.68,2.856,1.195l-0.097,1.982C286.731,456.229,286,455.563,286,455.563z"/>
			<path fill="#BCCBD4" d="M292,452.917v2c0,0-1.463-0.203-2.716-0.603l0.029-1.981C290.555,452.72,292,452.917,292,452.917z"/>
			<path fill="#BCCBD4" d="M286,453.062v-2c0,0,0.965,0.476,2.941,1.14l-0.097,1.978C286.915,453.527,286,453.062,286,453.062z"/>
		</g>
		<g>
			<path fill="#BCCBD4" d="M303,455.418v2c0,0,1.142-0.167,2.919-0.573l-0.093-1.985C304.087,455.255,303,455.418,303,455.418z"/>
			<path fill="#BCCBD4" d="M309,455.563v-2c0,0-0.651,0.68-2.731,1.195l0.034,1.982C308.331,456.229,309,455.563,309,455.563z"/>
			<path fill="#BCCBD4" d="M303,452.917v2c0,0,1.588-0.203,2.841-0.603l-0.092-1.981C304.508,452.72,303,452.917,303,452.917z"/>
			<path fill="#BCCBD4" d="M309,453.062v-2c0,0-0.84,0.476-2.816,1.14l0.034,1.978C308.147,453.527,309,453.062,309,453.062z"/>
		</g>
	</g>
</g>
<g>
	
		<radialGradient id="SVGID_18_" cx="595.5557" cy="437.501" r="18.667" gradientTransform="matrix(-1.2445 -0.0115 -0.0063 0.4372 997.8628 253.0634)" gradientUnits="userSpaceOnUse">
		<stop  offset="0" style="stop-color:#000100;stop-opacity:0.4"/>
		<stop  offset="1" style="stop-color:#000100;stop-opacity:0"/>
	</radialGradient>
	<ellipse fill="url(#SVGID_18_)" cx="254.562" cy="437.709" rx="24.062" ry="8.292"/>
	<g>
		<path fill="#E5E6E5" d="M240,436.172c0,0,7.001,4.696,15,4.696s14-4.696,14-4.696V420h-29V436.172z"/>
		<path fill="#464541" d="M238.125,420c0,0,8.053,5.868,17.062,5.868c9.012,0,15.938-5.868,15.938-5.868l-16-20L238.125,420z"/>
		<g opacity="0.1">
			<path fill="#464541" d="M255.062,425.868c6.11,0,10.938-2.695,13.938-4.433v1c-3,1.737-7.827,4.433-13.938,4.433
				c-6.303,0-12.062-2.866-15.062-4.593v-1C243,423.002,248.76,425.868,255.062,425.868z"/>
		</g>
		<path fill="#333333" d="M255,432c1.657,0,3,1.343,3,3v5.649c-1,0.137-1.963,0.219-3,0.219c-1.021,0-2-0.078-3-0.212V435
			C252,433.343,253.343,432,255,432z"/>
		<path opacity="0.15" fill="#000100" d="M256.132,401.26l-6.373,23.951c-6.509-1.523-11.634-5.211-11.634-5.211l17-20
			L256.132,401.26z"/>
		<g>
			<path fill="#BCCBD4" d="M249,430.418v2c0,0-1.017-0.167-2.794-0.573l0.03-1.985C247.976,430.255,249,430.418,249,430.418z"/>
			<path fill="#BCCBD4" d="M243,430.563v-2c0,0,0.776,0.68,2.856,1.195l-0.097,1.982C243.731,431.229,243,430.563,243,430.563z"/>
			<path fill="#BCCBD4" d="M249,427.917v2c0,0-1.463-0.203-2.716-0.603l0.029-1.981C247.555,427.72,249,427.917,249,427.917z"/>
			<path fill="#BCCBD4" d="M243,428.062v-2c0,0,0.965,0.476,2.941,1.14l-0.097,1.978C243.915,428.527,243,428.062,243,428.062z"/>
		</g>
		<g>
			<path fill="#BCCBD4" d="M260,430.418v2c0,0,1.142-0.167,2.919-0.573l-0.093-1.985C261.087,430.255,260,430.418,260,430.418z"/>
			<path fill="#BCCBD4" d="M266,430.563v-2c0,0-0.651,0.68-2.731,1.195l0.034,1.982C265.331,431.229,266,430.563,266,430.563z"/>
			<path fill="#BCCBD4" d="M260,427.917v2c0,0,1.588-0.203,2.841-0.603l-0.092-1.981C261.508,427.72,260,427.917,260,427.917z"/>
			<path fill="#BCCBD4" d="M266,428.062v-2c0,0-0.84,0.476-2.816,1.14l0.034,1.978C265.147,428.527,266,428.062,266,428.062z"/>
		</g>
	</g>
</g>
<g>
	
		<radialGradient id="SVGID_19_" cx="639.7471" cy="460.501" r="18.667" gradientTransform="matrix(1.2445 -0.0115 0.0063 0.4372 -220.8782 266.5156)" gradientUnits="userSpaceOnUse">
		<stop  offset="0" style="stop-color:#000100;stop-opacity:0.4"/>
		<stop  offset="1" style="stop-color:#000100;stop-opacity:0"/>
	</radialGradient>
	<ellipse fill="url(#SVGID_19_)" cx="577.562" cy="460.709" rx="24.062" ry="8.292"/>
	<g>
		<path fill="#E5E6E5" d="M592,459.172c0,0-7.001,4.696-15,4.696s-14-4.696-14-4.696V443h29V459.172z"/>
		<path fill="#464541" d="M594,443c0,0-8.053,5.868-17.062,5.868C567.926,448.868,561,443,561,443l16-20L594,443z"/>
		<g opacity="0.1">
			<path fill="#464541" d="M576.938,448.868c-6.11,0-11.254-2.695-13.938-4.433v1c2.684,1.737,7.827,4.433,13.938,4.433
				c6.303,0,12.125-2.866,15.062-4.593v-1C589.062,446.002,583.24,448.868,576.938,448.868z"/>
		</g>
		<path fill="#333333" d="M577,455c-1.657,0-3,1.343-3,3v5.649c0.961,0.137,1.963,0.219,3,0.219c1.021,0,2.024-0.078,3-0.212V458
			C580,456.343,578.657,455,577,455z"/>
		<path opacity="0.15" fill="#000100" d="M575.993,424.26l6.373,23.951C588.875,446.688,594,443,594,443l-17-20L575.993,424.26z"/>
		<g>
			<path fill="#BCCBD4" d="M583,453.418v2c0,0,1.079-0.167,2.856-0.573l-0.062-1.985C584.056,453.255,583,453.418,583,453.418z"/>
			<path fill="#BCCBD4" d="M589,453.563v-2c0,0-0.714,0.68-2.794,1.195l0.065,1.982C588.3,454.229,589,453.563,589,453.563z"/>
			<path fill="#BCCBD4" d="M583,450.917v2c0,0,1.525-0.203,2.778-0.603l-0.061-1.981C584.477,450.72,583,450.917,583,450.917z"/>
			<path fill="#BCCBD4" d="M589,451.062v-2c0,0-0.902,0.476-2.879,1.14l0.065,1.978C588.116,451.527,589,451.062,589,451.062z"/>
		</g>
		<g>
			<path fill="#BCCBD4" d="M572,453.418v2c0,0-1.079-0.167-2.856-0.573l0.062-1.985C570.944,453.255,572,453.418,572,453.418z"/>
			<path fill="#BCCBD4" d="M566,453.563v-2c0,0,0.714,0.68,2.794,1.195l-0.065,1.982C566.7,454.229,566,453.563,566,453.563z"/>
			<path fill="#BCCBD4" d="M572,450.917v2c0,0-1.525-0.203-2.778-0.603l0.061-1.981C570.523,450.72,572,450.917,572,450.917z"/>
			<path fill="#BCCBD4" d="M566,451.062v-2c0,0,0.902,0.476,2.879,1.14l-0.065,1.978C566.884,451.527,566,451.062,566,451.062z"/>
		</g>
	</g>
</g>
<g>
	
		<radialGradient id="SVGID_20_" cx="595.5557" cy="460.501" r="18.667" gradientTransform="matrix(-1.2445 -0.0115 -0.0063 0.4372 998.0069 266.0067)" gradientUnits="userSpaceOnUse">
		<stop  offset="0" style="stop-color:#000100;stop-opacity:0.4"/>
		<stop  offset="1" style="stop-color:#000100;stop-opacity:0"/>
	</radialGradient>
	<ellipse fill="url(#SVGID_20_)" cx="254.562" cy="460.709" rx="24.062" ry="8.292"/>
	<g>
		<path fill="#E5E6E5" d="M240,459.172c0,0,7.001,4.696,15,4.696s14-4.696,14-4.696V443h-29V459.172z"/>
		<path fill="#464541" d="M238.125,443c0,0,8.053,5.868,17.062,5.868c9.012,0,15.938-5.868,15.938-5.868l-16-20L238.125,443z"/>
		<g opacity="0.1">
			<path fill="#464541" d="M255.062,448.868c6.11,0,10.938-2.695,13.938-4.433v1c-3,1.737-7.827,4.433-13.938,4.433
				c-6.303,0-12.062-2.866-15.062-4.593v-1C243,446.002,248.76,448.868,255.062,448.868z"/>
		</g>
		<path fill="#333333" d="M255,455c1.657,0,3,1.343,3,3v5.649c-1,0.137-1.963,0.219-3,0.219c-1.021,0-2-0.078-3-0.212V458
			C252,456.343,253.343,455,255,455z"/>
		<path opacity="0.15" fill="#000100" d="M256.132,424.26l-6.373,23.951c-6.509-1.523-11.634-5.211-11.634-5.211l17-20
			L256.132,424.26z"/>
		<g>
			<path fill="#BCCBD4" d="M249,453.418v2c0,0-1.017-0.167-2.794-0.573l0.03-1.985C247.976,453.255,249,453.418,249,453.418z"/>
			<path fill="#BCCBD4" d="M243,453.563v-2c0,0,0.776,0.68,2.856,1.195l-0.097,1.982C243.731,454.229,243,453.563,243,453.563z"/>
			<path fill="#BCCBD4" d="M249,450.917v2c0,0-1.463-0.203-2.716-0.603l0.029-1.981C247.555,450.72,249,450.917,249,450.917z"/>
			<path fill="#BCCBD4" d="M243,451.062v-2c0,0,0.965,0.476,2.941,1.14l-0.097,1.978C243.915,451.527,243,451.062,243,451.062z"/>
		</g>
		<g>
			<path fill="#BCCBD4" d="M260,453.418v2c0,0,1.142-0.167,2.919-0.573l-0.093-1.985C261.087,453.255,260,453.418,260,453.418z"/>
			<path fill="#BCCBD4" d="M266,453.563v-2c0,0-0.651,0.68-2.731,1.195l0.034,1.982C265.331,454.229,266,453.563,266,453.563z"/>
			<path fill="#BCCBD4" d="M260,450.917v2c0,0,1.588-0.203,2.841-0.603l-0.092-1.981C261.508,450.72,260,450.917,260,450.917z"/>
			<path fill="#BCCBD4" d="M266,451.062v-2c0,0-0.84,0.476-2.816,1.14l0.034,1.978C265.147,451.527,266,451.062,266,451.062z"/>
		</g>
	</g>
</g>
<g>
	
		<radialGradient id="SVGID_21_" cx="627.6943" cy="439.501" r="18.6678" gradientTransform="matrix(-1.2445 -0.0115 -0.0063 0.4372 997.8727 254.559)" gradientUnits="userSpaceOnUse">
		<stop  offset="0" style="stop-color:#000100;stop-opacity:0.4"/>
		<stop  offset="1" style="stop-color:#000100;stop-opacity:0"/>
	</radialGradient>
	<ellipse fill="url(#SVGID_21_)" cx="214.562" cy="439.709" rx="24.062" ry="8.292"/>
	<g>
		<path fill="#E5E6E5" d="M200,438.172c0,0,7.001,4.696,15,4.696s14-4.696,14-4.696V422h-29V438.172z"/>
		<path fill="#464541" d="M198.125,422c0,0,8.053,5.868,17.062,5.868c9.012,0,15.938-5.868,15.938-5.868l-16-20L198.125,422z"/>
		<g opacity="0.1">
			<path fill="#464541" d="M215.062,427.868c6.11,0,10.938-2.695,13.938-4.433v1c-3,1.737-7.827,4.433-13.938,4.433
				c-6.303,0-12.062-2.866-15.062-4.593v-1C203,425.002,208.76,427.868,215.062,427.868z"/>
		</g>
		<path fill="#333333" d="M215,434c1.657,0,3,1.343,3,3v5.649c-1,0.137-1.963,0.219-3,0.219c-1.021,0-2-0.078-3-0.212V437
			C212,435.343,213.343,434,215,434z"/>
		<path opacity="0.15" fill="#000100" d="M216.132,403.26l-6.373,23.951c-6.509-1.523-11.634-5.211-11.634-5.211l17-20
			L216.132,403.26z"/>
		<g>
			<path fill="#BCCBD4" d="M209,432.418v2c0,0-1.017-0.167-2.794-0.573l0.03-1.985C207.976,432.255,209,432.418,209,432.418z"/>
			<path fill="#BCCBD4" d="M203,432.563v-2c0,0,0.776,0.68,2.856,1.195l-0.097,1.982C203.731,433.229,203,432.563,203,432.563z"/>
			<path fill="#BCCBD4" d="M209,429.917v2c0,0-1.463-0.203-2.716-0.603l0.029-1.981C207.555,429.72,209,429.917,209,429.917z"/>
			<path fill="#BCCBD4" d="M203,430.062v-2c0,0,0.965,0.476,2.941,1.14l-0.097,1.978C203.915,430.527,203,430.062,203,430.062z"/>
		</g>
		<g>
			<path fill="#BCCBD4" d="M220,432.418v2c0,0,1.142-0.167,2.919-0.573l-0.093-1.985C221.087,432.255,220,432.418,220,432.418z"/>
			<path fill="#BCCBD4" d="M226,432.563v-2c0,0-0.651,0.68-2.731,1.195l0.034,1.982C225.331,433.229,226,432.563,226,432.563z"/>
			<path fill="#BCCBD4" d="M220,429.917v2c0,0,1.588-0.203,2.841-0.603l-0.092-1.981C221.508,429.72,220,429.917,220,429.917z"/>
			<path fill="#BCCBD4" d="M226,430.062v-2c0,0-0.84,0.476-2.816,1.14l0.034,1.978C225.147,430.527,226,430.062,226,430.062z"/>
		</g>
	</g>
</g>
<g>
	
		<radialGradient id="SVGID_22_" cx="661.4404" cy="442.501" r="18.667" gradientTransform="matrix(-1.2445 -0.0115 -0.0063 0.4372 997.8886 256.6359)" gradientUnits="userSpaceOnUse">
		<stop  offset="0" style="stop-color:#000100;stop-opacity:0.4"/>
		<stop  offset="1" style="stop-color:#000100;stop-opacity:0"/>
	</radialGradient>
	<ellipse fill="url(#SVGID_22_)" cx="172.562" cy="442.709" rx="24.062" ry="8.292"/>
	<g>
		<path fill="#E5E6E5" d="M158,441.172c0,0,7.001,4.696,15,4.696s14-4.696,14-4.696V425h-29V441.172z"/>
		<path fill="#464541" d="M156.125,425c0,0,8.053,5.868,17.062,5.868c9.012,0,15.938-5.868,15.938-5.868l-16-20L156.125,425z"/>
		<g opacity="0.1">
			<path fill="#464541" d="M173.062,430.868c6.11,0,10.938-2.695,13.938-4.433v1c-3,1.737-7.827,4.433-13.938,4.433
				c-6.303,0-12.062-2.866-15.062-4.593v-1C161,428.002,166.76,430.868,173.062,430.868z"/>
		</g>
		<path fill="#333333" d="M173,437c1.657,0,3,1.343,3,3v5.649c-1,0.137-1.963,0.219-3,0.219c-1.021,0-2-0.078-3-0.212V440
			C170,438.343,171.343,437,173,437z"/>
		<path opacity="0.15" fill="#000100" d="M174.132,406.26l-6.373,23.951c-6.509-1.523-11.634-5.211-11.634-5.211l17-20
			L174.132,406.26z"/>
		<g>
			<path fill="#BCCBD4" d="M167,435.418v2c0,0-1.017-0.167-2.794-0.573l0.03-1.985C165.976,435.255,167,435.418,167,435.418z"/>
			<path fill="#BCCBD4" d="M161,435.563v-2c0,0,0.776,0.68,2.856,1.195l-0.097,1.982C161.731,436.229,161,435.563,161,435.563z"/>
			<path fill="#BCCBD4" d="M167,432.917v2c0,0-1.463-0.203-2.716-0.603l0.029-1.981C165.555,432.72,167,432.917,167,432.917z"/>
			<path fill="#BCCBD4" d="M161,433.062v-2c0,0,0.965,0.476,2.941,1.14l-0.097,1.978C161.915,433.527,161,433.062,161,433.062z"/>
		</g>
		<g>
			<path fill="#BCCBD4" d="M178,435.418v2c0,0,1.142-0.167,2.919-0.573l-0.093-1.985C179.087,435.255,178,435.418,178,435.418z"/>
			<path fill="#BCCBD4" d="M184,435.563v-2c0,0-0.651,0.68-2.731,1.195l0.034,1.982C183.331,436.229,184,435.563,184,435.563z"/>
			<path fill="#BCCBD4" d="M178,432.917v2c0,0,1.588-0.203,2.841-0.603l-0.092-1.981C179.508,432.72,178,432.917,178,432.917z"/>
			<path fill="#BCCBD4" d="M184,433.062v-2c0,0-0.84,0.476-2.816,1.14l0.034,1.978C183.147,433.527,184,433.062,184,433.062z"/>
		</g>
	</g>
</g>
<g>
	
		<radialGradient id="SVGID_23_" cx="635.7295" cy="466.501" r="18.667" gradientTransform="matrix(-1.2445 -0.0115 -0.0063 0.4372 998.0411 269.8458)" gradientUnits="userSpaceOnUse">
		<stop  offset="0" style="stop-color:#000100;stop-opacity:0.4"/>
		<stop  offset="1" style="stop-color:#000100;stop-opacity:0"/>
	</radialGradient>
	<ellipse fill="url(#SVGID_23_)" cx="204.562" cy="466.709" rx="24.062" ry="8.292"/>
	<g>
		<path fill="#E5E6E5" d="M190,465.172c0,0,7.001,4.696,15,4.696s14-4.696,14-4.696V449h-29V465.172z"/>
		<path fill="#464541" d="M188.125,449c0,0,8.053,5.868,17.062,5.868c9.012,0,15.938-5.868,15.938-5.868l-16-20L188.125,449z"/>
		<g opacity="0.1">
			<path fill="#464541" d="M205.062,454.868c6.11,0,10.938-2.695,13.938-4.433v1c-3,1.737-7.827,4.433-13.938,4.433
				c-6.303,0-12.062-2.866-15.062-4.593v-1C193,452.002,198.76,454.868,205.062,454.868z"/>
		</g>
		<path fill="#333333" d="M205,461c1.657,0,3,1.343,3,3v5.649c-1,0.137-1.963,0.219-3,0.219c-1.021,0-2-0.078-3-0.212V464
			C202,462.343,203.343,461,205,461z"/>
		<path opacity="0.15" fill="#000100" d="M206.132,430.26l-6.373,23.951c-6.509-1.523-11.634-5.211-11.634-5.211l17-20
			L206.132,430.26z"/>
		<g>
			<path fill="#BCCBD4" d="M199,459.418v2c0,0-1.017-0.167-2.794-0.573l0.03-1.985C197.976,459.255,199,459.418,199,459.418z"/>
			<path fill="#BCCBD4" d="M193,459.563v-2c0,0,0.776,0.68,2.856,1.195l-0.097,1.982C193.731,460.229,193,459.563,193,459.563z"/>
			<path fill="#BCCBD4" d="M199,456.917v2c0,0-1.463-0.203-2.716-0.603l0.029-1.981C197.555,456.72,199,456.917,199,456.917z"/>
			<path fill="#BCCBD4" d="M193,457.062v-2c0,0,0.965,0.476,2.941,1.14l-0.097,1.978C193.915,457.527,193,457.062,193,457.062z"/>
		</g>
		<g>
			<path fill="#BCCBD4" d="M210,459.418v2c0,0,1.142-0.167,2.919-0.573l-0.093-1.985C211.087,459.255,210,459.418,210,459.418z"/>
			<path fill="#BCCBD4" d="M216,459.563v-2c0,0-0.651,0.68-2.731,1.195l0.034,1.982C215.331,460.229,216,459.563,216,459.563z"/>
			<path fill="#BCCBD4" d="M210,456.917v2c0,0,1.588-0.203,2.841-0.603l-0.092-1.981C211.508,456.72,210,456.917,210,456.917z"/>
			<path fill="#BCCBD4" d="M216,457.062v-2c0,0-0.84,0.476-2.816,1.14l0.034,1.978C215.147,457.527,216,457.062,216,457.062z"/>
		</g>
	</g>
</g>
<g>
	
		<radialGradient id="SVGID_24_" cx="601.9834" cy="484.501" r="18.667" gradientTransform="matrix(-1.2445 -0.0115 -0.0063 0.4372 998.1567 279.5868)" gradientUnits="userSpaceOnUse">
		<stop  offset="0" style="stop-color:#000100;stop-opacity:0.4"/>
		<stop  offset="1" style="stop-color:#000100;stop-opacity:0"/>
	</radialGradient>
	<ellipse fill="url(#SVGID_24_)" cx="246.562" cy="484.709" rx="24.062" ry="8.292"/>
	<g>
		<path fill="#E5E6E5" d="M232,483.172c0,0,7.001,4.696,15,4.696s14-4.696,14-4.696V467h-29V483.172z"/>
		<path fill="#464541" d="M230.125,467c0,0,8.053,5.868,17.062,5.868c9.012,0,15.938-5.868,15.938-5.868l-16-20L230.125,467z"/>
		<g opacity="0.1">
			<path fill="#464541" d="M247.062,472.868c6.11,0,10.938-2.695,13.938-4.433v1c-3,1.737-7.827,4.433-13.938,4.433
				c-6.303,0-12.062-2.866-15.062-4.593v-1C235,470.002,240.76,472.868,247.062,472.868z"/>
		</g>
		<path fill="#333333" d="M247,479c1.657,0,3,1.343,3,3v5.649c-1,0.137-1.963,0.219-3,0.219c-1.021,0-2-0.078-3-0.212V482
			C244,480.343,245.343,479,247,479z"/>
		<path opacity="0.15" fill="#000100" d="M248.132,448.26l-6.373,23.951c-6.509-1.523-11.634-5.211-11.634-5.211l17-20
			L248.132,448.26z"/>
		<g>
			<path fill="#BCCBD4" d="M241,477.418v2c0,0-1.017-0.167-2.794-0.573l0.03-1.985C239.976,477.255,241,477.418,241,477.418z"/>
			<path fill="#BCCBD4" d="M235,477.563v-2c0,0,0.776,0.68,2.856,1.195l-0.097,1.982C235.731,478.229,235,477.563,235,477.563z"/>
			<path fill="#BCCBD4" d="M241,474.917v2c0,0-1.463-0.203-2.716-0.603l0.029-1.981C239.555,474.72,241,474.917,241,474.917z"/>
			<path fill="#BCCBD4" d="M235,475.062v-2c0,0,0.965,0.476,2.941,1.14l-0.097,1.978C235.915,475.527,235,475.062,235,475.062z"/>
		</g>
		<g>
			<path fill="#BCCBD4" d="M252,477.418v2c0,0,1.142-0.167,2.919-0.573l-0.093-1.985C253.087,477.255,252,477.418,252,477.418z"/>
			<path fill="#BCCBD4" d="M258,477.563v-2c0,0-0.651,0.68-2.731,1.195l0.034,1.982C257.331,478.229,258,477.563,258,477.563z"/>
			<path fill="#BCCBD4" d="M252,474.917v2c0,0,1.588-0.203,2.841-0.603l-0.092-1.981C253.508,474.72,252,474.917,252,474.917z"/>
			<path fill="#BCCBD4" d="M258,475.062v-2c0,0-0.84,0.476-2.816,1.14l0.034,1.978C257.147,475.527,258,475.062,258,475.062z"/>
		</g>
	</g>
</g>
<g>
	
		<radialGradient id="SVGID_25_" cx="569.04" cy="497.501" r="18.6678" gradientTransform="matrix(-1.2445 -0.0115 -0.0063 0.4372 998.241 286.5232)" gradientUnits="userSpaceOnUse">
		<stop  offset="0" style="stop-color:#000100;stop-opacity:0.4"/>
		<stop  offset="1" style="stop-color:#000100;stop-opacity:0"/>
	</radialGradient>
	<ellipse fill="url(#SVGID_25_)" cx="287.562" cy="497.709" rx="24.062" ry="8.292"/>
	<g>
		<path fill="#E5E6E5" d="M273,496.172c0,0,7.001,4.696,15,4.696s14-4.696,14-4.696V480h-29V496.172z"/>
		<path fill="#464541" d="M271.125,480c0,0,8.053,5.868,17.062,5.868c9.012,0,15.938-5.868,15.938-5.868l-16-20L271.125,480z"/>
		<g opacity="0.1">
			<path fill="#464541" d="M288.062,485.868c6.11,0,10.938-2.695,13.938-4.433v1c-3,1.737-7.827,4.433-13.938,4.433
				c-6.303,0-12.062-2.866-15.062-4.593v-1C276,483.002,281.76,485.868,288.062,485.868z"/>
		</g>
		<path fill="#333333" d="M288,492c1.657,0,3,1.343,3,3v5.649c-1,0.137-1.963,0.219-3,0.219c-1.021,0-2-0.078-3-0.212V495
			C285,493.343,286.343,492,288,492z"/>
		<path opacity="0.15" fill="#000100" d="M289.132,461.26l-6.373,23.951c-6.509-1.523-11.634-5.211-11.634-5.211l17-20
			L289.132,461.26z"/>
		<g>
			<path fill="#BCCBD4" d="M282,490.418v2c0,0-1.017-0.167-2.794-0.573l0.03-1.985C280.976,490.255,282,490.418,282,490.418z"/>
			<path fill="#BCCBD4" d="M276,490.563v-2c0,0,0.776,0.68,2.856,1.195l-0.097,1.982C276.731,491.229,276,490.563,276,490.563z"/>
			<path fill="#BCCBD4" d="M282,487.917v2c0,0-1.463-0.203-2.716-0.603l0.029-1.981C280.555,487.72,282,487.917,282,487.917z"/>
			<path fill="#BCCBD4" d="M276,488.062v-2c0,0,0.965,0.476,2.941,1.14l-0.097,1.978C276.915,488.527,276,488.062,276,488.062z"/>
		</g>
		<g>
			<path fill="#BCCBD4" d="M293,490.418v2c0,0,1.142-0.167,2.919-0.573l-0.093-1.985C294.087,490.255,293,490.418,293,490.418z"/>
			<path fill="#BCCBD4" d="M299,490.563v-2c0,0-0.651,0.68-2.731,1.195l0.034,1.982C298.331,491.229,299,490.563,299,490.563z"/>
			<path fill="#BCCBD4" d="M293,487.917v2c0,0,1.588-0.203,2.841-0.603l-0.092-1.981C294.508,487.72,293,487.917,293,487.917z"/>
			<path fill="#BCCBD4" d="M299,488.062v-2c0,0-0.84,0.476-2.816,1.14l0.034,1.978C298.147,488.527,299,488.062,299,488.062z"/>
		</g>
	</g>
</g>
<g>
	
		<radialGradient id="SVGID_26_" cx="532.0811" cy="497.501" r="18.6678" gradientTransform="matrix(-1.2445 -0.0115 -0.0063 0.4372 998.244 286.0976)" gradientUnits="userSpaceOnUse">
		<stop  offset="0" style="stop-color:#000100;stop-opacity:0.4"/>
		<stop  offset="1" style="stop-color:#000100;stop-opacity:0"/>
	</radialGradient>
	<ellipse fill="url(#SVGID_26_)" cx="333.562" cy="497.709" rx="24.062" ry="8.292"/>
	<g>
		<path fill="#E5E6E5" d="M319,496.172c0,0,7.001,4.696,15,4.696s14-4.696,14-4.696V480h-29V496.172z"/>
		<path fill="#464541" d="M317.125,480c0,0,8.053,5.868,17.062,5.868c9.012,0,15.938-5.868,15.938-5.868l-16-20L317.125,480z"/>
		<g opacity="0.1">
			<path fill="#464541" d="M334.062,485.868c6.11,0,10.938-2.695,13.938-4.433v1c-3,1.737-7.827,4.433-13.938,4.433
				c-6.303,0-12.062-2.866-15.062-4.593v-1C322,483.002,327.76,485.868,334.062,485.868z"/>
		</g>
		<path fill="#333333" d="M334,492c1.657,0,3,1.343,3,3v5.649c-1,0.137-1.963,0.219-3,0.219c-1.021,0-2-0.078-3-0.212V495
			C331,493.343,332.343,492,334,492z"/>
		<path opacity="0.15" fill="#000100" d="M335.132,461.26l-6.373,23.951c-6.509-1.523-11.634-5.211-11.634-5.211l17-20
			L335.132,461.26z"/>
		<g>
			<path fill="#BCCBD4" d="M328,490.418v2c0,0-1.017-0.167-2.794-0.573l0.03-1.985C326.976,490.255,328,490.418,328,490.418z"/>
			<path fill="#BCCBD4" d="M322,490.563v-2c0,0,0.776,0.68,2.856,1.195l-0.097,1.982C322.731,491.229,322,490.563,322,490.563z"/>
			<path fill="#BCCBD4" d="M328,487.917v2c0,0-1.463-0.203-2.716-0.603l0.029-1.981C326.555,487.72,328,487.917,328,487.917z"/>
			<path fill="#BCCBD4" d="M322,488.062v-2c0,0,0.965,0.476,2.941,1.14l-0.097,1.978C322.915,488.527,322,488.062,322,488.062z"/>
		</g>
		<g>
			<path fill="#BCCBD4" d="M339,490.418v2c0,0,1.142-0.167,2.919-0.573l-0.093-1.985C340.087,490.255,339,490.418,339,490.418z"/>
			<path fill="#BCCBD4" d="M345,490.563v-2c0,0-0.651,0.68-2.731,1.195l0.034,1.982C344.331,491.229,345,490.563,345,490.563z"/>
			<path fill="#BCCBD4" d="M339,487.917v2c0,0,1.588-0.203,2.841-0.603l-0.092-1.981C340.508,487.72,339,487.917,339,487.917z"/>
			<path fill="#BCCBD4" d="M345,488.062v-2c0,0-0.84,0.476-2.816,1.14l0.034,1.978C344.147,488.527,345,488.062,345,488.062z"/>
		</g>
	</g>
</g>
<g>
	<polygon fill="#B7814D" points="418,408.729 418,384 413.473,389 409.692,389 405.912,389 402,384 402,408.729 370.17,408.553 
		380.396,422 402,422 402,470 409.692,470 418,470 418,422 438.989,422 449.521,408.553 	"/>
	<polygon opacity="0.26" fill="#FFFFFF" points="410,470 402,470 402,422 380.396,422 370.17,408.553 402,408.729 402,384 
		405.912,389 410,389 	"/>
	<polygon fill="#B7814D" points="410,470 418,470 418,422 438.989,422 449.521,408.553 418,408.729 418,384 413.473,389 410,389 	
		"/>
</g>
<g>
	<g>
		<polygon fill="#8A643A" points="294,465.988 289,476 289,523 293.567,523 299,523 299,476 		"/>
		<g>
			<rect x="293" y="476" fill="#8A643A" width="6" height="47"/>
			<polygon fill="#A57E52" points="299,476 294.031,466 294,476 			"/>
			<rect x="289" y="476" fill="#8A643A" width="4" height="47"/>
			<rect x="289" y="476" opacity="0.26" fill="#FFFFFF" width="5" height="47"/>
			<polygon fill="#A57E52" points="294,476 294,465.988 289,476 			"/>
			<polygon opacity="0.26" fill="#FFFFFF" points="294,476 294,465.988 289,476 			"/>
		</g>
	</g>
	<path fill="#8A643A" d="M309,481.256c0-2.708-2.292-4.902-5-4.902c-2.708,0-5,2.194-5,4.902c0,0.048,0,41.744,0,41.744h10
		C309,523,309,481.304,309,481.256z"/>
	<path opacity="0.26" fill="#FFFFFF" d="M309,481.256c0-2.708-2.292-4.902-5-4.902c-2.708,0-5,2.194-5,4.902
		c0,0.048,0,41.744,0,41.744h10C309,523,309,481.304,309,481.256z"/>
	<path fill="#8A643A" d="M319,481.256c0-2.708-2.292-4.902-5-4.902c-2.708,0-5,2.194-5,4.902c0,0.048,0,41.744,0,41.744h10
		C319,523,319,481.304,319,481.256z"/>
	<path fill="#8A643A" d="M329,481.256c0-2.708-2.292-4.902-5-4.902s-5,2.194-5,4.902c0,0.048,0,41.744,0,41.744h10
		C329,523,329,481.304,329,481.256z"/>
	<path opacity="0.26" fill="#FFFFFF" d="M329,481.256c0-2.708-2.292-4.902-5-4.902s-5,2.194-5,4.902c0,0.048,0,41.744,0,41.744h10
		C329,523,329,481.304,329,481.256z"/>
	<path fill="#8A643A" d="M338,481.256c0-2.708-1.792-4.902-4.5-4.902s-4.5,2.194-4.5,4.902c0,0.048,0,41.744,0,41.744h9
		C338,523,338,481.304,338,481.256z"/>
	<path fill="#8A643A" d="M348,481.256c0-2.708-2.292-4.902-5-4.902s-5,2.194-5,4.902c0,0.048,0,41.744,0,41.744h10
		C348,523,348,481.304,348,481.256z"/>
	<path opacity="0.26" fill="#FFFFFF" d="M348,481.256c0-2.708-2.292-4.902-5-4.902s-5,2.194-5,4.902c0,0.048,0,41.744,0,41.744h10
		C348,523,348,481.304,348,481.256z"/>
	<path fill="#8A643A" d="M358,481.059c0-2.708-2.292-4.805-5-4.805c-2.708,0-5,2.294-5,5.002c0,0.048,0,41.744,0,41.744h10v-42
		h-0.008C357.994,481,358,481.105,358,481.059z"/>
</g>
<g>
	<g>
		<polygon fill="#8A643A" points="191,434.659 182,430.794 182,476.814 191,480.679 		"/>
		<polygon fill="#A57E52" points="186.5,423.417 182,430.794 191,434.659 		"/>
		<polygon opacity="0.26" fill="#FFFFFF" points="182,430.794 182,476.814 186.476,478.736 186.5,423.417 		"/>
	</g>
	<path fill="#8A643A" d="M236,458.897c0-2.66-2.105-8.534-4.5-8.534c-2.394,0-4.5,2.253-4.5,4.914c0,0.047,0,40.858,0,40.858
		l9,3.864C236,458.944,236,458.944,236,458.897z"/>
	<path fill="#8A643A" d="M227,455.033c0-2.66-2.105-8.533-4.5-8.533c-2.394,0-4.5,2.252-4.5,4.913c0,0.047,0,40.858,0,40.858
		l9,3.864C227,455.08,227,455.08,227,455.033z"/>
	<path fill="#8A643A" d="M218,451.169c0-2.661-2.105-8.533-4.5-8.533c-2.395,0-4.5,2.252-4.5,4.913c0,0.047,0,40.858,0,40.858
		l9,3.864C218,451.216,218,451.216,218,451.169z"/>
	<path fill="#8A643A" d="M209,447.305c0-2.661-1.605-8.533-4-8.533s-4,2.252-4,4.913c0,0.047,0,40.857,0,40.857l8,3.865
		C209,447.352,209,447.352,209,447.305z"/>
	<path fill="#8A643A" d="M201,443.441c0-2.661-2.605-8.534-5-8.534s-5,2.252-5,4.913c0,0.047,0,40.858,0,40.858l10,3.863
		C201,443.486,201,443.486,201,443.441z"/>
	<path opacity="0.26" fill="#FFFFFF" d="M236,458.897c0-2.66-2.105-8.534-4.5-8.534c-2.394,0-4.5,2.253-4.5,4.914
		c0,0.047,0,40.858,0,40.858l9,3.864C236,458.944,236,458.944,236,458.897z"/>
	<path opacity="0.26" fill="#FFFFFF" d="M218,451.169c0-2.661-2.105-8.533-4.5-8.533c-2.395,0-4.5,2.252-4.5,4.913
		c0,0.047,0,40.858,0,40.858l9,3.864C218,451.216,218,451.216,218,451.169z"/>
	<path opacity="0.26" fill="#FFFFFF" d="M201,443.441c0-2.661-2.605-8.534-5-8.534s-5,2.252-5,4.913c0,0.047,0,40.858,0,40.858
		l10,3.863C201,443.486,201,443.486,201,443.441z"/>
</g>
<g>
	<g>
		<polygon fill="#8A643A" points="470,466 464,476 464,523 469.941,523 476,523 476,476 		"/>
		<g>
			<rect x="470" y="476" fill="#8A643A" width="6" height="47"/>
			<polygon fill="#A57E52" points="476,476 470,466 470,476 			"/>
			<rect x="464" y="476" fill="#8A643A" width="6" height="47"/>
			<rect x="464" y="476" opacity="0.26" fill="#FFFFFF" width="6" height="47"/>
			<polygon fill="#A57E52" points="470,476 470,466 464,476 			"/>
			<polygon opacity="0.26" fill="#FFFFFF" points="470,476 470,466 464,476 			"/>
		</g>
	</g>
	<g>
		<polygon fill="#8A643A" points="364,466 358,476 358,523 363.941,523 370,523 370,476 		"/>
		<g>
			<rect x="364" y="476" fill="#8A643A" width="6" height="47"/>
			<polygon fill="#A57E52" points="370,476 364,466 364,476 			"/>
			<rect x="358" y="476" fill="#8A643A" width="6" height="47"/>
			<rect x="358" y="476" opacity="0.26" fill="#FFFFFF" width="6" height="47"/>
			<polygon fill="#A57E52" points="364,476 364,466 358,476 			"/>
			<polygon opacity="0.26" fill="#FFFFFF" points="364,476 364,466 358,476 			"/>
		</g>
	</g>
	<g>
		<g>
			<path fill="#8A643A" d="M417,486.298c-27,0-47-10.01-47-10.01V523h47V486.298z"/>
			<path opacity="0.26" fill="#FFFFFF" d="M417,486.298c-27,0-47-10.01-47-10.01V523h47V486.298z"/>
			<path fill="#8A643A" d="M404.967,506c0,2.304-1.072,4-2.396,4h-18.368c-1.323,0-2.396-1.696-2.396-4l0,0c0-2.304,1.072-4,2.396-4
				h18.368C403.895,502,404.967,503.696,404.967,506L404.967,506z"/>
		</g>
		<g>
			<path fill="#8A643A" d="M417,486.298c27,0,47-10.01,47-10.01V523h-47V486.298z"/>
			<path opacity="0.26" fill="#FFFFFF" d="M452.418,506c0,2.304-1.072,4-2.396,4h-18.369c-1.323,0-2.396-1.696-2.396-4l0,0
				c0-2.304,1.072-4,2.396-4h18.369C451.346,502,452.418,503.696,452.418,506L452.418,506z"/>
		</g>
	</g>
</g>
<g>
	<g>
		<polygon fill="#8A643A" points="135,408.815 126,404.782 126,452.806 135,456.838 		"/>
		<polygon fill="#A57E52" points="130.346,397.084 126,404.782 135.042,408.815 		"/>
		<polygon opacity="0.26" fill="#FFFFFF" points="135,408.815 135,456.838 129.803,454.598 130.314,397.084 		"/>
	</g>
	<path fill="#8A643A" d="M182,434.108c0-2.775-2.001-8.905-4.5-8.905c-2.498,0-4.5,2.351-4.5,5.128c0,0.049,0,42.637,0,42.637
		l9,4.032C182,434.157,182,434.157,182,434.108z"/>
	<path fill="#8A643A" d="M173,430.076c0-2.776-2.501-8.904-5-8.904s-5,2.35-5,5.127c0,0.049,0,42.637,0,42.637l10,4.032
		C173,430.125,173,430.125,173,430.076z"/>
	<path fill="#8A643A" d="M163,426.044c0-2.777-2.001-8.905-4.5-8.905s-4.5,2.351-4.5,5.127c0,0.05,0,42.637,0,42.637l9,4.033
		C163,426.093,163,426.093,163,426.044z"/>
	<path fill="#8A643A" d="M154,422.012c0-2.777-2.001-8.905-4.5-8.905s-4.5,2.351-4.5,5.127c0,0.049,0,42.636,0,42.636l9,4.033
		C154,422.061,154,422.061,154,422.012z"/>
	<path opacity="0.26" fill="#FFFFFF" d="M173,430.076c0-2.776-2.501-8.904-5-8.904s-5,2.35-5,5.127c0,0.049,0,42.637,0,42.637
		l10,4.032C173,430.125,173,430.125,173,430.076z"/>
	<path opacity="0.26" fill="#FFFFFF" d="M154,422.012c0-2.777-2.001-8.905-4.5-8.905s-4.5,2.351-4.5,5.127
		c0,0.049,0,42.636,0,42.636l9,4.033C154,422.061,154,422.061,154,422.012z"/>
	<path fill="#8A643A" d="M145,417.979c0-2.776-2.501-8.905-5-8.905s-5,2.35-5,5.127c0,0.049,0,42.637,0,42.637l10,4.031
		C145,418.026,145,418.026,145,417.979z"/>
</g>
<g>
	<g>
		<polygon fill="#8A643A" points="244,457.659 235,453.794 235,499.814 244,503.679 		"/>
		<polygon fill="#A57E52" points="239.5,446.417 235,453.794 244,457.659 		"/>
		<polygon opacity="0.26" fill="#FFFFFF" points="244,457.659 244,503.679 239,501.532 239.5,446.417 		"/>
	</g>
	<path fill="#8A643A" d="M289,481.897c0-2.66-2.105-8.534-4.5-8.534c-2.394,0-4.5,2.253-4.5,4.914c0,0.047,0,40.858,0,40.858
		l9,3.864C289,481.944,289,481.944,289,481.897z"/>
	<path fill="#8A643A" d="M280,478.033c0-2.66-2.105-8.533-4.5-8.533c-2.394,0-4.5,2.252-4.5,4.913c0,0.047,0,40.858,0,40.858
		l9,3.864C280,478.08,280,478.08,280,478.033z"/>
	<path fill="#8A643A" d="M271,474.169c0-2.661-2.105-8.533-4.5-8.533c-2.395,0-4.5,2.252-4.5,4.913c0,0.047,0,40.858,0,40.858
		l9,3.864C271,474.216,271,474.216,271,474.169z"/>
	<path fill="#8A643A" d="M262,470.305c0-2.661-1.605-8.533-4-8.533s-4,2.252-4,4.913c0,0.047,0,40.857,0,40.857l8,3.865
		C262,470.352,262,470.352,262,470.305z"/>
	<path opacity="0.26" fill="#FFFFFF" d="M280,478.033c0-2.66-2.105-8.533-4.5-8.533c-2.394,0-4.5,2.252-4.5,4.913
		c0,0.047,0,40.858,0,40.858l9,3.864C280,478.08,280,478.08,280,478.033z"/>
	<path opacity="0.26" fill="#FFFFFF" d="M262,470.305c0-2.661-1.605-8.533-4-8.533s-4,2.252-4,4.913c0,0.047,0,40.857,0,40.857
		l8,3.865C262,470.352,262,470.352,262,470.305z"/>
	<path fill="#8A643A" d="M254,466.441c0-2.661-2.605-8.534-5-8.534s-5,2.252-5,4.913c0,0.047,0,40.858,0,40.858l10,3.863
		C254,466.486,254,466.486,254,466.441z"/>
</g>
<g>
	<g>
		<polygon fill="#8A643A" points="540,465.988 545,476 545,523 540.433,523 535,523 535,476 		"/>
		<g>
			<rect x="535" y="476" fill="#8A643A" width="6" height="47"/>
			<polygon fill="#A57E52" points="535,476 539.969,466 540,476 			"/>
			<rect x="541" y="476" fill="#8A643A" width="4" height="47"/>
			<rect x="540" y="476" opacity="0.26" fill="#FFFFFF" width="5" height="47"/>
			<polygon fill="#A57E52" points="540,476 540,465.988 545,476 			"/>
			<polygon opacity="0.26" fill="#FFFFFF" points="540,476 540,465.988 545,476 			"/>
		</g>
	</g>
	<path fill="#8A643A" d="M525,481.256c0-2.708,2.292-4.902,5-4.902c2.707,0,5,2.194,5,4.902c0,0.048,0,41.744,0,41.744h-10
		C525,523,525,481.304,525,481.256z"/>
	<path opacity="0.26" fill="#FFFFFF" d="M525,481.256c0-2.708,2.292-4.902,5-4.902c2.707,0,5,2.194,5,4.902
		c0,0.048,0,41.744,0,41.744h-10C525,523,525,481.304,525,481.256z"/>
	<path fill="#8A643A" d="M515,481.256c0-2.708,2.293-4.902,5-4.902c2.708,0,5,2.194,5,4.902c0,0.048,0,41.744,0,41.744h-10
		C515,523,515,481.304,515,481.256z"/>
	<path fill="#8A643A" d="M505,481.256c0-2.708,2.292-4.902,5-4.902s5,2.194,5,4.902c0,0.048,0,41.744,0,41.744h-10
		C505,523,505,481.304,505,481.256z"/>
	<path opacity="0.26" fill="#FFFFFF" d="M505,481.256c0-2.708,2.292-4.902,5-4.902s5,2.194,5,4.902c0,0.048,0,41.744,0,41.744h-10
		C505,523,505,481.304,505,481.256z"/>
	<path fill="#8A643A" d="M496,481.256c0-2.708,1.793-4.902,4.5-4.902s4.5,2.194,4.5,4.902c0,0.048,0,41.744,0,41.744h-9
		C496,523,496,481.304,496,481.256z"/>
	<path fill="#8A643A" d="M486,481.256c0-2.708,2.292-4.902,5-4.902s5,2.194,5,4.902c0,0.048,0,41.744,0,41.744h-10
		C486,523,486,481.304,486,481.256z"/>
	<path opacity="0.26" fill="#FFFFFF" d="M486,481.256c0-2.708,2.292-4.902,5-4.902s5,2.194,5,4.902c0,0.048,0,41.744,0,41.744h-10
		C486,523,486,481.304,486,481.256z"/>
	<path fill="#8A643A" d="M476,481.059c0-2.708,2.292-4.805,5-4.805c2.707,0,5,2.294,5,5.002c0,0.048,0,41.744,0,41.744h-10v-42
		h0.008C476.006,481,476,481.105,476,481.059z"/>
</g>
<g>
	<g>
		<polygon fill="#8A643A" points="643,434.659 652,430.794 652,476.814 643,480.679 		"/>
		<polygon fill="#A57E52" points="647.5,423.417 652,430.794 643,434.659 		"/>
		<polygon opacity="0.26" fill="#FFFFFF" points="652,430.794 652,476.814 647.523,478.736 647.5,423.417 		"/>
	</g>
	<path fill="#8A643A" d="M598,458.897c0-2.66,2.105-8.534,4.5-8.534s4.5,2.253,4.5,4.914c0,0.047,0,40.858,0,40.858L598,500
		C598,458.944,598,458.944,598,458.897z"/>
	<path fill="#8A643A" d="M607,455.033c0-2.66,2.105-8.533,4.5-8.533s4.5,2.252,4.5,4.913c0,0.047,0,40.858,0,40.858l-9,3.864
		C607,455.08,607,455.08,607,455.033z"/>
	<path fill="#8A643A" d="M616,451.169c0-2.661,2.105-8.533,4.5-8.533s4.5,2.252,4.5,4.913c0,0.047,0,40.858,0,40.858l-9,3.864
		C616,451.216,616,451.216,616,451.169z"/>
	<path fill="#8A643A" d="M625,447.305c0-2.661,1.605-8.533,4-8.533s4,2.252,4,4.913c0,0.047,0,40.857,0,40.857l-8,3.865
		C625,447.352,625,447.352,625,447.305z"/>
	<path fill="#8A643A" d="M633,443.441c0-2.661,2.605-8.534,5-8.534s5,2.252,5,4.913c0,0.047,0,40.858,0,40.858l-10,3.863
		C633,443.486,633,443.486,633,443.441z"/>
	<path opacity="0.26" fill="#FFFFFF" d="M598,458.897c0-2.66,2.105-8.534,4.5-8.534s4.5,2.253,4.5,4.914c0,0.047,0,40.858,0,40.858
		L598,500C598,458.944,598,458.944,598,458.897z"/>
	<path opacity="0.26" fill="#FFFFFF" d="M616,451.169c0-2.661,2.105-8.533,4.5-8.533s4.5,2.252,4.5,4.913c0,0.047,0,40.858,0,40.858
		l-9,3.864C616,451.216,616,451.216,616,451.169z"/>
	<path opacity="0.26" fill="#FFFFFF" d="M633,443.441c0-2.661,2.605-8.534,5-8.534s5,2.252,5,4.913c0,0.047,0,40.858,0,40.858
		l-10,3.863C633,443.486,633,443.486,633,443.441z"/>
</g>
<g>
	<polygon fill="#8A643A" points="737,392.815 746,388.782 746,436.806 737,440.838 	"/>
	<polygon fill="#A57E52" points="741.654,381.084 746,388.782 736.959,392.815 	"/>
	<polygon opacity="0.26" fill="#FFFFFF" points="737,392.815 737,440.838 742.197,438.598 741.686,381.084 	"/>
</g>
<path fill="#8A643A" d="M652,434.108c0-2.775,2.001-8.905,4.5-8.905c2.498,0,4.5,2.351,4.5,5.128c0,0.049,0,42.637,0,42.637L652,477
	C652,434.157,652,434.157,652,434.108z"/>
<path fill="#8A643A" d="M661,430.076c0-2.776,2.502-8.904,5-8.904s5,2.35,5,5.127c0,0.049,0,42.637,0,42.637l-10,4.032
	C661,430.125,661,430.125,661,430.076z"/>
<path fill="#8A643A" d="M671,426.044c0-2.777,2.001-8.905,4.5-8.905s4.5,2.351,4.5,5.127c0,0.05,0,42.637,0,42.637l-9,4.033
	C671,426.093,671,426.093,671,426.044z"/>
<path fill="#8A643A" d="M680,422.012c0-2.777,2.001-8.905,4.5-8.905s4.5,2.351,4.5,5.127c0,0.049,0,42.636,0,42.636l-9,4.033
	C680,422.061,680,422.061,680,422.012z"/>
<path opacity="0.26" fill="#FFFFFF" d="M661,430.076c0-2.776,2.502-8.904,5-8.904s5,2.35,5,5.127c0,0.049,0,42.637,0,42.637
	l-10,4.032C661,430.125,661,430.125,661,430.076z"/>
<path opacity="0.26" fill="#FFFFFF" d="M680,422.012c0-2.777,2.001-8.905,4.5-8.905s4.5,2.351,4.5,5.127c0,0.049,0,42.636,0,42.636
	l-9,4.033C680,422.061,680,422.061,680,422.012z"/>
<path fill="#8A643A" d="M689,417.979c0-2.776,2.501-8.905,5-8.905s5,2.35,5,5.127c0,0.049,0,42.637,0,42.637l-10,4.031
	C689,418.026,689,418.026,689,417.979z"/>
<g>
	<path fill="#8A643A" d="M699,414.076c0-2.776,2.502-8.904,5-8.904s5,2.35,5,5.127c0,0.049,0,42.637,0,42.637l-10,4.032
		C699,414.125,699,414.125,699,414.076z"/>
	<path fill="#8A643A" d="M709,410.044c0-2.777,2.001-8.905,4.5-8.905s4.5,2.351,4.5,5.127c0,0.05,0,42.637,0,42.637l-9,4.033
		C709,410.093,709,410.093,709,410.044z"/>
	<path fill="#8A643A" d="M718,406.012c0-2.777,2.001-8.905,4.5-8.905s4.5,2.351,4.5,5.127c0,0.049,0,42.636,0,42.636l-9,4.033
		C718,406.061,718,406.061,718,406.012z"/>
	<path opacity="0.26" fill="#FFFFFF" d="M699,414.076c0-2.776,2.502-8.904,5-8.904s5,2.35,5,5.127c0,0.049,0,42.637,0,42.637
		l-10,4.032C699,414.125,699,414.125,699,414.076z"/>
	<path opacity="0.26" fill="#FFFFFF" d="M718,406.012c0-2.777,2.001-8.905,4.5-8.905s4.5,2.351,4.5,5.127c0,0.049,0,42.636,0,42.636
		l-9,4.033C718,406.061,718,406.061,718,406.012z"/>
	<path fill="#8A643A" d="M727,401.979c0-2.776,2.501-8.905,5-8.905s5,2.35,5,5.127c0,0.049,0,42.637,0,42.637l-10,4.031
		C727,402.026,727,402.026,727,401.979z"/>
</g>
<g>
	<g>
		<polygon fill="#8A643A" points="590,457.659 599,453.794 599,499.814 590,503.679 		"/>
		<polygon fill="#A57E52" points="594.5,446.417 599,453.794 590,457.659 		"/>
		<polygon opacity="0.26" fill="#FFFFFF" points="590,457.659 590,503.679 595,501.532 594.5,446.417 		"/>
	</g>
	<path fill="#8A643A" d="M545,481.897c0-2.66,2.105-8.534,4.5-8.534s4.5,2.253,4.5,4.914c0,0.047,0,40.858,0,40.858L545,523
		C545,481.944,545,481.944,545,481.897z"/>
	<path fill="#8A643A" d="M554,478.033c0-2.66,2.105-8.533,4.5-8.533s4.5,2.252,4.5,4.913c0,0.047,0,40.858,0,40.858l-9,3.864
		C554,478.08,554,478.08,554,478.033z"/>
	<path fill="#8A643A" d="M563,474.169c0-2.661,2.105-8.533,4.5-8.533s4.5,2.252,4.5,4.913c0,0.047,0,40.858,0,40.858l-9,3.864
		C563,474.216,563,474.216,563,474.169z"/>
	<path fill="#8A643A" d="M572,470.305c0-2.661,1.605-8.533,4-8.533s4,2.252,4,4.913c0,0.047,0,40.857,0,40.857l-8,3.865
		C572,470.352,572,470.352,572,470.305z"/>
	<path opacity="0.26" fill="#FFFFFF" d="M554,478.033c0-2.66,2.105-8.533,4.5-8.533s4.5,2.252,4.5,4.913c0,0.047,0,40.858,0,40.858
		l-9,3.864C554,478.08,554,478.08,554,478.033z"/>
	<path opacity="0.26" fill="#FFFFFF" d="M572,470.305c0-2.661,1.605-8.533,4-8.533s4,2.252,4,4.913c0,0.047,0,40.857,0,40.857
		l-8,3.865C572,470.352,572,470.352,572,470.305z"/>
	<path fill="#8A643A" d="M580,466.441c0-2.661,2.605-8.534,5-8.534s5,2.252,5,4.913c0,0.047,0,40.858,0,40.858l-10,3.863
		C580,466.486,580,466.486,580,466.441z"/>
</g>
<polygon fill="#6EC6E3" points="0,600 677.229,540 800,600 "/>
<path opacity="0.7" fill="#FFFFFF" d="M703.818,121c2.406-3.736,3.778-8.015,3.778-12.566c0-14.552-13.978-26.349-31.22-26.349
	c-6.314,0-12.187,1.587-17.1,4.307c-0.532-19.188-16.705-34.587-36.592-34.587c-14.959,0-27.816,8.717-33.498,21.202
	c-6.465-5.621-16.457-9.231-27.68-9.231c-13.799,0-25.739,5.454-31.543,13.397c-2.849-1.365-5.914-2.13-9.285-2.13
	c-12.042,0-21.68,9.762-21.68,21.805c0,0.002,0,0.004,0,0.006c0-0.001-0.359-0.006-0.477-0.006
	c-20.029,0-36.328,10.725-36.328,23.954c0,0.067-0.072,0.132-0.072,0.198H703.818z"/>
<path opacity="0.7" fill="#FFFFFF" d="M325.101,178c1.21-2.464,1.899-5.291,1.899-8.299c0-9.554-6.939-17.299-15.5-17.299
	c-5.213,0-9.814,2.882-12.625,7.286c-3.701-3.29-8.314-5.648-13.438-6.689c-3.568-19.93-23.666-35.195-47.926-35.195
	c-14.867,0-28.164,5.738-37.059,14.764C194.766,128.425,187.898,126,180.5,126c-19.606,0-35.5,17.013-35.5,38
	c0,4.946,0.893,9.666,2.498,14H325.101z"/>
</svg>
