<?xml version="1.0" encoding="utf-8"?>
<!-- Generator: Adobe Illustrator 15.1.0, SVG Export Plug-In . SVG Version: 6.00 Build 0)  -->
<!DOCTYPE svg PUBLIC "-//W3C//DTD SVG 1.1//EN" "http://www.w3.org/Graphics/SVG/1.1/DTD/svg11.dtd">
<svg version="1.1" id="Calque_1" xmlns="http://www.w3.org/2000/svg" xmlns:xlink="http://www.w3.org/1999/xlink" x="0px" y="0px"
	 width="114.895px" height="279.396px" viewBox="0 0 114.895 279.396" enable-background="new 0 0 114.895 279.396"
	 xml:space="preserve">
<g>
	<polygon fill="#EFDCCF" points="89.004,117.423 25.901,117.423 29.44,73.423 83.823,73.423 	"/>
	<path fill="#B3B3B3" d="M92.73,38.249c0,14.601-18.099,26.965-35.215,26.965c-17.116,0-35.215-12.364-35.215-26.965
		C22.3,23.647,40.399,0,57.515,0C74.631,0,92.73,23.647,92.73,38.249z"/>
	<path fill="#EBD3C3" d="M76.028,54.105l-2.29,18.434c0,0-4.361,3.912-16.089,3.912c-11.727,0-16.931-3.912-16.931-3.912
		l-2.001-16.682L76.028,54.105z"/>
	<polygon fill="#EFDCCF" points="38.826,23.423 34.292,30.689 38.717,55.893 47.495,65.848 54.96,68.423 61.294,68.423 
		69.112,65.831 76.028,54.07 81.616,31.049 77.662,23.423 	"/>
	<polygon fill="#EBD3C3" points="53.821,46.52 58.208,44.061 61.294,46.182 	"/>
	<g>
		<path fill="#FFFFFF" d="M50.229,37.154c-0.643-0.231-0.973-0.291-1.812-0.443c0.089,0.256,0.139,0.529,0.139,0.815
			c0,1.379-1.118,2.497-2.497,2.497c-1.379,0-2.497-1.118-2.497-2.497c0-0.546,0.178-1.05,0.475-1.46
			c-0.391-0.049-0.696-0.084-0.862-0.102c-0.922-0.096-2.877,1.806-2.852,2.906c0.025,1.101,2.086,1.313,2.449,1.355
			c0.364,0.042,3.89,0.479,5.298,0.169c1.408-0.311,3.59-1.651,3.557-2.164C51.595,37.717,50.873,37.385,50.229,37.154z"/>
		<path opacity="0.35" fill="#8CC63F" d="M46.06,40.023c1.379,0,2.497-1.118,2.497-2.497c0-0.286-0.05-0.559-0.139-0.815
			c-0.3-0.055-0.619-0.109-0.947-0.162c0.014,0.047,0.024,0.097,0.024,0.149c0,0.254-0.178,0.464-0.416,0.518
			c0.028,0.092,0.043,0.189,0.043,0.29c0,0.549-0.445,0.993-0.993,0.993s-0.993-0.444-0.993-0.993s0.445-0.993,0.993-0.993
			c0.113,0,0.22,0.02,0.321,0.054c0.016-0.06,0.039-0.115,0.072-0.165c-0.921-0.137-1.827-0.256-2.484-0.337
			c-0.297,0.411-0.475,0.915-0.475,1.46C43.563,38.905,44.681,40.023,46.06,40.023z"/>
		<path fill="#4D4D4D" d="M46.432,36.699c0-0.046,0.007-0.089,0.018-0.131c-0.101-0.035-0.208-0.054-0.321-0.054
			c-0.548,0-0.993,0.444-0.993,0.993s0.445,0.993,0.993,0.993s0.993-0.444,0.993-0.993c0-0.101-0.015-0.198-0.043-0.29
			c-0.037,0.008-0.076,0.013-0.116,0.013C46.669,37.229,46.432,36.992,46.432,36.699z"/>
		<path fill="#FFFFFF" d="M46.45,36.567c0.3,0.103,0.537,0.344,0.629,0.649c0.238-0.054,0.416-0.264,0.416-0.518
			c0-0.052-0.01-0.102-0.024-0.149c-0.312-0.05-0.631-0.1-0.949-0.146C46.489,36.453,46.466,36.508,46.45,36.567z"/>
		<path fill="#FFFFFF" d="M46.45,36.567c-0.011,0.042-0.018,0.085-0.018,0.131c0,0.293,0.237,0.531,0.531,0.531
			c0.04,0,0.079-0.005,0.116-0.013C46.987,36.912,46.75,36.67,46.45,36.567z"/>
	</g>
	<g>
		<path fill="#FFFFFF" d="M64.436,37.154c0.643-0.231,0.973-0.291,1.811-0.443c-0.088,0.256-0.139,0.529-0.139,0.815
			c0,1.379,1.118,2.497,2.498,2.497c1.379,0,2.496-1.118,2.496-2.497c0-0.546-0.178-1.05-0.475-1.46
			c0.393-0.049,0.696-0.084,0.862-0.102c0.923-0.096,2.878,1.806,2.853,2.906c-0.025,1.101-2.087,1.313-2.45,1.355
			c-0.362,0.042-3.89,0.479-5.298,0.169c-1.408-0.311-3.59-1.651-3.557-2.164C63.071,37.717,63.792,37.385,64.436,37.154z"/>
		<path opacity="0.35" fill="#8CC63F" d="M68.606,40.023c-1.38,0-2.498-1.118-2.498-2.497c0-0.286,0.051-0.559,0.139-0.815
			c0.301-0.055,0.619-0.109,0.947-0.162c-0.014,0.047-0.022,0.097-0.022,0.149c0,0.254,0.177,0.464,0.414,0.518
			c-0.028,0.092-0.043,0.189-0.043,0.29c0,0.549,0.444,0.993,0.993,0.993s0.993-0.444,0.993-0.993s-0.444-0.993-0.993-0.993
			c-0.111,0-0.22,0.02-0.32,0.054c-0.016-0.06-0.039-0.115-0.072-0.165c0.922-0.137,1.827-0.256,2.484-0.337
			c0.297,0.411,0.475,0.915,0.475,1.46C71.102,38.905,69.985,40.023,68.606,40.023z"/>
		<path fill="#4D4D4D" d="M68.233,36.699c0-0.046-0.007-0.089-0.018-0.131c0.101-0.035,0.209-0.054,0.32-0.054
			c0.549,0,0.993,0.444,0.993,0.993s-0.444,0.993-0.993,0.993s-0.993-0.444-0.993-0.993c0-0.101,0.015-0.198,0.043-0.29
			c0.038,0.008,0.076,0.013,0.116,0.013C67.996,37.229,68.233,36.992,68.233,36.699z"/>
		<path fill="#FFFFFF" d="M68.215,36.567c-0.301,0.103-0.537,0.344-0.63,0.649c-0.237-0.054-0.414-0.264-0.414-0.518
			c0-0.052,0.009-0.102,0.022-0.149c0.312-0.05,0.631-0.1,0.949-0.146C68.176,36.453,68.2,36.508,68.215,36.567z"/>
		<path fill="#FFFFFF" d="M68.215,36.567c0.011,0.042,0.018,0.085,0.018,0.131c0,0.293-0.237,0.531-0.531,0.531
			c-0.04,0-0.078-0.005-0.116-0.013C67.678,36.912,67.915,36.67,68.215,36.567z"/>
	</g>
	<polygon opacity="0.4" fill="#C1272D" points="49.477,55.542 54.641,59.423 61.221,59.423 67.635,55.542 61.138,55.423 
		55.474,55.423 	"/>
	<polygon fill="#B3B3B3" points="63.458,34.178 71.112,32.943 76.547,34.526 72.659,31.806 68.292,32.083 	"/>
	<polygon fill="#B3B3B3" points="51.684,34.178 44.031,32.943 38.595,34.526 42.484,31.806 46.851,32.083 	"/>
	<path fill="#BEBEBE" d="M82.624,21.586c-0.844-2.164-3.255-3.726-6.1-3.726c-0.508,0-1.001,0.052-1.474,0.146
		c-1.148-0.908-2.69-1.464-4.388-1.464c-1.895,0-3.596,0.692-4.771,1.793c-1.168-1.353-3.058-2.233-5.193-2.233
		c-1.026,0-1.996,0.205-2.857,0.567c-0.861-0.362-1.831-0.567-2.857-0.567c-2.368,0-4.434,1.083-5.548,2.692
		c-1.135-0.854-2.63-1.374-4.27-1.374c-2.649,0-4.923,1.355-5.905,3.289c-1.031-0.595-2.277-0.943-3.62-0.943
		c-3.205,0-5.86,1.981-6.343,4.572c-2.049,0.905-3.449,2.717-3.449,4.806c0,2.994,2.875,5.422,6.422,5.422
		c3.205,0,5.861-1.982,6.343-4.573c1.307-0.578,2.348-1.521,2.932-2.672c1.031,0.594,2.277,0.943,3.62,0.943
		c2.367,0,4.435-1.082,5.548-2.691c1.135,0.854,2.631,1.373,4.271,1.373c1.027,0,1.997-0.204,2.857-0.566
		c0.861,0.362,1.831,0.566,2.857,0.566c1.895,0,3.597-0.692,4.771-1.794c1.168,1.354,3.059,2.233,5.193,2.233
		c0.508,0,1.001-0.051,1.475-0.145c0.925,0.731,2.104,1.234,3.416,1.402c0.844,2.164,3.256,3.726,6.1,3.726
		c3.547,0,6.423-2.428,6.423-5.422C88.076,24.23,85.709,21.981,82.624,21.586z"/>
	<polygon fill="#665891" points="114.895,234.423 0,234.423 17.118,160.948 28.176,106.785 31.073,73.423 35.571,73.423 
		34.607,106.423 80.557,106.423 79.944,73.423 83.823,73.423 86.776,107.198 97.778,161.12 	"/>
	<polygon fill="#EFDCCF" points="51.113,234.423 49.958,274.423 33.304,274.423 27.008,234.423 	"/>
	<polygon fill="#EFDCCF" points="59.377,234.423 60.437,274.423 77.09,274.423 82.965,234.423 	"/>
	<polygon opacity="0.3" points="15.248,163.423 88.012,163.423 99.225,174.863 90.848,158.301 	"/>
	<path fill="#603813" d="M46.509,279.38l4.604-0.84c0,0-0.581-7.292-1.583-8.301c-1.003-1.008-5.698-2.655-6.543-2.793
		c-0.845-0.137-3.074-0.62-4.508,0c-1.434,0.621-4.309,2.896-5.082,4.473c-0.773,1.578-1.182,6.414-1.182,6.414l6.264,1.062
		L46.509,279.38z"/>
	<path fill="#603813" d="M63.969,279.38l-4.603-0.84c0,0,0.58-7.292,1.583-8.301c1.003-1.008,5.698-2.655,6.543-2.793
		c0.846-0.137,3.074-0.62,4.508,0c1.434,0.621,4.309,2.896,5.082,4.473c0.773,1.578,1.182,6.414,1.182,6.414L72,279.396
		L63.969,279.38z"/>
	<path fill="#EFDCCF" d="M6.54,122.968l0.76-6.262c0,0,12.973-34.683,15.141-40.387c2.167-5.705,15.476-3.024,15.476-3.024
		L19.503,121.28l-0.041,0.005l2.245,43.681l4.179,0.724l2.178,2.081l1.856,1.782l3.249,7.119l-1.892,0.636l-1.607-3.886
		l-1.399-1.246l-1.116-0.1l-0.943,0.839l0.351,2.794l1.871,7.115l-1.792,0.537l-2.183-7.208l-0.742,0.24l2.528,9.67l-1.975,0.375
		l-2.43-9.46l-1.163,0.556l2.177,7.596l-1.822,0.346l-2.007-7.286l-1.306,0.47l1.621,5.332l-1.444,0.273l-1.587-5.347l-2.266-4.995
		l0.926-8.23L6.54,122.968z"/>
	<path fill="#EFDCCF" d="M108.82,122.968l-0.76-6.262c0,0-12.974-34.683-15.141-40.387s-15.476-3.024-15.476-3.024l18.413,47.985
		l0.04,0.005l-2.244,43.681l-4.179,0.724l-2.177,2.081l-1.857,1.782l-3.248,7.119l1.891,0.636l1.607-3.886l1.399-1.246l1.116-0.1
		l0.941,0.839l-0.35,2.794l-1.871,7.115l1.792,0.537l2.183-7.208l0.741,0.24l-2.528,9.67l1.976,0.375l2.43-9.46l1.163,0.556
		l-2.178,7.596l1.822,0.346l2.006-7.286l1.307,0.47l-1.621,5.332l1.443,0.273l1.588-5.347l2.266-4.995l-0.926-8.23L108.82,122.968z"
		/>
	<polygon fill="#665891" points="26.906,112.915 28.176,106.852 31.073,72.423 35.571,72.423 34.607,106.423 80.557,106.423 
		79.347,72.423 83.226,72.423 86.776,106.997 88.15,113.729 	"/>
</g>
</svg>
