<?xml version="1.0" encoding="utf-8"?>
<!-- Generator: Adobe Illustrator 15.1.0, SVG Export Plug-In . SVG Version: 6.00 Build 0)  -->
<!DOCTYPE svg PUBLIC "-//W3C//DTD SVG 1.1//EN" "http://www.w3.org/Graphics/SVG/1.1/DTD/svg11.dtd">
<svg version="1.1" id="Calque_1" xmlns="http://www.w3.org/2000/svg" xmlns:xlink="http://www.w3.org/1999/xlink" x="0px" y="0px"
	 width="821.661px" height="160.52px" viewBox="0 0 821.661 160.52" enable-background="new 0 0 821.661 160.52"
	 xml:space="preserve">
<path fill="#005E2D" d="M0,143.316v-32.629l15.797-19.086l6.838-20.354l11.052-30.535L46.422,6.785L66.785,0l16.118,3.393
	l15.562,14.418L103,39.863v22.479l7,3.815v16.54l10,10.602l10,15.266v34.752l23.315-2.6l16.958-12.723c0,0-7.086-5.937,0.547-10.178
	c7.634-4.24,8.179-4.24,8.179-4.24v-9.329l-5.85-9.541l-1.018-13.36l6.277-11.026l9.713-11.875l20.334-4.24l11.968,5.089L229,77.105
	v18.236l-6.253,15.689l-4.187,6.785l3.42,9.329l15.28,5.09l14.426,10.179l9.334,14.418l13.98,1.021l14.86-2.795l16.386-9.329
	l8.754-3.395v-21.626l-4.3-8.059c0,0-3.211-17.812-1.515-20.356c1.697-2.545,12.814-14.419,12.814-14.419l14.464-7.634l18.683,1.697
	l14.43,9.33l10.184,18.659l-4.238,22.052l-5.935,20.355l-11.874,10.012l13.954,3.174h36l18.224,2.764l7.109-2.377V138.52
	l-6.261-10.813l-3.979-17.601l6.916-17.812l17.03-10.178l16.147,2.544l14.436,5.089l7.642,21.205l-5.934,16.753l-1.694,16.325
	l15.268,11.026l14.431,0.129l10.667-1.334l10.666,0.667l7.494,4.91l5.173-4.243l8.397-5.47l16.965-9.329l16.962-9.33l5.09-21.204
	l8.481-20.357l5.938-20.354l16.115-8.482l19.508,4.24l14.419,21.206l11.259,30.109L672,147.173v10.603l19.912-63.63L707,87.361
	l10-13.146V62.342l-5.98-28.415l6.551-16.116l23.42-10.178l21.252,0.85l9.075,12.722L777,36.471v16.965l-6.719,20.779l-3.572,6.361
	l9.664,11.025l20.735,9.331l16.094,15.812l8.459,43.774H0V143.316z"/>
</svg>
