<?xml version="1.0" encoding="utf-8"?>
<!-- Generator: Adobe Illustrator 15.1.0, SVG Export Plug-In . SVG Version: 6.00 Build 0)  -->
<!DOCTYPE svg PUBLIC "-//W3C//DTD SVG 1.1//EN" "http://www.w3.org/Graphics/SVG/1.1/DTD/svg11.dtd">
<svg version="1.1" id="Calque_1" xmlns="http://www.w3.org/2000/svg" xmlns:xlink="http://www.w3.org/1999/xlink" x="0px" y="0px"
	 width="855.33px" height="160.52px" viewBox="-33.669 0 855.33 160.52" enable-background="new -33.669 0 855.33 160.52"
	 xml:space="preserve">
<path fill="#005E2D" d="M-24.669,114.76l15-9l15-17l17.304-17.513l11.052-30.535L46.422,6.785L66.785,0l16.118,3.393l15.562,14.418
	L103,39.863v22.479l7,3.815v16.54l10,10.602l10,15.266v34.752l23.315-2.6l16.958-12.723c0,0-7.086-5.938,0.547-10.179
	c7.634-4.239,8.179-4.239,8.179-4.239v-9.329l-5.85-9.541l-1.018-13.36l6.277-11.026l9.713-11.875l20.334-4.239l11.968,5.089
	L229,77.105v18.236l-6.253,15.688l-4.187,6.785l3.42,9.329l15.28,5.09l14.426,10.18l9.334,14.418l13.98,1.021l14.86-2.795
	l16.386-9.329l8.754-3.395v-21.626l-4.3-8.06c0,0-3.211-17.812-1.515-20.355c1.697-2.545,12.814-14.419,12.814-14.419l14.464-7.634
	l18.683,1.696l14.43,9.33l10.184,18.659l-4.238,22.052l-5.935,20.355l-11.874,10.012l13.954,3.174h36l18.224,2.765l7.109-2.378
	V138.52l-6.262-10.812l-3.979-17.602l6.916-17.812l17.029-10.178l16.146,2.544l14.438,5.089l7.641,21.205l-5.934,16.753
	l-1.693,16.325l15.268,11.025l14.432,0.129l10.666-1.334l10.666,0.667l7.494,4.91l5.174-4.243l8.396-5.47l16.965-9.329l16.963-9.33
	l5.09-21.204l8.48-20.356l5.938-20.354l16.115-8.481l19.508,4.239l14.42,21.206l11.258,30.109L672,147.173v10.603l19.912-63.63
	L707,87.361l10-13.146V62.342l-5.98-28.415l6.551-16.116l23.42-10.178l21.252,0.85l9.076,12.723L777,36.471v16.965l-6.719,20.779
	l-3.572,6.361l9.664,11.024l20.734,9.331l16.094,15.812l8.459,43.773h-855.33L-24.669,114.76z"/>
</svg>
