<?xml version="1.0" encoding="utf-8"?>
<!-- Generator: Adobe Illustrator 15.1.0, SVG Export Plug-In . SVG Version: 6.00 Build 0)  -->
<!DOCTYPE svg PUBLIC "-//W3C//DTD SVG 1.1//EN" "http://www.w3.org/Graphics/SVG/1.1/DTD/svg11.dtd">
<svg version="1.1" id="Calque_1" xmlns="http://www.w3.org/2000/svg" xmlns:xlink="http://www.w3.org/1999/xlink" x="0px" y="0px"
	 width="227.13px" height="357.836px" viewBox="0 0 227.13 357.836" enable-background="new 0 0 227.13 357.836"
	 xml:space="preserve">
<g>
	<polygon fill="#F7CA83" points="80.836,45.637 88.908,73.334 83.739,75.295 81.183,76.652 78.075,75.996 73.457,76.652 
		75.139,70.579 74.391,66.789 75.692,64.505 76.445,60.575 75.139,57.781 73.457,54.137 73.959,50.027 75.019,47.585 74.893,45.153 
			"/>
	<polygon fill="#F7CA83" points="128.32,47.138 118.114,74.456 123.283,76.418 125.853,75.745 128.947,77.119 133.063,76.322 
		130.77,71.654 132.13,69.828 131.328,65.629 128.947,61.705 131.188,59.041 130.349,56.241 132.13,52.315 132.002,48.707 
		132.13,46.275 	"/>
	<path fill="#DE9D7E" d="M135.367,33.742c0,0,2.569,5.135-1.389,12.229l-5.157,1.167l2.214-12.818L135.367,33.742z"/>
	<polygon fill="#8C6239" points="146.42,353.303 140.291,347.826 124.363,349.765 120.992,353.979 120.358,340.642 116.144,321.045 
		115.723,291.311 109.185,259.715 109.456,248.102 104.18,244.085 98.54,248.102 97.604,264.954 96.34,313.611 92.124,335.575 
		91.914,353.979 82.44,347.16 75.075,345.499 68.254,347.826 61.706,353.303 62.796,329.539 59.246,294.625 61.429,250.07 
		57.337,227.335 58.688,192.699 149.436,192.699 146.02,237.638 148.264,255.327 145.474,287.943 147.35,303.913 145.203,327.869 
		146.58,344.837 	"/>
	<polygon fill="#E2A28A" points="149.776,192.699 58.671,192.699 58.729,109.082 66.398,79.743 84.301,77.828 121.054,77.828 
		150.591,81.383 149.797,109.23 	"/>
	<polygon fill="#42210B" points="82.223,357.139 92.759,356.78 83.759,346.8 77.609,344.065 71.706,344.065 65.052,349.155 
		63.503,355.748 71.706,356.966 	"/>
	<polygon fill="#42210B" points="123.644,357.836 118.697,356.78 122.457,347.339 132.795,344.065 138.698,344.065 145.354,349.155 
		146.9,355.748 138.698,356.966 	"/>
	<path fill="#DE9D7E" d="M82.797,60.362l2.139,18.323c0,0,4.85,4.82,17.885,4.82c13.038,0,18.826-4.82,18.826-4.82l2.137-17.746
		L82.797,60.362z"/>
	<polygon fill="#E8A990" points="79.142,23.084 78.221,30.835 81.644,67.632 99.2,75.166 112.437,73.559 126.58,65.84 
		131.32,32.334 129.938,23.084 	"/>
	<path fill="#DE9D7E" d="M74.331,33.742c0,0-3.69,5.135,0.27,12.229l5.158,1.167l-1.192-12.898L74.331,33.742z"/>
	<polygon fill="#DE9D7E" points="96.657,50.027 104.632,46.275 113.007,50.401 	"/>
	<g>
		<path fill="#FFFFFF" d="M110.798,42.076c0.873-2.88,7.396-4.83,9.097-4.666c1.705,0.166,3.116,1.014,3.19,2.44
			c0.073,1.428-1.411,3.554-2.556,4.117c-1.144,0.567-4.229,0.651-5.777,0.356C113.201,44.03,110.562,42.854,110.798,42.076z"/>
		<path fill="#603813" d="M114.279,41.125c0,1.506,1.219,2.728,2.727,2.728c1.505,0,2.729-1.221,2.729-2.728
			c0-1.507-1.224-2.728-2.729-2.728C115.498,38.397,114.279,39.618,114.279,41.125z"/>
		<path fill="#333333" d="M118.21,41.103c0,0.6-0.485,1.083-1.085,1.083c-0.599,0-1.086-0.484-1.086-1.083
			c0-0.598,0.487-1.084,1.086-1.084C117.725,40.019,118.21,40.505,118.21,41.103z"/>
		<path fill="#FFFFFF" d="M118.615,40.222c0,0.322-0.259,0.581-0.58,0.581c-0.322,0-0.579-0.259-0.579-0.581
			c0-0.32,0.257-0.582,0.579-0.582C118.356,39.64,118.615,39.902,118.615,40.222z"/>
	</g>
	<polygon opacity="0.27" fill="#C1272D" enable-background="new    " points="95.489,60.693 101.131,62.272 108.316,62.272 
		114.977,60.514 108.228,58.084 102.04,58.084 	"/>
	<polygon fill="#DE9D7E" points="98.001,67.766 100.402,65.263 108.771,65.263 110.762,67.766 108.316,66.925 101.131,66.231 	"/>
	<polygon fill="#F7CA83" points="109.554,38.648 119.157,36.57 125.171,37.203 121.326,33.861 113.843,35.212 	"/>
	<polygon fill="#F7CA83" points="100.509,38.648 90.905,36.57 84.893,37.203 88.735,33.861 96.219,35.212 	"/>
	<path fill="#F7CA83" d="M130.819,21.626l-0.752-4.203l-8.827,0.701l-3.833-0.701l-6.134,0.701l-6.641,1.019l-6.639-1.019
		l-6.136-0.701l-3.831,0.701l-8.828-0.701l-0.418,2.663c0,0,1.12,0.911,1.12,1.331c0,0.42-1.26,1.892-1.26,1.892l-1.25,6.21
		l-2.558,3.115l0.171,1.247l3.061,0.359l2.21-3.269l-0.093,1.312l2.922-1.402l2.047-2.428l5.097,0.281l4.741-1.215l3.878,1.308
		l3.446-1.23l4.073,0.758l3.875-0.835l2.712,1.19l6.26-1.19l4.05,2.383l3.562,0.361l1.349,2.722l0.555,4.139l1.786-2.802l2.529-0.2
		v-3.245l-1.168-1.356c0,0-1.077-4.107-1.077-4.528C130.819,24.57,130.819,21.626,130.819,21.626z"/>
	<polygon fill="#F7CA83" points="119.979,65.629 119.979,63.106 119.233,61.697 119.233,57.781 117.708,55.118 117.407,52.456 
		115.538,51.616 112.506,51.616 109.47,51.616 104.329,50.493 99.086,51.616 96.05,51.616 93.017,51.616 91.146,52.456 
		90.846,55.118 89.322,57.781 89.322,61.697 88.575,63.106 88.575,65.629 86.871,70.079 89.547,71.228 91.019,69.132 91.601,66.789 
		91.146,63.947 92.12,62.265 93.017,58.726 93.017,56.8 94.777,56.379 97.405,55.679 99.507,55.959 102.029,54.698 104.329,54.861 
		106.526,54.698 109.05,55.959 111.15,55.679 113.777,56.379 115.538,56.8 115.538,58.726 116.435,62.265 117.407,63.947 
		116.955,66.789 117.535,67.948 118.768,69.828 120.77,68.736 	"/>
	<g>
		<path fill="#FFFFFF" d="M98.409,42.076c-0.872-2.88-7.394-4.83-9.094-4.666c-1.706,0.166-3.117,1.014-3.19,2.44
			c-0.075,1.428,1.41,3.554,2.555,4.117c1.145,0.567,4.23,0.651,5.776,0.356C96.007,44.03,98.647,42.854,98.409,42.076z"/>
		<path fill="#603813" d="M89.615,41.125c0,1.506,1.221,2.728,2.728,2.728c1.505,0,2.729-1.221,2.729-2.728
			c0-1.507-1.224-2.728-2.729-2.728C90.836,38.397,89.615,39.618,89.615,41.125z"/>
		<path fill="#333333" d="M93.548,41.103c0,0.6-0.484,1.083-1.086,1.083c-0.599,0-1.085-0.484-1.085-1.083
			c0-0.598,0.486-1.084,1.085-1.084C93.063,40.019,93.548,40.505,93.548,41.103z"/>
		<path fill="#FFFFFF" d="M93.953,40.222c0,0.322-0.259,0.581-0.579,0.581c-0.323,0-0.58-0.259-0.58-0.581
			c0-0.32,0.257-0.582,0.58-0.582C93.694,39.64,93.953,39.902,93.953,40.222z"/>
	</g>
	<g>
		<g>
			<path fill="#E6E6E6" d="M131.13,13.163l-9.643-8.323L104.905,0L88.322,4.84l-9.643,8.323l-1.027,15.933
				c0,0,10.329-3.359,27.253-3.359c16.923,0,27.252,3.359,27.252,3.359L131.13,13.163z"/>
			<path fill="#D7A265" d="M104.905,20.973c-15.293,0-25.172,2.735-26.94,3.263l-0.312,4.86c0,0,10.329-3.359,27.253-3.359
				c16.923,0,27.252,3.359,27.252,3.359l-0.312-4.86C130.076,23.708,120.195,20.973,104.905,20.973z"/>
		</g>
		<path fill="#D7A265" d="M104.904,17.819c14.366,0,24.151,2.421,26.729,3.154l-0.311-4.824c-3.183-0.86-12.88-3.093-26.419-3.093
			c-13.538,0-23.235,2.215-26.417,3.075l-0.311,4.842C80.754,20.241,90.54,17.819,104.904,17.819z"/>
	</g>
	<polygon fill="#754C24" points="73.457,94.241 108.093,97.399 116.434,94.241 132.002,95.82 133.063,108.453 134.412,126.087 
		140.466,133.72 139.11,152.146 143.226,161.881 142.045,177.409 140.466,192.147 144.939,226.362 123.283,231.889 111.252,228.204 
		106.514,230.573 90.195,225.836 75.194,229.784 69.141,233.731 54.665,233.731 62.298,216.039 60.508,194.518 64.492,166.092 
		70.271,152.932 67.299,143.985 70.271,128.982 72.299,116.612 	"/>
	<polygon fill="#603813" points="76.12,77.648 85.531,104.178 78.973,105.373 70.271,78.25 	"/>
	<polygon fill="#603813" points="78.018,149.317 77.75,156.052 58.434,156.226 58.088,149.19 	"/>
	<polygon fill="#603813" points="150.649,148.875 150.643,154.735 130.51,155.385 129.905,149.225 	"/>
	<polygon fill="#603813" points="129.957,78.132 121.099,104.92 127.447,106.236 135.597,78.856 	"/>
	<g>
		<polygon fill="#E8A990" points="175.688,132.552 167.902,105.72 159.258,86.831 150.9,80.378 142.482,80.145 138.05,88.912 
			137.965,101.862 139.944,116.513 149.295,132.86 159.008,141.542 155.955,148.245 157.33,156.775 162.99,161.043 171.937,158.84 
			176.312,153.047 175.007,147.256 176.696,140.456 		"/>
	</g>
	<g>
		<polygon fill="#E8A990" points="34.927,132.552 42.713,105.72 51.358,86.831 59.716,80.378 68.134,80.145 72.567,88.912 
			72.652,101.862 70.671,116.513 61.321,132.86 51.609,141.542 54.662,148.245 53.285,156.775 47.627,161.043 38.68,158.84 
			34.305,153.047 35.61,147.256 33.92,140.456 		"/>
	</g>
	<polygon fill="#EBB49E" points="207.89,155.163 223.826,152.729 227.13,153.925 221.373,156.231 211.99,158.844 210.889,162.417 
		207.89,163.98 203.456,163.98 201.528,158.795 197.124,155.363 	"/>
	<polygon fill="#F7CA83" points="4.424,153.908 6.631,166.549 5.529,174.532 6.635,183.616 6.635,192.699 23.423,192.699 
		29.07,192.699 29.07,186.095 29.07,176.459 27.485,170.403 26.969,163.987 30.839,161.043 28.375,154.194 20.116,145.903 	"/>
	<polygon fill="#FFFFFF" points="221.373,152.13 202.905,156.226 185.013,158.84 143.445,156.226 118.615,161.043 95.489,154.437 
		78.385,152.692 62.513,158.84 30.305,153.886 15.716,156.226 0,153 3.878,128.01 15.716,119.476 32.508,118.925 45.996,123.743 
		72.652,118.375 102.152,120.594 126.091,119.476 152.519,113.695 170.757,118.281 191.472,131.541 207.25,143.089 	"/>
	<polygon fill="#F2F2F2" points="68.509,133.791 80.841,130.67 87.46,135.304 100.297,134.21 109.31,138.852 115.642,138.852 
		119.953,141.363 116.283,137.356 109.861,137.356 101.051,132.133 87.837,133.788 81.231,128.284 	"/>
	<polygon fill="#F2F2F2" points="169.688,133.103 178.312,135.327 179.597,142.245 186.57,144.441 189.691,148.878 195.779,149.191 
		197.188,152.13 197.188,147.83 190.274,147.739 187.138,142.616 180.339,141.315 179.235,134.8 	"/>
	<polygon fill="#F2F2F2" points="121.604,155.43 131.323,148.897 140.142,151.237 144.361,149.196 150.592,152.724 153.722,150.52 
		150.602,150.52 145.441,147.156 139.039,149.175 131.32,147.18 	"/>
	<polygon fill="#F2F2F2" points="9.199,143.38 7.364,138.785 15.787,134.72 15.065,129.254 23.686,127.184 23.686,123.054 
		22.039,125.716 12.959,127.552 13.785,133.515 5.161,138.763 	"/>
	<g>
		<polygon fill="#EBB49E" points="34.688,158.84 33.681,150.134 34.99,142.886 61.284,114.214 57.145,111.355 54.842,106.809 
			54.676,102.603 58.927,90.534 61.876,91.927 59.36,98.33 59.598,101.382 60.792,102.769 62.857,102.851 66.99,96.405 
			73.959,85.079 76.676,86.478 69.974,98.271 71.12,98.826 80.211,83.744 82.964,85.543 73.992,100.266 75.994,100.932 
			83.145,88.692 85.682,90.349 78.682,102.032 80.751,102.961 85.991,94.015 88.002,95.332 82.705,104.26 77.171,115.14 
			68.333,119.675 54.456,150.537 53.285,156.775 47.6,161.104 		"/>
	</g>
	<g>
		<polygon fill="#EBB49E" points="175.634,158.84 176.643,150.134 175.332,142.886 149.039,114.214 153.178,111.355 
			155.479,106.809 155.647,102.603 151.396,90.534 148.447,91.927 150.961,98.33 150.725,101.382 149.53,102.769 147.465,102.851 
			143.333,96.405 136.364,85.079 133.646,86.478 140.35,98.271 139.201,98.826 130.11,83.744 127.358,85.543 136.329,100.266 
			134.329,100.932 127.178,88.692 124.64,90.349 131.642,102.032 129.572,102.961 124.332,94.015 122.32,95.332 127.617,104.26 
			133.151,115.14 141.99,119.675 155.866,150.537 157.038,156.775 162.723,161.104 		"/>
	</g>
</g>
</svg>
