<?xml version="1.0" encoding="utf-8"?>
<!-- Generator: Adobe Illustrator 15.1.0, SVG Export Plug-In . SVG Version: 6.00 Build 0)  -->
<!DOCTYPE svg PUBLIC "-//W3C//DTD SVG 1.1//EN" "http://www.w3.org/Graphics/SVG/1.1/DTD/svg11.dtd">
<svg version="1.1" xmlns="http://www.w3.org/2000/svg" xmlns:xlink="http://www.w3.org/1999/xlink" x="0px" y="0px" width="800px"
	 height="600px" viewBox="0 0 800 600" enable-background="new 0 0 800 600" xml:space="preserve">
<g id="Calque_1">
	<g>
		<rect fill="#060314" width="800" height="600"/>
		<g>
			<path opacity="0.3" fill="#172E4D" d="M808.361-208.653L400-406.782L-8.359-208.653l-198.169,408.4L-8.359,608.114L400,806.275
				l408.361-198.161l198.167-408.367L808.361-208.653z M706.27,506.009L400,654.635L93.733,506.009L-54.902,199.747l148.635-306.29
				L400-255.135l306.27,148.592l148.633,306.29L706.27,506.009z"/>
			<path opacity="0.4" fill="#172E4D" d="M706.27-106.21L400-254.8L93.733-106.21L-54.902,200.084l148.635,306.26L400,654.971
				l306.27-148.627l148.633-306.26L706.27-106.21z M629.704,429.786L400,541.248L170.298,429.786L58.829,200.084L170.298-29.653
				L400-141.076L629.704-29.653l111.468,229.737L629.704,429.786z"/>
			<path opacity="0.5" fill="#172E4D" d="M629.704-29.653L400-141.076L170.298-29.653L58.829,200.084l111.469,229.702L400,541.248
				l229.704-111.462l111.468-229.702L629.704-29.653z M572.279,372.371L400,455.965l-172.278-83.594l-83.604-172.287l83.604-172.286
				L400-55.797l172.279,83.595l83.601,172.286L572.279,372.371z"/>
			<path opacity="0.6" fill="#172E4D" d="M572.279,27.8L400.004-55.797L227.725,27.8l-83.604,172.284l83.604,172.287l172.279,83.598
				l172.275-83.598l83.603-172.287L572.279,27.8z M529.206,329.298L400.004,391.98l-129.206-62.683l-62.703-129.214L270.798,70.87
				L400.004,8.186L529.206,70.87l62.702,129.214L529.206,329.298z"/>
			<path opacity="0.7" fill="#172E4D" d="M529.206,70.872L400,8.186L270.794,70.872l-62.699,129.212l62.699,129.219L400,391.984
				l129.206-62.682l62.702-129.219L529.206,70.872z M496.905,296.997L400,344.019l-96.901-47.021l-47.029-96.913l47.029-96.908
				L400,56.155l96.905,47.021l47.027,96.908L496.905,296.997z"/>
			<path opacity="0.8" fill="#172E4D" d="M496.905,103.174L400,56.152l-96.901,47.022l-47.029,96.91l47.029,96.91L400,344.019
				l96.905-47.024l47.027-96.91L496.905,103.174z M472.683,272.76L400,308.034l-72.684-35.274l-35.266-72.676l35.266-72.672
				L400,92.133l72.683,35.279l35.267,72.672L472.683,272.76z"/>
			<path opacity="0.9" fill="#172E4D" d="M472.683,127.412L400,92.137l-72.684,35.275l-35.266,72.672l35.266,72.676L400,308.034
				l72.683-35.274l35.267-72.676L472.683,127.412z M454.508,254.6L400,281.047L345.494,254.6l-26.454-54.516l26.454-54.513
				L400,119.122l54.508,26.449l26.457,54.513L454.508,254.6z"/>
			<g>
				<polygon fill="#172E4D" points="400,119.122 345.494,145.571 319.04,200.084 345.494,254.6 400,281.047 454.508,254.6 
					480.965,200.084 454.508,145.571 				"/>
			</g>
			<g opacity="0.05">
				<polygon fill="#FFFFFF" points="400,119.122 345.494,145.571 319.04,200.084 345.494,254.6 400,281.047 454.508,254.6 
					480.965,200.084 454.508,145.571 				"/>
			</g>
		</g>
		<polygon opacity="0.1" fill="#F2F2F2" points="319.046,200 -2.315,600 799.873,600 478.519,200 		"/>
		<polygon opacity="0.1" fill="#E6E6E6" points="558.396,600 235.123,600 364.312,200 429.208,200 		"/>
		<g opacity="0.2">
			<g id="Layer_1_2_">
			</g>
			<g id="heart_x5F_fill_1_">
				<g>
					<g>
						<path fill="#F2F2F2" d="M592.344,30.414c-2.326-3.269-5.957-5.546-10.264-5.546c-7.073,0-12.821,5.76-12.821,12.828v1.06
							l23.097,26.512l23.074-26.512v-1.06c0-7.068-5.748-12.828-12.821-12.828C598.302,24.868,594.673,27.145,592.344,30.414z"/>
					</g>
				</g>
			</g>
		</g>
		<path opacity="0.1" fill="#E6E6E6" d="M592.106,65.202L615,38.69v-1.06c0-1.796-0.19-3.508-0.86-5.063l-35.837,16.789
			L592.106,65.202z"/>
		<g opacity="0.2">
			<g id="Layer_1_3_">
			</g>
			<g id="heart_x5F_fill_2_">
				<g>
					<g>
						<path fill="#F2F2F2" d="M661.344,30.414c-2.326-3.269-5.957-5.546-10.264-5.546c-7.073,0-12.821,5.76-12.821,12.828v1.06
							l23.097,26.512l23.074-26.512v-1.06c0-7.068-5.748-12.828-12.821-12.828C667.302,24.868,663.673,27.145,661.344,30.414z"/>
					</g>
				</g>
			</g>
		</g>
		<path opacity="0.1" fill="#E6E6E6" d="M661.106,65.202L684,38.69v-1.06c0-1.796-0.19-3.508-0.86-5.063l-35.837,16.789
			L661.106,65.202z"/>
		<g opacity="0.2">
			<g id="Layer_1_4_">
			</g>
			<g id="heart_x5F_fill_3_">
				<g>
					<g>
						<path fill="#F2F2F2" d="M730.344,30.414c-2.326-3.269-5.957-5.546-10.264-5.546c-7.073,0-12.821,5.76-12.821,12.828v1.06
							l23.097,26.512l23.074-26.512v-1.06c0-7.068-5.748-12.828-12.821-12.828C736.302,24.868,732.673,27.145,730.344,30.414z"/>
					</g>
				</g>
			</g>
		</g>
		<path opacity="0.1" fill="#E6E6E6" d="M730.106,65.202L753,38.69v-1.06c0-1.796-0.19-3.508-0.86-5.063l-35.837,16.789
			L730.106,65.202z"/>
	</g>
	<path fill="#102039" d="M466.926,529.013l-4.596-25.337l-5.863-21.293l-7.674-8.19l-8.795-1.676l-0.07-0.056L420.971,470h-1.096
		c0.283,0,0.416-0.166,0.416-0.166l1.697-14.882l11.699-5.256l-2.723-12.51l0.045-0.107l0.271-0.075
		c4.207-7.544,2.85-14.977,2.85-14.977l-2.154-15.78c0,0-0.373-4.739-2.695-10.508l3.582-2.111
		c3.186-2.384,16.52-13.809,4.041-29.889c0,0-0.918,10.633-13.75,16.677l-3.33,1.953c-4.223-3.135-11-6.406-18.271-6.916
		l-2.672-4.406l-2.611,4.357c-7.688,0.382-13.498,2.729-17.885,5.979l-4.658-0.816c-4.278-1.925-7.467-4.418-9.456-6.784
		l-8.241,10.429c2.017,4.62,6.327,7.994,8.188,9.293l3.469,2.235c-3.908,5.149-3.037,26.035-3.037,26.035s-0.726,7.689,3.48,15.233
		l-2.618,12.869l14.204,6.829l1.553,13.279l-4.674,0.991l-29.189,6.512l-4.582,4.894l-5.863,21.293l-3.065,25.004l-0.819,15.042
		l2.967,7.006l-0.393,6.415l6.14,17.151l-0.515,0.124l4.623,12.756L345.804,600l108.649-0.311l-0.895-11.462l5.004-13.801
		l-0.516-0.115l6.139-17.135l-0.391-6.379l2.967-7.075L466.926,529.013z M436.508,535.514l-0.361,46.499l-3.471-46.417l1.689-19.384
		L436.508,535.514z M364.342,516.212l1.668,20.384l-2.155,45.292l-2.095-45.375L364.342,516.212z"/>
</g>
<g id="Calque_2">
	<polygon opacity="0.5" fill="#FFFFFF" points="660,265 622,238 622,256 538,256 538,272 622,272 622,288 	"/>
	<polygon opacity="0.5" fill="#FFFFFF" points="139,261 177,288 177,270 261,270 261,254 177,254 177,238 	"/>
	<path opacity="0.5" fill="#FFFFFF" d="M405,204v122h122V204H405z M490,274c0,31-47.722,31-47.722,0c0-2,2.002-4.353,4.353-4.353
		c2.438,0,4.439,2.353,4.439,4.353c0,20,29.93,20,29.93,0v-29h-10.604c-2.438,0-4.353-2.062-4.353-4.5c0-2.35,1.915-4.5,4.353-4.5
		h14.974c2.438,0,4.631,2.034,4.631,4.384V274z"/>
	<path opacity="0.5" fill="#FFFFFF" d="M272,204v122h122V204H272z M362,249.626c0,2.359-2.099,4.366-4.542,4.366
		c-2.359,0-4.458-2.007-4.458-4.366V245h-31v17h19.581c2.444,0,4.362,2.056,4.362,4.5c0,2.444-1.918,4.5-4.362,4.5H322v17h3.789
		c2.442,0,4.369,2.056,4.369,4.5c0,2.355-1.927,4.5-4.369,4.5h-16.753c-2.438,0-4.447-2.145-4.447-4.5c0-2.443,2.01-4.5,4.447-4.5
		H313v-17h-3.964c-2.438,0-4.362-2.056-4.362-4.5c0-2.443,1.925-4.5,4.362-4.5H313v-17h-3.964c-2.438,0-4.362-2.1-4.362-4.544
		c0-2.355,1.925-4.456,4.362-4.456h47.905c2.699,0,5.059,2.284,5.059,4.902V249.626z"/>
</g>
</svg>
