<?xml version="1.0" encoding="utf-8"?>
<!-- Generator: Adobe Illustrator 15.1.0, SVG Export Plug-In . SVG Version: 6.00 Build 0)  -->
<!DOCTYPE svg PUBLIC "-//W3C//DTD SVG 1.1//EN" "http://www.w3.org/Graphics/SVG/1.1/DTD/svg11.dtd">
<svg version="1.1" id="Calque_1" xmlns="http://www.w3.org/2000/svg" xmlns:xlink="http://www.w3.org/1999/xlink" x="0px" y="0px"
	 width="800px" height="600px" viewBox="0 0 800 600" enable-background="new 0 0 800 600" xml:space="preserve">
<g>
	<rect fill="#00557C" width="800" height="600"/>
	<rect x="282.322" fill="#147DA5" width="235.354" height="354.571"/>
	<polygon fill="#186D94" points="527.943,380.783 272.057,380.783 282.322,354.571 517.677,354.571 	"/>
	<path fill="#00557C" d="M428.458,304.551l-13.492-78.646c7.799-4.958,12.979-13.668,12.979-23.595
		c0-15.435-12.512-27.947-27.945-27.947c-15.435,0-27.946,12.512-27.946,27.947c0,9.926,5.18,18.637,12.979,23.594l-13.491,78.647
		H428.458z"/>
	<polygon fill="#3285A6" points="272.057,0 272.057,354.571 272.057,380.783 282.322,354.571 282.322,0 	"/>
	<polygon fill="#3285A6" points="527.942,0 527.942,354.571 527.942,380.783 517.677,354.571 517.677,0 	"/>
	<ellipse fill="#5FBAED" cx="400" cy="88" rx="63.838" ry="53.07"/>
	<path fill="#B77E68" d="M462.368,99.315c-63.973,63.551-123.73,1.064-124.737,0.001c6.238,23.871,31.785,41.753,62.369,41.753
		C430.583,141.07,456.13,123.187,462.368,99.315z"/>
	<path fill="#3399CC" d="M462.368,99.315c-63.973,63.551-123.73,1.064-124.737,0.001c6.238,23.871,31.785,41.753,62.369,41.753
		C430.583,141.07,456.13,123.187,462.368,99.315z"/>
	<path fill="#71CBF1" d="M461.121,72.667C453.206,50.834,428.842,34.93,400,34.93c-28.843,0-53.206,15.904-61.122,37.736
		C339.235,72.544,393.779,35.181,461.121,72.667z"/>
	<polygon fill="#186D94" points="175.267,168.097 0,168.097 0,106.6 197.989,106.6 	"/>
	<polygon fill="#147DA5" points="175.267,45.103 0,45.103 0,106.6 197.989,106.6 	"/>
	<polygon fill="#186D94" points="624.733,168.097 800,168.097 800,106.6 602.011,106.6 	"/>
	<polygon fill="#147DA5" points="624.733,45.103 800,45.103 800,106.6 602.011,106.6 	"/>
	<polygon fill="#186D94" points="175.267,468.08 0,468.08 0,406.583 197.989,406.583 	"/>
	<polygon fill="#147DA5" points="175.267,345.086 0,345.086 0,406.583 197.989,406.583 	"/>
	<polygon fill="#186D94" points="624.733,468.08 800,468.08 800,406.583 602.011,406.583 	"/>
	<polygon fill="#147DA5" points="624.733,345.086 800,345.086 800,406.583 602.011,406.583 	"/>
</g>
</svg>
