<?xml version="1.0" encoding="utf-8"?>
<!-- Generator: Adobe Illustrator 15.1.0, SVG Export Plug-In . SVG Version: 6.00 Build 0)  -->
<!DOCTYPE svg PUBLIC "-//W3C//DTD SVG 1.1//EN" "http://www.w3.org/Graphics/SVG/1.1/DTD/svg11.dtd">
<svg version="1.1" id="Calque_1" xmlns="http://www.w3.org/2000/svg" xmlns:xlink="http://www.w3.org/1999/xlink" x="0px" y="0px"
	 width="239.333px" height="178.224px" viewBox="0 0 239.333 178.224" enable-background="new 0 0 239.333 178.224"
	 xml:space="preserve">
<g>
	<ellipse fill="#019875" cx="119.667" cy="91.771" rx="119.667" ry="86.452"/>
	<polygon fill="#EBD3C3" points="223.553,97.67 222.154,73.071 213.916,56.748 213.916,56.748 216.204,55.139 218.336,47.31 
		218.336,41.715 214.299,33.769 207.336,28.2 207.336,31.927 212.645,35.75 214.093,41.669 207.336,43.954 207.336,35.003 
		204.07,35.75 202.914,44.321 201.943,49.545 205.336,55.688 205.336,106.424 	"/>
	<polygon fill="#EBD3C3" points="42.717,44.321 41.532,35.75 38.336,35.003 38.336,43.954 31.608,41.669 32.895,35.75 
		38.336,31.927 38.336,28.2 31.374,33.769 27.336,41.715 27.336,47.31 29.383,55.139 31.787,56.761 31.787,56.761 23.403,73.071 
		22.079,97.67 40.336,106.424 40.336,55.597 43.63,49.545 	"/>
	<polygon fill="#01BA8F" points="215.402,73.071 203.271,59.046 119.336,58.795 119.336,58.811 40.776,59.046 28.529,73.071 
		19.718,82 20.196,103.98 27.518,114.237 39.728,129.428 67.566,144.927 119.182,144.927 176.328,144.927 204.168,129.428 
		216.381,114.339 223.707,104.031 224.195,82.025 	"/>
	<path fill="#B3B3B3" d="M201.233,85.717c0,32.722-40.56,60.425-78.917,60.425s-78.913-27.703-78.913-60.425S83.962,0,122.318,0
		C160.678,0,201.233,52.995,201.233,85.717z"/>
</g>
</svg>
