<?xml version="1.0" encoding="utf-8"?>
<!-- Generator: Adobe Illustrator 15.1.0, SVG Export Plug-In . SVG Version: 6.00 Build 0)  -->
<!DOCTYPE svg PUBLIC "-//W3C//DTD SVG 1.1//EN" "http://www.w3.org/Graphics/SVG/1.1/DTD/svg11.dtd">
<svg version="1.1" id="Calque_1" xmlns="http://www.w3.org/2000/svg" xmlns:xlink="http://www.w3.org/1999/xlink" x="0px" y="0px"
	 width="662.721px" height="217.383px" viewBox="0 0 662.721 217.383" enable-background="new 0 0 662.721 217.383"
	 xml:space="preserve">
<g>
	<polygon fill="#C7B299" points="655.511,35.385 645.968,46.069 649.346,73.83 656.688,79.704 633.446,80.809 599.291,88.151 
		547.469,88.886 492.4,100.285 472.165,99.809 465.163,109.003 472.165,118.833 501.538,120.465 586.334,122.668 624.614,130.015 
		656.688,130.381 644.809,146.893 641.911,159.733 645.968,171.624 655.511,183.032 614.096,181.135 553.246,187.314 
		475.593,183.512 436.197,190.646 376.052,188.288 376.052,30.128 454.156,36.082 484.872,32.172 541.656,37.033 569.459,33.767 
		611.196,37.508 640.767,35.104 	"/>
	<polygon fill="#DE9D7E" points="376.052,29.537 376.052,188.319 230.099,188.222 178.514,174.849 174.72,143.652 174.72,79.597 
		181.258,28.116 230.188,29.502 	"/>
	<polygon fill="#42210B" points="662.553,147.37 661.891,127.813 645.318,144.514 642.198,155.93 642.198,166.881 649.69,179.23 
		660.95,182.103 662.721,166.881 	"/>
	<polygon fill="#42210B" points="663.852,73.278 661.891,82.457 646.324,75.483 642.198,56.295 642.198,45.337 649.69,32.987 
		660.95,30.115 662.721,45.337 	"/>
	<polygon fill="#A67C52" points="170.889,70.238 205.072,74.839 232.942,91.41 242.459,192.331 295.73,199.308 344.568,191.698 
		381.989,199.308 401.018,164.187 395.943,116.223 401.018,79.439 391.5,40.749 389.594,17.917 336.324,24.263 290.335,40.082 
		267.983,47.368 209.874,32.504 177.765,21.724 	"/>
	<path fill="#CD957E" d="M141.293,146.27l33.427-3.728c0,0,6.906-8.447,6.906-31.172c0-22.723-6.906-32.805-6.906-32.805
		l-32.421-3.728L141.293,146.27z"/>
	<polygon fill="#DE9D7E" points="80.951,155.504 142.479,151.937 171.017,117.686 168.085,94.616 139.499,66.309 80.951,59.42 	"/>
	<path fill="#CD957E" d="M95.146,51.324c0,0,12.606-1.19,24.975,5.707l2.153,7.283l-22.83-2.676L95.146,51.324z"/>
	<path fill="#CD957E" d="M95.146,166.268c0,0,12.606,1.188,24.975-5.712l2.153-7.459l-22.346,1.29L95.146,166.268z"/>
	<polygon fill="#CD957E" points="124.649,120.346 116.562,105.919 123.537,95.772 	"/>
	<g>
		<path fill="#D2D2D2" d="M70.183,165.232h10.768V59.857l-2.458-9.081h-9.261C69.232,50.776,65.44,108.692,70.183,165.232z"/>
		<path fill="#E6E6E6" d="M19.029,106.787c0,50.897,50.661,54.911,50.661,54.911l1.207-54.911L69.69,51.876
			C69.69,51.876,19.029,55.892,19.029,106.787z"/>
	</g>
	<polygon fill="#D2D2D2" points="52.476,156.338 29.506,139.329 23.248,144.226 52.357,165.622 	"/>
	<polygon fill="#D2D2D2" points="52.476,57.279 29.506,74.293 23.248,69.395 52.357,47.998 	"/>
	<polyline fill="#D2D2D2" points="11.982,107.438 20.305,102.455 26.006,107.421 20.315,112.499 11.982,107.438 	"/>
	<path fill="#E8E3E3" d="M48.943,163.116c0,0-19.211,29.732-48.943,6.66c0,0,17.684,0.126,27.435-22.471L48.943,163.116z"/>
	<path fill="#E8E3E3" d="M48.922,50.521c0,0-5.557-9.052-15.358-13.33l-6.984,3l0.633,4.363l-3.408-1.272l-7.34,7.417
		c4.02,3.382,7.952,8.076,11.148,15.485L48.922,50.521z"/>
	<polygon fill="#8C6239" points="99.911,154.385 95.751,164.76 90.434,167.891 80.951,165.497 80.951,135.111 89.679,146.428 
		85.877,153.428 	"/>
	<polygon fill="#8C6239" points="120.363,159.721 140.903,164.187 135.818,152.314 122.272,153.092 	"/>
	<polygon fill="#8C6239" points="120.231,57.412 141.139,52.42 139.336,56.637 143.995,62.075 138.953,65.221 139.308,66.309 
		122.272,64.313 	"/>
	<polygon fill="#8C6239" points="80.951,64.313 86.255,66.309 87.332,62.978 91.012,60.807 100.894,66.989 99.457,61.642 
		95.83,52.947 88.184,47.965 81.985,50.372 79.702,54.505 80.951,59.42 	"/>
	<polygon fill="#8C6239" points="80.951,97.515 87.137,82.29 80.951,70.238 	"/>
	<polyline fill="#8C6239" points="80.497,133.032 92.066,139.329 98.566,127.004 90.204,134.299 80.497,126.211 	"/>
	<polygon opacity="0.27" fill="#C1272D" enable-background="new    " points="143.725,124.152 148.522,114.323 148.522,101.795 
		143.725,89.586 141.627,101.952 141.627,112.734 	"/>
	<polygon opacity="0.55" fill="#CD957E" enable-background="new    " points="158.131,119.77 154.036,115.588 154.036,101.004 
		158.131,97.536 156.534,101.795 155.389,114.323 	"/>
	<polygon fill="#8C6239" points="101.154,97.536 98.804,82.965 101.817,72.619 96.638,80.023 97.166,88.335 	"/>
	<polygon fill="#8C6239" points="101.154,119.95 98.804,134.518 101.817,144.866 96.638,137.463 97.166,129.149 	"/>
	<g>
		<polygon fill="#DE9D7E" points="277.745,217.383 229.414,211.459 194.505,201.848 181.079,189.27 178.326,174.849 
			192.175,164.782 214.027,163.687 233.455,166.366 268.746,177.068 287.742,190.463 299.976,185.625 367.029,177.398 
			368.682,167.815 373.463,162.821 377.547,158.561 393.876,151.108 395.342,155.448 386.428,159.133 383.568,162.344 
			383.336,164.903 385.257,167.063 391.671,166.26 407.992,161.969 409.221,166.079 392.689,171.088 393.244,172.79 
			415.424,166.987 416.282,171.52 394.583,177.094 395.864,179.76 413.279,174.766 414.072,178.943 397.361,183.547 
			398.435,186.542 410.671,182.825 411.295,186.139 399.031,189.777 387.574,194.976 368.693,192.849 313.176,212.745 
			302.85,212.107 291.615,216.915 		"/>
		<polygon fill="#FBB03B" points="363.564,177.304 366.443,194.45 341.107,203.639 336.01,180.823 		"/>
	</g>
	<g>
		<polygon fill="#DE9D7E" points="277.745,0 229.414,5.926 194.505,15.538 181.079,28.116 178.326,42.539 192.175,52.604 
			214.027,53.696 233.455,51.02 268.746,40.319 287.742,26.925 299.976,31.758 367.029,39.987 368.682,49.573 373.463,54.567 
			377.547,58.825 393.876,66.279 395.342,61.937 386.428,58.255 383.568,55.04 383.336,52.484 385.257,50.323 391.671,51.127 
			407.992,55.417 409.221,51.307 392.689,46.302 393.244,44.598 415.424,50.399 416.282,45.866 394.583,40.291 395.864,37.629 
			413.279,42.621 414.072,38.441 397.361,33.837 398.435,30.847 410.671,34.561 411.295,31.249 399.031,27.608 387.574,22.409 
			368.693,24.536 313.176,4.642 302.85,5.275 291.615,0.472 		"/>
		<polygon fill="#FBB03B" points="363.564,40.082 366.443,22.935 341.107,13.748 336.01,36.563 		"/>
	</g>
	<polygon fill="#A67C52" points="171.771,63.187 177.765,21.309 211.801,26.707 228.821,39.979 255.782,43.78 252.287,63.187 	"/>
</g>
<path fill="none" stroke="#CD957E" stroke-width="2" stroke-miterlimit="10" d="M107.276,96.5c0,0,2.902-9.25-0.312-20.875"/>
<path fill="none" stroke="#CD957E" stroke-width="2" stroke-miterlimit="10" d="M107.276,119.625c0,0,2.902,9.25-0.312,20.875"/>
</svg>
