<?xml version="1.0" encoding="utf-8"?>
<!-- Generator: Adobe Illustrator 15.1.0, SVG Export Plug-In . SVG Version: 6.00 Build 0)  -->
<!DOCTYPE svg PUBLIC "-//W3C//DTD SVG 1.1//EN" "http://www.w3.org/Graphics/SVG/1.1/DTD/svg11.dtd">
<svg version="1.1" id="Calque_1" xmlns="http://www.w3.org/2000/svg" xmlns:xlink="http://www.w3.org/1999/xlink" x="0px" y="0px"
	 width="663.852px" height="217.382px" viewBox="0 0 663.852 217.382" enable-background="new 0 0 663.852 217.382"
	 xml:space="preserve">
<g>
	<polygon fill="#C7B299" points="655.511,35.386 645.968,46.07 649.346,73.831 656.688,79.705 633.446,80.81 599.291,88.152 
		547.469,88.887 492.4,100.286 472.165,99.81 465.163,109.004 472.165,118.833 501.538,120.466 586.334,122.669 624.614,130.016 
		656.688,130.382 644.809,146.894 641.911,159.734 645.968,171.625 655.511,183.033 614.096,181.136 553.246,187.315 
		475.593,183.513 436.197,190.647 376.052,188.289 376.052,30.129 454.156,36.083 484.872,32.173 541.656,37.034 569.459,33.768 
		611.196,37.509 640.767,35.105 	"/>
	<polygon fill="#DE9D7E" points="376.052,29.538 376.052,188.32 230.099,188.223 178.514,174.85 174.72,143.653 174.72,79.598 
		181.258,28.117 230.188,29.503 	"/>
	<polygon fill="#42210B" points="662.553,147.371 661.891,127.814 645.318,144.515 642.198,155.931 642.198,166.882 649.69,179.231 
		660.95,182.104 662.721,166.882 	"/>
	<polygon fill="#42210B" points="663.852,73.279 661.891,82.458 646.324,75.484 642.198,56.296 642.198,45.338 649.69,32.988 
		660.95,30.116 662.721,45.338 	"/>
	<polygon fill="#A67C52" points="170.889,70.239 205.072,74.84 232.942,91.411 242.459,192.332 295.73,199.309 344.568,191.699 
		381.989,199.309 401.018,164.188 395.943,116.224 401.018,79.44 391.5,40.75 389.594,17.918 336.324,24.264 290.335,40.083 
		267.983,47.369 209.874,32.505 177.765,21.725 	"/>
	<path fill="#CD957E" d="M141.293,146.271l33.427-3.728c0,0,6.906-8.447,6.906-31.173c0-22.723-6.906-32.805-6.906-32.805
		l-32.421-3.728L141.293,146.271z"/>
	<polygon fill="#DE9D7E" points="80.951,155.505 142.479,151.938 171.017,117.687 168.085,94.617 139.499,66.31 80.951,59.421 	"/>
	<path fill="#CD957E" d="M95.146,51.325c0,0,12.606-1.19,24.975,5.707l2.153,7.283l-22.83-2.676L95.146,51.325z"/>
	<path fill="#CD957E" d="M95.146,166.269c0,0,12.606,1.188,24.975-5.712l2.153-7.459l-22.346,1.29L95.146,166.269z"/>
	<polygon fill="#CD957E" points="124.649,120.347 116.562,105.92 123.537,95.773 	"/>
	<g>
		<path fill="#D2D2D2" d="M70.183,165.233h10.768V59.858l-2.458-9.081h-9.261C69.232,50.777,65.44,108.693,70.183,165.233z"/>
		<path fill="#E6E6E6" d="M19.029,106.788c0,50.897,50.661,54.911,50.661,54.911l1.207-54.911L69.69,51.877
			C69.69,51.877,19.029,55.893,19.029,106.788z"/>
	</g>
	<polygon fill="#D2D2D2" points="52.476,156.339 29.506,139.33 23.248,144.227 52.357,165.623 	"/>
	<polygon fill="#D2D2D2" points="52.476,57.28 29.506,74.294 23.248,69.396 52.357,47.999 	"/>
	<polyline fill="#D2D2D2" points="11.982,107.439 20.305,102.456 26.006,107.422 20.315,112.5 11.982,107.439 	"/>
	<path fill="#E8E3E3" d="M48.943,163.117c0,0-19.211,29.732-48.943,6.66c0,0,17.684,0.126,27.435-22.471L48.943,163.117z"/>
	<path fill="#E8E3E3" d="M48.922,50.522c0,0-5.557-9.052-15.358-13.33l-6.984,3l0.633,4.363l-3.408-1.272l-7.34,7.417
		c4.02,3.382,7.952,8.076,11.148,15.485L48.922,50.522z"/>
	<polygon fill="#8C6239" points="99.911,154.386 95.751,164.761 90.434,167.892 80.951,165.498 80.951,135.112 89.679,146.429 
		85.877,153.429 	"/>
	<polygon fill="#8C6239" points="120.363,159.722 140.903,164.188 135.818,152.315 122.272,153.093 	"/>
	<polygon fill="#8C6239" points="120.231,57.413 141.139,52.421 139.336,56.638 143.995,62.076 138.953,65.222 139.308,66.31 
		122.272,64.314 	"/>
	<polygon fill="#8C6239" points="80.951,64.314 86.255,66.31 87.332,62.979 91.012,60.808 100.894,66.99 99.457,61.643 
		95.83,52.948 88.184,47.966 81.985,50.373 79.702,54.506 80.951,59.421 	"/>
	<polygon fill="#8C6239" points="80.951,97.516 87.137,82.291 80.951,70.239 	"/>
	<polyline fill="#8C6239" points="80.497,133.033 92.066,139.33 98.566,127.005 90.204,134.3 80.497,126.212 	"/>
	<path fill="#FFFFFF" d="M108.865,119.777c-1.414-0.064-3.369,0.604-4.835,2.664c-1.464,2.059-3.198,10.473-2.825,13.43
		c0.375,2.953,1.925,5.373,4.417,5.43c2.489,0.051,6.12-2.643,7.04-4.668c0.924-2.021,0.915-7.4,0.323-10.082
		C112.396,123.871,110.279,119.846,108.865,119.777z"/>
	<circle fill="#99C6E4" cx="107.529" cy="130.655" r="4.752"/>
	<circle fill="#4D4D4D" cx="107.492" cy="130.525" r="1.891"/>
	<circle fill="#FFFFFF" cx="105.953" cy="128.936" r="1.011"/>
	<path fill="#FFFFFF" d="M108.865,97.533c-1.414,0.064-3.369-0.601-4.835-2.663c-1.464-2.058-3.198-10.472-2.825-13.426
		c0.373-2.956,1.925-5.377,4.417-5.431c2.489-0.053,6.12,2.639,7.04,4.66c0.924,2.025,0.915,7.407,0.323,10.087
		C112.394,93.442,110.279,97.464,108.865,97.533z"/>
	<circle fill="#99C6E4" cx="107.529" cy="86.654" r="4.752"/>
	<circle fill="#4D4D4D" cx="107.492" cy="86.444" r="1.892"/>
	<circle fill="#FFFFFF" cx="105.953" cy="84.86" r="1.011"/>
	<polygon opacity="0.27" fill="#C1272D" enable-background="new    " points="143.725,124.153 148.522,114.324 148.522,101.796 
		143.725,89.587 141.627,101.953 141.627,112.735 	"/>
	<polygon opacity="0.55" fill="#CD957E" enable-background="new    " points="158.131,119.771 154.036,115.589 154.036,101.005 
		158.131,97.537 156.534,101.796 155.389,114.324 	"/>
	<polygon fill="#8C6239" points="101.154,97.537 98.804,82.966 101.817,72.62 96.638,80.024 97.166,88.336 	"/>
	<polygon fill="#8C6239" points="101.154,119.951 98.804,134.519 101.817,144.867 96.638,137.464 97.166,129.15 	"/>
	<g>
		<polygon fill="#DE9D7E" points="277.745,217.384 229.414,211.46 194.505,201.849 181.079,189.271 178.326,174.85 192.175,164.783 
			214.027,163.688 233.455,166.367 268.746,177.069 287.742,190.464 299.976,185.626 367.029,177.399 368.682,167.816 
			373.463,162.822 377.547,158.562 393.876,151.109 395.342,155.449 386.428,159.134 383.568,162.345 383.336,164.904 
			385.257,167.064 391.671,166.261 407.992,161.97 409.221,166.08 392.689,171.089 393.244,172.791 415.424,166.988 
			416.282,171.521 394.583,177.095 395.864,179.761 413.279,174.767 414.072,178.944 397.361,183.548 398.435,186.542 
			410.671,182.826 411.295,186.14 399.031,189.778 387.574,194.977 368.693,192.85 313.176,212.746 302.85,212.108 291.615,216.916 
					"/>
		<polygon fill="#FBB03B" points="363.564,177.305 366.443,194.451 341.107,203.64 336.01,180.824 		"/>
	</g>
	<g>
		<polygon fill="#DE9D7E" points="277.745,0.001 229.414,5.927 194.505,15.539 181.079,28.117 178.326,42.54 192.175,52.605 
			214.027,53.697 233.455,51.021 268.746,40.32 287.742,26.926 299.976,31.759 367.029,39.988 368.682,49.574 373.463,54.568 
			377.547,58.826 393.876,66.28 395.342,61.938 386.428,58.256 383.568,55.041 383.336,52.485 385.257,50.324 391.671,51.128 
			407.992,55.418 409.221,51.308 392.689,46.303 393.244,44.599 415.424,50.4 416.282,45.867 394.583,40.292 395.864,37.63 
			413.279,42.622 414.072,38.442 397.361,33.838 398.435,30.848 410.671,34.562 411.295,31.25 399.031,27.609 387.574,22.41 
			368.693,24.537 313.176,4.643 302.85,5.276 291.615,0.473 		"/>
		<polygon fill="#FBB03B" points="363.564,40.083 366.443,22.936 341.107,13.749 336.01,36.564 		"/>
	</g>
	<polygon fill="#A67C52" points="171.771,63.188 177.765,21.31 211.801,26.708 228.821,39.98 255.782,43.781 252.287,63.188 	"/>
</g>
</svg>
