<?xml version="1.0" encoding="utf-8"?>
<!-- Generator: Adobe Illustrator 15.1.0, SVG Export Plug-In . SVG Version: 6.00 Build 0)  -->
<!DOCTYPE svg PUBLIC "-//W3C//DTD SVG 1.1//EN" "http://www.w3.org/Graphics/SVG/1.1/DTD/svg11.dtd">
<svg version="1.1" id="Calque_1" xmlns="http://www.w3.org/2000/svg" xmlns:xlink="http://www.w3.org/1999/xlink" x="0px" y="0px"
	 width="245.475px" height="94px" viewBox="0 0 245.475 94" enable-background="new 0 0 245.475 94" xml:space="preserve">
<path opacity="0.7" fill="#FFFFFF" d="M241.695,94c2.406-3,3.779-7.793,3.779-12.344c0-14.553-13.979-26.238-31.221-26.238
	c-6.314,0-12.186,1.643-17.1,4.363c-0.531-19.188-16.705-34.559-36.592-34.559c-14.959,0-27.816,8.731-33.498,21.216
	c-6.465-5.621-16.457-9.225-27.68-9.225c-13.799,0-25.738,5.457-31.543,13.401c-2.848-1.365-6.022-2.129-9.394-2.129
	c-12.043,0-21.79,9.764-21.79,21.808c0,0.002,0,0.004,0,0.006c0-0.002-0.249-0.006-0.366-0.006
	c-20.029,0-36.274,10.502-36.274,23.731C0.018,94.091,0,94,0,94H241.695z"/>
</svg>
