<?xml version="1.0" encoding="utf-8"?>
<!-- Generator: Adobe Illustrator 15.1.0, SVG Export Plug-In . SVG Version: 6.00 Build 0)  -->
<!DOCTYPE svg PUBLIC "-//W3C//DTD SVG 1.1//EN" "http://www.w3.org/Graphics/SVG/1.1/DTD/svg11.dtd">
<svg version="1.1" id="Calque_1" xmlns="http://www.w3.org/2000/svg" xmlns:xlink="http://www.w3.org/1999/xlink" x="0px" y="0px"
	 width="800px" height="600px" viewBox="0 0 800 600" enable-background="new 0 0 800 600" xml:space="preserve">
<rect y="-1" fill="#6EC6E3" width="800" height="600"/>
<g>
	<polygon fill="#FFE603" points="95.333,-15.583 91.78,-19.354 89.648,-14.534 85.364,-17.6 84.042,-12.468 79.257,-14.736 
		78.827,-9.449 73.714,-10.85 74.205,-5.567 68.926,-6.058 70.326,-0.94 65.039,-0.507 67.307,4.29 62.174,5.635 65.24,9.964 
		60.42,12.18 64.389,16.106 59.83,19.262 64.223,22.302 60.479,26.008 65.332,28.24 62.287,32.539 67.457,33.894 65.205,38.655 
		70.529,39.092 69.139,44.173 74.459,43.679 73.971,48.923 79.125,47.513 79.555,52.763 84.387,50.478 85.721,55.574 90.082,52.486 
		92.281,57.272 95.491,53.671 98,57.803 98,-19.945 	"/>
	<polygon fill="#FFD412" points="105.455,57.212 107.67,52.394 112,55.459 113.346,50.328 118.143,52.595 118.576,47.309 
		123.691,48.709 123.201,43.428 128.484,43.918 127.082,38.801 132.371,38.367 130.104,33.572 135.234,32.225 132.17,27.898 
		136.988,25.681 133.291,22.021 137.58,19.137 133.123,16.142 137.025,12.383 132.115,10.208 135.305,5.829 130.094,4.539 
		132.475,-0.328 127.117,-0.693 128.617,-5.899 123.277,-5.329 123.852,-10.716 118.693,-9.228 118.322,-14.632 113.5,-12.271 
		112.195,-17.528 107.857,-14.365 105.66,-19.317 101.515,-15.377 98,-19.945 98,57.803 101.372,53.441 	"/>
</g>
<g>
	<polygon fill="#938D80" points="164.221,157.445 204.369,214.84 233.562,184.943 	"/>
	<polygon fill="#ACA190" points="34.096,370 721.219,370 407.219,23 	"/>
	<polygon fill="#ACA190" points="0.221,370 313.219,370 164.221,157 	"/>
	<polygon fill="#737356" points="800.219,370 642.219,135 394.219,370 	"/>
	<polygon fill="#938D80" points="407.219,23.445 426.219,240.683 351.219,202.49 313.219,255.548 283.219,252.936 237.221,371 
		800.219,371 642.219,135.722 570.266,203.64 	"/>
	<polygon fill="#ACA190" points="570.266,203.751 642.219,135.945 531.219,160.571 	"/>
	<polygon fill="#F1F0F1" points="407.219,23.445 336.363,89.341 367.219,84.112 377.656,64.112 381.887,89.341 371.792,102.778 
		385.887,97.445 394.219,111.445 400.219,90.778 413.645,96.908 411.354,70.708 	"/>
	<polygon fill="#E4E5E5" points="411.354,70.708 413.645,96.908 420.219,79.445 428.219,100.945 424.719,111.445 431.219,104.945 
		437.219,107.445 428.719,74.445 433.719,62.445 440.719,76.445 442.719,67.445 457.719,78.445 407.219,23.445 	"/>
	<polygon fill="#F1F0F1" points="163.971,157.292 131.455,199.76 150.658,186.104 152.689,199.442 147.9,203 158.221,203 
		156.721,185.92 164.221,177.333 169.221,189.389 172.221,182.917 183.221,192.431 177.721,182.438 184.295,186.139 	"/>
	<polygon fill="#E4E5E5" points="184.17,185.968 177.658,171.358 193.439,182.505 196.721,178 193.221,178 181.971,168.973 
		198.891,171.083 163.971,157.236 	"/>
	<polygon fill="#F1F0F1" points="642.219,135.945 599.012,145.352 613.137,145.445 610.553,151.695 625.219,149.112 617.17,159.55 	
		"/>
	<polygon fill="#E4E5E5" points="617.17,159.466 632.219,150.195 634.219,155.028 644.803,150.028 649.387,152.195 649.934,146.857 
		642.24,135.445 	"/>
</g>
<rect y="403" fill="#009145" width="800" height="197"/>
<g>
	<polygon fill="#464541" points="0,369.945 0,451 168.221,451 220.414,435.973 278.219,428.959 322.219,409.151 417.479,417 
		439.918,417 483.832,409.145 526.316,421.045 624.123,428.995 659.625,429.959 721.219,423.949 746.11,436.243 800,423.945 
		800,370.945 	"/>
	<polygon opacity="0.28" fill="#FFFFFF" points="0,369.945 0,451 168.221,451 220.414,435.973 278.219,428.959 322.219,409.151 
		417.479,417 439.918,417 483.832,409.145 526.316,421.045 624.123,428.995 659.625,429.959 721.219,423.949 746.11,436.243 
		800,423.945 800,370.945 	"/>
	<g>
		<rect x="424" y="399" fill="#464541" width="9" height="14"/>
		<polygon fill="#B8BF57" points="437.902,361 444.523,361 428.922,335.408 413.318,361 419.941,361 406.873,399 428.867,399 
			450.969,399 		"/>
		<polygon fill="#D3D55A" points="428.922,335.674 413.318,361 419.941,361 406.873,399 428.867,399 		"/>
		<polygon fill="#B8BF57" points="428.922,335.674 444.523,361 437.902,361 450.969,399 428.867,399 		"/>
		<polygon opacity="0.1" fill="#464541" points="406.873,399 437.902,361.531 450.969,399 		"/>
	</g>
	<g>
		<rect x="536" y="380" fill="#464541" width="9" height="14"/>
		<polygon fill="#B8BF57" points="549.902,342 556.523,342 540.922,316.408 525.318,342 531.941,342 518.873,380 540.867,380 
			562.969,380 		"/>
		<polygon fill="#D3D55A" points="540.922,316.674 525.318,342 531.941,342 518.873,380 540.867,380 		"/>
		<polygon fill="#B8BF57" points="540.922,316.674 556.523,342 549.902,342 562.969,380 540.867,380 		"/>
		<polygon opacity="0.1" fill="#464541" points="518.873,380 549.902,342.531 562.969,380 		"/>
	</g>
	<g>
		<rect x="651" y="394" fill="#464541" width="9" height="14"/>
		<polygon fill="#B8BF57" points="664.902,356 671.523,356 655.922,330.408 640.318,356 646.941,356 633.873,394 655.867,394 
			677.969,394 		"/>
		<polygon fill="#D3D55A" points="655.922,330.674 640.318,356 646.941,356 633.873,394 655.867,394 		"/>
		<polygon fill="#B8BF57" points="655.922,330.674 671.523,356 664.902,356 677.969,394 655.867,394 		"/>
		<polygon opacity="0.1" fill="#464541" points="633.873,394 664.902,356.531 677.969,394 		"/>
	</g>
	<g>
		<rect x="63" y="432" fill="#464541" width="9" height="14"/>
		<polygon fill="#B8BF57" points="76.484,394 83.105,394 67.504,368.408 51.9,394 58.523,394 45.455,432 67.449,432 89.551,432 		
			"/>
		<polygon fill="#B8BF57" points="67.504,368.674 51.9,394 58.523,394 45.455,432 67.449,432 		"/>
		<polygon fill="#868C4F" points="67.504,368.674 83.105,394 76.484,394 89.551,432 67.449,432 		"/>
		<polygon opacity="0.1" fill="#464541" points="45.455,432 76.484,394.531 89.551,432 		"/>
	</g>
	<g>
		<rect x="168" y="395" fill="#464541" width="9" height="14"/>
		<polygon fill="#B8BF57" points="181.484,357 188.105,357 172.504,331.408 156.9,357 163.523,357 150.455,395 172.449,395 
			194.551,395 		"/>
		<polygon fill="#B8BF57" points="172.504,331.674 156.9,357 163.523,357 150.455,395 172.449,395 		"/>
		<polygon fill="#868C4F" points="172.504,331.674 188.105,357 181.484,357 194.551,395 172.449,395 		"/>
		<polygon opacity="0.1" fill="#464541" points="150.455,395 181.484,357.531 194.551,395 		"/>
	</g>
	<g>
		<rect x="384" y="392" fill="#464541" width="9" height="14"/>
		<polygon fill="#B8BF57" points="397.482,354 404.105,354 388.504,328.408 372.899,354 379.521,354 366.456,392 388.447,392 
			410.551,392 		"/>
		<polygon fill="#B8BF57" points="388.504,328.674 372.899,354 379.521,354 366.456,392 388.447,392 		"/>
		<polygon fill="#868C4F" points="388.504,328.674 404.105,354 397.482,354 410.551,392 388.447,392 		"/>
		<polygon opacity="0.1" fill="#464541" points="366.456,392 397.482,354.531 410.551,392 		"/>
	</g>
	<g>
		<polygon fill="#B8BF57" points="198,350.641 176.373,413 198,413 		"/>
		<polygon fill="#868C4F" points="198,350.787 220.414,413 198,413 		"/>
		<rect x="194" y="413" fill="#464541" width="9" height="14"/>
		<polygon opacity="0.1" fill="#464541" points="176.373,413 206.861,374.139 220.414,413 		"/>
	</g>
	<g>
		<polygon fill="#B8BF57" points="515,336.641 493.371,399 515,399 		"/>
		<polygon fill="#868C4F" points="515,336.787 537.414,399 515,399 		"/>
		<rect x="511" y="399" fill="#464541" width="9" height="14"/>
		<polygon opacity="0.1" fill="#464541" points="493.371,399 523.859,360.139 537.414,399 		"/>
	</g>
	<g>
		<polygon fill="#B8BF57" points="759,328.641 737.371,391 759,391 		"/>
		<polygon fill="#868C4F" points="759,328.787 781.414,391 759,391 		"/>
		<rect x="755" y="391" fill="#464541" width="9" height="14"/>
		<polygon opacity="0.1" fill="#464541" points="737.371,391 767.859,352.139 781.414,391 		"/>
	</g>
	<g>
		<polygon fill="#B8BF57" points="34,326.641 12.373,389 34,389 		"/>
		<polygon fill="#868C4F" points="34,326.787 56.414,389 34,389 		"/>
		<rect x="30" y="389" fill="#464541" width="9" height="14"/>
		<polygon opacity="0.1" fill="#464541" points="12.373,389 42.861,350.139 56.414,389 		"/>
	</g>
	<g>
		<polygon fill="#D3D55A" points="138,329.646 115.791,392 138,392 		"/>
		<polygon fill="#B8BF57" points="138,329.646 159.832,392 138,392 		"/>
		<rect x="133" y="392" fill="#464541" width="9" height="14"/>
		<polygon opacity="0.1" fill="#464541" points="115.791,392 146.279,353.139 159.832,392 		"/>
	</g>
	<g>
		<polygon fill="#D3D55A" points="306,330.646 283.791,393 306,393 		"/>
		<polygon fill="#B8BF57" points="306,330.646 327.832,393 306,393 		"/>
		<rect x="301" y="393" fill="#464541" width="9" height="14"/>
		<polygon opacity="0.1" fill="#464541" points="283.791,393 314.279,354.139 327.832,393 		"/>
	</g>
	<g>
		<polygon fill="#D3D55A" points="462,318.646 439.791,381 462,381 		"/>
		<polygon fill="#B8BF57" points="462,318.646 483.832,381 462,381 		"/>
		<rect x="457" y="381" fill="#464541" width="9" height="14"/>
		<polygon opacity="0.1" fill="#464541" points="439.791,381 470.279,342.139 483.832,381 		"/>
	</g>
	<g>
		<polygon fill="#D3D55A" points="587,323.646 564.791,386 587,386 		"/>
		<polygon fill="#B8BF57" points="587,323.646 608.832,386 587,386 		"/>
		<rect x="582" y="386" fill="#464541" width="9" height="14"/>
		<polygon opacity="0.1" fill="#464541" points="564.791,386 595.279,347.139 608.832,386 		"/>
	</g>
	<g>
		<polygon fill="#D3D55A" points="711,328.646 688.791,391 711,391 		"/>
		<polygon fill="#B8BF57" points="711,328.646 732.832,391 711,391 		"/>
		<rect x="706" y="391" fill="#464541" width="9" height="14"/>
		<polygon opacity="0.1" fill="#464541" points="688.791,391 719.279,352.139 732.832,391 		"/>
	</g>
	<g>
		<g>
			<rect x="782" y="396" fill="#464541" width="10" height="24"/>
			<g>
				<path fill="#D3D55A" d="M788,401.275c-10,0-18.098-10.229-18.098-22.846c0-12.615,8.098-22.844,18.098-22.844V401.275z"/>
				<path fill="#B8BF57" d="M787,401.275c10,0,18.098-10.229,18.098-22.846c0-12.615-8.098-22.844-18.098-22.844V401.275z"/>
			</g>
		</g>
		<g opacity="0.1">
			<path fill="#464541" d="M787,401.26v0.016c0,0,0.393-0.004,0.5-0.006c0.105,0.002,0.5,0.006,0.5,0.006v-0.016
				c9-0.426,17.427-10.484,17.427-22.83c0-2.629-0.374-5.152-1.024-7.504l-34.642,9.396C770.511,391.789,778,400.855,787,401.26z"/>
		</g>
	</g>
	<g>
		<g>
			<rect x="18" y="416" fill="#464541" width="10" height="24"/>
			<g>
				<path fill="#D3D55A" d="M24,421.275c-10,0-18.098-10.229-18.098-22.846c0-12.615,8.098-22.844,18.098-22.844V421.275z"/>
				<path fill="#B8BF57" d="M23,421.275c10,0,18.098-10.229,18.098-22.846c0-12.615-8.098-22.844-18.098-22.844V421.275z"/>
			</g>
		</g>
		<g opacity="0.1">
			<path fill="#464541" d="M23,421.26v0.016c0,0,0.393-0.004,0.5-0.006c0.105,0.002,0.5,0.006,0.5,0.006v-0.016
				c9-0.426,17.427-10.484,17.427-22.83c0-2.629-0.372-5.152-1.022-7.504l-34.644,9.396C6.511,411.789,14,420.855,23,421.26z"/>
		</g>
	</g>
	<g>
		<g>
			<rect x="222" y="395" fill="#464541" width="10" height="24"/>
			<g>
				<path fill="#D3D55A" d="M228,400.275c-10,0-18.098-10.229-18.098-22.846c0-12.615,8.098-22.844,18.098-22.844V400.275z"/>
				<path fill="#B8BF57" d="M227,400.275c10,0,18.098-10.229,18.098-22.846c0-12.615-8.098-22.844-18.098-22.844V400.275z"/>
			</g>
		</g>
		<g opacity="0.1">
			<path fill="#464541" d="M227,400.26v0.016c0,0,0.393-0.004,0.5-0.006c0.105,0.002,0.5,0.006,0.5,0.006v-0.016
				c9-0.426,17.427-10.484,17.427-22.83c0-2.629-0.374-5.152-1.024-7.504l-34.644,9.396C210.509,390.789,218,399.855,227,400.26z"/>
		</g>
	</g>
	<g>
		<g>
			<rect x="478" y="381" fill="#464541" width="10" height="24"/>
			<g>
				<path fill="#D3D55A" d="M484,386.275c-10,0-18.098-10.229-18.098-22.846c0-12.615,8.098-22.844,18.098-22.844V386.275z"/>
				<path fill="#B8BF57" d="M483,386.275c10,0,18.098-10.229,18.098-22.846c0-12.615-8.098-22.844-18.098-22.844V386.275z"/>
			</g>
		</g>
		<g opacity="0.1">
			<path fill="#464541" d="M483,386.26v0.016c0,0,0.393-0.004,0.5-0.006c0.105,0.002,0.5,0.006,0.5,0.006v-0.016
				c9-0.426,17.427-10.484,17.427-22.83c0-2.629-0.374-5.152-1.024-7.504l-34.642,9.396C466.511,376.789,474,385.855,483,386.26z"/>
		</g>
	</g>
	<g>
		<g>
			<rect x="557" y="392" fill="#464541" width="10" height="24"/>
			<g>
				<path fill="#D3D55A" d="M563,397.275c-10,0-18.098-10.229-18.098-22.846c0-12.615,8.098-22.844,18.098-22.844V397.275z"/>
				<path fill="#B8BF57" d="M562,397.275c10,0,18.098-10.229,18.098-22.846c0-12.615-8.098-22.844-18.098-22.844V397.275z"/>
			</g>
		</g>
		<g opacity="0.1">
			<path fill="#464541" d="M562,397.26v0.016c0,0,0.393-0.004,0.5-0.006c0.105,0.002,0.5,0.006,0.5,0.006v-0.016
				c9-0.426,17.427-10.484,17.427-22.83c0-2.629-0.374-5.152-1.024-7.504l-34.642,9.396C545.511,387.789,553,396.855,562,397.26z"/>
		</g>
	</g>
	<g>
		<g>
			<rect x="84" y="374" fill="#464541" width="10" height="24"/>
			<g>
				<path fill="#B8BF57" d="M90,379.275c-10,0-18.096-10.229-18.096-22.846c0-12.615,8.096-22.844,18.096-22.844V379.275z"/>
				<path fill="#868C4F" d="M89,379.275c10,0,18.096-10.229,18.096-22.846c0-12.615-8.096-22.844-18.096-22.844V379.275z"/>
			</g>
		</g>
		<g opacity="0.1">
			<path fill="#464541" d="M89,379.26v0.016c0,0,0.395-0.004,0.5-0.006c0.105,0.002,0.5,0.006,0.5,0.006v-0.016
				c10-0.426,17.515-10.484,17.515-22.83c0-2.629-0.325-5.152-0.975-7.504l-34.714,9.396C72.575,369.789,80,378.855,89,379.26z"/>
		</g>
	</g>
	<g>
		<g>
			<rect x="158" y="421" fill="#464541" width="10" height="24"/>
			<g>
				<path fill="#B8BF57" d="M164,426.275c-10,0-18.098-10.229-18.098-22.846c0-12.615,8.098-22.844,18.098-22.844V426.275z"/>
				<path fill="#868C4F" d="M163,426.275c10,0,18.096-10.229,18.096-22.846c0-12.615-8.096-22.844-18.096-22.844V426.275z"/>
			</g>
		</g>
		<g opacity="0.1">
			<path fill="#464541" d="M163,426.26v0.016c0,0,0.393-0.004,0.5-0.006c0.105,0.002,0.5,0.006,0.5,0.006v-0.016
				c10-0.426,17.517-10.484,17.517-22.83c0-2.629-0.329-5.152-0.979-7.504l-34.712,9.396C146.575,416.789,154,425.855,163,426.26z"
				/>
		</g>
	</g>
	<g>
		<g>
			<rect x="260" y="402" fill="#464541" width="10" height="24"/>
			<g>
				<path fill="#B8BF57" d="M266,407.275c-10,0-18.096-10.229-18.096-22.846c0-12.615,8.096-22.844,18.096-22.844V407.275z"/>
				<path fill="#868C4F" d="M265,407.275c10,0,18.096-10.229,18.096-22.846c0-12.615-8.096-22.844-18.096-22.844V407.275z"/>
			</g>
		</g>
		<g opacity="0.1">
			<path fill="#464541" d="M265,407.26v0.016c0,0,0.395-0.004,0.5-0.006c0.105,0.002,0.5,0.006,0.5,0.006v-0.016
				c10-0.426,17.515-10.484,17.515-22.83c0-2.629-0.325-5.152-0.975-7.504l-34.712,9.396C248.577,397.789,256,406.855,265,407.26z"
				/>
		</g>
	</g>
	<g>
		<g>
			<rect x="342" y="378" fill="#464541" width="10" height="24"/>
			<g>
				<path fill="#B8BF57" d="M348,383.275c-10,0-18.096-10.229-18.096-22.846c0-12.615,8.096-22.844,18.096-22.844V383.275z"/>
				<path fill="#868C4F" d="M347,383.275c10,0,18.096-10.229,18.096-22.846c0-12.615-8.096-22.844-18.096-22.844V383.275z"/>
			</g>
		</g>
		<g opacity="0.1">
			<path fill="#464541" d="M347,383.26v0.016c0,0,0.395-0.004,0.5-0.006c0.105,0.002,0.5,0.006,0.5,0.006v-0.016
				c10-0.426,17.515-10.484,17.515-22.83c0-2.629-0.325-5.152-0.975-7.504l-34.715,9.396C330.575,373.789,338,382.855,347,383.26z"
				/>
		</g>
	</g>
	<g>
		<g>
			<rect x="636" y="402" fill="#464541" width="10" height="24"/>
			<g>
				<path fill="#B8BF57" d="M642,407.275c-10,0-18.096-10.229-18.096-22.846c0-12.615,8.096-22.844,18.096-22.844V407.275z"/>
				<path fill="#868C4F" d="M641,407.275c10,0,18.096-10.229,18.096-22.846c0-12.615-8.096-22.844-18.096-22.844V407.275z"/>
			</g>
		</g>
		<g opacity="0.1">
			<path fill="#464541" d="M641,407.26v0.016c0,0,0.395-0.004,0.5-0.006c0.105,0.002,0.5,0.006,0.5,0.006v-0.016
				c10-0.426,17.515-10.484,17.515-22.83c0-2.629-0.327-5.152-0.978-7.504l-34.712,9.396C624.575,397.789,632,406.855,641,407.26z"
				/>
		</g>
	</g>
	<g>
		<rect x="602" y="406" fill="#464541" width="9" height="14"/>
		<polygon fill="#B8BF57" points="615.482,368 622.105,368 606.504,342.408 590.898,368 597.521,368 584.455,406 606.447,406 
			628.551,406 		"/>
		<polygon fill="#B8BF57" points="606.504,342.674 590.898,368 597.521,368 584.455,406 606.447,406 		"/>
		<polygon fill="#868C4F" points="606.504,342.674 622.105,368 615.482,368 628.551,406 606.447,406 		"/>
		<polygon opacity="0.1" fill="#464541" points="584.455,406 615.482,368.531 628.551,406 		"/>
	</g>
	<g>
		<rect x="673" y="410" fill="#464541" width="9" height="14"/>
		<polygon fill="#B8BF57" points="686.482,372 693.105,372 677.504,346.408 661.898,372 668.521,372 655.455,410 677.447,410 
			699.551,410 		"/>
		<polygon fill="#B8BF57" points="677.504,346.674 661.898,372 668.521,372 655.455,410 677.447,410 		"/>
		<polygon fill="#868C4F" points="677.504,346.674 693.105,372 686.482,372 699.551,410 677.447,410 		"/>
		<polygon opacity="0.1" fill="#464541" points="655.455,410 686.482,372.531 699.551,410 		"/>
	</g>
	<g>
		<rect x="728" y="412" fill="#464541" width="9" height="14"/>
		<polygon fill="#B8BF57" points="741.482,374 748.105,374 732.504,348.408 716.898,374 723.521,374 710.455,412 732.447,412 
			754.551,412 		"/>
		<polygon fill="#B8BF57" points="732.504,348.674 716.898,374 723.521,374 710.455,412 732.447,412 		"/>
		<polygon fill="#868C4F" points="732.504,348.674 748.105,374 741.482,374 754.551,412 732.447,412 		"/>
		<polygon opacity="0.1" fill="#464541" points="710.455,412 741.482,374.531 754.551,412 		"/>
	</g>
	<g>
		<g>
			<rect x="108" y="414" fill="#464541" width="10" height="24"/>
			<g>
				<path fill="#D3D55A" d="M114,419.275c-10,0-18.098-10.229-18.098-22.846c0-12.615,8.098-22.844,18.098-22.844V419.275z"/>
				<path fill="#B8BF57" d="M113,419.275c10,0,18.098-10.229,18.098-22.846c0-12.615-8.098-22.844-18.098-22.844V419.275z"/>
			</g>
		</g>
		<g opacity="0.1">
			<path fill="#464541" d="M113,419.26v0.016c0,0,0.393-0.004,0.5-0.006c0.105,0.002,0.5,0.006,0.5,0.006v-0.016
				c9-0.426,17.427-10.484,17.427-22.83c0-2.629-0.372-5.152-1.022-7.504l-34.644,9.396C96.511,409.789,104,418.855,113,419.26z"/>
		</g>
	</g>
</g>
<g>
	
		<radialGradient id="SVGID_1_" cx="568.4131" cy="430.9463" r="18.6674" gradientTransform="matrix(1.2445 -0.0115 0.0063 0.4372 -220.6989 249.0621)" gradientUnits="userSpaceOnUse">
		<stop  offset="0" style="stop-color:#000100;stop-opacity:0.4"/>
		<stop  offset="1" style="stop-color:#000100;stop-opacity:0"/>
	</radialGradient>
	<ellipse fill="url(#SVGID_1_)" cx="488.781" cy="431.154" rx="24.062" ry="8.291"/>
	<g>
		<path fill="#E5E6E5" d="M503,429.617c0,0-7,4.695-15,4.695c-7.998,0-14-4.695-14-4.695V413h29V429.617z"/>
		<path fill="#464541" d="M505.219,413.445c0,0-8.053,5.867-17.062,5.867c-9.012,0-15.938-5.867-15.938-5.867l16-20L505.219,413.445
			z"/>
		<g opacity="0.1">
			<path fill="#464541" d="M487.938,419.312c-6.109,0-11.938-2.695-13.938-4.432v1c2,1.736,7.828,4.432,13.938,4.432
				c6.303,0,12.062-2.865,15.062-4.592v-1C500,416.447,494.24,419.312,487.938,419.312z"/>
		</g>
		<path fill="#333333" d="M488,425.445c-1.656,0-3,1.342-3,3v5.648c1,0.137,1.963,0.219,3,0.219c1.021,0,2-0.078,3-0.211v-5.656
			C491,426.787,489.658,425.445,488,425.445z"/>
		<path opacity="0.15" fill="#000100" d="M487.213,394.705l6.373,23.951c6.508-1.523,11.633-5.211,11.633-5.211l-17-20
			L487.213,394.705z"/>
		<g>
			<path fill="#BCCBD4" d="M494,423.863v2c0,0,1.188-0.168,2.966-0.574l-0.114-1.984C495.111,423.699,494,423.863,494,423.863z"/>
			<path fill="#BCCBD4" d="M500,424.008v-2c0,0-0.604,0.68-2.685,1.195l0.013,1.982C499.355,424.674,500,424.008,500,424.008z"/>
			<path fill="#BCCBD4" d="M494,421.361v2c0,0,1.636-0.203,2.888-0.602l-0.114-1.982C495.533,421.164,494,421.361,494,421.361z"/>
			<path fill="#BCCBD4" d="M500,421.508v-2c0,0-0.792,0.475-2.769,1.139l0.011,1.979C499.172,421.973,500,421.508,500,421.508z"/>
		</g>
		<g>
			<path fill="#BCCBD4" d="M483,423.863v2c0,0-0.97-0.168-2.747-0.574l0.009-1.984C482,423.699,483,423.863,483,423.863z"/>
			<path fill="#BCCBD4" d="M477,424.008v-2c0,0,0.823,0.68,2.903,1.195l-0.118,1.982C477.756,424.674,477,424.008,477,424.008z"/>
			<path fill="#BCCBD4" d="M483,421.361v2c0,0-1.415-0.203-2.669-0.602l0.007-1.982C481.58,421.164,483,421.361,483,421.361z"/>
			<path fill="#BCCBD4" d="M477,421.508v-2c0,0,1.013,0.475,2.989,1.139l-0.12,1.979C477.939,421.973,477,421.508,477,421.508z"/>
		</g>
	</g>
</g>
<g>
	
		<radialGradient id="SVGID_2_" cx="533.0596" cy="430.9463" r="18.6674" gradientTransform="matrix(1.2445 -0.0115 0.0063 0.4372 -220.7019 248.655)" gradientUnits="userSpaceOnUse">
		<stop  offset="0" style="stop-color:#000100;stop-opacity:0.4"/>
		<stop  offset="1" style="stop-color:#000100;stop-opacity:0"/>
	</radialGradient>
	<ellipse fill="url(#SVGID_2_)" cx="444.781" cy="431.154" rx="24.062" ry="8.291"/>
	<g>
		<path fill="#E5E6E5" d="M459,429.617c0,0-7,4.695-15,4.695c-7.998,0-14-4.695-14-4.695V413h29V429.617z"/>
		<path fill="#464541" d="M461.219,413.445c0,0-8.053,5.867-17.062,5.867c-9.012,0-15.938-5.867-15.938-5.867l16-20L461.219,413.445
			z"/>
		<g opacity="0.1">
			<path fill="#464541" d="M443.938,419.312c-6.109,0-11.938-2.695-13.938-4.432v1c2,1.736,7.828,4.432,13.938,4.432
				c6.303,0,12.062-2.865,15.062-4.592v-1C456,416.447,450.24,419.312,443.938,419.312z"/>
		</g>
		<path fill="#333333" d="M444,425.445c-1.656,0-3,1.342-3,3v5.648c1,0.137,1.963,0.219,3,0.219c1.021,0,2-0.078,3-0.211v-5.656
			C447,426.787,445.658,425.445,444,425.445z"/>
		<path opacity="0.15" fill="#000100" d="M443.213,394.705l6.373,23.951c6.508-1.523,11.633-5.211,11.633-5.211l-17-20
			L443.213,394.705z"/>
		<g>
			<path fill="#BCCBD4" d="M450,423.863v2c0,0,1.188-0.168,2.966-0.574l-0.114-1.984C451.111,423.699,450,423.863,450,423.863z"/>
			<path fill="#BCCBD4" d="M456,424.008v-2c0,0-0.604,0.68-2.685,1.195l0.013,1.982C455.355,424.674,456,424.008,456,424.008z"/>
			<path fill="#BCCBD4" d="M450,421.361v2c0,0,1.636-0.203,2.888-0.602l-0.114-1.982C451.533,421.164,450,421.361,450,421.361z"/>
			<path fill="#BCCBD4" d="M456,421.508v-2c0,0-0.792,0.475-2.769,1.139l0.011,1.979C455.172,421.973,456,421.508,456,421.508z"/>
		</g>
		<g>
			<path fill="#BCCBD4" d="M439,423.863v2c0,0-0.97-0.168-2.747-0.574l0.009-1.984C438,423.699,439,423.863,439,423.863z"/>
			<path fill="#BCCBD4" d="M433,424.008v-2c0,0,0.823,0.68,2.903,1.195l-0.118,1.982C433.756,424.674,433,424.008,433,424.008z"/>
			<path fill="#BCCBD4" d="M439,421.361v2c0,0-1.415-0.203-2.669-0.602l0.007-1.982C437.58,421.164,439,421.361,439,421.361z"/>
			<path fill="#BCCBD4" d="M433,421.508v-2c0,0,1.013,0.475,2.989,1.139l-0.12,1.979C433.939,421.973,433,421.508,433,421.508z"/>
		</g>
	</g>
</g>
<g>
	
		<radialGradient id="SVGID_3_" cx="605.3721" cy="433.9463" r="18.6674" gradientTransform="matrix(1.2445 -0.0115 0.0063 0.4372 -220.7146 251.176)" gradientUnits="userSpaceOnUse">
		<stop  offset="0" style="stop-color:#000100;stop-opacity:0.4"/>
		<stop  offset="1" style="stop-color:#000100;stop-opacity:0"/>
	</radialGradient>
	<ellipse fill="url(#SVGID_3_)" cx="534.781" cy="434.154" rx="24.062" ry="8.291"/>
	<g>
		<path fill="#E5E6E5" d="M549,432.617c0,0-7,4.695-15,4.695c-7.998,0-14-4.695-14-4.695V416h29V432.617z"/>
		<path fill="#464541" d="M551.219,416.445c0,0-8.053,5.867-17.062,5.867c-9.012,0-15.938-5.867-15.938-5.867l16-20L551.219,416.445
			z"/>
		<g opacity="0.1">
			<path fill="#464541" d="M533.938,422.312c-6.109,0-11.938-2.695-13.938-4.432v1c2,1.736,7.828,4.432,13.938,4.432
				c6.303,0,12.062-2.865,15.062-4.592v-1C546,419.447,540.24,422.312,533.938,422.312z"/>
		</g>
		<path fill="#333333" d="M534,428.445c-1.656,0-3,1.342-3,3v5.648c1,0.137,1.963,0.219,3,0.219c1.021,0,2-0.078,3-0.211v-5.656
			C537,429.787,535.658,428.445,534,428.445z"/>
		<path opacity="0.15" fill="#000100" d="M533.213,397.705l6.373,23.951c6.508-1.523,11.633-5.211,11.633-5.211l-17-20
			L533.213,397.705z"/>
		<g>
			<path fill="#BCCBD4" d="M540,426.863v2c0,0,1.188-0.168,2.966-0.574l-0.114-1.984C541.111,426.699,540,426.863,540,426.863z"/>
			<path fill="#BCCBD4" d="M546,427.008v-2c0,0-0.604,0.68-2.685,1.195l0.013,1.982C545.355,427.674,546,427.008,546,427.008z"/>
			<path fill="#BCCBD4" d="M540,424.361v2c0,0,1.636-0.203,2.888-0.602l-0.114-1.982C541.533,424.164,540,424.361,540,424.361z"/>
			<path fill="#BCCBD4" d="M546,424.508v-2c0,0-0.792,0.475-2.769,1.139l0.011,1.979C545.172,424.973,546,424.508,546,424.508z"/>
		</g>
		<g>
			<path fill="#BCCBD4" d="M529,426.863v2c0,0-0.97-0.168-2.747-0.574l0.009-1.984C528,426.699,529,426.863,529,426.863z"/>
			<path fill="#BCCBD4" d="M523,427.008v-2c0,0,0.823,0.68,2.903,1.195l-0.118,1.982C523.756,427.674,523,427.008,523,427.008z"/>
			<path fill="#BCCBD4" d="M529,424.361v2c0,0-1.415-0.203-2.669-0.602l0.007-1.982C527.58,424.164,529,424.361,529,424.361z"/>
			<path fill="#BCCBD4" d="M523,424.508v-2c0,0,1.013,0.475,2.989,1.139l-0.12,1.979C523.939,424.973,523,424.508,523,424.508z"/>
		</g>
	</g>
</g>
<g>
	
		<radialGradient id="SVGID_4_" cx="639.9229" cy="436.9463" r="18.6666" gradientTransform="matrix(1.2445 -0.0115 0.0063 0.4372 -220.7306 253.2621)" gradientUnits="userSpaceOnUse">
		<stop  offset="0" style="stop-color:#000100;stop-opacity:0.4"/>
		<stop  offset="1" style="stop-color:#000100;stop-opacity:0"/>
	</radialGradient>
	<ellipse fill="url(#SVGID_4_)" cx="577.781" cy="437.154" rx="24.062" ry="8.291"/>
	<g>
		<path fill="#E5E6E5" d="M592,435.617c0,0-7,4.695-15,4.695c-7.998,0-14-4.695-14-4.695V419h29V435.617z"/>
		<path fill="#464541" d="M594.219,419.445c0,0-8.053,5.867-17.062,5.867c-9.012,0-15.938-5.867-15.938-5.867l16-20L594.219,419.445
			z"/>
		<g opacity="0.1">
			<path fill="#464541" d="M576.938,425.312c-6.109,0-11.938-2.695-13.938-4.432v1c2,1.736,7.828,4.432,13.938,4.432
				c6.303,0,12.062-2.865,15.062-4.592v-1C589,422.447,583.24,425.312,576.938,425.312z"/>
		</g>
		<path fill="#333333" d="M577,431.445c-1.656,0-3,1.342-3,3v5.648c1,0.137,1.963,0.219,3,0.219c1.021,0,2-0.078,3-0.211v-5.656
			C580,432.787,578.658,431.445,577,431.445z"/>
		<path opacity="0.15" fill="#000100" d="M576.213,400.705l6.373,23.951c6.508-1.523,11.633-5.211,11.633-5.211l-17-20
			L576.213,400.705z"/>
		<g>
			<path fill="#BCCBD4" d="M583,429.863v2c0,0,1.188-0.168,2.966-0.574l-0.114-1.984C584.111,429.699,583,429.863,583,429.863z"/>
			<path fill="#BCCBD4" d="M589,430.008v-2c0,0-0.604,0.68-2.685,1.195l0.013,1.982C588.355,430.674,589,430.008,589,430.008z"/>
			<path fill="#BCCBD4" d="M583,427.361v2c0,0,1.636-0.203,2.888-0.602l-0.114-1.982C584.533,427.164,583,427.361,583,427.361z"/>
			<path fill="#BCCBD4" d="M589,427.508v-2c0,0-0.792,0.475-2.769,1.139l0.011,1.979C588.172,427.973,589,427.508,589,427.508z"/>
		</g>
		<g>
			<path fill="#BCCBD4" d="M572,429.863v2c0,0-0.97-0.168-2.747-0.574l0.009-1.984C571,429.699,572,429.863,572,429.863z"/>
			<path fill="#BCCBD4" d="M566,430.008v-2c0,0,0.823,0.68,2.903,1.195l-0.118,1.982C566.756,430.674,566,430.008,566,430.008z"/>
			<path fill="#BCCBD4" d="M572,427.361v2c0,0-1.415-0.203-2.669-0.602l0.007-1.982C570.58,427.164,572,427.361,572,427.361z"/>
			<path fill="#BCCBD4" d="M566,427.508v-2c0,0,1.013,0.475,2.989,1.139l-0.12,1.979C566.939,427.973,566,427.508,566,427.508z"/>
		</g>
	</g>
</g>
<g>
	
		<radialGradient id="SVGID_5_" cx="672.0615" cy="438.9463" r="18.6666" gradientTransform="matrix(1.2445 -0.0115 0.0063 0.4372 -220.7405 254.7578)" gradientUnits="userSpaceOnUse">
		<stop  offset="0" style="stop-color:#000100;stop-opacity:0.4"/>
		<stop  offset="1" style="stop-color:#000100;stop-opacity:0"/>
	</radialGradient>
	<ellipse fill="url(#SVGID_5_)" cx="617.781" cy="439.154" rx="24.062" ry="8.291"/>
	<g>
		<path fill="#E5E6E5" d="M632,437.617c0,0-7,4.695-15,4.695c-7.998,0-14-4.695-14-4.695V421h29V437.617z"/>
		<path fill="#464541" d="M634.219,421.445c0,0-8.053,5.867-17.062,5.867c-9.012,0-15.938-5.867-15.938-5.867l16-20L634.219,421.445
			z"/>
		<g opacity="0.1">
			<path fill="#464541" d="M616.938,427.312c-6.109,0-11.938-2.695-13.938-4.432v1c2,1.736,7.828,4.432,13.938,4.432
				c6.303,0,12.062-2.865,15.062-4.592v-1C629,424.447,623.24,427.312,616.938,427.312z"/>
		</g>
		<path fill="#333333" d="M617,433.445c-1.656,0-3,1.342-3,3v5.648c1,0.137,1.963,0.219,3,0.219c1.021,0,2-0.078,3-0.211v-5.656
			C620,434.787,618.658,433.445,617,433.445z"/>
		<path opacity="0.15" fill="#000100" d="M616.213,402.705l6.373,23.951c6.508-1.523,11.633-5.211,11.633-5.211l-17-20
			L616.213,402.705z"/>
		<g>
			<path fill="#BCCBD4" d="M623,431.863v2c0,0,1.188-0.168,2.966-0.574l-0.114-1.984C624.111,431.699,623,431.863,623,431.863z"/>
			<path fill="#BCCBD4" d="M629,432.008v-2c0,0-0.604,0.68-2.685,1.195l0.013,1.982C628.355,432.674,629,432.008,629,432.008z"/>
			<path fill="#BCCBD4" d="M623,429.361v2c0,0,1.636-0.203,2.888-0.602l-0.114-1.982C624.533,429.164,623,429.361,623,429.361z"/>
			<path fill="#BCCBD4" d="M629,429.508v-2c0,0-0.792,0.475-2.769,1.139l0.011,1.979C628.172,429.973,629,429.508,629,429.508z"/>
		</g>
		<g>
			<path fill="#BCCBD4" d="M612,431.863v2c0,0-0.97-0.168-2.747-0.574l0.009-1.984C611,431.699,612,431.863,612,431.863z"/>
			<path fill="#BCCBD4" d="M606,432.008v-2c0,0,0.823,0.68,2.903,1.195l-0.118,1.982C606.756,432.674,606,432.008,606,432.008z"/>
			<path fill="#BCCBD4" d="M612,429.361v2c0,0-1.415-0.203-2.669-0.602l0.007-1.982C610.58,429.164,612,429.361,612,429.361z"/>
			<path fill="#BCCBD4" d="M606,429.508v-2c0,0,1.013,0.475,2.989,1.139l-0.12,1.979C606.939,429.973,606,429.508,606,429.508z"/>
		</g>
	</g>
</g>
<g>
	
		<radialGradient id="SVGID_6_" cx="705.8076" cy="441.9463" r="18.6666" gradientTransform="matrix(1.2445 -0.0115 0.0063 0.4372 -220.7565 256.8347)" gradientUnits="userSpaceOnUse">
		<stop  offset="0" style="stop-color:#000100;stop-opacity:0.4"/>
		<stop  offset="1" style="stop-color:#000100;stop-opacity:0"/>
	</radialGradient>
	<ellipse fill="url(#SVGID_6_)" cx="659.781" cy="442.154" rx="24.062" ry="8.291"/>
	<g>
		<path fill="#E5E6E5" d="M674,440.617c0,0-7,4.695-15,4.695c-7.998,0-14-4.695-14-4.695V424h29V440.617z"/>
		<path fill="#464541" d="M676.219,424.445c0,0-8.053,5.867-17.062,5.867c-9.012,0-15.938-5.867-15.938-5.867l16-20L676.219,424.445
			z"/>
		<g opacity="0.1">
			<path fill="#464541" d="M658.938,430.312c-6.109,0-11.938-2.695-13.938-4.432v1c2,1.736,7.828,4.432,13.938,4.432
				c6.303,0,12.062-2.865,15.062-4.592v-1C671,427.447,665.24,430.312,658.938,430.312z"/>
		</g>
		<path fill="#333333" d="M659,436.445c-1.656,0-3,1.342-3,3v5.648c1,0.137,1.963,0.219,3,0.219c1.021,0,2-0.078,3-0.211v-5.656
			C662,437.787,660.658,436.445,659,436.445z"/>
		<path opacity="0.15" fill="#000100" d="M658.213,405.705l6.373,23.951c6.508-1.523,11.633-5.211,11.633-5.211l-17-20
			L658.213,405.705z"/>
		<g>
			<path fill="#BCCBD4" d="M665,434.863v2c0,0,1.188-0.168,2.966-0.574l-0.114-1.984C666.111,434.699,665,434.863,665,434.863z"/>
			<path fill="#BCCBD4" d="M671,435.008v-2c0,0-0.604,0.68-2.685,1.195l0.013,1.982C670.355,435.674,671,435.008,671,435.008z"/>
			<path fill="#BCCBD4" d="M665,432.361v2c0,0,1.636-0.203,2.888-0.602l-0.114-1.982C666.533,432.164,665,432.361,665,432.361z"/>
			<path fill="#BCCBD4" d="M671,432.508v-2c0,0-0.792,0.475-2.769,1.139l0.011,1.979C670.172,432.973,671,432.508,671,432.508z"/>
		</g>
		<g>
			<path fill="#BCCBD4" d="M654,434.863v2c0,0-0.97-0.168-2.747-0.574l0.009-1.984C653,434.699,654,434.863,654,434.863z"/>
			<path fill="#BCCBD4" d="M648,435.008v-2c0,0,0.823,0.68,2.903,1.195l-0.118,1.982C648.756,435.674,648,435.008,648,435.008z"/>
			<path fill="#BCCBD4" d="M654,432.361v2c0,0-1.415-0.203-2.669-0.602l0.007-1.982C652.58,432.164,654,432.361,654,432.361z"/>
			<path fill="#BCCBD4" d="M648,432.508v-2c0,0,1.013,0.475,2.989,1.139l-0.12,1.979C648.939,432.973,648,432.508,648,432.508z"/>
		</g>
	</g>
</g>
<g>
	
		<radialGradient id="SVGID_7_" cx="680.0957" cy="465.9463" r="18.6674" gradientTransform="matrix(1.2445 -0.0115 0.0063 0.4372 -220.909 270.0446)" gradientUnits="userSpaceOnUse">
		<stop  offset="0" style="stop-color:#000100;stop-opacity:0.4"/>
		<stop  offset="1" style="stop-color:#000100;stop-opacity:0"/>
	</radialGradient>
	<ellipse fill="url(#SVGID_7_)" cx="627.781" cy="466.154" rx="24.062" ry="8.291"/>
	<g>
		<path fill="#E5E6E5" d="M642,464.617c0,0-7,4.695-15,4.695c-7.998,0-14-4.695-14-4.695V448h29V464.617z"/>
		<path fill="#464541" d="M644.219,448.445c0,0-8.053,5.867-17.062,5.867c-9.012,0-15.938-5.867-15.938-5.867l16-20L644.219,448.445
			z"/>
		<g opacity="0.1">
			<path fill="#464541" d="M626.938,454.312c-6.109,0-11.938-2.695-13.938-4.432v1c2,1.736,7.828,4.432,13.938,4.432
				c6.303,0,12.062-2.865,15.062-4.592v-1C639,451.447,633.24,454.312,626.938,454.312z"/>
		</g>
		<path fill="#333333" d="M627,460.445c-1.656,0-3,1.342-3,3v5.648c1,0.137,1.963,0.219,3,0.219c1.021,0,2-0.078,3-0.211v-5.656
			C630,461.787,628.658,460.445,627,460.445z"/>
		<path opacity="0.15" fill="#000100" d="M626.213,429.705l6.373,23.951c6.508-1.523,11.633-5.211,11.633-5.211l-17-20
			L626.213,429.705z"/>
		<g>
			<path fill="#BCCBD4" d="M633,458.863v2c0,0,1.188-0.168,2.966-0.574l-0.114-1.984C634.111,458.699,633,458.863,633,458.863z"/>
			<path fill="#BCCBD4" d="M639,459.008v-2c0,0-0.604,0.68-2.685,1.195l0.013,1.982C638.355,459.674,639,459.008,639,459.008z"/>
			<path fill="#BCCBD4" d="M633,456.361v2c0,0,1.636-0.203,2.888-0.602l-0.114-1.982C634.533,456.164,633,456.361,633,456.361z"/>
			<path fill="#BCCBD4" d="M639,456.508v-2c0,0-0.792,0.475-2.769,1.139l0.011,1.979C638.172,456.973,639,456.508,639,456.508z"/>
		</g>
		<g>
			<path fill="#BCCBD4" d="M622,458.863v2c0,0-0.97-0.168-2.747-0.574l0.009-1.984C621,458.699,622,458.863,622,458.863z"/>
			<path fill="#BCCBD4" d="M616,459.008v-2c0,0,0.823,0.68,2.903,1.195l-0.118,1.982C616.756,459.674,616,459.008,616,459.008z"/>
			<path fill="#BCCBD4" d="M622,456.361v2c0,0-1.415-0.203-2.669-0.602l0.007-1.982C620.58,456.164,622,456.361,622,456.361z"/>
			<path fill="#BCCBD4" d="M616,456.508v-2c0,0,1.013,0.475,2.989,1.139l-0.12,1.979C616.939,456.973,616,456.508,616,456.508z"/>
		</g>
	</g>
</g>
<g>
	
		<radialGradient id="SVGID_8_" cx="646.3506" cy="483.9463" r="18.6666" gradientTransform="matrix(1.2445 -0.0115 0.0063 0.4372 -221.0246 279.7856)" gradientUnits="userSpaceOnUse">
		<stop  offset="0" style="stop-color:#000100;stop-opacity:0.4"/>
		<stop  offset="1" style="stop-color:#000100;stop-opacity:0"/>
	</radialGradient>
	<ellipse fill="url(#SVGID_8_)" cx="585.781" cy="484.154" rx="24.062" ry="8.291"/>
	<g>
		<path fill="#E5E6E5" d="M600,482.617c0,0-7,4.695-15,4.695c-7.998,0-14-4.695-14-4.695V466h29V482.617z"/>
		<path fill="#464541" d="M602.219,466.445c0,0-8.053,5.867-17.062,5.867c-9.012,0-15.938-5.867-15.938-5.867l16-20L602.219,466.445
			z"/>
		<g opacity="0.1">
			<path fill="#464541" d="M584.938,472.312c-6.109,0-11.938-2.695-13.938-4.432v1c2,1.736,7.828,4.432,13.938,4.432
				c6.303,0,12.062-2.865,15.062-4.592v-1C597,469.447,591.24,472.312,584.938,472.312z"/>
		</g>
		<path fill="#333333" d="M585,478.445c-1.656,0-3,1.342-3,3v5.648c1,0.137,1.963,0.219,3,0.219c1.021,0,2-0.078,3-0.211v-5.656
			C588,479.787,586.658,478.445,585,478.445z"/>
		<path opacity="0.15" fill="#000100" d="M584.213,447.705l6.373,23.951c6.508-1.523,11.633-5.211,11.633-5.211l-17-20
			L584.213,447.705z"/>
		<g>
			<path fill="#BCCBD4" d="M591,476.863v2c0,0,1.188-0.168,2.966-0.574l-0.114-1.984C592.111,476.699,591,476.863,591,476.863z"/>
			<path fill="#BCCBD4" d="M597,477.008v-2c0,0-0.604,0.68-2.685,1.195l0.013,1.982C596.355,477.674,597,477.008,597,477.008z"/>
			<path fill="#BCCBD4" d="M591,474.361v2c0,0,1.636-0.203,2.888-0.602l-0.114-1.982C592.533,474.164,591,474.361,591,474.361z"/>
			<path fill="#BCCBD4" d="M597,474.508v-2c0,0-0.792,0.475-2.769,1.139l0.011,1.979C596.172,474.973,597,474.508,597,474.508z"/>
		</g>
		<g>
			<path fill="#BCCBD4" d="M580,476.863v2c0,0-0.97-0.168-2.747-0.574l0.009-1.984C579,476.699,580,476.863,580,476.863z"/>
			<path fill="#BCCBD4" d="M574,477.008v-2c0,0,0.823,0.68,2.903,1.195l-0.118,1.982C574.756,477.674,574,477.008,574,477.008z"/>
			<path fill="#BCCBD4" d="M580,474.361v2c0,0-1.415-0.203-2.669-0.602l0.007-1.982C578.58,474.164,580,474.361,580,474.361z"/>
			<path fill="#BCCBD4" d="M574,474.508v-2c0,0,1.013,0.475,2.989,1.139l-0.12,1.979C574.939,474.973,574,474.508,574,474.508z"/>
		</g>
	</g>
</g>
<g>
	
		<radialGradient id="SVGID_9_" cx="613.4072" cy="496.9463" r="18.6674" gradientTransform="matrix(1.2445 -0.0115 0.0063 0.4372 -221.1088 286.722)" gradientUnits="userSpaceOnUse">
		<stop  offset="0" style="stop-color:#000100;stop-opacity:0.4"/>
		<stop  offset="1" style="stop-color:#000100;stop-opacity:0"/>
	</radialGradient>
	<ellipse fill="url(#SVGID_9_)" cx="544.781" cy="497.154" rx="24.062" ry="8.291"/>
	<g>
		<path fill="#E5E6E5" d="M559,495.617c0,0-7,4.695-15,4.695c-7.998,0-14-4.695-14-4.695V479h29V495.617z"/>
		<path fill="#464541" d="M561.219,479.445c0,0-8.053,5.867-17.062,5.867c-9.012,0-15.938-5.867-15.938-5.867l16-20L561.219,479.445
			z"/>
		<g opacity="0.1">
			<path fill="#464541" d="M543.938,485.312c-6.109,0-11.938-2.695-13.938-4.432v1c2,1.736,7.828,4.432,13.938,4.432
				c6.303,0,12.062-2.865,15.062-4.592v-1C556,482.447,550.24,485.312,543.938,485.312z"/>
		</g>
		<path fill="#333333" d="M544,491.445c-1.656,0-3,1.342-3,3v5.648c1,0.137,1.963,0.219,3,0.219c1.021,0,2-0.078,3-0.211v-5.656
			C547,492.787,545.658,491.445,544,491.445z"/>
		<path opacity="0.15" fill="#000100" d="M543.213,460.705l6.373,23.951c6.508-1.523,11.633-5.211,11.633-5.211l-17-20
			L543.213,460.705z"/>
		<g>
			<path fill="#BCCBD4" d="M550,489.863v2c0,0,1.188-0.168,2.966-0.574l-0.114-1.984C551.111,489.699,550,489.863,550,489.863z"/>
			<path fill="#BCCBD4" d="M556,490.008v-2c0,0-0.604,0.68-2.685,1.195l0.013,1.982C555.355,490.674,556,490.008,556,490.008z"/>
			<path fill="#BCCBD4" d="M550,487.361v2c0,0,1.636-0.203,2.888-0.602l-0.114-1.982C551.533,487.164,550,487.361,550,487.361z"/>
			<path fill="#BCCBD4" d="M556,487.508v-2c0,0-0.792,0.475-2.769,1.139l0.011,1.979C555.172,487.973,556,487.508,556,487.508z"/>
		</g>
		<g>
			<path fill="#BCCBD4" d="M539,489.863v2c0,0-0.97-0.168-2.747-0.574l0.009-1.984C538,489.699,539,489.863,539,489.863z"/>
			<path fill="#BCCBD4" d="M533,490.008v-2c0,0,0.823,0.68,2.903,1.195l-0.118,1.982C533.756,490.674,533,490.008,533,490.008z"/>
			<path fill="#BCCBD4" d="M539,487.361v2c0,0-1.415-0.203-2.669-0.602l0.007-1.982C537.58,487.164,539,487.361,539,487.361z"/>
			<path fill="#BCCBD4" d="M533,487.508v-2c0,0,1.013,0.475,2.989,1.139l-0.12,1.979C533.939,487.973,533,487.508,533,487.508z"/>
		</g>
	</g>
</g>
<g>
	
		<radialGradient id="SVGID_10_" cx="576.4482" cy="496.9463" r="18.6666" gradientTransform="matrix(1.2445 -0.0115 0.0063 0.4372 -221.1118 286.2964)" gradientUnits="userSpaceOnUse">
		<stop  offset="0" style="stop-color:#000100;stop-opacity:0.4"/>
		<stop  offset="1" style="stop-color:#000100;stop-opacity:0"/>
	</radialGradient>
	<ellipse fill="url(#SVGID_10_)" cx="498.781" cy="497.154" rx="24.062" ry="8.291"/>
	<g>
		<path fill="#E5E6E5" d="M513,495.617c0,0-7,4.695-15,4.695c-7.998,0-14-4.695-14-4.695V479h29V495.617z"/>
		<path fill="#464541" d="M515.219,479.445c0,0-8.053,5.867-17.062,5.867c-9.012,0-15.938-5.867-15.938-5.867l16-20L515.219,479.445
			z"/>
		<g opacity="0.1">
			<path fill="#464541" d="M497.938,485.312c-6.109,0-11.938-2.695-13.938-4.432v1c2,1.736,7.828,4.432,13.938,4.432
				c6.303,0,12.062-2.865,15.062-4.592v-1C510,482.447,504.24,485.312,497.938,485.312z"/>
		</g>
		<path fill="#333333" d="M498,491.445c-1.656,0-3,1.342-3,3v5.648c1,0.137,1.963,0.219,3,0.219c1.021,0,2-0.078,3-0.211v-5.656
			C501,492.787,499.658,491.445,498,491.445z"/>
		<path opacity="0.15" fill="#000100" d="M497.213,460.705l6.373,23.951c6.508-1.523,11.633-5.211,11.633-5.211l-17-20
			L497.213,460.705z"/>
		<g>
			<path fill="#BCCBD4" d="M504,489.863v2c0,0,1.188-0.168,2.966-0.574l-0.114-1.984C505.111,489.699,504,489.863,504,489.863z"/>
			<path fill="#BCCBD4" d="M510,490.008v-2c0,0-0.604,0.68-2.685,1.195l0.013,1.982C509.355,490.674,510,490.008,510,490.008z"/>
			<path fill="#BCCBD4" d="M504,487.361v2c0,0,1.636-0.203,2.888-0.602l-0.114-1.982C505.533,487.164,504,487.361,504,487.361z"/>
			<path fill="#BCCBD4" d="M510,487.508v-2c0,0-0.792,0.475-2.769,1.139l0.011,1.979C509.172,487.973,510,487.508,510,487.508z"/>
		</g>
		<g>
			<path fill="#BCCBD4" d="M493,489.863v2c0,0-0.97-0.168-2.747-0.574l0.009-1.984C492,489.699,493,489.863,493,489.863z"/>
			<path fill="#BCCBD4" d="M487,490.008v-2c0,0,0.823,0.68,2.903,1.195l-0.118,1.982C487.756,490.674,487,490.008,487,490.008z"/>
			<path fill="#BCCBD4" d="M493,487.361v2c0,0-1.415-0.203-2.669-0.602l0.007-1.982C491.58,487.164,493,487.361,493,487.361z"/>
			<path fill="#BCCBD4" d="M487,487.508v-2c0,0,1.013,0.475,2.989,1.139l-0.12,1.979C487.939,487.973,487,487.508,487,487.508z"/>
		</g>
	</g>
</g>
<g>
	
		<radialGradient id="SVGID_11_" cx="523.8701" cy="430.9463" r="18.6674" gradientTransform="matrix(-1.2445 -0.0115 -0.0063 0.4372 997.8276 248.5492)" gradientUnits="userSpaceOnUse">
		<stop  offset="0" style="stop-color:#000100;stop-opacity:0.4"/>
		<stop  offset="1" style="stop-color:#000100;stop-opacity:0"/>
	</radialGradient>
	<ellipse fill="url(#SVGID_11_)" cx="343.781" cy="431.154" rx="24.063" ry="8.291"/>
	<g>
		<path fill="#E5E6E5" d="M329,429.617c0,0,7.002,4.695,15,4.695c8,0,14-4.695,14-4.695V413h-29V429.617z"/>
		<path fill="#464541" d="M327.344,413.445c0,0,8.053,5.867,17.062,5.867c9.012,0,15.938-5.867,15.938-5.867l-16-20L327.344,413.445
			z"/>
		<g opacity="0.1">
			<path fill="#464541" d="M344.062,419.312c6.111,0,10.938-2.695,13.938-4.432v1c-3,1.736-7.826,4.432-13.938,4.432
				c-6.303,0-12.062-2.865-15.062-4.592v-1C332,416.447,337.76,419.312,344.062,419.312z"/>
		</g>
		<path fill="#333333" d="M344,425.445c1.658,0,3,1.342,3,3v5.648c-1,0.137-1.963,0.219-3,0.219c-1.02,0-2-0.078-3-0.211v-5.656
			C341,426.787,342.344,425.445,344,425.445z"/>
		<path opacity="0.15" fill="#000100" d="M345.352,394.705l-6.373,23.951c-6.51-1.523-11.635-5.211-11.635-5.211l17-20
			L345.352,394.705z"/>
		<g>
			<path fill="#BCCBD4" d="M338,423.863v2c0,0-0.907-0.168-2.685-0.574l-0.023-1.984C337.033,423.699,338,423.863,338,423.863z"/>
			<path fill="#BCCBD4" d="M332,424.008v-2c0,0,0.886,0.68,2.966,1.195l-0.15,1.982C332.789,424.674,332,424.008,332,424.008z"/>
			<path fill="#BCCBD4" d="M338,421.361v2c0,0-1.353-0.203-2.606-0.602l-0.023-1.982C336.611,421.164,338,421.361,338,421.361z"/>
			<path fill="#BCCBD4" d="M332,421.508v-2c0,0,1.075,0.475,3.052,1.139l-0.15,1.979C332.972,421.973,332,421.508,332,421.508z"/>
		</g>
		<g>
			<path fill="#BCCBD4" d="M349,423.863v2c0,0,1.251-0.168,3.028-0.574l-0.146-1.984C350.144,423.699,349,423.863,349,423.863z"/>
			<path fill="#BCCBD4" d="M355,424.008v-2c0,0-0.542,0.68-2.622,1.195l-0.019,1.982C354.388,424.674,355,424.008,355,424.008z"/>
			<path fill="#BCCBD4" d="M349,421.361v2c0,0,1.698-0.203,2.95-0.602l-0.144-1.982C350.564,421.164,349,421.361,349,421.361z"/>
			<path fill="#BCCBD4" d="M355,421.508v-2c0,0-0.729,0.475-2.706,1.139l-0.019,1.979C354.205,421.973,355,421.508,355,421.508z"/>
		</g>
	</g>
</g>
<g>
	
		<radialGradient id="SVGID_12_" cx="568.4131" cy="462.9463" r="18.6674" gradientTransform="matrix(1.2445 -0.0115 0.0063 0.4372 -220.8994 267.0702)" gradientUnits="userSpaceOnUse">
		<stop  offset="0" style="stop-color:#000100;stop-opacity:0.4"/>
		<stop  offset="1" style="stop-color:#000100;stop-opacity:0"/>
	</radialGradient>
	<ellipse fill="url(#SVGID_12_)" cx="488.781" cy="463.154" rx="24.062" ry="8.291"/>
	<g>
		<path fill="#E5E6E5" d="M503,461.617c0,0-7,4.695-15,4.695c-7.998,0-14-4.695-14-4.695V445h29V461.617z"/>
		<path fill="#464541" d="M505.219,445.445c0,0-8.053,5.867-17.062,5.867c-9.012,0-15.938-5.867-15.938-5.867l16-20L505.219,445.445
			z"/>
		<g opacity="0.1">
			<path fill="#464541" d="M487.938,451.312c-6.109,0-11.938-2.695-13.938-4.432v1c2,1.736,7.828,4.432,13.938,4.432
				c6.303,0,12.062-2.865,15.062-4.592v-1C500,448.447,494.24,451.312,487.938,451.312z"/>
		</g>
		<path fill="#333333" d="M488,457.445c-1.656,0-3,1.342-3,3v5.648c1,0.137,1.963,0.219,3,0.219c1.021,0,2-0.078,3-0.211v-5.656
			C491,458.787,489.658,457.445,488,457.445z"/>
		<path opacity="0.15" fill="#000100" d="M487.213,426.705l6.373,23.951c6.508-1.523,11.633-5.211,11.633-5.211l-17-20
			L487.213,426.705z"/>
		<g>
			<path fill="#BCCBD4" d="M494,455.863v2c0,0,1.188-0.168,2.966-0.574l-0.114-1.984C495.111,455.699,494,455.863,494,455.863z"/>
			<path fill="#BCCBD4" d="M500,456.008v-2c0,0-0.604,0.68-2.685,1.195l0.013,1.982C499.355,456.674,500,456.008,500,456.008z"/>
			<path fill="#BCCBD4" d="M494,453.361v2c0,0,1.636-0.203,2.888-0.602l-0.114-1.982C495.533,453.164,494,453.361,494,453.361z"/>
			<path fill="#BCCBD4" d="M500,453.508v-2c0,0-0.792,0.475-2.769,1.139l0.011,1.979C499.172,453.973,500,453.508,500,453.508z"/>
		</g>
		<g>
			<path fill="#BCCBD4" d="M483,455.863v2c0,0-0.97-0.168-2.747-0.574l0.009-1.984C482,455.699,483,455.863,483,455.863z"/>
			<path fill="#BCCBD4" d="M477,456.008v-2c0,0,0.823,0.68,2.903,1.195l-0.118,1.982C477.756,456.674,477,456.008,477,456.008z"/>
			<path fill="#BCCBD4" d="M483,453.361v2c0,0-1.415-0.203-2.669-0.602l0.007-1.982C481.58,453.164,483,453.361,483,453.361z"/>
			<path fill="#BCCBD4" d="M477,453.508v-2c0,0,1.013,0.475,2.989,1.139l-0.12,1.979C477.939,453.973,477,453.508,477,453.508z"/>
		</g>
	</g>
</g>
<g>
	
		<radialGradient id="SVGID_13_" cx="523.8701" cy="462.9463" r="18.6674" gradientTransform="matrix(-1.2445 -0.0115 -0.0063 0.4372 998.0281 266.5573)" gradientUnits="userSpaceOnUse">
		<stop  offset="0" style="stop-color:#000100;stop-opacity:0.4"/>
		<stop  offset="1" style="stop-color:#000100;stop-opacity:0"/>
	</radialGradient>
	<ellipse fill="url(#SVGID_13_)" cx="343.781" cy="463.154" rx="24.063" ry="8.291"/>
	<g>
		<path fill="#E5E6E5" d="M329,461.617c0,0,7.002,4.695,15,4.695c8,0,14-4.695,14-4.695V445h-29V461.617z"/>
		<path fill="#464541" d="M327.344,445.445c0,0,8.053,5.867,17.062,5.867c9.012,0,15.938-5.867,15.938-5.867l-16-20L327.344,445.445
			z"/>
		<g opacity="0.1">
			<path fill="#464541" d="M344.062,451.312c6.111,0,10.938-2.695,13.938-4.432v1c-3,1.736-7.826,4.432-13.938,4.432
				c-6.303,0-12.062-2.865-15.062-4.592v-1C332,448.447,337.76,451.312,344.062,451.312z"/>
		</g>
		<path fill="#333333" d="M344,457.445c1.658,0,3,1.342,3,3v5.648c-1,0.137-1.963,0.219-3,0.219c-1.02,0-2-0.078-3-0.211v-5.656
			C341,458.787,342.344,457.445,344,457.445z"/>
		<path opacity="0.15" fill="#000100" d="M345.352,426.705l-6.373,23.951c-6.51-1.523-11.635-5.211-11.635-5.211l17-20
			L345.352,426.705z"/>
		<g>
			<path fill="#BCCBD4" d="M338,455.863v2c0,0-0.907-0.168-2.685-0.574l-0.023-1.984C337.033,455.699,338,455.863,338,455.863z"/>
			<path fill="#BCCBD4" d="M332,456.008v-2c0,0,0.886,0.68,2.966,1.195l-0.15,1.982C332.789,456.674,332,456.008,332,456.008z"/>
			<path fill="#BCCBD4" d="M338,453.361v2c0,0-1.353-0.203-2.606-0.602l-0.023-1.982C336.611,453.164,338,453.361,338,453.361z"/>
			<path fill="#BCCBD4" d="M332,453.508v-2c0,0,1.075,0.475,3.052,1.139l-0.15,1.979C332.972,453.973,332,453.508,332,453.508z"/>
		</g>
		<g>
			<path fill="#BCCBD4" d="M349,455.863v2c0,0,1.251-0.168,3.028-0.574l-0.146-1.984C350.144,455.699,349,455.863,349,455.863z"/>
			<path fill="#BCCBD4" d="M355,456.008v-2c0,0-0.542,0.68-2.622,1.195l-0.019,1.982C354.388,456.674,355,456.008,355,456.008z"/>
			<path fill="#BCCBD4" d="M349,453.361v2c0,0,1.698-0.203,2.95-0.602l-0.144-1.982C350.564,453.164,349,453.361,349,453.361z"/>
			<path fill="#BCCBD4" d="M355,453.508v-2c0,0-0.729,0.475-2.706,1.139l-0.019,1.979C354.205,453.973,355,453.508,355,453.508z"/>
		</g>
	</g>
</g>
<g>
	
		<radialGradient id="SVGID_14_" cx="485.3037" cy="430.9463" r="18.6674" gradientTransform="matrix(-1.2445 -0.0115 -0.0063 0.4372 997.8307 248.105)" gradientUnits="userSpaceOnUse">
		<stop  offset="0" style="stop-color:#000100;stop-opacity:0.4"/>
		<stop  offset="1" style="stop-color:#000100;stop-opacity:0"/>
	</radialGradient>
	<ellipse fill="url(#SVGID_14_)" cx="391.781" cy="431.154" rx="24.062" ry="8.291"/>
	<g>
		<path fill="#E5E6E5" d="M377,429.617c0,0,7.002,4.695,15,4.695c8,0,14-4.695,14-4.695V413h-29V429.617z"/>
		<path fill="#464541" d="M375.344,413.445c0,0,8.053,5.867,17.062,5.867c9.012,0,15.938-5.867,15.938-5.867l-16-20L375.344,413.445
			z"/>
		<g opacity="0.1">
			<path fill="#464541" d="M392.062,419.312c6.111,0,10.938-2.695,13.938-4.432v1c-3,1.736-7.826,4.432-13.938,4.432
				c-6.303,0-12.062-2.865-15.062-4.592v-1C380,416.447,385.76,419.312,392.062,419.312z"/>
		</g>
		<path fill="#333333" d="M392,425.445c1.658,0,3,1.342,3,3v5.648c-1,0.137-1.963,0.219-3,0.219c-1.02,0-2-0.078-3-0.211v-5.656
			C389,426.787,390.344,425.445,392,425.445z"/>
		<path opacity="0.15" fill="#000100" d="M393.352,394.705l-6.373,23.951c-6.51-1.523-11.635-5.211-11.635-5.211l17-20
			L393.352,394.705z"/>
		<g>
			<path fill="#BCCBD4" d="M386,423.863v2c0,0-0.907-0.168-2.685-0.574l-0.023-1.984C385.033,423.699,386,423.863,386,423.863z"/>
			<path fill="#BCCBD4" d="M380,424.008v-2c0,0,0.886,0.68,2.966,1.195l-0.15,1.982C380.789,424.674,380,424.008,380,424.008z"/>
			<path fill="#BCCBD4" d="M386,421.361v2c0,0-1.353-0.203-2.606-0.602l-0.023-1.982C384.611,421.164,386,421.361,386,421.361z"/>
			<path fill="#BCCBD4" d="M380,421.508v-2c0,0,1.075,0.475,3.052,1.139l-0.15,1.979C380.972,421.973,380,421.508,380,421.508z"/>
		</g>
		<g>
			<path fill="#BCCBD4" d="M397,423.863v2c0,0,1.251-0.168,3.028-0.574l-0.146-1.984C398.144,423.699,397,423.863,397,423.863z"/>
			<path fill="#BCCBD4" d="M403,424.008v-2c0,0-0.542,0.68-2.622,1.195l-0.019,1.982C402.387,424.674,403,424.008,403,424.008z"/>
			<path fill="#BCCBD4" d="M397,421.361v2c0,0,1.698-0.203,2.95-0.602l-0.146-1.982C398.564,421.164,397,421.361,397,421.361z"/>
			<path fill="#BCCBD4" d="M403,421.508v-2c0,0-0.729,0.475-2.706,1.139l-0.021,1.979C402.203,421.973,403,421.508,403,421.508z"/>
		</g>
	</g>
</g>
<g>
	
		<radialGradient id="SVGID_15_" cx="560.8301" cy="433.9463" r="18.6666" gradientTransform="matrix(-1.2445 -0.0115 -0.0063 0.4372 997.8433 250.6631)" gradientUnits="userSpaceOnUse">
		<stop  offset="0" style="stop-color:#000100;stop-opacity:0.4"/>
		<stop  offset="1" style="stop-color:#000100;stop-opacity:0"/>
	</radialGradient>
	<ellipse fill="url(#SVGID_15_)" cx="297.781" cy="434.154" rx="24.062" ry="8.291"/>
	<g>
		<path fill="#E5E6E5" d="M283,432.617c0,0,7.002,4.695,15,4.695c8,0,14-4.695,14-4.695V416h-29V432.617z"/>
		<path fill="#464541" d="M281.344,416.445c0,0,8.053,5.867,17.062,5.867c9.012,0,15.938-5.867,15.938-5.867l-16-20L281.344,416.445
			z"/>
		<g opacity="0.1">
			<path fill="#464541" d="M298.062,422.312c6.111,0,10.938-2.695,13.938-4.432v1c-3,1.736-7.826,4.432-13.938,4.432
				c-6.303,0-12.062-2.865-15.062-4.592v-1C286,419.447,291.76,422.312,298.062,422.312z"/>
		</g>
		<path fill="#333333" d="M298,428.445c1.658,0,3,1.342,3,3v5.648c-1,0.137-1.963,0.219-3,0.219c-1.02,0-2-0.078-3-0.211v-5.656
			C295,429.787,296.344,428.445,298,428.445z"/>
		<path opacity="0.15" fill="#000100" d="M299.352,397.705l-6.373,23.951c-6.51-1.523-11.635-5.211-11.635-5.211l17-20
			L299.352,397.705z"/>
		<g>
			<path fill="#BCCBD4" d="M292,426.863v2c0,0-0.907-0.168-2.685-0.574l-0.023-1.984C291.033,426.699,292,426.863,292,426.863z"/>
			<path fill="#BCCBD4" d="M286,427.008v-2c0,0,0.886,0.68,2.966,1.195l-0.15,1.982C286.789,427.674,286,427.008,286,427.008z"/>
			<path fill="#BCCBD4" d="M292,424.361v2c0,0-1.353-0.203-2.606-0.602l-0.023-1.982C290.611,424.164,292,424.361,292,424.361z"/>
			<path fill="#BCCBD4" d="M286,424.508v-2c0,0,1.075,0.475,3.052,1.139l-0.15,1.979C286.972,424.973,286,424.508,286,424.508z"/>
		</g>
		<g>
			<path fill="#BCCBD4" d="M303,426.863v2c0,0,1.251-0.168,3.028-0.574l-0.146-1.984C304.144,426.699,303,426.863,303,426.863z"/>
			<path fill="#BCCBD4" d="M309,427.008v-2c0,0-0.542,0.68-2.622,1.195l-0.019,1.982C308.388,427.674,309,427.008,309,427.008z"/>
			<path fill="#BCCBD4" d="M303,424.361v2c0,0,1.698-0.203,2.95-0.602l-0.144-1.982C304.564,424.164,303,424.361,303,424.361z"/>
			<path fill="#BCCBD4" d="M309,424.508v-2c0,0-0.729,0.475-2.706,1.139l-0.019,1.979C308.205,424.973,309,424.508,309,424.508z"/>
		</g>
	</g>
</g>
<g>
	
		<radialGradient id="SVGID_16_" cx="605.3721" cy="461.9463" r="18.6674" gradientTransform="matrix(1.2445 -0.0115 0.0063 0.4372 -220.8901 266.9331)" gradientUnits="userSpaceOnUse">
		<stop  offset="0" style="stop-color:#000100;stop-opacity:0.4"/>
		<stop  offset="1" style="stop-color:#000100;stop-opacity:0"/>
	</radialGradient>
	<ellipse fill="url(#SVGID_16_)" cx="534.781" cy="462.154" rx="24.062" ry="8.291"/>
	<g>
		<path fill="#E5E6E5" d="M549,460.617c0,0-7,4.695-15,4.695c-7.998,0-14-4.695-14-4.695V444h29V460.617z"/>
		<path fill="#464541" d="M551.219,444.445c0,0-8.053,5.867-17.062,5.867c-9.012,0-15.938-5.867-15.938-5.867l16-20L551.219,444.445
			z"/>
		<g opacity="0.1">
			<path fill="#464541" d="M533.938,450.312c-6.109,0-11.938-2.695-13.938-4.432v1c2,1.736,7.828,4.432,13.938,4.432
				c6.303,0,12.062-2.865,15.062-4.592v-1C546,447.447,540.24,450.312,533.938,450.312z"/>
		</g>
		<path fill="#333333" d="M534,456.445c-1.656,0-3,1.342-3,3v5.648c1,0.137,1.963,0.219,3,0.219c1.021,0,2-0.078,3-0.211v-5.656
			C537,457.787,535.658,456.445,534,456.445z"/>
		<path opacity="0.15" fill="#000100" d="M533.213,425.705l6.373,23.951c6.508-1.523,11.633-5.211,11.633-5.211l-17-20
			L533.213,425.705z"/>
		<g>
			<path fill="#BCCBD4" d="M540,454.863v2c0,0,1.188-0.168,2.966-0.574l-0.114-1.984C541.111,454.699,540,454.863,540,454.863z"/>
			<path fill="#BCCBD4" d="M546,455.008v-2c0,0-0.604,0.68-2.685,1.195l0.013,1.982C545.355,455.674,546,455.008,546,455.008z"/>
			<path fill="#BCCBD4" d="M540,452.361v2c0,0,1.636-0.203,2.888-0.602l-0.114-1.982C541.533,452.164,540,452.361,540,452.361z"/>
			<path fill="#BCCBD4" d="M546,452.508v-2c0,0-0.792,0.475-2.769,1.139l0.011,1.979C545.172,452.973,546,452.508,546,452.508z"/>
		</g>
		<g>
			<path fill="#BCCBD4" d="M529,454.863v2c0,0-0.97-0.168-2.747-0.574l0.009-1.984C528,454.699,529,454.863,529,454.863z"/>
			<path fill="#BCCBD4" d="M523,455.008v-2c0,0,0.823,0.68,2.903,1.195l-0.118,1.982C523.756,455.674,523,455.008,523,455.008z"/>
			<path fill="#BCCBD4" d="M529,452.361v2c0,0-1.415-0.203-2.669-0.602l0.007-1.982C527.58,452.164,529,452.361,529,452.361z"/>
			<path fill="#BCCBD4" d="M523,452.508v-2c0,0,1.013,0.475,2.989,1.139l-0.12,1.979C523.939,452.973,523,452.508,523,452.508z"/>
		</g>
	</g>
</g>
<g>
	
		<radialGradient id="SVGID_17_" cx="560.8301" cy="461.9463" r="18.6666" gradientTransform="matrix(-1.2445 -0.0115 -0.0063 0.4372 998.0187 266.4201)" gradientUnits="userSpaceOnUse">
		<stop  offset="0" style="stop-color:#000100;stop-opacity:0.4"/>
		<stop  offset="1" style="stop-color:#000100;stop-opacity:0"/>
	</radialGradient>
	<ellipse fill="url(#SVGID_17_)" cx="297.781" cy="462.154" rx="24.062" ry="8.291"/>
	<g>
		<path fill="#E5E6E5" d="M283,460.617c0,0,7.002,4.695,15,4.695c8,0,14-4.695,14-4.695V444h-29V460.617z"/>
		<path fill="#464541" d="M281.344,444.445c0,0,8.053,5.867,17.062,5.867c9.012,0,15.938-5.867,15.938-5.867l-16-20L281.344,444.445
			z"/>
		<g opacity="0.1">
			<path fill="#464541" d="M298.062,450.312c6.111,0,10.938-2.695,13.938-4.432v1c-3,1.736-7.826,4.432-13.938,4.432
				c-6.303,0-12.062-2.865-15.062-4.592v-1C286,447.447,291.76,450.312,298.062,450.312z"/>
		</g>
		<path fill="#333333" d="M298,456.445c1.658,0,3,1.342,3,3v5.648c-1,0.137-1.963,0.219-3,0.219c-1.02,0-2-0.078-3-0.211v-5.656
			C295,457.787,296.344,456.445,298,456.445z"/>
		<path opacity="0.15" fill="#000100" d="M299.352,425.705l-6.373,23.951c-6.51-1.523-11.635-5.211-11.635-5.211l17-20
			L299.352,425.705z"/>
		<g>
			<path fill="#BCCBD4" d="M292,454.863v2c0,0-0.907-0.168-2.685-0.574l-0.023-1.984C291.033,454.699,292,454.863,292,454.863z"/>
			<path fill="#BCCBD4" d="M286,455.008v-2c0,0,0.886,0.68,2.966,1.195l-0.15,1.982C286.789,455.674,286,455.008,286,455.008z"/>
			<path fill="#BCCBD4" d="M292,452.361v2c0,0-1.353-0.203-2.606-0.602l-0.023-1.982C290.611,452.164,292,452.361,292,452.361z"/>
			<path fill="#BCCBD4" d="M286,452.508v-2c0,0,1.075,0.475,3.052,1.139l-0.15,1.979C286.972,452.973,286,452.508,286,452.508z"/>
		</g>
		<g>
			<path fill="#BCCBD4" d="M303,454.863v2c0,0,1.251-0.168,3.028-0.574l-0.146-1.984C304.144,454.699,303,454.863,303,454.863z"/>
			<path fill="#BCCBD4" d="M309,455.008v-2c0,0-0.542,0.68-2.622,1.195l-0.019,1.982C308.388,455.674,309,455.008,309,455.008z"/>
			<path fill="#BCCBD4" d="M303,452.361v2c0,0,1.698-0.203,2.95-0.602l-0.144-1.982C304.564,452.164,303,452.361,303,452.361z"/>
			<path fill="#BCCBD4" d="M309,452.508v-2c0,0-0.729,0.475-2.706,1.139l-0.019,1.979C308.205,452.973,309,452.508,309,452.508z"/>
		</g>
	</g>
</g>
<g>
	
		<radialGradient id="SVGID_18_" cx="595.3789" cy="436.9463" r="18.6666" gradientTransform="matrix(-1.2445 -0.0115 -0.0063 0.4372 997.8593 252.7492)" gradientUnits="userSpaceOnUse">
		<stop  offset="0" style="stop-color:#000100;stop-opacity:0.4"/>
		<stop  offset="1" style="stop-color:#000100;stop-opacity:0"/>
	</radialGradient>
	<path fill="url(#SVGID_18_)" d="M230.721,437.154c0,4.58,10.773,8.291,24.059,8.291c13.291,0,24.064-3.711,24.064-8.291
		s-10.773-8.291-24.064-8.291C241.494,428.863,230.721,432.574,230.721,437.154z"/>
	<g>
		<path fill="#E5E6E5" d="M240,435.617c0,0,7.002,4.695,15,4.695c8,0,14-4.695,14-4.695V419h-29V435.617z"/>
		<path fill="#464541" d="M238.346,419.445c0,0,8.053,5.867,17.061,5.867c9.012,0,15.938-5.867,15.938-5.867l-16-20L238.346,419.445
			z"/>
		<g opacity="0.1">
			<path fill="#464541" d="M255.062,425.312c6.111,0,10.938-2.695,13.938-4.432v1c-3,1.736-7.826,4.432-13.938,4.432
				c-6.301,0-12.062-2.865-15.062-4.592v-1C243,422.447,248.762,425.312,255.062,425.312z"/>
		</g>
		<path fill="#333333" d="M255,431.445c1.658,0,3,1.342,3,3v5.648c-1,0.137-1.963,0.219-3,0.219c-1.02,0-2-0.078-3-0.211v-5.656
			C252,432.787,253.344,431.445,255,431.445z"/>
		<path opacity="0.15" fill="#000100" d="M256.352,400.705l-6.373,23.951c-6.508-1.523-11.633-5.211-11.633-5.211l16.998-20
			L256.352,400.705z"/>
		<g>
			<path fill="#BCCBD4" d="M249,429.863v2c0,0-0.905-0.168-2.683-0.574l-0.027-1.984C248.031,429.699,249,429.863,249,429.863z"/>
			<path fill="#BCCBD4" d="M243,430.008v-2c0,0,0.888,0.68,2.968,1.195l-0.154,1.982C243.787,430.674,243,430.008,243,430.008z"/>
			<path fill="#BCCBD4" d="M249,427.361v2c0,0-1.353-0.203-2.604-0.602l-0.027-1.982C247.609,427.164,249,427.361,249,427.361z"/>
			<path fill="#BCCBD4" d="M243,427.508v-2c0,0,1.075,0.475,3.052,1.139l-0.152,1.979C243.97,427.973,243,427.508,243,427.508z"/>
		</g>
		<g>
			<path fill="#BCCBD4" d="M260,429.863v2c0,0,1.251-0.168,3.028-0.574l-0.146-1.984C261.144,429.699,260,429.863,260,429.863z"/>
			<path fill="#BCCBD4" d="M266,430.008v-2c0,0-0.542,0.68-2.622,1.195l-0.019,1.982C265.388,430.674,266,430.008,266,430.008z"/>
			<path fill="#BCCBD4" d="M260,427.361v2c0,0,1.698-0.203,2.95-0.602l-0.144-1.982C261.564,427.164,260,427.361,260,427.361z"/>
			<path fill="#BCCBD4" d="M266,427.508v-2c0,0-0.729,0.475-2.706,1.139l-0.019,1.979C265.205,427.973,266,427.508,266,427.508z"/>
		</g>
	</g>
</g>
<g>
	
		<radialGradient id="SVGID_19_" cx="639.9229" cy="459.9463" r="18.6666" gradientTransform="matrix(1.2445 -0.0115 0.0063 0.4372 -220.8747 266.2054)" gradientUnits="userSpaceOnUse">
		<stop  offset="0" style="stop-color:#000100;stop-opacity:0.4"/>
		<stop  offset="1" style="stop-color:#000100;stop-opacity:0"/>
	</radialGradient>
	<ellipse fill="url(#SVGID_19_)" cx="577.781" cy="460.154" rx="24.062" ry="8.291"/>
	<g>
		<path fill="#E5E6E5" d="M592,458.617c0,0-7,4.695-15,4.695c-7.998,0-14-4.695-14-4.695V442h29V458.617z"/>
		<path fill="#464541" d="M594.219,442.445c0,0-8.053,5.867-17.062,5.867c-9.012,0-15.938-5.867-15.938-5.867l16-20L594.219,442.445
			z"/>
		<g opacity="0.1">
			<path fill="#464541" d="M576.938,448.312c-6.109,0-11.938-2.695-13.938-4.432v1c2,1.736,7.828,4.432,13.938,4.432
				c6.303,0,12.062-2.865,15.062-4.592v-1C589,445.447,583.24,448.312,576.938,448.312z"/>
		</g>
		<path fill="#333333" d="M577,454.445c-1.656,0-3,1.342-3,3v5.648c1,0.137,1.963,0.219,3,0.219c1.021,0,2-0.078,3-0.211v-5.656
			C580,455.787,578.658,454.445,577,454.445z"/>
		<path opacity="0.15" fill="#000100" d="M576.213,423.705l6.373,23.951c6.508-1.523,11.633-5.211,11.633-5.211l-17-20
			L576.213,423.705z"/>
		<g>
			<path fill="#BCCBD4" d="M583,452.863v2c0,0,1.188-0.168,2.966-0.574l-0.114-1.984C584.111,452.699,583,452.863,583,452.863z"/>
			<path fill="#BCCBD4" d="M589,453.008v-2c0,0-0.604,0.68-2.685,1.195l0.013,1.982C588.355,453.674,589,453.008,589,453.008z"/>
			<path fill="#BCCBD4" d="M583,450.361v2c0,0,1.636-0.203,2.888-0.602l-0.114-1.982C584.533,450.164,583,450.361,583,450.361z"/>
			<path fill="#BCCBD4" d="M589,450.508v-2c0,0-0.792,0.475-2.769,1.139l0.011,1.979C588.172,450.973,589,450.508,589,450.508z"/>
		</g>
		<g>
			<path fill="#BCCBD4" d="M572,452.863v2c0,0-0.97-0.168-2.747-0.574l0.009-1.984C571,452.699,572,452.863,572,452.863z"/>
			<path fill="#BCCBD4" d="M566,453.008v-2c0,0,0.823,0.68,2.903,1.195l-0.118,1.982C566.756,453.674,566,453.008,566,453.008z"/>
			<path fill="#BCCBD4" d="M572,450.361v2c0,0-1.415-0.203-2.669-0.602l0.007-1.982C570.58,450.164,572,450.361,572,450.361z"/>
			<path fill="#BCCBD4" d="M566,450.508v-2c0,0,1.013,0.475,2.989,1.139l-0.12,1.979C566.939,450.973,566,450.508,566,450.508z"/>
		</g>
	</g>
</g>
<g>
	
		<radialGradient id="SVGID_20_" cx="595.3789" cy="459.9463" r="18.6666" gradientTransform="matrix(-1.2445 -0.0115 -0.0063 0.4372 998.0034 265.6925)" gradientUnits="userSpaceOnUse">
		<stop  offset="0" style="stop-color:#000100;stop-opacity:0.4"/>
		<stop  offset="1" style="stop-color:#000100;stop-opacity:0"/>
	</radialGradient>
	<path fill="url(#SVGID_20_)" d="M230.721,460.154c0,4.58,10.773,8.291,24.059,8.291c13.291,0,24.064-3.711,24.064-8.291
		s-10.773-8.291-24.064-8.291C241.494,451.863,230.721,455.574,230.721,460.154z"/>
	<g>
		<path fill="#E5E6E5" d="M240,458.617c0,0,7.002,4.695,15,4.695c8,0,14-4.695,14-4.695V442h-29V458.617z"/>
		<path fill="#464541" d="M238.346,442.445c0,0,8.053,5.867,17.061,5.867c9.012,0,15.938-5.867,15.938-5.867l-16-20L238.346,442.445
			z"/>
		<g opacity="0.1">
			<path fill="#464541" d="M255.062,448.312c6.111,0,10.938-2.695,13.938-4.432v1c-3,1.736-7.826,4.432-13.938,4.432
				c-6.301,0-12.062-2.865-15.062-4.592v-1C243,445.447,248.762,448.312,255.062,448.312z"/>
		</g>
		<path fill="#333333" d="M255,454.445c1.658,0,3,1.342,3,3v5.648c-1,0.137-1.963,0.219-3,0.219c-1.02,0-2-0.078-3-0.211v-5.656
			C252,455.787,253.344,454.445,255,454.445z"/>
		<path opacity="0.15" fill="#000100" d="M256.352,423.705l-6.373,23.951c-6.508-1.523-11.633-5.211-11.633-5.211l16.998-20
			L256.352,423.705z"/>
		<g>
			<path fill="#BCCBD4" d="M249,452.863v2c0,0-0.905-0.168-2.683-0.574l-0.027-1.984C248.031,452.699,249,452.863,249,452.863z"/>
			<path fill="#BCCBD4" d="M243,453.008v-2c0,0,0.888,0.68,2.968,1.195l-0.154,1.982C243.787,453.674,243,453.008,243,453.008z"/>
			<path fill="#BCCBD4" d="M249,450.361v2c0,0-1.353-0.203-2.604-0.602l-0.027-1.982C247.609,450.164,249,450.361,249,450.361z"/>
			<path fill="#BCCBD4" d="M243,450.508v-2c0,0,1.075,0.475,3.052,1.139l-0.152,1.979C243.97,450.973,243,450.508,243,450.508z"/>
		</g>
		<g>
			<path fill="#BCCBD4" d="M260,452.863v2c0,0,1.251-0.168,3.028-0.574l-0.146-1.984C261.144,452.699,260,452.863,260,452.863z"/>
			<path fill="#BCCBD4" d="M266,453.008v-2c0,0-0.542,0.68-2.622,1.195l-0.019,1.982C265.388,453.674,266,453.008,266,453.008z"/>
			<path fill="#BCCBD4" d="M260,450.361v2c0,0,1.698-0.203,2.95-0.602l-0.144-1.982C261.564,450.164,260,450.361,260,450.361z"/>
			<path fill="#BCCBD4" d="M266,450.508v-2c0,0-0.729,0.475-2.706,1.139l-0.019,1.979C265.205,450.973,266,450.508,266,450.508z"/>
		</g>
	</g>
</g>
<g>
	
		<radialGradient id="SVGID_21_" cx="627.5166" cy="438.9463" r="18.6674" gradientTransform="matrix(-1.2445 -0.0115 -0.0063 0.4372 997.8691 254.2448)" gradientUnits="userSpaceOnUse">
		<stop  offset="0" style="stop-color:#000100;stop-opacity:0.4"/>
		<stop  offset="1" style="stop-color:#000100;stop-opacity:0"/>
	</radialGradient>
	<ellipse fill="url(#SVGID_21_)" cx="214.783" cy="439.154" rx="24.062" ry="8.291"/>
	<g>
		<path fill="#E5E6E5" d="M200,437.617c0,0,7,4.695,15,4.695c7.998,0,14-4.695,14-4.695V421h-29V437.617z"/>
		<path fill="#464541" d="M198.346,421.445c0,0,8.053,5.867,17.062,5.867c9.012,0,15.938-5.867,15.938-5.867l-16-20L198.346,421.445
			z"/>
		<g opacity="0.1">
			<path fill="#464541" d="M215.062,427.312c6.109,0,10.938-2.695,13.938-4.432v1c-3,1.736-7.828,4.432-13.938,4.432
				c-6.303,0-12.062-2.865-15.062-4.592v-1C203,424.447,208.76,427.312,215.062,427.312z"/>
		</g>
		<path fill="#333333" d="M215,433.445c1.656,0,3,1.342,3,3v5.648c-1,0.137-1.963,0.219-3,0.219c-1.021,0-2-0.078-3-0.211v-5.656
			C212,434.787,213.342,433.445,215,433.445z"/>
		<path opacity="0.15" fill="#000100" d="M216.352,402.705l-6.373,23.951c-6.508-1.523-11.633-5.211-11.633-5.211l17-20
			L216.352,402.705z"/>
		<g>
			<path fill="#BCCBD4" d="M209,431.863v2c0,0-0.905-0.168-2.683-0.574l-0.027-1.984C208.031,431.699,209,431.863,209,431.863z"/>
			<path fill="#BCCBD4" d="M203,432.008v-2c0,0,0.888,0.68,2.968,1.195l-0.154,1.982C203.787,432.674,203,432.008,203,432.008z"/>
			<path fill="#BCCBD4" d="M209,429.361v2c0,0-1.353-0.203-2.604-0.602l-0.027-1.982C207.609,429.164,209,429.361,209,429.361z"/>
			<path fill="#BCCBD4" d="M203,429.508v-2c0,0,1.075,0.475,3.052,1.139l-0.152,1.979C203.97,429.973,203,429.508,203,429.508z"/>
		</g>
		<g>
			<path fill="#BCCBD4" d="M220,431.863v2c0,0,1.253-0.168,3.03-0.574l-0.15-1.984C221.142,431.699,220,431.863,220,431.863z"/>
			<path fill="#BCCBD4" d="M226,432.008v-2c0,0-0.54,0.68-2.62,1.195l-0.023,1.982C225.386,432.674,226,432.008,226,432.008z"/>
			<path fill="#BCCBD4" d="M220,429.361v2c0,0,1.698-0.203,2.952-0.602l-0.148-1.982C221.562,429.164,220,429.361,220,429.361z"/>
			<path fill="#BCCBD4" d="M226,429.508v-2c0,0-0.729,0.475-2.706,1.139l-0.021,1.979C225.203,429.973,226,429.508,226,429.508z"/>
		</g>
	</g>
</g>
<g>
	
		<radialGradient id="SVGID_22_" cx="661.2627" cy="441.9463" r="18.6674" gradientTransform="matrix(-1.2445 -0.0115 -0.0063 0.4372 997.8851 256.3217)" gradientUnits="userSpaceOnUse">
		<stop  offset="0" style="stop-color:#000100;stop-opacity:0.4"/>
		<stop  offset="1" style="stop-color:#000100;stop-opacity:0"/>
	</radialGradient>
	<ellipse fill="url(#SVGID_22_)" cx="172.783" cy="442.154" rx="24.062" ry="8.291"/>
	<g>
		<path fill="#E5E6E5" d="M158,440.617c0,0,7,4.695,15,4.695c7.998,0,14-4.695,14-4.695V424h-29V440.617z"/>
		<path fill="#464541" d="M156.346,424.445c0,0,8.053,5.867,17.062,5.867c9.012,0,15.938-5.867,15.938-5.867l-16-20L156.346,424.445
			z"/>
		<g opacity="0.1">
			<path fill="#464541" d="M173.062,430.312c6.109,0,10.938-2.695,13.938-4.432v1c-3,1.736-7.828,4.432-13.938,4.432
				c-6.303,0-12.062-2.865-15.062-4.592v-1C161,427.447,166.76,430.312,173.062,430.312z"/>
		</g>
		<path fill="#333333" d="M173,436.445c1.656,0,3,1.342,3,3v5.648c-1,0.137-1.963,0.219-3,0.219c-1.021,0-2-0.078-3-0.211v-5.656
			C170,437.787,171.342,436.445,173,436.445z"/>
		<path opacity="0.15" fill="#000100" d="M174.352,405.705l-6.373,23.951c-6.508-1.523-11.633-5.211-11.633-5.211l17-20
			L174.352,405.705z"/>
		<g>
			<path fill="#BCCBD4" d="M167,434.863v2c0,0-0.905-0.168-2.683-0.574l-0.027-1.984C166.031,434.699,167,434.863,167,434.863z"/>
			<path fill="#BCCBD4" d="M161,435.008v-2c0,0,0.888,0.68,2.968,1.195l-0.154,1.982C161.787,435.674,161,435.008,161,435.008z"/>
			<path fill="#BCCBD4" d="M167,432.361v2c0,0-1.353-0.203-2.604-0.602l-0.027-1.982C165.609,432.164,167,432.361,167,432.361z"/>
			<path fill="#BCCBD4" d="M161,432.508v-2c0,0,1.075,0.475,3.052,1.139l-0.152,1.979C161.97,432.973,161,432.508,161,432.508z"/>
		</g>
		<g>
			<path fill="#BCCBD4" d="M178,434.863v2c0,0,1.253-0.168,3.03-0.574l-0.15-1.984C179.142,434.699,178,434.863,178,434.863z"/>
			<path fill="#BCCBD4" d="M184,435.008v-2c0,0-0.54,0.68-2.62,1.195l-0.023,1.982C183.386,435.674,184,435.008,184,435.008z"/>
			<path fill="#BCCBD4" d="M178,432.361v2c0,0,1.698-0.203,2.952-0.602l-0.148-1.982C179.562,432.164,178,432.361,178,432.361z"/>
			<path fill="#BCCBD4" d="M184,432.508v-2c0,0-0.729,0.475-2.706,1.139l-0.021,1.979C183.203,432.973,184,432.508,184,432.508z"/>
		</g>
	</g>
</g>
<g>
	
		<radialGradient id="SVGID_23_" cx="635.5518" cy="465.9463" r="18.6666" gradientTransform="matrix(-1.2445 -0.0115 -0.0063 0.4372 998.0377 269.5316)" gradientUnits="userSpaceOnUse">
		<stop  offset="0" style="stop-color:#000100;stop-opacity:0.4"/>
		<stop  offset="1" style="stop-color:#000100;stop-opacity:0"/>
	</radialGradient>
	<ellipse fill="url(#SVGID_23_)" cx="204.783" cy="466.154" rx="24.062" ry="8.291"/>
	<g>
		<path fill="#E5E6E5" d="M190,464.617c0,0,7,4.695,15,4.695c7.998,0,14-4.695,14-4.695V448h-29V464.617z"/>
		<path fill="#464541" d="M188.346,448.445c0,0,8.053,5.867,17.062,5.867c9.012,0,15.938-5.867,15.938-5.867l-16-20L188.346,448.445
			z"/>
		<g opacity="0.1">
			<path fill="#464541" d="M205.062,454.312c6.109,0,10.938-2.695,13.938-4.432v1c-3,1.736-7.828,4.432-13.938,4.432
				c-6.303,0-12.062-2.865-15.062-4.592v-1C193,451.447,198.76,454.312,205.062,454.312z"/>
		</g>
		<path fill="#333333" d="M205,460.445c1.656,0,3,1.342,3,3v5.648c-1,0.137-1.963,0.219-3,0.219c-1.021,0-2-0.078-3-0.211v-5.656
			C202,461.787,203.342,460.445,205,460.445z"/>
		<path opacity="0.15" fill="#000100" d="M206.352,429.705l-6.373,23.951c-6.508-1.523-11.633-5.211-11.633-5.211l17-20
			L206.352,429.705z"/>
		<g>
			<path fill="#BCCBD4" d="M199,458.863v2c0,0-0.905-0.168-2.683-0.574l-0.027-1.984C198.031,458.699,199,458.863,199,458.863z"/>
			<path fill="#BCCBD4" d="M193,459.008v-2c0,0,0.888,0.68,2.968,1.195l-0.154,1.982C193.787,459.674,193,459.008,193,459.008z"/>
			<path fill="#BCCBD4" d="M199,456.361v2c0,0-1.353-0.203-2.604-0.602l-0.027-1.982C197.609,456.164,199,456.361,199,456.361z"/>
			<path fill="#BCCBD4" d="M193,456.508v-2c0,0,1.075,0.475,3.052,1.139l-0.152,1.979C193.97,456.973,193,456.508,193,456.508z"/>
		</g>
		<g>
			<path fill="#BCCBD4" d="M210,458.863v2c0,0,1.253-0.168,3.03-0.574l-0.15-1.984C211.142,458.699,210,458.863,210,458.863z"/>
			<path fill="#BCCBD4" d="M216,459.008v-2c0,0-0.54,0.68-2.62,1.195l-0.023,1.982C215.386,459.674,216,459.008,216,459.008z"/>
			<path fill="#BCCBD4" d="M210,456.361v2c0,0,1.698-0.203,2.952-0.602l-0.148-1.982C211.562,456.164,210,456.361,210,456.361z"/>
			<path fill="#BCCBD4" d="M216,456.508v-2c0,0-0.729,0.475-2.706,1.139l-0.021,1.979C215.203,456.973,216,456.508,216,456.508z"/>
		</g>
	</g>
</g>
<g>
	
		<radialGradient id="SVGID_24_" cx="601.8066" cy="483.9463" r="18.6666" gradientTransform="matrix(-1.2445 -0.0115 -0.0063 0.4372 998.1533 279.2726)" gradientUnits="userSpaceOnUse">
		<stop  offset="0" style="stop-color:#000100;stop-opacity:0.4"/>
		<stop  offset="1" style="stop-color:#000100;stop-opacity:0"/>
	</radialGradient>
	<ellipse fill="url(#SVGID_24_)" cx="246.782" cy="484.154" rx="24.062" ry="8.291"/>
	<g>
		<path fill="#E5E6E5" d="M232,482.617c0,0,7.002,4.695,15.002,4.695c7.998,0,13.998-4.695,13.998-4.695V466h-29V482.617z"/>
		<path fill="#464541" d="M230.346,466.445c0,0,8.053,5.867,17.062,5.867s15.936-5.867,15.936-5.867l-15.998-20L230.346,466.445z"/>
		<g opacity="0.1">
			<path fill="#464541" d="M247.064,472.312c6.109,0,10.936-2.695,13.936-4.432v1c-3,1.736-7.826,4.432-13.936,4.432
				c-6.303,0-12.064-2.865-15.064-4.592v-1C235,469.447,240.762,472.312,247.064,472.312z"/>
		</g>
		<path fill="#333333" d="M247,478.445c1.656,0,3,1.342,3,3v5.648c-1,0.137-1.963,0.219-3,0.219c-1.021,0-2-0.078-3-0.211v-5.656
			C244,479.787,245.342,478.445,247,478.445z"/>
		<path opacity="0.15" fill="#000100" d="M248.352,447.705l-6.373,23.951c-6.508-1.523-11.633-5.211-11.633-5.211l17-20
			L248.352,447.705z"/>
		<g>
			<path fill="#BCCBD4" d="M241,476.863v2c0,0-0.905-0.168-2.683-0.574l-0.027-1.984C240.031,476.699,241,476.863,241,476.863z"/>
			<path fill="#BCCBD4" d="M235,477.008v-2c0,0,0.888,0.68,2.968,1.195l-0.154,1.982C235.787,477.674,235,477.008,235,477.008z"/>
			<path fill="#BCCBD4" d="M241,474.361v2c0,0-1.353-0.203-2.604-0.602l-0.027-1.982C239.609,474.164,241,474.361,241,474.361z"/>
			<path fill="#BCCBD4" d="M235,474.508v-2c0,0,1.075,0.475,3.052,1.139l-0.152,1.979C235.97,474.973,235,474.508,235,474.508z"/>
		</g>
		<g>
			<path fill="#BCCBD4" d="M252,476.863v2c0,0,1.253-0.168,3.028-0.574l-0.148-1.984C253.142,476.699,252,476.863,252,476.863z"/>
			<path fill="#BCCBD4" d="M258,477.008v-2c0,0-0.542,0.68-2.622,1.195l-0.019,1.982C257.388,477.674,258,477.008,258,477.008z"/>
			<path fill="#BCCBD4" d="M252,474.361v2c0,0,1.698-0.203,2.95-0.602l-0.146-1.982C253.562,474.164,252,474.361,252,474.361z"/>
			<path fill="#BCCBD4" d="M258,474.508v-2c0,0-0.729,0.475-2.706,1.139l-0.019,1.979C257.205,474.973,258,474.508,258,474.508z"/>
		</g>
	</g>
</g>
<g>
	
		<radialGradient id="SVGID_25_" cx="568.8643" cy="496.9463" r="18.6674" gradientTransform="matrix(-1.2445 -0.0115 -0.0063 0.4372 998.2375 286.209)" gradientUnits="userSpaceOnUse">
		<stop  offset="0" style="stop-color:#000100;stop-opacity:0.4"/>
		<stop  offset="1" style="stop-color:#000100;stop-opacity:0"/>
	</radialGradient>
	<ellipse fill="url(#SVGID_25_)" cx="287.781" cy="497.154" rx="24.062" ry="8.291"/>
	<g>
		<path fill="#E5E6E5" d="M273,495.617c0,0,7.002,4.695,15,4.695c8,0,14-4.695,14-4.695V479h-29V495.617z"/>
		<path fill="#464541" d="M271.344,479.445c0,0,8.053,5.867,17.062,5.867c9.012,0,15.938-5.867,15.938-5.867l-16-20L271.344,479.445
			z"/>
		<g opacity="0.1">
			<path fill="#464541" d="M288.062,485.312c6.111,0,10.938-2.695,13.938-4.432v1c-3,1.736-7.826,4.432-13.938,4.432
				c-6.303,0-12.062-2.865-15.062-4.592v-1C276,482.447,281.76,485.312,288.062,485.312z"/>
		</g>
		<path fill="#333333" d="M288,491.445c1.658,0,3,1.342,3,3v5.648c-1,0.137-1.963,0.219-3,0.219c-1.02,0-2-0.078-3-0.211v-5.656
			C285,492.787,286.344,491.445,288,491.445z"/>
		<path opacity="0.15" fill="#000100" d="M289.352,460.705l-6.373,23.951c-6.51-1.523-11.635-5.211-11.635-5.211l17-20
			L289.352,460.705z"/>
		<g>
			<path fill="#BCCBD4" d="M282,489.863v2c0,0-0.907-0.168-2.685-0.574l-0.023-1.984C281.033,489.699,282,489.863,282,489.863z"/>
			<path fill="#BCCBD4" d="M276,490.008v-2c0,0,0.886,0.68,2.966,1.195l-0.15,1.982C276.789,490.674,276,490.008,276,490.008z"/>
			<path fill="#BCCBD4" d="M282,487.361v2c0,0-1.353-0.203-2.606-0.602l-0.023-1.982C280.611,487.164,282,487.361,282,487.361z"/>
			<path fill="#BCCBD4" d="M276,487.508v-2c0,0,1.075,0.475,3.052,1.139l-0.15,1.979C276.972,487.973,276,487.508,276,487.508z"/>
		</g>
		<g>
			<path fill="#BCCBD4" d="M293,489.863v2c0,0,1.251-0.168,3.028-0.574l-0.146-1.984C294.144,489.699,293,489.863,293,489.863z"/>
			<path fill="#BCCBD4" d="M299,490.008v-2c0,0-0.542,0.68-2.622,1.195l-0.019,1.982C298.388,490.674,299,490.008,299,490.008z"/>
			<path fill="#BCCBD4" d="M293,487.361v2c0,0,1.698-0.203,2.95-0.602l-0.144-1.982C294.564,487.164,293,487.361,293,487.361z"/>
			<path fill="#BCCBD4" d="M299,487.508v-2c0,0-0.729,0.475-2.706,1.139l-0.019,1.979C298.205,487.973,299,487.508,299,487.508z"/>
		</g>
	</g>
</g>
<g>
	
		<radialGradient id="SVGID_26_" cx="531.9053" cy="496.9463" r="18.6674" gradientTransform="matrix(-1.2445 -0.0115 -0.0063 0.4372 998.2405 285.7834)" gradientUnits="userSpaceOnUse">
		<stop  offset="0" style="stop-color:#000100;stop-opacity:0.4"/>
		<stop  offset="1" style="stop-color:#000100;stop-opacity:0"/>
	</radialGradient>
	<ellipse fill="url(#SVGID_26_)" cx="333.781" cy="497.154" rx="24.062" ry="8.291"/>
	<g>
		<path fill="#E5E6E5" d="M319,495.617c0,0,7.002,4.695,15,4.695c8,0,14-4.695,14-4.695V479h-29V495.617z"/>
		<path fill="#464541" d="M317.344,479.445c0,0,8.053,5.867,17.062,5.867c9.012,0,15.938-5.867,15.938-5.867l-16-20L317.344,479.445
			z"/>
		<g opacity="0.1">
			<path fill="#464541" d="M334.062,485.312c6.111,0,10.938-2.695,13.938-4.432v1c-3,1.736-7.826,4.432-13.938,4.432
				c-6.303,0-12.062-2.865-15.062-4.592v-1C322,482.447,327.76,485.312,334.062,485.312z"/>
		</g>
		<path fill="#333333" d="M334,491.445c1.658,0,3,1.342,3,3v5.648c-1,0.137-1.963,0.219-3,0.219c-1.02,0-2-0.078-3-0.211v-5.656
			C331,492.787,332.344,491.445,334,491.445z"/>
		<path opacity="0.15" fill="#000100" d="M335.352,460.705l-6.373,23.951c-6.51-1.523-11.635-5.211-11.635-5.211l17-20
			L335.352,460.705z"/>
		<g>
			<path fill="#BCCBD4" d="M328,489.863v2c0,0-0.907-0.168-2.685-0.574l-0.023-1.984C327.033,489.699,328,489.863,328,489.863z"/>
			<path fill="#BCCBD4" d="M322,490.008v-2c0,0,0.886,0.68,2.966,1.195l-0.15,1.982C322.789,490.674,322,490.008,322,490.008z"/>
			<path fill="#BCCBD4" d="M328,487.361v2c0,0-1.353-0.203-2.606-0.602l-0.023-1.982C326.611,487.164,328,487.361,328,487.361z"/>
			<path fill="#BCCBD4" d="M322,487.508v-2c0,0,1.075,0.475,3.052,1.139l-0.15,1.979C322.972,487.973,322,487.508,322,487.508z"/>
		</g>
		<g>
			<path fill="#BCCBD4" d="M339,489.863v2c0,0,1.251-0.168,3.028-0.574l-0.146-1.984C340.144,489.699,339,489.863,339,489.863z"/>
			<path fill="#BCCBD4" d="M345,490.008v-2c0,0-0.542,0.68-2.622,1.195l-0.019,1.982C344.388,490.674,345,490.008,345,490.008z"/>
			<path fill="#BCCBD4" d="M339,487.361v2c0,0,1.698-0.203,2.95-0.602l-0.144-1.982C340.564,487.164,339,487.361,339,487.361z"/>
			<path fill="#BCCBD4" d="M345,487.508v-2c0,0-0.729,0.475-2.706,1.139l-0.019,1.979C344.205,487.973,345,487.508,345,487.508z"/>
		</g>
	</g>
</g>
<g>
	<polygon fill="#B7814D" points="426,432.174 426,407.445 421.691,412 417.912,412 414.131,412 410,407.445 410,432.174 
		378.28,431.775 388.615,445 410,445 410,493 417.912,493 426,493 426,445 447.209,445 457.632,431.775 	"/>
	<polygon opacity="0.26" fill="#FFFFFF" points="418,493 410,493 410,445 388.615,445 378.28,431.775 410,432.174 410,407.445 
		414.131,412 418,412 	"/>
	<polygon fill="#B7814D" points="418,493 426,493 426,445 447.209,445 457.632,431.775 426,432.174 426,407.445 421.691,412 
		418,412 	"/>
</g>
<g>
	<g>
		<polygon fill="#8A643A" points="294,465.434 289,475.445 289,522 293.787,522 299,522 299,475.445 		"/>
		<g>
			<rect x="293" y="475" fill="#8A643A" width="6" height="47"/>
			<polygon fill="#A57E52" points="299.219,475 294.25,465 294.219,475 			"/>
			<rect x="289" y="475" fill="#8A643A" width="4" height="47"/>
			<rect x="289" y="475" opacity="0.26" fill="#FFFFFF" width="5" height="47"/>
			<polygon fill="#A57E52" points="294,475 294,465.434 289.219,475 			"/>
			<polygon opacity="0.26" fill="#FFFFFF" points="294,475 294,465.434 289.219,475 			"/>
		</g>
	</g>
	<path fill="#8A643A" d="M309,480.701c0-2.709-2.291-4.902-5-4.902c-2.707,0-5,2.193-5,4.902c0,0.047,0,41.299,0,41.299h10
		C309,522,309,480.748,309,480.701z"/>
	<path opacity="0.26" fill="#FFFFFF" d="M309,480.701c0-2.709-2.291-4.902-5-4.902c-2.707,0-5,2.193-5,4.902
		c0,0.047,0,41.299,0,41.299h10C309,522,309,480.748,309,480.701z"/>
	<path fill="#8A643A" d="M319,480.701c0-2.709-2.291-4.902-5-4.902c-2.707,0-5,2.193-5,4.902c0,0.047,0,41.299,0,41.299h10
		C319,522,319,480.748,319,480.701z"/>
	<path fill="#8A643A" d="M329,480.701c0-2.709-2.291-4.902-5-4.902c-2.707,0-5,2.193-5,4.902c0,0.047,0,41.299,0,41.299h10
		C329,522,329,480.748,329,480.701z"/>
	<path opacity="0.26" fill="#FFFFFF" d="M329,480.701c0-2.709-2.291-4.902-5-4.902c-2.707,0-5,2.193-5,4.902
		c0,0.047,0,41.299,0,41.299h10C329,522,329,480.748,329,480.701z"/>
	<path fill="#8A643A" d="M338,480.701c0-2.709-1.791-4.902-4.5-4.902c-2.707,0-4.5,2.193-4.5,4.902c0,0.047,0,41.299,0,41.299h9
		C338,522,338,480.748,338,480.701z"/>
	<path fill="#8A643A" d="M348,480.701c0-2.709-2.291-4.902-5-4.902c-2.707,0-5,2.193-5,4.902c0,0.047,0,41.299,0,41.299h10
		C348,522,348,480.748,348,480.701z"/>
	<path opacity="0.26" fill="#FFFFFF" d="M348,480.701c0-2.709-2.291-4.902-5-4.902c-2.707,0-5,2.193-5,4.902
		c0,0.047,0,41.299,0,41.299h10C348,522,348,480.748,348,480.701z"/>
	<path fill="#8A643A" d="M358.219,480.281c0-2.709-2.401-4.693-5.108-4.693s-5.11,2.404-5.11,5.113c0,0.047,0,41.299,0,41.299h10
		v-42h0.211C358.213,480,358.219,480.328,358.219,480.281z"/>
</g>
<g>
	<g>
		<polygon fill="#8A643A" points="191,434.104 182,430.238 182,476.26 191,480.123 		"/>
		<polygon fill="#A57E52" points="186.721,422.861 182.221,430.238 191.221,434.104 		"/>
		<polygon opacity="0.26" fill="#FFFFFF" points="182,430.238 182,476.26 186.587,478.182 186.554,422.861 		"/>
	</g>
	<path fill="#8A643A" d="M236,458.342c0-2.66-2.105-8.533-4.5-8.533s-4.5,2.252-4.5,4.914c0,0.047,0,40.857,0,40.857l9,3.865
		C236,458.389,236,458.389,236,458.342z"/>
	<path fill="#8A643A" d="M227,454.479c0-2.66-2.105-8.533-4.5-8.533s-4.5,2.252-4.5,4.912c0,0.047,0,40.859,0,40.859l9,3.863
		C227,454.525,227,454.525,227,454.479z"/>
	<path fill="#8A643A" d="M218,450.613c0-2.66-2.105-8.533-4.5-8.533s-4.5,2.252-4.5,4.914c0,0.047,0,40.857,0,40.857l9,3.865
		C218,450.66,218,450.66,218,450.613z"/>
	<path fill="#8A643A" d="M209,446.75c0-2.662-1.605-8.533-4-8.533s-4,2.252-4,4.912c0,0.047,0,40.857,0,40.857l8,3.865
		C209,446.797,209,446.797,209,446.75z"/>
	<path fill="#8A643A" d="M201,442.887c0-2.662-2.605-8.535-5-8.535s-5,2.252-5,4.914c0,0.047,0,40.857,0,40.857l10,3.863
		C201,442.932,201,442.932,201,442.887z"/>
	<path opacity="0.26" fill="#FFFFFF" d="M236,458.342c0-2.66-2.105-8.533-4.5-8.533s-4.5,2.252-4.5,4.914c0,0.047,0,40.857,0,40.857
		l9,3.865C236,458.389,236,458.389,236,458.342z"/>
	<path opacity="0.26" fill="#FFFFFF" d="M218,450.613c0-2.66-2.105-8.533-4.5-8.533s-4.5,2.252-4.5,4.914c0,0.047,0,40.857,0,40.857
		l9,3.865C218,450.66,218,450.66,218,450.613z"/>
	<path opacity="0.26" fill="#FFFFFF" d="M201,442.887c0-2.662-2.605-8.535-5-8.535s-5,2.252-5,4.914c0,0.047,0,40.857,0,40.857
		l10,3.863C201,442.932,201,442.932,201,442.887z"/>
</g>
<g>
	<g>
		<polygon fill="#8A643A" points="470,465.445 464,475.445 464,522 470.16,522 476,522 476,475.445 		"/>
		<g>
			<rect x="470" y="475" fill="#8A643A" width="6" height="47"/>
			<polygon fill="#A57E52" points="476.219,475 470,465.445 470,475 			"/>
			<rect x="464" y="475" fill="#8A643A" width="6" height="47"/>
			<rect x="464" y="475" opacity="0.26" fill="#FFFFFF" width="6" height="47"/>
			<polygon fill="#A57E52" points="470,475 470,465.445 464.219,475 			"/>
			<polygon opacity="0.26" fill="#FFFFFF" points="470,475 470,465.445 464.219,475 			"/>
		</g>
	</g>
	<g>
		<polygon fill="#8A643A" points="364,465.445 358,475.445 358,522 364.161,522 370,522 370,475.445 		"/>
		<g>
			<rect x="364" y="475" fill="#8A643A" width="6" height="47"/>
			<polygon fill="#A57E52" points="370.219,475 364,465.445 364,475 			"/>
			<rect x="358" y="475" fill="#8A643A" width="6" height="47"/>
			<rect x="358" y="475" opacity="0.26" fill="#FFFFFF" width="6" height="47"/>
			<polygon fill="#A57E52" points="364,475 364,465.445 358.219,475 			"/>
			<polygon opacity="0.26" fill="#FFFFFF" points="364,475 364,465.445 358.219,475 			"/>
		</g>
	</g>
	<g>
		<g>
			<path fill="#8A643A" d="M417,485.742c-27,0-47-10.01-47-10.01V522h47V485.742z"/>
			<path opacity="0.26" fill="#FFFFFF" d="M417,485.742c-27,0-47-10.01-47-10.01V522h47V485.742z"/>
			<path fill="#8A643A" d="M405.186,505c0,2.303-1.072,4-2.396,4h-18.367c-1.324,0-2.396-1.697-2.396-4l0,0c0-2.305,1.072-4,2.396-4
				h18.367C404.113,501,405.186,502.695,405.186,505L405.186,505z"/>
		</g>
		<g>
			<path fill="#8A643A" d="M417,485.742c27,0,47-10.01,47-10.01V522h-47V485.742z"/>
			<path opacity="0.26" fill="#FFFFFF" d="M452.637,505c0,2.303-1.072,4-2.395,4h-18.369c-1.324,0-2.396-1.697-2.396-4l0,0
				c0-2.305,1.072-4,2.396-4h18.369C451.564,501,452.637,502.695,452.637,505L452.637,505z"/>
		</g>
	</g>
</g>
<g>
	<g>
		<polygon fill="#8A643A" points="135,408.26 126,404.227 126,452.25 135,456.283 		"/>
		<polygon fill="#A57E52" points="130.566,396.529 126.221,404.227 135.262,408.26 		"/>
		<polygon opacity="0.26" fill="#FFFFFF" points="135,408.26 135,456.283 129.913,454.043 130.369,396.529 		"/>
	</g>
	<path fill="#8A643A" d="M182,433.553c0-2.775-2.002-8.904-4.5-8.904s-4.5,2.35-4.5,5.127c0,0.049,0,42.637,0,42.637l9,4.033
		C182,433.602,182,433.602,182,433.553z"/>
	<path fill="#8A643A" d="M173,429.521c0-2.777-2.502-8.904-5-8.904c-2.5,0-5,2.35-5,5.127c0,0.049,0,42.637,0,42.637l10,4.031
		C173,429.57,173,429.57,173,429.521z"/>
	<path fill="#8A643A" d="M163,425.488c0-2.777-2.002-8.904-4.5-8.904c-2.5,0-4.5,2.35-4.5,5.127c0,0.049,0,42.637,0,42.637l9,4.033
		C163,425.537,163,425.537,163,425.488z"/>
	<path fill="#8A643A" d="M154,421.457c0-2.777-2-8.906-4.5-8.906c-2.498,0-4.5,2.352-4.5,5.127c0,0.049,0,42.637,0,42.637l9,4.033
		C154,421.506,154,421.506,154,421.457z"/>
	<path opacity="0.26" fill="#FFFFFF" d="M173,429.521c0-2.777-2.502-8.904-5-8.904c-2.5,0-5,2.35-5,5.127c0,0.049,0,42.637,0,42.637
		l10,4.031C173,429.57,173,429.57,173,429.521z"/>
	<path opacity="0.26" fill="#FFFFFF" d="M154,421.457c0-2.777-2-8.906-4.5-8.906c-2.498,0-4.5,2.352-4.5,5.127
		c0,0.049,0,42.637,0,42.637l9,4.033C154,421.506,154,421.506,154,421.457z"/>
	<path fill="#8A643A" d="M145,417.424c0-2.775-2.5-8.904-5-8.904c-2.498,0-5,2.35-5,5.127c0,0.049,0,42.637,0,42.637l10,4.031
		C145,417.471,145,417.471,145,417.424z"/>
</g>
<g>
	<g>
		<polygon fill="#8A643A" points="244,457.104 235,453.238 235,499.26 244,503.123 		"/>
		<polygon fill="#A57E52" points="239.721,445.861 235.221,453.238 244.221,457.104 		"/>
		<polygon opacity="0.26" fill="#FFFFFF" points="244,457.104 244,503.123 239.11,500.977 239.554,445.861 		"/>
	</g>
	<path fill="#8A643A" d="M289,481.342c0-2.66-2.104-8.533-4.5-8.533c-2.393,0-4.5,2.252-4.5,4.914c0,0.047,0,40.857,0,40.857
		l9,3.865C289,481.389,289,481.389,289,481.342z"/>
	<path fill="#8A643A" d="M280,477.479c0-2.66-2.105-8.533-4.5-8.533c-2.393,0-4.5,2.252-4.5,4.912c0,0.047,0,40.859,0,40.859
		l9,3.863C280,477.525,280,477.525,280,477.479z"/>
	<path fill="#8A643A" d="M271,473.613c0-2.66-2.104-8.533-4.5-8.533c-2.395,0-4.5,2.252-4.5,4.914c0,0.047,0,40.857,0,40.857
		l9,3.865C271,473.66,271,473.66,271,473.613z"/>
	<path fill="#8A643A" d="M262,469.75c0-2.662-1.605-8.533-4-8.533s-4,2.252-4,4.912c0,0.047,0,40.857,0,40.857l8,3.865
		C262,469.797,262,469.797,262,469.75z"/>
	<path opacity="0.26" fill="#FFFFFF" d="M280,477.479c0-2.66-2.105-8.533-4.5-8.533c-2.393,0-4.5,2.252-4.5,4.912
		c0,0.047,0,40.859,0,40.859l9,3.863C280,477.525,280,477.525,280,477.479z"/>
	<path opacity="0.26" fill="#FFFFFF" d="M262,469.75c0-2.662-1.605-8.533-4-8.533s-4,2.252-4,4.912c0,0.047,0,40.857,0,40.857
		l8,3.865C262,469.797,262,469.797,262,469.75z"/>
	<path fill="#8A643A" d="M254,465.887c0-2.662-2.605-8.535-5-8.535s-5,2.252-5,4.914c0,0.047,0,40.857,0,40.857l10,3.863
		C254,465.932,254,465.932,254,465.887z"/>
</g>
<g>
	<g>
		<polygon fill="#8A643A" points="540,465.434 545,475.445 545,522 540.652,522 535,522 535,475.445 		"/>
		<g>
			<rect x="535" y="475" fill="#8A643A" width="6" height="47"/>
			<polygon fill="#A57E52" points="535.219,475 540.188,465 540.219,475 			"/>
			<rect x="541" y="475" fill="#8A643A" width="4" height="47"/>
			<rect x="540" y="475" opacity="0.26" fill="#FFFFFF" width="5" height="47"/>
			<polygon fill="#A57E52" points="540,475 540,465.434 545.219,475 			"/>
			<polygon opacity="0.26" fill="#FFFFFF" points="540,475 540,465.434 545.219,475 			"/>
		</g>
	</g>
	<path fill="#8A643A" d="M525,480.701c0-2.709,2.293-4.902,5-4.902s5,2.193,5,4.902c0,0.047,0,41.299,0,41.299h-10
		C525,522,525,480.748,525,480.701z"/>
	<path opacity="0.26" fill="#FFFFFF" d="M525,480.701c0-2.709,2.293-4.902,5-4.902s5,2.193,5,4.902c0,0.047,0,41.299,0,41.299h-10
		C525,522,525,480.748,525,480.701z"/>
	<path fill="#8A643A" d="M515,480.701c0-2.709,2.293-4.902,5-4.902c2.709,0,5,2.193,5,4.902c0,0.047,0,41.299,0,41.299h-10
		C515,522,515,480.748,515,480.701z"/>
	<path fill="#8A643A" d="M505,480.701c0-2.709,2.293-4.902,5-4.902c2.709,0,5,2.193,5,4.902c0,0.047,0,41.299,0,41.299h-10
		C505,522,505,480.748,505,480.701z"/>
	<path opacity="0.26" fill="#FFFFFF" d="M505,480.701c0-2.709,2.293-4.902,5-4.902c2.709,0,5,2.193,5,4.902
		c0,0.047,0,41.299,0,41.299h-10C505,522,505,480.748,505,480.701z"/>
	<path fill="#8A643A" d="M496,480.701c0-2.709,1.793-4.902,4.5-4.902s4.5,2.193,4.5,4.902c0,0.047,0,41.299,0,41.299h-9
		C496,522,496,480.748,496,480.701z"/>
	<path fill="#8A643A" d="M486,480.701c0-2.709,2.293-4.902,5-4.902c2.709,0,5,2.193,5,4.902c0,0.047,0,41.299,0,41.299h-10
		C486,522,486,480.748,486,480.701z"/>
	<path opacity="0.26" fill="#FFFFFF" d="M486,480.701c0-2.709,2.293-4.902,5-4.902c2.709,0,5,2.193,5,4.902
		c0,0.047,0,41.299,0,41.299h-10C486,522,486,480.748,486,480.701z"/>
	<path fill="#8A643A" d="M476.219,480.281c0-2.709,2.183-4.693,4.892-4.693c2.707,0,4.89,2.404,4.89,5.113
		c0,0.047,0,41.299,0,41.299h-10v-42h0.227C476.225,480,476.219,480.328,476.219,480.281z"/>
</g>
<g>
	<g>
		<polygon fill="#8A643A" points="643,434.104 652,430.238 652,476.26 643,480.123 		"/>
		<polygon fill="#A57E52" points="647.719,422.861 652.219,430.238 643.219,434.104 		"/>
		<polygon opacity="0.26" fill="#FFFFFF" points="652,430.238 652,476.26 647.634,478.182 647.557,422.861 		"/>
	</g>
	<path fill="#8A643A" d="M598,458.342c0-2.66,2.105-8.533,4.5-8.533s4.5,2.252,4.5,4.914c0,0.047,0,40.857,0,40.857l-9,3.865
		C598,458.389,598,458.389,598,458.342z"/>
	<path fill="#8A643A" d="M607,454.479c0-2.66,2.105-8.533,4.5-8.533s4.5,2.252,4.5,4.912c0,0.047,0,40.859,0,40.859l-9,3.863
		C607,454.525,607,454.525,607,454.479z"/>
	<path fill="#8A643A" d="M616,450.613c0-2.66,2.105-8.533,4.5-8.533s4.5,2.252,4.5,4.914c0,0.047,0,40.857,0,40.857l-9,3.865
		C616,450.66,616,450.66,616,450.613z"/>
	<path fill="#8A643A" d="M625,446.75c0-2.662,1.605-8.533,4-8.533s4,2.252,4,4.912c0,0.047,0,40.857,0,40.857l-8,3.865
		C625,446.797,625,446.797,625,446.75z"/>
	<path fill="#8A643A" d="M633,442.887c0-2.662,2.605-8.535,5-8.535s5,2.252,5,4.914c0,0.047,0,40.857,0,40.857l-10,3.863
		C633,442.932,633,442.932,633,442.887z"/>
	<path opacity="0.26" fill="#FFFFFF" d="M598,458.342c0-2.66,2.105-8.533,4.5-8.533s4.5,2.252,4.5,4.914c0,0.047,0,40.857,0,40.857
		l-9,3.865C598,458.389,598,458.389,598,458.342z"/>
	<path opacity="0.26" fill="#FFFFFF" d="M616,450.613c0-2.66,2.105-8.533,4.5-8.533s4.5,2.252,4.5,4.914c0,0.047,0,40.857,0,40.857
		l-9,3.865C616,450.66,616,450.66,616,450.613z"/>
	<path opacity="0.26" fill="#FFFFFF" d="M633,442.887c0-2.662,2.605-8.535,5-8.535s5,2.252,5,4.914c0,0.047,0,40.857,0,40.857
		l-10,3.863C633,442.932,633,442.932,633,442.887z"/>
</g>
<g>
	<polygon fill="#8A643A" points="737,392.26 746,388.227 746,436.25 737,440.283 	"/>
	<polygon fill="#A57E52" points="741.873,380.529 746.219,388.227 737.178,392.26 	"/>
	<polygon opacity="0.26" fill="#FFFFFF" points="737,392.26 737,440.283 742.308,438.043 741.742,380.529 	"/>
</g>
<path fill="#8A643A" d="M652,433.553c0-2.775,2.002-8.904,4.5-8.904s4.5,2.35,4.5,5.127c0,0.049,0,42.637,0,42.637l-9,4.033
	C652,433.602,652,433.602,652,433.553z"/>
<path fill="#8A643A" d="M661,429.521c0-2.777,2.502-8.904,5-8.904s5,2.35,5,5.127c0,0.049,0,42.637,0,42.637l-10,4.031
	C661,429.57,661,429.57,661,429.521z"/>
<path fill="#8A643A" d="M671,425.488c0-2.777,2.002-8.904,4.5-8.904c2.5,0,4.5,2.35,4.5,5.127c0,0.049,0,42.637,0,42.637l-9,4.033
	C671,425.537,671,425.537,671,425.488z"/>
<path fill="#8A643A" d="M680,421.457c0-2.777,2.002-8.906,4.5-8.906c2.5,0,4.5,2.352,4.5,5.127c0,0.049,0,42.637,0,42.637l-9,4.033
	C680,421.506,680,421.506,680,421.457z"/>
<path opacity="0.26" fill="#FFFFFF" d="M661,429.521c0-2.777,2.502-8.904,5-8.904s5,2.35,5,5.127c0,0.049,0,42.637,0,42.637
	l-10,4.031C661,429.57,661,429.57,661,429.521z"/>
<path opacity="0.26" fill="#FFFFFF" d="M680,421.457c0-2.777,2.002-8.906,4.5-8.906c2.5,0,4.5,2.352,4.5,5.127
	c0,0.049,0,42.637,0,42.637l-9,4.033C680,421.506,680,421.506,680,421.457z"/>
<path fill="#8A643A" d="M689,417.424c0-2.775,2.502-8.904,5-8.904c2.5,0,5,2.35,5,5.127c0,0.049,0,42.637,0,42.637l-10,4.031
	C689,417.471,689,417.471,689,417.424z"/>
<g>
	<path fill="#8A643A" d="M699,413.521c0-2.777,2.502-8.904,5-8.904s5,2.35,5,5.127c0,0.049,0,42.637,0,42.637l-10,4.031
		C699,413.57,699,413.57,699,413.521z"/>
	<path fill="#8A643A" d="M709,409.488c0-2.777,2.002-8.904,4.5-8.904c2.5,0,4.5,2.35,4.5,5.127c0,0.049,0,42.637,0,42.637l-9,4.033
		C709,409.537,709,409.537,709,409.488z"/>
	<path fill="#8A643A" d="M718,405.457c0-2.777,2.002-8.906,4.5-8.906c2.5,0,4.5,2.352,4.5,5.127c0,0.049,0,42.637,0,42.637l-9,4.033
		C718,405.506,718,405.506,718,405.457z"/>
	<path opacity="0.26" fill="#FFFFFF" d="M699,413.521c0-2.777,2.502-8.904,5-8.904s5,2.35,5,5.127c0,0.049,0,42.637,0,42.637
		l-10,4.031C699,413.57,699,413.57,699,413.521z"/>
	<path opacity="0.26" fill="#FFFFFF" d="M718,405.457c0-2.777,2.002-8.906,4.5-8.906c2.5,0,4.5,2.352,4.5,5.127
		c0,0.049,0,42.637,0,42.637l-9,4.033C718,405.506,718,405.506,718,405.457z"/>
	<path fill="#8A643A" d="M727,401.424c0-2.775,2.502-8.904,5-8.904c2.5,0,5,2.35,5,5.127c0,0.049,0,42.637,0,42.637l-10,4.031
		C727,401.471,727,401.471,727,401.424z"/>
</g>
<g>
	<g>
		<polygon fill="#8A643A" points="590,457.104 599,453.238 599,499.26 590,503.123 		"/>
		<polygon fill="#A57E52" points="594.719,445.861 599.219,453.238 590.219,457.104 		"/>
		<polygon opacity="0.26" fill="#FFFFFF" points="590,457.104 590,503.123 595.11,500.977 594.557,445.861 		"/>
	</g>
	<path fill="#8A643A" d="M545,481.342c0-2.66,2.105-8.533,4.5-8.533s4.5,2.252,4.5,4.914c0,0.047,0,40.857,0,40.857l-9,3.865
		C545,481.389,545,481.389,545,481.342z"/>
	<path fill="#8A643A" d="M554,477.479c0-2.66,2.105-8.533,4.5-8.533s4.5,2.252,4.5,4.912c0,0.047,0,40.859,0,40.859l-9,3.863
		C554,477.525,554,477.525,554,477.479z"/>
	<path fill="#8A643A" d="M563,473.613c0-2.66,2.105-8.533,4.5-8.533s4.5,2.252,4.5,4.914c0,0.047,0,40.857,0,40.857l-9,3.865
		C563,473.66,563,473.66,563,473.613z"/>
	<path fill="#8A643A" d="M572,469.75c0-2.662,1.605-8.533,4-8.533s4,2.252,4,4.912c0,0.047,0,40.857,0,40.857l-8,3.865
		C572,469.797,572,469.797,572,469.75z"/>
	<path opacity="0.26" fill="#FFFFFF" d="M554,477.479c0-2.66,2.105-8.533,4.5-8.533s4.5,2.252,4.5,4.912c0,0.047,0,40.859,0,40.859
		l-9,3.863C554,477.525,554,477.525,554,477.479z"/>
	<path opacity="0.26" fill="#FFFFFF" d="M572,469.75c0-2.662,1.605-8.533,4-8.533s4,2.252,4,4.912c0,0.047,0,40.857,0,40.857
		l-8,3.865C572,469.797,572,469.797,572,469.75z"/>
	<path fill="#8A643A" d="M580,465.887c0-2.662,2.605-8.535,5-8.535s5,2.252,5,4.914c0,0.047,0,40.857,0,40.857l-10,3.863
		C580,465.932,580,465.932,580,465.887z"/>
</g>
<polygon fill="#6EC6E3" points="0,600 677.447,539 800,600 "/>
<path opacity="0.7" fill="#FFFFFF" d="M704.037,120c2.406-3,3.779-7.793,3.779-12.344c0-14.553-13.979-26.238-31.221-26.238
	c-6.314,0-12.186,1.643-17.1,4.363c-0.531-19.188-16.705-34.559-36.592-34.559c-14.959,0-27.816,8.731-33.498,21.216
	c-6.465-5.621-16.457-9.225-27.68-9.225c-13.799,0-25.738,5.457-31.543,13.401c-2.848-1.365-6.022-2.129-9.394-2.129
	c-12.043,0-21.79,9.764-21.79,21.807c0,0.002,0,0.004,0,0.006c0-0.001-0.249-0.006-0.366-0.006
	c-20.029,0-36.274,10.502-36.274,23.732c0,0.066-0.018-0.024-0.018-0.024H704.037z"/>
<path opacity="0.7" fill="#FFFFFF" d="M325.32,177c1.209-2,1.898-5.068,1.898-8.076c0-9.554-6.939-17.188-15.5-17.188
	c-5.213,0-9.814,2.938-12.625,7.342c-3.701-3.29-8.314-5.621-13.438-6.661c-3.568-19.93-23.666-35.181-47.926-35.181
	c-14.867,0-28.164,5.745-37.059,14.771c-5.686-4.144-12.553-6.565-19.951-6.565c-19.607,0-35.5,16.792-35.5,37.779
	c0,4.946,0.893,9.779,2.498,13.779H325.32z"/>
</svg>
