<?xml version="1.0" encoding="utf-8"?>
<!-- Generator: Adobe Illustrator 15.1.0, SVG Export Plug-In . SVG Version: 6.00 Build 0)  -->
<!DOCTYPE svg PUBLIC "-//W3C//DTD SVG 1.1//EN" "http://www.w3.org/Graphics/SVG/1.1/DTD/svg11.dtd">
<svg version="1.1" id="Calque_1" xmlns="http://www.w3.org/2000/svg" xmlns:xlink="http://www.w3.org/1999/xlink" x="0px" y="0px"
	 width="414.059px" height="147px" viewBox="0 0 414.059 147" enable-background="new 0 0 414.059 147" xml:space="preserve">
<rect opacity="0.93" fill="#FFFFFF" enable-background="new    " width="414.059" height="147"/>
<g>
	<path fill="#186D94" d="M143.799,21.871c0,0.502-0.413,0.897-0.898,0.897h-3.164c-0.485,0-0.898-0.396-0.898-0.897
		c0-0.505,0.414-0.9,0.898-0.9h0.648v-7.118l-2.715,3.649c-0.359,0.467-1.079,0.485-1.438,0.037l-3.236-3.884v7.313h0.665
		c0.503,0,0.898,0.396,0.898,0.9c0,0.502-0.395,0.897-0.898,0.897h-3.128c-0.503,0-0.898-0.396-0.898-0.897
		c0-0.505,0.396-0.9,0.898-0.9h0.665v-8.915h-0.665c-0.503,0-0.898-0.396-0.898-0.899c0-0.503,0.396-0.898,0.898-0.898h1.546
		c0.27,0,0.54,0.108,0.701,0.323l4.116,4.944l3.649-4.872c0.198-0.252,0.431-0.396,0.755-0.396h1.6c0.485,0,0.898,0.396,0.898,0.898
		c0,0.504-0.413,0.899-0.898,0.899h-0.719v8.915h0.719C143.386,20.971,143.799,21.366,143.799,21.871z"/>
	<path fill="#186D94" d="M151.312,9.646c8.97,0,8.97,13.645,0,13.645S142.342,9.646,151.312,9.646z M151.312,21.421
		c6.507,0,6.507-9.904,0-9.904C144.804,11.517,144.804,21.421,151.312,21.421z"/>
	<path fill="#186D94" d="M165.007,22.769c-1.51,0-3.775,0-5.285,0c-0.503,0-0.899-0.412-0.899-0.897c0-0.505,0.396-0.9,0.899-0.9
		h0.898v-8.969h-0.898c-0.503,0-0.899-0.413-0.899-0.918c0-0.485,0.396-0.898,0.899-0.898h5.285
		C173.24,10.186,173.24,22.769,165.007,22.769z M165.007,12.002h-2.588v8.969h2.571C170.886,20.971,170.868,12.002,165.007,12.002z"
		/>
	<path fill="#186D94" d="M184.132,20.108v1.708c0,0.359-0.198,0.646-0.485,0.81c-0.145,0.089-0.324,0.143-0.503,0.143h-9.923
		c-0.502,0-0.898-0.396-0.898-0.897c0-0.485,0.396-0.9,0.898-0.9h0.828V17.36h-0.828c-0.502,0-0.898-0.413-0.898-0.915
		c0-0.487,0.396-0.901,0.898-0.901h0.828v-3.558h-0.828c-0.502,0-0.898-0.396-0.898-0.9c0-0.503,0.396-0.898,0.898-0.898h9.564
		c0.484,0,0.899,0.396,0.899,0.898v1.87c0,0.503-0.415,0.898-0.899,0.898c-0.503,0-0.917-0.396-0.917-0.898v-0.97h-6.022v3.558
		h4.098c0.486,0,0.899,0.414,0.899,0.901c0,0.502-0.413,0.915-0.899,0.915h-4.098v3.612h6.49V20.11c0-0.504,0.396-0.899,0.898-0.899
		S184.132,19.604,184.132,20.108z"/>
	<path fill="#186D94" d="M196.406,21.871c0,0.502-0.413,0.897-0.898,0.897h-3.452c-0.503,0-0.917-0.396-0.917-0.897
		c0-0.485,0.413-0.9,0.917-0.9h0.827v-9.006h-0.827c-0.503,0-0.917-0.413-0.917-0.898c0-0.502,0.413-0.897,0.917-0.897
		c0.575,0,1.15,0,1.726,0c0.485,0,0.898,0.396,0.898,0.897v9.904h0.828C195.993,20.971,196.406,21.386,196.406,21.871z"/>
	<path fill="#186D94" d="M213.122,11.084v6.939c0,6.453-9.797,6.453-9.797,0c0-0.484,0.414-0.898,0.898-0.898
		c0.504,0,0.917,0.414,0.917,0.898c0,4.08,6.184,4.08,6.184,0v-6.039h-2.193c-0.503,0-0.898-0.396-0.898-0.9
		c0-0.485,0.396-0.898,0.898-0.898h3.094C212.727,10.186,213.122,10.599,213.122,11.084z"/>
	<path fill="#186D94" d="M221.389,9.646c8.971,0,8.971,13.645,0,13.645C212.419,23.291,212.419,9.646,221.389,9.646z
		 M221.389,21.421c6.508,0,6.508-9.904,0-9.904S214.881,21.421,221.389,21.421z"/>
	<path fill="#186D94" d="M242.402,11.084c0,0.487-0.396,0.9-0.898,0.9h-0.9v7.189c0,1.978-1.617,3.595-3.596,3.595h-3.162
		c-1.979,0-3.596-1.617-3.596-3.595v-7.189h-0.773c-0.484,0-0.896-0.413-0.896-0.9c0-0.503,0.412-0.898,0.896-0.898h3.451
		c0.504,0,0.918,0.396,0.918,0.898c0,0.487-0.414,0.9-0.918,0.9h-0.863v7.189c0,0.987,0.791,1.797,1.781,1.797h3.162
		c0.989,0,1.779-0.81,1.779-1.797v-7.189h-0.736c-0.503,0-0.917-0.413-0.917-0.9c0-0.503,0.414-0.898,0.917-0.898h3.453
		C242.006,10.186,242.402,10.581,242.402,11.084z"/>
	<path fill="#186D94" d="M255.396,20.108v1.708c0,0.359-0.199,0.646-0.484,0.81c-0.145,0.089-0.326,0.143-0.504,0.143h-9.924
		c-0.502,0-0.898-0.396-0.898-0.897c0-0.485,0.396-0.9,0.898-0.9h0.828V17.36h-0.828c-0.502,0-0.898-0.413-0.898-0.915
		c0-0.487,0.396-0.901,0.898-0.901h0.828v-3.558h-0.828c-0.502,0-0.898-0.396-0.898-0.9c0-0.503,0.396-0.898,0.898-0.898h9.562
		c0.483,0,0.897,0.396,0.897,0.898v1.87c0,0.503-0.414,0.898-0.897,0.898c-0.502,0-0.916-0.396-0.916-0.898v-0.97h-6.021v3.558
		h4.098c0.486,0,0.9,0.414,0.9,0.901c0,0.502-0.414,0.915-0.9,0.915h-4.098v3.612h6.49V20.11c0-0.504,0.395-0.899,0.896-0.899
		C255,19.209,255.396,19.604,255.396,20.108z"/>
	<path fill="#186D94" d="M270.332,11.084c0,0.487-0.396,0.9-0.898,0.9h-0.896v7.189c0,1.978-1.619,3.595-3.598,3.595h-3.164
		c-1.979,0-3.596-1.617-3.596-3.595v-7.189h-0.771c-0.486,0-0.9-0.413-0.9-0.9c0-0.503,0.414-0.898,0.9-0.898h3.448
		c0.504,0,0.918,0.396,0.918,0.898c0,0.487-0.414,0.9-0.918,0.9h-0.86v7.189c0,0.987,0.791,1.797,1.778,1.797h3.164
		c0.985,0,1.778-0.81,1.778-1.797v-7.189h-0.737c-0.502,0-0.916-0.413-0.916-0.9c0-0.503,0.414-0.898,0.916-0.898h3.453
		C269.936,10.186,270.332,10.581,270.332,11.084z"/>
	<path fill="#186D94" d="M284.424,21.871c0,0.502-0.396,0.897-0.898,0.897c-1.148,0-2.301,0-3.451,0
		c-0.504,0-0.898-0.396-0.898-0.897c0-0.485,0.396-0.9,0.898-0.9h0.16l-2.588-3.667h-2.75v3.649h0.826c0.484,0,0.9,0.413,0.9,0.918
		c0,0.485-0.416,0.897-0.9,0.897h-3.471c-0.484,0-0.896-0.412-0.896-0.897c0-0.505,0.412-0.918,0.896-0.918h0.828v-3.649h-0.828
		c-0.484,0-0.896-0.413-0.896-0.898c0-0.502,0.412-0.898,0.896-0.898h0.828v-3.576h-0.828c-0.484,0-0.896-0.397-0.896-0.899
		c0-0.504,0.412-0.9,0.896-0.9h7.336c4.566,0,4.799,6.832,0.27,7.156l2.588,3.684h1.08
		C284.027,20.971,284.424,21.386,284.424,21.871z M279.588,15.507c2.355,0,2.355-3.576,0-3.576h-4.691v3.576H279.588z"/>
</g>
<g>
	<rect x="8.196" y="30.969" fill="none" width="398.667" height="62.667"/>
	<g enable-background="new    ">
		<path fill="#3E9DD7" d="M11.333,40.908l-3.096-9.441h1.331l1.471,4.65c0.392,1.275,0.742,2.424,1.008,3.53h0.028
			c0.267-1.093,0.645-2.283,1.079-3.516l1.597-4.665h1.303l-3.376,9.441H11.333z"/>
		<path fill="#3E9DD7" d="M22.704,37.462c0,2.508-1.751,3.601-3.375,3.601c-1.821,0-3.25-1.345-3.25-3.488
			c0-2.255,1.499-3.586,3.362-3.586C21.387,33.988,22.704,35.403,22.704,37.462z M17.339,37.532c0,1.485,0.84,2.605,2.045,2.605
			c1.177,0,2.059-1.106,2.059-2.634c0-1.148-0.574-2.591-2.031-2.591C17.969,34.913,17.339,36.258,17.339,37.532z"/>
		<path fill="#3E9DD7" d="M29.928,39.045c0,0.715,0.014,1.331,0.056,1.863h-1.092l-0.07-1.106h-0.028
			c-0.308,0.546-1.037,1.261-2.241,1.261c-1.064,0-2.339-0.603-2.339-2.97v-3.964h1.233v3.739c0,1.289,0.406,2.172,1.513,2.172
			c0.826,0,1.401-0.574,1.625-1.135c0.07-0.168,0.112-0.393,0.112-0.631v-4.146h1.233V39.045z"/>
		<path fill="#3E9DD7" d="M31.8,39.661c0.378,0.225,1.022,0.477,1.639,0.477c0.883,0,1.303-0.435,1.303-1.009
			c0-0.588-0.35-0.896-1.247-1.232c-1.232-0.448-1.807-1.106-1.807-1.919c0-1.093,0.896-1.989,2.339-1.989
			c0.687,0,1.289,0.183,1.653,0.42l-0.294,0.896C35.12,35.137,34.63,34.899,34,34.899c-0.729,0-1.121,0.42-1.121,0.924
			c0,0.561,0.392,0.812,1.274,1.163c1.163,0.434,1.779,1.022,1.779,2.031c0,1.204-0.938,2.045-2.521,2.045
			c-0.742,0-1.429-0.196-1.905-0.477L31.8,39.661z"/>
		<path fill="#3E9DD7" d="M45.243,39.283c0,0.589,0.028,1.163,0.098,1.625h-1.107l-0.098-0.854h-0.042
			c-0.378,0.532-1.107,1.009-2.073,1.009c-1.373,0-2.073-0.967-2.073-1.947c0-1.639,1.457-2.535,4.076-2.521v-0.14
			c0-0.547-0.154-1.569-1.541-1.555c-0.644,0-1.302,0.182-1.779,0.504l-0.28-0.826c0.561-0.351,1.387-0.589,2.241-0.589
			c2.073,0,2.578,1.415,2.578,2.76V39.283z M44.052,37.448c-1.345-0.028-2.872,0.21-2.872,1.527c0,0.812,0.532,1.176,1.148,1.176
			c0.896,0,1.471-0.56,1.667-1.134c0.042-0.141,0.056-0.28,0.056-0.393V37.448z"/>
		<path fill="#3E9DD7" d="M47.593,34.129l1.331,3.796c0.224,0.63,0.406,1.19,0.546,1.751h0.042c0.154-0.561,0.35-1.121,0.574-1.751
			l1.317-3.796h1.289l-2.662,6.779h-1.177l-2.577-6.779H47.593z"/>
		<path fill="#3E9DD7" d="M54.396,37.742c0.028,1.667,1.079,2.354,2.325,2.354c0.882,0,1.429-0.154,1.877-0.351l0.224,0.883
			c-0.434,0.196-1.19,0.435-2.269,0.435c-2.087,0-3.334-1.387-3.334-3.432c0-2.046,1.205-3.643,3.18-3.643
			c2.227,0,2.802,1.934,2.802,3.18c0,0.252-0.014,0.435-0.042,0.574H54.396z M58.01,36.86c0.014-0.771-0.322-1.989-1.709-1.989
			c-1.261,0-1.793,1.135-1.891,1.989H58.01z"/>
		<path fill="#3E9DD7" d="M59.953,40.193l3.054-3.992c0.308-0.378,0.588-0.7,0.896-1.064v-0.027h-3.67v-0.98h5.155v0.771
			l-3.025,3.936c-0.294,0.378-0.561,0.729-0.869,1.064v0.028h3.95v0.98h-5.491V40.193z"/>
		<path fill="#3E9DD7" d="M69.516,39.661c0.378,0.225,1.022,0.477,1.639,0.477c0.883,0,1.303-0.435,1.303-1.009
			c0-0.588-0.35-0.896-1.247-1.232c-1.232-0.448-1.807-1.106-1.807-1.919c0-1.093,0.896-1.989,2.339-1.989
			c0.687,0,1.289,0.183,1.653,0.42l-0.294,0.896c-0.266-0.168-0.756-0.405-1.387-0.405c-0.729,0-1.121,0.42-1.121,0.924
			c0,0.561,0.392,0.812,1.274,1.163c1.163,0.434,1.779,1.022,1.779,2.031c0,1.204-0.938,2.045-2.521,2.045
			c-0.742,0-1.429-0.196-1.905-0.477L69.516,39.661z"/>
		<path fill="#3E9DD7" d="M75.914,37.742c0.028,1.667,1.079,2.354,2.325,2.354c0.882,0,1.429-0.154,1.877-0.351l0.224,0.883
			c-0.434,0.196-1.19,0.435-2.269,0.435c-2.087,0-3.334-1.387-3.334-3.432c0-2.046,1.205-3.643,3.18-3.643
			c2.227,0,2.802,1.934,2.802,3.18c0,0.252-0.014,0.435-0.042,0.574H75.914z M79.528,36.86c0.014-0.771-0.322-1.989-1.709-1.989
			c-1.261,0-1.793,1.135-1.891,1.989H79.528z M79.808,31.201l-1.709,2.003h-0.868l1.232-2.003H79.808z"/>
		<path fill="#3E9DD7" d="M82.242,30.963h1.233v9.945h-1.233V30.963z"/>
		<path fill="#3E9DD7" d="M86.232,37.742c0.028,1.667,1.079,2.354,2.325,2.354c0.882,0,1.429-0.154,1.877-0.351l0.224,0.883
			c-0.434,0.196-1.19,0.435-2.269,0.435c-2.087,0-3.334-1.387-3.334-3.432c0-2.046,1.205-3.643,3.18-3.643
			c2.228,0,2.802,1.934,2.802,3.18c0,0.252-0.014,0.435-0.042,0.574H86.232z M89.846,36.86c0.014-0.771-0.322-1.989-1.709-1.989
			c-1.26,0-1.793,1.135-1.891,1.989H89.846z"/>
		<path fill="#3E9DD7" d="M97.392,40.67c-0.322,0.154-1.037,0.393-1.947,0.393c-2.045,0-3.376-1.387-3.376-3.46
			c0-2.087,1.429-3.614,3.642-3.614c0.729,0,1.373,0.183,1.709,0.364l-0.28,0.938c-0.294-0.154-0.756-0.322-1.429-0.322
			c-1.555,0-2.396,1.163-2.396,2.563c0,1.569,1.009,2.535,2.354,2.535c0.7,0,1.163-0.168,1.513-0.322L97.392,40.67z"/>
		<path fill="#3E9DD7" d="M100.498,32.504v1.625h1.765v0.938h-1.765v3.655c0,0.841,0.238,1.317,0.924,1.317
			c0.336,0,0.533-0.028,0.715-0.084l0.056,0.938c-0.238,0.084-0.616,0.168-1.092,0.168c-0.575,0-1.037-0.196-1.331-0.519
			c-0.336-0.378-0.476-0.98-0.476-1.779v-3.697h-1.051v-0.938h1.051v-1.261L100.498,32.504z"/>
		<path fill="#3E9DD7" d="M105.02,32.224c0,0.42-0.294,0.756-0.785,0.756c-0.448,0-0.742-0.336-0.742-0.756s0.308-0.771,0.77-0.771
			C104.711,31.453,105.02,31.789,105.02,32.224z M103.647,40.908v-6.779h1.233v6.779H103.647z"/>
		<path fill="#3E9DD7" d="M113.058,37.462c0,2.508-1.751,3.601-3.375,3.601c-1.821,0-3.25-1.345-3.25-3.488
			c0-2.255,1.499-3.586,3.362-3.586C111.742,33.988,113.058,35.403,113.058,37.462z M107.693,37.532c0,1.485,0.84,2.605,2.045,2.605
			c1.177,0,2.059-1.106,2.059-2.634c0-1.148-0.574-2.591-2.031-2.591C108.324,34.913,107.693,36.258,107.693,37.532z"/>
		<path fill="#3E9DD7" d="M114.609,35.964c0-0.715-0.014-1.275-0.056-1.835h1.093l0.07,1.12h0.028
			c0.336-0.63,1.121-1.261,2.241-1.261c0.938,0,2.395,0.561,2.395,2.886v4.034h-1.232V37c0-1.093-0.406-2.003-1.569-2.003
			c-0.798,0-1.429,0.574-1.653,1.261c-0.056,0.154-0.084,0.364-0.084,0.574v4.076h-1.233V35.964z"/>
		<path fill="#3E9DD7" d="M122.378,35.964c0-0.715-0.014-1.275-0.056-1.835h1.093l0.07,1.12h0.028
			c0.336-0.63,1.121-1.261,2.241-1.261c0.938,0,2.395,0.561,2.395,2.886v4.034h-1.232V37c0-1.093-0.406-2.003-1.569-2.003
			c-0.798,0-1.429,0.574-1.653,1.261c-0.056,0.154-0.084,0.364-0.084,0.574v4.076h-1.233V35.964z"/>
		<path fill="#3E9DD7" d="M130.835,37.742c0.028,1.667,1.079,2.354,2.325,2.354c0.882,0,1.429-0.154,1.877-0.351l0.224,0.883
			c-0.434,0.196-1.19,0.435-2.269,0.435c-2.087,0-3.334-1.387-3.334-3.432c0-2.046,1.205-3.643,3.18-3.643
			c2.227,0,2.802,1.934,2.802,3.18c0,0.252-0.014,0.435-0.042,0.574H130.835z M134.449,36.86c0.014-0.771-0.322-1.989-1.709-1.989
			c-1.261,0-1.793,1.135-1.891,1.989H134.449z M134.729,31.201l-1.709,2.003h-0.868l1.232-2.003H134.729z"/>
		<path fill="#3E9DD7" d="M140.13,30.963h1.233v9.945h-1.233V30.963z"/>
		<path fill="#3E9DD7" d="M144.121,37.742c0.028,1.667,1.079,2.354,2.325,2.354c0.882,0,1.429-0.154,1.877-0.351l0.224,0.883
			c-0.434,0.196-1.19,0.435-2.269,0.435c-2.087,0-3.334-1.387-3.334-3.432c0-2.046,1.205-3.643,3.18-3.643
			c2.228,0,2.802,1.934,2.802,3.18c0,0.252-0.014,0.435-0.042,0.574H144.121z M147.734,36.86c0.014-0.771-0.322-1.989-1.709-1.989
			c-1.26,0-1.793,1.135-1.891,1.989H147.734z"/>
		<path fill="#3E9DD7" d="M153.416,35.964c0-0.715-0.028-1.275-0.056-1.835h1.079l0.056,1.106h0.042
			c0.378-0.645,1.009-1.247,2.143-1.247c0.911,0,1.611,0.561,1.905,1.359h0.028c0.21-0.393,0.49-0.673,0.771-0.883
			c0.406-0.309,0.84-0.477,1.485-0.477c0.911,0,2.241,0.589,2.241,2.941v3.979h-1.205v-3.824c0-1.316-0.49-2.087-1.471-2.087
			c-0.714,0-1.247,0.519-1.471,1.106c-0.056,0.183-0.098,0.393-0.098,0.616v4.188h-1.205v-4.062c0-1.078-0.477-1.849-1.415-1.849
			c-0.756,0-1.331,0.616-1.527,1.232c-0.07,0.168-0.098,0.393-0.098,0.603v4.076h-1.205V35.964z"/>
		<path fill="#3E9DD7" d="M171.227,37.462c0,2.508-1.751,3.601-3.375,3.601c-1.821,0-3.25-1.345-3.25-3.488
			c0-2.255,1.499-3.586,3.362-3.586C169.911,33.988,171.227,35.403,171.227,37.462z M165.862,37.532c0,1.485,0.84,2.605,2.045,2.605
			c1.177,0,2.059-1.106,2.059-2.634c0-1.148-0.574-2.591-2.031-2.591C166.493,34.913,165.862,36.258,165.862,37.532z"/>
		<path fill="#3E9DD7" d="M178.619,30.963v8.194c0,0.603,0.028,1.289,0.056,1.751h-1.093l-0.056-1.177h-0.042
			c-0.364,0.757-1.177,1.331-2.283,1.331c-1.639,0-2.914-1.387-2.914-3.446c-0.014-2.255,1.401-3.628,3.04-3.628
			c1.051,0,1.737,0.49,2.045,1.022h0.028v-4.048H178.619z M177.4,36.888c0-0.153-0.014-0.364-0.056-0.518
			c-0.182-0.771-0.854-1.415-1.779-1.415c-1.275,0-2.031,1.12-2.031,2.605c0,1.373,0.687,2.507,2.003,2.507
			c0.826,0,1.583-0.56,1.807-1.471c0.042-0.168,0.056-0.336,0.056-0.532V36.888z"/>
		<path fill="#3E9DD7" d="M181.36,37.742c0.028,1.667,1.079,2.354,2.325,2.354c0.882,0,1.429-0.154,1.877-0.351l0.224,0.883
			c-0.434,0.196-1.19,0.435-2.269,0.435c-2.087,0-3.334-1.387-3.334-3.432c0-2.046,1.205-3.643,3.18-3.643
			c2.227,0,2.802,1.934,2.802,3.18c0,0.252-0.014,0.435-0.042,0.574H181.36z M184.974,36.86c0.014-0.771-0.322-1.989-1.709-1.989
			c-1.261,0-1.793,1.135-1.891,1.989H184.974z"/>
		<path fill="#3E9DD7" d="M192.939,32.952h-0.028l-1.583,0.854l-0.238-0.938l1.989-1.064h1.051v9.104h-1.191V32.952z"/>
		<path fill="#3E9DD7" d="M199.138,42.897c0.575-0.042,1.051-0.196,1.345-0.532c0.336-0.379,0.477-0.911,0.477-2.535v-5.701h1.232
			v6.177c0,1.317-0.21,2.171-0.812,2.788c-0.546,0.546-1.442,0.771-2.101,0.771L199.138,42.897z M202.332,32.224
			c0,0.406-0.28,0.756-0.784,0.756c-0.448,0-0.743-0.35-0.743-0.756c0-0.42,0.308-0.771,0.771-0.771S202.332,31.804,202.332,32.224z
			"/>
		<path fill="#3E9DD7" d="M210.342,37.462c0,2.508-1.75,3.601-3.375,3.601c-1.821,0-3.25-1.345-3.25-3.488
			c0-2.255,1.499-3.586,3.362-3.586C209.025,33.988,210.342,35.403,210.342,37.462z M204.978,37.532c0,1.485,0.84,2.605,2.045,2.605
			c1.177,0,2.06-1.106,2.06-2.634c0-1.148-0.574-2.591-2.031-2.591C205.608,34.913,204.978,36.258,204.978,37.532z"/>
		<path fill="#3E9DD7" d="M217.566,39.045c0,0.715,0.014,1.331,0.056,1.863h-1.093l-0.07-1.106h-0.027
			c-0.309,0.546-1.037,1.261-2.241,1.261c-1.064,0-2.339-0.603-2.339-2.97v-3.964h1.232v3.739c0,1.289,0.406,2.172,1.513,2.172
			c0.826,0,1.401-0.574,1.625-1.135c0.069-0.168,0.112-0.393,0.112-0.631v-4.146h1.232V39.045z"/>
		<path fill="#3E9DD7" d="M220.293,37.742c0.028,1.667,1.079,2.354,2.326,2.354c0.882,0,1.428-0.154,1.877-0.351l0.224,0.883
			c-0.435,0.196-1.19,0.435-2.269,0.435c-2.088,0-3.334-1.387-3.334-3.432c0-2.046,1.204-3.643,3.18-3.643
			c2.227,0,2.801,1.934,2.801,3.18c0,0.252-0.014,0.435-0.041,0.574H220.293z M223.907,36.86c0.015-0.771-0.322-1.989-1.709-1.989
			c-1.261,0-1.793,1.135-1.891,1.989H223.907z"/>
		<path fill="#3E9DD7" d="M232.295,39.045c0,0.715,0.014,1.331,0.055,1.863h-1.092l-0.07-1.106h-0.027
			c-0.309,0.546-1.037,1.261-2.242,1.261c-1.064,0-2.339-0.603-2.339-2.97v-3.964h1.233v3.739c0,1.289,0.406,2.172,1.512,2.172
			c0.826,0,1.401-0.574,1.625-1.135c0.07-0.168,0.112-0.393,0.112-0.631v-4.146h1.233V39.045z"/>
		<path fill="#3E9DD7" d="M234.335,36.244c0-0.799-0.015-1.485-0.056-2.115h1.078l0.057,1.345h0.041
			c0.309-0.911,1.064-1.485,1.892-1.485c0.126,0,0.224,0.015,0.337,0.028v1.162c-0.127-0.027-0.253-0.027-0.421-0.027
			c-0.868,0-1.485,0.645-1.653,1.568c-0.027,0.168-0.041,0.378-0.041,0.574v3.614h-1.233V36.244z"/>
		<path fill="#3E9DD7" d="M237.877,40.18c0-0.504,0.35-0.883,0.84-0.883s0.827,0.364,0.827,0.883c0,0.504-0.337,0.883-0.854,0.883
			C238.213,41.062,237.877,40.684,237.877,40.18z"/>
		<path fill="#3E9DD7" d="M245.605,37.938l-0.98,2.97h-1.261l3.222-9.441h1.457l3.222,9.441h-1.303l-1.009-2.97H245.605z
			 M248.715,36.986l-0.938-2.718c-0.211-0.616-0.351-1.177-0.49-1.723h-0.029c-0.14,0.546-0.279,1.135-0.476,1.709l-0.925,2.731
			H248.715z"/>
		<path fill="#3E9DD7" d="M252.562,36.342c0-0.868-0.027-1.569-0.057-2.213h1.094l0.07,1.162h0.027
			c0.49-0.826,1.303-1.303,2.409-1.303c1.653,0,2.886,1.387,2.886,3.432c0,2.438-1.499,3.643-3.096,3.643
			c-0.896,0-1.682-0.393-2.088-1.064h-0.027v3.684h-1.219V36.342z M253.781,38.148c0,0.183,0.014,0.351,0.057,0.505
			c0.224,0.854,0.966,1.442,1.848,1.442c1.303,0,2.061-1.064,2.061-2.619c0-1.345-0.715-2.508-2.018-2.508
			c-0.841,0-1.639,0.589-1.863,1.513c-0.042,0.154-0.084,0.337-0.084,0.49V38.148z"/>
		<path fill="#3E9DD7" d="M260.528,36.342c0-0.868-0.028-1.569-0.056-2.213h1.092l0.07,1.162h0.028
			c0.49-0.826,1.303-1.303,2.409-1.303c1.652,0,2.886,1.387,2.886,3.432c0,2.438-1.499,3.643-3.096,3.643
			c-0.896,0-1.681-0.393-2.087-1.064h-0.028v3.684h-1.219V36.342z M261.747,38.148c0,0.183,0.015,0.351,0.056,0.505
			c0.225,0.854,0.967,1.442,1.85,1.442c1.303,0,2.059-1.064,2.059-2.619c0-1.345-0.715-2.508-2.017-2.508
			c-0.841,0-1.64,0.589-1.863,1.513c-0.042,0.154-0.084,0.337-0.084,0.49V38.148z"/>
		<path fill="#3E9DD7" d="M274.168,39.045c0,0.715,0.014,1.331,0.055,1.863h-1.092l-0.07-1.106h-0.027
			c-0.309,0.546-1.037,1.261-2.242,1.261c-1.064,0-2.339-0.603-2.339-2.97v-3.964h1.233v3.739c0,1.289,0.406,2.172,1.512,2.172
			c0.826,0,1.401-0.574,1.625-1.135c0.07-0.168,0.112-0.393,0.112-0.631v-4.146h1.233V39.045z"/>
		<path fill="#3E9DD7" d="M276.656,34.129l1.471,4.006c0.168,0.448,0.336,0.98,0.448,1.387h0.028
			c0.126-0.406,0.266-0.925,0.434-1.415l1.346-3.978h1.303l-1.85,4.832c-0.883,2.325-1.484,3.502-2.325,4.244
			c-0.616,0.519-1.204,0.729-1.513,0.785l-0.309-1.022c0.309-0.099,0.715-0.295,1.079-0.603c0.336-0.267,0.742-0.742,1.036-1.373
			c0.057-0.126,0.098-0.224,0.098-0.294s-0.027-0.168-0.098-0.322l-2.493-6.247H276.656z"/>
		<path fill="#3E9DD7" d="M283.349,37.742c0.028,1.667,1.079,2.354,2.325,2.354c0.883,0,1.429-0.154,1.877-0.351l0.225,0.883
			c-0.435,0.196-1.191,0.435-2.27,0.435c-2.088,0-3.334-1.387-3.334-3.432c0-2.046,1.205-3.643,3.18-3.643
			c2.227,0,2.802,1.934,2.802,3.18c0,0.252-0.015,0.435-0.042,0.574H283.349z M286.963,36.86c0.014-0.771-0.322-1.989-1.709-1.989
			c-1.262,0-1.793,1.135-1.891,1.989H286.963z"/>
		<path fill="#3E9DD7" d="M288.906,40.193l3.053-3.992c0.309-0.378,0.589-0.7,0.896-1.064v-0.027h-3.67v-0.98h5.155v0.771
			l-3.025,3.936c-0.294,0.378-0.561,0.729-0.868,1.064v0.028h3.949v0.98h-5.49V40.193z"/>
		<path fill="#3E9DD7" d="M298.468,39.661c0.378,0.225,1.022,0.477,1.639,0.477c0.883,0,1.303-0.435,1.303-1.009
			c0-0.588-0.351-0.896-1.247-1.232c-1.232-0.448-1.807-1.106-1.807-1.919c0-1.093,0.896-1.989,2.34-1.989
			c0.686,0,1.289,0.183,1.652,0.42l-0.294,0.896c-0.267-0.168-0.757-0.405-1.387-0.405c-0.729,0-1.12,0.42-1.12,0.924
			c0,0.561,0.392,0.812,1.273,1.163c1.164,0.434,1.779,1.022,1.779,2.031c0,1.204-0.938,2.045-2.521,2.045
			c-0.742,0-1.428-0.196-1.904-0.477L298.468,39.661z"/>
		<path fill="#3E9DD7" d="M309.854,39.045c0,0.715,0.014,1.331,0.055,1.863h-1.092l-0.07-1.106h-0.027
			c-0.309,0.546-1.037,1.261-2.242,1.261c-1.064,0-2.339-0.603-2.339-2.97v-3.964h1.233v3.739c0,1.289,0.406,2.172,1.512,2.172
			c0.826,0,1.401-0.574,1.625-1.135c0.07-0.168,0.112-0.393,0.112-0.631v-4.146h1.233V39.045z"/>
		<path fill="#3E9DD7" d="M311.894,36.244c0-0.799-0.015-1.485-0.056-2.115h1.078l0.057,1.345h0.041
			c0.309-0.911,1.064-1.485,1.892-1.485c0.126,0,0.224,0.015,0.337,0.028v1.162c-0.127-0.027-0.253-0.027-0.421-0.027
			c-0.868,0-1.485,0.645-1.653,1.568c-0.027,0.168-0.041,0.378-0.041,0.574v3.614h-1.233V36.244z"/>
		<path fill="#3E9DD7" d="M319.439,30.963h1.232v9.945h-1.232V30.963z"/>
		<path fill="#3E9DD7" d="M327.506,39.283c0,0.589,0.028,1.163,0.099,1.625h-1.106l-0.098-0.854h-0.043
			c-0.378,0.532-1.106,1.009-2.072,1.009c-1.373,0-2.074-0.967-2.074-1.947c0-1.639,1.457-2.535,4.076-2.521v-0.14
			c0-0.547-0.153-1.569-1.541-1.555c-0.644,0-1.302,0.182-1.778,0.504l-0.28-0.826c0.561-0.351,1.387-0.589,2.241-0.589
			c2.073,0,2.577,1.415,2.577,2.76V39.283z M326.316,37.448c-1.346-0.028-2.872,0.21-2.872,1.527c0,0.812,0.532,1.176,1.148,1.176
			c0.896,0,1.471-0.56,1.667-1.134c0.042-0.141,0.057-0.28,0.057-0.393V37.448z"/>
		<path fill="#3E9DD7" d="M333.943,32.504v1.625h1.766v0.938h-1.766v3.655c0,0.841,0.238,1.317,0.925,1.317
			c0.337,0,0.532-0.028,0.714-0.084l0.057,0.938c-0.238,0.084-0.616,0.168-1.092,0.168c-0.575,0-1.037-0.196-1.332-0.519
			c-0.336-0.378-0.476-0.98-0.476-1.779v-3.697h-1.051v-0.938h1.051v-1.261L333.943,32.504z"/>
		<path fill="#3E9DD7" d="M343.145,37.462c0,2.508-1.751,3.601-3.375,3.601c-1.822,0-3.25-1.345-3.25-3.488
			c0-2.255,1.498-3.586,3.361-3.586C341.828,33.988,343.145,35.403,343.145,37.462z M337.779,37.532
			c0,1.485,0.841,2.605,2.045,2.605c1.178,0,2.06-1.106,2.06-2.634c0-1.148-0.574-2.591-2.03-2.591
			C338.41,34.913,337.779,36.258,337.779,37.532z"/>
		<path fill="#3E9DD7" d="M350.369,39.045c0,0.715,0.014,1.331,0.055,1.863h-1.092l-0.07-1.106h-0.027
			c-0.309,0.546-1.037,1.261-2.242,1.261c-1.064,0-2.339-0.603-2.339-2.97v-3.964h1.233v3.739c0,1.289,0.406,2.172,1.512,2.172
			c0.826,0,1.401-0.574,1.625-1.135c0.07-0.168,0.112-0.393,0.112-0.631v-4.146h1.233V39.045z"/>
		<path fill="#3E9DD7" d="M357.242,40.67c-0.322,0.154-1.037,0.393-1.947,0.393c-2.045,0-3.376-1.387-3.376-3.46
			c0-2.087,1.429-3.614,3.642-3.614c0.729,0,1.373,0.183,1.709,0.364l-0.279,0.938c-0.295-0.154-0.757-0.322-1.43-0.322
			c-1.555,0-2.395,1.163-2.395,2.563c0,1.569,1.008,2.535,2.354,2.535c0.699,0,1.162-0.168,1.512-0.322L357.242,40.67z"/>
		<path fill="#3E9DD7" d="M358.682,30.963h1.232v4.244h0.027c0.197-0.35,0.505-0.672,0.883-0.883
			c0.364-0.21,0.799-0.336,1.261-0.336c0.911,0,2.367,0.561,2.367,2.886v4.034h-1.232v-3.895c0-1.092-0.406-2.003-1.569-2.003
			c-0.798,0-1.414,0.561-1.652,1.219c-0.07,0.183-0.084,0.364-0.084,0.589v4.09h-1.232V30.963z"/>
		<path fill="#3E9DD7" d="M367.137,37.742c0.028,1.667,1.079,2.354,2.326,2.354c0.882,0,1.428-0.154,1.877-0.351l0.224,0.883
			c-0.435,0.196-1.19,0.435-2.269,0.435c-2.088,0-3.334-1.387-3.334-3.432c0-2.046,1.204-3.643,3.18-3.643
			c2.227,0,2.801,1.934,2.801,3.18c0,0.252-0.014,0.435-0.041,0.574H367.137z M370.751,36.86c0.015-0.771-0.322-1.989-1.709-1.989
			c-1.261,0-1.793,1.135-1.891,1.989H370.751z"/>
	</g>
	<g enable-background="new    ">
		<path fill="#3E9DD7" d="M9.905,54.542c0.028,1.667,1.079,2.354,2.325,2.354c0.882,0,1.429-0.154,1.877-0.351l0.224,0.883
			c-0.434,0.196-1.19,0.435-2.269,0.435c-2.087,0-3.334-1.387-3.334-3.432c0-2.046,1.205-3.643,3.18-3.643
			c2.228,0,2.802,1.934,2.802,3.18c0,0.252-0.014,0.435-0.042,0.574H9.905z M13.519,53.66c0.014-0.771-0.322-1.989-1.709-1.989
			c-1.26,0-1.793,1.135-1.891,1.989H13.519z"/>
		<path fill="#3E9DD7" d="M16.064,56.461c0.378,0.225,1.022,0.477,1.639,0.477c0.883,0,1.303-0.435,1.303-1.009
			c0-0.588-0.35-0.896-1.247-1.232c-1.232-0.448-1.807-1.106-1.807-1.919c0-1.093,0.896-1.989,2.339-1.989
			c0.687,0,1.289,0.183,1.653,0.42l-0.294,0.896c-0.266-0.168-0.756-0.405-1.387-0.405c-0.729,0-1.121,0.42-1.121,0.924
			c0,0.561,0.392,0.812,1.274,1.163c1.163,0.434,1.779,1.022,1.779,2.031c0,1.204-0.938,2.045-2.521,2.045
			c-0.742,0-1.429-0.196-1.905-0.477L16.064,56.461z"/>
		<path fill="#3E9DD7" d="M21.776,53.142c0-0.868-0.028-1.569-0.056-2.213h1.093l0.07,1.162h0.028
			c0.49-0.826,1.303-1.303,2.409-1.303c1.653,0,2.886,1.387,2.886,3.432c0,2.438-1.499,3.643-3.096,3.643
			c-0.896,0-1.681-0.393-2.087-1.064h-0.028v3.684h-1.219V53.142z M22.995,54.948c0,0.183,0.014,0.351,0.056,0.505
			c0.224,0.854,0.966,1.442,1.849,1.442c1.302,0,2.059-1.064,2.059-2.619c0-1.345-0.714-2.508-2.017-2.508
			c-0.841,0-1.639,0.589-1.863,1.513c-0.042,0.154-0.084,0.337-0.084,0.49V54.948z"/>
		<path fill="#3E9DD7" d="M34.504,56.083c0,0.589,0.028,1.163,0.098,1.625h-1.107l-0.098-0.854h-0.042
			c-0.378,0.532-1.107,1.009-2.073,1.009c-1.373,0-2.073-0.967-2.073-1.947c0-1.639,1.457-2.535,4.076-2.521v-0.14
			c0-0.547-0.154-1.569-1.541-1.555c-0.644,0-1.302,0.182-1.779,0.504l-0.28-0.826c0.561-0.351,1.387-0.589,2.241-0.589
			c2.073,0,2.578,1.415,2.578,2.76V56.083z M33.314,54.248c-1.345-0.028-2.872,0.21-2.872,1.527c0,0.812,0.532,1.176,1.148,1.176
			c0.896,0,1.471-0.56,1.667-1.134c0.042-0.141,0.056-0.28,0.056-0.393V54.248z"/>
		<path fill="#3E9DD7" d="M41.322,57.47c-0.322,0.154-1.037,0.393-1.947,0.393c-2.045,0-3.376-1.387-3.376-3.46
			c0-2.087,1.429-3.614,3.642-3.614c0.729,0,1.373,0.183,1.709,0.364l-0.28,0.938c-0.294-0.154-0.756-0.322-1.429-0.322
			c-1.555,0-2.396,1.163-2.396,2.563c0,1.569,1.009,2.535,2.354,2.535c0.7,0,1.163-0.168,1.513-0.322L41.322,57.47z"/>
		<path fill="#3E9DD7" d="M43.364,54.542c0.028,1.667,1.079,2.354,2.325,2.354c0.882,0,1.429-0.154,1.877-0.351l0.224,0.883
			c-0.434,0.196-1.19,0.435-2.269,0.435c-2.087,0-3.334-1.387-3.334-3.432c0-2.046,1.205-3.643,3.18-3.643
			c2.227,0,2.802,1.934,2.802,3.18c0,0.252-0.014,0.435-0.042,0.574H43.364z M46.978,53.66c0.014-0.771-0.322-1.989-1.709-1.989
			c-1.261,0-1.793,1.135-1.891,1.989H46.978z"/>
		<path fill="#3E9DD7" d="M52.66,53.142c0-0.868-0.028-1.569-0.056-2.213h1.093l0.07,1.162h0.028
			c0.49-0.826,1.303-1.303,2.409-1.303c1.653,0,2.886,1.387,2.886,3.432c0,2.438-1.499,3.643-3.096,3.643
			c-0.896,0-1.681-0.393-2.087-1.064h-0.028v3.684H52.66V53.142z M53.878,54.948c0,0.183,0.014,0.351,0.056,0.505
			c0.224,0.854,0.966,1.442,1.849,1.442c1.302,0,2.059-1.064,2.059-2.619c0-1.345-0.714-2.508-2.017-2.508
			c-0.841,0-1.639,0.589-1.863,1.513c-0.042,0.154-0.084,0.337-0.084,0.49V54.948z"/>
		<path fill="#3E9DD7" d="M66.761,54.262c0,2.508-1.751,3.601-3.375,3.601c-1.821,0-3.25-1.345-3.25-3.488
			c0-2.255,1.499-3.586,3.362-3.586C65.444,50.788,66.761,52.203,66.761,54.262z M61.396,54.332c0,1.485,0.84,2.605,2.045,2.605
			c1.177,0,2.059-1.106,2.059-2.634c0-1.148-0.574-2.591-2.031-2.591C62.026,51.713,61.396,53.058,61.396,54.332z"/>
		<path fill="#3E9DD7" d="M73.985,55.845c0,0.715,0.014,1.331,0.056,1.863h-1.092l-0.07-1.106H72.85
			c-0.308,0.546-1.037,1.261-2.241,1.261c-1.064,0-2.339-0.603-2.339-2.97v-3.964h1.233v3.739c0,1.289,0.406,2.172,1.513,2.172
			c0.826,0,1.401-0.574,1.625-1.135c0.07-0.168,0.112-0.393,0.112-0.631v-4.146h1.233V55.845z"/>
		<path fill="#3E9DD7" d="M76.025,53.044c0-0.799-0.014-1.485-0.056-2.115h1.079l0.056,1.345h0.042
			c0.308-0.911,1.064-1.485,1.891-1.485c0.126,0,0.224,0.015,0.336,0.028v1.162c-0.126-0.027-0.252-0.027-0.42-0.027
			c-0.869,0-1.485,0.645-1.653,1.568c-0.028,0.168-0.042,0.378-0.042,0.574v3.614h-1.233V53.044z"/>
		<path fill="#3E9DD7" d="M88.403,57.47c-0.322,0.154-1.037,0.393-1.947,0.393c-2.045,0-3.376-1.387-3.376-3.46
			c0-2.087,1.429-3.614,3.642-3.614c0.729,0,1.373,0.183,1.709,0.364l-0.28,0.938c-0.294-0.154-0.756-0.322-1.429-0.322
			c-1.555,0-2.396,1.163-2.396,2.563c0,1.569,1.009,2.535,2.354,2.535c0.7,0,1.163-0.168,1.513-0.322L88.403,57.47z"/>
		<path fill="#3E9DD7" d="M95.895,54.262c0,2.508-1.751,3.601-3.375,3.601c-1.821,0-3.25-1.345-3.25-3.488
			c0-2.255,1.499-3.586,3.362-3.586C94.578,50.788,95.895,52.203,95.895,54.262z M90.53,54.332c0,1.485,0.84,2.605,2.045,2.605
			c1.177,0,2.059-1.106,2.059-2.634c0-1.148-0.574-2.591-2.031-2.591C91.16,51.713,90.53,53.058,90.53,54.332z"/>
		<path fill="#3E9DD7" d="M97.445,52.764c0-0.715-0.014-1.275-0.056-1.835h1.093l0.07,1.12h0.028
			c0.336-0.63,1.121-1.261,2.241-1.261c0.938,0,2.395,0.561,2.395,2.886v4.034h-1.232V53.8c0-1.093-0.406-2.003-1.569-2.003
			c-0.798,0-1.429,0.574-1.653,1.261c-0.056,0.154-0.084,0.364-0.084,0.574v4.076h-1.233V52.764z"/>
		<path fill="#3E9DD7" d="M106.644,49.304v1.625h1.765v0.938h-1.765v3.655c0,0.841,0.238,1.317,0.924,1.317
			c0.336,0,0.533-0.028,0.715-0.084l0.056,0.938c-0.238,0.084-0.616,0.168-1.092,0.168c-0.575,0-1.037-0.196-1.331-0.519
			c-0.336-0.378-0.476-0.98-0.476-1.779v-3.697h-1.051v-0.938h1.051v-1.261L106.644,49.304z"/>
		<path fill="#3E9DD7" d="M111.166,49.023c0,0.42-0.294,0.756-0.785,0.756c-0.448,0-0.742-0.336-0.742-0.756s0.308-0.771,0.77-0.771
			C110.857,48.253,111.166,48.589,111.166,49.023z M109.793,57.708v-6.779h1.233v6.779H109.793z"/>
		<path fill="#3E9DD7" d="M113.069,52.764c0-0.715-0.014-1.275-0.056-1.835h1.093l0.07,1.12h0.028
			c0.336-0.63,1.121-1.261,2.241-1.261c0.938,0,2.395,0.561,2.395,2.886v4.034h-1.232V53.8c0-1.093-0.406-2.003-1.569-2.003
			c-0.798,0-1.429,0.574-1.653,1.261c-0.056,0.154-0.084,0.364-0.084,0.574v4.076h-1.233V52.764z"/>
		<path fill="#3E9DD7" d="M126.512,55.845c0,0.715,0.014,1.331,0.056,1.863h-1.092l-0.07-1.106h-0.028
			c-0.308,0.546-1.037,1.261-2.241,1.261c-1.064,0-2.339-0.603-2.339-2.97v-3.964h1.233v3.739c0,1.289,0.406,2.172,1.513,2.172
			c0.826,0,1.401-0.574,1.625-1.135c0.07-0.168,0.112-0.393,0.112-0.631v-4.146h1.233V55.845z"/>
		<path fill="#3E9DD7" d="M129.239,54.542c0.028,1.667,1.079,2.354,2.325,2.354c0.882,0,1.429-0.154,1.877-0.351l0.224,0.883
			c-0.434,0.196-1.19,0.435-2.269,0.435c-2.087,0-3.334-1.387-3.334-3.432c0-2.046,1.205-3.643,3.18-3.643
			c2.227,0,2.802,1.934,2.802,3.18c0,0.252-0.014,0.435-0.042,0.574H129.239z M132.853,53.66c0.014-0.771-0.322-1.989-1.709-1.989
			c-1.261,0-1.793,1.135-1.891,1.989H132.853z"/>
		<path fill="#3E9DD7" d="M135.566,53.044c0-0.799-0.014-1.485-0.056-2.115h1.079l0.056,1.345h0.042
			c0.308-0.911,1.064-1.485,1.891-1.485c0.126,0,0.224,0.015,0.336,0.028v1.162c-0.126-0.027-0.252-0.027-0.42-0.027
			c-0.869,0-1.485,0.645-1.653,1.568c-0.028,0.168-0.042,0.378-0.042,0.574v3.614h-1.233V53.044z"/>
		<path fill="#3E9DD7" d="M142.944,56.461c0.378,0.225,1.022,0.477,1.639,0.477c0.883,0,1.303-0.435,1.303-1.009
			c0-0.588-0.35-0.896-1.247-1.232c-1.232-0.448-1.807-1.106-1.807-1.919c0-1.093,0.896-1.989,2.339-1.989
			c0.687,0,1.289,0.183,1.653,0.42l-0.294,0.896c-0.266-0.168-0.756-0.405-1.387-0.405c-0.729,0-1.121,0.42-1.121,0.924
			c0,0.561,0.392,0.812,1.274,1.163c1.163,0.434,1.779,1.022,1.779,2.031c0,1.204-0.938,2.045-2.521,2.045
			c-0.742,0-1.429-0.196-1.905-0.477L142.944,56.461z"/>
		<path fill="#3E9DD7" d="M150.029,49.023c0,0.42-0.294,0.756-0.785,0.756c-0.448,0-0.742-0.336-0.742-0.756s0.308-0.771,0.77-0.771
			C149.721,48.253,150.029,48.589,150.029,49.023z M148.656,57.708v-6.779h1.233v6.779H148.656z"/>
		<path fill="#3E9DD7" d="M151.932,52.764c0-0.715-0.014-1.275-0.056-1.835h1.093l0.07,1.12h0.028
			c0.336-0.63,1.121-1.261,2.241-1.261c0.938,0,2.395,0.561,2.395,2.886v4.034h-1.232V53.8c0-1.093-0.406-2.003-1.569-2.003
			c-0.798,0-1.429,0.574-1.653,1.261c-0.056,0.154-0.084,0.364-0.084,0.574v4.076h-1.233V52.764z"/>
		<path fill="#3E9DD7" d="M165.837,54.262c0,2.508-1.751,3.601-3.375,3.601c-1.821,0-3.25-1.345-3.25-3.488
			c0-2.255,1.499-3.586,3.362-3.586C164.521,50.788,165.837,52.203,165.837,54.262z M160.473,54.332c0,1.485,0.84,2.605,2.045,2.605
			c1.177,0,2.059-1.106,2.059-2.634c0-1.148-0.574-2.591-2.031-2.591C161.103,51.713,160.473,53.058,160.473,54.332z"/>
		<path fill="#3E9DD7" d="M167.388,52.764c0-0.715-0.014-1.275-0.056-1.835h1.093l0.07,1.12h0.028
			c0.336-0.63,1.121-1.261,2.241-1.261c0.938,0,2.395,0.561,2.395,2.886v4.034h-1.232V53.8c0-1.093-0.406-2.003-1.569-2.003
			c-0.798,0-1.429,0.574-1.653,1.261c-0.056,0.154-0.084,0.364-0.084,0.574v4.076h-1.233V52.764z"/>
		<path fill="#3E9DD7" d="M182.888,56.083c0,0.589,0.028,1.163,0.098,1.625h-1.107l-0.098-0.854h-0.042
			c-0.378,0.532-1.107,1.009-2.073,1.009c-1.373,0-2.073-0.967-2.073-1.947c0-1.639,1.457-2.535,4.076-2.521v-0.14
			c0-0.547-0.154-1.569-1.541-1.555c-0.644,0-1.302,0.182-1.779,0.504l-0.28-0.826c0.561-0.351,1.387-0.589,2.241-0.589
			c2.073,0,2.578,1.415,2.578,2.76V56.083z M181.698,54.248c-1.345-0.028-2.872,0.21-2.872,1.527c0,0.812,0.532,1.176,1.148,1.176
			c0.896,0,1.471-0.56,1.667-1.134c0.042-0.141,0.056-0.28,0.056-0.393V54.248z"/>
		<path fill="#3E9DD7" d="M184.874,53.142c0-0.868-0.028-1.569-0.056-2.213h1.093l0.07,1.162h0.028
			c0.49-0.826,1.303-1.303,2.409-1.303c1.653,0,2.886,1.387,2.886,3.432c0,2.438-1.499,3.643-3.096,3.643
			c-0.896,0-1.681-0.393-2.087-1.064h-0.028v3.684h-1.219V53.142z M186.092,54.948c0,0.183,0.014,0.351,0.056,0.505
			c0.224,0.854,0.966,1.442,1.849,1.442c1.302,0,2.059-1.064,2.059-2.619c0-1.345-0.714-2.508-2.017-2.508
			c-0.841,0-1.639,0.589-1.863,1.513c-0.042,0.154-0.084,0.337-0.084,0.49V54.948z"/>
		<path fill="#3E9DD7" d="M192.839,53.142c0-0.868-0.028-1.569-0.056-2.213h1.093l0.07,1.162h0.028
			c0.49-0.826,1.303-1.303,2.409-1.303c1.653,0,2.886,1.387,2.886,3.432c0,2.438-1.499,3.643-3.096,3.643
			c-0.896,0-1.681-0.393-2.087-1.064h-0.028v3.684h-1.219V53.142z M194.058,54.948c0,0.183,0.014,0.351,0.056,0.505
			c0.224,0.854,0.966,1.442,1.849,1.442c1.302,0,2.059-1.064,2.059-2.619c0-1.345-0.714-2.508-2.017-2.508
			c-0.841,0-1.639,0.589-1.863,1.513c-0.042,0.154-0.084,0.337-0.084,0.49V54.948z"/>
		<path fill="#3E9DD7" d="M206.479,55.845c0,0.715,0.014,1.331,0.056,1.863h-1.092l-0.07-1.106h-0.028
			c-0.308,0.546-1.037,1.261-2.241,1.261c-1.064,0-2.339-0.603-2.339-2.97v-3.964h1.233v3.739c0,1.289,0.406,2.172,1.513,2.172
			c0.826,0,1.401-0.574,1.625-1.135c0.07-0.168,0.112-0.393,0.112-0.631v-4.146h1.233V55.845z"/>
		<path fill="#3E9DD7" d="M208.967,50.929l1.471,4.006c0.169,0.448,0.337,0.98,0.449,1.387h0.027
			c0.127-0.406,0.267-0.925,0.435-1.415l1.345-3.978h1.303l-1.85,4.832c-0.882,2.325-1.484,3.502-2.324,4.244
			c-0.617,0.519-1.205,0.729-1.514,0.785l-0.308-1.022c0.308-0.099,0.714-0.295,1.079-0.603c0.336-0.267,0.742-0.742,1.036-1.373
			c0.056-0.126,0.098-0.224,0.098-0.294s-0.028-0.168-0.098-0.322l-2.493-6.247H208.967z"/>
		<path fill="#3E9DD7" d="M215.66,54.542c0.027,1.667,1.078,2.354,2.324,2.354c0.883,0,1.43-0.154,1.877-0.351l0.225,0.883
			c-0.434,0.196-1.19,0.435-2.27,0.435c-2.087,0-3.334-1.387-3.334-3.432c0-2.046,1.205-3.643,3.18-3.643
			c2.229,0,2.803,1.934,2.803,3.18c0,0.252-0.015,0.435-0.043,0.574H215.66z M219.273,53.66c0.014-0.771-0.322-1.989-1.709-1.989
			c-1.26,0-1.793,1.135-1.891,1.989H219.273z"/>
		<path fill="#3E9DD7" d="M221.217,56.993l3.053-3.992c0.309-0.378,0.589-0.7,0.896-1.064v-0.027h-3.67v-0.98h5.155v0.771
			l-3.025,3.936c-0.294,0.378-0.561,0.729-0.868,1.064v0.028h3.949v0.98h-5.49V56.993z"/>
		<path fill="#3E9DD7" d="M230.779,56.461c0.377,0.225,1.021,0.477,1.639,0.477c0.883,0,1.303-0.435,1.303-1.009
			c0-0.588-0.351-0.896-1.247-1.232c-1.232-0.448-1.808-1.106-1.808-1.919c0-1.093,0.896-1.989,2.34-1.989
			c0.687,0,1.289,0.183,1.652,0.42l-0.293,0.896c-0.267-0.168-0.757-0.405-1.387-0.405c-0.729,0-1.121,0.42-1.121,0.924
			c0,0.561,0.393,0.812,1.274,1.163c1.163,0.434,1.779,1.022,1.779,2.031c0,1.204-0.938,2.045-2.521,2.045
			c-0.742,0-1.429-0.196-1.905-0.477L230.779,56.461z"/>
		<path fill="#3E9DD7" d="M242.164,55.845c0,0.715,0.014,1.331,0.056,1.863h-1.093l-0.07-1.106h-0.027
			c-0.309,0.546-1.037,1.261-2.241,1.261c-1.064,0-2.339-0.603-2.339-2.97v-3.964h1.232v3.739c0,1.289,0.406,2.172,1.513,2.172
			c0.826,0,1.401-0.574,1.625-1.135c0.069-0.168,0.112-0.393,0.112-0.631v-4.146h1.232V55.845z"/>
		<path fill="#3E9DD7" d="M244.205,53.044c0-0.799-0.014-1.485-0.057-2.115h1.078l0.057,1.345h0.042
			c0.308-0.911,1.064-1.485,1.892-1.485c0.125,0,0.224,0.015,0.336,0.028v1.162c-0.127-0.027-0.252-0.027-0.42-0.027
			c-0.869,0-1.485,0.645-1.653,1.568c-0.028,0.168-0.042,0.378-0.042,0.574v3.614h-1.232V53.044z"/>
		<path fill="#3E9DD7" d="M253.711,48.267h1.233v6.317c0,2.508-1.233,3.278-2.857,3.278c-0.462,0-1.009-0.099-1.303-0.225
			l0.168-0.994c0.252,0.098,0.616,0.182,1.036,0.182c1.094,0,1.723-0.49,1.723-2.339V48.267z"/>
		<path fill="#3E9DD7" d="M259.898,53.142c0-0.868-0.027-1.569-0.057-2.213h1.094l0.07,1.162h0.027
			c0.49-0.826,1.303-1.303,2.409-1.303c1.653,0,2.886,1.387,2.886,3.432c0,2.438-1.499,3.643-3.096,3.643
			c-0.896,0-1.682-0.393-2.088-1.064h-0.027v3.684h-1.219V53.142z M261.117,54.948c0,0.183,0.014,0.351,0.057,0.505
			c0.224,0.854,0.966,1.442,1.848,1.442c1.303,0,2.061-1.064,2.061-2.619c0-1.345-0.715-2.508-2.018-2.508
			c-0.841,0-1.639,0.589-1.863,1.513c-0.042,0.154-0.084,0.337-0.084,0.49V54.948z"/>
		<path fill="#3E9DD7" d="M274,54.262c0,2.508-1.752,3.601-3.376,3.601c-1.821,0-3.25-1.345-3.25-3.488
			c0-2.255,1.499-3.586,3.362-3.586C272.684,50.788,274,52.203,274,54.262z M268.635,54.332c0,1.485,0.84,2.605,2.045,2.605
			c1.177,0,2.059-1.106,2.059-2.634c0-1.148-0.574-2.591-2.03-2.591C269.266,51.713,268.635,53.058,268.635,54.332z"/>
		<path fill="#3E9DD7" d="M281.223,55.845c0,0.715,0.014,1.331,0.057,1.863h-1.093l-0.07-1.106h-0.028
			c-0.308,0.546-1.036,1.261-2.24,1.261c-1.064,0-2.34-0.603-2.34-2.97v-3.964h1.232v3.739c0,1.289,0.406,2.172,1.514,2.172
			c0.826,0,1.4-0.574,1.625-1.135c0.069-0.168,0.111-0.393,0.111-0.631v-4.146h1.232V55.845z"/>
		<path fill="#3E9DD7" d="M283.264,53.044c0-0.799-0.014-1.485-0.056-2.115h1.079l0.056,1.345h0.042
			c0.309-0.911,1.064-1.485,1.891-1.485c0.127,0,0.225,0.015,0.336,0.028v1.162c-0.125-0.027-0.252-0.027-0.42-0.027
			c-0.868,0-1.484,0.645-1.652,1.568c-0.028,0.168-0.042,0.378-0.042,0.574v3.614h-1.233V53.044z"/>
		<path fill="#3E9DD7" d="M290.642,56.461c0.378,0.225,1.022,0.477,1.639,0.477c0.883,0,1.303-0.435,1.303-1.009
			c0-0.588-0.351-0.896-1.247-1.232c-1.232-0.448-1.807-1.106-1.807-1.919c0-1.093,0.896-1.989,2.34-1.989
			c0.686,0,1.289,0.183,1.652,0.42l-0.294,0.896c-0.267-0.168-0.757-0.405-1.387-0.405c-0.729,0-1.12,0.42-1.12,0.924
			c0,0.561,0.392,0.812,1.273,1.163c1.164,0.434,1.779,1.022,1.779,2.031c0,1.204-0.938,2.045-2.521,2.045
			c-0.742,0-1.428-0.196-1.904-0.477L290.642,56.461z"/>
		<path fill="#3E9DD7" d="M297.04,54.542c0.028,1.667,1.079,2.354,2.325,2.354c0.883,0,1.429-0.154,1.877-0.351l0.225,0.883
			c-0.435,0.196-1.191,0.435-2.27,0.435c-2.088,0-3.334-1.387-3.334-3.432c0-2.046,1.205-3.643,3.18-3.643
			c2.227,0,2.802,1.934,2.802,3.18c0,0.252-0.015,0.435-0.042,0.574H297.04z M300.654,53.66c0.014-0.771-0.322-1.989-1.709-1.989
			c-1.262,0-1.793,1.135-1.891,1.989H300.654z M300.934,48.001l-1.709,2.003h-0.867l1.232-2.003H300.934z"/>
		<path fill="#3E9DD7" d="M303.367,47.763h1.233v9.945h-1.233V47.763z"/>
		<path fill="#3E9DD7" d="M307.357,54.542c0.028,1.667,1.079,2.354,2.326,2.354c0.882,0,1.428-0.154,1.877-0.351l0.224,0.883
			c-0.435,0.196-1.19,0.435-2.269,0.435c-2.088,0-3.334-1.387-3.334-3.432c0-2.046,1.204-3.643,3.18-3.643
			c2.227,0,2.801,1.934,2.801,3.18c0,0.252-0.014,0.435-0.041,0.574H307.357z M310.972,53.66c0.015-0.771-0.322-1.989-1.709-1.989
			c-1.261,0-1.793,1.135-1.891,1.989H310.972z"/>
		<path fill="#3E9DD7" d="M318.518,57.47c-0.321,0.154-1.035,0.393-1.946,0.393c-2.046,0-3.376-1.387-3.376-3.46
			c0-2.087,1.429-3.614,3.643-3.614c0.729,0,1.372,0.183,1.709,0.364l-0.281,0.938c-0.293-0.154-0.756-0.322-1.428-0.322
			c-1.555,0-2.396,1.163-2.396,2.563c0,1.569,1.01,2.535,2.354,2.535c0.701,0,1.163-0.168,1.514-0.322L318.518,57.47z"/>
		<path fill="#3E9DD7" d="M321.624,49.304v1.625h1.765v0.938h-1.765v3.655c0,0.841,0.238,1.317,0.925,1.317
			c0.336,0,0.532-0.028,0.715-0.084l0.055,0.938c-0.237,0.084-0.615,0.168-1.092,0.168c-0.574,0-1.037-0.196-1.331-0.519
			c-0.336-0.378-0.476-0.98-0.476-1.779v-3.697h-1.051v-0.938h1.051v-1.261L321.624,49.304z"/>
		<path fill="#3E9DD7" d="M326.146,49.023c0,0.42-0.295,0.756-0.785,0.756c-0.448,0-0.742-0.336-0.742-0.756s0.309-0.771,0.77-0.771
			C325.838,48.253,326.146,48.589,326.146,49.023z M324.773,57.708v-6.779h1.232v6.779H324.773z"/>
		<path fill="#3E9DD7" d="M334.184,54.262c0,2.508-1.75,3.601-3.375,3.601c-1.821,0-3.25-1.345-3.25-3.488
			c0-2.255,1.499-3.586,3.361-3.586C332.867,50.788,334.184,52.203,334.184,54.262z M328.819,54.332
			c0,1.485,0.841,2.605,2.045,2.605c1.177,0,2.06-1.106,2.06-2.634c0-1.148-0.574-2.591-2.031-2.591
			C329.449,51.713,328.819,53.058,328.819,54.332z"/>
		<path fill="#3E9DD7" d="M335.734,52.764c0-0.715-0.014-1.275-0.056-1.835h1.093l0.07,1.12h0.027
			c0.336-0.63,1.121-1.261,2.242-1.261c0.938,0,2.395,0.561,2.395,2.886v4.034h-1.232V53.8c0-1.093-0.406-2.003-1.568-2.003
			c-0.799,0-1.43,0.574-1.653,1.261c-0.056,0.154-0.084,0.364-0.084,0.574v4.076h-1.233V52.764z"/>
		<path fill="#3E9DD7" d="M343.505,52.764c0-0.715-0.015-1.275-0.056-1.835h1.092l0.07,1.12h0.028
			c0.336-0.63,1.12-1.261,2.241-1.261c0.938,0,2.395,0.561,2.395,2.886v4.034h-1.232V53.8c0-1.093-0.406-2.003-1.568-2.003
			c-0.799,0-1.429,0.574-1.652,1.261c-0.057,0.154-0.084,0.364-0.084,0.574v4.076h-1.233V52.764z"/>
		<path fill="#3E9DD7" d="M351.961,54.542c0.028,1.667,1.079,2.354,2.326,2.354c0.882,0,1.428-0.154,1.877-0.351l0.224,0.883
			c-0.435,0.196-1.19,0.435-2.269,0.435c-2.088,0-3.334-1.387-3.334-3.432c0-2.046,1.204-3.643,3.18-3.643
			c2.227,0,2.801,1.934,2.801,3.18c0,0.252-0.014,0.435-0.041,0.574H351.961z M355.575,53.66c0.015-0.771-0.322-1.989-1.709-1.989
			c-1.261,0-1.793,1.135-1.891,1.989H355.575z"/>
		<path fill="#3E9DD7" d="M358.289,53.044c0-0.799-0.014-1.485-0.057-2.115h1.078l0.057,1.345h0.042
			c0.308-0.911,1.064-1.485,1.892-1.485c0.125,0,0.224,0.015,0.336,0.028v1.162c-0.127-0.027-0.252-0.027-0.42-0.027
			c-0.869,0-1.485,0.645-1.653,1.568c-0.028,0.168-0.042,0.378-0.042,0.574v3.614h-1.232V53.044z"/>
		<path fill="#3E9DD7" d="M365.834,47.763h1.233v9.945h-1.233V47.763z"/>
		<path fill="#3E9DD7" d="M369.824,54.542c0.028,1.667,1.079,2.354,2.326,2.354c0.882,0,1.428-0.154,1.877-0.351l0.224,0.883
			c-0.435,0.196-1.19,0.435-2.269,0.435c-2.088,0-3.334-1.387-3.334-3.432c0-2.046,1.204-3.643,3.18-3.643
			c2.227,0,2.801,1.934,2.801,3.18c0,0.252-0.014,0.435-0.041,0.574H369.824z M373.438,53.66c0.015-0.771-0.322-1.989-1.709-1.989
			c-1.261,0-1.793,1.135-1.891,1.989H373.438z"/>
	</g>
	<g enable-background="new    ">
		<path fill="#3E9DD7" d="M9.218,69.563c0-0.715-0.028-1.275-0.056-1.835h1.079l0.056,1.106h0.042
			c0.378-0.645,1.009-1.247,2.143-1.247c0.911,0,1.611,0.561,1.905,1.359h0.028c0.21-0.393,0.49-0.673,0.771-0.883
			c0.406-0.309,0.84-0.477,1.485-0.477c0.911,0,2.241,0.589,2.241,2.941v3.979h-1.205v-3.824c0-1.316-0.49-2.087-1.471-2.087
			c-0.714,0-1.247,0.519-1.471,1.106c-0.056,0.183-0.098,0.393-0.098,0.616v4.188h-1.205v-4.062c0-1.078-0.476-1.849-1.415-1.849
			c-0.756,0-1.331,0.616-1.527,1.232c-0.07,0.168-0.098,0.393-0.098,0.603v4.076H9.218V69.563z"/>
		<path fill="#3E9DD7" d="M27.029,71.062c0,2.508-1.751,3.601-3.375,3.601c-1.821,0-3.25-1.345-3.25-3.488
			c0-2.255,1.499-3.586,3.362-3.586C25.713,67.588,27.029,69.003,27.029,71.062z M21.665,71.132c0,1.485,0.84,2.605,2.045,2.605
			c1.177,0,2.059-1.106,2.059-2.634c0-1.148-0.574-2.591-2.031-2.591C22.295,68.513,21.665,69.857,21.665,71.132z"/>
		<path fill="#3E9DD7" d="M34.421,64.562v8.194c0,0.603,0.028,1.289,0.056,1.751h-1.093l-0.056-1.177h-0.042
			c-0.364,0.757-1.177,1.331-2.283,1.331c-1.639,0-2.914-1.387-2.914-3.446c-0.014-2.255,1.401-3.628,3.04-3.628
			c1.051,0,1.737,0.49,2.045,1.022h0.028v-4.048H34.421z M33.203,70.487c0-0.153-0.014-0.364-0.056-0.518
			c-0.182-0.771-0.854-1.415-1.779-1.415c-1.275,0-2.031,1.12-2.031,2.605c0,1.373,0.687,2.507,2.003,2.507
			c0.826,0,1.583-0.56,1.807-1.471c0.042-0.168,0.056-0.336,0.056-0.532V70.487z"/>
		<path fill="#3E9DD7" d="M37.163,71.342c0.028,1.667,1.079,2.354,2.325,2.354c0.882,0,1.429-0.154,1.877-0.351l0.224,0.883
			c-0.434,0.196-1.19,0.435-2.269,0.435c-2.087,0-3.334-1.387-3.334-3.432c0-2.046,1.205-3.643,3.18-3.643
			c2.228,0,2.802,1.934,2.802,3.18c0,0.252-0.014,0.435-0.042,0.574H37.163z M40.776,70.46c0.014-0.771-0.322-1.989-1.709-1.989
			c-1.26,0-1.793,1.135-1.891,1.989H40.776z"/>
		<path fill="#3E9DD7" d="M46.066,74.508v-0.757l0.966-0.938c2.326-2.213,3.39-3.39,3.39-4.762c0-0.925-0.435-1.779-1.793-1.779
			c-0.827,0-1.513,0.42-1.933,0.771l-0.392-0.869c0.616-0.518,1.527-0.924,2.563-0.924c1.961,0,2.788,1.345,2.788,2.647
			c0,1.681-1.219,3.039-3.138,4.889l-0.714,0.672v0.028h4.076v1.022H46.066z"/>
		<path fill="#3E9DD7" d="M54.94,76.497c0.575-0.042,1.051-0.196,1.345-0.532c0.336-0.379,0.477-0.911,0.477-2.535v-5.701h1.232
			v6.177c0,1.317-0.21,2.171-0.812,2.788c-0.546,0.546-1.442,0.771-2.101,0.771L54.94,76.497z M58.134,65.823
			c0,0.406-0.28,0.756-0.784,0.756c-0.448,0-0.743-0.35-0.743-0.756c0-0.42,0.308-0.771,0.771-0.771S58.134,65.403,58.134,65.823z"
			/>
		<path fill="#3E9DD7" d="M66.145,71.062c0,2.508-1.751,3.601-3.375,3.601c-1.821,0-3.25-1.345-3.25-3.488
			c0-2.255,1.499-3.586,3.362-3.586C64.828,67.588,66.145,69.003,66.145,71.062z M60.78,71.132c0,1.485,0.84,2.605,2.045,2.605
			c1.177,0,2.059-1.106,2.059-2.634c0-1.148-0.574-2.591-2.031-2.591C61.41,68.513,60.78,69.857,60.78,71.132z"/>
		<path fill="#3E9DD7" d="M73.369,72.645c0,0.715,0.014,1.331,0.056,1.863h-1.092l-0.07-1.106h-0.028
			c-0.308,0.546-1.037,1.261-2.241,1.261c-1.064,0-2.339-0.603-2.339-2.97v-3.964h1.233v3.739c0,1.289,0.406,2.172,1.513,2.172
			c0.826,0,1.401-0.574,1.625-1.135c0.07-0.168,0.112-0.393,0.112-0.631v-4.146h1.233V72.645z"/>
		<path fill="#3E9DD7" d="M76.096,71.342c0.028,1.667,1.079,2.354,2.325,2.354c0.882,0,1.429-0.154,1.877-0.351l0.224,0.883
			c-0.434,0.196-1.19,0.435-2.269,0.435c-2.087,0-3.334-1.387-3.334-3.432c0-2.046,1.205-3.643,3.18-3.643
			c2.227,0,2.802,1.934,2.802,3.18c0,0.252-0.014,0.435-0.042,0.574H76.096z M79.709,70.46c0.014-0.771-0.322-1.989-1.709-1.989
			c-1.261,0-1.793,1.135-1.891,1.989H79.709z"/>
		<path fill="#3E9DD7" d="M88.097,72.645c0,0.715,0.014,1.331,0.056,1.863H87.06l-0.07-1.106h-0.028
			c-0.308,0.546-1.037,1.261-2.241,1.261c-1.064,0-2.339-0.603-2.339-2.97v-3.964h1.233v3.739c0,1.289,0.406,2.172,1.513,2.172
			c0.826,0,1.401-0.574,1.625-1.135c0.07-0.168,0.112-0.393,0.112-0.631v-4.146h1.233V72.645z"/>
		<path fill="#3E9DD7" d="M90.137,69.844c0-0.799-0.014-1.485-0.056-2.115h1.079l0.056,1.345h0.042
			c0.308-0.911,1.064-1.485,1.891-1.485c0.126,0,0.224,0.015,0.336,0.028v1.162c-0.126-0.027-0.252-0.027-0.42-0.027
			c-0.869,0-1.485,0.645-1.653,1.568c-0.028,0.168-0.042,0.378-0.042,0.574v3.614h-1.233V69.844z"/>
		<path fill="#3E9DD7" d="M94.547,73.261c0.378,0.225,1.022,0.477,1.639,0.477c0.883,0,1.303-0.435,1.303-1.009
			c0-0.588-0.35-0.896-1.247-1.232c-1.232-0.448-1.807-1.106-1.807-1.919c0-1.093,0.896-1.989,2.339-1.989
			c0.687,0,1.289,0.183,1.653,0.42l-0.294,0.896c-0.266-0.168-0.756-0.405-1.387-0.405c-0.729,0-1.121,0.42-1.121,0.924
			c0,0.561,0.392,0.812,1.274,1.163c1.163,0.434,1.779,1.022,1.779,2.031c0,1.204-0.938,2.045-2.521,2.045
			c-0.742,0-1.429-0.196-1.905-0.477L94.547,73.261z"/>
		<path fill="#3E9DD7" d="M99.812,73.779c0-0.504,0.35-0.883,0.84-0.883s0.827,0.364,0.827,0.883c0,0.504-0.336,0.883-0.854,0.883
			C100.147,74.662,99.812,74.283,99.812,73.779z"/>
	</g>
</g>
</svg>
