<?xml version="1.0" encoding="utf-8"?>
<!-- Generator: Adobe Illustrator 15.1.0, SVG Export Plug-In . SVG Version: 6.00 Build 0)  -->
<!DOCTYPE svg PUBLIC "-//W3C//DTD SVG 1.1//EN" "http://www.w3.org/Graphics/SVG/1.1/DTD/svg11.dtd">
<svg version="1.1" id="Calque_1" xmlns="http://www.w3.org/2000/svg" xmlns:xlink="http://www.w3.org/1999/xlink" x="0px" y="0px"
	 width="414.059px" height="147px" viewBox="0 0 414.059 147" enable-background="new 0 0 414.059 147" xml:space="preserve">
<rect opacity="0.93" fill="#FFFFFF" width="414.059" height="147"/>
<g>
	<path fill="#3E9DD7" d="M12.35,42.886h-1.188L8.39,35.03h1.133l2.244,6.811h0.022l2.267-6.811h1.089L12.35,42.886z"/>
	<path fill="#3E9DD7" d="M17.674,37.065c1.805,0,2.762,1.31,2.762,2.981c0,1.662-0.957,2.971-2.762,2.971
		c-1.804,0-2.761-1.309-2.761-2.971C14.913,38.375,15.87,37.065,17.674,37.065z M17.674,42.192c0.979,0,1.771-0.77,1.771-2.146
		c0-1.386-0.792-2.156-1.771-2.156c-0.979,0-1.771,0.771-1.771,2.156C15.902,41.423,16.695,42.192,17.674,42.192z"/>
	<path fill="#3E9DD7" d="M26.243,42.886h-0.881v-0.902h-0.021c-0.396,0.704-1.034,1.034-1.849,1.034
		c-1.496,0-1.958-0.858-1.958-2.079v-3.74h0.936v3.851c0,0.692,0.439,1.144,1.154,1.144c1.134,0,1.684-0.759,1.684-1.782v-3.212
		h0.936V42.886z"/>
	<path fill="#3E9DD7" d="M28.223,41.093c0.033,0.836,0.759,1.1,1.529,1.1c0.583,0,1.375-0.132,1.375-0.847
		c0-0.727-0.924-0.848-1.859-1.057c-0.924-0.209-1.859-0.517-1.859-1.605c0-1.145,1.134-1.618,2.123-1.618
		c1.255,0,2.256,0.396,2.333,1.783h-0.936c-0.065-0.727-0.704-0.958-1.32-0.958c-0.561,0-1.21,0.154-1.21,0.727
		c0,0.671,0.99,0.781,1.859,0.99c0.936,0.209,1.859,0.517,1.859,1.617c0,1.354-1.266,1.793-2.421,1.793
		c-1.275,0-2.354-0.517-2.409-1.925H28.223z"/>
	<path fill="#3E9DD7" d="M42.579,42.863c-0.165,0.1-0.374,0.154-0.672,0.154c-0.483,0-0.792-0.264-0.792-0.88
		c-0.517,0.605-1.21,0.88-2.002,0.88c-1.034,0-1.881-0.462-1.881-1.595c0-1.287,0.957-1.562,1.925-1.75
		c1.034-0.197,1.914-0.132,1.914-0.836c0-0.813-0.671-0.946-1.265-0.946c-0.792,0-1.375,0.242-1.42,1.078h-0.935
		c0.055-1.408,1.145-1.903,2.409-1.903c1.023,0,2.135,0.231,2.135,1.562v2.927c0,0.439,0,0.638,0.297,0.638
		c0.077,0,0.165-0.011,0.286-0.055V42.863z M41.061,39.948c-0.363,0.264-1.067,0.275-1.694,0.385
		c-0.616,0.11-1.145,0.33-1.145,1.023c0,0.616,0.528,0.836,1.101,0.836c1.232,0,1.738-0.77,1.738-1.287V39.948z"/>
	<path fill="#3E9DD7" d="M46.011,42.886H45.01l-2.112-5.688h1.045l1.595,4.741h0.022l1.551-4.741h0.979L46.011,42.886z"/>
	<path fill="#3E9DD7" d="M53.799,41.081c-0.253,1.255-1.155,1.937-2.432,1.937c-1.814,0-2.673-1.254-2.728-2.992
		c0-1.705,1.122-2.96,2.673-2.96c2.014,0,2.63,1.882,2.574,3.257h-4.258c-0.032,0.99,0.528,1.87,1.771,1.87
		c0.771,0,1.31-0.374,1.475-1.111H53.799z M52.896,39.497c-0.044-0.891-0.715-1.606-1.639-1.606c-0.979,0-1.562,0.737-1.629,1.606
		H52.896z"/>
	<path fill="#3E9DD7" d="M54.393,42.171l3.433-4.147h-3.213v-0.825h4.423v0.638l-3.477,4.225h3.631v0.825h-4.797V42.171z"/>
	<path fill="#3E9DD7" d="M65.096,41.093c0.033,0.836,0.759,1.1,1.529,1.1c0.583,0,1.375-0.132,1.375-0.847
		c0-0.727-0.924-0.848-1.859-1.057c-0.924-0.209-1.859-0.517-1.859-1.605c0-1.145,1.134-1.618,2.123-1.618
		c1.255,0,2.256,0.396,2.333,1.783h-0.936c-0.065-0.727-0.704-0.958-1.32-0.958c-0.561,0-1.21,0.154-1.21,0.727
		c0,0.671,0.99,0.781,1.859,0.99c0.936,0.209,1.859,0.517,1.859,1.617c0,1.354-1.266,1.793-2.421,1.793
		c-1.275,0-2.354-0.517-2.409-1.925H65.096z"/>
	<path fill="#3E9DD7" d="M74.875,41.081c-0.253,1.255-1.155,1.937-2.432,1.937c-1.814,0-2.673-1.254-2.728-2.992
		c0-1.705,1.122-2.96,2.673-2.96c2.014,0,2.63,1.882,2.574,3.257h-4.258c-0.032,0.99,0.528,1.87,1.771,1.87
		c0.771,0,1.31-0.374,1.475-1.111H74.875z M73.973,39.497c-0.044-0.891-0.715-1.606-1.639-1.606c-0.979,0-1.562,0.737-1.629,1.606
		H73.973z M72.554,34.844h1.199l-1.441,1.573h-0.704L72.554,34.844z"/>
	<path fill="#3E9DD7" d="M75.985,35.03h0.936v7.855h-0.936V35.03z"/>
	<path fill="#3E9DD7" d="M83.224,41.081c-0.253,1.255-1.155,1.937-2.432,1.937c-1.814,0-2.673-1.254-2.728-2.992
		c0-1.705,1.122-2.96,2.673-2.96c2.014,0,2.63,1.882,2.574,3.257h-4.258c-0.032,0.99,0.528,1.87,1.771,1.87
		c0.771,0,1.31-0.374,1.475-1.111H83.224z M82.321,39.497c-0.044-0.891-0.715-1.606-1.639-1.606c-0.979,0-1.562,0.737-1.629,1.606
		H82.321z"/>
	<path fill="#3E9DD7" d="M88.141,39.024c-0.143-0.715-0.638-1.134-1.408-1.134c-1.353,0-1.771,1.067-1.771,2.223
		c0,1.045,0.474,2.079,1.662,2.079c0.901,0,1.44-0.527,1.562-1.386h0.957c-0.209,1.386-1.078,2.211-2.508,2.211
		c-1.738,0-2.662-1.21-2.662-2.904c0-1.705,0.88-3.048,2.684-3.048c1.287,0,2.321,0.605,2.454,1.959H88.141z"/>
	<path fill="#3E9DD7" d="M91.484,37.198h1.134v0.825h-1.134v3.531c0,0.429,0.121,0.506,0.704,0.506h0.43v0.825h-0.716
		c-0.968,0-1.353-0.198-1.353-1.243v-3.619h-0.969v-0.825h0.969v-1.705h0.935V37.198z"/>
	<path fill="#3E9DD7" d="M94.642,36.175h-0.936V35.03h0.936V36.175z M93.706,37.198h0.936v5.688h-0.936V37.198z"/>
	<path fill="#3E9DD7" d="M98.546,37.065c1.805,0,2.762,1.31,2.762,2.981c0,1.662-0.957,2.971-2.762,2.971
		c-1.804,0-2.761-1.309-2.761-2.971C95.785,38.375,96.742,37.065,98.546,37.065z M98.546,42.192c0.979,0,1.771-0.77,1.771-2.146
		c0-1.386-0.792-2.156-1.771-2.156c-0.979,0-1.771,0.771-1.771,2.156C96.774,41.423,97.567,42.192,98.546,42.192z"/>
	<path fill="#3E9DD7" d="M102.406,37.198h0.88V38.1h0.022c0.396-0.704,1.034-1.034,1.848-1.034c1.497,0,1.959,0.858,1.959,2.08v3.74
		h-0.936v-3.851c0-0.693-0.44-1.145-1.155-1.145c-1.133,0-1.683,0.76-1.683,1.782v3.213h-0.936V37.198z"/>
	<path fill="#3E9DD7" d="M108.522,37.198h0.88V38.1h0.022c0.396-0.704,1.034-1.034,1.848-1.034c1.497,0,1.959,0.858,1.959,2.08v3.74
		h-0.936v-3.851c0-0.693-0.44-1.145-1.155-1.145c-1.133,0-1.683,0.76-1.683,1.782v3.213h-0.936V37.198z"/>
	<path fill="#3E9DD7" d="M119.49,41.081c-0.253,1.255-1.155,1.937-2.432,1.937c-1.814,0-2.673-1.254-2.728-2.992
		c0-1.705,1.122-2.96,2.673-2.96c2.014,0,2.63,1.882,2.574,3.257h-4.258c-0.032,0.99,0.528,1.87,1.771,1.87
		c0.771,0,1.31-0.374,1.475-1.111H119.49z M118.588,39.497c-0.044-0.891-0.715-1.606-1.639-1.606c-0.979,0-1.562,0.737-1.629,1.606
		H118.588z M117.169,34.844h1.199l-1.441,1.573h-0.704L117.169,34.844z"/>
	<path fill="#3E9DD7" d="M124.99,35.03h0.936v7.855h-0.936V35.03z"/>
	<path fill="#3E9DD7" d="M132.229,41.081c-0.253,1.255-1.155,1.937-2.432,1.937c-1.814,0-2.673-1.254-2.728-2.992
		c0-1.705,1.122-2.96,2.673-2.96c2.014,0,2.63,1.882,2.574,3.257h-4.258c-0.032,0.99,0.528,1.87,1.771,1.87
		c0.771,0,1.31-0.374,1.475-1.111H132.229z M131.326,39.497c-0.044-0.891-0.715-1.606-1.639-1.606c-0.979,0-1.562,0.737-1.629,1.606
		H131.326z"/>
	<path fill="#3E9DD7" d="M137.673,37.198h0.88v0.836h0.022c0.418-0.639,1.056-0.969,1.837-0.969c0.693,0,1.331,0.275,1.562,0.969
		c0.385-0.605,1.056-0.969,1.782-0.969c1.133,0,1.893,0.474,1.893,1.65v4.17h-0.936v-3.729c0-0.704-0.188-1.266-1.101-1.266
		c-0.901,0-1.484,0.572-1.484,1.452v3.543h-0.936v-3.729c0-0.737-0.231-1.266-1.067-1.266c-1.111,0-1.518,1.023-1.518,1.452v3.543
		h-0.936V37.198z"/>
	<path fill="#3E9DD7" d="M149.509,37.065c1.805,0,2.762,1.31,2.762,2.981c0,1.662-0.957,2.971-2.762,2.971
		c-1.804,0-2.761-1.309-2.761-2.971C146.748,38.375,147.705,37.065,149.509,37.065z M149.509,42.192c0.979,0,1.771-0.77,1.771-2.146
		c0-1.386-0.792-2.156-1.771-2.156c-0.979,0-1.771,0.771-1.771,2.156C147.737,41.423,148.53,42.192,149.509,42.192z"/>
	<path fill="#3E9DD7" d="M158.452,42.886h-0.936v-0.771h-0.021c-0.309,0.628-1.034,0.902-1.815,0.902
		c-1.749,0-2.618-1.386-2.618-2.992s0.857-2.96,2.596-2.96c0.583,0,1.42,0.221,1.838,0.892h0.021V35.03h0.936V42.886z
		 M155.812,42.192c1.254,0,1.738-1.078,1.738-2.146c0-1.122-0.506-2.156-1.793-2.156c-1.276,0-1.706,1.09-1.706,2.201
		C154.051,41.158,154.602,42.192,155.812,42.192z"/>
	<path fill="#3E9DD7" d="M164.743,41.081c-0.253,1.255-1.155,1.937-2.432,1.937c-1.814,0-2.673-1.254-2.728-2.992
		c0-1.705,1.122-2.96,2.673-2.96c2.014,0,2.63,1.882,2.574,3.257h-4.258c-0.032,0.99,0.528,1.87,1.771,1.87
		c0.771,0,1.31-0.374,1.475-1.111H164.743z M163.841,39.497c-0.044-0.891-0.715-1.606-1.639-1.606c-0.979,0-1.562,0.737-1.629,1.606
		H163.841z"/>
	<path fill="#3E9DD7" d="M173.401,42.886h-0.936v-5.589h-2.024v-0.748c1.067,0,2.035-0.286,2.244-1.463h0.716V42.886z"/>
	<path fill="#3E9DD7" d="M181.684,43.612c0,1.012-0.539,1.452-1.364,1.452c-0.154,0-0.319-0.012-0.484-0.044v-0.804
		c0.132,0.022,0.253,0.022,0.386,0.022c0.406,0,0.527-0.198,0.527-0.781v-6.26h0.936V43.612z M181.684,36.175h-0.936V35.03h0.936
		V36.175z"/>
	<path fill="#3E9DD7" d="M185.588,37.065c1.805,0,2.762,1.31,2.762,2.981c0,1.662-0.957,2.971-2.762,2.971
		c-1.804,0-2.761-1.309-2.761-2.971C182.827,38.375,183.784,37.065,185.588,37.065z M185.588,42.192c0.979,0,1.771-0.77,1.771-2.146
		c0-1.386-0.792-2.156-1.771-2.156c-0.979,0-1.771,0.771-1.771,2.156C183.816,41.423,184.609,42.192,185.588,42.192z"/>
	<path fill="#3E9DD7" d="M194.157,42.886h-0.881v-0.902h-0.021c-0.396,0.704-1.034,1.034-1.849,1.034
		c-1.496,0-1.958-0.858-1.958-2.079v-3.74h0.936v3.851c0,0.692,0.439,1.144,1.154,1.144c1.134,0,1.684-0.759,1.684-1.782v-3.212
		h0.936V42.886z"/>
	<path fill="#3E9DD7" d="M200.416,41.081c-0.253,1.255-1.155,1.937-2.432,1.937c-1.814,0-2.673-1.254-2.728-2.992
		c0-1.705,1.122-2.96,2.673-2.96c2.014,0,2.63,1.882,2.574,3.257h-4.258c-0.032,0.99,0.528,1.87,1.771,1.87
		c0.771,0,1.31-0.374,1.475-1.111H200.416z M199.514,39.497c-0.044-0.891-0.715-1.606-1.639-1.606c-0.979,0-1.562,0.737-1.629,1.606
		H199.514z"/>
	<path fill="#3E9DD7" d="M206.181,42.886H205.3v-0.902h-0.021c-0.396,0.704-1.034,1.034-1.849,1.034
		c-1.496,0-1.958-0.858-1.958-2.079v-3.74h0.936v3.851c0,0.692,0.439,1.144,1.154,1.144c1.134,0,1.684-0.759,1.684-1.782v-3.212
		h0.936V42.886z"/>
	<path fill="#3E9DD7" d="M207.555,37.198h0.88v1.199h0.022c0.451-0.913,1.078-1.364,2.09-1.332v0.99c-1.507,0-2.057,0.858-2.057,2.3
		v2.53h-0.936V37.198z"/>
	<path fill="#3E9DD7" d="M210.447,41.665h1.222v1.221h-1.222V41.665z"/>
	<path fill="#3E9DD7" d="M219.974,35.03h1.155l3.069,7.855h-1.155l-0.857-2.365h-3.323l-0.88,2.365h-1.078L219.974,35.03z
		 M219.192,39.641h2.663l-1.31-3.664h-0.021L219.192,39.641z"/>
	<path fill="#3E9DD7" d="M224.847,37.198h0.935v0.77h0.022c0.308-0.627,1.034-0.902,1.815-0.902c1.749,0,2.618,1.387,2.618,2.993
		s-0.858,2.959-2.597,2.959c-0.583,0-1.419-0.22-1.837-0.891h-0.022v2.938h-0.935V37.198z M227.487,37.891
		c-1.255,0-1.738,1.078-1.738,2.146c0,1.122,0.506,2.156,1.793,2.156c1.276,0,1.705-1.089,1.705-2.2
		C229.247,38.925,228.697,37.891,227.487,37.891z"/>
	<path fill="#3E9DD7" d="M231.369,37.198h0.935v0.77h0.022c0.308-0.627,1.034-0.902,1.815-0.902c1.749,0,2.618,1.387,2.618,2.993
		s-0.858,2.959-2.597,2.959c-0.583,0-1.419-0.22-1.837-0.891h-0.022v2.938h-0.935V37.198z M234.01,37.891
		c-1.255,0-1.738,1.078-1.738,2.146c0,1.122,0.506,2.156,1.793,2.156c1.276,0,1.705-1.089,1.705-2.2
		C235.77,38.925,235.22,37.891,234.01,37.891z"/>
	<path fill="#3E9DD7" d="M242.567,42.886h-0.881v-0.902h-0.021c-0.396,0.704-1.034,1.034-1.849,1.034
		c-1.496,0-1.958-0.858-1.958-2.079v-3.74h0.936v3.851c0,0.692,0.439,1.144,1.154,1.144c1.134,0,1.684-0.759,1.684-1.782v-3.212
		h0.936V42.886z"/>
	<path fill="#3E9DD7" d="M246.208,43.645c-0.429,1.111-0.814,1.519-1.65,1.519c-0.22,0-0.44-0.022-0.649-0.099v-0.858
		c0.177,0.055,0.363,0.132,0.551,0.132c0.385,0,0.594-0.187,0.77-0.517l0.386-0.969l-2.256-5.654h1.057l1.661,4.653h0.021
		l1.596-4.653h0.99L246.208,43.645z"/>
	<path fill="#3E9DD7" d="M254.326,41.081c-0.253,1.255-1.155,1.937-2.432,1.937c-1.814,0-2.673-1.254-2.728-2.992
		c0-1.705,1.122-2.96,2.673-2.96c2.014,0,2.63,1.882,2.574,3.257h-4.258c-0.032,0.99,0.528,1.87,1.771,1.87
		c0.771,0,1.31-0.374,1.475-1.111H254.326z M253.424,39.497c-0.044-0.891-0.715-1.606-1.639-1.606c-0.979,0-1.562,0.737-1.629,1.606
		H253.424z"/>
	<path fill="#3E9DD7" d="M254.92,42.171l3.433-4.147h-3.213v-0.825h4.423v0.638l-3.477,4.225h3.631v0.825h-4.797V42.171z"/>
	<path fill="#3E9DD7" d="M265.623,41.093c0.033,0.836,0.759,1.1,1.529,1.1c0.583,0,1.375-0.132,1.375-0.847
		c0-0.727-0.924-0.848-1.859-1.057c-0.924-0.209-1.859-0.517-1.859-1.605c0-1.145,1.134-1.618,2.123-1.618
		c1.255,0,2.256,0.396,2.333,1.783h-0.936c-0.065-0.727-0.704-0.958-1.32-0.958c-0.561,0-1.21,0.154-1.21,0.727
		c0,0.671,0.99,0.781,1.859,0.99c0.936,0.209,1.859,0.517,1.859,1.617c0,1.354-1.266,1.793-2.421,1.793
		c-1.275,0-2.354-0.517-2.409-1.925H265.623z"/>
	<path fill="#3E9DD7" d="M275.26,42.886h-0.881v-0.902h-0.021c-0.396,0.704-1.034,1.034-1.849,1.034
		c-1.496,0-1.958-0.858-1.958-2.079v-3.74h0.936v3.851c0,0.692,0.439,1.144,1.154,1.144c1.134,0,1.684-0.759,1.684-1.782v-3.212
		h0.936V42.886z"/>
	<path fill="#3E9DD7" d="M276.634,37.198h0.88v1.199h0.022c0.451-0.913,1.078-1.364,2.09-1.332v0.99c-1.507,0-2.057,0.858-2.057,2.3
		v2.53h-0.936V37.198z"/>
	<path fill="#3E9DD7" d="M284.774,35.03h0.936v7.855h-0.936V35.03z"/>
	<path fill="#3E9DD7" d="M292.2,42.863c-0.165,0.1-0.374,0.154-0.672,0.154c-0.483,0-0.792-0.264-0.792-0.88
		c-0.517,0.605-1.21,0.88-2.002,0.88c-1.034,0-1.881-0.462-1.881-1.595c0-1.287,0.957-1.562,1.925-1.75
		c1.034-0.197,1.914-0.132,1.914-0.836c0-0.813-0.671-0.946-1.265-0.946c-0.792,0-1.375,0.242-1.42,1.078h-0.935
		c0.055-1.408,1.145-1.903,2.409-1.903c1.023,0,2.135,0.231,2.135,1.562v2.927c0,0.439,0,0.638,0.297,0.638
		c0.077,0,0.165-0.011,0.286-0.055V42.863z M290.682,39.948c-0.363,0.264-1.067,0.275-1.694,0.385
		c-0.616,0.11-1.145,0.33-1.145,1.023c0,0.616,0.528,0.836,1.101,0.836c1.232,0,1.738-0.77,1.738-1.287V39.948z"/>
	<path fill="#3E9DD7" d="M298.755,37.198h1.134v0.825h-1.134v3.531c0,0.429,0.121,0.506,0.704,0.506h0.43v0.825h-0.716
		c-0.968,0-1.353-0.198-1.353-1.243v-3.619h-0.969v-0.825h0.969v-1.705h0.935V37.198z"/>
	<path fill="#3E9DD7" d="M303.375,37.065c1.805,0,2.762,1.31,2.762,2.981c0,1.662-0.957,2.971-2.762,2.971
		c-1.804,0-2.761-1.309-2.761-2.971C300.614,38.375,301.571,37.065,303.375,37.065z M303.375,42.192c0.979,0,1.771-0.77,1.771-2.146
		c0-1.386-0.792-2.156-1.771-2.156c-0.979,0-1.771,0.771-1.771,2.156C301.604,41.423,302.396,42.192,303.375,42.192z"/>
	<path fill="#3E9DD7" d="M311.944,42.886h-0.881v-0.902h-0.021c-0.396,0.704-1.034,1.034-1.849,1.034
		c-1.496,0-1.958-0.858-1.958-2.079v-3.74h0.936v3.851c0,0.692,0.439,1.144,1.154,1.144c1.134,0,1.684-0.759,1.684-1.782v-3.212
		h0.936V42.886z"/>
	<path fill="#3E9DD7" d="M317.213,39.024c-0.143-0.715-0.638-1.134-1.408-1.134c-1.353,0-1.771,1.067-1.771,2.223
		c0,1.045,0.474,2.079,1.662,2.079c0.901,0,1.44-0.527,1.562-1.386h0.957c-0.209,1.386-1.078,2.211-2.508,2.211
		c-1.738,0-2.662-1.21-2.662-2.904c0-1.705,0.88-3.048,2.684-3.048c1.287,0,2.321,0.605,2.454,1.959H317.213z"/>
	<path fill="#3E9DD7" d="M319.259,35.03h0.936v3.004h0.021c0.309-0.683,1.111-0.969,1.793-0.969c1.497,0,1.959,0.858,1.959,2.08
		v3.74h-0.936v-3.851c0-0.693-0.44-1.145-1.155-1.145c-1.133,0-1.683,0.76-1.683,1.782v3.213h-0.936V35.03z"/>
	<path fill="#3E9DD7" d="M330.227,41.081c-0.253,1.255-1.155,1.937-2.432,1.937c-1.814,0-2.673-1.254-2.728-2.992
		c0-1.705,1.122-2.96,2.673-2.96c2.014,0,2.63,1.882,2.574,3.257h-4.258c-0.032,0.99,0.528,1.87,1.771,1.87
		c0.771,0,1.31-0.374,1.475-1.111H330.227z M329.324,39.497c-0.044-0.891-0.715-1.606-1.639-1.606c-0.979,0-1.562,0.737-1.629,1.606
		H329.324z"/>
	<path fill="#3E9DD7" d="M337.19,40.487c0.032,0.781,0.483,1.298,1.275,1.298c0.451,0,0.892-0.209,1.067-0.627h1.749
		c-0.341,1.32-1.562,1.893-2.838,1.893c-1.859,0-3.125-1.122-3.125-3.036c0-1.75,1.397-3.004,3.081-3.004
		c2.046,0,3.069,1.54,2.981,3.477H337.19z M339.512,39.442c-0.033-0.639-0.484-1.166-1.111-1.166c-0.66,0-1.101,0.473-1.21,1.166
		H339.512z"/>
	<path fill="#3E9DD7" d="M343.768,41.005c0,0.285,0.121,0.495,0.309,0.638c0.176,0.132,0.429,0.198,0.692,0.198
		c0.363,0,0.881-0.154,0.881-0.605c0-0.439-0.583-0.528-0.913-0.604c-1.178-0.298-2.651-0.33-2.651-1.871
		c0-1.375,1.484-1.749,2.607-1.749c1.254,0,2.562,0.363,2.629,1.849h-1.728c0-0.242-0.088-0.396-0.242-0.495
		c-0.153-0.1-0.362-0.144-0.594-0.144c-0.308,0-0.803,0.033-0.803,0.43c0,0.539,1.254,0.638,2.112,0.825
		c1.155,0.23,1.452,1.066,1.452,1.54c0,1.529-1.452,2.035-2.739,2.035c-1.354,0-2.74-0.451-2.795-2.046H343.768z"/>
	<path fill="#3E9DD7" d="M348.432,37.176h1.782v0.66h0.022c0.362-0.539,0.913-0.825,1.573-0.825c1.793,0,2.552,1.54,2.552,3.146
		c0,1.485-0.792,2.894-2.409,2.894c-0.704,0-1.243-0.264-1.628-0.781h-0.022v2.53h-1.87V37.176z M350.236,39.971
		c0,1.001,0.286,1.649,1.133,1.649c0.836,0,1.122-0.869,1.122-1.649c0-0.727-0.286-1.529-1.111-1.529
		C350.874,38.441,350.236,38.793,350.236,39.971z"/>
	<path fill="#3E9DD7" d="M355.284,38.937c0.033-0.748,0.386-1.232,0.892-1.529c0.506-0.286,1.166-0.396,1.815-0.396
		c1.353,0,2.662,0.297,2.662,1.914v2.498c0,0.483,0,1.012,0.22,1.463h-1.881c-0.066-0.176-0.088-0.352-0.11-0.539
		c-0.484,0.506-1.199,0.704-1.881,0.704c-1.09,0-1.947-0.55-1.947-1.728c0-1.859,2.024-1.716,3.322-1.98
		c0.319-0.065,0.495-0.176,0.495-0.527c0-0.43-0.518-0.595-0.902-0.595c-0.517,0-0.847,0.231-0.935,0.716H355.284z M357.705,41.896
		c0.891,0,1.188-0.506,1.144-1.684c-0.264,0.165-0.748,0.198-1.155,0.309c-0.418,0.099-0.77,0.275-0.77,0.726
		C356.924,41.709,357.287,41.896,357.705,41.896z"/>
	<path fill="#3E9DD7" d="M365.603,39.267c-0.011-0.484-0.44-0.825-0.913-0.825c-1.045,0-1.21,0.891-1.21,1.683
		c0,0.737,0.318,1.496,1.11,1.496c0.649,0,0.979-0.374,1.067-0.979h1.815c-0.165,1.529-1.354,2.409-2.871,2.409
		c-1.717,0-2.993-1.177-2.993-2.927c0-1.814,1.155-3.113,2.993-3.113c1.419,0,2.685,0.748,2.816,2.256H365.603z"/>
	<path fill="#3E9DD7" d="M370.002,40.487c0.032,0.781,0.483,1.298,1.275,1.298c0.451,0,0.892-0.209,1.067-0.627h1.749
		c-0.341,1.32-1.562,1.893-2.838,1.893c-1.859,0-3.124-1.122-3.124-3.036c0-1.75,1.396-3.004,3.08-3.004
		c2.046,0,3.069,1.54,2.981,3.477H370.002z M372.323,39.442c-0.033-0.639-0.484-1.166-1.111-1.166c-0.66,0-1.101,0.473-1.21,1.166
		H372.323z"/>
	<path fill="#3E9DD7" d="M379.627,37.198h0.935v0.77h0.022c0.308-0.627,1.034-0.902,1.815-0.902c1.749,0,2.618,1.387,2.618,2.993
		s-0.858,2.959-2.597,2.959c-0.583,0-1.419-0.22-1.837-0.891h-0.022v2.938h-0.935V37.198z M382.268,37.891
		c-1.255,0-1.738,1.078-1.738,2.146c0,1.122,0.506,2.156,1.793,2.156c1.276,0,1.705-1.089,1.705-2.2
		C384.027,38.925,383.478,37.891,382.268,37.891z"/>
	<path fill="#3E9DD7" d="M388.569,37.065c1.805,0,2.762,1.31,2.762,2.981c0,1.662-0.957,2.971-2.762,2.971
		c-1.804,0-2.761-1.309-2.761-2.971C385.809,38.375,386.766,37.065,388.569,37.065z M388.569,42.192c0.979,0,1.771-0.77,1.771-2.146
		c0-1.386-0.792-2.156-1.771-2.156c-0.979,0-1.771,0.771-1.771,2.156C386.798,41.423,387.591,42.192,388.569,42.192z"/>
	<path fill="#3E9DD7" d="M397.139,42.886h-0.881v-0.902h-0.021c-0.396,0.704-1.034,1.034-1.849,1.034
		c-1.496,0-1.958-0.858-1.958-2.079v-3.74h0.936v3.851c0,0.692,0.439,1.144,1.154,1.144c1.134,0,1.684-0.759,1.684-1.782v-3.212
		h0.936V42.886z"/>
	<path fill="#3E9DD7" d="M398.513,37.198h0.88v1.199h0.022c0.451-0.913,1.078-1.364,2.09-1.332v0.99c-1.507,0-2.057,0.858-2.057,2.3
		v2.53h-0.936V37.198z"/>
	<path fill="#3E9DD7" d="M12.966,54.024c-0.143-0.715-0.638-1.134-1.408-1.134c-1.353,0-1.771,1.067-1.771,2.223
		c0,1.045,0.474,2.079,1.662,2.079c0.901,0,1.44-0.527,1.562-1.386h0.957c-0.209,1.386-1.078,2.211-2.508,2.211
		c-1.738,0-2.662-1.21-2.662-2.904c0-1.705,0.88-3.048,2.684-3.048c1.287,0,2.321,0.605,2.454,1.959H12.966z"/>
	<path fill="#3E9DD7" d="M17.465,52.065c1.805,0,2.762,1.31,2.762,2.981c0,1.662-0.957,2.971-2.762,2.971
		c-1.804,0-2.761-1.309-2.761-2.971C14.704,53.375,15.661,52.065,17.465,52.065z M17.465,57.192c0.979,0,1.771-0.77,1.771-2.146
		c0-1.386-0.792-2.156-1.771-2.156c-0.979,0-1.771,0.771-1.771,2.156C15.693,56.423,16.486,57.192,17.465,57.192z"/>
	<path fill="#3E9DD7" d="M21.325,52.198h0.88V53.1h0.022c0.396-0.704,1.034-1.034,1.848-1.034c1.497,0,1.959,0.858,1.959,2.08v3.74
		h-0.936v-3.851c0-0.693-0.44-1.145-1.155-1.145c-1.133,0-1.683,0.76-1.683,1.782v3.213h-0.936V52.198z"/>
	<path fill="#3E9DD7" d="M28.739,52.198h1.134v0.825h-1.134v3.531c0,0.429,0.121,0.506,0.704,0.506h0.43v0.825h-0.716
		c-0.968,0-1.353-0.198-1.353-1.243v-3.619h-0.969v-0.825h0.969v-1.705h0.935V52.198z"/>
	<path fill="#3E9DD7" d="M31.896,51.175h-0.936V50.03h0.936V51.175z M30.961,52.198h0.936v5.688h-0.936V52.198z"/>
	<path fill="#3E9DD7" d="M33.348,52.198h0.88V53.1h0.022c0.396-0.704,1.034-1.034,1.848-1.034c1.497,0,1.959,0.858,1.959,2.08v3.74
		h-0.936v-3.851c0-0.693-0.44-1.145-1.155-1.145c-1.133,0-1.683,0.76-1.683,1.782v3.213h-0.936V52.198z"/>
	<path fill="#3E9DD7" d="M44.173,57.886h-0.881v-0.902h-0.021c-0.396,0.704-1.034,1.034-1.849,1.034
		c-1.496,0-1.958-0.858-1.958-2.079v-3.74h0.936v3.851c0,0.692,0.439,1.144,1.154,1.144c1.134,0,1.684-0.759,1.684-1.782v-3.212
		h0.936V57.886z"/>
	<path fill="#3E9DD7" d="M50.432,56.081c-0.253,1.255-1.155,1.937-2.432,1.937c-1.814,0-2.673-1.254-2.728-2.992
		c0-1.705,1.122-2.96,2.673-2.96c2.014,0,2.63,1.882,2.574,3.257h-4.258c-0.032,0.99,0.528,1.87,1.771,1.87
		c0.771,0,1.31-0.374,1.475-1.111H50.432z M49.529,54.497c-0.044-0.891-0.715-1.606-1.639-1.606c-0.979,0-1.562,0.737-1.629,1.606
		H49.529z"/>
	<path fill="#3E9DD7" d="M51.454,52.198h0.88v1.199h0.022c0.451-0.913,1.078-1.364,2.09-1.332v0.99c-1.507,0-2.057,0.858-2.057,2.3
		v2.53h-0.936V52.198z"/>
	<path fill="#3E9DD7" d="M58.78,56.093c0.033,0.836,0.759,1.1,1.529,1.1c0.583,0,1.375-0.132,1.375-0.847
		c0-0.727-0.924-0.848-1.859-1.057c-0.924-0.209-1.859-0.517-1.859-1.605c0-1.145,1.134-1.618,2.123-1.618
		c1.255,0,2.256,0.396,2.333,1.783h-0.936c-0.065-0.727-0.704-0.958-1.32-0.958c-0.561,0-1.21,0.154-1.21,0.727
		c0,0.671,0.99,0.781,1.859,0.99c0.936,0.209,1.859,0.517,1.859,1.617c0,1.354-1.266,1.793-2.421,1.793
		c-1.275,0-2.354-0.517-2.409-1.925H58.78z"/>
	<path fill="#3E9DD7" d="M64.698,51.175h-0.936V50.03h0.936V51.175z M63.763,52.198h0.936v5.688h-0.936V52.198z"/>
	<path fill="#3E9DD7" d="M66.149,52.198h0.88V53.1h0.022c0.396-0.704,1.034-1.034,1.848-1.034c1.497,0,1.959,0.858,1.959,2.08v3.74
		h-0.936v-3.851c0-0.693-0.44-1.145-1.155-1.145c-1.133,0-1.683,0.76-1.683,1.782v3.213h-0.936V52.198z"/>
	<path fill="#3E9DD7" d="M74.719,52.065c1.805,0,2.762,1.31,2.762,2.981c0,1.662-0.957,2.971-2.762,2.971
		c-1.804,0-2.761-1.309-2.761-2.971C71.958,53.375,72.915,52.065,74.719,52.065z M74.719,57.192c0.979,0,1.771-0.77,1.771-2.146
		c0-1.386-0.792-2.156-1.771-2.156c-0.979,0-1.771,0.771-1.771,2.156C72.947,56.423,73.74,57.192,74.719,57.192z"/>
	<path fill="#3E9DD7" d="M78.579,52.198h0.88V53.1h0.022c0.396-0.704,1.034-1.034,1.848-1.034c1.497,0,1.959,0.858,1.959,2.08v3.74
		h-0.936v-3.851c0-0.693-0.44-1.145-1.155-1.145c-1.133,0-1.683,0.76-1.683,1.782v3.213h-0.936V52.198z"/>
	<path fill="#3E9DD7" d="M92.792,57.863c-0.165,0.1-0.374,0.154-0.672,0.154c-0.483,0-0.792-0.264-0.792-0.88
		c-0.517,0.605-1.21,0.88-2.002,0.88c-1.034,0-1.881-0.462-1.881-1.595c0-1.287,0.957-1.562,1.925-1.75
		c1.034-0.197,1.914-0.132,1.914-0.836c0-0.813-0.671-0.946-1.265-0.946c-0.792,0-1.375,0.242-1.42,1.078h-0.935
		c0.055-1.408,1.145-1.903,2.409-1.903c1.023,0,2.135,0.231,2.135,1.562v2.927c0,0.439,0,0.638,0.297,0.638
		c0.077,0,0.165-0.011,0.286-0.055V57.863z M91.273,54.948c-0.363,0.264-1.067,0.275-1.694,0.385
		c-0.616,0.11-1.145,0.33-1.145,1.023c0,0.616,0.528,0.836,1.101,0.836c1.232,0,1.738-0.77,1.738-1.287V54.948z"/>
	<path fill="#3E9DD7" d="M93.693,52.198h0.935v0.77h0.022c0.308-0.627,1.034-0.902,1.815-0.902c1.749,0,2.618,1.387,2.618,2.993
		s-0.858,2.959-2.597,2.959c-0.583,0-1.419-0.22-1.837-0.891h-0.022v2.938h-0.935V52.198z M96.334,52.891
		c-1.255,0-1.738,1.078-1.738,2.146c0,1.122,0.506,2.156,1.793,2.156c1.276,0,1.705-1.089,1.705-2.2
		C98.094,53.925,97.544,52.891,96.334,52.891z"/>
	<path fill="#3E9DD7" d="M100.216,52.198h0.935v0.77h0.022c0.308-0.627,1.034-0.902,1.815-0.902c1.749,0,2.618,1.387,2.618,2.993
		s-0.858,2.959-2.597,2.959c-0.583,0-1.419-0.22-1.837-0.891h-0.022v2.938h-0.935V52.198z M102.856,52.891
		c-1.255,0-1.738,1.078-1.738,2.146c0,1.122,0.506,2.156,1.793,2.156c1.276,0,1.705-1.089,1.705-2.2
		C104.616,53.925,104.066,52.891,102.856,52.891z"/>
	<path fill="#3E9DD7" d="M111.414,57.886h-0.881v-0.902h-0.021c-0.396,0.704-1.034,1.034-1.849,1.034
		c-1.496,0-1.958-0.858-1.958-2.079v-3.74h0.936v3.851c0,0.692,0.439,1.144,1.154,1.144c1.134,0,1.684-0.759,1.684-1.782v-3.212
		h0.936V57.886z"/>
	<path fill="#3E9DD7" d="M115.055,58.645c-0.429,1.111-0.814,1.519-1.65,1.519c-0.22,0-0.44-0.022-0.649-0.099v-0.858
		c0.177,0.055,0.363,0.132,0.551,0.132c0.385,0,0.594-0.187,0.77-0.517l0.386-0.969l-2.256-5.654h1.057l1.661,4.653h0.021
		l1.596-4.653h0.99L115.055,58.645z"/>
	<path fill="#3E9DD7" d="M123.173,56.081c-0.253,1.255-1.155,1.937-2.432,1.937c-1.814,0-2.673-1.254-2.728-2.992
		c0-1.705,1.122-2.96,2.673-2.96c2.014,0,2.63,1.882,2.574,3.257h-4.258c-0.032,0.99,0.528,1.87,1.771,1.87
		c0.771,0,1.31-0.374,1.475-1.111H123.173z M122.271,54.497c-0.044-0.891-0.715-1.606-1.639-1.606c-0.979,0-1.562,0.737-1.629,1.606
		H122.271z"/>
	<path fill="#3E9DD7" d="M123.767,57.171l3.433-4.147h-3.213v-0.825h4.423v0.638l-3.477,4.225h3.631v0.825h-4.797V57.171z"/>
	<path fill="#3E9DD7" d="M133.139,56.093c0.033,0.836,0.759,1.1,1.529,1.1c0.583,0,1.375-0.132,1.375-0.847
		c0-0.727-0.924-0.848-1.859-1.057c-0.924-0.209-1.859-0.517-1.859-1.605c0-1.145,1.134-1.618,2.123-1.618
		c1.255,0,2.256,0.396,2.333,1.783h-0.936c-0.065-0.727-0.704-0.958-1.32-0.958c-0.561,0-1.21,0.154-1.21,0.727
		c0,0.671,0.99,0.781,1.859,0.99c0.936,0.209,1.859,0.517,1.859,1.617c0,1.354-1.266,1.793-2.421,1.793
		c-1.275,0-2.354-0.517-2.409-1.925H133.139z"/>
	<path fill="#3E9DD7" d="M142.775,57.886h-0.881v-0.902h-0.021c-0.396,0.704-1.034,1.034-1.849,1.034
		c-1.496,0-1.958-0.858-1.958-2.079v-3.74h0.936v3.851c0,0.692,0.439,1.144,1.154,1.144c1.134,0,1.684-0.759,1.684-1.782v-3.212
		h0.936V57.886z"/>
	<path fill="#3E9DD7" d="M144.149,52.198h0.88v1.199h0.022c0.451-0.913,1.078-1.364,2.09-1.332v0.99c-1.507,0-2.057,0.858-2.057,2.3
		v2.53h-0.936V52.198z"/>
	<path fill="#3E9DD7" d="M150.958,50.03h0.936v7.855h-0.936V50.03z"/>
	<path fill="#3E9DD7" d="M158.384,57.863c-0.165,0.1-0.374,0.154-0.672,0.154c-0.483,0-0.792-0.264-0.792-0.88
		c-0.517,0.605-1.21,0.88-2.002,0.88c-1.034,0-1.881-0.462-1.881-1.595c0-1.287,0.957-1.562,1.925-1.75
		c1.034-0.197,1.914-0.132,1.914-0.836c0-0.813-0.671-0.946-1.265-0.946c-0.792,0-1.375,0.242-1.42,1.078h-0.935
		c0.055-1.408,1.145-1.903,2.409-1.903c1.023,0,2.135,0.231,2.135,1.562v2.927c0,0.439,0,0.638,0.297,0.638
		c0.077,0,0.165-0.011,0.286-0.055V57.863z M156.865,54.948c-0.363,0.264-1.067,0.275-1.694,0.385
		c-0.616,0.11-1.145,0.33-1.145,1.023c0,0.616,0.528,0.836,1.101,0.836c1.232,0,1.738-0.77,1.738-1.287V54.948z"/>
	<path fill="#3E9DD7" d="M163.607,52.198h1.134v0.825h-1.134v3.531c0,0.429,0.121,0.506,0.704,0.506h0.43v0.825h-0.716
		c-0.968,0-1.353-0.198-1.353-1.243v-3.619h-0.969v-0.825h0.969v-1.705h0.935V52.198z"/>
	<path fill="#3E9DD7" d="M168.228,52.065c1.805,0,2.762,1.31,2.762,2.981c0,1.662-0.957,2.971-2.762,2.971
		c-1.804,0-2.761-1.309-2.761-2.971C165.467,53.375,166.424,52.065,168.228,52.065z M168.228,57.192c0.979,0,1.771-0.77,1.771-2.146
		c0-1.386-0.792-2.156-1.771-2.156c-0.979,0-1.771,0.771-1.771,2.156C166.456,56.423,167.249,57.192,168.228,57.192z"/>
	<path fill="#3E9DD7" d="M176.797,57.886h-0.881v-0.902h-0.021c-0.396,0.704-1.034,1.034-1.849,1.034
		c-1.496,0-1.958-0.858-1.958-2.079v-3.74h0.936v3.851c0,0.692,0.439,1.144,1.154,1.144c1.134,0,1.684-0.759,1.684-1.782v-3.212
		h0.936V57.886z"/>
	<path fill="#3E9DD7" d="M182.065,54.024c-0.143-0.715-0.638-1.134-1.408-1.134c-1.353,0-1.771,1.067-1.771,2.223
		c0,1.045,0.474,2.079,1.662,2.079c0.901,0,1.44-0.527,1.562-1.386h0.957c-0.209,1.386-1.078,2.211-2.508,2.211
		c-1.738,0-2.662-1.21-2.662-2.904c0-1.705,0.88-3.048,2.684-3.048c1.287,0,2.321,0.605,2.454,1.959H182.065z"/>
	<path fill="#3E9DD7" d="M184.111,50.03h0.936v3.004h0.021c0.309-0.683,1.111-0.969,1.793-0.969c1.497,0,1.959,0.858,1.959,2.08
		v3.74h-0.936v-3.851c0-0.693-0.44-1.145-1.155-1.145c-1.133,0-1.683,0.76-1.683,1.782v3.213h-0.936V50.03z"/>
	<path fill="#3E9DD7" d="M195.079,56.081c-0.253,1.255-1.155,1.937-2.432,1.937c-1.814,0-2.673-1.254-2.728-2.992
		c0-1.705,1.122-2.96,2.673-2.96c2.014,0,2.63,1.882,2.574,3.257h-4.258c-0.032,0.99,0.528,1.87,1.771,1.87
		c0.771,0,1.31-0.374,1.475-1.111H195.079z M194.177,54.497c-0.044-0.891-0.715-1.606-1.639-1.606c-0.979,0-1.562,0.737-1.629,1.606
		H194.177z"/>
	<path fill="#3E9DD7" d="M204.297,55.399c0,1.76-0.902,2.651-2.75,2.651c-2.079,0-2.751-1.199-2.751-2.948v-0.341h1.926v0.726
		c0,0.518,0.286,0.803,0.792,0.803c0.473,0,0.737-0.264,0.737-1.022V50.03h2.046V55.399z"/>
	<path fill="#3E9DD7" d="M208.806,52.198h0.935v0.77h0.022c0.308-0.627,1.034-0.902,1.815-0.902c1.749,0,2.618,1.387,2.618,2.993
		s-0.858,2.959-2.597,2.959c-0.583,0-1.419-0.22-1.837-0.891h-0.022v2.938h-0.935V52.198z M211.446,52.891
		c-1.255,0-1.738,1.078-1.738,2.146c0,1.122,0.506,2.156,1.793,2.156c1.276,0,1.705-1.089,1.705-2.2
		C213.206,53.925,212.656,52.891,211.446,52.891z"/>
	<path fill="#3E9DD7" d="M217.748,52.065c1.805,0,2.762,1.31,2.762,2.981c0,1.662-0.957,2.971-2.762,2.971
		c-1.804,0-2.761-1.309-2.761-2.971C214.987,53.375,215.944,52.065,217.748,52.065z M217.748,57.192c0.979,0,1.771-0.77,1.771-2.146
		c0-1.386-0.792-2.156-1.771-2.156c-0.979,0-1.771,0.771-1.771,2.156C215.977,56.423,216.77,57.192,217.748,57.192z"/>
	<path fill="#3E9DD7" d="M226.317,57.886h-0.881v-0.902h-0.021c-0.396,0.704-1.034,1.034-1.849,1.034
		c-1.496,0-1.958-0.858-1.958-2.079v-3.74h0.936v3.851c0,0.692,0.439,1.144,1.154,1.144c1.134,0,1.684-0.759,1.684-1.782v-3.212
		h0.936V57.886z"/>
	<path fill="#3E9DD7" d="M227.691,52.198h0.88v1.199h0.022c0.451-0.913,1.078-1.364,2.09-1.332v0.99c-1.507,0-2.057,0.858-2.057,2.3
		v2.53h-0.936V52.198z"/>
	<path fill="#3E9DD7" d="M235.018,56.093c0.033,0.836,0.759,1.1,1.529,1.1c0.583,0,1.375-0.132,1.375-0.847
		c0-0.727-0.924-0.848-1.859-1.057c-0.924-0.209-1.859-0.517-1.859-1.605c0-1.145,1.134-1.618,2.123-1.618
		c1.255,0,2.256,0.396,2.333,1.783h-0.936c-0.065-0.727-0.704-0.958-1.32-0.958c-0.561,0-1.21,0.154-1.21,0.727
		c0,0.671,0.99,0.781,1.859,0.99c0.936,0.209,1.859,0.517,1.859,1.617c0,1.354-1.266,1.793-2.421,1.793
		c-1.275,0-2.354-0.517-2.409-1.925H235.018z"/>
	<path fill="#3E9DD7" d="M244.797,56.081c-0.253,1.255-1.155,1.937-2.432,1.937c-1.814,0-2.673-1.254-2.728-2.992
		c0-1.705,1.122-2.96,2.673-2.96c2.014,0,2.63,1.882,2.574,3.257h-4.258c-0.032,0.99,0.528,1.87,1.771,1.87
		c0.771,0,1.31-0.374,1.475-1.111H244.797z M243.895,54.497c-0.044-0.891-0.715-1.606-1.639-1.606c-0.979,0-1.562,0.737-1.629,1.606
		H243.895z M242.476,49.844h1.199l-1.441,1.573h-0.704L242.476,49.844z"/>
	<path fill="#3E9DD7" d="M245.907,50.03h0.936v7.855h-0.936V50.03z"/>
	<path fill="#3E9DD7" d="M253.146,56.081c-0.253,1.255-1.155,1.937-2.432,1.937c-1.814,0-2.673-1.254-2.728-2.992
		c0-1.705,1.122-2.96,2.673-2.96c2.014,0,2.63,1.882,2.574,3.257h-4.258c-0.032,0.99,0.528,1.87,1.771,1.87
		c0.771,0,1.31-0.374,1.475-1.111H253.146z M252.243,54.497c-0.044-0.891-0.715-1.606-1.639-1.606c-0.979,0-1.562,0.737-1.629,1.606
		H252.243z"/>
	<path fill="#3E9DD7" d="M258.062,54.024c-0.143-0.715-0.638-1.134-1.408-1.134c-1.353,0-1.771,1.067-1.771,2.223
		c0,1.045,0.474,2.079,1.662,2.079c0.901,0,1.44-0.527,1.562-1.386h0.957c-0.209,1.386-1.078,2.211-2.508,2.211
		c-1.738,0-2.662-1.21-2.662-2.904c0-1.705,0.88-3.048,2.684-3.048c1.287,0,2.321,0.605,2.454,1.959H258.062z"/>
	<path fill="#3E9DD7" d="M261.406,52.198h1.134v0.825h-1.134v3.531c0,0.429,0.121,0.506,0.704,0.506h0.43v0.825h-0.716
		c-0.968,0-1.353-0.198-1.353-1.243v-3.619h-0.969v-0.825h0.969v-1.705h0.935V52.198z"/>
	<path fill="#3E9DD7" d="M264.563,51.175h-0.936V50.03h0.936V51.175z M263.628,52.198h0.936v5.688h-0.936V52.198z"/>
	<path fill="#3E9DD7" d="M268.468,52.065c1.805,0,2.762,1.31,2.762,2.981c0,1.662-0.957,2.971-2.762,2.971
		c-1.804,0-2.761-1.309-2.761-2.971C265.707,53.375,266.664,52.065,268.468,52.065z M268.468,57.192c0.979,0,1.771-0.77,1.771-2.146
		c0-1.386-0.792-2.156-1.771-2.156c-0.979,0-1.771,0.771-1.771,2.156C266.696,56.423,267.489,57.192,268.468,57.192z"/>
	<path fill="#3E9DD7" d="M272.328,52.198h0.88V53.1h0.022c0.396-0.704,1.034-1.034,1.848-1.034c1.497,0,1.959,0.858,1.959,2.08v3.74
		h-0.936v-3.851c0-0.693-0.44-1.145-1.155-1.145c-1.133,0-1.683,0.76-1.683,1.782v3.213h-0.936V52.198z"/>
	<path fill="#3E9DD7" d="M278.444,52.198h0.88V53.1h0.022c0.396-0.704,1.034-1.034,1.848-1.034c1.497,0,1.959,0.858,1.959,2.08v3.74
		h-0.936v-3.851c0-0.693-0.44-1.145-1.155-1.145c-1.133,0-1.683,0.76-1.683,1.782v3.213h-0.936V52.198z"/>
	<path fill="#3E9DD7" d="M289.412,56.081c-0.253,1.255-1.155,1.937-2.432,1.937c-1.814,0-2.673-1.254-2.728-2.992
		c0-1.705,1.122-2.96,2.673-2.96c2.014,0,2.63,1.882,2.574,3.257h-4.258c-0.032,0.99,0.528,1.87,1.771,1.87
		c0.771,0,1.31-0.374,1.475-1.111H289.412z M288.51,54.497c-0.044-0.891-0.715-1.606-1.639-1.606c-0.979,0-1.562,0.737-1.629,1.606
		H288.51z"/>
	<path fill="#3E9DD7" d="M290.435,52.198h0.88v1.199h0.022c0.451-0.913,1.078-1.364,2.09-1.332v0.99c-1.507,0-2.057,0.858-2.057,2.3
		v2.53h-0.936V52.198z"/>
	<path fill="#3E9DD7" d="M297.243,50.03h0.936v7.855h-0.936V50.03z"/>
	<path fill="#3E9DD7" d="M304.481,56.081c-0.253,1.255-1.155,1.937-2.432,1.937c-1.814,0-2.673-1.254-2.728-2.992
		c0-1.705,1.122-2.96,2.673-2.96c2.014,0,2.63,1.882,2.574,3.257h-4.258c-0.032,0.99,0.528,1.87,1.771,1.87
		c0.771,0,1.31-0.374,1.475-1.111H304.481z M303.579,54.497c-0.044-0.891-0.715-1.606-1.639-1.606c-0.979,0-1.562,0.737-1.629,1.606
		H303.579z"/>
	<path fill="#3E9DD7" d="M308.595,52.198h0.88v0.836h0.022c0.418-0.639,1.056-0.969,1.837-0.969c0.693,0,1.331,0.275,1.562,0.969
		c0.385-0.605,1.056-0.969,1.782-0.969c1.133,0,1.893,0.474,1.893,1.65v4.17h-0.936v-3.729c0-0.704-0.188-1.266-1.101-1.266
		c-0.901,0-1.484,0.572-1.484,1.452v3.543h-0.936v-3.729c0-0.737-0.231-1.266-1.067-1.266c-1.111,0-1.518,1.023-1.518,1.452v3.543
		h-0.936V52.198z"/>
	<path fill="#3E9DD7" d="M320.431,52.065c1.805,0,2.762,1.31,2.762,2.981c0,1.662-0.957,2.971-2.762,2.971
		c-1.804,0-2.761-1.309-2.761-2.971C317.67,53.375,318.627,52.065,320.431,52.065z M320.431,57.192c0.979,0,1.771-0.77,1.771-2.146
		c0-1.386-0.792-2.156-1.771-2.156c-0.979,0-1.771,0.771-1.771,2.156C318.659,56.423,319.452,57.192,320.431,57.192z"/>
	<path fill="#3E9DD7" d="M329.374,57.886h-0.936v-0.771h-0.021c-0.309,0.628-1.034,0.902-1.815,0.902
		c-1.749,0-2.618-1.386-2.618-2.992s0.857-2.96,2.596-2.96c0.583,0,1.42,0.221,1.838,0.892h0.021V50.03h0.936V57.886z
		 M326.733,57.192c1.254,0,1.738-1.078,1.738-2.146c0-1.122-0.506-2.156-1.793-2.156c-1.276,0-1.706,1.09-1.706,2.201
		C324.973,56.158,325.523,57.192,326.733,57.192z"/>
	<path fill="#3E9DD7" d="M335.665,56.081c-0.253,1.255-1.155,1.937-2.432,1.937c-1.814,0-2.673-1.254-2.728-2.992
		c0-1.705,1.122-2.96,2.673-2.96c2.014,0,2.63,1.882,2.574,3.257h-4.258c-0.032,0.99,0.528,1.87,1.771,1.87
		c0.771,0,1.31-0.374,1.475-1.111H335.665z M334.763,54.497c-0.044-0.891-0.715-1.606-1.639-1.606c-0.979,0-1.562,0.737-1.629,1.606
		H334.763z"/>
	<path fill="#3E9DD7" d="M339.559,52.847c-0.077-1.584,0.857-2.761,2.508-2.761c1.364,0,2.442,0.792,2.442,2.244
		c0,1.375-0.924,2.068-1.892,2.673c-0.979,0.595-2.003,1.09-2.189,2.058h4.004v0.825h-5.094c0.154-1.849,1.09-2.509,2.189-3.19
		c1.32-0.814,1.991-1.298,1.991-2.376c0-0.848-0.682-1.408-1.507-1.408c-1.089,0-1.552,1.001-1.519,1.936H339.559z"/>
	<path fill="#3E9DD7" d="M349.942,58.612c0,1.012-0.539,1.452-1.364,1.452c-0.154,0-0.319-0.012-0.484-0.044v-0.804
		c0.132,0.022,0.253,0.022,0.386,0.022c0.406,0,0.527-0.198,0.527-0.781v-6.26h0.936V58.612z M349.942,51.175h-0.936V50.03h0.936
		V51.175z"/>
	<path fill="#3E9DD7" d="M353.847,52.065c1.805,0,2.762,1.31,2.762,2.981c0,1.662-0.957,2.971-2.762,2.971
		c-1.804,0-2.761-1.309-2.761-2.971C351.086,53.375,352.043,52.065,353.847,52.065z M353.847,57.192c0.979,0,1.771-0.77,1.771-2.146
		c0-1.386-0.792-2.156-1.771-2.156c-0.979,0-1.771,0.771-1.771,2.156C352.075,56.423,352.868,57.192,353.847,57.192z"/>
	<path fill="#3E9DD7" d="M362.416,57.886h-0.881v-0.902h-0.021c-0.396,0.704-1.034,1.034-1.849,1.034
		c-1.496,0-1.958-0.858-1.958-2.079v-3.74h0.936v3.851c0,0.692,0.439,1.144,1.154,1.144c1.134,0,1.684-0.759,1.684-1.782v-3.212
		h0.936V57.886z"/>
	<path fill="#3E9DD7" d="M368.675,56.081c-0.253,1.255-1.155,1.937-2.432,1.937c-1.814,0-2.673-1.254-2.728-2.992
		c0-1.705,1.122-2.96,2.673-2.96c2.014,0,2.63,1.882,2.574,3.257h-4.258c-0.032,0.99,0.528,1.87,1.771,1.87
		c0.771,0,1.31-0.374,1.475-1.111H368.675z M367.772,54.497c-0.044-0.891-0.715-1.606-1.639-1.606c-0.979,0-1.562,0.737-1.629,1.606
		H367.772z"/>
	<path fill="#3E9DD7" d="M374.439,57.886h-0.881v-0.902h-0.021c-0.396,0.704-1.034,1.034-1.849,1.034
		c-1.496,0-1.958-0.858-1.958-2.079v-3.74h0.936v3.851c0,0.692,0.439,1.144,1.154,1.144c1.134,0,1.684-0.759,1.684-1.782v-3.212
		h0.936V57.886z"/>
	<path fill="#3E9DD7" d="M375.813,52.198h0.88v1.199h0.022c0.451-0.913,1.078-1.364,2.09-1.332v0.99c-1.507,0-2.057,0.858-2.057,2.3
		v2.53h-0.936V52.198z"/>
	<path fill="#3E9DD7" d="M380.082,56.093c0.033,0.836,0.759,1.1,1.529,1.1c0.583,0,1.375-0.132,1.375-0.847
		c0-0.727-0.924-0.848-1.859-1.057c-0.924-0.209-1.859-0.517-1.859-1.605c0-1.145,1.134-1.618,2.123-1.618
		c1.255,0,2.256,0.396,2.333,1.783h-0.936c-0.065-0.727-0.704-0.958-1.32-0.958c-0.561,0-1.21,0.154-1.21,0.727
		c0,0.671,0.99,0.781,1.859,0.99c0.936,0.209,1.859,0.517,1.859,1.617c0,1.354-1.266,1.793-2.421,1.793
		c-1.275,0-2.354-0.517-2.409-1.925H380.082z"/>
	<path fill="#3E9DD7" d="M385.219,56.665h1.222v1.221h-1.222V56.665z"/>
</g>
<g>
	<path fill="#186D94" d="M143.799,21.871c0,0.502-0.413,0.897-0.898,0.897h-3.164c-0.485,0-0.898-0.396-0.898-0.897
		c0-0.505,0.414-0.9,0.898-0.9h0.648v-7.118l-2.715,3.649c-0.359,0.467-1.079,0.485-1.438,0.037l-3.236-3.884v7.315h0.665
		c0.503,0,0.898,0.396,0.898,0.9c0,0.502-0.395,0.897-0.898,0.897h-3.128c-0.503,0-0.898-0.396-0.898-0.897
		c0-0.505,0.396-0.9,0.898-0.9h0.665v-8.915h-0.665c-0.503,0-0.898-0.396-0.898-0.899c0-0.503,0.396-0.898,0.898-0.898h1.546
		c0.27,0,0.54,0.108,0.701,0.323l4.116,4.944l3.649-4.872c0.198-0.252,0.431-0.396,0.755-0.396h1.6c0.485,0,0.898,0.396,0.898,0.898
		c0,0.504-0.413,0.899-0.898,0.899h-0.719v8.915h0.719C143.386,20.971,143.799,21.366,143.799,21.871z"/>
	<path fill="#186D94" d="M151.312,9.646c8.97,0,8.97,13.645,0,13.645C142.342,23.291,142.342,9.646,151.312,9.646z M151.312,21.421
		c6.507,0,6.507-9.904,0-9.904C144.804,11.517,144.804,21.421,151.312,21.421z"/>
	<path fill="#186D94" d="M165.007,22.769c-1.51,0-3.775,0-5.285,0c-0.503,0-0.899-0.412-0.899-0.897c0-0.505,0.396-0.9,0.899-0.9
		h0.898v-8.969h-0.898c-0.503,0-0.899-0.413-0.899-0.918c0-0.485,0.396-0.898,0.899-0.898h5.285
		C173.24,10.186,173.24,22.769,165.007,22.769z M165.007,12.002h-2.588v8.969h2.571C170.886,20.971,170.868,12.002,165.007,12.002z"
		/>
	<path fill="#186D94" d="M184.132,20.108v1.708c0,0.359-0.198,0.646-0.485,0.81c-0.145,0.089-0.324,0.143-0.503,0.143h-9.923
		c-0.502,0-0.898-0.396-0.898-0.897c0-0.485,0.396-0.9,0.898-0.9h0.828v-3.612h-0.828c-0.502,0-0.898-0.413-0.898-0.915
		c0-0.487,0.396-0.901,0.898-0.901h0.828v-3.558h-0.828c-0.502,0-0.898-0.396-0.898-0.9c0-0.503,0.396-0.898,0.898-0.898h9.564
		c0.484,0,0.899,0.396,0.899,0.898v1.87c0,0.503-0.415,0.898-0.899,0.898c-0.503,0-0.917-0.396-0.917-0.898v-0.97h-6.022v3.558
		h4.098c0.486,0,0.899,0.414,0.899,0.901c0,0.502-0.413,0.915-0.899,0.915h-4.098v3.612h6.49v-0.862
		c0-0.504,0.396-0.899,0.898-0.899S184.132,19.604,184.132,20.108z"/>
	<path fill="#186D94" d="M196.406,21.871c0,0.502-0.413,0.897-0.898,0.897h-3.452c-0.503,0-0.917-0.396-0.917-0.897
		c0-0.485,0.413-0.9,0.917-0.9h0.827v-9.006h-0.827c-0.503,0-0.917-0.413-0.917-0.898c0-0.502,0.413-0.897,0.917-0.897
		c0.575,0,1.15,0,1.726,0c0.485,0,0.898,0.396,0.898,0.897v9.904h0.828C195.993,20.971,196.406,21.386,196.406,21.871z"/>
	<path fill="#186D94" d="M213.122,11.084v6.939c0,6.453-9.797,6.453-9.797,0c0-0.484,0.414-0.898,0.898-0.898
		c0.504,0,0.917,0.414,0.917,0.898c0,4.08,6.184,4.08,6.184,0v-6.039h-2.193c-0.503,0-0.898-0.396-0.898-0.9
		c0-0.485,0.396-0.898,0.898-0.898h3.094C212.727,10.186,213.122,10.599,213.122,11.084z"/>
	<path fill="#186D94" d="M221.389,9.646c8.971,0,8.971,13.645,0,13.645C212.419,23.291,212.419,9.646,221.389,9.646z
		 M221.389,21.421c6.508,0,6.508-9.904,0-9.904S214.881,21.421,221.389,21.421z"/>
	<path fill="#186D94" d="M242.402,11.084c0,0.487-0.396,0.9-0.898,0.9h-0.9v7.189c0,1.978-1.617,3.595-3.596,3.595h-3.163
		c-1.978,0-3.595-1.617-3.595-3.595v-7.189h-0.773c-0.486,0-0.898-0.413-0.898-0.9c0-0.503,0.412-0.898,0.898-0.898h3.451
		c0.504,0,0.917,0.396,0.917,0.898c0,0.487-0.413,0.9-0.917,0.9h-0.863v7.189c0,0.987,0.791,1.797,1.78,1.797h3.163
		c0.989,0,1.779-0.81,1.779-1.797v-7.189h-0.736c-0.503,0-0.917-0.413-0.917-0.9c0-0.503,0.414-0.898,0.917-0.898h3.453
		C242.006,10.186,242.402,10.581,242.402,11.084z"/>
	<path fill="#186D94" d="M255.396,20.108v1.708c0,0.359-0.199,0.646-0.484,0.81c-0.145,0.089-0.326,0.143-0.504,0.143h-9.924
		c-0.502,0-0.898-0.396-0.898-0.897c0-0.485,0.396-0.9,0.898-0.9h0.828v-3.612h-0.828c-0.502,0-0.898-0.413-0.898-0.915
		c0-0.487,0.396-0.901,0.898-0.901h0.828v-3.558h-0.828c-0.502,0-0.898-0.396-0.898-0.9c0-0.503,0.396-0.898,0.898-0.898h9.562
		c0.484,0,0.898,0.396,0.898,0.898v1.87c0,0.503-0.414,0.898-0.898,0.898c-0.502,0-0.916-0.396-0.916-0.898v-0.97h-6.021v3.558
		h4.098c0.486,0,0.9,0.414,0.9,0.901c0,0.502-0.414,0.915-0.9,0.915h-4.098v3.612h6.49v-0.862c0-0.504,0.395-0.899,0.898-0.899
		C255,19.209,255.396,19.604,255.396,20.108z"/>
	<path fill="#186D94" d="M270.332,11.084c0,0.487-0.396,0.9-0.898,0.9h-0.898v7.189c0,1.978-1.619,3.595-3.596,3.595h-3.164
		c-1.979,0-3.596-1.617-3.596-3.595v-7.189h-0.771c-0.486,0-0.9-0.413-0.9-0.9c0-0.503,0.414-0.898,0.9-0.898h3.449
		c0.504,0,0.918,0.396,0.918,0.898c0,0.487-0.414,0.9-0.918,0.9h-0.861v7.189c0,0.987,0.791,1.797,1.779,1.797h3.164
		c0.986,0,1.779-0.81,1.779-1.797v-7.189h-0.738c-0.502,0-0.916-0.413-0.916-0.9c0-0.503,0.414-0.898,0.916-0.898h3.453
		C269.936,10.186,270.332,10.581,270.332,11.084z"/>
	<path fill="#186D94" d="M284.424,21.871c0,0.502-0.396,0.897-0.898,0.897c-1.15,0-2.301,0-3.453,0
		c-0.502,0-0.898-0.396-0.898-0.897c0-0.485,0.396-0.9,0.898-0.9h0.162l-2.588-3.667h-2.75v3.649h0.826c0.484,0,0.9,0.413,0.9,0.918
		c0,0.485-0.416,0.897-0.9,0.897h-3.471c-0.484,0-0.896-0.412-0.896-0.897c0-0.505,0.412-0.918,0.896-0.918h0.828v-3.649h-0.828
		c-0.484,0-0.896-0.413-0.896-0.898c0-0.502,0.412-0.898,0.896-0.898h0.828v-3.576h-0.828c-0.484,0-0.896-0.397-0.896-0.899
		c0-0.504,0.412-0.9,0.896-0.9h7.336c4.566,0,4.799,6.832,0.27,7.156l2.588,3.684h1.08
		C284.027,20.971,284.424,21.386,284.424,21.871z M279.588,15.507c2.355,0,2.355-3.576,0-3.576h-4.691v3.576H279.588z"/>
</g>
</svg>
