<?xml version="1.0" encoding="utf-8"?>
<!-- Generator: Adobe Illustrator 15.1.0, SVG Export Plug-In . SVG Version: 6.00 Build 0)  -->
<!DOCTYPE svg PUBLIC "-//W3C//DTD SVG 1.1//EN" "http://www.w3.org/Graphics/SVG/1.1/DTD/svg11.dtd">
<svg version="1.1" id="Calque_1" xmlns="http://www.w3.org/2000/svg" xmlns:xlink="http://www.w3.org/1999/xlink" x="0px" y="0px"
	 width="800px" height="600px" viewBox="0 0 800 600" enable-background="new 0 0 800 600" xml:space="preserve">
<rect fill="#48341A" width="800" height="600"/>
<g>
	<polygon fill="#DE9D7E" points="464.342,569.971 477.184,521.641 565.479,450.119 587.149,412.353 620.06,374.604 645.267,342.487 
		678.5,325.62 678.5,310.369 657.708,299.935 615.605,311.172 593.351,325.62 558.946,360.135 528.5,370.569 512.475,358.529 
		503.658,333.646 499.651,308.764 504.472,275.854 506.078,250.169 522.134,171.507 526.949,109.702 526.146,67.751 517.317,55.5 
		498.856,55.5 487.619,60.929 477.184,98.961 472.368,140.451 459.525,196.464 452.703,235.758 449.09,247.779 442.499,252.586 
		433.5,251.774 433.5,214.049 437.684,143.414 433.755,46.291 424.165,26.224 411.344,19 394.498,23.816 385.492,39.067 
		380.5,143.414 380.5,239.734 376.668,249.366 369.535,248.564 362.356,241.34 357.562,206.022 342.324,141.006 336.711,97.662 
		327.884,60.739 319.057,51.91 304.609,50.304 291.767,59.134 288.556,84.016 292.303,113.447 297.654,146.625 299.259,195.319 
		313.173,255.251 315.849,271.84 314.243,280.938 304.611,283.077 298.19,275.05 272.504,222.074 253.775,165.887 241.468,141.807 
		225.949,134.85 211.5,142.342 211.5,161.073 216.987,194.782 226.82,221.536 230.131,241.336 252.656,295.382 260.708,332.841 
		263.396,365.482 269.823,404.011 279.994,468.759 288.557,494.444 297.119,524.945 275.159,992.557 493.154,992.557 	"/>
	<polygon fill="#FBB03B" points="288,595 472,595 490.225,845 274.775,845 	"/>
</g>
<g>
	<rect x="95" y="22" opacity="0.7" fill="#FFFFFF" width="295" height="183"/>
	<g>
		<path fill="#48341A" d="M278.439,56.905V67.76c0,2.93-2.496,5.427-5.536,5.427c-2.93,0-5.427-2.497-5.427-5.427v-5.862h-38.533
			v21.166h24.64c3.039,0,5.427,2.388,5.427,5.427c0,3.04-2.388,5.428-5.427,5.428h-24.64v22.143h4.993
			c3.039,0,5.428,2.387,5.428,5.427c0,2.93-2.389,5.427-5.428,5.427h-20.84c-3.04,0-5.536-2.497-5.536-5.427
			c0-3.04,2.496-5.427,5.536-5.427h4.992V93.919h-4.992c-3.04,0-5.428-2.389-5.428-5.428c0-3.039,2.388-5.427,5.428-5.427h4.992
			V61.898h-4.992c-3.04,0-5.428-2.497-5.428-5.535c0-2.932,2.388-5.428,5.428-5.428h59.59
			C276.052,50.935,278.439,53.648,278.439,56.905z"/>
	</g>
	<g>
		<path fill="#48341A" d="M173.087,179.318c-16.486,0-16.486-25.197,0-25.197h9.107c0.972,0,1.8,0.828,1.8,1.8v3.744
			c0,1.008-0.828,1.835-1.8,1.835c-1.008,0-1.8-0.828-1.8-1.835v-1.908h-7.307c-11.734,0-11.734,17.926,0,17.926h7.307v-7.271
			h-5.615c-0.972,0-1.8-0.792-1.8-1.8s0.828-1.8,1.8-1.8h7.415c0.972,0,1.8,0.792,1.8,1.8v10.907c0,0.972-0.828,1.8-1.8,1.8H173.087
			z"/>
		<path fill="#48341A" d="M215.06,177.518c0,0.972-0.792,1.8-1.8,1.8h-6.479c-0.972,0-1.8-0.828-1.8-1.8
			c0-1.008,0.828-1.836,1.8-1.836h0.792l-1.908-4.211h-10.15l-1.908,4.211h0.792c0.972,0,1.8,0.828,1.8,1.836
			c0,0.972-0.828,1.8-1.8,1.8h-6.479c-1.008,0-1.8-0.828-1.8-1.8c0-1.008,0.792-1.836,1.8-1.836h1.728l1.908-4.211h-0.18
			c-1.008,0-1.8-0.792-1.8-1.8c0-0.972,0.792-1.8,1.8-1.8h1.8l4.571-10.258h-0.396c-1.008,0-1.8-0.792-1.8-1.8
			c0-0.972,0.792-1.8,1.8-1.8h6.479c1.008,0,1.8,0.828,1.8,1.8c0,1.008-0.792,1.8-1.8,1.8h-0.396l4.571,10.258h1.8
			c1.008,0,1.8,0.828,1.8,1.8c0,1.008-0.792,1.8-1.8,1.8h-0.18l1.908,4.211h1.728C214.268,175.682,215.06,176.51,215.06,177.518z
			 M204.045,167.871l-3.456-7.811l-3.456,7.811H204.045z"/>
		<path fill="#48341A" d="M243.32,177.518c0,1.008-0.792,1.8-1.8,1.8c-2.304,0-4.607,0-6.911,0c-1.008,0-1.8-0.792-1.8-1.8
			c0-0.972,0.792-1.8,1.8-1.8h0.324l-5.183-7.343h-5.507v7.307h1.656c0.972,0,1.8,0.828,1.8,1.836c0,0.972-0.828,1.8-1.8,1.8h-6.947
			c-0.972,0-1.8-0.828-1.8-1.8c0-1.008,0.828-1.836,1.8-1.836h1.656v-7.307h-1.656c-0.972,0-1.8-0.828-1.8-1.8
			c0-1.008,0.828-1.8,1.8-1.8h1.656v-7.163h-1.656c-0.972,0-1.8-0.792-1.8-1.8s0.828-1.8,1.8-1.8h14.687
			c9.143,0,9.61,13.678,0.54,14.326l5.184,7.379h2.16C242.528,175.718,243.32,176.546,243.32,177.518z M233.637,164.776
			c4.715,0,4.715-7.163,0-7.163h-9.395v7.163H233.637z"/>
		<path fill="#48341A" d="M258.189,179.318c-3.023,0-7.559,0-10.582,0c-1.009,0-1.801-0.828-1.801-1.8c0-1.008,0.792-1.8,1.801-1.8
			h1.799v-17.962h-1.799c-1.009,0-1.801-0.828-1.801-1.835c0-0.972,0.792-1.8,1.801-1.8h10.582
			C274.676,154.121,274.676,179.318,258.189,179.318z M258.189,157.756h-5.184v17.962h5.147
			C269.96,175.718,269.924,157.756,258.189,157.756z"/>
		<path fill="#48341A" d="M296.492,173.991v3.419c0,0.72-0.396,1.296-0.973,1.62c-0.287,0.18-0.647,0.288-1.008,0.288h-19.869
			c-1.008,0-1.8-0.792-1.8-1.8c0-0.972,0.792-1.8,1.8-1.8h1.656v-7.235h-1.656c-1.008,0-1.8-0.828-1.8-1.836
			c0-0.972,0.792-1.8,1.8-1.8h1.656v-7.127h-1.656c-1.008,0-1.8-0.792-1.8-1.8s0.792-1.8,1.8-1.8h19.15
			c0.971,0,1.799,0.792,1.799,1.8v3.744c0,1.008-0.828,1.8-1.799,1.8c-1.008,0-1.836-0.792-1.836-1.8v-1.944h-12.059v7.127h8.207
			c0.972,0,1.799,0.828,1.799,1.8c0,1.008-0.827,1.836-1.799,1.836h-8.207v7.235h12.994v-1.728c0-1.008,0.792-1.8,1.8-1.8
			S296.492,172.983,296.492,173.991z"/>
		<path fill="#48341A" d="M325.291,177.518c0,1.008-0.791,1.8-1.799,1.8c-2.305,0-4.607,0-6.912,0c-1.008,0-1.799-0.792-1.799-1.8
			c0-0.972,0.791-1.8,1.799-1.8h0.324l-5.184-7.343h-5.507v7.307h1.655c0.973,0,1.801,0.828,1.801,1.836
			c0,0.972-0.828,1.8-1.801,1.8h-6.947c-0.971,0-1.799-0.828-1.799-1.8c0-1.008,0.828-1.836,1.799-1.836h1.656v-7.307h-1.656
			c-0.971,0-1.799-0.828-1.799-1.8c0-1.008,0.828-1.8,1.799-1.8h1.656v-7.163h-1.656c-0.971,0-1.799-0.792-1.799-1.8
			s0.828-1.8,1.799-1.8h14.688c9.143,0,9.609,13.678,0.539,14.326l5.184,7.379h2.16C324.5,175.718,325.291,176.546,325.291,177.518z
			 M315.609,164.776c4.715,0,4.715-7.163,0-7.163h-9.396v7.163H315.609z"/>
	</g>
</g>
<g>
	<rect x="410" y="22" opacity="0.7" fill="#FFFFFF" width="295" height="183"/>
	<g>
		<path fill="#48341A" d="M587.342,56.88v41.568c0,38.653-58.684,38.653-58.684,0c0-2.911,2.471-5.388,5.383-5.388
			c3.016,0,5.488,2.477,5.488,5.388c0,24.44,37.044,24.44,37.044,0V62.263h-13.134c-3.016,0-5.384-2.367-5.384-5.383
			c0-2.906,2.368-5.383,5.384-5.383h18.518C584.974,51.497,587.342,53.974,587.342,56.88z"/>
	</g>
	<g>
		<path fill="#48341A" d="M515.393,156.224v13.529c0,12.58-19.101,12.58-19.101,0c0-0.948,0.805-1.754,1.753-1.754
			c0.98,0,1.786,0.806,1.786,1.754c0,7.955,12.057,7.955,12.057,0v-11.777h-4.275c-0.981,0-1.751-0.771-1.751-1.752
			c0-0.946,0.77-1.752,1.751-1.752h6.027C514.621,154.472,515.393,155.278,515.393,156.224z"/>
		<path fill="#48341A" d="M541.512,173.818v3.329c0,0.7-0.386,1.261-0.944,1.578c-0.28,0.174-0.631,0.279-0.982,0.279H520.24
			c-0.981,0-1.753-0.771-1.753-1.752c0-0.946,0.771-1.752,1.753-1.752h1.612v-7.044h-1.612c-0.981,0-1.753-0.806-1.753-1.788
			c0-0.946,0.771-1.752,1.753-1.752h1.612v-6.94h-1.612c-0.981,0-1.753-0.771-1.753-1.752c0-0.98,0.771-1.752,1.753-1.752h18.643
			c0.948,0,1.753,0.772,1.753,1.752v3.646c0,0.981-0.805,1.752-1.753,1.752c-0.981,0-1.786-0.771-1.786-1.752v-1.894h-11.739v6.94
			h7.99c0.943,0,1.751,0.806,1.751,1.752c0,0.981-0.808,1.788-1.751,1.788h-7.99v7.044h12.65v-1.682c0-0.981,0.77-1.752,1.751-1.752
			C540.741,172.066,541.512,172.837,541.512,173.818z"/>
		<path fill="#48341A" d="M566.587,156.224v3.715c0,0.982-0.773,1.752-1.752,1.752c-0.947,0-1.755-0.771-1.755-1.752v-1.963h-6.308
			V175.5h1.612c0.981,0,1.753,0.806,1.753,1.752c0,0.981-0.771,1.752-1.753,1.752h-6.728c-0.982,0-1.753-0.771-1.753-1.752
			c0-0.946,0.771-1.752,1.753-1.752h1.611v-17.524h-6.31v1.963c0,0.982-0.805,1.752-1.752,1.752c-0.981,0-1.753-0.771-1.753-1.752
			v-3.715c0-0.98,0.771-1.752,1.753-1.752h19.628C565.813,154.472,566.587,155.244,566.587,156.224z"/>
		<path fill="#48341A" d="M591.656,173.818v3.329c0,0.7-0.385,1.261-0.944,1.578c-0.28,0.174-0.631,0.279-0.982,0.279h-19.345
			c-0.981,0-1.751-0.771-1.751-1.752c0-0.946,0.77-1.752,1.751-1.752h1.612v-7.044h-1.612c-0.981,0-1.751-0.806-1.751-1.788
			c0-0.946,0.77-1.752,1.751-1.752h1.612v-6.94h-1.612c-0.981,0-1.751-0.771-1.751-1.752c0-0.98,0.77-1.752,1.751-1.752h18.644
			c0.947,0,1.752,0.772,1.752,1.752v3.646c0,0.981-0.805,1.752-1.752,1.752c-0.981,0-1.786-0.771-1.786-1.752v-1.894h-11.74v6.94
			h7.99c0.944,0,1.752,0.806,1.752,1.752c0,0.981-0.808,1.788-1.752,1.788h-7.99v7.044h12.65v-1.682c0-0.981,0.77-1.752,1.752-1.752
			C590.886,172.066,591.656,172.837,591.656,173.818z"/>
		<path fill="#48341A" d="M619.708,177.253c0,0.981-0.77,1.752-1.753,1.752c-2.242,0-4.484,0-6.728,0
			c-0.982,0-1.753-0.771-1.753-1.752c0-0.946,0.771-1.752,1.753-1.752h0.316l-5.049-7.15h-5.362v7.114h1.612
			c0.948,0,1.753,0.806,1.753,1.788c0,0.946-0.805,1.752-1.753,1.752h-6.763c-0.947,0-1.752-0.806-1.752-1.752
			c0-0.982,0.805-1.788,1.752-1.788h1.612v-7.114h-1.612c-0.947,0-1.752-0.806-1.752-1.752c0-0.982,0.805-1.752,1.752-1.752h1.612
			v-6.975h-1.612c-0.947,0-1.752-0.772-1.752-1.752c0-0.982,0.805-1.752,1.752-1.752h14.297c8.903,0,9.36,13.316,0.528,13.947
			l5.045,7.186h2.103C618.938,175.5,619.708,176.307,619.708,177.253z M610.279,164.847c4.592,0,4.592-6.975,0-6.975h-9.146v6.975
			H610.279z"/>
	</g>
</g>
</svg>
