<?xml version="1.0" encoding="utf-8"?>
<!-- Generator: Adobe Illustrator 15.1.0, SVG Export Plug-In . SVG Version: 6.00 Build 0)  -->
<!DOCTYPE svg PUBLIC "-//W3C//DTD SVG 1.1//EN" "http://www.w3.org/Graphics/SVG/1.1/DTD/svg11.dtd">
<svg version="1.1" id="Calque_1" xmlns="http://www.w3.org/2000/svg" xmlns:xlink="http://www.w3.org/1999/xlink" x="0px" y="0px"
	 width="800px" height="600px" viewBox="0 0 800 600" enable-background="new 0 0 800 600" xml:space="preserve">
<g>
	<rect fill="#2B2B37" width="800" height="600"/>
	<polygon fill="#666884" points="657.263,274.579 638.314,300 664.631,316.685 687.788,278.79 	"/>
	<polygon fill="#575971" points="638.314,300 663.052,285.5 687.788,278.79 664.631,316.685 	"/>
	<g>
		<g>
			<polygon fill="#23242E" points="45.749,330.883 33.434,327.662 28.178,336.53 17.675,380.543 21.437,413.614 41.582,446.515 
				63.665,461.678 96.321,472.58 123.794,472.311 133.423,466.415 129.785,456.225 124.995,448.401 107.503,426.013 83.281,396.299 
				60.538,353.265 			"/>
			<polygon fill="#23242E" points="68.471,342.894 84.313,358.57 105.375,382.771 125.212,415.17 137.004,434.429 160.183,441.199 
				173.896,425.078 176.699,396.884 168.274,366.737 139.471,335.825 116.464,323.435 84.572,310.969 59.553,311.671 
				48.348,323.219 55.718,335.255 			"/>
		</g>
	</g>
	<g>
		<g>
			<polygon fill="#23242E" points="44.4,84 32.085,80.78 26.829,89.648 16.326,133.661 20.088,166.732 40.233,199.633 
				62.315,214.795 94.972,225.697 122.445,225.429 132.074,219.533 128.436,209.343 123.645,201.52 106.154,179.13 81.932,149.417 
				59.189,106.383 			"/>
			<polygon fill="#23242E" points="67.122,96.012 82.964,111.688 104.026,135.889 123.863,168.288 135.655,187.546 158.833,194.317 
				172.548,178.196 175.35,150.001 166.925,119.855 138.122,88.943 115.115,76.553 83.223,64.087 58.204,64.789 46.999,76.337 
				54.369,88.373 			"/>
		</g>
	</g>
	<g>
		<g>
			<polygon fill="#23242E" points="287.235,445.555 274.92,442.335 269.664,451.202 259.161,495.215 262.923,528.286 
				283.068,561.188 305.15,576.35 337.807,587.252 365.28,586.982 374.909,581.087 371.27,570.896 366.48,563.073 348.989,540.685 
				324.767,510.971 302.024,467.938 			"/>
			<polygon fill="#23242E" points="309.957,457.565 325.799,473.242 346.86,497.442 366.698,529.842 378.49,549.101 
				401.668,555.871 415.383,539.75 418.185,511.556 409.76,481.409 380.957,450.498 357.95,438.106 326.058,425.641 
				301.039,426.344 289.833,437.891 297.203,449.927 			"/>
		</g>
	</g>
	<g>
		<polygon fill="#666884" points="219.314,194 183.525,268.658 243.525,325.461 327.736,256.046 303.525,194 		"/>
		<polygon fill="#575971" points="183.525,268.658 243.525,325.461 327.736,256.046 255.631,245.421 		"/>
	</g>
	<polygon fill="#323341" points="352.246,600 327.065,587 297.999,580 273.999,580 243.999,600 	"/>
	<polygon fill="#505167" points="529.841,563.471 542.683,515.141 630.978,443.619 652.648,405.853 685.559,368.104 
		710.766,335.987 743.999,319.12 743.999,303.869 723.207,293.435 681.104,304.672 658.85,319.12 624.445,353.635 593.999,364.069 
		577.974,352.029 569.157,327.146 565.15,302.264 569.971,269.354 571.577,243.669 587.633,165.007 592.448,103.202 591.646,61.251 
		582.816,49 564.355,49 553.118,54.429 542.683,92.461 537.867,133.951 525.024,189.964 518.202,229.258 514.589,241.279 
		507.998,246.086 498.999,245.274 498.999,207.549 503.183,136.914 499.254,39.791 489.664,19.724 476.843,12.5 459.997,17.316 
		450.991,32.567 445.999,136.914 445.999,233.234 442.167,242.866 435.034,242.064 427.855,234.84 423.062,199.522 407.823,134.506 
		402.21,91.162 393.383,54.239 384.556,45.41 370.108,43.804 357.266,52.634 354.055,77.516 357.802,106.947 363.153,140.125 
		364.758,188.819 378.672,248.751 381.348,265.34 379.742,274.438 370.11,276.577 363.689,268.55 338.003,215.574 319.274,159.387 
		306.967,135.307 291.448,128.35 276.999,135.842 276.999,154.573 282.486,188.282 292.319,215.036 295.63,234.836 318.155,288.882 
		326.207,326.341 328.895,358.982 335.322,397.511 345.493,462.259 354.056,487.944 362.618,518.445 364.782,600 531.529,600 	"/>
</g>
</svg>
