<?xml version="1.0" encoding="utf-8"?>
<!-- Generator: Adobe Illustrator 15.1.0, SVG Export Plug-In . SVG Version: 6.00 Build 0)  -->
<!DOCTYPE svg PUBLIC "-//W3C//DTD SVG 1.1//EN" "http://www.w3.org/Graphics/SVG/1.1/DTD/svg11.dtd">
<svg version="1.1" id="Calque_1" xmlns="http://www.w3.org/2000/svg" xmlns:xlink="http://www.w3.org/1999/xlink" x="0px" y="0px"
	 width="202.635px" height="76px" viewBox="0 0 202.635 76" enable-background="new 0 0 202.635 76" xml:space="preserve">
<g>
	<g>
		<rect opacity="0.9" fill="#FFFFFF" width="202.635" height="76"/>
		<g enable-background="new    ">
			<path fill="#3E9DD7" d="M48.818,59.443c0,0.634-0.52,1.131-1.13,1.131h-4.342c-0.633,0-1.153-0.497-1.153-1.131
				c0-0.61,0.52-1.131,1.153-1.131h1.04v-11.33h-1.04c-0.633,0-1.153-0.521-1.153-1.131c0-0.633,0.52-1.131,1.153-1.131
				c0.724,0,1.447,0,2.171,0c0.61,0,1.13,0.498,1.13,1.131v12.461h1.041C48.298,58.312,48.818,58.833,48.818,59.443z"/>
			<path fill="#3E9DD7" d="M69.852,45.875v8.729c0,8.119-12.324,8.119-12.324,0c0-0.609,0.52-1.131,1.131-1.131
				c0.633,0,1.153,0.521,1.153,1.131c0,5.133,7.779,5.133,7.779,0v-7.599h-2.759c-0.633,0-1.13-0.497-1.13-1.131
				c0-0.61,0.497-1.13,1.13-1.13h3.89C69.355,44.745,69.852,45.266,69.852,45.875z"/>
			<path fill="#3E9DD7" d="M80.416,44.066c11.284,0,11.284,17.164,0,17.164S69.132,44.066,80.416,44.066z M80.416,58.878
				c8.186,0,8.186-12.46,0-12.46S72.23,58.878,80.416,58.878z"/>
			<path fill="#3E9DD7" d="M106.854,45.875c0,0.611-0.496,1.131-1.131,1.131h-1.131v9.046c0,2.487-2.035,4.522-4.522,4.522h-3.98
				c-2.487,0-4.523-2.035-4.523-4.522v-9.046h-0.972c-0.61,0-1.131-0.52-1.131-1.131c0-0.633,0.521-1.13,1.131-1.13h4.342
				c0.633,0,1.153,0.497,1.153,1.13c0,0.611-0.52,1.131-1.153,1.131h-1.085v9.046c0,1.243,0.995,2.261,2.239,2.261h3.98
				c1.244,0,2.238-1.018,2.238-2.261v-9.046h-0.927c-0.633,0-1.153-0.52-1.153-1.131c0-0.633,0.52-1.13,1.153-1.13h4.343
				C106.358,44.745,106.854,45.242,106.854,45.875z"/>
			<path fill="#3E9DD7" d="M123.21,57.229v2.147c0,0.452-0.248,0.813-0.609,1.019c-0.182,0.112-0.408,0.181-0.635,0.181h-12.482
				c-0.633,0-1.131-0.497-1.131-1.132c0-0.609,0.498-1.131,1.131-1.131h1.041v-4.545h-1.041c-0.633,0-1.131-0.521-1.131-1.152
				c0-0.61,0.498-1.131,1.131-1.131h1.041v-4.479h-1.041c-0.633,0-1.131-0.497-1.131-1.131c0-0.633,0.498-1.13,1.131-1.13h12.031
				c0.609,0,1.131,0.497,1.131,1.13v2.354c0,0.633-0.521,1.129-1.131,1.129c-0.634,0-1.154-0.496-1.154-1.129v-1.223h-7.574v4.479
				h5.156c0.609,0,1.129,0.521,1.129,1.131c0,0.633-0.52,1.152-1.129,1.152h-5.156v4.545h8.163v-1.084
				c0-0.635,0.497-1.131,1.131-1.131C122.713,56.098,123.21,56.594,123.21,57.229z"/>
			<path fill="#3E9DD7" d="M142.007,45.875c0,0.611-0.498,1.131-1.131,1.131h-1.131v9.046c0,2.487-2.035,4.522-4.523,4.522h-3.979
				c-2.487,0-4.521-2.035-4.521-4.522v-9.046h-0.974c-0.61,0-1.131-0.52-1.131-1.131c0-0.633,0.521-1.13,1.131-1.13h4.342
				c0.634,0,1.153,0.497,1.153,1.13c0,0.611-0.521,1.131-1.153,1.131h-1.086v9.046c0,1.243,0.996,2.261,2.239,2.261h3.979
				c1.244,0,2.239-1.018,2.239-2.261v-9.046h-0.927c-0.635,0-1.154-0.52-1.154-1.131c0-0.633,0.521-1.13,1.154-1.13h4.342
				C141.509,44.745,142.007,45.242,142.007,45.875z"/>
			<path fill="#3E9DD7" d="M159.739,59.443c0,0.634-0.497,1.131-1.131,1.131c-1.446,0-2.895,0-4.342,0
				c-0.634,0-1.131-0.497-1.131-1.131c0-0.61,0.497-1.131,1.131-1.131h0.203l-3.257-4.613h-3.459v4.591h1.04
				c0.609,0,1.131,0.521,1.131,1.153c0,0.609-0.521,1.131-1.131,1.131h-4.363c-0.611,0-1.132-0.521-1.132-1.131
				c0-0.633,0.521-1.153,1.132-1.153h1.039v-4.591h-1.039c-0.611,0-1.132-0.52-1.132-1.131c0-0.633,0.521-1.131,1.132-1.131h1.039
				v-4.5h-1.039c-0.611,0-1.132-0.498-1.132-1.131s0.521-1.131,1.132-1.131h9.227c5.744,0,6.037,8.594,0.339,9l3.257,4.637h1.355
				C159.242,58.312,159.739,58.833,159.739,59.443z M153.657,51.438c2.962,0,2.962-4.5,0-4.5h-5.902v4.5H153.657z"/>
		</g>
		<g enable-background="new    ">
			<path fill="#F29222" d="M111.507,13.065v3.027c0,0.817-0.695,1.514-1.543,1.514c-0.818,0-1.514-0.696-1.514-1.514v-1.635H97.703
				v5.903h6.873c0.848,0,1.514,0.666,1.514,1.514s-0.666,1.514-1.514,1.514h-6.873v6.176h1.393c0.848,0,1.514,0.666,1.514,1.514
				c0,0.817-0.666,1.514-1.514,1.514h-5.812c-0.848,0-1.544-0.696-1.544-1.514c0-0.848,0.696-1.514,1.544-1.514h1.393v-6.176h-1.393
				c-0.848,0-1.514-0.666-1.514-1.514s0.666-1.514,1.514-1.514h1.393v-5.903h-1.393c-0.848,0-1.514-0.696-1.514-1.544
				c0-0.817,0.666-1.514,1.514-1.514h16.621C110.841,11.4,111.507,12.157,111.507,13.065z"/>
		</g>
	</g>
</g>
</svg>
