<?xml version="1.0" encoding="utf-8"?>
<!-- Generator: Adobe Illustrator 15.1.0, SVG Export Plug-In . SVG Version: 6.00 Build 0)  -->
<!DOCTYPE svg PUBLIC "-//W3C//DTD SVG 1.1//EN" "http://www.w3.org/Graphics/SVG/1.1/DTD/svg11.dtd">
<svg version="1.1" id="Calque_1" xmlns="http://www.w3.org/2000/svg" xmlns:xlink="http://www.w3.org/1999/xlink" x="0px" y="0px"
	 width="201.803px" height="76px" viewBox="0 0 201.803 76" enable-background="new 0 0 201.803 76" xml:space="preserve">
<rect x="0" opacity="0.65" fill="#FFFFFF" enable-background="new    " width="201.803" height="76"/>
<path fill="#3E9DD7" d="M30.346,60.574c-0.611,0-1.131-0.497-1.131-1.131v-3.075c0-2.442,1.221-3.641,3.686-3.641h6.151
	c3.958,0,3.708-5.45,0.678-5.45h-5.269c-1.244,0-2.261,0.995-2.261,2.239c0,0.633-0.498,1.13-1.13,1.13
	c-0.611,0-1.131-0.497-1.131-1.13v-3.573c0-1.492,2.216-1.425,2.216-0.091c0.52-0.633,1.515-0.837,2.306-0.837h5.269
	c5.879,0,6.422,9.973-0.678,9.973h-6.151c-1.221,0-1.425,0.271-1.425,1.538v1.786h10.402v-0.61c0-1.492,2.261-1.492,2.261,0v1.741
	c0,0.634-0.498,1.131-1.13,1.131H30.346z"/>
<path fill="#3E9DD7" d="M65.334,45.875v8.729c0,8.118-12.324,8.118-12.324,0c0-0.61,0.52-1.131,1.131-1.131
	c0.633,0,1.153,0.521,1.153,1.131c0,5.133,7.779,5.133,7.779,0v-7.599h-2.759c-0.633,0-1.13-0.497-1.13-1.131
	c0-0.61,0.497-1.13,1.13-1.13h3.89C64.837,44.745,65.334,45.265,65.334,45.875z"/>
<path fill="#F29222" d="M109.148,12.925v11.681c0,10.864-16.492,10.864-16.492,0c0-0.816,0.696-1.513,1.514-1.513
	c0.847,0,1.543,0.697,1.543,1.513c0,6.869,10.409,6.869,10.409,0V14.438h-3.691c-0.848,0-1.513-0.665-1.513-1.513
	c0-0.817,0.665-1.512,1.513-1.512h5.205C108.482,11.413,109.148,12.108,109.148,12.925z"/>
<path fill="#3E9DD7" d="M75.898,44.066c11.284,0,11.284,17.164,0,17.164S64.614,44.066,75.898,44.066z M75.898,58.878
	c8.186,0,8.186-12.46,0-12.46S67.712,58.878,75.898,58.878z"/>
<path fill="#3E9DD7" d="M102.338,45.875c0,0.611-0.497,1.131-1.131,1.131h-1.131v9.046c0,2.487-2.035,4.522-4.522,4.522h-3.98
	c-2.488,0-4.523-2.035-4.523-4.522v-9.046h-0.972c-0.611,0-1.131-0.52-1.131-1.131c0-0.633,0.52-1.13,1.131-1.13h4.342
	c0.633,0,1.153,0.497,1.153,1.13c0,0.611-0.52,1.131-1.153,1.131h-1.085v9.046c0,1.243,0.995,2.261,2.239,2.261h3.98
	c1.244,0,2.239-1.018,2.239-2.261v-9.046h-0.927c-0.633,0-1.153-0.52-1.153-1.131c0-0.633,0.52-1.13,1.153-1.13h4.342
	C101.841,44.745,102.338,45.242,102.338,45.875z"/>
<path fill="#3E9DD7" d="M118.693,57.228v2.148c0,0.452-0.249,0.813-0.611,1.018c-0.181,0.113-0.406,0.181-0.633,0.181h-12.482
	c-0.633,0-1.131-0.497-1.131-1.131c0-0.61,0.498-1.131,1.131-1.131h1.04v-4.545h-1.04c-0.633,0-1.131-0.521-1.131-1.153
	c0-0.61,0.498-1.131,1.131-1.131h1.04v-4.478h-1.04c-0.633,0-1.131-0.497-1.131-1.131c0-0.633,0.498-1.13,1.131-1.13h12.03
	c0.61,0,1.131,0.497,1.131,1.13v2.353c0,0.633-0.521,1.13-1.131,1.13c-0.634,0-1.153-0.497-1.153-1.13v-1.222h-7.576v4.478h5.156
	c0.611,0,1.131,0.521,1.131,1.131c0,0.633-0.52,1.153-1.131,1.153h-5.156v4.545h8.164v-1.085c0-0.634,0.498-1.131,1.131-1.131
	S118.693,56.594,118.693,57.228z"/>
<path fill="#3E9DD7" d="M137.489,45.875c0,0.611-0.497,1.131-1.131,1.131h-1.131v9.046c0,2.487-2.035,4.522-4.522,4.522h-3.98
	c-2.487,0-4.522-2.035-4.522-4.522v-9.046h-0.972c-0.611,0-1.131-0.52-1.131-1.131c0-0.633,0.52-1.13,1.131-1.13h4.342
	c0.633,0,1.152,0.497,1.152,1.13c0,0.611-0.52,1.131-1.152,1.131h-1.086v9.046c0,1.243,0.995,2.261,2.238,2.261h3.98
	c1.244,0,2.238-1.018,2.238-2.261v-9.046h-0.927c-0.634,0-1.153-0.52-1.153-1.131c0-0.633,0.52-1.13,1.153-1.13h4.342
	C136.991,44.745,137.489,45.242,137.489,45.875z"/>
<path fill="#3E9DD7" d="M155.222,59.443c0,0.634-0.497,1.131-1.13,1.131c-1.447,0-2.895,0-4.342,0c-0.634,0-1.131-0.497-1.131-1.131
	c0-0.61,0.497-1.131,1.131-1.131h0.203l-3.257-4.613h-3.459v4.591h1.04c0.61,0,1.131,0.521,1.131,1.153
	c0,0.61-0.521,1.131-1.131,1.131h-4.364c-0.611,0-1.131-0.521-1.131-1.131c0-0.633,0.52-1.153,1.131-1.153h1.04v-4.591h-1.04
	c-0.611,0-1.131-0.52-1.131-1.13c0-0.634,0.52-1.131,1.131-1.131h1.04v-4.5h-1.04c-0.611,0-1.131-0.498-1.131-1.131
	s0.52-1.131,1.131-1.131h9.227c5.744,0,6.037,8.594,0.339,9l3.257,4.636h1.356C154.725,58.312,155.222,58.833,155.222,59.443z
	 M149.14,51.438c2.962,0,2.962-4.5,0-4.5h-5.902v4.5H149.14z"/>
<path fill="#3E9DD7" d="M168.365,60.574h-7.169c-2.69,0-4.658-1.786-4.658-4.251c0-0.634,0.521-1.131,1.153-1.131
	c0.61,0,1.131,0.497,1.131,1.131c0,1.379,1.198,1.989,2.374,1.989h7.169c2.962,0,2.917-4.522,0-4.522c-2.353,0-4.681,0-7.011,0
	c-5.924,0-5.947-9.068,0-9.068h5.676c0.883,0,1.674,0.182,2.33,0.521c0.181-0.43,0.588-0.724,1.062-0.724
	c0.611,0,1.131,0.521,1.131,1.153v3.121c0,0.61-0.52,1.13-1.131,1.13c-0.633,0-1.153-0.52-1.153-1.13c0-1.335-1.153-1.81-2.239-1.81
	h-5.676c-2.962,0-2.939,4.522,0,4.522c2.33,0,4.658,0,7.011,0C174.267,51.506,174.313,60.574,168.365,60.574z"/>
</svg>
