<?xml version="1.0" encoding="utf-8"?>
<!-- Generator: Adobe Illustrator 15.1.0, SVG Export Plug-In . SVG Version: 6.00 Build 0)  -->
<!DOCTYPE svg PUBLIC "-//W3C//DTD SVG 1.1//EN" "http://www.w3.org/Graphics/SVG/1.1/DTD/svg11.dtd">
<svg version="1.1" id="Calque_1" xmlns="http://www.w3.org/2000/svg" xmlns:xlink="http://www.w3.org/1999/xlink" x="0px" y="0px"
	 width="138.692px" height="45.543px" viewBox="0 0 138.692 45.543" enable-background="new 0 0 138.692 45.543"
	 xml:space="preserve">
<path opacity="0.7" fill="#FFFFFF" d="M1.447,45.543C0.525,44.019,0,41.681,0,39.389c0-7.28,5.288-13.098,11.812-13.098
	c3.973,0,7.479,2.238,9.621,5.595c2.82-2.508,6.336-4.284,10.24-5.077C34.392,11.622,49.708,0,68.195,0
	c11.329,0,21.462,4.378,28.24,11.256c4.333-3.158,9.566-5.003,15.204-5.003c14.941,0,27.053,12.797,27.053,28.79
	c0,3.769-0.681,7.453-1.903,10.501H1.447z"/>
</svg>
