<?xml version="1.0" encoding="utf-8"?>
<!-- Generator: Adobe Illustrator 15.1.0, SVG Export Plug-In . SVG Version: 6.00 Build 0)  -->
<!DOCTYPE svg PUBLIC "-//W3C//DTD SVG 1.1//EN" "http://www.w3.org/Graphics/SVG/1.1/DTD/svg11.dtd">
<svg version="1.1" id="Calque_1" xmlns="http://www.w3.org/2000/svg" xmlns:xlink="http://www.w3.org/1999/xlink" x="0px" y="0px"
	 width="414.059px" height="147px" viewBox="0 0 414.059 147" enable-background="new 0 0 414.059 147" xml:space="preserve">
<rect opacity="0.93" fill="#FFFFFF" enable-background="new    " width="414.059" height="147"/>
<g>
	<path fill="#186D94" d="M143.799,21.871c0,0.502-0.413,0.897-0.898,0.897h-3.164c-0.485,0-0.898-0.396-0.898-0.897
		c0-0.505,0.414-0.9,0.898-0.9h0.648v-7.118l-2.715,3.649c-0.359,0.467-1.079,0.485-1.438,0.037l-3.236-3.884v7.314h0.665
		c0.503,0,0.898,0.396,0.898,0.9c0,0.502-0.395,0.897-0.898,0.897h-3.128c-0.503,0-0.898-0.396-0.898-0.897
		c0-0.505,0.396-0.9,0.898-0.9h0.665v-8.915h-0.665c-0.503,0-0.898-0.396-0.898-0.899c0-0.503,0.396-0.898,0.898-0.898h1.546
		c0.27,0,0.54,0.108,0.701,0.323l4.116,4.944l3.649-4.872c0.198-0.252,0.431-0.396,0.755-0.396h1.6c0.485,0,0.898,0.396,0.898,0.898
		c0,0.504-0.413,0.899-0.898,0.899h-0.719v8.915h0.719C143.386,20.971,143.799,21.366,143.799,21.871z"/>
	<path fill="#186D94" d="M151.312,9.646c8.97,0,8.97,13.645,0,13.645S142.342,9.646,151.312,9.646z M151.312,21.421
		c6.507,0,6.507-9.904,0-9.904C144.804,11.517,144.804,21.421,151.312,21.421z"/>
	<path fill="#186D94" d="M165.007,22.769c-1.51,0-3.775,0-5.285,0c-0.503,0-0.899-0.412-0.899-0.897c0-0.505,0.396-0.9,0.899-0.9
		h0.898v-8.969h-0.898c-0.503,0-0.899-0.413-0.899-0.918c0-0.485,0.396-0.898,0.899-0.898h5.285
		C173.24,10.186,173.24,22.769,165.007,22.769z M165.007,12.002h-2.588v8.969h2.571C170.886,20.971,170.868,12.002,165.007,12.002z"
		/>
	<path fill="#186D94" d="M184.132,20.108v1.708c0,0.359-0.198,0.646-0.485,0.81c-0.145,0.089-0.324,0.143-0.503,0.143h-9.923
		c-0.502,0-0.898-0.396-0.898-0.897c0-0.485,0.396-0.9,0.898-0.9h0.828V17.36h-0.828c-0.502,0-0.898-0.413-0.898-0.915
		c0-0.487,0.396-0.901,0.898-0.901h0.828v-3.558h-0.828c-0.502,0-0.898-0.396-0.898-0.9c0-0.503,0.396-0.898,0.898-0.898h9.564
		c0.484,0,0.899,0.396,0.899,0.898v1.87c0,0.503-0.415,0.898-0.899,0.898c-0.503,0-0.917-0.396-0.917-0.898v-0.97h-6.022v3.558
		h4.098c0.486,0,0.899,0.414,0.899,0.901c0,0.502-0.413,0.915-0.899,0.915h-4.098v3.612h6.49V20.11c0-0.504,0.396-0.899,0.898-0.899
		S184.132,19.604,184.132,20.108z"/>
	<path fill="#186D94" d="M196.406,21.871c0,0.502-0.413,0.897-0.898,0.897h-3.452c-0.503,0-0.917-0.396-0.917-0.897
		c0-0.485,0.413-0.9,0.917-0.9h0.827v-9.006h-0.827c-0.503,0-0.917-0.413-0.917-0.898c0-0.502,0.413-0.897,0.917-0.897
		c0.575,0,1.15,0,1.726,0c0.485,0,0.898,0.396,0.898,0.897v9.904h0.828C195.993,20.971,196.406,21.386,196.406,21.871z"/>
	<path fill="#186D94" d="M213.122,11.084v6.939c0,6.453-9.797,6.453-9.797,0c0-0.484,0.414-0.898,0.898-0.898
		c0.504,0,0.917,0.414,0.917,0.898c0,4.08,6.184,4.08,6.184,0v-6.039h-2.193c-0.503,0-0.898-0.396-0.898-0.9
		c0-0.485,0.396-0.898,0.898-0.898h3.094C212.727,10.186,213.122,10.599,213.122,11.084z"/>
	<path fill="#186D94" d="M221.389,9.646c8.971,0,8.971,13.645,0,13.645C212.419,23.291,212.419,9.646,221.389,9.646z
		 M221.389,21.421c6.508,0,6.508-9.904,0-9.904S214.881,21.421,221.389,21.421z"/>
	<path fill="#186D94" d="M242.402,11.084c0,0.487-0.396,0.9-0.898,0.9h-0.9v7.189c0,1.978-1.617,3.595-3.596,3.595h-3.162
		c-1.979,0-3.596-1.617-3.596-3.595v-7.189h-0.773c-0.485,0-0.897-0.413-0.897-0.9c0-0.503,0.412-0.898,0.897-0.898h3.451
		c0.504,0,0.918,0.396,0.918,0.898c0,0.487-0.414,0.9-0.918,0.9h-0.863v7.189c0,0.987,0.791,1.797,1.781,1.797h3.162
		c0.989,0,1.779-0.81,1.779-1.797v-7.189h-0.736c-0.503,0-0.917-0.413-0.917-0.9c0-0.503,0.414-0.898,0.917-0.898h3.453
		C242.006,10.186,242.402,10.581,242.402,11.084z"/>
	<path fill="#186D94" d="M255.396,20.108v1.708c0,0.359-0.199,0.646-0.484,0.81c-0.145,0.089-0.326,0.143-0.504,0.143h-9.924
		c-0.502,0-0.898-0.396-0.898-0.897c0-0.485,0.396-0.9,0.898-0.9h0.828V17.36h-0.828c-0.502,0-0.898-0.413-0.898-0.915
		c0-0.487,0.396-0.901,0.898-0.901h0.828v-3.558h-0.828c-0.502,0-0.898-0.396-0.898-0.9c0-0.503,0.396-0.898,0.898-0.898h9.562
		c0.483,0,0.897,0.396,0.897,0.898v1.87c0,0.503-0.414,0.898-0.897,0.898c-0.502,0-0.916-0.396-0.916-0.898v-0.97h-6.021v3.558
		h4.098c0.486,0,0.9,0.414,0.9,0.901c0,0.502-0.414,0.915-0.9,0.915h-4.098v3.612h6.49V20.11c0-0.504,0.395-0.899,0.897-0.899
		C255,19.209,255.396,19.604,255.396,20.108z"/>
	<path fill="#186D94" d="M270.332,11.084c0,0.487-0.396,0.9-0.898,0.9h-0.897v7.189c0,1.978-1.619,3.595-3.597,3.595h-3.164
		c-1.979,0-3.596-1.617-3.596-3.595v-7.189h-0.771c-0.486,0-0.9-0.413-0.9-0.9c0-0.503,0.414-0.898,0.9-0.898h3.448
		c0.504,0,0.918,0.396,0.918,0.898c0,0.487-0.414,0.9-0.918,0.9h-0.86v7.189c0,0.987,0.791,1.797,1.778,1.797h3.164
		c0.986,0,1.779-0.81,1.779-1.797v-7.189h-0.738c-0.502,0-0.916-0.413-0.916-0.9c0-0.503,0.414-0.898,0.916-0.898h3.453
		C269.936,10.186,270.332,10.581,270.332,11.084z"/>
	<path fill="#186D94" d="M284.424,21.871c0,0.502-0.396,0.897-0.898,0.897c-1.149,0-2.301,0-3.452,0
		c-0.503,0-0.898-0.396-0.898-0.897c0-0.485,0.396-0.9,0.898-0.9h0.161l-2.588-3.667h-2.75v3.649h0.826c0.484,0,0.9,0.413,0.9,0.918
		c0,0.485-0.416,0.897-0.9,0.897h-3.471c-0.484,0-0.896-0.412-0.896-0.897c0-0.505,0.412-0.918,0.896-0.918h0.828v-3.649h-0.828
		c-0.484,0-0.896-0.413-0.896-0.898c0-0.502,0.412-0.898,0.896-0.898h0.828v-3.576h-0.828c-0.484,0-0.896-0.397-0.896-0.899
		c0-0.504,0.412-0.9,0.896-0.9h7.336c4.566,0,4.799,6.832,0.27,7.156l2.588,3.684h1.08
		C284.027,20.971,284.424,21.386,284.424,21.871z M279.588,15.507c2.355,0,2.355-3.576,0-3.576h-4.691v3.576H279.588z"/>
</g>
<g>
	<rect x="8.196" y="30.969" fill="none" width="398.667" height="62.667"/>
	<text transform="matrix(1 0 0 1 8.1958 40.9077)"><tspan x="0" y="0" fill="#3E9DD7" font-family="'MyriadPro-Regular'" font-size="14">Vous avez sélectionné le mode 1 joueur. Appuyez sur la touche </tspan><tspan x="0" y="16.8" fill="#3E9DD7" font-family="'MyriadPro-Regular'" font-size="14">espace pour continuer sinon appuyez sur J pour sélectionner le </tspan><tspan x="0" y="33.6" fill="#3E9DD7" font-family="'MyriadPro-Regular'" font-size="14">mode 2 joueurs.</tspan></text>
</g>
</svg>
