<?xml version="1.0" encoding="utf-8"?>
<!-- Generator: Adobe Illustrator 15.1.0, SVG Export Plug-In . SVG Version: 6.00 Build 0)  -->
<!DOCTYPE svg PUBLIC "-//W3C//DTD SVG 1.1//EN" "http://www.w3.org/Graphics/SVG/1.1/DTD/svg11.dtd">
<svg version="1.1" id="Calque_1" xmlns="http://www.w3.org/2000/svg" xmlns:xlink="http://www.w3.org/1999/xlink" x="0px" y="0px"
	 width="414.059px" height="238.875px" viewBox="0 0 414.059 238.875" enable-background="new 0 0 414.059 238.875"
	 xml:space="preserve">
<g>
	<g>
		<polygon opacity="0.65" fill="#FFFFFF" points="414.059,238.875 0,238.875 0,-1.125 414.059,0 		"/>
	</g>
	<g>
		<g>
			<path fill="#3E9DD7" d="M125.504,139.44c-8.371,8.371-19.896,13.59-32.635,13.59s-24.385-5.219-32.756-13.59
				c-8.371-8.37-13.469-19.896-13.469-32.634c0-12.859,5.098-24.387,13.469-32.758s20.018-13.585,32.756-13.585
				s24.264,5.214,32.635,13.585c8.373,8.371,13.59,19.898,13.59,32.758C139.094,119.544,133.877,131.07,125.504,139.44z
				 M132.176,106.806c0-10.921-4.367-20.746-11.525-27.782c-7.156-7.158-16.984-11.527-27.781-11.527
				c-10.92,0-20.746,4.369-27.783,11.527c-7.156,7.036-11.523,16.861-11.523,27.782c0,10.797,4.367,20.624,11.523,27.782
				c7.037,7.037,16.863,11.525,27.783,11.525c10.797,0,20.625-4.488,27.781-11.525C127.809,127.43,132.176,117.603,132.176,106.806z
				"/>
			<path fill="#3E9DD7" d="M150.982,71.379c-1.939,0-3.516-1.576-3.516-3.517c0-1.941,1.576-3.397,3.516-3.397H204
				c30.088,0,30.088,45.496,0,45.496h-4.004l23.053,32.393h9.34c1.818,0,3.398,1.575,3.398,3.52c0,1.938-1.58,3.516-3.398,3.516
				h-24.992c-1.941,0-3.518-1.577-3.518-3.516c0-1.944,1.576-3.52,3.518-3.52h7.158l-23.051-32.393h-24.627v32.512h9.098
				c1.943,0,3.398,1.578,3.398,3.4c0,1.938-1.455,3.516-3.398,3.516h-24.993c-1.939,0-3.516-1.577-3.516-3.516
				c0-1.822,1.576-3.4,3.516-3.4h8.979V109.96h-8.979c-1.939,0-3.516-1.578-3.516-3.517c0-1.943,1.576-3.519,3.516-3.519h8.979
				V71.379H150.982z M166.877,102.924H204c20.867,0,20.867-31.545,0-31.545h-37.123V102.924z"/>
			<path fill="#3E9DD7" d="M259.691,71.503v70.97h8.977c1.941,0,3.518,1.578,3.518,3.52s-1.576,3.396-3.518,3.396h-24.994
				c-1.941,0-3.516-1.455-3.516-3.396s1.574-3.52,3.516-3.52h8.979v-70.97h-8.979c-1.941,0-3.516-1.578-3.516-3.519
				c0-1.941,1.574-3.52,3.516-3.52h24.994c1.941,0,3.518,1.578,3.518,3.52c0,1.941-1.576,3.519-3.518,3.519H259.691z"/>
			<path fill="#3E9DD7" d="M354.926,139.44c-8.371,8.371-19.898,13.59-32.637,13.59c-12.736,0-24.385-5.219-32.756-13.59
				c-8.371-8.37-13.467-19.896-13.467-32.634c0-12.859,5.096-24.387,13.467-32.758s20.02-13.585,32.756-13.585
				c12.738,0,24.266,5.214,32.637,13.585s13.588,19.898,13.588,32.758C368.514,119.544,363.297,131.07,354.926,139.44z
				 M361.598,106.806c0-10.921-4.367-20.746-11.527-27.782c-7.156-7.158-16.984-11.527-27.781-11.527
				c-10.918,0-20.746,4.369-27.783,11.527c-7.156,7.036-11.523,16.861-11.523,27.782c0,10.797,4.367,20.624,11.523,27.782
				c7.037,7.037,16.865,11.525,27.783,11.525c10.797,0,20.625-4.488,27.781-11.525C357.23,127.43,361.598,117.603,361.598,106.806z"
				/>
		</g>
		<g>
			<polygon fill="#3E9DD7" points="92.869,81.716 75.74,97.342 75.74,116.514 92.869,132.135 109.996,116.514 109.996,97.342 			"/>
			<polygon fill="#186D94" points="92.869,132.135 109.996,116.514 75.74,116.514 			"/>
			<polygon fill="#71CBF1" points="92.869,81.716 109.996,97.342 75.74,97.342 			"/>
			<polygon opacity="0.3" points="92.869,132.135 109.996,116.514 109.996,97.342 92.869,81.716 			"/>
		</g>
		<g>
			<path fill="#186D94" d="M46.795,168.782c-0.469-0.433-0.701-0.926-0.701-1.485c0-0.43,0.197-0.874,0.592-1.323
				c0.451-0.487,0.947-0.729,1.488-0.729c0.432,0,0.871,0.198,1.324,0.594c0.486,0.449,0.729,0.938,0.729,1.459
				c0,0.576-0.199,1.072-0.596,1.485c-0.396,0.4-0.883,0.595-1.457,0.595C47.703,169.377,47.244,169.183,46.795,168.782z
				 M53.711,175.702c-0.469-0.433-0.701-0.929-0.701-1.489c0-0.43,0.195-0.87,0.596-1.322c0.449-0.488,0.945-0.729,1.486-0.729
				c0.43,0,0.871,0.2,1.322,0.595c0.488,0.451,0.729,0.936,0.729,1.457c0,0.579-0.197,1.072-0.592,1.489
				c-0.4,0.397-0.885,0.593-1.459,0.593C54.621,176.295,54.162,176.1,53.711,175.702z"/>
			<path fill="#186D94" d="M67.547,175.702c-0.471-0.433-0.703-0.929-0.703-1.489c0-0.43,0.197-0.87,0.596-1.322
				c0.449-0.488,0.945-0.729,1.486-0.729c0.432,0,0.869,0.2,1.322,0.595c0.486,0.451,0.729,0.936,0.729,1.457
				c0,0.579-0.197,1.072-0.594,1.489c-0.396,0.397-0.883,0.593-1.457,0.593C68.457,176.295,67.998,176.1,67.547,175.702z
				 M67.547,182.619c-0.471-0.433-0.703-0.929-0.703-1.489c0-0.431,0.197-0.87,0.596-1.323c0.449-0.486,0.945-0.729,1.486-0.729
				c0.432,0,0.869,0.2,1.322,0.595c0.486,0.451,0.729,0.935,0.729,1.457c0,0.579-0.197,1.072-0.594,1.489
				c-0.396,0.396-0.883,0.593-1.457,0.593C68.457,183.212,67.998,183.016,67.547,182.619z M74.463,168.782
				c-0.467-0.433-0.703-0.926-0.703-1.485c0-0.43,0.197-0.874,0.596-1.323c0.449-0.487,0.947-0.729,1.486-0.729
				c0.432,0,0.873,0.198,1.322,0.594c0.488,0.449,0.729,0.938,0.729,1.459c0,0.576-0.197,1.072-0.592,1.485
				c-0.396,0.4-0.885,0.595-1.459,0.595C75.373,169.377,74.914,169.183,74.463,168.782z M74.463,175.702
				c-0.467-0.433-0.703-0.929-0.703-1.489c0-0.43,0.197-0.87,0.596-1.322c0.449-0.488,0.947-0.729,1.486-0.729
				c0.432,0,0.873,0.2,1.322,0.595c0.488,0.451,0.729,0.936,0.729,1.457c0,0.579-0.197,1.072-0.592,1.489
				c-0.396,0.397-0.885,0.593-1.459,0.593C75.373,176.295,74.914,176.1,74.463,175.702z"/>
			<path fill="#186D94" d="M95.215,168.782c-0.469-0.433-0.701-0.926-0.701-1.485c0-0.43,0.195-0.874,0.594-1.323
				c0.449-0.487,0.945-0.729,1.488-0.729c0.428,0,0.871,0.198,1.322,0.594c0.484,0.449,0.729,0.938,0.729,1.459
				c0,0.576-0.201,1.072-0.596,1.485c-0.396,0.4-0.881,0.595-1.455,0.595C96.123,169.377,95.664,169.183,95.215,168.782z
				 M95.215,175.702c-0.469-0.433-0.701-0.929-0.701-1.489c0-0.43,0.195-0.87,0.594-1.322c0.449-0.488,0.945-0.729,1.488-0.729
				c0.428,0,0.871,0.2,1.322,0.595c0.484,0.451,0.729,0.936,0.729,1.457c0,0.579-0.201,1.072-0.596,1.489
				c-0.396,0.397-0.881,0.593-1.455,0.593C96.123,176.295,95.664,176.1,95.215,175.702z M95.215,182.619
				c-0.469-0.433-0.701-0.929-0.701-1.489c0-0.431,0.195-0.87,0.594-1.323c0.449-0.486,0.945-0.729,1.488-0.729
				c0.428,0,0.871,0.2,1.322,0.595c0.484,0.451,0.729,0.935,0.729,1.457c0,0.579-0.201,1.072-0.596,1.489
				c-0.396,0.396-0.881,0.593-1.455,0.593C96.123,183.212,95.664,183.016,95.215,182.619z"/>
			<path fill="#186D94" d="M109.051,168.782c-0.469-0.433-0.701-0.926-0.701-1.485c0-0.43,0.195-0.874,0.596-1.323
				c0.447-0.487,0.943-0.729,1.484-0.729c0.432,0,0.871,0.198,1.324,0.594c0.486,0.449,0.729,0.938,0.729,1.459
				c0,0.576-0.199,1.072-0.594,1.485c-0.398,0.4-0.885,0.595-1.459,0.595C109.959,169.377,109.5,169.183,109.051,168.782z"/>
			<path fill="#186D94" d="M129.803,175.702c-0.471-0.433-0.703-0.929-0.703-1.489c0-0.43,0.199-0.87,0.596-1.322
				c0.449-0.488,0.943-0.729,1.486-0.729c0.432,0,0.871,0.2,1.322,0.595c0.488,0.451,0.729,0.936,0.729,1.457
				c0,0.579-0.197,1.072-0.592,1.489c-0.398,0.397-0.885,0.593-1.459,0.593C130.713,176.295,130.254,176.1,129.803,175.702z
				 M129.803,182.619c-0.471-0.433-0.703-0.929-0.703-1.489c0-0.431,0.199-0.87,0.596-1.323c0.449-0.486,0.943-0.729,1.486-0.729
				c0.432,0,0.871,0.2,1.322,0.595c0.488,0.451,0.729,0.935,0.729,1.457c0,0.579-0.197,1.072-0.592,1.489
				c-0.398,0.396-0.885,0.593-1.459,0.593C130.713,183.212,130.254,183.016,129.803,182.619z M136.721,168.782
				c-0.471-0.433-0.703-0.926-0.703-1.485c0-0.43,0.197-0.874,0.596-1.323c0.449-0.487,0.945-0.729,1.484-0.729
				c0.434,0,0.871,0.198,1.326,0.594c0.484,0.449,0.727,0.938,0.727,1.459c0,0.576-0.199,1.072-0.594,1.485
				c-0.396,0.4-0.883,0.595-1.459,0.595C137.631,169.377,137.17,169.183,136.721,168.782z M136.721,175.702
				c-0.471-0.433-0.703-0.929-0.703-1.489c0-0.43,0.197-0.87,0.596-1.322c0.449-0.488,0.945-0.729,1.484-0.729
				c0.434,0,0.871,0.2,1.326,0.595c0.484,0.451,0.727,0.936,0.727,1.457c0,0.579-0.199,1.072-0.594,1.489
				c-0.396,0.397-0.883,0.593-1.459,0.593C137.631,176.295,137.17,176.1,136.721,175.702z"/>
			<path fill="#186D94" d="M150.555,168.782c-0.471-0.433-0.701-0.926-0.701-1.485c0-0.43,0.195-0.874,0.592-1.323
				c0.451-0.487,0.947-0.729,1.486-0.729c0.432,0,0.873,0.198,1.326,0.594c0.484,0.449,0.729,0.938,0.729,1.459
				c0,0.576-0.199,1.072-0.596,1.485c-0.396,0.4-0.881,0.595-1.459,0.595C151.465,169.377,151.004,169.183,150.555,168.782z
				 M150.555,175.702c-0.471-0.433-0.701-0.929-0.701-1.489c0-0.43,0.195-0.87,0.592-1.322c0.451-0.488,0.947-0.729,1.486-0.729
				c0.432,0,0.873,0.2,1.326,0.595c0.484,0.451,0.729,0.936,0.729,1.457c0,0.579-0.199,1.072-0.596,1.489
				c-0.396,0.397-0.881,0.593-1.459,0.593C151.465,176.295,151.004,176.1,150.555,175.702z M150.555,182.619
				c-0.471-0.433-0.701-0.929-0.701-1.489c0-0.431,0.195-0.87,0.592-1.323c0.451-0.486,0.947-0.729,1.486-0.729
				c0.432,0,0.873,0.2,1.326,0.595c0.484,0.451,0.729,0.935,0.729,1.457c0,0.579-0.199,1.072-0.596,1.489
				c-0.396,0.396-0.881,0.593-1.459,0.593C151.465,183.212,151.004,183.016,150.555,182.619z M157.471,175.702
				c-0.469-0.433-0.699-0.929-0.699-1.489c0-0.43,0.193-0.87,0.592-1.322c0.449-0.488,0.945-0.729,1.486-0.729
				c0.432,0,0.873,0.2,1.324,0.595c0.486,0.451,0.729,0.936,0.729,1.457c0,0.579-0.199,1.072-0.594,1.489
				c-0.398,0.397-0.883,0.593-1.459,0.593C158.381,176.295,157.92,176.1,157.471,175.702z"/>
			<path fill="#186D94" d="M171.305,175.702c-0.469-0.433-0.701-0.929-0.701-1.489c0-0.43,0.195-0.87,0.594-1.322
				c0.449-0.488,0.945-0.729,1.488-0.729c0.43,0,0.871,0.2,1.324,0.595c0.486,0.451,0.727,0.936,0.727,1.457
				c0,0.579-0.199,1.072-0.594,1.489c-0.398,0.397-0.883,0.593-1.457,0.593C172.215,176.295,171.754,176.1,171.305,175.702z
				 M178.221,168.782c-0.469-0.433-0.699-0.926-0.699-1.485c0-0.43,0.197-0.874,0.592-1.323c0.451-0.487,0.947-0.729,1.488-0.729
				c0.429,0,0.871,0.198,1.324,0.594c0.486,0.449,0.729,0.938,0.729,1.459c0,0.576-0.201,1.072-0.596,1.485
				c-0.395,0.4-0.883,0.595-1.457,0.595C179.133,169.377,178.672,169.183,178.221,168.782z"/>
			<path fill="#186D94" d="M192.057,168.782c-0.471-0.433-0.701-0.926-0.701-1.485c0-0.43,0.197-0.874,0.594-1.323
				c0.449-0.487,0.945-0.729,1.486-0.729c0.432,0,0.871,0.198,1.322,0.594c0.488,0.449,0.729,0.938,0.729,1.459
				c0,0.576-0.197,1.072-0.592,1.485c-0.398,0.4-0.885,0.595-1.459,0.595C192.967,169.377,192.508,169.183,192.057,168.782z
				 M192.057,175.702c-0.471-0.433-0.701-0.929-0.701-1.489c0-0.43,0.197-0.87,0.594-1.322c0.449-0.488,0.945-0.729,1.486-0.729
				c0.432,0,0.871,0.2,1.322,0.595c0.488,0.451,0.729,0.936,0.729,1.457c0,0.579-0.197,1.072-0.592,1.489
				c-0.398,0.397-0.885,0.593-1.459,0.593C192.967,176.295,192.508,176.1,192.057,175.702z"/>
			<path fill="#186D94" d="M205.891,168.782c-0.469-0.433-0.703-0.926-0.703-1.485c0-0.43,0.197-0.874,0.594-1.323
				c0.451-0.487,0.947-0.729,1.488-0.729c0.432,0,0.871,0.198,1.324,0.594c0.486,0.449,0.727,0.938,0.727,1.459
				c0,0.576-0.197,1.072-0.594,1.485c-0.396,0.4-0.883,0.595-1.457,0.595C206.801,169.377,206.34,169.183,205.891,168.782z
				 M205.891,182.619c-0.469-0.433-0.703-0.929-0.703-1.489c0-0.431,0.197-0.87,0.594-1.323c0.451-0.486,0.947-0.729,1.488-0.729
				c0.432,0,0.871,0.2,1.324,0.595c0.486,0.451,0.727,0.935,0.727,1.457c0,0.579-0.197,1.072-0.594,1.489
				c-0.396,0.396-0.883,0.593-1.457,0.593C206.801,183.212,206.34,183.016,205.891,182.619z M212.809,182.619
				c-0.469-0.433-0.701-0.929-0.701-1.489c0-0.431,0.193-0.87,0.592-1.323c0.449-0.486,0.947-0.729,1.486-0.729
				c0.432,0,0.871,0.2,1.324,0.595c0.486,0.451,0.727,0.935,0.727,1.457c0,0.579-0.197,1.072-0.592,1.489
				c-0.398,0.396-0.881,0.593-1.459,0.593C213.717,183.212,213.258,183.016,212.809,182.619z"/>
			<path fill="#186D94" d="M233.561,168.782c-0.469-0.433-0.701-0.926-0.701-1.485c0-0.43,0.195-0.874,0.592-1.323
				c0.451-0.487,0.947-0.729,1.49-0.729c0.428,0,0.869,0.198,1.322,0.594c0.486,0.449,0.729,0.938,0.729,1.459
				c0,0.576-0.199,1.072-0.596,1.485c-0.396,0.4-0.881,0.595-1.455,0.595C234.469,169.377,234.01,169.183,233.561,168.782z
				 M240.477,168.782c-0.469-0.433-0.701-0.926-0.701-1.485c0-0.43,0.197-0.874,0.596-1.323c0.451-0.487,0.943-0.729,1.486-0.729
				c0.43,0,0.871,0.198,1.324,0.594c0.486,0.449,0.727,0.938,0.727,1.459c0,0.576-0.197,1.072-0.592,1.485
				c-0.4,0.4-0.885,0.595-1.459,0.595C241.387,169.377,240.926,169.183,240.477,168.782z M240.477,175.702
				c-0.469-0.433-0.701-0.929-0.701-1.489c0-0.43,0.197-0.87,0.596-1.322c0.451-0.488,0.943-0.729,1.486-0.729
				c0.43,0,0.871,0.2,1.324,0.595c0.486,0.451,0.727,0.936,0.727,1.457c0,0.579-0.197,1.072-0.592,1.489
				c-0.4,0.397-0.885,0.593-1.459,0.593C241.387,176.295,240.926,176.1,240.477,175.702z"/>
			<path fill="#186D94" d="M254.314,168.782c-0.473-0.433-0.705-0.926-0.705-1.485c0-0.43,0.197-0.874,0.596-1.323
				c0.451-0.487,0.947-0.729,1.486-0.729c0.432,0,0.871,0.198,1.324,0.594c0.486,0.449,0.729,0.938,0.729,1.459
				c0,0.576-0.199,1.072-0.594,1.485c-0.398,0.4-0.885,0.595-1.459,0.595C255.223,169.377,254.764,169.183,254.314,168.782z
				 M261.23,175.702c-0.469-0.433-0.703-0.929-0.703-1.489c0-0.43,0.197-0.87,0.596-1.322c0.449-0.488,0.943-0.729,1.484-0.729
				c0.432,0,0.875,0.2,1.324,0.595c0.486,0.451,0.729,0.936,0.729,1.457c0,0.579-0.197,1.072-0.594,1.489
				c-0.396,0.397-0.885,0.593-1.459,0.593C262.139,176.295,261.68,176.1,261.23,175.702z"/>
			<path fill="#186D94" d="M281.98,175.702c-0.469-0.433-0.699-0.929-0.699-1.489c0-0.43,0.193-0.87,0.592-1.322
				c0.449-0.488,0.945-0.729,1.486-0.729c0.432,0,0.871,0.2,1.324,0.595c0.484,0.451,0.729,0.936,0.729,1.457
				c0,0.579-0.199,1.072-0.594,1.489c-0.398,0.397-0.883,0.593-1.459,0.593C282.891,176.295,282.432,176.1,281.98,175.702z
				 M281.98,182.619c-0.469-0.433-0.699-0.929-0.699-1.489c0-0.431,0.193-0.87,0.592-1.323c0.449-0.486,0.945-0.729,1.486-0.729
				c0.432,0,0.871,0.2,1.324,0.595c0.484,0.451,0.729,0.935,0.729,1.457c0,0.579-0.199,1.072-0.594,1.489
				c-0.398,0.396-0.883,0.593-1.459,0.593C282.891,183.212,282.432,183.016,281.98,182.619z M288.898,168.782
				c-0.469-0.433-0.701-0.926-0.701-1.485c0-0.43,0.193-0.874,0.592-1.323c0.451-0.487,0.947-0.729,1.486-0.729
				c0.432,0,0.873,0.198,1.326,0.594c0.484,0.449,0.729,0.938,0.729,1.459c0,0.576-0.201,1.072-0.596,1.485
				c-0.396,0.4-0.881,0.595-1.459,0.595C289.807,169.377,289.348,169.183,288.898,168.782z M288.898,175.702
				c-0.469-0.433-0.701-0.929-0.701-1.489c0-0.43,0.193-0.87,0.592-1.322c0.451-0.488,0.947-0.729,1.486-0.729
				c0.432,0,0.873,0.2,1.326,0.595c0.484,0.451,0.729,0.936,0.729,1.457c0,0.579-0.201,1.072-0.596,1.489
				c-0.396,0.397-0.881,0.593-1.459,0.593C289.807,176.295,289.348,176.1,288.898,175.702z"/>
			<path fill="#186D94" d="M302.73,168.782c-0.469-0.433-0.701-0.926-0.701-1.485c0-0.43,0.197-0.874,0.596-1.323
				c0.451-0.487,0.943-0.729,1.486-0.729c0.432,0,0.871,0.198,1.324,0.594c0.486,0.449,0.727,0.938,0.727,1.459
				c0,0.576-0.195,1.072-0.592,1.485c-0.4,0.4-0.885,0.595-1.459,0.595C303.641,169.377,303.182,169.183,302.73,168.782z"/>
			<path fill="#186D94" d="M316.568,168.782c-0.473-0.433-0.703-0.926-0.703-1.485c0-0.43,0.195-0.874,0.594-1.323
				c0.451-0.487,0.945-0.729,1.486-0.729c0.432,0,0.871,0.198,1.322,0.594c0.488,0.449,0.73,0.938,0.73,1.459
				c0,0.576-0.199,1.072-0.594,1.485c-0.398,0.4-0.885,0.595-1.459,0.595C317.477,169.377,317.016,169.183,316.568,168.782z
				 M316.568,175.702c-0.473-0.433-0.703-0.929-0.703-1.489c0-0.43,0.195-0.87,0.594-1.322c0.451-0.488,0.945-0.729,1.486-0.729
				c0.432,0,0.871,0.2,1.322,0.595c0.488,0.451,0.73,0.936,0.73,1.457c0,0.579-0.199,1.072-0.594,1.489
				c-0.398,0.397-0.885,0.593-1.459,0.593C317.477,176.295,317.016,176.1,316.568,175.702z M316.568,182.619
				c-0.473-0.433-0.703-0.929-0.703-1.489c0-0.431,0.195-0.87,0.594-1.323c0.451-0.486,0.945-0.729,1.486-0.729
				c0.432,0,0.871,0.2,1.322,0.595c0.488,0.451,0.73,0.935,0.73,1.457c0,0.579-0.199,1.072-0.594,1.489
				c-0.398,0.396-0.885,0.593-1.459,0.593C317.477,183.212,317.016,183.016,316.568,182.619z"/>
			<path fill="#186D94" d="M330.404,168.782c-0.471-0.433-0.705-0.926-0.705-1.485c0-0.43,0.197-0.874,0.596-1.323
				c0.451-0.487,0.947-0.729,1.486-0.729c0.432,0,0.873,0.198,1.326,0.594c0.484,0.449,0.727,0.938,0.727,1.459
				c0,0.576-0.197,1.072-0.594,1.485c-0.396,0.4-0.885,0.595-1.459,0.595C331.312,169.377,330.854,169.183,330.404,168.782z
				 M330.404,175.702c-0.471-0.433-0.705-0.929-0.705-1.489c0-0.43,0.197-0.87,0.596-1.322c0.451-0.488,0.947-0.729,1.486-0.729
				c0.432,0,0.873,0.2,1.326,0.595c0.484,0.451,0.727,0.936,0.727,1.457c0,0.579-0.197,1.072-0.594,1.489
				c-0.396,0.397-0.885,0.593-1.459,0.593C331.312,176.295,330.854,176.1,330.404,175.702z M330.404,182.619
				c-0.471-0.433-0.705-0.929-0.705-1.489c0-0.431,0.197-0.87,0.596-1.323c0.451-0.486,0.947-0.729,1.486-0.729
				c0.432,0,0.873,0.2,1.326,0.595c0.484,0.451,0.727,0.935,0.727,1.457c0,0.579-0.197,1.072-0.594,1.489
				c-0.396,0.396-0.885,0.593-1.459,0.593C331.312,183.212,330.854,183.016,330.404,182.619z"/>
			<path fill="#186D94" d="M344.236,168.782c-0.467-0.433-0.701-0.926-0.701-1.485c0-0.43,0.197-0.874,0.594-1.323
				c0.449-0.487,0.945-0.729,1.486-0.729c0.432,0,0.873,0.198,1.326,0.594c0.484,0.449,0.727,0.938,0.727,1.459
				c0,0.576-0.199,1.072-0.594,1.485c-0.398,0.4-0.883,0.595-1.459,0.595C345.146,169.377,344.688,169.183,344.236,168.782z"/>
			<path fill="#186D94" d="M358.07,168.782c-0.469-0.433-0.701-0.926-0.701-1.485c0-0.43,0.195-0.874,0.594-1.323
				c0.451-0.487,0.947-0.729,1.488-0.729c0.43,0,0.871,0.198,1.324,0.594c0.486,0.449,0.729,0.938,0.729,1.459
				c0,0.576-0.201,1.072-0.596,1.485c-0.396,0.4-0.883,0.595-1.457,0.595C358.98,169.377,358.521,169.183,358.07,168.782z
				 M364.988,168.782c-0.469-0.433-0.701-0.926-0.701-1.485c0-0.43,0.197-0.874,0.594-1.323c0.449-0.487,0.945-0.729,1.488-0.729
				c0.428,0,0.871,0.198,1.322,0.594c0.486,0.449,0.729,0.938,0.729,1.459c0,0.576-0.199,1.072-0.596,1.485
				c-0.395,0.4-0.881,0.595-1.455,0.595C365.9,169.377,365.438,169.183,364.988,168.782z"/>
		</g>
	</g>
</g>
</svg>
