<?xml version="1.0" encoding="utf-8"?>
<!-- Generator: Adobe Illustrator 15.1.0, SVG Export Plug-In . SVG Version: 6.00 Build 0)  -->
<!DOCTYPE svg PUBLIC "-//W3C//DTD SVG 1.1//EN" "http://www.w3.org/Graphics/SVG/1.1/DTD/svg11.dtd">
<svg version="1.1" id="Calque_1" xmlns="http://www.w3.org/2000/svg" xmlns:xlink="http://www.w3.org/1999/xlink" x="0px" y="0px"
	 width="182px" height="60.195px" viewBox="0 0 182 60.195" enable-background="new 0 0 182 60.195" xml:space="preserve">
<path opacity="0.7" fill="#FFFFFF" d="M1.899,60.195C0.689,57.731,0,54.904,0,51.896c0-9.554,6.939-17.299,15.5-17.299
	c5.213,0,9.814,2.882,12.625,7.286c3.701-3.29,8.314-5.648,13.438-6.688C45.132,15.265,65.229,0,89.489,0
	c14.867,0,28.164,5.738,37.059,14.764c5.687-4.144,12.554-6.569,19.952-6.569c19.606,0,35.5,17.013,35.5,38
	c0,4.945-0.893,9.666-2.498,14H1.899z"/>
</svg>
