<?xml version="1.0" encoding="utf-8"?>
<!-- Generator: Adobe Illustrator 15.1.0, SVG Export Plug-In . SVG Version: 6.00 Build 0)  -->
<!DOCTYPE svg PUBLIC "-//W3C//DTD SVG 1.1//EN" "http://www.w3.org/Graphics/SVG/1.1/DTD/svg11.dtd">
<svg version="1.1" id="Calque_1" xmlns="http://www.w3.org/2000/svg" xmlns:xlink="http://www.w3.org/1999/xlink" x="0px" y="0px"
	 width="143.367px" height="357.836px" viewBox="0 0 143.367 357.836" enable-background="new 0 0 143.367 357.836"
	 xml:space="preserve">
<g>
	<polygon fill="#8C6239" points="113.111,353.303 106.982,347.826 91.055,349.765 87.684,353.979 87.049,340.642 82.836,321.045 
		82.414,291.311 75.877,259.715 76.146,248.102 70.871,244.085 65.231,248.102 64.294,264.954 63.031,313.611 58.815,335.575 
		58.605,353.979 49.13,347.16 41.766,345.499 34.945,347.826 28.397,353.303 29.487,329.539 25.937,294.625 28.12,250.07 
		24.028,227.335 25.379,192.699 116.127,192.699 112.711,237.639 114.955,255.327 112.166,287.943 114.041,303.913 111.895,327.869 
		113.271,344.837 	"/>
	<polygon fill="#E2A28A" points="116.467,192.699 25.362,192.699 25.42,109.082 33.089,79.743 50.992,77.828 87.746,77.828 
		117.281,81.383 116.488,109.23 	"/>
	<polygon fill="#42210B" points="48.914,357.139 59.45,356.78 50.45,346.8 44.3,344.065 38.397,344.065 31.743,349.155 
		30.194,355.748 38.397,356.966 	"/>
	<polygon fill="#42210B" points="90.336,357.836 85.389,356.78 89.148,347.339 99.486,344.065 105.389,344.065 112.045,349.155 
		113.592,355.748 105.389,356.966 	"/>
	<path fill="#DE9D7E" d="M46.618,62.242l3.085,18.188c0,0,5.092,4.562,18.109,3.888c13.022-0.674,18.553-5.787,18.553-5.787
		l1.215-17.833L46.618,62.242z"/>
	<g>
		<polygon fill="#F7CA83" points="42.198,47.555 52.009,74.685 46.976,76.969 44.511,78.485 41.368,78.028 36.8,78.976 
			38.094,72.808 37.107,69.073 38.26,66.711 38.763,62.742 37.282,60.036 35.373,56.506 35.613,52.372 36.516,49.868 36.236,47.449 
					"/>
		<polygon fill="#F7CA83" points="89.682,46.042 81.229,73.952 86.512,75.582 89.033,74.748 92.209,75.923 96.266,74.867 
			93.682,70.353 94.922,68.445 93.855,64.305 91.23,60.54 93.299,57.739 92.283,54.998 93.811,50.967 93.455,47.374 93.428,44.939 
					"/>
		<path fill="#DE9D7E" d="M95.865,32.226c0,0,2.889,4.961-0.611,12.292l-5.072,1.492l1.396-12.933L95.865,32.226z"/>
		<polygon fill="#E8A990" points="39.078,25.155 38.649,32.949 44.399,69.455 62.398,75.86 75.506,73.417 89.131,64.816 
			91.736,31.077 89.771,21.934 		"/>
		<path fill="#DE9D7E" d="M34.952,36.097c0,0-3.357,5.358,1.045,12.188l5.221,0.837L39.21,36.325L34.952,36.097z"/>
		<polygon fill="#DE9D7E" points="58.266,50.933 65.986,46.683 74.605,50.269 		"/>
		<g>
			<path fill="#FFFFFF" d="M71.875,42.102c0.688-2.93,7.073-5.29,8.782-5.234c1.715,0.058,3.176,0.814,3.34,2.233
				c0.162,1.42-1.184,3.636-2.289,4.271c-1.105,0.639-4.182,0.918-5.744,0.722C74.396,43.899,71.688,42.893,71.875,42.102z"/>
			<path fill="#603813" d="M75.287,40.931c0.096,1.503,1.391,2.646,2.895,2.55c1.502-0.096,2.646-1.392,2.551-2.896
				c-0.094-1.504-1.395-2.645-2.895-2.55C76.332,38.131,75.191,39.428,75.287,40.931z"/>
			<path fill="#333333" d="M79.209,40.66c0.037,0.599-0.416,1.111-1.014,1.149s-1.115-0.414-1.152-1.012
				c-0.039-0.597,0.416-1.113,1.016-1.151C78.656,39.609,79.17,40.063,79.209,40.66z"/>
			<path fill="#FFFFFF" d="M79.559,39.755c0.021,0.321-0.223,0.596-0.543,0.616c-0.322,0.021-0.596-0.222-0.615-0.542
				c-0.02-0.32,0.223-0.598,0.541-0.618C79.262,39.191,79.537,39.436,79.559,39.755z"/>
		</g>
		<polygon opacity="0.27" fill="#C1272D" enable-background="new    " points="57.776,61.651 63.507,62.87 70.677,62.414 
			77.213,60.237 70.324,58.24 64.149,58.632 		"/>
		<polygon fill="#DE9D7E" points="60.732,68.551 62.968,65.901 71.321,65.37 73.467,67.742 70.972,67.058 63.757,66.821 		"/>
		<polygon fill="#F7CA83" points="70.416,38.759 79.867,36.076 85.908,36.327 81.859,33.235 74.477,35.058 		"/>
		<polygon fill="#F7CA83" points="61.388,39.333 51.671,37.868 45.712,38.881 49.333,35.302 56.889,36.175 		"/>
		<path fill="#F7CA83" d="M90.557,20.423l-1.016-4.147l-8.766,1.259l-3.869-0.457l-6.079,1.089l-6.562,1.438l-6.69-0.596
			l-6.168-0.311l-3.778,0.943l-8.854-0.14l-0.249,2.685c0,0,1.175,0.838,1.202,1.257c0.026,0.419-1.137,1.968-1.137,1.968
			l-0.854,6.276l-2.355,3.271l0.25,1.233l3.078,0.165l1.998-3.402l-0.009,1.315l2.827-1.584l1.889-2.553l5.105-0.043l4.654-1.513
			l3.953,1.06l3.361-1.446l4.113,0.498l3.814-1.079l2.782,1.015l6.172-1.584l4.193,2.121l3.578,0.135l1.518,2.631l0.818,4.096
			l1.604-2.91l2.512-0.36l-0.207-3.239l-1.25-1.279c0,0-1.336-4.03-1.363-4.45C90.744,23.36,90.557,20.423,90.557,20.423z"/>
		<polygon fill="#F7CA83" points="82.529,65.024 82.369,62.506 81.535,61.148 81.287,57.24 79.596,54.679 79.127,52.041 
			77.209,51.322 74.184,51.514 71.153,51.707 65.953,50.912 60.791,52.365 57.759,52.558 54.733,52.75 52.919,53.707 52.789,56.382 
			51.437,59.137 51.685,63.045 51.029,64.498 51.189,67.016 49.771,71.565 52.514,72.542 53.85,70.357 54.282,67.982 53.648,65.175 
			54.514,63.434 55.184,59.845 55.062,57.923 56.792,57.391 59.371,56.526 61.485,56.672 63.921,55.254 66.229,55.271 
			68.412,54.969 71.009,56.067 73.088,55.655 75.754,56.187 77.537,56.495 77.66,58.417 78.779,61.892 79.855,63.509 79.586,66.374 
			80.238,67.494 81.588,69.292 83.516,68.075 		"/>
		<g>
			<path fill="#FFFFFF" d="M59.509,42.887c-1.053-2.819-7.686-4.352-9.371-4.08c-1.692,0.274-3.047,1.209-3.029,2.637
				c0.016,1.43,1.633,3.457,2.811,3.946c1.18,0.494,4.264,0.382,5.787-0.01C57.236,44.99,59.796,43.648,59.509,42.887z"/>
			<path fill="#603813" d="M50.673,42.496c0.096,1.503,1.392,2.645,2.895,2.549c1.502-0.095,2.646-1.392,2.551-2.896
				c-0.095-1.504-1.394-2.645-2.896-2.549C51.718,39.695,50.578,40.992,50.673,42.496z"/>
			<path fill="#333333" d="M54.595,42.224c0.039,0.599-0.413,1.111-1.014,1.15c-0.599,0.038-1.115-0.415-1.152-1.012
				c-0.038-0.597,0.416-1.113,1.014-1.15C54.044,41.173,54.559,41.627,54.595,42.224z"/>
			<path fill="#FFFFFF" d="M54.945,41.319c0.021,0.321-0.222,0.596-0.541,0.616c-0.322,0.021-0.595-0.222-0.615-0.542
				c-0.021-0.32,0.219-0.597,0.541-0.618C54.649,40.755,54.925,41,54.945,41.319z"/>
		</g>
		<g>
			<g>
				<path fill="#E6E6E6" d="M90.33,11.957L80.18,4.262L63.324,0.483L47.082,6.365l-9.096,8.918L37.971,31.25
					c0,0,10.096-4.008,26.986-5.081c16.889-1.073,27.409,1.625,27.409,1.625L90.33,11.957z"/>
				<path fill="#D7A265" d="M64.654,21.415c-15.262,0.97-24.947,4.326-26.679,4.964l-0.003,4.871c0,0,10.096-4.008,26.985-5.081
					c16.889-1.073,27.411,1.625,27.411,1.625l-0.619-4.831C89.949,22.547,79.914,20.445,64.654,21.415z"/>
			</g>
			<path fill="#D7A265" d="M64.453,18.267c14.338-0.911,24.256,0.885,26.875,1.453l-0.617-4.795
				c-3.23-0.656-13.049-2.27-26.561-1.411c-13.51,0.858-23.048,3.684-26.169,4.744l-0.003,4.853
				C40.505,22.216,50.118,19.178,64.453,18.267z"/>
		</g>
	</g>
	<polygon fill="#754C24" points="40.148,94.241 74.783,97.399 83.125,94.241 98.693,95.82 99.754,108.453 101.104,126.087 
		107.156,133.72 105.801,152.146 109.918,161.881 108.736,177.409 107.156,192.146 111.631,226.361 89.975,231.889 77.943,228.204 
		73.205,230.573 56.886,225.836 41.884,229.784 35.832,233.73 21.356,233.73 28.989,216.039 27.199,194.518 31.183,166.092 
		36.962,152.932 33.99,143.985 36.962,128.982 38.99,116.612 	"/>
	<polygon fill="#603813" points="42.811,77.648 52.222,104.178 45.664,105.373 36.962,78.25 	"/>
	<polygon fill="#603813" points="44.708,149.317 44.441,156.052 25.125,156.226 24.779,149.19 	"/>
	<polygon fill="#603813" points="117.34,148.875 117.334,154.735 97.201,155.385 96.596,149.225 	"/>
	<polygon fill="#603813" points="96.648,78.132 87.791,104.92 94.139,106.236 102.289,78.856 	"/>
	<g>
		<polygon fill="#E8A990" points="142.379,132.552 134.594,105.72 125.949,86.831 117.592,80.378 109.174,80.145 104.74,88.912 
			104.656,101.862 106.635,116.513 115.986,132.86 125.699,141.542 122.646,148.245 124.021,156.775 129.682,161.043 
			138.629,158.84 143.004,153.047 141.697,147.256 143.387,140.456 		"/>
	</g>
	<g>
		<polygon fill="#E8A990" points="1.618,132.552 9.404,105.72 18.049,86.831 26.407,80.378 34.825,80.145 39.257,88.912 
			39.343,101.862 37.362,116.513 28.012,132.86 18.3,141.542 21.353,148.245 19.976,156.775 14.318,161.043 5.371,158.84 
			0.996,153.047 2.301,147.256 0.611,140.456 		"/>
	</g>
	<polygon fill="#F7E0D6" points="50.593,240.333 51.257,248.497 54.63,248.793 58.44,248.918 60.617,244.617 63.802,213.131 
		66.284,198.684 51.641,194.846 52.839,209.377 	"/>
	<polygon fill="#F7E0D6" points="82.412,243.464 80.291,251.376 77.141,252.479 73.053,251.711 71.783,245.874 74.314,214.329 
		74.475,199.671 89.568,198.531 85.773,212.609 	"/>
	<polygon fill="#F7E0D6" points="109.104,164.417 106.895,167.453 105.799,173.938 107.838,174.989 109.104,170.918 
		111.391,169.319 112.604,173.04 111.736,176.252 109.104,179.252 111.391,180.086 115.02,175.252 115.182,167.681 115.02,147.251 
		116.16,136.844 117.463,111.841 114.354,106.354 109.104,102.729 106.42,120.568 106.895,142.798 	"/>
	<polygon fill="#F7E0D6" points="42.315,153.152 43.583,156.686 42.814,163.217 40.562,163.653 40.489,159.391 38.744,157.214 
		36.535,160.444 36.465,163.771 38.149,167.389 35.719,167.547 33.594,161.889 35.566,154.578 41.458,135.015 43.287,124.707 
		49.061,100.344 53.585,95.951 59.642,93.946 57.207,111.821 50.507,133.024 	"/>
	<polygon fill="#8D8BB6" points="59.641,94.457 53.767,113.183 51.475,129.652 48.856,148.543 43.991,167.4 36.879,203.631 
		102.852,211.498 99.762,170.872 99.762,156.871 105.182,141.403 105.289,129.766 107.471,115.752 109.389,102.92 100.998,92.43 
		71.847,87.006 	"/>
	<polygon fill="#F7CA83" points="70.728,41.833 81.516,38.115 94.633,39.342 109.602,45.342 116.453,54.728 116.344,69.003 
		112.068,75.472 112.154,85.035 106.906,97.218 109.811,109.843 104.697,117.545 106.061,124.205 93.396,127.189 78.902,119.356 
		66.789,120.24 59.333,115.145 45.018,114.555 52.352,102.301 52.935,94.131 56.31,87.14 54.53,78.127 56.298,71.359 62.987,62.567 
		64.319,50.543 	"/>
	<g>
		<polygon fill="#EBB49E" points="143.348,154.299 141.123,145.822 137.266,139.547 102.346,122.401 105.16,118.233 105.65,113.162 
			104.277,109.182 95.93,99.486 93.688,101.856 98.357,106.906 99.248,109.835 98.641,111.562 96.746,112.389 90.553,107.887 
			79.941,99.872 77.92,102.163 88.453,110.71 87.586,111.645 73.631,100.902 71.72,103.579 85.432,114.031 83.812,115.379 
			72.699,106.578 70.938,109.044 81.709,117.381 80.117,118.999 71.984,112.571 70.587,114.53 78.77,120.919 87.881,129.042 
			97.766,130.052 121.914,153.754 125.273,159.139 132.145,161.104 		"/>
	</g>
	<g>
		<polygon fill="#EBB49E" points="-0.019,155.856 1.803,147.283 5.356,140.831 39.419,122.042 36.409,118.012 35.675,112.969 
			36.859,108.93 44.737,98.847 47.087,101.107 42.662,106.374 41.914,109.342 42.603,111.037 44.534,111.773 50.507,106.982 
			60.724,98.47 62.853,100.662 52.74,109.702 53.649,110.594 67.075,99.199 69.111,101.781 55.914,112.875 57.598,114.145 
			68.278,104.824 70.154,107.204 59.794,116.044 61.458,117.584 69.278,110.776 70.764,112.666 62.897,119.438 54.182,127.986 
			44.359,129.465 21.365,154.291 18.266,159.83 11.497,162.12 		"/>
	</g>
	<polygon fill="#42210B" points="58.185,250.146 60.557,248.918 58.808,245.956 56.314,244.848 53.919,244.848 51.223,246.911 
		50.593,249.584 53.919,250.078 	"/>
	<polygon fill="#42210B" points="78.295,252.631 81.656,252.545 81.357,249.814 78.932,247.439 76.557,247.148 73.945,247.945 
		71.783,250.757 74.055,252.182 	"/>
</g>
</svg>
