<?xml version="1.0" encoding="utf-8"?>
<!-- Generator: Adobe Illustrator 15.1.0, SVG Export Plug-In . SVG Version: 6.00 Build 0)  -->
<!DOCTYPE svg PUBLIC "-//W3C//DTD SVG 1.1//EN" "http://www.w3.org/Graphics/SVG/1.1/DTD/svg11.dtd">
<svg version="1.1" id="Calque_1" xmlns="http://www.w3.org/2000/svg" xmlns:xlink="http://www.w3.org/1999/xlink" x="0px" y="0px"
	 width="800px" height="600px" viewBox="0 0 800 600" enable-background="new 0 0 800 600" xml:space="preserve">
<rect y="0" fill="#00557C" width="800" height="600"/>
<rect x="282.323" y="53.799" fill="#147DA5" width="235.355" height="454.143"/>
<polygon fill="#186D94" points="527.943,534.152 272.057,534.152 282.323,507.941 517.678,507.941 "/>
<path fill="#00557C" d="M428.459,457.92l-13.492-78.646c7.799-4.958,12.979-13.668,12.979-23.596
	c0-15.435-12.512-27.946-27.945-27.946c-15.435,0-27.946,12.512-27.946,27.946c0,9.926,5.18,18.638,12.979,23.595l-13.491,78.646
	H428.459z"/>
<polygon fill="#3285A6" points="272.057,88.001 272.057,507.941 272.057,534.152 282.323,507.941 282.323,53.799 "/>
<polygon fill="#3285A6" points="527.943,88.001 527.943,507.941 527.943,534.152 517.678,507.941 517.678,53.799 "/>
<ellipse fill="#5FBAED" cx="400" cy="241.37" rx="63.838" ry="53.07"/>
<path fill="#B77E68" d="M462.369,252.685c-63.973,63.551-123.731,1.064-124.738,0.001c6.238,23.87,31.785,41.753,62.369,41.753
	C430.584,294.439,456.131,276.557,462.369,252.685z"/>
<path fill="#3399CC" d="M462.369,252.685c-63.973,63.551-123.731,1.064-124.738,0.001c6.238,23.87,31.785,41.753,62.369,41.753
	C430.584,294.439,456.131,276.557,462.369,252.685z"/>
<path fill="#71CBF1" d="M461.121,226.037C453.207,204.204,428.842,188.3,400,188.3c-28.843,0-53.206,15.904-61.122,37.736
	C339.236,225.914,393.78,188.551,461.121,226.037z"/>
<polygon fill="#186D94" points="175.267,321.467 0,321.467 0,259.969 197.99,259.969 "/>
<polygon fill="#147DA5" points="175.267,198.472 0,198.472 0,259.969 197.99,259.969 "/>
<polygon fill="#186D94" points="624.734,321.467 800,321.467 800,259.969 602.012,259.969 "/>
<polygon fill="#147DA5" points="624.734,198.472 800,198.472 800,259.969 602.012,259.969 "/>
<polygon fill="#186D94" points="175.267,621.449 0,621.449 0,559.953 197.99,559.953 "/>
<polygon fill="#147DA5" points="175.267,498.455 0,498.455 0,559.953 197.99,559.953 "/>
<polygon fill="#186D94" points="624.734,621.449 800,621.449 800,559.953 602.012,559.953 "/>
<polygon fill="#147DA5" points="624.734,498.455 800,498.455 800,559.953 602.012,559.953 "/>
<polygon fill="#186D94" points="175.267,21.483 0,21.483 0,-40.014 197.99,-40.014 "/>
<polygon fill="#147DA5" points="175.267,-101.511 0,-101.511 0,-40.014 197.99,-40.014 "/>
<polygon fill="#186D94" points="624.734,21.483 800,21.483 800,-40.014 602.012,-40.014 "/>
<polygon fill="#147DA5" points="624.734,-101.511 800,-101.511 800,-40.014 602.012,-40.014 "/>
</svg>
