<?xml version="1.0" encoding="utf-8"?>
<!-- Generator: Adobe Illustrator 15.1.0, SVG Export Plug-In . SVG Version: 6.00 Build 0)  -->
<!DOCTYPE svg PUBLIC "-//W3C//DTD SVG 1.1//EN" "http://www.w3.org/Graphics/SVG/1.1/DTD/svg11.dtd">
<svg version="1.1" id="Calque_1" xmlns="http://www.w3.org/2000/svg" xmlns:xlink="http://www.w3.org/1999/xlink" x="0px" y="0px"
	 width="215.914px" height="584.053px" viewBox="0 0 215.914 584.053" enable-background="new 0 0 215.914 584.053"
	 xml:space="preserve">
<g>
	<polygon fill="#91C9E8" points="77.516,584.053 192.702,584.053 183.877,222.556 188.947,204.496 194.016,189.287 200.039,150.95 
		203.844,128.138 205.436,108.811 207.666,92.267 212.666,75.767 215.914,55.808 215.914,44.717 207.359,40.281 198.17,44.4 
		190.883,58.658 183.242,74.593 179.441,79.346 173.738,78.079 172.787,72.692 174.371,62.87 175.666,48.767 177.885,31.341 
		175.982,16.607 168.379,11.38 159.826,12.33 154.6,17.559 149.373,39.42 145.25,54.633 141,58.911 136.777,59.386 136.51,53.683 
		135.666,46.267 131.826,11.882 126.494,2.852 116.52,0 108.928,4.277 103.25,16.159 101.809,46.267 103.127,58.974 103.127,60.811 
		97.799,61.292 93.896,58.446 91.756,51.328 90.846,48.285 84.666,25.767 78.014,22.552 67.082,22.552 61.855,29.806 61.379,54.645 
		66,73.434 64.23,91.239 61.586,109.288 56.365,124.021 46.877,131.149 33.666,120.767 23.666,99.434 25.334,86.767 23.334,70.101 
		14.666,61.767 2.312,66.767 0,94.101 8.666,128.101 14.666,159.098 24.982,178.251 77.262,220.599 84.865,249.215 	"/>
	<polygon fill="#B4DCED" points="83.207,255.303 185.957,251.078 190.942,413.402 79.447,417.476 	"/>
</g>
</svg>
