<?xml version="1.0" encoding="utf-8"?>
<!-- Generator: Adobe Illustrator 15.1.0, SVG Export Plug-In . SVG Version: 6.00 Build 0)  -->
<!DOCTYPE svg PUBLIC "-//W3C//DTD SVG 1.1//EN" "http://www.w3.org/Graphics/SVG/1.1/DTD/svg11.dtd">
<svg version="1.1" id="Calque_1" xmlns="http://www.w3.org/2000/svg" xmlns:xlink="http://www.w3.org/1999/xlink" x="0px" y="0px"
	 width="800px" height="600px" viewBox="0 0 800 600" enable-background="new 0 0 800 600" xml:space="preserve">
<rect fill="#006837" width="800" height="600"/>
<polygon fill="#E6E6E6" points="658.264,274.579 639.315,300 665.632,316.685 688.789,278.79 "/>
<polygon fill="#CCCCCC" points="639.315,300 664.053,285.5 688.789,278.79 665.632,316.685 "/>
<g>
	<g>
		<polygon fill="#006837" points="46.75,330.883 34.435,327.662 29.179,336.53 18.676,380.543 22.438,413.614 42.583,446.515 
			64.666,461.678 97.322,472.58 124.795,472.311 134.424,466.415 130.786,456.225 125.996,448.401 108.504,426.013 84.282,396.299 
			61.539,353.265 		"/>
		<polygon fill="#006837" points="69.472,342.894 85.314,358.57 106.376,382.771 126.213,415.17 138.005,434.429 161.184,441.199 
			174.897,425.078 177.7,396.884 169.275,366.737 140.472,335.825 117.465,323.435 85.573,310.969 60.554,311.671 49.349,323.219 
			56.719,335.255 		"/>
	</g>
	<g opacity="0.1">
		<polygon points="46.75,330.883 34.435,327.662 29.179,336.53 18.676,380.543 22.438,413.614 42.583,446.515 64.666,461.678 
			97.322,472.58 124.795,472.311 134.424,466.415 130.786,456.225 125.996,448.401 108.504,426.013 84.282,396.299 61.539,353.265 
					"/>
		<polygon points="69.472,342.894 85.314,358.57 106.376,382.771 126.213,415.17 138.005,434.429 161.184,441.199 174.897,425.078 
			177.7,396.884 169.275,366.737 140.472,335.825 117.465,323.435 85.573,310.969 60.554,311.671 49.349,323.219 56.719,335.255 		
			"/>
	</g>
</g>
<g>
	<g>
		<polygon fill="#006837" points="45.401,84 33.086,80.78 27.83,89.648 17.327,133.661 21.089,166.732 41.234,199.633 
			63.316,214.795 95.973,225.697 123.446,225.429 133.075,219.533 129.437,209.343 124.646,201.52 107.155,179.13 82.933,149.417 
			60.19,106.383 		"/>
		<polygon fill="#006837" points="68.123,96.012 83.965,111.688 105.027,135.889 124.864,168.288 136.656,187.546 159.834,194.317 
			173.549,178.196 176.351,150.001 167.926,119.855 139.123,88.943 116.116,76.553 84.224,64.087 59.205,64.789 48,76.337 
			55.37,88.373 		"/>
	</g>
	<g opacity="0.1">
		<polygon points="45.401,84 33.086,80.78 27.83,89.648 17.327,133.661 21.089,166.732 41.234,199.633 63.316,214.795 
			95.973,225.697 123.446,225.429 133.075,219.533 129.437,209.343 124.646,201.52 107.155,179.13 82.933,149.417 60.19,106.383 		
			"/>
		<polygon points="68.123,96.012 83.965,111.688 105.027,135.889 124.864,168.288 136.656,187.546 159.834,194.317 173.549,178.196 
			176.351,150.001 167.926,119.855 139.123,88.943 116.116,76.553 84.224,64.087 59.205,64.789 48,76.337 55.37,88.373 		"/>
	</g>
</g>
<g>
	<g>
		<polygon fill="#006837" points="288.236,445.555 275.921,442.335 270.665,451.202 260.162,495.215 263.924,528.286 
			284.069,561.187 306.151,576.35 338.808,587.252 366.281,586.982 375.91,581.087 372.271,570.896 367.481,563.073 349.99,540.685 
			325.768,510.971 303.025,467.937 		"/>
		<polygon fill="#006837" points="310.958,457.565 326.8,473.242 347.861,497.442 367.699,529.842 379.491,549.101 402.669,555.871 
			416.384,539.75 419.186,511.556 410.761,481.409 381.958,450.498 358.951,438.106 327.059,425.641 302.04,426.344 
			290.834,437.891 298.204,449.927 		"/>
	</g>
	<g opacity="0.1">
		<polygon points="288.236,445.555 275.921,442.335 270.665,451.202 260.162,495.215 263.924,528.286 284.069,561.187 
			306.151,576.35 338.808,587.252 366.281,586.982 375.91,581.087 372.271,570.896 367.481,563.073 349.99,540.685 325.768,510.971 
			303.025,467.937 		"/>
		<polygon points="310.958,457.565 326.8,473.242 347.861,497.442 367.699,529.842 379.491,549.101 402.669,555.871 416.384,539.75 
			419.186,511.556 410.761,481.409 381.958,450.498 358.951,438.106 327.059,425.641 302.04,426.344 290.834,437.891 
			298.204,449.927 		"/>
	</g>
</g>
<g>
	<polygon fill="#F2F2F2" points="220.315,194 184.526,268.658 244.526,325.461 328.737,256.046 304.526,194 	"/>
	<polygon fill="#CCCCCC" points="184.526,268.658 244.526,325.461 328.737,256.046 256.632,245.421 	"/>
</g>
<polygon fill="#603813" points="353.247,600 328.066,587 299,580 275,580 245,600 "/>
<polygon fill="#F1A9A0" points="530.842,563.471 543.684,515.141 631.978,443.619 653.649,405.853 686.56,368.104 711.767,335.987 
	745,319.12 745,303.869 724.208,293.435 682.105,304.672 659.851,319.12 625.446,353.635 595,364.069 578.975,352.029 
	570.158,327.146 566.151,302.264 570.972,269.354 572.578,243.669 588.634,165.007 593.449,103.202 592.646,61.251 583.817,49 
	565.356,49 554.119,54.429 543.684,92.461 538.868,133.951 526.025,189.964 519.203,229.258 515.59,241.279 508.999,246.086 
	500,245.274 500,207.549 504.184,136.914 500.255,39.791 490.665,19.724 477.844,12.5 460.998,17.316 451.992,32.567 447,136.914 
	447,233.234 443.168,242.866 436.035,242.064 428.856,234.84 424.063,199.522 408.824,134.506 403.211,91.162 394.384,54.239 
	385.557,45.41 371.109,43.804 358.267,52.634 355.056,77.516 358.803,106.947 364.154,140.125 365.759,188.819 379.673,248.751 
	382.349,265.34 380.743,274.438 371.111,276.577 364.69,268.55 339.004,215.574 320.275,159.387 307.968,135.307 292.449,128.35 
	278,135.842 278,154.573 283.487,188.282 293.32,215.036 296.631,234.836 319.156,288.882 327.208,326.341 329.896,358.982 
	336.323,397.511 346.494,462.259 355.057,487.944 363.619,518.445 365.783,600 532.53,600 "/>
</svg>
