<?xml version="1.0" encoding="utf-8"?>
<!-- Generator: Adobe Illustrator 15.1.0, SVG Export Plug-In . SVG Version: 6.00 Build 0)  -->
<!DOCTYPE svg PUBLIC "-//W3C//DTD SVG 1.1//EN" "http://www.w3.org/Graphics/SVG/1.1/DTD/svg11.dtd">
<svg version="1.1" id="Calque_1" xmlns="http://www.w3.org/2000/svg" xmlns:xlink="http://www.w3.org/1999/xlink" x="0px" y="0px"
	 width="800px" height="600px" viewBox="0 0 800 600" enable-background="new 0 0 800 600" xml:space="preserve">
<rect x="-0.111" fill="#186D94" width="800" height="600"/>
<polygon fill="#5FBAED" points="129.939,321.251 110.601,337.978 93.43,344.217 91.172,337.889 102.42,292.828 91.545,264.727 
	58.28,256.423 35.475,276.117 24.227,321.178 19.26,325.702 7.07,312.134 -2.156,288.277 -3.245,261.941 -0.006,248.966 
	11.251,228.97 29.646,215.517 44.15,207.609 56.888,202.769 82.252,52.966 92.448,36.213 103.649,26.478 120.161,21.578 
	134.053,22.185 134.097,22.049 134.416,22.201 134.769,22.217 134.744,22.357 147.29,28.35 159.562,40.435 164.875,54.292 
	166.002,73.872 117.989,218.021 126.957,228.28 136.044,242.076 145.959,262.596 146.498,285.537 143.26,298.512 "/>
<g>
	<polygon fill="#5FBAED" points="202.1,501.253 207.516,531.181 257.464,541.59 302.039,517.77 417.365,498.229 412.025,466.5 
		298.685,485.014 248.551,475.707 	"/>
	<polygon fill="#3399CC" points="409.812,451.655 562.721,428.073 570.455,426.904 581.642,429.486 589.725,435.375 
		597.178,446.373 598.231,461.061 595.059,473.904 586.814,485.221 576.48,490.064 419.445,513.111 	"/>
	<polygon fill="#5FBAED" points="563.867,439.633 565.264,448.521 412.959,472.537 411.559,463.55 	"/>
	<polygon fill="#5FBAED" points="569.224,464.361 570.834,472.34 416.906,496.87 415.524,488.14 	"/>
</g>
<g>
	<polygon fill="#5FBAED" points="735.859,229.725 800,148.997 778.616,130.154 752.801,122.017 751.701,105.112 669.448,41.905 
		625.585,24.752 570.471,21.5 532.148,28.688 503.614,39.516 569.526,56.605 606.723,73.384 622.842,84.586 633.171,96.686 
		631.764,122.105 669.862,171.894 697.303,178.189 709.578,216.441 	"/>
	<polygon fill="#3399CC" points="446.339,332.908 441.808,350.907 451.855,369.756 472.729,379.153 492.105,373.237 
		669.674,171.729 631.952,122.271 	"/>
</g>
<g>
	
		<rect x="325.029" y="68.909" transform="matrix(-0.999 0.0446 -0.0446 -0.999 671.6644 500.2705)" fill="#BBE5F3" width="10.453" height="377.425"/>
	
		<rect x="283.661" y="49.703" transform="matrix(-0.9991 -0.0427 0.0427 -0.9991 567.3337 488.9462)" fill="#BBE5F3" width="10.454" height="377.424"/>
</g>
</svg>
