<?xml version="1.0" encoding="utf-8"?>
<!-- Generator: Adobe Illustrator 15.1.0, SVG Export Plug-In . SVG Version: 6.00 Build 0)  -->
<!DOCTYPE svg PUBLIC "-//W3C//DTD SVG 1.1//EN" "http://www.w3.org/Graphics/SVG/1.1/DTD/svg11.dtd">
<svg version="1.1" id="Calque_1" xmlns="http://www.w3.org/2000/svg" xmlns:xlink="http://www.w3.org/1999/xlink" x="0px" y="0px"
	 width="456.156px" height="213.748px" viewBox="0 0 456.156 213.748" enable-background="new 0 0 456.156 213.748"
	 xml:space="preserve">
<polygon fill="#91C9E8" points="0,82.97 0,187.849 224.583,174.56 238.543,178.478 250.3,182.398 279.936,187.053 297.569,189.994 
	312.51,191.225 329.654,194.911 354.392,205.22 363.455,206.736 375.699,211.237 391.129,213.748 399.701,213.748 403.131,207.134 
	399.946,200.031 388.926,194.398 363.208,185.826 338.961,174.07 335.287,171.13 336.266,166.722 340.43,165.987 348.023,167.212 
	375.454,173.58 397.741,174.315 412.927,176.764 426.397,178.478 437.787,177.009 441.828,171.131 441.093,164.519 437.052,160.478 
	420.152,156.439 400.313,153.869 370.556,146.894 354.391,144.701 351.084,141.415 350.717,138.15 355.125,136.396 399.211,136.396 
	446.972,134.111 453.951,129.989 456.156,122.279 452.85,116.41 443.664,112.021 399.211,110.222 366.881,112.138 349.615,112.138 
	349.242,108.019 351.443,105.002 356.945,103.348 374.93,100.226 400.567,94.348 419.558,92.144 436.965,87.367 439.449,82.224 
	439.449,73.774 433.842,69.733 414.641,69.365 386.354,71.569 350.35,78.918 338.594,79.654 323.529,81.86 312.141,80.026 
	300.752,75.991 295.241,68.656 300.018,54.72 315.814,38.974 322.428,28.788 327.57,9.517 322.795,0 315.814,0 308.095,15.211 
	293.395,26.749 276.117,41.812 258.831,51.73 226.095,92.144 203.975,98.021 "/>
<polygon fill="#B4DCED" points="195.111,180.248 187.611,92.248 53.111,83.248 53.111,188.248 "/>
</svg>
