<?xml version="1.0" encoding="utf-8"?>
<!-- Generator: Adobe Illustrator 15.1.0, SVG Export Plug-In . SVG Version: 6.00 Build 0)  -->
<!DOCTYPE svg PUBLIC "-//W3C//DTD SVG 1.1//EN" "http://www.w3.org/Graphics/SVG/1.1/DTD/svg11.dtd">
<svg version="1.1" id="Calque_1" xmlns="http://www.w3.org/2000/svg" xmlns:xlink="http://www.w3.org/1999/xlink" x="0px" y="0px"
	 width="108.266px" height="263.272px" viewBox="0 0 108.266 263.272" enable-background="new 0 0 108.266 263.272"
	 xml:space="preserve">
<g>
	<path fill="#EFDCCF" d="M102.103,115.872l-0.716-5.901c0,0-12.225-32.681-14.267-38.057c-2.043-5.375-14.583-2.849-14.583-2.849
		l17.351,45.216l0.038,0.005l-2.115,41.159l-3.938,0.683l-2.051,1.961l-1.75,1.68l-3.061,6.708l1.781,0.6l1.515-3.661l1.319-1.174
		l1.051-0.096l0.889,0.791l-0.33,2.633l-1.764,6.704l1.688,0.507l2.058-6.793l0.698,0.228l-2.383,9.111l1.861,0.354l2.29-8.915
		l1.096,0.523l-2.053,7.156l1.717,0.327l1.892-6.866l1.229,0.443l-1.527,5.024l1.361,0.257l1.496-5.037l2.135-4.707l-0.873-7.756
		L102.103,115.872z"/>
	<path fill="#EFDCCF" d="M5.726,115.872l0.716-5.901c0,0,12.224-32.681,14.267-38.057c2.042-5.375,14.583-2.849,14.583-2.849
		L17.94,114.281l-0.038,0.005l2.114,41.159l3.938,0.683l2.051,1.961l1.75,1.68l3.061,6.708l-1.782,0.6l-1.515-3.661l-1.319-1.174
		l-1.051-0.096l-0.889,0.791l0.331,2.633l1.763,6.704l-1.688,0.507l-2.057-6.793l-0.699,0.228l2.383,9.111l-1.861,0.354l-2.29-8.915
		l-1.096,0.523l2.052,7.156l-1.716,0.327l-1.892-6.866l-1.23,0.443l1.527,5.024l-1.361,0.257l-1.496-5.037l-2.135-4.707l0.873-7.756
		L5.726,115.872z"/>
	<polygon fill="#EFDCCF" points="24.398,110.577 83.859,110.577 80.524,68.577 29.279,68.577 	"/>
	<path fill="#EBD3C3" d="M36.625,50.983l2.158,17.37c0,0,4.109,3.686,15.16,3.686s15.954-3.686,15.954-3.686l1.886-15.719
		L36.625,50.983z"/>
	<polygon fill="#665891" points="0,221.577 108.266,221.577 92.136,152.002 81.715,100.489 78.986,68.577 74.746,68.577 
		59.289,76.577 48.724,76.577 32.935,68.577 29.279,68.577 26.497,100.708 16.129,152.013 	"/>
	<polygon fill="#EFDCCF" points="60.102,221.577 61.191,257.577 76.883,257.577 82.815,221.577 	"/>
	<polygon fill="#EFDCCF" points="52.314,221.577 51.316,257.577 35.624,257.577 30.087,221.577 	"/>
	<path fill="#603813" d="M64.439,263.257l-4.338-0.791c0,0,0.547-6.871,1.492-7.821s5.369-2.502,6.166-2.632
		c0.796-0.129,2.896-0.585,4.247,0s4.06,2.728,4.788,4.214c0.729,1.488,1.114,6.045,1.114,6.045l-5.902,1.001L64.439,263.257z"/>
	<path fill="#603813" d="M47.987,263.257l4.338-0.791c0,0-0.547-6.871-1.492-7.821c-0.945-0.95-5.37-2.502-6.166-2.632
		c-0.796-0.129-2.897-0.585-4.248,0s-4.06,2.728-4.789,4.214c-0.729,1.488-1.114,6.045-1.114,6.045l5.902,1.001L47.987,263.257z"/>
	<path fill="#B3B3B3" d="M20.887,36.041c0,13.759,17.055,25.409,33.183,25.409S87.252,49.8,87.252,36.041
		C87.252,22.283,70.197,0,54.069,0S20.887,22.283,20.887,36.041z"/>
</g>
</svg>
