<?xml version="1.0" encoding="utf-8"?>
<!-- Generator: Adobe Illustrator 15.1.0, SVG Export Plug-In . SVG Version: 6.00 Build 0)  -->
<!DOCTYPE svg PUBLIC "-//W3C//DTD SVG 1.1//EN" "http://www.w3.org/Graphics/SVG/1.1/DTD/svg11.dtd">
<svg version="1.1" id="Calque_1" xmlns="http://www.w3.org/2000/svg" xmlns:xlink="http://www.w3.org/1999/xlink" x="0px" y="0px"
	 width="150.091px" height="299.884px" viewBox="0 0 150.091 299.884" enable-background="new 0 0 150.091 299.884"
	 xml:space="preserve">
<g>
	<path fill="#8C6239" d="M100.247,44.375l-2.156-3.01l-0.805,1.331l-1.5,2.804l-3.822,2.125l-6.885,0.75l-0.979-2l-3.898-0.5
		l-4.666-0.75l-4.875,0.25L65.088,46.5l-2.561,2.375l-6.325-1.125l-3.769-3l-2.923-3.992l0.166,3.099l-1.82,3.018L48.51,50l0.176,4
		l-0.774,4l1.6,4.267L53.031,65l4.13,4.875l6.083,2.518l6.417,3.357l3.378-0.459l4.747,0.012l8.812-2.91l5.365-5l4.072-2.268
		l2.5-7.125l1.711-5.5l-1.124-1.67L100.247,44.375z M80.067,55.75l-6.163,0.5L68.067,56l-4.823-2l-0.717-3l2.561-1.5l6.823-0.75
		l2.597,0.281l2.57-0.281l6.849,1.625l2.069,1.25l-0.407,1.694l-1.662,1.556L80.067,55.75z"/>
	<polygon fill="#42210B" points="46.672,299.311 59.475,299.016 48.539,291.126 41.067,289.188 33.896,289.188 25.81,293.06 
		23.929,298.324 33.896,299.248 	"/>
	<polygon fill="#42210B" points="97.735,299.884 91.724,299.016 96.294,291.567 108.854,289.188 116.026,289.188 124.112,293.06 
		125.991,298.324 116.026,299.248 	"/>
	<g>
		<polygon fill="#E8A990" points="150.091,118.801 145.882,95.569 139.052,78.792 130.114,72.337 119.87,71.016 112.715,77.673 
			111.937,88.175 113.841,97.515 121.444,114.478 130.963,123.606 127.524,129.487 121.682,161.716 114.869,162.515 
			111.321,164.809 108.294,166.773 103,174.623 106.081,175.325 108.703,171.04 110.983,169.668 112.8,169.554 114.339,170.48 
			113.766,173.562 110.717,181.406 113.636,181.998 117.196,174.052 118.403,174.318 114.282,184.979 117.503,185.393 
			121.461,174.963 123.358,175.575 119.81,183.948 122.777,184.329 126.049,176.298 128.177,176.814 125.534,182.693 
			127.888,182.996 134.169,171.592 132.66,162.518 146.795,135.832 146.345,130.868 149.757,125.471 		"/>
		<polygon fill="#C7B299" points="150.091,118.801 145.882,95.569 139.052,78.792 130.114,72.337 119.87,71.016 112.715,77.673 
			111.937,88.175 113.841,97.515 121.444,114.478 130.963,123.606 127.524,129.487 122.884,155.087 134.82,158.44 146.795,135.832 
			146.345,130.868 149.757,125.471 		"/>
	</g>
	<g>
		<polygon fill="#E8A990" points="0,118.801 4.208,95.569 11.039,78.792 19.977,72.337 30.22,71.016 37.376,77.673 38.154,88.175 
			36.25,97.515 28.646,114.478 19.128,123.606 22.566,129.487 28.409,161.716 35.222,162.515 38.77,164.809 41.797,166.773 
			47.091,174.623 44.009,175.325 41.388,171.04 39.107,169.668 37.291,169.554 35.751,170.48 36.325,173.562 39.374,181.406 
			36.455,181.998 32.894,174.052 31.688,174.318 35.809,184.979 32.587,185.393 28.63,174.963 26.732,175.575 30.281,183.948 
			27.313,184.329 24.042,176.298 21.914,176.814 24.557,182.693 22.203,182.996 15.921,171.592 17.431,162.518 3.296,135.832 
			3.746,130.868 0.333,125.471 		"/>
		<polygon fill="#C7B299" points="0,118.801 4.208,95.569 11.039,78.792 19.977,72.337 30.22,71.016 37.376,77.673 38.154,88.175 
			36.25,97.515 28.646,114.478 19.128,123.606 22.566,129.487 27.207,155.087 15.271,158.44 3.296,135.832 3.746,130.868 
			0.333,125.471 		"/>
	</g>
	<path fill="#DE9D7E" d="M102.968,28.033c0,0,2.44,4.877-1.32,11.617l-4.898,1.108l2.104-12.176L102.968,28.033z"/>
	<polygon fill="#603813" points="125.152,296.158 113.705,297.657 98.352,297.25 94.257,296.713 93.485,285.752 88.365,269.646 
		87.854,245.207 79.91,219.237 80.24,209.692 73.829,206.392 66.978,209.692 65.838,223.544 64.305,263.535 59.182,281.587 
		58.926,296.713 49.417,295.109 38.467,295.744 30.179,293.657 22.224,296.158 23.548,276.626 19.235,247.931 21.887,211.311 
		16.915,192.64 18.557,164.188 128.816,164.188 124.665,201.108 127.392,215.64 124.003,242.443 126.281,255.565 123.672,275.255 
		125.347,289.2 	"/>
	<polygon fill="#E2A28A" points="129.229,164.188 18.536,164.188 18.607,95.448 27.925,71.549 49.676,70.188 94.33,70.188 
		130.22,72.888 129.255,95.681 	"/>
	<path fill="#C2AD94" d="M129.229,164.188H18.536l0.071-68.741l9.318-23.994l21.75-1.431c0,0,9.868,11.988,22.822,11.988
		S94.33,70.006,94.33,70.006l35.89,2.791l-0.965,22.838L129.229,164.188z"/>
	<path fill="#DE9D7E" d="M53.031,53.319l2.032,17.405c0,0,4.606,4.578,16.99,4.578s17.881-4.578,17.881-4.578l2.03-16.856
		L53.031,53.319z"/>
	<polygon fill="#E8A990" points="49.56,18.188 48.686,25.412 50.619,61.547 68.613,67.416 81.187,65.872 96.749,60.37 
		99.123,26.839 97.81,18.188 	"/>
	<path fill="#DE9D7E" d="M44.99,28.033c0,0-3.505,4.877,0.256,11.617l4.265,1.108l-0.498-12.252L44.99,28.033z"/>
	<polygon fill="#8C6239" points="49.013,28.505 43.505,25.75 45.507,19.875 42.038,16.934 44.613,10.25 46.508,10.25 49.511,6.375 
		53.435,3.75 58.787,4.75 61.412,1.25 67.375,2.623 74.535,0 80.596,2.623 91.537,2.623 91.978,5.875 95.537,6.625 100.124,8.75 
		100.247,12.75 103.952,13.75 103.952,19.375 100.247,21.75 100.911,23.375 98.999,28.505 98.508,35.456 97.888,44.239 92.953,52 
		86.036,58.254 72.498,60.875 59.536,58.254 54.286,53.319 49.511,44.467 49.511,34.396 	"/>
</g>
</svg>
