<?xml version="1.0" encoding="utf-8"?>
<!-- Generator: Adobe Illustrator 15.1.0, SVG Export Plug-In . SVG Version: 6.00 Build 0)  -->
<!DOCTYPE svg PUBLIC "-//W3C//DTD SVG 1.1//EN" "http://www.w3.org/Graphics/SVG/1.1/DTD/svg11.dtd">
<svg version="1.1" id="Calque_1" xmlns="http://www.w3.org/2000/svg" xmlns:xlink="http://www.w3.org/1999/xlink" x="0px" y="0px"
	 width="800px" height="600px" viewBox="0 0 800 600" enable-background="new 0 0 800 600" xml:space="preserve">
<g>
	<rect fill="#8B6332" width="800" height="600"/>
	<rect opacity="0.35" width="800" height="600"/>
</g>
<rect x="112.179" y="65" fill="#8C6239" width="144.5" height="310"/>
<rect x="256.679" y="65" opacity="0.54" width="143.321" height="310"/>
<rect x="123.715" y="192.807" fill="#A47343" width="13.964" height="39.43"/>
<rect x="127.965" y="199.881" fill="#B88451" width="32.785" height="6.246"/>
<rect x="551" y="120" fill="#BCCBD4" width="55" height="41"/>
<rect x="612" y="120" fill="#BCCBD4" width="55" height="41"/>
<rect x="551" y="169" fill="#BCCBD4" width="55" height="41"/>
<rect x="612" y="169" fill="#BCCBD4" width="55" height="41"/>
<rect y="375" opacity="0.2" width="800" height="225"/>
<polygon fill="#A47343" points="535,295 522,295 493,375 506,375 "/>
<polygon fill="#A47343" points="689,295 702,295 731,375 718,375 "/>
<rect x="506" y="284" fill="#A47343" width="209" height="13"/>
<g>
	<polygon fill="#006837" points="547.591,223.915 550.054,222.904 551.998,220.283 550.775,212.322 546.442,216.918 
		545.817,220.999 546.418,222.97 539,217 536.975,209.658 539.741,210.041 542.719,208.762 545.644,201.319 539.63,203.101 
		537.058,206.291 536.592,208.269 535,202.5 536.25,192.75 534.83,196.726 534.439,194.99 527.408,190.594 528.082,197.063 
		530.846,200.293 533.187,201.327 532.5,203.25 535.545,212.554 534.422,211.817 527.228,213.353 531.648,217.061 535.401,217.415 
		536.949,216.844 537,217 545.75,227 546.183,228.405 542.818,226.614 535.926,227.771 540.977,233.706 544.492,233.525 
		547.248,231.868 549.75,240 552.25,240 549.25,225.25 	"/>
	<polygon fill="#006837" points="590.301,220.291 584.859,222.215 586.75,219 587.2,216.187 590.289,217 594.876,215.604 
		599.681,208.873 590.488,208.125 588.06,210.814 588.75,206.5 584.78,216.027 583.943,213.276 576.974,208.301 576.616,212.695 
		569.9,212.307 565.403,215.04 564,217.194 564,207.395 567.25,208.25 573,206.5 579.022,198.062 567.5,197.125 564,201 564,194 
		561.574,203.702 561.611,202.658 560.074,199.364 552.443,197.987 554.757,204.878 558.148,207.099 561,207.072 561,220.013 
		555.566,213.8 554.048,221.708 556.166,226.525 558.955,228.918 555.125,240 558.25,240 560.658,232.879 562.518,233.854 
		565.319,233.688 569.889,228.481 564.465,228.168 561.68,229.861 564,223 564,219.156 567.014,220.737 571.167,220.489 
		576.474,214.441 576.199,217.819 579.4,220.709 581.901,221.335 579.022,225.75 575.415,227.949 574.916,224.631 573.552,222.125 
		569.062,222.731 571.408,228.188 573.385,229.187 570,231.25 564,241 567,241 570.454,234.273 571.745,236.481 575.321,238.385 
		582.214,237.229 577.163,231.293 573.646,231.475 571.107,233.002 571.75,231.75 581.75,227.5 582.232,226.681 586.321,230.059 
		591.438,231.1 600.155,223.507 	"/>
</g>
<path fill="#23003F" d="M579.022,258.845c0,13.893-9.854,25.155-22.011,25.155C544.854,284,535,272.737,535,258.845
	c0-6.764,2.336-14.457,6.136-20.571l31.439-0.492C576.559,243.971,579.022,251.897,579.022,258.845z"/>
</svg>
