<?xml version="1.0" encoding="utf-8"?>
<!-- Generator: Adobe Illustrator 15.1.0, SVG Export Plug-In . SVG Version: 6.00 Build 0)  -->
<!DOCTYPE svg PUBLIC "-//W3C//DTD SVG 1.1//EN" "http://www.w3.org/Graphics/SVG/1.1/DTD/svg11.dtd">
<svg version="1.1" id="Calque_1" xmlns="http://www.w3.org/2000/svg" xmlns:xlink="http://www.w3.org/1999/xlink" x="0px" y="0px"
	 width="855.33px" height="160.518px" viewBox="0 0 855.33 160.518" enable-background="new 0 0 855.33 160.518"
	 xml:space="preserve">
<path opacity="0.35" d="M855.33,160.518H0l8.459-43.773l16.094-15.812l20.734-9.331l9.664-11.024l-3.572-6.361L44.66,53.436V36.471
	l5.682-15.266l9.076-12.723l21.252-0.85l23.42,10.178l6.551,16.116l-5.98,28.415v11.873l10,13.146l15.088,6.785l19.912,63.63
	v-10.603l7.865-30.957l11.258-30.109l14.42-21.206l19.508-4.239l16.115,8.481l5.938,20.354l8.48,20.356l5.09,21.204l16.963,9.33
	l16.965,9.329l8.396,5.47l5.174,4.243l7.494-4.91l10.666-0.667l10.666,1.334l14.432-0.129l15.268-11.025l-1.693-16.325
	l-5.934-16.753l7.641-21.205l14.438-5.089l16.146-2.544l17.029,10.178l6.916,17.812l-3.979,17.602l-6.262,10.812v17.385l7.109,2.378
	l18.225-2.765h36l13.953-3.174l-11.873-10.012l-5.936-20.355L441.9,99.925l10.184-18.659l14.431-9.33l18.683-1.696l14.465,7.634
	c0,0,11.117,11.874,12.813,14.419c1.696,2.544-1.515,20.355-1.515,20.355l-4.301,8.06v21.626l8.754,3.395l16.387,9.329l14.859,2.795
	l13.98-1.021l9.334-14.418l14.426-10.18l15.28-5.09l3.42-9.329l-4.187-6.785l-6.254-15.688V77.104l8.578-17.811l11.967-5.089
	l20.334,4.239l9.713,11.875l6.277,11.026l-1.018,13.36l-5.85,9.541v9.329c0,0,0.545,0,8.179,4.239
	c7.633,4.241,0.547,10.179,0.547,10.179l16.958,12.723l23.314,2.6v-34.752l10-15.266l10-10.602v-16.54l7-3.815V39.862l4.535-22.052
	l15.562-14.418L754.875,0l20.363,6.785l12.735,33.927l11.052,30.535L816.33,88.76l15,17l15,9L855.33,160.518z"/>
</svg>
