<?xml version="1.0" encoding="utf-8"?>
<!-- Generator: Adobe Illustrator 15.1.0, SVG Export Plug-In . SVG Version: 6.00 Build 0)  -->
<!DOCTYPE svg PUBLIC "-//W3C//DTD SVG 1.1//EN" "http://www.w3.org/Graphics/SVG/1.1/DTD/svg11.dtd">
<svg version="1.1" id="Calque_1" xmlns="http://www.w3.org/2000/svg" xmlns:xlink="http://www.w3.org/1999/xlink" x="0px" y="0px"
	 width="99.171px" height="301.958px" viewBox="0 0 99.171 301.958" enable-background="new 0 0 99.171 301.958"
	 xml:space="preserve">
<g>
	<polygon fill="#C7B299" points="83.029,298.6 78.155,294.247 65.49,295.788 62.81,299.137 62.306,288.534 58.957,272.952 
		58.622,249.311 53.421,224.188 53.638,214.956 49.444,211.762 44.959,214.956 44.214,228.356 43.209,267.042 39.858,284.504 
		39.691,299.137 32.159,293.717 26.3,292.395 20.876,294.247 15.671,298.6 16.538,279.706 13.717,251.946 15.453,216.52 
		12.198,198.547 13.274,171.11 85.427,171.11 82.71,206.741 84.495,220.752 82.277,246.659 83.767,259.342 82.06,278.383 
		83.157,291.874 	"/>
	<polygon fill="#DE9D7E" points="85.697,171.11 13.259,171.11 13.304,104.524 19.405,80.991 33.636,79.261 62.859,79.261 
		86.345,82.243 85.712,104.565 	"/>
	<polygon fill="#42210B" points="31.941,301.813 40.863,301.51 33.244,293.95 28.036,292.526 23.04,292.526 17.406,295.944 
		16.095,301.081 23.04,301.889 	"/>
	<polygon fill="#42210B" points="65.742,302.405 61.554,301.51 64.736,294.409 73.49,292.526 78.489,292.526 84.123,295.944 
		85.433,301.081 78.489,301.889 	"/>
	<polygon fill="#A67C52" points="67.128,77.513 65.03,93.107 57.47,105.821 11.429,110.163 8.247,134.466 11.718,156.747 
		8.247,173.817 24.269,182.499 46.15,180.184 62.931,182.499 80.582,178.157 90.998,177.288 88.103,152.985 80.886,132.005 
		77.562,121.808 84.343,95.298 89.261,80.649 	"/>
	<path fill="#CD957E" d="M32.442,64.011l1.7,14.568c0,0,3.854,3.832,14.222,3.832c10.366,0,14.966-3.832,14.966-3.832l1.7-14.109
		L32.442,64.011z"/>
	<polygon fill="#DE9D7E" points="28.23,36.482 29.857,64.552 45.483,77.571 56.007,76.233 68.921,63.192 72.064,36.482 	"/>
	<path fill="#CD957E" d="M75.757,42.958c0,0,0.543,5.751-2.604,11.394l-3.322,0.982l1.221-10.415L75.757,42.958z"/>
	<path fill="#CD957E" d="M23.32,42.958c0,0-0.542,5.751,2.605,11.394l3.403,0.982L28.74,45.14L23.32,42.958z"/>
	<polygon fill="#CD957E" points="44.269,56.417 50.851,52.729 55.48,55.911 	"/>
	<g>
		<path fill="#D2D2D2" d="M23.792,31.57v4.912h48.073l4.143-1.121v-4.225C76.007,31.136,49.585,29.406,23.792,31.57z"/>
		<path fill="#E6E6E6" d="M50.455,8.233c-23.22,0-25.051,23.112-25.051,23.112l25.051,0.55l25.051-0.55
			C75.505,31.345,73.673,8.233,50.455,8.233z"/>
	</g>
	<polygon fill="#D2D2D2" points="27.849,23.492 35.61,13.013 33.375,10.158 23.614,23.438 	"/>
	<polygon fill="#D2D2D2" points="73.041,23.492 65.279,13.013 67.513,10.158 77.275,23.438 	"/>
	<polyline fill="#D2D2D2" points="50.158,5.019 52.431,8.815 50.166,11.417 47.849,8.82 50.158,5.019 	"/>
	<path fill="#E8E3E3" d="M24.757,21.88c0,0-13.564-8.764-3.039-22.328c0,0-0.057,8.067,10.252,12.516L24.757,21.88z"/>
	<path fill="#E8E3E3" d="M76.124,21.871c0,0,4.13-2.535,6.081-7.006l-1.369-3.186l-1.99,0.289l0.58-1.555l-3.383-3.349
		c-1.543,1.834-3.685,3.628-7.064,5.086L76.124,21.871z"/>
	<polygon fill="#8C6239" points="28.741,45.132 24.007,43.234 22.579,40.809 23.671,36.482 37.533,36.482 32.371,40.464 
		29.177,38.729 	"/>
	<polygon fill="#8C6239" points="26.306,54.462 24.269,63.833 29.685,61.513 29.33,55.333 	"/>
	<polygon fill="#8C6239" points="72.98,54.402 75.257,63.94 73.333,63.118 70.853,65.243 69.417,62.943 68.921,63.105 
		69.832,55.333 	"/>
	<polygon fill="#8C6239" points="69.832,36.482 68.921,38.902 70.441,39.394 71.431,41.072 68.611,45.581 71.05,44.925 
		75.017,43.271 77.29,39.782 76.192,36.955 74.306,35.913 72.064,36.482 	"/>
	<polygon fill="#8C6239" points="54.685,36.482 61.63,39.304 67.128,36.482 	"/>
	<polyline fill="#8C6239" points="38.482,36.275 35.61,41.553 41.232,44.519 37.904,40.704 41.593,36.275 	"/>
	<path fill="#FFFFFF" d="M44.529,49.217c0.029-0.645-0.275-1.537-1.215-2.206c-0.939-0.668-4.777-1.459-6.127-1.289
		c-1.348,0.171-2.451,0.878-2.477,2.015c-0.023,1.135,1.205,2.792,2.129,3.212c0.922,0.421,3.377,0.417,4.6,0.147
		C42.662,50.828,44.498,49.862,44.529,49.217z"/>
	<circle fill="#99C6E4" cx="39.566" cy="48.607" r="2.168"/>
	<circle fill="#4D4D4D" cx="39.625" cy="48.591" r="0.862"/>
	<circle fill="#FFFFFF" cx="40.351" cy="47.888" r="0.461"/>
	<path fill="#FFFFFF" d="M54.677,49.217c-0.029-0.645,0.274-1.537,1.215-2.206c0.938-0.668,4.777-1.459,6.125-1.289
		c1.349,0.17,2.453,0.878,2.478,2.015c0.024,1.135-1.204,2.792-2.126,3.212c-0.924,0.421-3.379,0.417-4.602,0.147
		C56.543,50.827,54.708,49.862,54.677,49.217z"/>
	<circle fill="#99C6E4" cx="59.64" cy="48.607" r="2.168"/>
	<circle fill="#4D4D4D" cx="59.736" cy="48.591" r="0.863"/>
	<circle fill="#FFFFFF" cx="60.458" cy="47.888" r="0.461"/>
	<polygon opacity="0.27" fill="#C1272D" enable-background="new    " points="42.533,65.12 47.017,67.309 52.732,67.309 
		58.302,65.12 52.661,64.163 47.742,64.163 	"/>
	<polygon opacity="0.55" fill="#CD957E" enable-background="new    " points="44.532,71.692 46.439,69.824 53.093,69.824 
		54.675,71.692 52.732,70.964 47.017,70.441 	"/>
	<polygon fill="#8C6239" points="54.675,45.699 61.323,44.627 66.042,46.001 62.665,43.639 58.873,43.879 	"/>
	<polygon fill="#8C6239" points="44.45,45.699 37.804,44.627 33.083,46.001 36.46,43.639 40.253,43.879 	"/>
	<g>
		<polygon fill="#DE9D7E" points="0,126.261 2.703,104.212 7.087,88.286 12.826,82.161 19.405,80.905 23.998,87.224 24.497,97.192 
			23.275,106.056 18.392,122.155 12.282,130.821 14.488,136.402 18.242,166.993 22.614,167.747 24.892,169.928 26.835,171.792 
			30.235,179.241 28.255,179.909 26.575,175.842 25.11,174.538 23.942,174.432 22.957,175.309 23.323,178.235 25.281,185.68 
			23.406,186.241 21.121,178.7 20.344,178.952 22.991,189.071 20.923,189.461 18.38,179.563 17.165,180.147 19.443,188.092 
			17.537,188.454 15.436,180.831 14.071,181.321 15.766,186.903 14.254,187.188 12.594,181.592 10.223,176.366 11.193,167.752 
			2.116,142.425 2.407,137.714 0.214,132.589 		"/>
		<polygon fill="#FBB03B" points="18.285,165.413 10.463,166.725 6.271,155.167 16.679,152.842 		"/>
	</g>
	<g>
		<polygon fill="#DE9D7E" points="99.171,126.261 96.468,104.212 92.083,88.286 86.345,82.161 79.765,80.905 75.173,87.224 
			74.675,97.192 75.896,106.056 80.778,122.155 86.888,130.821 84.683,136.402 80.929,166.993 76.556,167.747 74.278,169.928 
			72.335,171.792 68.935,179.241 70.916,179.909 72.595,175.842 74.062,174.538 75.228,174.432 76.214,175.309 75.847,178.235 
			73.89,185.68 75.765,186.241 78.048,178.7 78.826,178.952 76.179,189.071 78.248,189.461 80.791,179.563 82.005,180.147 
			79.728,188.092 81.634,188.454 83.735,180.831 85.099,181.321 83.405,186.903 84.916,187.188 86.577,181.592 88.949,176.366 
			87.978,167.752 97.054,142.425 96.765,137.714 98.957,132.589 		"/>
		<polygon fill="#FBB03B" points="80.886,165.413 88.708,166.725 92.9,155.167 82.492,152.842 		"/>
	</g>
	<polygon fill="#A67C52" points="70.345,77.915 89.451,80.649 86.988,96.177 80.933,103.941 79.199,116.241 70.345,114.646 	"/>
</g>
</svg>
