<?xml version="1.0" encoding="utf-8"?>
<!-- Generator: Adobe Illustrator 15.1.0, SVG Export Plug-In . SVG Version: 6.00 Build 0)  -->
<!DOCTYPE svg PUBLIC "-//W3C//DTD SVG 1.1//EN" "http://www.w3.org/Graphics/SVG/1.1/DTD/svg11.dtd">
<svg version="1.1" id="Calque_1" xmlns="http://www.w3.org/2000/svg" xmlns:xlink="http://www.w3.org/1999/xlink" x="0px" y="0px"
	 width="800px" height="600px" viewBox="0 0 800 600" enable-background="new 0 0 800 600" xml:space="preserve">
<g>
	<rect fill="#003E5A" width="800" height="600"/>
</g>
<rect x="234" y="27.482" fill="#00557C" width="332" height="569.218"/>
<rect x="369.723" y="222.932" fill="#147DA5" width="60.555" height="116.846"/>
<polygon fill="#186D94" points="432.918,346.521 367.081,346.521 369.723,339.777 430.277,339.777 "/>
<path fill="#00557C" d="M407.322,326.907l-3.472-20.234c2.007-1.274,3.339-3.517,3.339-6.069c0-3.973-3.22-7.191-7.189-7.191
	c-3.972,0-7.19,3.22-7.19,7.191c0,2.553,1.333,4.795,3.34,6.068l-3.472,20.235H407.322L407.322,326.907z"/>
<polygon fill="#3285A6" points="367.081,231.731 367.081,339.777 367.081,346.521 369.723,339.777 369.723,222.932 "/>
<polygon fill="#3285A6" points="432.918,231.731 432.918,339.777 432.918,346.521 430.277,339.777 430.277,222.932 "/>
<ellipse fill="#5FBAED" cx="399.999" cy="271.191" rx="16.425" ry="13.654"/>
<path fill="#B77E68" d="M416.047,274.103c-16.46,16.352-31.835,0.274-32.094,0c1.604,6.142,8.178,10.743,16.047,10.743
	S414.441,280.245,416.047,274.103z"/>
<path fill="#3399CC" d="M416.047,274.103c-16.46,16.352-31.835,0.274-32.094,0c1.604,6.142,8.178,10.743,16.047,10.743
	S414.441,280.245,416.047,274.103z"/>
<path fill="#71CBF1" d="M415.727,267.246c-2.036-5.617-8.307-9.709-15.727-9.709c-7.421,0-13.689,4.092-15.727,9.709
	C384.366,267.215,398.399,257.602,415.727,267.246z"/>
<g>
	<polygon fill="#186D94" points="342.179,291.8 234,291.8 234,275.977 348.024,275.977 	"/>
	<polygon fill="#147DA5" points="342.179,260.154 234,260.154 234,275.977 348.024,275.977 	"/>
</g>
<g>
	<polygon fill="#186D94" points="457.822,291.8 566,291.8 566,275.977 451.975,275.977 	"/>
	<polygon fill="#147DA5" points="457.822,260.154 566,260.154 566,275.977 451.975,275.977 	"/>
</g>
<g>
	<polygon fill="#186D94" points="342.179,368.981 234,368.981 234,353.159 348.024,353.159 	"/>
	<polygon fill="#147DA5" points="342.179,337.336 234,337.336 234,353.159 348.024,353.159 	"/>
</g>
<g>
	<polygon fill="#186D94" points="457.822,368.981 566,368.981 566,353.159 451.975,353.159 	"/>
	<polygon fill="#147DA5" points="457.822,337.336 566,337.336 566,353.159 451.975,353.159 	"/>
</g>
<g>
	<polygon fill="#186D94" points="342.179,214.617 234,214.617 234,198.795 348.024,198.795 	"/>
	<polygon fill="#147DA5" points="342.179,182.972 234,182.972 234,198.795 348.024,198.795 	"/>
</g>
<g>
	<rect x="234" y="430.34" fill="#186D94" width="332" height="15.823"/>
	<rect x="234" y="414.518" fill="#147DA5" width="332" height="15.822"/>
</g>
<g>
	<polygon fill="#186D94" points="457.822,214.617 566,214.617 566,198.795 451.975,198.795 	"/>
	<polygon fill="#147DA5" points="457.822,182.972 566,182.972 566,198.795 451.975,198.795 	"/>
</g>
<g>
	<rect x="234" y="120.487" fill="#186D94" width="332" height="15.823"/>
	<rect x="234" y="104.665" fill="#147DA5" width="332" height="15.822"/>
</g>
<polygon fill="#186D94" points="800,451.835 634.123,451.835 634.123,463.179 695.914,463.179 695.914,600 713.551,600 
	713.551,463.179 800,463.179 "/>
</svg>
