<?xml version="1.0" encoding="utf-8"?>
<!-- Generator: Adobe Illustrator 15.1.0, SVG Export Plug-In . SVG Version: 6.00 Build 0)  -->
<!DOCTYPE svg PUBLIC "-//W3C//DTD SVG 1.1//EN" "http://www.w3.org/Graphics/SVG/1.1/DTD/svg11.dtd">
<svg version="1.1" id="Calque_1" xmlns="http://www.w3.org/2000/svg" xmlns:xlink="http://www.w3.org/1999/xlink" x="0px" y="0px"
	 width="800px" height="600px" viewBox="0 0 800 600" enable-background="new 0 0 800 600" xml:space="preserve">
<g id="Calque_1_1_">
	<rect x="0.024" y="-0.003" fill="#CEECF2" width="800" height="600"/>
	
		<linearGradient id="SVGID_1_" gradientUnits="userSpaceOnUse" x1="293.2109" y1="222.7114" x2="468.4697" y2="222.7114" gradientTransform="matrix(1 0 0 -1 4 596)">
		<stop  offset="0" style="stop-color:#E7FAFB"/>
		<stop  offset="1" style="stop-color:#E7FAFB"/>
	</linearGradient>
	<path fill="url(#SVGID_1_)" d="M300.435,599.997c0,0-20.965-189.25,44.035-260.625c65-71.375,74-113.546,71-131.46
		s-24.74-61.333-24.74-61.333h16.851c0,0,33.823,36.608,34.856,77.514c1.033,40.906-13.309,107.271-13.967,125.082
		c-3.138,84.823,44,221.823,44,250.823L300.435,599.997L300.435,599.997z"/>
	<polygon fill="#B4DCED" points="0.024,35.584 98.024,-12.039 163.524,28.084 253.024,2.586 295.024,35.584 320.811,16.46 
		336.024,35.584 403.284,-12.039 472.169,41.584 519.177,9.336 589.024,31.084 628.024,-12.039 688.284,41.584 754.024,-12.039 
		800.024,34.084 800.024,120.407 0.024,127.455 	"/>
	<polygon fill="#91C9E8" points="98.024,-12.039 163.524,28.084 200.408,17.576 	"/>
	<polygon fill="#91C9E8" points="253.024,2.586 295.024,35.584 312.989,22.261 	"/>
	<polygon fill="#91C9E8" points="320.811,16.46 336.024,35.584 352.256,24.091 	"/>
	<polygon fill="#91C9E8" points="403.284,-12.039 472.169,41.584 497.281,24.356 	"/>
	<polygon fill="#91C9E8" points="519.177,9.336 589.024,31.084 595.464,23.966 	"/>
	<polygon fill="#91C9E8" points="628.024,-12.039 688.284,41.584 712.464,21.861 	"/>
	<polygon fill="#91C9E8" points="754.024,-12.039 800.024,34.084 800.024,14.772 	"/>
	<g>
		<polygon fill="#E8F8FF" points="-40.333,147.704 34.664,-12.039 82.662,95.206 115.659,65.957 138.158,112.83 183.543,16.46 
			283.737,154.453 		"/>
		<polygon fill="#BBE5F3" points="149.195,89.394 115.659,65.957 138.158,112.83 		"/>
		<polygon fill="#BBE5F3" points="82.662,95.206 34.664,-12.039 105.929,74.582 		"/>
		<polygon fill="#BBE5F3" points="315.024,119.648 183.543,16.46 283.737,154.453 		"/>
	</g>
	<g>
		<polygon fill="#E8F8FF" points="465.724,146.579 454.991,2.586 381.024,85.832 332.443,65.583 261.216,138.473 		"/>
		<polygon fill="#BBE5F3" points="332.443,65.583 397.075,67.768 381.024,85.832 		"/>
		<polygon fill="#BBE5F3" points="454.991,2.586 465.724,146.579 536.358,135.648 		"/>
	</g>
	<g>
		<polygon fill="#E8F8FF" points="562.524,162.329 624.024,67.833 645.768,93.331 688.284,9.336 728.024,109.831 750.024,96.331 
			781.524,156.329 		"/>
		<polygon fill="#BBE5F3" points="624.024,67.833 645.768,93.331 654.688,75.707 		"/>
		<polygon fill="#BBE5F3" points="728.024,109.831 688.284,9.336 740.464,102.198 		"/>
		<polygon fill="#BBE5F3" points="750.024,96.331 781.524,156.329 795.024,138.981 		"/>
	</g>
	<g>
		<polygon fill="#E8F8FF" points="472.169,169.513 527.749,71.207 542.628,183.702 		"/>
		<polygon fill="#BBE5F3" points="600.546,162.419 527.749,71.207 542.628,183.702 		"/>
	</g>
	<g>
		<polygon fill="#E8F8FF" points="256.51,149.579 308.524,82.832 298.024,157.981 		"/>
		<polygon fill="#BBE5F3" points="346.524,146.579 308.524,82.832 298.024,157.981 		"/>
	</g>
	<g>
		<rect x="68.024" y="163.997" fill="#464541" width="3" height="6"/>
		<polygon fill="#B4DCED" points="73.054,149.997 75.688,149.997 69.482,139.817 63.275,149.997 65.909,149.997 60.711,163.997 
			69.46,163.997 78.252,163.997 		"/>
		<polygon fill="#459DBF" points="69.482,139.202 63.275,149.997 65.909,149.997 60.711,163.997 69.46,163.997 		"/>
		<polygon fill="#3285A6" points="69.482,139.202 75.688,149.997 73.054,149.997 78.252,163.997 69.46,163.997 		"/>
		<polygon opacity="0.1" fill="#464541" enable-background="new    " points="60.711,163.997 73.166,149.092 78.252,163.997 		"/>
	</g>
	<g>
		<rect x="146.024" y="415.997" fill="#464541" width="11" height="19"/>
		<polygon fill="#B4DCED" points="162.342,369.997 170.292,369.997 151.561,339.275 132.829,369.997 140.779,369.997 
			125.09,415.997 151.496,415.997 178.029,415.997 		"/>
		<polygon fill="#459DBF" points="151.561,339.29 132.829,369.997 140.779,369.997 125.09,415.997 151.496,415.997 		"/>
		<polygon fill="#3285A6" points="151.561,339.29 170.292,369.997 162.342,369.997 178.029,415.997 151.496,415.997 		"/>
		<polygon opacity="0.1" fill="#464541" enable-background="new    " points="125.09,415.997 162.678,371.014 178.029,415.997 		"/>
	</g>
	<g>
		<rect x="206.024" y="712.997" fill="#464541" width="25" height="42"/>
		<polygon fill="#B4DCED" points="242.657,609.997 260.424,609.997 218.561,541.338 176.698,609.997 194.466,609.997 
			159.404,712.997 218.416,712.997 277.715,712.997 		"/>
		<polygon fill="#459DBF" points="218.561,541.469 176.698,609.997 194.466,609.997 159.404,712.997 218.416,712.997 		"/>
		<polygon fill="#3285A6" points="218.561,541.469 260.424,609.997 242.657,609.997 277.715,712.997 218.416,712.997 		"/>
		<polygon opacity="0.1" fill="#464541" enable-background="new    " points="159.404,712.997 243.407,612.466 277.715,712.997 		
			"/>
	</g>
	<g>
		<rect x="257.024" y="330.997" fill="#464541" width="7" height="13"/>
		<polygon fill="#B4DCED" points="268.109,296.997 274.049,296.997 260.056,274.047 246.062,296.997 252.001,296.997 
			240.28,330.997 260.006,330.997 279.83,330.997 		"/>
		<polygon fill="#459DBF" points="260.056,273.875 246.062,296.997 252.001,296.997 240.28,330.997 260.006,330.997 		"/>
		<polygon fill="#3285A6" points="260.056,273.875 274.049,296.997 268.109,296.997 279.83,330.997 260.006,330.997 		"/>
		<polygon opacity="0.1" fill="#464541" enable-background="new    " points="240.28,330.997 268.36,297.392 279.83,330.997 		"/>
	</g>
	<g>
		<rect x="177.024" y="233.997" fill="#464541" width="4" height="9"/>
		<polygon fill="#B4DCED" points="184.205,210.997 188.083,210.997 178.943,196.006 169.802,210.997 173.683,210.997 
			166.026,233.997 178.911,233.997 191.858,233.997 		"/>
		<polygon fill="#459DBF" points="178.943,196.291 169.802,210.997 173.683,210.997 166.026,233.997 178.911,233.997 		"/>
		<polygon fill="#3285A6" points="178.943,196.291 188.083,210.997 184.205,210.997 191.858,233.997 178.911,233.997 		"/>
		<polygon opacity="0.1" fill="#464541" enable-background="new    " points="166.026,233.997 184.368,212.048 191.858,233.997 		
			"/>
	</g>
	<g>
		<rect x="5.024" y="237.997" fill="#464541" width="4" height="9"/>
		<polygon fill="#B4DCED" points="12.205,214.997 16.083,214.997 6.943,200.006 -2.198,214.997 1.683,214.997 -5.974,237.997 
			6.911,237.997 19.858,237.997 		"/>
		<polygon fill="#459DBF" points="6.943,200.291 -2.198,214.997 1.683,214.997 -5.974,237.997 6.911,237.997 		"/>
		<polygon fill="#3285A6" points="6.943,200.291 16.083,214.997 12.205,214.997 19.858,237.997 6.911,237.997 		"/>
		<polygon opacity="0.1" fill="#464541" enable-background="new    " points="-5.974,237.997 12.369,216.048 19.858,237.997 		"/>
	</g>
	<g>
		<rect x="150.024" y="186.997" fill="#464541" width="3" height="6"/>
		<polygon fill="#B4DCED" points="155.424,171.997 158.06,171.997 151.853,161.817 145.646,171.997 148.28,171.997 143.082,186.997 
			151.831,186.997 160.624,186.997 		"/>
		<polygon fill="#459DBF" points="151.853,161.701 145.646,171.997 148.28,171.997 143.082,186.997 151.831,186.997 		"/>
		<polygon fill="#3285A6" points="151.853,161.701 158.06,171.997 155.424,171.997 160.624,186.997 151.831,186.997 		"/>
		<polygon opacity="0.1" fill="#464541" enable-background="new    " points="143.082,186.997 155.537,172.092 160.624,186.997 		
			"/>
	</g>
	<g>
		<rect x="266.024" y="214.997" fill="#464541" width="4" height="7"/>
		<polygon fill="#B4DCED" points="272.008,196.997 275.167,196.997 267.727,184.795 260.287,196.997 263.444,196.997 
			257.212,214.997 267.7,214.997 278.238,214.997 		"/>
		<polygon fill="#459DBF" points="267.727,184.666 260.287,196.997 263.444,196.997 257.212,214.997 267.7,214.997 		"/>
		<polygon fill="#3285A6" points="267.727,184.666 275.167,196.997 272.008,196.997 278.238,214.997 267.7,214.997 		"/>
		<polygon opacity="0.1" fill="#464541" enable-background="new    " points="257.212,214.997 272.142,197.131 278.238,214.997 		
			"/>
	</g>
	<g>
		<rect x="134.024" y="163.997" fill="#464541" width="4" height="5"/>
		<polygon fill="#91C9E8" points="139.438,148.997 141.942,148.997 136.042,139.319 130.143,148.997 132.646,148.997 
			127.706,163.997 136.022,163.997 144.38,163.997 		"/>
		<polygon fill="#147DA5" points="136.042,139.631 130.143,148.997 132.646,148.997 127.706,163.997 136.022,163.997 		"/>
		<polygon fill="#00557C" points="136.042,139.631 141.942,148.997 139.438,148.997 144.38,163.997 136.022,163.997 		"/>
		<polygon opacity="0.4" fill="#464541" enable-background="new    " points="127.706,163.997 139.578,150.022 144.38,163.997 		"/>
	</g>
	<g>
		<rect x="195.024" y="184.997" fill="#464541" width="4" height="6"/>
		<polygon fill="#91C9E8" points="200.205,169.997 202.708,169.997 196.808,160.319 190.907,169.997 193.412,169.997 
			188.47,184.997 196.788,184.997 205.146,184.997 		"/>
		<polygon fill="#147DA5" points="196.808,160.63 190.907,169.997 193.412,169.997 188.47,184.997 196.788,184.997 		"/>
		<polygon fill="#00557C" points="196.808,160.63 202.708,169.997 200.205,169.997 205.146,184.997 196.788,184.997 		"/>
		<polygon opacity="0.4" fill="#464541" enable-background="new    " points="188.47,184.997 200.342,171.022 205.146,184.997 		"/>
	</g>
	<g>
		<rect x="33.024" y="166.997" fill="#464541" width="4" height="6"/>
		<polygon fill="#91C9E8" points="38.205,151.997 40.708,151.997 34.808,142.319 28.907,151.997 31.412,151.997 26.47,166.997 
			34.788,166.997 43.146,166.997 		"/>
		<polygon fill="#147DA5" points="34.808,142.63 28.907,151.997 31.412,151.997 26.47,166.997 34.788,166.997 		"/>
		<polygon fill="#00557C" points="34.808,142.63 40.708,151.997 38.205,151.997 43.146,166.997 34.788,166.997 		"/>
		<polygon opacity="0.4" fill="#464541" enable-background="new    " points="26.47,166.997 38.342,153.022 43.146,166.997 		"/>
	</g>
	<g>
		<rect x="105.024" y="354.997" fill="#464541" width="9" height="12"/>
		<polygon fill="#91C9E8" points="117.193,317.997 123.241,317.997 108.99,294.622 94.738,317.997 100.789,317.997 88.853,354.997 
			108.941,354.997 129.129,354.997 		"/>
		<polygon fill="#147DA5" points="108.99,295.761 94.738,317.997 100.789,317.997 88.853,354.997 108.941,354.997 		"/>
		<polygon fill="#00557C" points="108.99,295.761 123.241,317.997 117.193,317.997 129.129,354.997 108.941,354.997 		"/>
		<polygon opacity="0.4" fill="#464541" enable-background="new    " points="88.853,354.997 117.528,321.242 129.129,354.997 		"/>
	</g>
	<g>
		<rect x="155.024" y="277.997" fill="#464541" width="6" height="10"/>
		<polygon fill="#91C9E8" points="164.187,248.997 169.053,248.997 157.584,230.183 146.113,248.997 150.982,248.997 
			141.376,277.997 157.544,277.997 173.793,277.997 		"/>
		<polygon fill="#147DA5" points="157.584,230.709 146.113,248.997 150.982,248.997 141.376,277.997 157.544,277.997 		"/>
		<polygon fill="#00557C" points="157.584,230.709 169.053,248.997 164.187,248.997 173.793,277.997 157.544,277.997 		"/>
		<polygon opacity="0.4" fill="#464541" enable-background="new    " points="141.376,277.997 164.457,250.83 173.793,277.997 		"/>
	</g>
	<g>
		<rect x="222.024" y="218.997" fill="#464541" width="5" height="8"/>
		<polygon fill="#91C9E8" points="228.741,197.997 232.208,197.997 224.04,184.599 215.871,197.997 219.337,197.997 
			212.497,218.997 224.01,218.997 235.583,218.997 		"/>
		<polygon fill="#147DA5" points="224.04,185.148 215.871,197.997 219.337,197.997 212.497,218.997 224.01,218.997 		"/>
		<polygon fill="#00557C" points="224.04,185.148 232.208,197.997 228.741,197.997 235.583,218.997 224.01,218.997 		"/>
		<polygon opacity="0.4" fill="#464541" enable-background="new    " points="212.497,218.997 228.933,199.65 235.583,218.997 		"/>
	</g>
	<g>
		<rect x="265.024" y="421.997" fill="#464541" width="11" height="16"/>
		<polygon fill="#91C9E8" points="280.837,375.997 288.52,375.997 270.418,346.304 252.313,375.997 259.998,375.997 
			244.836,421.997 270.354,421.997 296,421.997 		"/>
		<polygon fill="#147DA5" points="270.418,347.249 252.313,375.997 259.998,375.997 244.836,421.997 270.354,421.997 		"/>
		<polygon fill="#00557C" points="270.418,347.249 288.52,375.997 280.837,375.997 296,421.997 270.354,421.997 		"/>
		<polygon opacity="0.4" fill="#464541" enable-background="new    " points="244.836,421.997 281.262,379.12 296,421.997 		"/>
	</g>
	<g>
		<rect x="43.024" y="680.997" fill="#464541" width="24" height="35"/>
		<polygon fill="#91C9E8" points="77.302,579.997 94.174,579.997 54.418,514.782 14.655,579.997 31.531,579.997 -1.766,680.997 
			54.278,680.997 110.602,680.997 		"/>
		<polygon fill="#147DA5" points="54.418,516.844 14.655,579.997 31.531,579.997 -1.766,680.997 54.278,680.997 		"/>
		<polygon fill="#00557C" points="54.418,516.844 94.174,579.997 77.302,579.997 110.602,680.997 54.278,680.997 		"/>
		<polygon opacity="0.4" fill="#464541" enable-background="new    " points="-1.766,680.997 78.234,586.827 110.602,680.997 		"/>
	</g>
	<g>
		<polygon fill="#147DA5" points="180.024,139.72 170.271,165.997 180.024,165.997 		"/>
		<polygon fill="#00557C" points="180.024,139.78 188.679,165.997 180.024,165.997 		"/>
		<rect x="178.024" y="165.997" fill="#464541" width="3" height="6"/>
		<polygon opacity="0.4" fill="#464541" enable-background="new    " points="170.271,165.997 183.015,149.754 188.679,165.997 		
			"/>
	</g>
	<g>
		<polygon fill="#147DA5" points="260.024,148.497 250.616,174.997 260.024,174.997 		"/>
		<polygon fill="#00557C" points="260.024,148.558 269.024,174.997 260.024,174.997 		"/>
		<rect x="258.024" y="174.997" fill="#464541" width="3" height="5"/>
		<polygon opacity="0.4" fill="#464541" enable-background="new    " points="250.616,174.997 263.359,158.755 269.024,174.997 		
			"/>
	</g>
	<g>
		<polygon fill="#147DA5" points="78.024,162 68.997,187.997 78.024,187.997 		"/>
		<polygon fill="#00557C" points="78.024,162.061 87.404,187.997 78.024,187.997 		"/>
		<rect x="77.024" y="187.997" fill="#464541" width="3" height="6"/>
		<polygon opacity="0.4" fill="#464541" enable-background="new    " points="68.997,187.997 81.739,171.755 87.404,187.997 		"/>
	</g>
	<g>
		<polygon fill="#147DA5" points="95.024,184.334 82.162,220.997 95.024,220.997 		"/>
		<polygon fill="#00557C" points="95.024,184.421 108.239,220.997 95.024,220.997 		"/>
		<rect x="94.024" y="220.997" fill="#464541" width="4" height="9"/>
		<polygon opacity="0.4" fill="#464541" enable-background="new    " points="82.162,220.997 100.213,197.988 108.239,220.997 		"/>
	</g>
	<g>
		<polygon fill="#147DA5" points="298.024,167.5 289.824,190.997 298.024,190.997 		"/>
		<polygon fill="#00557C" points="298.024,167.556 306.575,190.997 298.024,190.997 		"/>
		<rect x="297.024" y="190.997" fill="#464541" width="3" height="6"/>
		<polygon opacity="0.4" fill="#464541" enable-background="new    " points="289.824,190.997 301.42,176.217 306.575,190.997 		"/>
	</g>
	<g>
		<polygon fill="#147DA5" points="21.024,325.871 -8.031,406.997 21.024,406.997 		"/>
		<polygon fill="#00557C" points="21.024,326.055 45.729,406.997 21.024,406.997 		"/>
		<rect x="14.024" y="406.997" fill="#464541" width="10" height="15"/>
		<polygon opacity="0.4" fill="#464541" enable-background="new    " points="-8.031,406.997 29.186,357.709 45.729,406.997 		"/>
	</g>
	<g>
		<polygon fill="#147DA5" points="205.024,406.774 165.967,514.997 205.024,514.997 		"/>
		<polygon fill="#00557C" points="205.024,407.02 237.731,514.997 205.024,514.997 		"/>
		<rect x="195.024" y="514.997" fill="#464541" width="14" height="20"/>
		<polygon opacity="0.4" fill="#464541" enable-background="new    " points="165.967,514.997 215.647,449.203 237.731,514.997 		
			"/>
	</g>
	<g>
		<polygon fill="#147DA5" points="287.024,220.06 269.242,269.997 287.024,269.997 		"/>
		<polygon fill="#00557C" points="287.024,220.171 301.774,269.997 287.024,269.997 		"/>
		<rect x="283.024" y="269.997" fill="#464541" width="5" height="9"/>
		<polygon opacity="0.4" fill="#464541" enable-background="new    " points="269.242,269.997 291.762,240.17 301.774,269.997 		"/>
	</g>
	<g>
		<polygon fill="#147DA5" points="21.024,242.059 1.586,296.997 21.024,296.997 		"/>
		<polygon fill="#00557C" points="21.024,242.182 37.43,296.997 21.024,296.997 		"/>
		<rect x="17.024" y="296.997" fill="#464541" width="5" height="10"/>
		<polygon opacity="0.4" fill="#464541" enable-background="new    " points="1.586,296.997 26.399,264.133 37.43,296.997 		"/>
	</g>
	<g>
		<polygon fill="#147DA5" points="168.024,280.102 148.427,337.997 168.024,337.997 		"/>
		<polygon fill="#00557C" points="168.024,280.233 186.672,337.997 168.024,337.997 		"/>
		<rect x="164.024" y="337.997" fill="#464541" width="7" height="11"/>
		<polygon opacity="0.4" fill="#464541" enable-background="new    " points="148.427,337.997 174.903,302.933 186.672,337.997 		
			"/>
	</g>
	<g>
		<polygon fill="#459DBF" points="220.024,140.615 210.865,166.997 220.024,166.997 		"/>
		<polygon fill="#3285A6" points="220.024,140.615 228.842,166.997 220.024,166.997 		"/>
		<rect x="218.024" y="166.997" fill="#464541" width="4" height="5"/>
		<polygon opacity="0.1" fill="#464541" enable-background="new    " points="210.865,166.997 223.311,151.133 228.842,166.997 		
			"/>
	</g>
	<g>
		<polygon fill="#459DBF" points="14.024,163.615 4.865,189.997 14.024,189.997 		"/>
		<polygon fill="#3285A6" points="14.024,163.615 22.842,189.997 14.024,189.997 		"/>
		<rect x="12.024" y="189.997" fill="#464541" width="4" height="5"/>
		<polygon opacity="0.1" fill="#464541" enable-background="new    " points="4.865,189.997 17.311,174.133 22.842,189.997 		"/>
	</g>
	<g>
		<polygon fill="#459DBF" points="62.024,257.386 40.034,318.997 62.024,318.997 		"/>
		<polygon fill="#3285A6" points="62.024,257.386 82.824,318.997 62.024,318.997 		"/>
		<rect x="56.024" y="318.997" fill="#464541" width="9" height="12"/>
		<polygon opacity="0.1" fill="#464541" enable-background="new    " points="40.034,318.997 69.656,281.238 82.824,318.997 		"/>
	</g>
	<g>
		<polygon fill="#459DBF" points="138.024,194.253 123.575,231.997 138.024,231.997 		"/>
		<polygon fill="#3285A6" points="138.024,194.253 149.334,231.997 138.024,231.997 		"/>
		<rect x="133.024" y="231.997" fill="#464541" width="6" height="7"/>
		<polygon opacity="0.1" fill="#464541" enable-background="new    " points="123.575,231.997 141.407,209.267 149.334,231.997 		
			"/>
	</g>
	<g>
		<polygon fill="#459DBF" points="210.024,233.614 193.398,279.997 210.024,279.997 		"/>
		<polygon fill="#3285A6" points="210.024,233.614 225.376,279.997 210.024,279.997 		"/>
		<rect x="206.024" y="279.997" fill="#464541" width="6" height="9"/>
		<polygon opacity="0.1" fill="#464541" enable-background="new    " points="193.398,279.997 215.534,251.78 225.376,279.997 		"/>
	</g>
	<g>
		<polygon fill="#459DBF" points="243.024,204.61 230.825,237.997 243.024,237.997 		"/>
		<polygon fill="#3285A6" points="243.024,204.61 254.246,237.997 243.024,237.997 		"/>
		<rect x="240.024" y="237.997" fill="#464541" width="5" height="7"/>
		<polygon opacity="0.1" fill="#464541" enable-background="new    " points="230.825,237.997 247.038,217.331 254.246,237.997 		
			"/>
	</g>
	<g>
		<polygon fill="#459DBF" points="213.024,312.087 190.84,373.997 213.024,373.997 		"/>
		<polygon fill="#3285A6" points="213.024,312.087 233.63,373.997 213.024,373.997 		"/>
		<rect x="207.024" y="373.997" fill="#464541" width="9" height="12"/>
		<polygon opacity="0.1" fill="#464541" enable-background="new    " points="190.84,373.997 220.462,336.237 233.63,373.997 		"/>
	</g>
	<g>
		<polygon fill="#459DBF" points="81.024,386.979 47.198,482.997 81.024,482.997 		"/>
		<polygon fill="#3285A6" points="81.024,386.979 113.272,482.997 81.024,482.997 		"/>
		<rect x="72.024" y="482.997" fill="#464541" width="14" height="18"/>
		<polygon opacity="0.1" fill="#464541" enable-background="new    " points="47.198,482.997 92.938,424.69 113.272,482.997 		"/>
	</g>
	<g>
		<polygon fill="#459DBF" points="105.024,148.717 95.412,174.997 105.024,174.997 		"/>
		<polygon fill="#3285A6" points="105.024,148.717 113.39,174.997 105.024,174.997 		"/>
		<rect x="102.024" y="174.997" fill="#464541" width="4" height="4"/>
		<polygon opacity="0.1" fill="#464541" enable-background="new    " points="95.412,174.997 107.856,159.134 113.39,174.997 		"/>
	</g>
	<g>
		<polygon fill="#3488AD" points="456.342,152.756 444.369,155.983 438.157,158.476 450.131,155.25 		"/>
		<polygon fill="#186D94" points="447.04,173.238 440.052,169.836 440.052,157.982 447.04,161.384 		"/>
		<polygon fill="#00557C" points="458.046,169.637 447.04,173.238 447.04,161.384 458.046,157.784 		"/>
		<polygon fill="#186D94" points="440.052,157.982 444.304,155.983 447.04,161.384 447.04,163.027 440.052,158.954 		"/>
		<polygon fill="#3488AD" points="459.765,160.018 447.79,163.244 444.304,155.983 456.278,152.756 		"/>
		<polygon fill="#186D94" points="447.773,158.085 447.105,157.077 447.105,154.792 447.773,155.8 		"/>
		<polygon fill="#00557C" points="449.223,157.803 447.773,158.085 447.773,155.8 449.223,155.518 		"/>
		<polygon fill="#67B8DE" points="449.223,155.521 447.773,155.799 447.108,154.795 448.558,154.518 		"/>
	</g>
	<polygon fill="#CEECF2" points="447.369,153.247 444.649,148.872 438.524,147.872 437.149,140.497 425.274,135.497 
		422.899,130.497 418.358,112.873 420.647,82.832 447.012,71.207 465.724,85.457 468.674,106.997 464.358,122.997 456.378,130.997 
		454.991,137.33 454.991,146.153 450.728,148.33 449.983,153.247 448.692,154.539 	"/>
	<g>
		<rect x="49.024" y="233.997" fill="#464541" width="5" height="8"/>
		<polygon fill="#91C9E8" points="56.141,209.997 60.079,209.997 50.8,194.779 41.521,209.997 45.46,209.997 37.689,233.997 
			50.769,233.997 63.912,233.997 		"/>
		<polygon fill="#147DA5" points="50.8,195.475 41.521,209.997 45.46,209.997 37.689,233.997 50.769,233.997 		"/>
		<polygon fill="#00557C" points="50.8,195.475 60.079,209.997 56.141,209.997 63.912,233.997 50.769,233.997 		"/>
		<polygon opacity="0.4" fill="#464541" enable-background="new    " points="37.689,233.997 56.358,212.021 63.912,233.997 		"/>
	</g>
	<g>
		<rect x="93.024" y="273.997" fill="#464541" width="6" height="12"/>
		<polygon fill="#B4DCED" points="102.594,244.997 107.721,244.997 95.643,225.188 83.565,244.997 88.691,244.997 78.575,273.997 
			95.602,273.997 112.709,273.997 		"/>
		<polygon fill="#459DBF" points="95.643,224.867 83.565,244.997 88.691,244.997 78.575,273.997 95.602,273.997 		"/>
		<polygon fill="#3285A6" points="95.643,224.867 107.721,244.997 102.594,244.997 112.709,273.997 95.602,273.997 		"/>
		<polygon opacity="0.1" fill="#464541" enable-background="new    " points="78.575,273.997 102.812,244.993 112.709,273.997 		"/>
	</g>
	<g>
		<rect x="326.024" y="237.997" fill="#464541" width="4" height="9"/>
		<polygon fill="#B4DCED" points="333.205,214.997 337.083,214.997 327.943,200.006 318.802,214.997 322.683,214.997 
			315.026,237.997 327.91,237.997 340.858,237.997 		"/>
		<polygon fill="#459DBF" points="327.943,200.291 318.802,214.997 322.683,214.997 315.026,237.997 327.91,237.997 		"/>
		<polygon fill="#3285A6" points="327.943,200.291 337.083,214.997 333.205,214.997 340.858,237.997 327.91,237.997 		"/>
		<polygon opacity="0.1" fill="#464541" enable-background="new    " points="315.026,237.997 333.368,216.048 340.858,237.997 		
			"/>
	</g>
	<g>
		<polygon fill="#147DA5" points="361.024,137.295 353.278,158.997 361.024,158.997 		"/>
		<polygon fill="#00557C" points="361.024,137.347 368.96,158.997 361.024,158.997 		"/>
		<rect x="360.024" y="158.997" fill="#464541" width="3" height="6"/>
		<polygon opacity="0.4" fill="#464541" enable-background="new    " points="353.278,158.997 364.134,145.161 368.96,158.997 		"/>
	</g>
	<g>
		<polygon fill="#147DA5" points="342.024,242.059 322.586,296.997 342.024,296.997 		"/>
		<polygon fill="#00557C" points="342.024,242.182 358.431,296.997 342.024,296.997 		"/>
		<rect x="338.024" y="296.997" fill="#464541" width="5" height="10"/>
		<polygon opacity="0.4" fill="#464541" enable-background="new    " points="322.586,296.997 347.399,264.133 358.431,296.997 		
			"/>
	</g>
	<g>
		<polygon fill="#459DBF" points="332.024,155.615 322.865,181.997 332.024,181.997 		"/>
		<polygon fill="#3285A6" points="332.024,155.615 340.842,181.997 332.024,181.997 		"/>
		<rect x="330.024" y="181.997" fill="#464541" width="4" height="5"/>
		<polygon opacity="0.1" fill="#464541" enable-background="new    " points="322.865,181.997 335.311,166.133 340.842,181.997 		
			"/>
	</g>
	<g>
		<polygon fill="#459DBF" points="316.024,277.386 294.034,338.997 316.024,338.997 		"/>
		<polygon fill="#3285A6" points="316.024,277.386 336.825,338.997 316.024,338.997 		"/>
		<rect x="310.024" y="338.997" fill="#464541" width="9" height="12"/>
		<polygon opacity="0.1" fill="#464541" enable-background="new    " points="294.034,338.997 323.656,301.238 336.825,338.997 		
			"/>
	</g>
	<g>
		<polygon fill="#459DBF" points="474.024,206.253 459.575,243.997 474.024,243.997 		"/>
		<polygon fill="#3285A6" points="474.024,206.253 485.335,243.997 474.024,243.997 		"/>
		<rect x="469.024" y="243.997" fill="#464541" width="6" height="7"/>
		<polygon opacity="0.1" fill="#464541" enable-background="new    " points="459.575,243.997 477.407,221.267 485.335,243.997 		
			"/>
	</g>
	<g>
		<rect x="370.024" y="233.997" fill="#464541" width="5" height="8"/>
		<polygon fill="#91C9E8" points="377.141,209.997 381.079,209.997 371.8,194.779 362.521,209.997 366.46,209.997 358.689,233.997 
			371.769,233.997 384.912,233.997 		"/>
		<polygon fill="#147DA5" points="371.8,195.475 362.521,209.997 366.46,209.997 358.689,233.997 371.769,233.997 		"/>
		<polygon fill="#00557C" points="371.8,195.475 381.079,209.997 377.141,209.997 384.912,233.997 371.769,233.997 		"/>
		<polygon opacity="0.4" fill="#464541" enable-background="new    " points="358.689,233.997 377.358,212.021 384.912,233.997 		
			"/>
	</g>
	<g>
		<rect x="377.024" y="183.997" fill="#464541" width="3" height="7"/>
		<polygon fill="#B4DCED" points="381.647,168.997 384.379,168.997 377.941,158.439 371.504,168.997 374.237,168.997 
			368.845,183.997 377.919,183.997 387.038,183.997 		"/>
		<polygon fill="#459DBF" points="377.941,158.04 371.504,168.997 374.237,168.997 368.845,183.997 377.919,183.997 		"/>
		<polygon fill="#3285A6" points="377.941,158.04 384.379,168.997 381.647,168.997 387.038,183.997 377.919,183.997 		"/>
		<polygon opacity="0.1" fill="#464541" enable-background="new    " points="368.845,183.997 381.762,168.539 387.038,183.997 		
			"/>
	</g>
	<g>
		<rect x="583.024" y="185.997" fill="#464541" width="3" height="6"/>
		<polygon fill="#B4DCED" points="588.054,171.997 590.688,171.997 584.481,161.817 578.275,171.997 580.909,171.997 
			575.712,185.997 584.46,185.997 593.253,185.997 		"/>
		<polygon fill="#459DBF" points="584.481,161.202 578.275,171.997 580.909,171.997 575.712,185.997 584.46,185.997 		"/>
		<polygon fill="#3285A6" points="584.481,161.202 590.688,171.997 588.054,171.997 593.253,185.997 584.46,185.997 		"/>
		<polygon opacity="0.1" fill="#464541" enable-background="new    " points="575.712,185.997 588.165,171.092 593.253,185.997 		
			"/>
	</g>
	<g>
		<rect x="632.024" y="422.997" fill="#464541" width="11" height="19"/>
		<polygon fill="#B4DCED" points="648.343,376.997 656.292,376.997 637.56,346.275 618.829,376.997 626.779,376.997 
			611.091,422.997 637.495,422.997 664.029,422.997 		"/>
		<polygon fill="#459DBF" points="637.56,346.29 618.829,376.997 626.779,376.997 611.091,422.997 637.495,422.997 		"/>
		<polygon fill="#3285A6" points="637.56,346.29 656.292,376.997 648.343,376.997 664.029,422.997 637.495,422.997 		"/>
		<polygon opacity="0.1" fill="#464541" enable-background="new    " points="611.091,422.997 648.679,378.014 664.029,422.997 		
			"/>
	</g>
	<g>
		<rect x="692.024" y="719.997" fill="#464541" width="25" height="42"/>
		<polygon fill="#B4DCED" points="728.657,616.997 746.425,616.997 704.561,548.338 662.698,616.997 680.467,616.997 
			645.404,719.997 704.415,719.997 763.716,719.997 		"/>
		<polygon fill="#459DBF" points="704.561,548.469 662.698,616.997 680.467,616.997 645.404,719.997 704.415,719.997 		"/>
		<polygon fill="#3285A6" points="704.561,548.469 746.425,616.997 728.657,616.997 763.716,719.997 704.415,719.997 		"/>
		<polygon opacity="0.1" fill="#464541" enable-background="new    " points="645.404,719.997 729.407,619.466 763.716,719.997 		
			"/>
	</g>
	<g>
		<rect x="743.024" y="337.997" fill="#464541" width="7" height="13"/>
		<polygon fill="#B4DCED" points="754.109,303.997 760.05,303.997 746.056,281.047 732.062,303.997 738.001,303.997 726.28,337.997 
			746.007,337.997 765.829,337.997 		"/>
		<polygon fill="#459DBF" points="746.056,280.875 732.062,303.997 738.001,303.997 726.28,337.997 746.007,337.997 		"/>
		<polygon fill="#3285A6" points="746.056,280.875 760.05,303.997 754.109,303.997 765.829,337.997 746.007,337.997 		"/>
		<polygon opacity="0.1" fill="#464541" enable-background="new    " points="726.28,337.997 754.36,304.392 765.829,337.997 		"/>
	</g>
	<g>
		<rect x="663.024" y="240.997" fill="#464541" width="4" height="9"/>
		<polygon fill="#B4DCED" points="670.204,217.997 674.083,217.997 664.943,203.006 655.803,217.997 659.683,217.997 
			652.026,240.997 664.911,240.997 677.858,240.997 		"/>
		<polygon fill="#459DBF" points="664.943,203.291 655.803,217.997 659.683,217.997 652.026,240.997 664.911,240.997 		"/>
		<polygon fill="#3285A6" points="664.943,203.291 674.083,217.997 670.204,217.997 677.858,240.997 664.911,240.997 		"/>
		<polygon opacity="0.1" fill="#464541" enable-background="new    " points="652.026,240.997 670.368,219.048 677.858,240.997 		
			"/>
	</g>
	<g>
		<rect x="636.024" y="193.997" fill="#464541" width="3" height="6"/>
		<polygon fill="#B4DCED" points="641.425,178.997 644.06,178.997 637.853,168.817 631.646,178.997 634.28,178.997 629.081,193.997 
			637.831,193.997 646.623,193.997 		"/>
		<polygon fill="#459DBF" points="637.853,168.701 631.646,178.997 634.28,178.997 629.081,193.997 637.831,193.997 		"/>
		<polygon fill="#3285A6" points="637.853,168.701 644.06,178.997 641.425,178.997 646.623,193.997 637.831,193.997 		"/>
		<polygon opacity="0.1" fill="#464541" enable-background="new    " points="629.081,193.997 641.536,179.092 646.623,193.997 		
			"/>
	</g>
	<g>
		<rect x="752.024" y="221.997" fill="#464541" width="4" height="7"/>
		<polygon fill="#B4DCED" points="758.009,203.997 761.166,203.997 753.726,191.795 746.286,203.997 749.444,203.997 
			743.212,221.997 753.7,221.997 764.238,221.997 		"/>
		<polygon fill="#459DBF" points="753.726,191.666 746.286,203.997 749.444,203.997 743.212,221.997 753.7,221.997 		"/>
		<polygon fill="#3285A6" points="753.726,191.666 761.166,203.997 758.009,203.997 764.238,221.997 753.7,221.997 		"/>
		<polygon opacity="0.1" fill="#464541" enable-background="new    " points="743.212,221.997 758.142,204.131 764.238,221.997 		
			"/>
	</g>
	<g>
		<rect x="620.024" y="170.997" fill="#464541" width="4" height="5"/>
		<polygon fill="#91C9E8" points="625.438,155.997 627.942,155.997 622.042,146.319 616.142,155.997 618.646,155.997 
			613.705,170.997 622.022,170.997 630.38,170.997 		"/>
		<polygon fill="#147DA5" points="622.042,146.631 616.142,155.997 618.646,155.997 613.705,170.997 622.022,170.997 		"/>
		<polygon fill="#00557C" points="622.042,146.631 627.942,155.997 625.438,155.997 630.38,170.997 622.022,170.997 		"/>
		<polygon opacity="0.4" fill="#464541" enable-background="new    " points="613.705,170.997 625.577,157.022 630.38,170.997 		"/>
	</g>
	<g>
		<rect x="681.024" y="191.997" fill="#464541" width="4" height="6"/>
		<polygon fill="#91C9E8" points="686.204,176.997 688.708,176.997 682.808,167.319 676.907,176.997 679.411,176.997 
			674.47,191.997 682.787,191.997 691.146,191.997 		"/>
		<polygon fill="#147DA5" points="682.808,167.63 676.907,176.997 679.411,176.997 674.47,191.997 682.787,191.997 		"/>
		<polygon fill="#00557C" points="682.808,167.63 688.708,176.997 686.204,176.997 691.146,191.997 682.787,191.997 		"/>
		<polygon opacity="0.4" fill="#464541" enable-background="new    " points="674.47,191.997 686.343,178.022 691.146,191.997 		"/>
	</g>
	<g>
		<rect x="524.024" y="193.997" fill="#464541" width="4" height="6"/>
		<polygon fill="#91C9E8" points="529.204,178.997 531.708,178.997 525.808,169.319 519.907,178.997 522.411,178.997 
			517.47,193.997 525.787,193.997 534.146,193.997 		"/>
		<polygon fill="#147DA5" points="525.808,169.63 519.907,178.997 522.411,178.997 517.47,193.997 525.787,193.997 		"/>
		<polygon fill="#00557C" points="525.808,169.63 531.708,178.997 529.204,178.997 534.146,193.997 525.787,193.997 		"/>
		<polygon opacity="0.4" fill="#464541" enable-background="new    " points="517.47,193.997 529.343,180.022 534.146,193.997 		"/>
	</g>
	<g>
		<rect x="591.024" y="361.997" fill="#464541" width="9" height="12"/>
		<polygon fill="#91C9E8" points="603.194,324.997 609.241,324.997 594.991,301.622 580.739,324.997 586.788,324.997 
			574.853,361.997 594.94,361.997 615.13,361.997 		"/>
		<polygon fill="#147DA5" points="594.991,302.761 580.739,324.997 586.788,324.997 574.853,361.997 594.94,361.997 		"/>
		<polygon fill="#00557C" points="594.991,302.761 609.241,324.997 603.194,324.997 615.13,361.997 594.94,361.997 		"/>
		<polygon opacity="0.4" fill="#464541" enable-background="new    " points="574.853,361.997 603.528,328.242 615.13,361.997 		"/>
	</g>
	<g>
		<rect x="799.024" y="369.997" fill="#464541" width="9" height="12"/>
		<polygon fill="#91C9E8" points="811.194,332.997 817.241,332.997 802.991,309.622 788.739,332.997 794.788,332.997 
			782.853,369.997 802.94,369.997 823.13,369.997 		"/>
		<polygon fill="#147DA5" points="802.991,310.761 788.739,332.997 794.788,332.997 782.853,369.997 802.94,369.997 		"/>
		<polygon fill="#00557C" points="802.991,310.761 817.241,332.997 811.194,332.997 823.13,369.997 802.94,369.997 		"/>
		<polygon opacity="0.4" fill="#464541" enable-background="new    " points="782.853,369.997 811.528,336.242 823.13,369.997 		"/>
	</g>
	<g>
		<rect x="641.024" y="284.997" fill="#464541" width="6" height="10"/>
		<polygon fill="#91C9E8" points="650.187,255.997 655.054,255.997 643.585,237.183 632.113,255.997 636.982,255.997 
			627.376,284.997 643.544,284.997 659.793,284.997 		"/>
		<polygon fill="#147DA5" points="643.585,237.709 632.113,255.997 636.982,255.997 627.376,284.997 643.544,284.997 		"/>
		<polygon fill="#00557C" points="643.585,237.709 655.054,255.997 650.187,255.997 659.793,284.997 643.544,284.997 		"/>
		<polygon opacity="0.4" fill="#464541" enable-background="new    " points="627.376,284.997 650.456,257.829 659.793,284.997 		
			"/>
	</g>
	<g>
		<rect x="708.024" y="225.997" fill="#464541" width="5" height="8"/>
		<polygon fill="#91C9E8" points="714.741,204.997 718.207,204.997 710.04,191.599 701.87,204.997 705.337,204.997 698.497,225.997 
			710.011,225.997 721.582,225.997 		"/>
		<polygon fill="#147DA5" points="710.04,192.148 701.87,204.997 705.337,204.997 698.497,225.997 710.011,225.997 		"/>
		<polygon fill="#00557C" points="710.04,192.148 718.207,204.997 714.741,204.997 721.582,225.997 710.011,225.997 		"/>
		<polygon opacity="0.4" fill="#464541" enable-background="new    " points="698.497,225.997 714.933,206.65 721.582,225.997 		"/>
	</g>
	<g>
		<rect x="780.024" y="184.997" fill="#464541" width="4" height="6"/>
		<polygon fill="#91C9E8" points="785.937,166.997 788.809,166.997 782.04,155.893 775.27,166.997 778.143,166.997 772.474,184.997 
			782.016,184.997 791.605,184.997 		"/>
		<polygon fill="#147DA5" points="782.04,156.646 775.27,166.997 778.143,166.997 772.474,184.997 782.016,184.997 		"/>
		<polygon fill="#00557C" points="782.04,156.646 788.809,166.997 785.937,166.997 791.605,184.997 782.016,184.997 		"/>
		<polygon opacity="0.4" fill="#464541" enable-background="new    " points="772.474,184.997 786.095,168.963 791.605,184.997 		
			"/>
	</g>
	<g>
		<rect x="751.024" y="428.997" fill="#464541" width="11" height="16"/>
		<polygon fill="#91C9E8" points="766.837,382.997 774.52,382.997 756.418,353.304 738.313,382.997 745.997,382.997 
			730.837,428.997 756.354,428.997 781.999,428.997 		"/>
		<polygon fill="#147DA5" points="756.418,354.249 738.313,382.997 745.997,382.997 730.837,428.997 756.354,428.997 		"/>
		<polygon fill="#00557C" points="756.418,354.249 774.52,382.997 766.837,382.997 781.999,428.997 756.354,428.997 		"/>
		<polygon opacity="0.4" fill="#464541" enable-background="new    " points="730.837,428.997 767.263,386.12 781.999,428.997 		"/>
	</g>
	<g>
		<rect x="529.024" y="687.997" fill="#464541" width="24" height="35"/>
		<polygon fill="#91C9E8" points="563.302,586.997 580.175,586.997 540.418,521.782 500.655,586.997 517.532,586.997 
			484.235,687.997 540.278,687.997 596.601,687.997 		"/>
		<polygon fill="#147DA5" points="540.418,523.844 500.655,586.997 517.532,586.997 484.235,687.997 540.278,687.997 		"/>
		<polygon fill="#00557C" points="540.418,523.844 580.175,586.997 563.302,586.997 596.601,687.997 540.278,687.997 		"/>
		<polygon opacity="0.4" fill="#464541" enable-background="new    " points="484.235,687.997 564.235,593.827 596.601,687.997 		
			"/>
	</g>
	<g>
		<polygon fill="#147DA5" points="666.024,146.72 656.271,172.997 666.024,172.997 		"/>
		<polygon fill="#00557C" points="666.024,146.78 674.679,172.997 666.024,172.997 		"/>
		<rect x="664.024" y="172.997" fill="#464541" width="3" height="6"/>
		<polygon opacity="0.4" fill="#464541" enable-background="new    " points="656.271,172.997 669.015,156.754 674.679,172.997 		
			"/>
	</g>
	<g>
		<polygon fill="#147DA5" points="746.024,155.497 736.616,181.997 746.024,181.997 		"/>
		<polygon fill="#00557C" points="746.024,155.558 755.024,181.997 746.024,181.997 		"/>
		<rect x="744.024" y="181.997" fill="#464541" width="3" height="5"/>
		<polygon opacity="0.4" fill="#464541" enable-background="new    " points="736.616,181.997 749.359,165.755 755.024,181.997 		
			"/>
	</g>
	<g>
		<polygon fill="#147DA5" points="546.024,200 536.996,225.997 546.024,225.997 		"/>
		<polygon fill="#00557C" points="546.024,200.061 555.404,225.997 546.024,225.997 		"/>
		<rect x="545.024" y="225.997" fill="#464541" width="3" height="6"/>
		<polygon opacity="0.4" fill="#464541" enable-background="new    " points="536.996,225.997 549.739,209.755 555.404,225.997 		
			"/>
	</g>
	<g>
		<polygon fill="#147DA5" points="581.024,191.334 568.161,227.997 581.024,227.997 		"/>
		<polygon fill="#00557C" points="581.024,191.421 594.239,227.997 581.024,227.997 		"/>
		<rect x="580.024" y="227.997" fill="#464541" width="4" height="9"/>
		<polygon opacity="0.4" fill="#464541" enable-background="new    " points="568.161,227.997 586.214,204.988 594.239,227.997 		
			"/>
	</g>
	<g>
		<polygon fill="#147DA5" points="507.024,332.871 477.97,413.997 507.024,413.997 		"/>
		<polygon fill="#00557C" points="507.024,333.055 531.729,413.997 507.024,413.997 		"/>
		<rect x="500.024" y="413.997" fill="#464541" width="10" height="15"/>
		<polygon opacity="0.4" fill="#464541" enable-background="new    " points="477.97,413.997 515.186,364.709 531.729,413.997 		"/>
	</g>
	<g>
		<polygon fill="#147DA5" points="691.024,413.774 651.968,521.997 691.024,521.997 		"/>
		<polygon fill="#00557C" points="691.024,414.02 723.731,521.997 691.024,521.997 		"/>
		<rect x="681.024" y="521.997" fill="#464541" width="14" height="20"/>
		<polygon opacity="0.4" fill="#464541" enable-background="new    " points="651.968,521.997 701.647,456.203 723.731,521.997 		
			"/>
	</g>
	<g>
		<polygon fill="#147DA5" points="773.024,227.06 755.242,276.997 773.024,276.997 		"/>
		<polygon fill="#00557C" points="773.024,227.171 787.774,276.997 773.024,276.997 		"/>
		<rect x="769.024" y="276.997" fill="#464541" width="5" height="9"/>
		<polygon opacity="0.4" fill="#464541" enable-background="new    " points="755.242,276.997 777.763,247.17 787.774,276.997 		"/>
	</g>
	<g>
		<polygon fill="#147DA5" points="506.024,254.059 486.587,308.997 506.024,308.997 		"/>
		<polygon fill="#00557C" points="506.024,254.182 522.431,308.997 506.024,308.997 		"/>
		<rect x="502.024" y="308.997" fill="#464541" width="5" height="10"/>
		<polygon opacity="0.4" fill="#464541" enable-background="new    " points="486.587,308.997 511.399,276.134 522.431,308.997 		
			"/>
	</g>
	<g>
		<polygon fill="#147DA5" points="654.024,287.102 634.427,344.997 654.024,344.997 		"/>
		<polygon fill="#00557C" points="654.024,287.233 672.673,344.997 654.024,344.997 		"/>
		<rect x="650.024" y="344.997" fill="#464541" width="7" height="11"/>
		<polygon opacity="0.4" fill="#464541" enable-background="new    " points="634.427,344.997 660.903,309.933 672.673,344.997 		
			"/>
	</g>
	<g>
		<polygon fill="#459DBF" points="706.024,147.615 696.865,173.997 706.024,173.997 		"/>
		<polygon fill="#3285A6" points="706.024,147.615 714.843,173.997 706.024,173.997 		"/>
		<rect x="704.024" y="173.997" fill="#464541" width="4" height="5"/>
		<polygon opacity="0.1" fill="#464541" enable-background="new    " points="696.865,173.997 709.311,158.133 714.843,173.997 		
			"/>
	</g>
	<g>
		<polygon fill="#459DBF" points="491.024,170.615 481.865,196.997 491.024,196.997 		"/>
		<polygon fill="#3285A6" points="491.024,170.615 499.843,196.997 491.024,196.997 		"/>
		<rect x="489.024" y="196.997" fill="#464541" width="4" height="5"/>
		<polygon opacity="0.1" fill="#464541" enable-background="new    " points="481.865,196.997 494.311,181.133 499.843,196.997 		
			"/>
	</g>
	<g>
		<polygon fill="#459DBF" points="548.024,264.386 526.034,325.997 548.024,325.997 		"/>
		<polygon fill="#3285A6" points="548.024,264.386 568.825,325.997 548.024,325.997 		"/>
		<rect x="542.024" y="325.997" fill="#464541" width="9" height="12"/>
		<polygon opacity="0.1" fill="#464541" enable-background="new    " points="526.034,325.997 555.656,288.238 568.825,325.997 		
			"/>
	</g>
	<g>
		<polygon fill="#459DBF" points="624.024,201.253 609.575,238.997 624.024,238.997 		"/>
		<polygon fill="#3285A6" points="624.024,201.253 635.335,238.997 624.024,238.997 		"/>
		<rect x="619.024" y="238.997" fill="#464541" width="6" height="7"/>
		<polygon opacity="0.1" fill="#464541" enable-background="new    " points="609.575,238.997 627.407,216.267 635.335,238.997 		
			"/>
	</g>
	<g>
		<polygon fill="#459DBF" points="696.024,240.614 679.398,286.997 696.024,286.997 		"/>
		<polygon fill="#3285A6" points="696.024,240.614 711.376,286.997 696.024,286.997 		"/>
		<rect x="692.024" y="286.997" fill="#464541" width="6" height="9"/>
		<polygon opacity="0.1" fill="#464541" enable-background="new    " points="679.398,286.997 701.534,258.78 711.376,286.997 		"/>
	</g>
	<g>
		<polygon fill="#459DBF" points="729.024,211.61 716.825,244.997 729.024,244.997 		"/>
		<polygon fill="#3285A6" points="729.024,211.61 740.245,244.997 729.024,244.997 		"/>
		<rect x="726.024" y="244.997" fill="#464541" width="5" height="7"/>
		<polygon opacity="0.1" fill="#464541" enable-background="new    " points="716.825,244.997 733.038,224.331 740.245,244.997 		
			"/>
	</g>
	<g>
		<polygon fill="#459DBF" points="801.024,201.61 788.825,234.997 801.024,234.997 		"/>
		<polygon fill="#3285A6" points="801.024,201.61 812.245,234.997 801.024,234.997 		"/>
		<rect x="798.024" y="234.997" fill="#464541" width="5" height="7"/>
		<polygon opacity="0.1" fill="#464541" enable-background="new    " points="788.825,234.997 805.038,214.331 812.245,234.997 		
			"/>
	</g>
	<g>
		<polygon fill="#459DBF" points="699.024,319.087 676.841,380.997 699.024,380.997 		"/>
		<polygon fill="#3285A6" points="699.024,319.087 719.631,380.997 699.024,380.997 		"/>
		<rect x="693.024" y="380.997" fill="#464541" width="9" height="12"/>
		<polygon opacity="0.1" fill="#464541" enable-background="new    " points="676.841,380.997 706.462,343.237 719.631,380.997 		
			"/>
	</g>
	<g>
		<polygon fill="#459DBF" points="567.024,393.979 533.198,489.997 567.024,489.997 		"/>
		<polygon fill="#3285A6" points="567.024,393.979 599.272,489.997 567.024,489.997 		"/>
		<rect x="558.024" y="489.997" fill="#464541" width="14" height="18"/>
		<polygon opacity="0.1" fill="#464541" enable-background="new    " points="533.198,489.997 578.938,431.69 599.272,489.997 		"/>
	</g>
	<g>
		<polygon fill="#459DBF" points="784.024,441.979 750.198,537.997 784.024,537.997 		"/>
		<polygon fill="#3285A6" points="784.024,441.979 816.272,537.997 784.024,537.997 		"/>
		<rect x="775.024" y="537.997" fill="#464541" width="14" height="18"/>
		<polygon opacity="0.1" fill="#464541" enable-background="new    " points="750.198,537.997 795.938,479.69 816.272,537.997 		"/>
	</g>
	<g>
		<polygon fill="#459DBF" points="607.024,175.717 597.411,201.997 607.024,201.997 		"/>
		<polygon fill="#3285A6" points="607.024,175.717 615.39,201.997 607.024,201.997 		"/>
		<rect x="604.024" y="201.997" fill="#464541" width="4" height="4"/>
		<polygon opacity="0.1" fill="#464541" enable-background="new    " points="597.411,201.997 609.856,186.134 615.39,201.997 		"/>
	</g>
	<g>
		<rect x="512.024" y="249.997" fill="#464541" width="5" height="8"/>
		<polygon fill="#91C9E8" points="519.141,225.997 523.078,225.997 513.8,210.779 504.521,225.997 508.46,225.997 500.689,249.997 
			513.769,249.997 526.911,249.997 		"/>
		<polygon fill="#147DA5" points="513.8,211.475 504.521,225.997 508.46,225.997 500.689,249.997 513.769,249.997 		"/>
		<polygon fill="#00557C" points="513.8,211.475 523.078,225.997 519.141,225.997 526.911,249.997 513.769,249.997 		"/>
		<polygon opacity="0.4" fill="#464541" enable-background="new    " points="500.689,249.997 519.358,228.021 526.911,249.997 		
			"/>
	</g>
	<g>
		<rect x="579.024" y="280.997" fill="#464541" width="6" height="12"/>
		<polygon fill="#B4DCED" points="588.595,251.997 593.722,251.997 581.643,232.188 569.565,251.997 574.692,251.997 
			564.575,280.997 581.601,280.997 598.71,280.997 		"/>
		<polygon fill="#459DBF" points="581.643,231.867 569.565,251.997 574.692,251.997 564.575,280.997 581.601,280.997 		"/>
		<polygon fill="#3285A6" points="581.643,231.867 593.722,251.997 588.595,251.997 598.71,280.997 581.601,280.997 		"/>
		<polygon opacity="0.1" fill="#464541" enable-background="new    " points="564.575,280.997 588.812,251.993 598.71,280.997 		"/>
	</g>
	<g>
		<rect x="459.024" y="357.997" fill="#464541" width="9" height="18"/>
		<polygon fill="#B4DCED" points="473.092,314.997 480.798,314.997 462.643,285.225 444.49,314.997 452.196,314.997 436.99,357.997 
			462.579,357.997 488.296,357.997 		"/>
		<polygon fill="#459DBF" points="462.643,284.448 444.49,314.997 452.196,314.997 436.99,357.997 462.579,357.997 		"/>
		<polygon fill="#3285A6" points="462.643,284.448 480.798,314.997 473.092,314.997 488.296,357.997 462.579,357.997 		"/>
		<polygon opacity="0.1" fill="#464541" enable-background="new    " points="436.99,357.997 473.418,314.404 488.296,357.997 		"/>
	</g>
</g>
<rect x="20.024" y="247.997" opacity="0.8" fill="#FFFFFF" enable-background="new    " width="144" height="277"/>
<rect x="174.024" y="247.997" opacity="0.8" fill="#FFFFFF" enable-background="new    " width="144" height="277"/>
<rect x="328.024" y="247.997" opacity="0.8" fill="#FFFFFF" enable-background="new    " width="144" height="277"/>
<rect x="482.024" y="247.997" opacity="0.8" fill="#FFFFFF" enable-background="new    " width="144" height="277"/>
<rect x="636.024" y="247.997" opacity="0.8" fill="#FFFFFF" enable-background="new    " width="144" height="277"/>
</svg>
