<?xml version="1.0" encoding="utf-8"?>
<!-- Generator: Adobe Illustrator 15.1.0, SVG Export Plug-In . SVG Version: 6.00 Build 0)  -->
<!DOCTYPE svg PUBLIC "-//W3C//DTD SVG 1.1//EN" "http://www.w3.org/Graphics/SVG/1.1/DTD/svg11.dtd">
<svg version="1.1" id="Calque_1" xmlns="http://www.w3.org/2000/svg" xmlns:xlink="http://www.w3.org/1999/xlink" x="0px" y="0px"
	 width="800px" height="600px" viewBox="0 0 800 600" enable-background="new 0 0 800 600" xml:space="preserve">
<rect fill="#CEECF2" width="800" height="600"/>
<linearGradient id="SVGID_1_" gradientUnits="userSpaceOnUse" x1="297.1855" y1="373.291" x2="472.4443" y2="373.291">
	<stop  offset="0" style="stop-color:#E7FAFB"/>
	<stop  offset="1" style="stop-color:#E7FAFB"/>
</linearGradient>
<path fill="url(#SVGID_1_)" d="M300.41,600c0,0-20.965-189.25,44.035-260.625s74-113.546,71-131.46s-24.74-61.333-24.74-61.333
	h16.851c0,0,33.823,36.608,34.856,77.514s-13.309,107.271-13.967,125.082c-3.137,84.823,44,221.823,44,250.823H300.41z"/>
<polygon fill="#B4DCED" points="0,35.587 98,-12.036 163.5,28.087 253,2.589 295,35.587 320.786,16.463 336,35.587 403.26,-12.036 
	472.145,41.587 519.152,9.339 589,31.087 628,-12.036 688.26,41.587 754,-12.036 800,34.087 800,120.41 0,127.458 "/>
<polygon fill="#91C9E8" points="98,-12.036 163.5,28.087 200.384,17.579 "/>
<polygon fill="#91C9E8" points="253,2.589 295,35.587 312.965,22.264 "/>
<polygon fill="#91C9E8" points="320.786,16.463 336,35.587 352.232,24.094 "/>
<polygon fill="#91C9E8" points="403.26,-12.036 472.145,41.587 497.257,24.359 "/>
<polygon fill="#91C9E8" points="519.152,9.339 589,31.087 595.439,23.969 "/>
<polygon fill="#91C9E8" points="628,-12.036 688.26,41.587 712.439,21.864 "/>
<polygon fill="#91C9E8" points="754,-12.036 800,34.087 800,14.775 "/>
<g>
	<polygon fill="#E8F8FF" points="-40.357,147.707 34.639,-12.036 82.637,95.209 115.635,65.96 138.134,112.833 183.519,16.463 
		283.713,154.456 	"/>
	<polygon fill="#BBE5F3" points="149.171,89.397 115.635,65.96 138.134,112.833 	"/>
	<polygon fill="#BBE5F3" points="82.637,95.209 34.639,-12.036 105.905,74.585 	"/>
	<polygon fill="#BBE5F3" points="315,119.651 183.519,16.463 283.713,154.456 	"/>
</g>
<g>
	<polygon fill="#E8F8FF" points="465.699,146.582 454.967,2.589 381,85.835 332.419,65.586 261.192,138.476 	"/>
	<polygon fill="#BBE5F3" points="332.419,65.586 397.051,67.771 381,85.835 	"/>
	<polygon fill="#BBE5F3" points="454.967,2.589 465.699,146.582 536.334,135.651 	"/>
</g>
<g>
	<polygon fill="#E8F8FF" points="562.5,162.332 624,67.836 645.743,93.334 688.26,9.339 728,109.834 750,96.334 781.5,156.332 	"/>
	<polygon fill="#BBE5F3" points="624,67.836 645.743,93.334 654.664,75.71 	"/>
	<polygon fill="#BBE5F3" points="728,109.834 688.26,9.339 740.439,102.201 	"/>
	<polygon fill="#BBE5F3" points="750,96.334 781.5,156.332 795,138.984 	"/>
</g>
<g>
	<polygon fill="#E8F8FF" points="472.145,169.516 527.725,71.21 542.604,183.705 	"/>
	<polygon fill="#BBE5F3" points="600.522,162.422 527.725,71.21 542.604,183.705 	"/>
</g>
<g>
	<polygon fill="#E8F8FF" points="256.486,149.582 308.5,82.835 298,157.984 	"/>
	<polygon fill="#BBE5F3" points="346.5,146.582 308.5,82.835 298,157.984 	"/>
</g>
<g>
	<rect x="21" y="163" fill="#464541" width="5" height="9"/>
	<polygon fill="#B4DCED" points="28.857,141 32.759,141 23.566,125.923 14.374,141 18.275,141 10.576,163 23.534,163 36.556,163 	
		"/>
	<polygon fill="#459DBF" points="23.566,125.643 14.374,141 18.275,141 10.576,163 23.534,163 	"/>
	<polygon fill="#3285A6" points="23.566,125.643 32.759,141 28.857,141 36.556,163 23.534,163 	"/>
	<polygon opacity="0.1" fill="#464541" points="10.576,163 29.022,140.924 36.556,163 	"/>
</g>
<g>
	<rect x="74" y="278" fill="#464541" width="8" height="14"/>
	<polygon fill="#B4DCED" points="86.366,243 92.441,243 78.128,219.526 63.815,243 69.891,243 57.902,278 78.078,278 98.353,278 	
		"/>
	<polygon fill="#459DBF" points="78.128,219.463 63.815,243 69.891,243 57.902,278 78.078,278 	"/>
	<polygon fill="#3285A6" points="78.128,219.463 92.441,243 86.366,243 98.353,278 78.078,278 	"/>
	<polygon opacity="0.1" fill="#464541" points="57.902,278 86.623,243.629 98.353,278 	"/>
</g>
<g>
	<rect x="147" y="414" fill="#464541" width="10" height="17"/>
	<polygon fill="#B4DCED" points="161.942,372 169.207,372 152.09,343.928 134.974,372 142.239,372 127.902,414 152.03,414 
		176.276,414 	"/>
	<polygon fill="#459DBF" points="152.09,343.924 134.974,372 142.239,372 127.902,414 152.03,414 	"/>
	<polygon fill="#3285A6" points="152.09,343.924 169.207,372 161.942,372 176.276,414 152.03,414 	"/>
	<polygon opacity="0.1" fill="#464541" points="127.902,414 162.249,372.896 176.276,414 	"/>
</g>
<g>
	<rect x="268" y="331" fill="#464541" width="8" height="15"/>
	<polygon fill="#B4DCED" points="280.823,293 287.422,293 271.874,267.501 256.326,293 262.925,293 249.902,331 271.819,331 
		293.844,331 	"/>
	<polygon fill="#459DBF" points="271.874,267.421 256.326,293 262.925,293 249.902,331 271.819,331 	"/>
	<polygon fill="#3285A6" points="271.874,267.421 287.422,293 280.823,293 293.844,331 271.819,331 	"/>
	<polygon opacity="0.1" fill="#464541" points="249.902,331 281.102,293.662 293.844,331 	"/>
</g>
<g>
	<rect x="181" y="238" fill="#464541" width="6" height="11"/>
	<polygon fill="#B4DCED" points="190.363,211 195.156,211 183.862,192.477 172.568,211 177.362,211 167.902,238 183.822,238 
		199.821,238 	"/>
	<polygon fill="#459DBF" points="183.862,192.119 172.568,211 177.362,211 167.902,238 183.822,238 	"/>
	<polygon fill="#3285A6" points="183.862,192.119 195.156,211 190.363,211 199.821,238 183.822,238 	"/>
	<polygon opacity="0.1" fill="#464541" points="167.902,238 190.565,210.878 199.821,238 	"/>
</g>
<g>
	<rect x="143" y="197" fill="#464541" width="5" height="9"/>
	<polygon fill="#B4DCED" points="150.857,175 154.759,175 145.566,159.923 136.374,175 140.275,175 132.576,197 145.534,197 
		158.556,197 	"/>
	<polygon fill="#459DBF" points="145.566,159.643 136.374,175 140.275,175 132.576,197 145.534,197 	"/>
	<polygon fill="#3285A6" points="145.566,159.643 154.759,175 150.857,175 158.556,197 145.534,197 	"/>
	<polygon opacity="0.1" fill="#464541" points="132.576,197 151.022,174.924 158.556,197 	"/>
</g>
<g>
	<rect x="291" y="215" fill="#464541" width="5" height="9"/>
	<polygon fill="#B4DCED" points="298.857,193 302.759,193 293.566,177.923 284.374,193 288.275,193 280.576,215 293.534,215 
		306.556,215 	"/>
	<polygon fill="#459DBF" points="293.566,177.643 284.374,193 288.275,193 280.576,215 293.534,215 	"/>
	<polygon fill="#3285A6" points="293.566,177.643 302.759,193 298.857,193 306.556,215 293.534,215 	"/>
	<polygon opacity="0.1" fill="#464541" points="280.576,215 299.022,192.924 306.556,215 	"/>
</g>
<g>
	<rect x="120" y="162" fill="#464541" width="5" height="8"/>
	<polygon fill="#91C9E8" points="127.18,140 130.889,140 122.15,125.667 113.411,140 117.12,140 109.801,162 122.12,162 
		134.499,162 	"/>
	<polygon fill="#147DA5" points="122.15,126.019 113.411,140 117.12,140 109.801,162 122.12,162 	"/>
	<polygon fill="#00557C" points="122.15,126.019 130.889,140 127.18,140 134.499,162 122.12,162 	"/>
	<polygon opacity="0.4" fill="#464541" points="109.801,162 127.385,141.302 134.499,162 	"/>
</g>
<g>
	<rect x="210" y="194" fill="#464541" width="5" height="8"/>
	<polygon fill="#91C9E8" points="217.18,172 220.889,172 212.15,157.667 203.411,172 207.12,172 199.801,194 212.12,194 
		224.499,194 	"/>
	<polygon fill="#147DA5" points="212.15,158.019 203.411,172 207.12,172 199.801,194 212.12,194 	"/>
	<polygon fill="#00557C" points="212.15,158.019 220.889,172 217.18,172 224.499,194 212.12,194 	"/>
	<polygon opacity="0.4" fill="#464541" points="199.801,194 217.385,173.302 224.499,194 	"/>
</g>
<g>
	<rect x="86" y="362" fill="#464541" width="10" height="14"/>
	<polygon fill="#91C9E8" points="99.812,321 106.531,321 90.698,295.028 74.862,321 81.583,321 68.323,362 90.642,362 113.073,362 	
		"/>
	<polygon fill="#147DA5" points="90.698,296.238 74.862,321 81.583,321 68.323,362 90.642,362 	"/>
	<polygon fill="#00557C" points="90.698,296.238 106.531,321 99.812,321 113.073,362 90.642,362 	"/>
	<polygon opacity="0.4" fill="#464541" points="68.323,362 100.183,324.496 113.073,362 	"/>
</g>
<g>
	<rect x="148" y="282" fill="#464541" width="8" height="12"/>
	<polygon fill="#91C9E8" points="159.354,247 165.122,247 151.53,224.705 137.937,247 143.707,247 132.323,282 151.482,282 
		170.738,282 	"/>
	<polygon fill="#147DA5" points="151.53,225.646 137.937,247 143.707,247 132.323,282 151.482,282 	"/>
	<polygon fill="#00557C" points="151.53,225.646 165.122,247 159.354,247 170.738,282 151.482,282 	"/>
	<polygon opacity="0.4" fill="#464541" points="132.323,282 159.673,249.806 170.738,282 	"/>
</g>
<g>
	<rect x="237" y="220" fill="#464541" width="6" height="9"/>
	<polygon fill="#91C9E8" points="245.395,194 249.678,194 239.585,177.445 229.491,194 233.776,194 225.323,220 239.55,220 
		253.848,220 	"/>
	<polygon fill="#147DA5" points="239.585,178.148 229.491,194 233.776,194 225.323,220 239.55,220 	"/>
	<polygon fill="#00557C" points="239.585,178.148 249.678,194 245.395,194 253.848,220 239.55,220 	"/>
	<polygon opacity="0.4" fill="#464541" points="225.323,220 245.632,196.094 253.848,220 	"/>
</g>
<g>
	<rect x="256" y="419" fill="#464541" width="10" height="15"/>
	<polygon fill="#91C9E8" points="270.219,377 277.238,377 260.698,349.867 244.155,377 251.176,377 237.323,419 260.64,419 
		284.073,419 	"/>
	<polygon fill="#147DA5" points="260.698,350.715 244.155,377 251.176,377 237.323,419 260.64,419 	"/>
	<polygon fill="#00557C" points="260.698,350.715 277.238,377 270.219,377 284.073,419 260.64,419 	"/>
	<polygon opacity="0.4" fill="#464541" points="237.323,419 270.607,379.82 284.073,419 	"/>
</g>
<g>
	<polygon fill="#147DA5" points="187,126.846 172.847,166 187,166 	"/>
	<polygon fill="#00557C" points="187,126.936 200.111,166 187,166 	"/>
	<rect x="184" y="166" fill="#464541" width="5" height="8"/>
	<polygon opacity="0.4" fill="#464541" points="172.847,166 191.721,141.943 200.111,166 	"/>
</g>
<g>
	<polygon fill="#147DA5" points="306,139.846 291.847,179 306,179 	"/>
	<polygon fill="#00557C" points="306,139.936 319.111,179 306,179 	"/>
	<rect x="303" y="179" fill="#464541" width="5" height="8"/>
	<polygon opacity="0.4" fill="#464541" points="291.847,179 310.721,154.943 319.111,179 	"/>
</g>
<g>
	<polygon fill="#147DA5" points="37,159.846 22.847,199 37,199 	"/>
	<polygon fill="#00557C" points="37,159.936 50.111,199 37,199 	"/>
	<rect x="34" y="199" fill="#464541" width="5" height="8"/>
	<polygon opacity="0.4" fill="#464541" points="22.847,199 41.721,174.943 50.111,199 	"/>
</g>
<g>
	<polygon fill="#147DA5" points="58,350.719 31.847,425 58,425 	"/>
	<polygon fill="#00557C" points="58,350.887 80.97,425 58,425 	"/>
	<rect x="52" y="425" fill="#464541" width="9" height="14"/>
	<polygon opacity="0.4" fill="#464541" points="31.847,425 65.854,379.962 80.97,425 	"/>
</g>
<g>
	<polygon fill="#147DA5" points="304,213.719 283.847,272 304,272 	"/>
	<polygon fill="#00557C" points="304,213.851 322.398,272 304,272 	"/>
	<rect x="300" y="272" fill="#464541" width="7" height="11"/>
	<polygon opacity="0.4" fill="#464541" points="283.847,272 310.535,236.655 322.398,272 	"/>
</g>
<g>
	<polygon fill="#147DA5" points="170,274.634 147.847,339 170,339 	"/>
	<polygon fill="#00557C" points="170,274.779 190.34,339 170,339 	"/>
	<rect x="165" y="339" fill="#464541" width="8" height="12"/>
	<polygon opacity="0.4" fill="#464541" points="147.847,339 177.264,300.041 190.34,339 	"/>
</g>
<g>
	<polygon fill="#459DBF" points="247,128.172 232.971,167 247,167 	"/>
	<polygon fill="#3285A6" points="247,128.172 259.598,167 247,167 	"/>
	<rect x="243" y="167" fill="#464541" width="6" height="7"/>
	<polygon opacity="0.1" fill="#464541" points="232.971,167 251.403,143.504 259.598,167 	"/>
</g>
<g>
	<polygon fill="#459DBF" points="38,267.172 12.971,336 38,336 	"/>
	<polygon fill="#3285A6" points="38,267.172 60.514,336 38,336 	"/>
	<rect x="31" y="336" fill="#464541" width="10" height="13"/>
	<polygon opacity="0.1" fill="#464541" points="12.971,336 45.883,294.047 60.514,336 	"/>
</g>
<g>
	<polygon fill="#459DBF" points="109,183.219 91.971,229 109,229 	"/>
	<polygon fill="#3285A6" points="109,183.219 123.799,229 109,229 	"/>
	<rect x="104" y="229" fill="#464541" width="7" height="9"/>
	<polygon opacity="0.1" fill="#464541" points="91.971,229 114.004,200.914 123.799,229 	"/>
</g>
<g>
	<polygon fill="#459DBF" points="214,229.78 193.971,284 214,284 	"/>
	<polygon fill="#3285A6" points="214,229.78 231.865,284 214,284 	"/>
	<rect x="209" y="284" fill="#464541" width="7" height="11"/>
	<polygon opacity="0.1" fill="#464541" points="193.971,284 220.203,250.562 231.865,284 	"/>
</g>
<g>
	<polygon fill="#459DBF" points="263,202.194 247.971,244 263,244 	"/>
	<polygon fill="#3285A6" points="263,202.194 276.909,244 263,244 	"/>
	<rect x="259" y="244" fill="#464541" width="6" height="8"/>
	<polygon opacity="0.1" fill="#464541" points="247.971,244 268.003,218.465 276.909,244 	"/>
</g>
<g>
	<polygon fill="#459DBF" points="220,310.172 194.971,379 220,379 	"/>
	<polygon fill="#3285A6" points="220,310.172 242.514,379 220,379 	"/>
	<rect x="213" y="379" fill="#464541" width="10" height="13"/>
	<polygon opacity="0.1" fill="#464541" points="194.971,379 227.883,337.047 242.514,379 	"/>
</g>
<g>
	<polygon fill="#459DBF" points="76,140.172 61.971,179 76,179 	"/>
	<polygon fill="#3285A6" points="76,140.172 88.598,179 76,179 	"/>
	<rect x="72" y="179" fill="#464541" width="6" height="7"/>
	<polygon opacity="0.1" fill="#464541" points="61.971,179 80.403,155.504 88.598,179 	"/>
</g>
<g>
	<polygon fill="#3488AD" points="456.317,152.759 444.345,155.986 438.133,158.479 450.106,155.253 	"/>
	<polygon fill="#186D94" points="447.016,173.241 440.027,169.839 440.027,157.985 447.016,161.387 	"/>
	<polygon fill="#00557C" points="458.021,169.64 447.016,173.241 447.016,161.387 458.021,157.787 	"/>
	<polygon fill="#186D94" points="440.027,157.985 444.279,155.986 447.016,161.387 447.016,163.03 440.027,158.957 	"/>
	<polygon fill="#3488AD" points="459.74,160.021 447.766,163.247 444.279,155.986 456.254,152.759 	"/>
	<polygon fill="#186D94" points="447.749,158.088 447.081,157.08 447.081,154.795 447.749,155.803 	"/>
	<polygon fill="#00557C" points="449.198,157.806 447.749,158.088 447.749,155.803 449.198,155.521 	"/>
	<polygon fill="#67B8DE" points="449.198,155.524 447.749,155.802 447.084,154.798 448.533,154.521 	"/>
</g>
<linearGradient id="SVGID_2_" gradientUnits="userSpaceOnUse" x1="443.4922" y1="71" x2="443.4922" y2="153.9911">
	<stop  offset="0" style="stop-color:#CEECF2;stop-opacity:0.3"/>
	<stop  offset="1" style="stop-color:#B4DCED"/>
</linearGradient>
<polygon fill="url(#SVGID_2_)" points="447.345,153.25 444.625,148.875 438.5,147.875 437.125,140.5 425.25,135.5 422.875,130.5 
	418.334,112.876 420.623,82.835 446.987,71.21 465.699,85.46 468.649,107 464.334,123 456.354,131 454.967,137.333 454.967,146.156 
	450.703,148.333 449.959,153.25 448.668,154.542 "/>
<g>
	<rect x="23" y="238" fill="#464541" width="6" height="10"/>
	<polygon fill="#91C9E8" points="32.122,208 36.987,208 25.523,189.195 14.058,208 18.925,208 9.323,238 25.483,238 41.724,238 	"/>
	<polygon fill="#147DA5" points="25.523,190.228 14.058,208 18.925,208 9.323,238 25.483,238 	"/>
	<polygon fill="#00557C" points="25.523,190.228 36.987,208 32.122,208 41.724,238 25.483,238 	"/>
	<polygon opacity="0.4" fill="#464541" points="9.323,238 32.391,210.845 41.724,238 	"/>
</g>
<g>
	<rect x="692" y="163" fill="#464541" width="5" height="9"/>
	<polygon fill="#B4DCED" points="699.857,141 703.76,141 694.566,125.923 685.373,141 689.275,141 681.576,163 694.534,163 
		707.557,163 	"/>
	<polygon fill="#459DBF" points="694.566,125.643 685.373,141 689.275,141 681.576,163 694.534,163 	"/>
	<polygon fill="#3285A6" points="694.566,125.643 703.76,141 699.857,141 707.557,163 694.534,163 	"/>
	<polygon opacity="0.1" fill="#464541" points="681.576,163 700.022,140.924 707.557,163 	"/>
</g>
<g>
	<rect x="536" y="278" fill="#464541" width="8" height="14"/>
	<polygon fill="#B4DCED" points="548.366,243 554.441,243 540.128,219.526 525.815,243 531.891,243 519.902,278 540.078,278 
		560.353,278 	"/>
	<polygon fill="#459DBF" points="540.128,219.463 525.815,243 531.891,243 519.902,278 540.078,278 	"/>
	<polygon fill="#3285A6" points="540.128,219.463 554.441,243 548.366,243 560.353,278 540.078,278 	"/>
	<polygon opacity="0.1" fill="#464541" points="519.902,278 548.623,243.629 560.353,278 	"/>
</g>
<g>
	<rect x="609" y="414" fill="#464541" width="10" height="17"/>
	<polygon fill="#B4DCED" points="623.941,372 631.207,372 614.09,343.928 596.974,372 604.238,372 589.902,414 614.03,414 
		638.276,414 	"/>
	<polygon fill="#459DBF" points="614.09,343.924 596.974,372 604.238,372 589.902,414 614.03,414 	"/>
	<polygon fill="#3285A6" points="614.09,343.924 631.207,372 623.941,372 638.276,414 614.03,414 	"/>
	<polygon opacity="0.1" fill="#464541" points="589.902,414 624.249,372.896 638.276,414 	"/>
</g>
<g>
	<rect x="730" y="331" fill="#464541" width="8" height="15"/>
	<polygon fill="#B4DCED" points="742.822,293 749.422,293 733.873,267.501 718.326,293 724.926,293 711.902,331 733.819,331 
		755.844,331 	"/>
	<polygon fill="#459DBF" points="733.873,267.421 718.326,293 724.926,293 711.902,331 733.819,331 	"/>
	<polygon fill="#3285A6" points="733.873,267.421 749.422,293 742.822,293 755.844,331 733.819,331 	"/>
	<polygon opacity="0.1" fill="#464541" points="711.902,331 743.102,293.662 755.844,331 	"/>
</g>
<g>
	<rect x="643" y="238" fill="#464541" width="6" height="11"/>
	<polygon fill="#B4DCED" points="652.363,211 657.156,211 645.862,192.477 634.568,211 639.361,211 629.902,238 645.822,238 
		661.821,238 	"/>
	<polygon fill="#459DBF" points="645.862,192.119 634.568,211 639.361,211 629.902,238 645.822,238 	"/>
	<polygon fill="#3285A6" points="645.862,192.119 657.156,211 652.363,211 661.821,238 645.822,238 	"/>
	<polygon opacity="0.1" fill="#464541" points="629.902,238 652.565,210.878 661.821,238 	"/>
</g>
<g>
	<rect x="605" y="212" fill="#464541" width="5" height="9"/>
	<polygon fill="#B4DCED" points="612.857,190 616.76,190 607.566,174.923 598.373,190 602.275,190 594.576,212 607.534,212 
		620.557,212 	"/>
	<polygon fill="#459DBF" points="607.566,174.643 598.373,190 602.275,190 594.576,212 607.534,212 	"/>
	<polygon fill="#3285A6" points="607.566,174.643 616.76,190 612.857,190 620.557,212 607.534,212 	"/>
	<polygon opacity="0.1" fill="#464541" points="594.576,212 613.022,189.924 620.557,212 	"/>
</g>
<g>
	<rect x="753" y="215" fill="#464541" width="5" height="9"/>
	<polygon fill="#B4DCED" points="760.857,193 764.76,193 755.566,177.923 746.373,193 750.275,193 742.576,215 755.534,215 
		768.557,215 	"/>
	<polygon fill="#459DBF" points="755.566,177.643 746.373,193 750.275,193 742.576,215 755.534,215 	"/>
	<polygon fill="#3285A6" points="755.566,177.643 764.76,193 760.857,193 768.557,215 755.534,215 	"/>
	<polygon opacity="0.1" fill="#464541" points="742.576,215 761.022,192.924 768.557,215 	"/>
</g>
<g>
	<rect x="598" y="166" fill="#464541" width="5" height="8"/>
	<polygon fill="#91C9E8" points="605.18,144 608.889,144 600.15,129.667 591.41,144 595.12,144 587.801,166 600.119,166 
		612.499,166 	"/>
	<polygon fill="#147DA5" points="600.15,130.019 591.41,144 595.12,144 587.801,166 600.119,166 	"/>
	<polygon fill="#00557C" points="600.15,130.019 608.889,144 605.18,144 612.499,166 600.119,166 	"/>
	<polygon opacity="0.4" fill="#464541" points="587.801,166 605.385,145.302 612.499,166 	"/>
</g>
<g>
	<rect x="672" y="194" fill="#464541" width="5" height="8"/>
	<polygon fill="#91C9E8" points="679.18,172 682.889,172 674.15,157.667 665.41,172 669.12,172 661.801,194 674.119,194 
		686.499,194 	"/>
	<polygon fill="#147DA5" points="674.15,158.019 665.41,172 669.12,172 661.801,194 674.119,194 	"/>
	<polygon fill="#00557C" points="674.15,158.019 682.889,172 679.18,172 686.499,194 674.119,194 	"/>
	<polygon opacity="0.4" fill="#464541" points="661.801,194 679.385,173.302 686.499,194 	"/>
</g>
<g>
	<rect x="548" y="362" fill="#464541" width="10" height="14"/>
	<polygon fill="#91C9E8" points="561.812,321 568.531,321 552.697,295.028 536.862,321 543.584,321 530.322,362 552.643,362 
		575.072,362 	"/>
	<polygon fill="#147DA5" points="552.697,296.238 536.862,321 543.584,321 530.322,362 552.643,362 	"/>
	<polygon fill="#00557C" points="552.697,296.238 568.531,321 561.812,321 575.072,362 552.643,362 	"/>
	<polygon opacity="0.4" fill="#464541" points="530.322,362 562.184,324.496 575.072,362 	"/>
</g>
<g>
	<rect x="610" y="282" fill="#464541" width="8" height="12"/>
	<polygon fill="#91C9E8" points="621.354,247 627.121,247 613.53,224.705 599.937,247 605.707,247 594.322,282 613.482,282 
		632.738,282 	"/>
	<polygon fill="#147DA5" points="613.53,225.646 599.937,247 605.707,247 594.322,282 613.482,282 	"/>
	<polygon fill="#00557C" points="613.53,225.646 627.121,247 621.354,247 632.738,282 613.482,282 	"/>
	<polygon opacity="0.4" fill="#464541" points="594.322,282 621.673,249.806 632.738,282 	"/>
</g>
<g>
	<rect x="699" y="220" fill="#464541" width="6" height="9"/>
	<polygon fill="#91C9E8" points="707.395,194 711.678,194 701.586,177.445 691.491,194 695.775,194 687.322,220 701.55,220 
		715.848,220 	"/>
	<polygon fill="#147DA5" points="701.586,178.148 691.491,194 695.775,194 687.322,220 701.55,220 	"/>
	<polygon fill="#00557C" points="701.586,178.148 711.678,194 707.395,194 715.848,220 701.55,220 	"/>
	<polygon opacity="0.4" fill="#464541" points="687.322,220 707.632,196.094 715.848,220 	"/>
</g>
<g>
	<rect x="718" y="419" fill="#464541" width="10" height="15"/>
	<polygon fill="#91C9E8" points="732.219,377 739.238,377 722.697,349.867 706.154,377 713.176,377 699.322,419 722.64,419 
		746.072,419 	"/>
	<polygon fill="#147DA5" points="722.697,350.715 706.154,377 713.176,377 699.322,419 722.64,419 	"/>
	<polygon fill="#00557C" points="722.697,350.715 739.238,377 732.219,377 746.072,419 722.64,419 	"/>
	<polygon opacity="0.4" fill="#464541" points="699.322,419 732.607,379.82 746.072,419 	"/>
</g>
<g>
	<polygon fill="#147DA5" points="647,127.846 632.848,167 647,167 	"/>
	<polygon fill="#00557C" points="647,127.936 660.111,167 647,167 	"/>
	<rect x="644" y="167" fill="#464541" width="5" height="8"/>
	<polygon opacity="0.4" fill="#464541" points="632.848,167 651.721,142.943 660.111,167 	"/>
</g>
<g>
	<polygon fill="#147DA5" points="768,139.846 753.848,179 768,179 	"/>
	<polygon fill="#00557C" points="768,139.936 781.111,179 768,179 	"/>
	<rect x="765" y="179" fill="#464541" width="5" height="8"/>
	<polygon opacity="0.4" fill="#464541" points="753.848,179 772.721,154.943 781.111,179 	"/>
</g>
<g>
	<polygon fill="#147DA5" points="499,159.846 484.848,199 499,199 	"/>
	<polygon fill="#00557C" points="499,159.936 512.111,199 499,199 	"/>
	<rect x="496" y="199" fill="#464541" width="5" height="8"/>
	<polygon opacity="0.4" fill="#464541" points="484.848,199 503.721,174.943 512.111,199 	"/>
</g>
<g>
	<polygon fill="#147DA5" points="520,350.719 493.848,425 520,425 	"/>
	<polygon fill="#00557C" points="520,350.887 542.971,425 520,425 	"/>
	<rect x="514" y="425" fill="#464541" width="9" height="14"/>
	<polygon opacity="0.4" fill="#464541" points="493.848,425 527.854,379.962 542.971,425 	"/>
</g>
<g>
	<polygon fill="#147DA5" points="766,213.719 745.848,272 766,272 	"/>
	<polygon fill="#00557C" points="766,213.851 784.398,272 766,272 	"/>
	<rect x="762" y="272" fill="#464541" width="7" height="11"/>
	<polygon opacity="0.4" fill="#464541" points="745.848,272 772.535,236.655 784.398,272 	"/>
</g>
<g>
	<polygon fill="#147DA5" points="632,274.634 609.848,339 632,339 	"/>
	<polygon fill="#00557C" points="632,274.779 652.34,339 632,339 	"/>
	<rect x="627" y="339" fill="#464541" width="8" height="12"/>
	<polygon opacity="0.4" fill="#464541" points="609.848,339 639.264,300.041 652.34,339 	"/>
</g>
<g>
	<polygon fill="#459DBF" points="733,132.172 718.971,171 733,171 	"/>
	<polygon fill="#3285A6" points="733,132.172 745.598,171 733,171 	"/>
	<rect x="729" y="171" fill="#464541" width="6" height="7"/>
	<polygon opacity="0.1" fill="#464541" points="718.971,171 737.403,147.504 745.598,171 	"/>
</g>
<g>
	<polygon fill="#459DBF" points="500,267.172 474.971,336 500,336 	"/>
	<polygon fill="#3285A6" points="500,267.172 522.514,336 500,336 	"/>
	<rect x="493" y="336" fill="#464541" width="10" height="13"/>
	<polygon opacity="0.1" fill="#464541" points="474.971,336 507.883,294.047 522.514,336 	"/>
</g>
<g>
	<polygon fill="#459DBF" points="571,183.219 553.971,229 571,229 	"/>
	<polygon fill="#3285A6" points="571,183.219 585.799,229 571,229 	"/>
	<rect x="566" y="229" fill="#464541" width="7" height="9"/>
	<polygon opacity="0.1" fill="#464541" points="553.971,229 576.004,200.914 585.799,229 	"/>
</g>
<g>
	<polygon fill="#459DBF" points="676,229.78 655.971,284 676,284 	"/>
	<polygon fill="#3285A6" points="676,229.78 693.865,284 676,284 	"/>
	<rect x="671" y="284" fill="#464541" width="7" height="11"/>
	<polygon opacity="0.1" fill="#464541" points="655.971,284 682.203,250.562 693.865,284 	"/>
</g>
<g>
	<polygon fill="#459DBF" points="725,202.194 709.971,244 725,244 	"/>
	<polygon fill="#3285A6" points="725,202.194 738.908,244 725,244 	"/>
	<rect x="721" y="244" fill="#464541" width="6" height="8"/>
	<polygon opacity="0.1" fill="#464541" points="709.971,244 730.003,218.465 738.908,244 	"/>
</g>
<g>
	<polygon fill="#459DBF" points="682,310.172 656.971,379 682,379 	"/>
	<polygon fill="#3285A6" points="682,310.172 704.514,379 682,379 	"/>
	<rect x="675" y="379" fill="#464541" width="10" height="13"/>
	<polygon opacity="0.1" fill="#464541" points="656.971,379 689.883,337.047 704.514,379 	"/>
</g>
<g>
	<polygon fill="#459DBF" points="545,163.172 530.971,202 545,202 	"/>
	<polygon fill="#3285A6" points="545,163.172 557.598,202 545,202 	"/>
	<rect x="541" y="202" fill="#464541" width="6" height="7"/>
	<polygon opacity="0.1" fill="#464541" points="530.971,202 549.403,178.504 557.598,202 	"/>
</g>
<g>
	<rect x="477" y="262" fill="#464541" width="6" height="10"/>
	<polygon fill="#91C9E8" points="486.122,232 490.987,232 479.523,213.195 468.058,232 472.925,232 463.322,262 479.483,262 
		495.725,262 	"/>
	<polygon fill="#147DA5" points="479.523,214.228 468.058,232 472.925,232 463.322,262 479.483,262 	"/>
	<polygon fill="#00557C" points="479.523,214.228 490.987,232 486.122,232 495.725,262 479.483,262 	"/>
	<polygon opacity="0.4" fill="#464541" points="463.322,262 486.391,234.845 495.725,262 	"/>
</g>
</svg>
