<?xml version="1.0" encoding="utf-8"?>
<!-- Generator: Adobe Illustrator 15.1.0, SVG Export Plug-In . SVG Version: 6.00 Build 0)  -->
<!DOCTYPE svg PUBLIC "-//W3C//DTD SVG 1.1//EN" "http://www.w3.org/Graphics/SVG/1.1/DTD/svg11.dtd">
<svg version="1.1" xmlns="http://www.w3.org/2000/svg" xmlns:xlink="http://www.w3.org/1999/xlink" x="0px" y="0px" width="800px"
	 height="600px" viewBox="0 0 800 600" enable-background="new 0 0 800 600" xml:space="preserve">
<g id="Calque_1">
	<rect fill="#CEECF2" width="800" height="600"/>
	<linearGradient id="SVGID_1_" gradientUnits="userSpaceOnUse" x1="297.1855" y1="373.291" x2="472.4443" y2="373.291">
		<stop  offset="0" style="stop-color:#E7FAFB"/>
		<stop  offset="1" style="stop-color:#E7FAFB"/>
	</linearGradient>
	<path fill="url(#SVGID_1_)" d="M300.41,600c0,0-20.965-189.25,44.035-260.625s74-113.546,71-131.46s-24.74-61.333-24.74-61.333
		h16.851c0,0,33.823,36.608,34.856,77.514s-13.309,107.271-13.967,125.082c-3.137,84.823,44,221.823,44,250.823H300.41z"/>
	<polygon fill="#B4DCED" points="0,35.587 98,-12.036 163.5,28.087 253,2.589 295,35.587 320.786,16.463 336,35.587 403.26,-12.036 
		472.145,41.587 519.152,9.339 589,31.087 628,-12.036 688.26,41.587 754,-12.036 800,34.087 800,120.41 0,127.458 	"/>
	<polygon fill="#91C9E8" points="98,-12.036 163.5,28.087 200.384,17.579 	"/>
	<polygon fill="#91C9E8" points="253,2.589 295,35.587 312.965,22.264 	"/>
	<polygon fill="#91C9E8" points="320.786,16.463 336,35.587 352.232,24.094 	"/>
	<polygon fill="#91C9E8" points="403.26,-12.036 472.145,41.587 497.257,24.359 	"/>
	<polygon fill="#91C9E8" points="519.152,9.339 589,31.087 595.439,23.969 	"/>
	<polygon fill="#91C9E8" points="628,-12.036 688.26,41.587 712.439,21.864 	"/>
	<polygon fill="#91C9E8" points="754,-12.036 800,34.087 800,14.775 	"/>
	<g>
		<polygon fill="#E8F8FF" points="-40.357,147.707 34.639,-12.036 82.637,95.209 115.635,65.96 138.134,112.833 183.519,16.463 
			283.713,154.456 		"/>
		<polygon fill="#BBE5F3" points="149.171,89.397 115.635,65.96 138.134,112.833 		"/>
		<polygon fill="#BBE5F3" points="82.637,95.209 34.639,-12.036 105.905,74.585 		"/>
		<polygon fill="#BBE5F3" points="315,119.651 183.519,16.463 283.713,154.456 		"/>
	</g>
	<g>
		<polygon fill="#E8F8FF" points="465.699,146.582 454.967,2.589 381,85.835 332.419,65.586 261.192,138.476 		"/>
		<polygon fill="#BBE5F3" points="332.419,65.586 397.051,67.771 381,85.835 		"/>
		<polygon fill="#BBE5F3" points="454.967,2.589 465.699,146.582 536.334,135.651 		"/>
	</g>
	<g>
		<polygon fill="#E8F8FF" points="562.5,162.332 624,67.836 645.743,93.334 688.26,9.339 728,109.834 750,96.334 781.5,156.332 		
			"/>
		<polygon fill="#BBE5F3" points="624,67.836 645.743,93.334 654.664,75.71 		"/>
		<polygon fill="#BBE5F3" points="728,109.834 688.26,9.339 740.439,102.201 		"/>
		<polygon fill="#BBE5F3" points="750,96.334 781.5,156.332 795,138.984 		"/>
	</g>
	<g>
		<polygon fill="#E8F8FF" points="472.145,169.516 527.725,71.21 542.604,183.705 		"/>
		<polygon fill="#BBE5F3" points="600.522,162.422 527.725,71.21 542.604,183.705 		"/>
	</g>
	<g>
		<polygon fill="#E8F8FF" points="256.486,149.582 308.5,82.835 298,157.984 		"/>
		<polygon fill="#BBE5F3" points="346.5,146.582 308.5,82.835 298,157.984 		"/>
	</g>
	<g>
		<rect x="68" y="164" fill="#464541" width="3" height="6"/>
		<polygon fill="#B4DCED" points="73.03,150 75.664,150 69.458,139.82 63.251,150 65.885,150 60.687,164 69.436,164 78.228,164 		
			"/>
		<polygon fill="#459DBF" points="69.458,139.205 63.251,150 65.885,150 60.687,164 69.436,164 		"/>
		<polygon fill="#3285A6" points="69.458,139.205 75.664,150 73.03,150 78.228,164 69.436,164 		"/>
		<polygon opacity="0.1" fill="#464541" points="60.687,164 73.141,149.095 78.228,164 		"/>
	</g>
	<g>
		<rect x="146" y="416" fill="#464541" width="11" height="19"/>
		<polygon fill="#B4DCED" points="162.318,370 170.268,370 151.536,339.278 132.804,370 140.755,370 125.066,416 151.471,416 
			178.005,416 		"/>
		<polygon fill="#459DBF" points="151.536,339.293 132.804,370 140.755,370 125.066,416 151.471,416 		"/>
		<polygon fill="#3285A6" points="151.536,339.293 170.268,370 162.318,370 178.005,416 151.471,416 		"/>
		<polygon opacity="0.1" fill="#464541" points="125.066,416 162.654,371.017 178.005,416 		"/>
	</g>
	<g>
		<rect x="206" y="713" fill="#464541" width="25" height="42"/>
		<polygon fill="#B4DCED" points="242.633,610 260.4,610 218.536,541.341 176.674,610 194.442,610 159.38,713 218.391,713 
			277.691,713 		"/>
		<polygon fill="#459DBF" points="218.536,541.472 176.674,610 194.442,610 159.38,713 218.391,713 		"/>
		<polygon fill="#3285A6" points="218.536,541.472 260.4,610 242.633,610 277.691,713 218.391,713 		"/>
		<polygon opacity="0.1" fill="#464541" points="159.38,713 243.383,612.469 277.691,713 		"/>
	</g>
	<g>
		<rect x="257" y="331" fill="#464541" width="7" height="13"/>
		<polygon fill="#B4DCED" points="268.085,297 274.025,297 260.031,274.05 246.037,297 251.977,297 240.256,331 259.982,331 
			279.805,331 		"/>
		<polygon fill="#459DBF" points="260.031,273.878 246.037,297 251.977,297 240.256,331 259.982,331 		"/>
		<polygon fill="#3285A6" points="260.031,273.878 274.025,297 268.085,297 279.805,331 259.982,331 		"/>
		<polygon opacity="0.1" fill="#464541" points="240.256,331 268.336,297.395 279.805,331 		"/>
	</g>
	<g>
		<rect x="177" y="234" fill="#464541" width="4" height="9"/>
		<polygon fill="#B4DCED" points="184.18,211 188.059,211 178.919,196.009 169.778,211 173.658,211 166.002,234 178.886,234 
			191.834,234 		"/>
		<polygon fill="#459DBF" points="178.919,196.294 169.778,211 173.658,211 166.002,234 178.886,234 		"/>
		<polygon fill="#3285A6" points="178.919,196.294 188.059,211 184.18,211 191.834,234 178.886,234 		"/>
		<polygon opacity="0.1" fill="#464541" points="166.002,234 184.344,212.051 191.834,234 		"/>
	</g>
	<g>
		<rect x="5" y="238" fill="#464541" width="4" height="9"/>
		<polygon fill="#B4DCED" points="12.18,215 16.059,215 6.919,200.009 -2.222,215 1.658,215 -5.998,238 6.886,238 19.834,238 		"/>
		<polygon fill="#459DBF" points="6.919,200.294 -2.222,215 1.658,215 -5.998,238 6.886,238 		"/>
		<polygon fill="#3285A6" points="6.919,200.294 16.059,215 12.18,215 19.834,238 6.886,238 		"/>
		<polygon opacity="0.1" fill="#464541" points="-5.998,238 12.344,216.051 19.834,238 		"/>
	</g>
	<g>
		<rect x="150" y="187" fill="#464541" width="3" height="6"/>
		<polygon fill="#B4DCED" points="155.4,172 158.035,172 151.828,161.82 145.621,172 148.256,172 143.057,187 151.806,187 
			160.599,187 		"/>
		<polygon fill="#459DBF" points="151.828,161.704 145.621,172 148.256,172 143.057,187 151.806,187 		"/>
		<polygon fill="#3285A6" points="151.828,161.704 158.035,172 155.4,172 160.599,187 151.806,187 		"/>
		<polygon opacity="0.1" fill="#464541" points="143.057,187 155.512,172.095 160.599,187 		"/>
	</g>
	<g>
		<rect x="266" y="215" fill="#464541" width="4" height="7"/>
		<polygon fill="#B4DCED" points="271.984,197 275.142,197 267.702,184.798 260.262,197 263.42,197 257.188,215 267.676,215 
			278.214,215 		"/>
		<polygon fill="#459DBF" points="267.702,184.669 260.262,197 263.42,197 257.188,215 267.676,215 		"/>
		<polygon fill="#3285A6" points="267.702,184.669 275.142,197 271.984,197 278.214,215 267.676,215 		"/>
		<polygon opacity="0.1" fill="#464541" points="257.188,215 272.117,197.134 278.214,215 		"/>
	</g>
	<g>
		<rect x="134" y="164" fill="#464541" width="4" height="5"/>
		<polygon fill="#91C9E8" points="139.414,149 141.918,149 136.018,139.322 130.118,149 132.622,149 127.681,164 135.998,164 
			144.356,164 		"/>
		<polygon fill="#147DA5" points="136.018,139.634 130.118,149 132.622,149 127.681,164 135.998,164 		"/>
		<polygon fill="#00557C" points="136.018,139.634 141.918,149 139.414,149 144.356,164 135.998,164 		"/>
		<polygon opacity="0.4" fill="#464541" points="127.681,164 139.553,150.025 144.356,164 		"/>
	</g>
	<g>
		<rect x="195" y="185" fill="#464541" width="4" height="6"/>
		<polygon fill="#91C9E8" points="200.18,170 202.683,170 196.783,160.322 190.883,170 193.387,170 188.446,185 196.763,185 
			205.121,185 		"/>
		<polygon fill="#147DA5" points="196.783,160.633 190.883,170 193.387,170 188.446,185 196.763,185 		"/>
		<polygon fill="#00557C" points="196.783,160.633 202.683,170 200.18,170 205.121,185 196.763,185 		"/>
		<polygon opacity="0.4" fill="#464541" points="188.446,185 200.318,171.025 205.121,185 		"/>
	</g>
	<g>
		<rect x="33" y="167" fill="#464541" width="4" height="6"/>
		<polygon fill="#91C9E8" points="38.18,152 40.683,152 34.783,142.322 28.883,152 31.387,152 26.446,167 34.763,167 43.121,167 		
			"/>
		<polygon fill="#147DA5" points="34.783,142.633 28.883,152 31.387,152 26.446,167 34.763,167 		"/>
		<polygon fill="#00557C" points="34.783,142.633 40.683,152 38.18,152 43.121,167 34.763,167 		"/>
		<polygon opacity="0.4" fill="#464541" points="26.446,167 38.318,153.025 43.121,167 		"/>
	</g>
	<g>
		<rect x="105" y="355" fill="#464541" width="9" height="12"/>
		<polygon fill="#91C9E8" points="117.169,318 123.217,318 108.966,294.625 94.714,318 100.764,318 88.828,355 108.917,355 
			129.105,355 		"/>
		<polygon fill="#147DA5" points="108.966,295.764 94.714,318 100.764,318 88.828,355 108.917,355 		"/>
		<polygon fill="#00557C" points="108.966,295.764 123.217,318 117.169,318 129.105,355 108.917,355 		"/>
		<polygon opacity="0.4" fill="#464541" points="88.828,355 117.504,321.245 129.105,355 		"/>
	</g>
	<g>
		<rect x="155" y="278" fill="#464541" width="6" height="10"/>
		<polygon fill="#91C9E8" points="164.162,249 169.029,249 157.56,230.186 146.089,249 150.958,249 141.352,278 157.52,278 
			173.769,278 		"/>
		<polygon fill="#147DA5" points="157.56,230.712 146.089,249 150.958,249 141.352,278 157.52,278 		"/>
		<polygon fill="#00557C" points="157.56,230.712 169.029,249 164.162,249 173.769,278 157.52,278 		"/>
		<polygon opacity="0.4" fill="#464541" points="141.352,278 164.432,250.833 173.769,278 		"/>
	</g>
	<g>
		<rect x="222" y="219" fill="#464541" width="5" height="8"/>
		<polygon fill="#91C9E8" points="228.717,198 232.183,198 224.015,184.602 215.846,198 219.313,198 212.472,219 223.986,219 
			235.558,219 		"/>
		<polygon fill="#147DA5" points="224.015,185.151 215.846,198 219.313,198 212.472,219 223.986,219 		"/>
		<polygon fill="#00557C" points="224.015,185.151 232.183,198 228.717,198 235.558,219 223.986,219 		"/>
		<polygon opacity="0.4" fill="#464541" points="212.472,219 228.908,199.653 235.558,219 		"/>
	</g>
	<g>
		<rect x="265" y="422" fill="#464541" width="11" height="16"/>
		<polygon fill="#91C9E8" points="280.813,376 288.495,376 270.394,346.307 252.289,376 259.973,376 244.812,422 270.33,422 
			295.975,422 		"/>
		<polygon fill="#147DA5" points="270.394,347.252 252.289,376 259.973,376 244.812,422 270.33,422 		"/>
		<polygon fill="#00557C" points="270.394,347.252 288.495,376 280.813,376 295.975,422 270.33,422 		"/>
		<polygon opacity="0.4" fill="#464541" points="244.812,422 281.238,379.123 295.975,422 		"/>
	</g>
	<g>
		<rect x="43" y="681" fill="#464541" width="24" height="35"/>
		<polygon fill="#91C9E8" points="77.278,580 94.15,580 54.394,514.785 14.631,580 31.507,580 -1.79,681 54.254,681 110.577,681 		
			"/>
		<polygon fill="#147DA5" points="54.394,516.847 14.631,580 31.507,580 -1.79,681 54.254,681 		"/>
		<polygon fill="#00557C" points="54.394,516.847 94.15,580 77.278,580 110.577,681 54.254,681 		"/>
		<polygon opacity="0.4" fill="#464541" points="-1.79,681 78.21,586.83 110.577,681 		"/>
	</g>
	<g>
		<polygon fill="#147DA5" points="180,139.723 170.247,166 180,166 		"/>
		<polygon fill="#00557C" points="180,139.783 188.655,166 180,166 		"/>
		<rect x="178" y="166" fill="#464541" width="3" height="6"/>
		<polygon opacity="0.4" fill="#464541" points="170.247,166 182.99,149.757 188.655,166 		"/>
	</g>
	<g>
		<polygon fill="#147DA5" points="260,148.5 250.592,175 260,175 		"/>
		<polygon fill="#00557C" points="260,148.561 269,175 260,175 		"/>
		<rect x="258" y="175" fill="#464541" width="3" height="5"/>
		<polygon opacity="0.4" fill="#464541" points="250.592,175 263.335,158.758 269,175 		"/>
	</g>
	<g>
		<polygon fill="#147DA5" points="78,162.003 68.972,188 78,188 		"/>
		<polygon fill="#00557C" points="78,162.064 87.38,188 78,188 		"/>
		<rect x="77" y="188" fill="#464541" width="3" height="6"/>
		<polygon opacity="0.4" fill="#464541" points="68.972,188 81.715,171.758 87.38,188 		"/>
	</g>
	<g>
		<polygon fill="#147DA5" points="95,184.337 82.137,221 95,221 		"/>
		<polygon fill="#00557C" points="95,184.424 108.215,221 95,221 		"/>
		<rect x="94" y="221" fill="#464541" width="4" height="9"/>
		<polygon opacity="0.4" fill="#464541" points="82.137,221 100.189,197.991 108.215,221 		"/>
	</g>
	<g>
		<polygon fill="#147DA5" points="298,167.503 289.8,191 298,191 		"/>
		<polygon fill="#00557C" points="298,167.559 306.551,191 298,191 		"/>
		<rect x="297" y="191" fill="#464541" width="3" height="6"/>
		<polygon opacity="0.4" fill="#464541" points="289.8,191 301.396,176.22 306.551,191 		"/>
	</g>
	<g>
		<polygon fill="#147DA5" points="21,325.874 -8.055,407 21,407 		"/>
		<polygon fill="#00557C" points="21,326.058 45.705,407 21,407 		"/>
		<rect x="14" y="407" fill="#464541" width="10" height="15"/>
		<polygon opacity="0.4" fill="#464541" points="-8.055,407 29.161,357.712 45.705,407 		"/>
	</g>
	<g>
		<polygon fill="#147DA5" points="205,406.777 165.943,515 205,515 		"/>
		<polygon fill="#00557C" points="205,407.022 237.707,515 205,515 		"/>
		<rect x="195" y="515" fill="#464541" width="14" height="20"/>
		<polygon opacity="0.4" fill="#464541" points="165.943,515 215.623,449.206 237.707,515 		"/>
	</g>
	<g>
		<polygon fill="#147DA5" points="287,220.063 269.218,270 287,270 		"/>
		<polygon fill="#00557C" points="287,220.174 301.75,270 287,270 		"/>
		<rect x="283" y="270" fill="#464541" width="5" height="9"/>
		<polygon opacity="0.4" fill="#464541" points="269.218,270 291.738,240.173 301.75,270 		"/>
	</g>
	<g>
		<polygon fill="#147DA5" points="21,242.062 1.562,297 21,297 		"/>
		<polygon fill="#00557C" points="21,242.185 37.406,297 21,297 		"/>
		<rect x="17" y="297" fill="#464541" width="5" height="10"/>
		<polygon opacity="0.4" fill="#464541" points="1.562,297 26.375,264.136 37.406,297 		"/>
	</g>
	<g>
		<polygon fill="#147DA5" points="168,280.105 148.403,338 168,338 		"/>
		<polygon fill="#00557C" points="168,280.236 186.648,338 168,338 		"/>
		<rect x="164" y="338" fill="#464541" width="7" height="11"/>
		<polygon opacity="0.4" fill="#464541" points="148.403,338 174.879,302.936 186.648,338 		"/>
	</g>
	<g>
		<polygon fill="#459DBF" points="220,140.618 210.841,167 220,167 		"/>
		<polygon fill="#3285A6" points="220,140.618 228.818,167 220,167 		"/>
		<rect x="218" y="167" fill="#464541" width="4" height="5"/>
		<polygon opacity="0.1" fill="#464541" points="210.841,167 223.286,151.136 228.818,167 		"/>
	</g>
	<g>
		<polygon fill="#459DBF" points="14,163.618 4.841,190 14,190 		"/>
		<polygon fill="#3285A6" points="14,163.618 22.818,190 14,190 		"/>
		<rect x="12" y="190" fill="#464541" width="4" height="5"/>
		<polygon opacity="0.1" fill="#464541" points="4.841,190 17.286,174.136 22.818,190 		"/>
	</g>
	<g>
		<polygon fill="#459DBF" points="62,257.389 40.01,319 62,319 		"/>
		<polygon fill="#3285A6" points="62,257.389 82.8,319 62,319 		"/>
		<rect x="56" y="319" fill="#464541" width="9" height="12"/>
		<polygon opacity="0.1" fill="#464541" points="40.01,319 69.632,281.241 82.8,319 		"/>
	</g>
	<g>
		<polygon fill="#459DBF" points="138,194.256 123.551,232 138,232 		"/>
		<polygon fill="#3285A6" points="138,194.256 149.31,232 138,232 		"/>
		<rect x="133" y="232" fill="#464541" width="6" height="7"/>
		<polygon opacity="0.1" fill="#464541" points="123.551,232 141.383,209.27 149.31,232 		"/>
	</g>
	<g>
		<polygon fill="#459DBF" points="210,233.617 193.374,280 210,280 		"/>
		<polygon fill="#3285A6" points="210,233.617 225.352,280 210,280 		"/>
		<rect x="206" y="280" fill="#464541" width="6" height="9"/>
		<polygon opacity="0.1" fill="#464541" points="193.374,280 215.51,251.783 225.352,280 		"/>
	</g>
	<g>
		<polygon fill="#459DBF" points="243,204.613 230.801,238 243,238 		"/>
		<polygon fill="#3285A6" points="243,204.613 254.221,238 243,238 		"/>
		<rect x="240" y="238" fill="#464541" width="5" height="7"/>
		<polygon opacity="0.1" fill="#464541" points="230.801,238 247.013,217.334 254.221,238 		"/>
	</g>
	<g>
		<polygon fill="#459DBF" points="213,312.09 190.816,374 213,374 		"/>
		<polygon fill="#3285A6" points="213,312.09 233.606,374 213,374 		"/>
		<rect x="207" y="374" fill="#464541" width="9" height="12"/>
		<polygon opacity="0.1" fill="#464541" points="190.816,374 220.438,336.24 233.606,374 		"/>
	</g>
	<g>
		<polygon fill="#459DBF" points="81,386.981 47.174,483 81,483 		"/>
		<polygon fill="#3285A6" points="81,386.981 113.248,483 81,483 		"/>
		<rect x="72" y="483" fill="#464541" width="14" height="18"/>
		<polygon opacity="0.1" fill="#464541" points="47.174,483 92.914,424.693 113.248,483 		"/>
	</g>
	<g>
		<polygon fill="#459DBF" points="105,148.72 95.387,175 105,175 		"/>
		<polygon fill="#3285A6" points="105,148.72 113.365,175 105,175 		"/>
		<rect x="102" y="175" fill="#464541" width="4" height="4"/>
		<polygon opacity="0.1" fill="#464541" points="95.387,175 107.832,159.137 113.365,175 		"/>
	</g>
	<g>
		<polygon fill="#3488AD" points="456.317,152.759 444.345,155.986 438.133,158.479 450.106,155.253 		"/>
		<polygon fill="#186D94" points="447.016,173.241 440.027,169.839 440.027,157.985 447.016,161.387 		"/>
		<polygon fill="#00557C" points="458.021,169.64 447.016,173.241 447.016,161.387 458.021,157.787 		"/>
		<polygon fill="#186D94" points="440.027,157.985 444.279,155.986 447.016,161.387 447.016,163.03 440.027,158.957 		"/>
		<polygon fill="#3488AD" points="459.74,160.021 447.766,163.247 444.279,155.986 456.254,152.759 		"/>
		<polygon fill="#186D94" points="447.749,158.088 447.081,157.08 447.081,154.795 447.749,155.803 		"/>
		<polygon fill="#00557C" points="449.198,157.806 447.749,158.088 447.749,155.803 449.198,155.521 		"/>
		<polygon fill="#67B8DE" points="449.198,155.524 447.749,155.802 447.084,154.798 448.533,154.521 		"/>
	</g>
	<polygon fill="#CEECF2" points="447.345,153.25 444.625,148.875 438.5,147.875 437.125,140.5 425.25,135.5 422.875,130.5 
		418.334,112.876 420.623,82.835 446.987,71.21 465.699,85.46 468.649,107 464.334,123 456.354,131 454.967,137.333 
		454.967,146.156 450.703,148.333 449.959,153.25 448.668,154.542 	"/>
	<g>
		<rect x="49" y="234" fill="#464541" width="5" height="8"/>
		<polygon fill="#91C9E8" points="56.116,210 60.054,210 50.776,194.782 41.497,210 45.436,210 37.665,234 50.744,234 63.887,234 		
			"/>
		<polygon fill="#147DA5" points="50.776,195.478 41.497,210 45.436,210 37.665,234 50.744,234 		"/>
		<polygon fill="#00557C" points="50.776,195.478 60.054,210 56.116,210 63.887,234 50.744,234 		"/>
		<polygon opacity="0.4" fill="#464541" points="37.665,234 56.334,212.024 63.887,234 		"/>
	</g>
	<g>
		<rect x="93" y="274" fill="#464541" width="6" height="12"/>
		<polygon fill="#B4DCED" points="102.57,245 107.697,245 95.618,225.191 83.541,245 88.667,245 78.551,274 95.577,274 112.685,274 
					"/>
		<polygon fill="#459DBF" points="95.618,224.87 83.541,245 88.667,245 78.551,274 95.577,274 		"/>
		<polygon fill="#3285A6" points="95.618,224.87 107.697,245 102.57,245 112.685,274 95.577,274 		"/>
		<polygon opacity="0.1" fill="#464541" points="78.551,274 102.787,244.996 112.685,274 		"/>
	</g>
	<g>
		<rect x="326" y="238" fill="#464541" width="4" height="9"/>
		<polygon fill="#B4DCED" points="333.18,215 337.059,215 327.919,200.009 318.778,215 322.658,215 315.002,238 327.886,238 
			340.834,238 		"/>
		<polygon fill="#459DBF" points="327.919,200.294 318.778,215 322.658,215 315.002,238 327.886,238 		"/>
		<polygon fill="#3285A6" points="327.919,200.294 337.059,215 333.18,215 340.834,238 327.886,238 		"/>
		<polygon opacity="0.1" fill="#464541" points="315.002,238 333.344,216.051 340.834,238 		"/>
	</g>
	<g>
		<polygon fill="#147DA5" points="361,137.298 353.254,159 361,159 		"/>
		<polygon fill="#00557C" points="361,137.35 368.936,159 361,159 		"/>
		<rect x="360" y="159" fill="#464541" width="3" height="6"/>
		<polygon opacity="0.4" fill="#464541" points="353.254,159 364.11,145.164 368.936,159 		"/>
	</g>
	<g>
		<polygon fill="#147DA5" points="342,242.062 322.562,297 342,297 		"/>
		<polygon fill="#00557C" points="342,242.185 358.406,297 342,297 		"/>
		<rect x="338" y="297" fill="#464541" width="5" height="10"/>
		<polygon opacity="0.4" fill="#464541" points="322.562,297 347.375,264.136 358.406,297 		"/>
	</g>
	<g>
		<polygon fill="#459DBF" points="332,155.618 322.841,182 332,182 		"/>
		<polygon fill="#3285A6" points="332,155.618 340.818,182 332,182 		"/>
		<rect x="330" y="182" fill="#464541" width="4" height="5"/>
		<polygon opacity="0.1" fill="#464541" points="322.841,182 335.286,166.136 340.818,182 		"/>
	</g>
	<g>
		<polygon fill="#459DBF" points="316,277.389 294.01,339 316,339 		"/>
		<polygon fill="#3285A6" points="316,277.389 336.801,339 316,339 		"/>
		<rect x="310" y="339" fill="#464541" width="9" height="12"/>
		<polygon opacity="0.1" fill="#464541" points="294.01,339 323.632,301.241 336.801,339 		"/>
	</g>
	<g>
		<polygon fill="#459DBF" points="474,206.256 459.551,244 474,244 		"/>
		<polygon fill="#3285A6" points="474,206.256 485.311,244 474,244 		"/>
		<rect x="469" y="244" fill="#464541" width="6" height="7"/>
		<polygon opacity="0.1" fill="#464541" points="459.551,244 477.383,221.27 485.311,244 		"/>
	</g>
	<g>
		<rect x="370" y="234" fill="#464541" width="5" height="8"/>
		<polygon fill="#91C9E8" points="377.116,210 381.054,210 371.776,194.782 362.497,210 366.436,210 358.665,234 371.744,234 
			384.887,234 		"/>
		<polygon fill="#147DA5" points="371.776,195.478 362.497,210 366.436,210 358.665,234 371.744,234 		"/>
		<polygon fill="#00557C" points="371.776,195.478 381.054,210 377.116,210 384.887,234 371.744,234 		"/>
		<polygon opacity="0.4" fill="#464541" points="358.665,234 377.334,212.024 384.887,234 		"/>
	</g>
	<g>
		<rect x="377" y="184" fill="#464541" width="3" height="7"/>
		<polygon fill="#B4DCED" points="381.623,169 384.355,169 377.917,158.442 371.48,169 374.213,169 368.821,184 377.895,184 
			387.013,184 		"/>
		<polygon fill="#459DBF" points="377.917,158.043 371.48,169 374.213,169 368.821,184 377.895,184 		"/>
		<polygon fill="#3285A6" points="377.917,158.043 384.355,169 381.623,169 387.013,184 377.895,184 		"/>
		<polygon opacity="0.1" fill="#464541" points="368.821,184 381.738,168.542 387.013,184 		"/>
	</g>
	<g>
		<rect x="583" y="186" fill="#464541" width="3" height="6"/>
		<polygon fill="#B4DCED" points="588.029,172 590.664,172 584.457,161.82 578.251,172 580.885,172 575.687,186 584.436,186 
			593.228,186 		"/>
		<polygon fill="#459DBF" points="584.457,161.205 578.251,172 580.885,172 575.687,186 584.436,186 		"/>
		<polygon fill="#3285A6" points="584.457,161.205 590.664,172 588.029,172 593.228,186 584.436,186 		"/>
		<polygon opacity="0.1" fill="#464541" points="575.687,186 588.141,171.095 593.228,186 		"/>
	</g>
	<g>
		<rect x="632" y="423" fill="#464541" width="11" height="19"/>
		<polygon fill="#B4DCED" points="648.318,377 656.268,377 637.535,346.278 618.805,377 626.755,377 611.066,423 637.471,423 
			664.005,423 		"/>
		<polygon fill="#459DBF" points="637.535,346.293 618.805,377 626.755,377 611.066,423 637.471,423 		"/>
		<polygon fill="#3285A6" points="637.535,346.293 656.268,377 648.318,377 664.005,423 637.471,423 		"/>
		<polygon opacity="0.1" fill="#464541" points="611.066,423 648.654,378.017 664.005,423 		"/>
	</g>
	<g>
		<rect x="692" y="720" fill="#464541" width="25" height="42"/>
		<polygon fill="#B4DCED" points="728.633,617 746.4,617 704.536,548.341 662.674,617 680.442,617 645.38,720 704.391,720 
			763.691,720 		"/>
		<polygon fill="#459DBF" points="704.536,548.472 662.674,617 680.442,617 645.38,720 704.391,720 		"/>
		<polygon fill="#3285A6" points="704.536,548.472 746.4,617 728.633,617 763.691,720 704.391,720 		"/>
		<polygon opacity="0.1" fill="#464541" points="645.38,720 729.383,619.469 763.691,720 		"/>
	</g>
	<g>
		<rect x="743" y="338" fill="#464541" width="7" height="13"/>
		<polygon fill="#B4DCED" points="754.085,304 760.025,304 746.031,281.05 732.037,304 737.977,304 726.256,338 745.982,338 
			765.805,338 		"/>
		<polygon fill="#459DBF" points="746.031,280.878 732.037,304 737.977,304 726.256,338 745.982,338 		"/>
		<polygon fill="#3285A6" points="746.031,280.878 760.025,304 754.085,304 765.805,338 745.982,338 		"/>
		<polygon opacity="0.1" fill="#464541" points="726.256,338 754.336,304.395 765.805,338 		"/>
	</g>
	<g>
		<rect x="663" y="241" fill="#464541" width="4" height="9"/>
		<polygon fill="#B4DCED" points="670.18,218 674.059,218 664.919,203.009 655.778,218 659.658,218 652.002,241 664.887,241 
			677.834,241 		"/>
		<polygon fill="#459DBF" points="664.919,203.294 655.778,218 659.658,218 652.002,241 664.887,241 		"/>
		<polygon fill="#3285A6" points="664.919,203.294 674.059,218 670.18,218 677.834,241 664.887,241 		"/>
		<polygon opacity="0.1" fill="#464541" points="652.002,241 670.344,219.051 677.834,241 		"/>
	</g>
	<g>
		<rect x="636" y="194" fill="#464541" width="3" height="6"/>
		<polygon fill="#B4DCED" points="641.4,179 644.035,179 637.828,168.82 631.621,179 634.256,179 629.057,194 637.807,194 
			646.599,194 		"/>
		<polygon fill="#459DBF" points="637.828,168.704 631.621,179 634.256,179 629.057,194 637.807,194 		"/>
		<polygon fill="#3285A6" points="637.828,168.704 644.035,179 641.4,179 646.599,194 637.807,194 		"/>
		<polygon opacity="0.1" fill="#464541" points="629.057,194 641.512,179.095 646.599,194 		"/>
	</g>
	<g>
		<rect x="752" y="222" fill="#464541" width="4" height="7"/>
		<polygon fill="#B4DCED" points="757.984,204 761.142,204 753.701,191.798 746.262,204 749.42,204 743.188,222 753.676,222 
			764.214,222 		"/>
		<polygon fill="#459DBF" points="753.701,191.669 746.262,204 749.42,204 743.188,222 753.676,222 		"/>
		<polygon fill="#3285A6" points="753.701,191.669 761.142,204 757.984,204 764.214,222 753.676,222 		"/>
		<polygon opacity="0.1" fill="#464541" points="743.188,222 758.117,204.134 764.214,222 		"/>
	</g>
	<g>
		<rect x="620" y="171" fill="#464541" width="4" height="5"/>
		<polygon fill="#91C9E8" points="625.414,156 627.918,156 622.018,146.322 616.117,156 618.622,156 613.681,171 621.998,171 
			630.355,171 		"/>
		<polygon fill="#147DA5" points="622.018,146.634 616.117,156 618.622,156 613.681,171 621.998,171 		"/>
		<polygon fill="#00557C" points="622.018,146.634 627.918,156 625.414,156 630.355,171 621.998,171 		"/>
		<polygon opacity="0.4" fill="#464541" points="613.681,171 625.553,157.025 630.355,171 		"/>
	</g>
	<g>
		<rect x="681" y="192" fill="#464541" width="4" height="6"/>
		<polygon fill="#91C9E8" points="686.18,177 688.684,177 682.783,167.322 676.883,177 679.387,177 674.445,192 682.763,192 
			691.121,192 		"/>
		<polygon fill="#147DA5" points="682.783,167.633 676.883,177 679.387,177 674.445,192 682.763,192 		"/>
		<polygon fill="#00557C" points="682.783,167.633 688.684,177 686.18,177 691.121,192 682.763,192 		"/>
		<polygon opacity="0.4" fill="#464541" points="674.445,192 686.318,178.025 691.121,192 		"/>
	</g>
	<g>
		<rect x="524" y="194" fill="#464541" width="4" height="6"/>
		<polygon fill="#91C9E8" points="529.18,179 531.684,179 525.783,169.322 519.883,179 522.387,179 517.445,194 525.763,194 
			534.121,194 		"/>
		<polygon fill="#147DA5" points="525.783,169.633 519.883,179 522.387,179 517.445,194 525.763,194 		"/>
		<polygon fill="#00557C" points="525.783,169.633 531.684,179 529.18,179 534.121,194 525.763,194 		"/>
		<polygon opacity="0.4" fill="#464541" points="517.445,194 529.318,180.025 534.121,194 		"/>
	</g>
	<g>
		<rect x="591" y="362" fill="#464541" width="9" height="12"/>
		<polygon fill="#91C9E8" points="603.17,325 609.217,325 594.967,301.625 580.715,325 586.764,325 574.828,362 594.916,362 
			615.105,362 		"/>
		<polygon fill="#147DA5" points="594.967,302.764 580.715,325 586.764,325 574.828,362 594.916,362 		"/>
		<polygon fill="#00557C" points="594.967,302.764 609.217,325 603.17,325 615.105,362 594.916,362 		"/>
		<polygon opacity="0.4" fill="#464541" points="574.828,362 603.504,328.245 615.105,362 		"/>
	</g>
	<g>
		<rect x="799" y="370" fill="#464541" width="9" height="12"/>
		<polygon fill="#91C9E8" points="811.17,333 817.217,333 802.967,309.625 788.715,333 794.764,333 782.828,370 802.916,370 
			823.105,370 		"/>
		<polygon fill="#147DA5" points="802.967,310.764 788.715,333 794.764,333 782.828,370 802.916,370 		"/>
		<polygon fill="#00557C" points="802.967,310.764 817.217,333 811.17,333 823.105,370 802.916,370 		"/>
		<polygon opacity="0.4" fill="#464541" points="782.828,370 811.504,336.245 823.105,370 		"/>
	</g>
	<g>
		<rect x="641" y="285" fill="#464541" width="6" height="10"/>
		<polygon fill="#91C9E8" points="650.162,256 655.029,256 643.561,237.186 632.089,256 636.958,256 627.352,285 643.52,285 
			659.769,285 		"/>
		<polygon fill="#147DA5" points="643.561,237.712 632.089,256 636.958,256 627.352,285 643.52,285 		"/>
		<polygon fill="#00557C" points="643.561,237.712 655.029,256 650.162,256 659.769,285 643.52,285 		"/>
		<polygon opacity="0.4" fill="#464541" points="627.352,285 650.432,257.832 659.769,285 		"/>
	</g>
	<g>
		<rect x="708" y="226" fill="#464541" width="5" height="8"/>
		<polygon fill="#91C9E8" points="714.717,205 718.183,205 710.016,191.602 701.846,205 705.313,205 698.473,226 709.986,226 
			721.558,226 		"/>
		<polygon fill="#147DA5" points="710.016,192.151 701.846,205 705.313,205 698.473,226 709.986,226 		"/>
		<polygon fill="#00557C" points="710.016,192.151 718.183,205 714.717,205 721.558,226 709.986,226 		"/>
		<polygon opacity="0.4" fill="#464541" points="698.473,226 714.908,206.653 721.558,226 		"/>
	</g>
	<g>
		<rect x="780" y="185" fill="#464541" width="4" height="6"/>
		<polygon fill="#91C9E8" points="785.912,167 788.784,167 782.016,155.896 775.245,167 778.118,167 772.449,185 781.991,185 
			791.581,185 		"/>
		<polygon fill="#147DA5" points="782.016,156.649 775.245,167 778.118,167 772.449,185 781.991,185 		"/>
		<polygon fill="#00557C" points="782.016,156.649 788.784,167 785.912,167 791.581,185 781.991,185 		"/>
		<polygon opacity="0.4" fill="#464541" points="772.449,185 786.07,168.966 791.581,185 		"/>
	</g>
	<g>
		<rect x="751" y="429" fill="#464541" width="11" height="16"/>
		<polygon fill="#91C9E8" points="766.812,383 774.495,383 756.394,353.307 738.289,383 745.973,383 730.812,429 756.33,429 
			781.975,429 		"/>
		<polygon fill="#147DA5" points="756.394,354.252 738.289,383 745.973,383 730.812,429 756.33,429 		"/>
		<polygon fill="#00557C" points="756.394,354.252 774.495,383 766.812,383 781.975,429 756.33,429 		"/>
		<polygon opacity="0.4" fill="#464541" points="730.812,429 767.238,386.123 781.975,429 		"/>
	</g>
	<g>
		<rect x="529" y="688" fill="#464541" width="24" height="35"/>
		<polygon fill="#91C9E8" points="563.277,587 580.15,587 540.394,521.785 500.631,587 517.508,587 484.211,688 540.254,688 
			596.576,688 		"/>
		<polygon fill="#147DA5" points="540.394,523.847 500.631,587 517.508,587 484.211,688 540.254,688 		"/>
		<polygon fill="#00557C" points="540.394,523.847 580.15,587 563.277,587 596.576,688 540.254,688 		"/>
		<polygon opacity="0.4" fill="#464541" points="484.211,688 564.211,593.83 596.576,688 		"/>
	</g>
	<g>
		<polygon fill="#147DA5" points="666,146.723 656.247,173 666,173 		"/>
		<polygon fill="#00557C" points="666,146.783 674.654,173 666,173 		"/>
		<rect x="664" y="173" fill="#464541" width="3" height="6"/>
		<polygon opacity="0.4" fill="#464541" points="656.247,173 668.99,156.757 674.654,173 		"/>
	</g>
	<g>
		<polygon fill="#147DA5" points="746,155.5 736.592,182 746,182 		"/>
		<polygon fill="#00557C" points="746,155.561 755,182 746,182 		"/>
		<rect x="744" y="182" fill="#464541" width="3" height="5"/>
		<polygon opacity="0.4" fill="#464541" points="736.592,182 749.335,165.758 755,182 		"/>
	</g>
	<g>
		<polygon fill="#147DA5" points="546,200.003 536.972,226 546,226 		"/>
		<polygon fill="#00557C" points="546,200.064 555.38,226 546,226 		"/>
		<rect x="545" y="226" fill="#464541" width="3" height="6"/>
		<polygon opacity="0.4" fill="#464541" points="536.972,226 549.715,209.758 555.38,226 		"/>
	</g>
	<g>
		<polygon fill="#147DA5" points="581,191.337 568.137,228 581,228 		"/>
		<polygon fill="#00557C" points="581,191.424 594.215,228 581,228 		"/>
		<rect x="580" y="228" fill="#464541" width="4" height="9"/>
		<polygon opacity="0.4" fill="#464541" points="568.137,228 586.189,204.991 594.215,228 		"/>
	</g>
	<g>
		<polygon fill="#147DA5" points="507,332.874 477.945,414 507,414 		"/>
		<polygon fill="#00557C" points="507,333.058 531.705,414 507,414 		"/>
		<rect x="500" y="414" fill="#464541" width="10" height="15"/>
		<polygon opacity="0.4" fill="#464541" points="477.945,414 515.161,364.712 531.705,414 		"/>
	</g>
	<g>
		<polygon fill="#147DA5" points="691,413.777 651.943,522 691,522 		"/>
		<polygon fill="#00557C" points="691,414.022 723.707,522 691,522 		"/>
		<rect x="681" y="522" fill="#464541" width="14" height="20"/>
		<polygon opacity="0.4" fill="#464541" points="651.943,522 701.623,456.206 723.707,522 		"/>
	</g>
	<g>
		<polygon fill="#147DA5" points="773,227.063 755.218,277 773,277 		"/>
		<polygon fill="#00557C" points="773,227.174 787.75,277 773,277 		"/>
		<rect x="769" y="277" fill="#464541" width="5" height="9"/>
		<polygon opacity="0.4" fill="#464541" points="755.218,277 777.738,247.173 787.75,277 		"/>
	</g>
	<g>
		<polygon fill="#147DA5" points="506,254.062 486.562,309 506,309 		"/>
		<polygon fill="#00557C" points="506,254.185 522.406,309 506,309 		"/>
		<rect x="502" y="309" fill="#464541" width="5" height="10"/>
		<polygon opacity="0.4" fill="#464541" points="486.562,309 511.375,276.137 522.406,309 		"/>
	</g>
	<g>
		<polygon fill="#147DA5" points="654,287.105 634.402,345 654,345 		"/>
		<polygon fill="#00557C" points="654,287.236 672.648,345 654,345 		"/>
		<rect x="650" y="345" fill="#464541" width="7" height="11"/>
		<polygon opacity="0.4" fill="#464541" points="634.402,345 660.879,309.936 672.648,345 		"/>
	</g>
	<g>
		<polygon fill="#459DBF" points="706,147.618 696.841,174 706,174 		"/>
		<polygon fill="#3285A6" points="706,147.618 714.818,174 706,174 		"/>
		<rect x="704" y="174" fill="#464541" width="4" height="5"/>
		<polygon opacity="0.1" fill="#464541" points="696.841,174 709.286,158.136 714.818,174 		"/>
	</g>
	<g>
		<polygon fill="#459DBF" points="491,170.618 481.841,197 491,197 		"/>
		<polygon fill="#3285A6" points="491,170.618 499.818,197 491,197 		"/>
		<rect x="489" y="197" fill="#464541" width="4" height="5"/>
		<polygon opacity="0.1" fill="#464541" points="481.841,197 494.286,181.136 499.818,197 		"/>
	</g>
	<g>
		<polygon fill="#459DBF" points="548,264.389 526.01,326 548,326 		"/>
		<polygon fill="#3285A6" points="548,264.389 568.801,326 548,326 		"/>
		<rect x="542" y="326" fill="#464541" width="9" height="12"/>
		<polygon opacity="0.1" fill="#464541" points="526.01,326 555.632,288.241 568.801,326 		"/>
	</g>
	<g>
		<polygon fill="#459DBF" points="624,201.256 609.551,239 624,239 		"/>
		<polygon fill="#3285A6" points="624,201.256 635.311,239 624,239 		"/>
		<rect x="619" y="239" fill="#464541" width="6" height="7"/>
		<polygon opacity="0.1" fill="#464541" points="609.551,239 627.383,216.27 635.311,239 		"/>
	</g>
	<g>
		<polygon fill="#459DBF" points="696,240.617 679.374,287 696,287 		"/>
		<polygon fill="#3285A6" points="696,240.617 711.352,287 696,287 		"/>
		<rect x="692" y="287" fill="#464541" width="6" height="9"/>
		<polygon opacity="0.1" fill="#464541" points="679.374,287 701.51,258.783 711.352,287 		"/>
	</g>
	<g>
		<polygon fill="#459DBF" points="729,211.613 716.801,245 729,245 		"/>
		<polygon fill="#3285A6" points="729,211.613 740.221,245 729,245 		"/>
		<rect x="726" y="245" fill="#464541" width="5" height="7"/>
		<polygon opacity="0.1" fill="#464541" points="716.801,245 733.014,224.334 740.221,245 		"/>
	</g>
	<g>
		<polygon fill="#459DBF" points="801,201.613 788.801,235 801,235 		"/>
		<polygon fill="#3285A6" points="801,201.613 812.221,235 801,235 		"/>
		<rect x="798" y="235" fill="#464541" width="5" height="7"/>
		<polygon opacity="0.1" fill="#464541" points="788.801,235 805.014,214.334 812.221,235 		"/>
	</g>
	<g>
		<polygon fill="#459DBF" points="699,319.09 676.816,381 699,381 		"/>
		<polygon fill="#3285A6" points="699,319.09 719.606,381 699,381 		"/>
		<rect x="693" y="381" fill="#464541" width="9" height="12"/>
		<polygon opacity="0.1" fill="#464541" points="676.816,381 706.438,343.24 719.606,381 		"/>
	</g>
	<g>
		<polygon fill="#459DBF" points="567,393.981 533.174,490 567,490 		"/>
		<polygon fill="#3285A6" points="567,393.981 599.248,490 567,490 		"/>
		<rect x="558" y="490" fill="#464541" width="14" height="18"/>
		<polygon opacity="0.1" fill="#464541" points="533.174,490 578.914,431.693 599.248,490 		"/>
	</g>
	<g>
		<polygon fill="#459DBF" points="784,441.981 750.174,538 784,538 		"/>
		<polygon fill="#3285A6" points="784,441.981 816.248,538 784,538 		"/>
		<rect x="775" y="538" fill="#464541" width="14" height="18"/>
		<polygon opacity="0.1" fill="#464541" points="750.174,538 795.914,479.693 816.248,538 		"/>
	</g>
	<g>
		<polygon fill="#459DBF" points="607,175.72 597.387,202 607,202 		"/>
		<polygon fill="#3285A6" points="607,175.72 615.365,202 607,202 		"/>
		<rect x="604" y="202" fill="#464541" width="4" height="4"/>
		<polygon opacity="0.1" fill="#464541" points="597.387,202 609.832,186.137 615.365,202 		"/>
	</g>
	<g>
		<rect x="512" y="250" fill="#464541" width="5" height="8"/>
		<polygon fill="#91C9E8" points="519.116,226 523.054,226 513.775,210.782 504.496,226 508.436,226 500.665,250 513.744,250 
			526.887,250 		"/>
		<polygon fill="#147DA5" points="513.775,211.478 504.496,226 508.436,226 500.665,250 513.744,250 		"/>
		<polygon fill="#00557C" points="513.775,211.478 523.054,226 519.116,226 526.887,250 513.744,250 		"/>
		<polygon opacity="0.4" fill="#464541" points="500.665,250 519.334,228.024 526.887,250 		"/>
	</g>
	<g>
		<rect x="579" y="281" fill="#464541" width="6" height="12"/>
		<polygon fill="#B4DCED" points="588.57,252 593.697,252 581.618,232.191 569.541,252 574.668,252 564.551,281 581.576,281 
			598.686,281 		"/>
		<polygon fill="#459DBF" points="581.618,231.87 569.541,252 574.668,252 564.551,281 581.576,281 		"/>
		<polygon fill="#3285A6" points="581.618,231.87 593.697,252 588.57,252 598.686,281 581.576,281 		"/>
		<polygon opacity="0.1" fill="#464541" points="564.551,281 588.787,251.996 598.686,281 		"/>
	</g>
	<g>
		<rect x="459" y="358" fill="#464541" width="9" height="18"/>
		<polygon fill="#B4DCED" points="473.067,315 480.773,315 462.618,285.228 444.466,315 452.172,315 436.966,358 462.555,358 
			488.271,358 		"/>
		<polygon fill="#459DBF" points="462.618,284.451 444.466,315 452.172,315 436.966,358 462.555,358 		"/>
		<polygon fill="#3285A6" points="462.618,284.451 480.773,315 473.067,315 488.271,358 462.555,358 		"/>
		<polygon opacity="0.1" fill="#464541" points="436.966,358 473.394,314.407 488.271,358 		"/>
	</g>
</g>
<g id="Calque_3">
	<rect x="636" y="248" opacity="0.8" fill="#FFFFFF" width="144" height="277"/>
	<rect x="482" y="248" opacity="0.8" fill="#FFFFFF" width="144" height="277"/>
	<rect x="328" y="248" opacity="0.8" fill="#FFFFFF" width="144" height="277"/>
	<rect x="174" y="248" opacity="0.8" fill="#FFFFFF" width="144" height="277"/>
	<rect x="20" y="248" opacity="0.8" fill="#FFFFFF" width="144" height="277"/>
	<g>
		<path fill="#00557C" d="M109.116,356.93H76.587c-12.211,0-21.139-8.107-21.139-19.293c0-2.873,2.36-5.131,5.233-5.131
			c2.771,0,5.131,2.258,5.131,5.131c0,6.26,5.438,9.031,10.774,9.031h32.529c13.442,0,13.237-20.523,0-20.523
			c-10.672,0-21.241,0-31.811,0c-26.885,0-26.988-41.149,0-41.149h25.757c4.002,0,7.593,0.821,10.569,2.36
			c0.821-1.95,2.668-3.284,4.823-3.284c2.771,0,5.131,2.36,5.131,5.233v14.161c0,2.77-2.36,5.131-5.131,5.131
			c-2.873,0-5.233-2.361-5.233-5.131c0-6.055-5.233-8.209-10.159-8.209H77.305c-13.442,0-13.34,20.524,0,20.524
			c10.57,0,21.139,0,31.811,0C135.899,315.781,136.104,356.93,109.116,356.93z"/>
	</g>
	<g>
		<path fill="#00557C" d="M246.026,357.096c-8.62,0-21.549,0-30.169,0c-2.874,0-5.131-2.36-5.131-5.131
			c0-2.873,2.257-5.131,5.131-5.131h5.13v-51.205h-5.13c-2.874,0-5.131-2.36-5.131-5.233c0-2.771,2.257-5.13,5.131-5.13h30.169
			C293.023,285.265,293.023,357.096,246.026,357.096z M246.026,295.629h-14.777v51.205h14.674
			C279.581,346.834,279.479,295.629,246.026,295.629z"/>
	</g>
	<g>
		<path fill="#00557C" d="M433.504,290.909v10.261c0,2.771-2.361,5.131-5.234,5.131c-2.77,0-5.131-2.359-5.131-5.131v-5.541h-36.427
			v20.01h23.292c2.875,0,5.131,2.258,5.131,5.131c0,2.874-2.256,5.131-5.131,5.131h-23.292v20.934h4.72
			c2.873,0,5.131,2.258,5.131,5.131c0,2.771-2.258,5.131-5.131,5.131h-19.702c-2.874,0-5.233-2.36-5.233-5.131
			c0-2.873,2.36-5.131,5.233-5.131h4.72V325.9h-4.72c-2.874,0-5.131-2.257-5.131-5.131c0-2.873,2.257-5.131,5.131-5.131h4.72v-20.01
			h-4.72c-2.874,0-5.131-2.36-5.131-5.233c0-2.771,2.257-5.13,5.131-5.13h56.335C431.246,285.265,433.504,287.831,433.504,290.909z"
			/>
	</g>
	<g>
		<path fill="#00557C" d="M556.533,357.216c-46.998,0-46.998-71.83,0-71.83h25.961c2.771,0,5.131,2.36,5.131,5.13v10.672
			c0,2.873-2.359,5.232-5.131,5.232c-2.873,0-5.131-2.359-5.131-5.232v-5.439h-20.83c-33.453,0-33.453,51.103,0,51.103h20.83
			v-20.729h-16.008c-2.77,0-5.131-2.258-5.131-5.131s2.361-5.131,5.131-5.131h21.139c2.771,0,5.131,2.258,5.131,5.131v31.092
			c0,2.771-2.359,5.131-5.131,5.131H556.533z"/>
	</g>
	<g>
		<path fill="#00557C" d="M745.608,351.965c0,2.771-2.36,5.131-5.131,5.131h-19.805c-2.771,0-5.131-2.36-5.131-5.131
			c0-2.873,2.36-5.131,5.131-5.131h4.104v-20.729h-34.273v20.729h4.721c2.873,0,5.131,2.258,5.131,5.131
			c0,2.771-2.258,5.131-5.131,5.131h-19.703c-2.873,0-5.131-2.36-5.131-5.131c0-2.873,2.258-5.131,5.131-5.131h4.721v-20.729h-4.721
			c-2.873,0-5.131-2.257-5.131-5.131c0-2.873,2.258-5.13,5.131-5.13h4.721v-20.318h-4.721c-2.873,0-5.131-2.257-5.131-5.131
			c0-2.771,2.258-5.13,5.131-5.13h19.703c2.873,0,5.131,2.36,5.131,5.13c0,2.874-2.258,5.131-5.131,5.131h-4.721v20.318h34.273
			v-20.318h-4.721c-2.873,0-5.131-2.257-5.131-5.131c0-2.771,2.258-5.13,5.131-5.13h19.703c2.873,0,5.13,2.36,5.13,5.13
			c0,2.874-2.257,5.131-5.13,5.131h-4.721v20.318h4.822c2.873,0,5.131,2.257,5.131,5.13c0,2.874-2.258,5.131-5.131,5.131h-4.822
			v20.729h5.438C743.248,346.834,745.608,349.092,745.608,351.965z"/>
	</g>
</g>
<g id="Calque_2">
	<path fill="#00557C" d="M458.974,576.374l-5.54-20.12l-7.251-7.739l-8.312-1.584l-0.065,0.091l-17.913-2.183h-1.036
		c0.268-0.187,0.395-0.299,0.395-0.299l1.603-14.135l11.056-5.001l-2.573-11.839l0.042-0.111l0.257-0.074
		c3.977-7.129,2.693-14.154,2.693-14.154l-2.035-14.912c0,0-0.354-4.479-2.548-9.929l3.386-1.996
		c3.009-2.253,15.608-13.048,3.817-28.242c0,0-0.867,10.047-12.993,15.758l-3.146,1.846c-3.99-2.962-10.395-6.054-17.266-6.535
		l-2.523-4.163l-2.469,4.117c-7.263,0.36-12.754,2.579-16.898,5.65l-4.402-0.771c-4.042-1.819-7.056-4.175-8.936-6.411l-7.786,9.854
		c1.904,4.365,5.979,7.554,7.735,8.781l3.278,2.112c-3.693,4.865-2.87,24.601-2.87,24.601s-0.686,7.266,3.289,14.395l-2.475,12.16
		l13.423,6.452l1.466,12.548l-4.416,0.937l-27.581,6.153l-4.33,4.624l-5.539,20.12L337.613,600h26.753l2.017-11.781L367.185,600h64
		l1.365-11.781L433.935,600h28.452L458.974,576.374z"/>
</g>
</svg>
