<?xml version="1.0" encoding="utf-8"?>
<!-- Generator: Adobe Illustrator 15.1.0, SVG Export Plug-In . SVG Version: 6.00 Build 0)  -->
<!DOCTYPE svg PUBLIC "-//W3C//DTD SVG 1.1//EN" "http://www.w3.org/Graphics/SVG/1.1/DTD/svg11.dtd">
<svg version="1.1" id="Calque_1" xmlns="http://www.w3.org/2000/svg" xmlns:xlink="http://www.w3.org/1999/xlink" x="0px" y="0px"
	 width="113.467px" height="37.192px" viewBox="0 0 113.467 37.192" enable-background="new 0 0 113.467 37.192"
	 xml:space="preserve">
<path opacity="0.7" fill="#FFFFFF" d="M112.282,37.192c0.755-1,1.185-3.133,1.185-5.008c0-5.956-4.326-10.701-9.664-10.701
	c-3.249,0-6.118,1.838-7.87,4.584c-2.308-2.051-5.184-3.501-8.378-4.149C85.33,9.492,72.8-0.014,57.675-0.014
	c-9.269,0-17.559,3.583-23.104,9.209c-3.545-2.583-7.827-4.092-12.439-4.092C9.909,5.104,0,15.544,0,28.629
	c0,3.083,0.557,6.563,1.558,8.563H112.282z"/>
</svg>
