<?xml version="1.0" encoding="utf-8"?>
<!-- Generator: Adobe Illustrator 15.1.0, SVG Export Plug-In . SVG Version: 6.00 Build 0)  -->
<!DOCTYPE svg PUBLIC "-//W3C//DTD SVG 1.1//EN" "http://www.w3.org/Graphics/SVG/1.1/DTD/svg11.dtd">
<svg version="1.1" id="Calque_1" xmlns="http://www.w3.org/2000/svg" xmlns:xlink="http://www.w3.org/1999/xlink" x="0px" y="0px"
	 width="181.998px" height="59.764px" viewBox="0 0 181.998 59.764" enable-background="new 0 0 181.998 59.764"
	 xml:space="preserve">
<path opacity="0.7" fill="#FFFFFF" d="M180.1,59.764c1.209-2,1.898-5.068,1.898-8.076c0-9.554-6.939-17.188-15.5-17.188
	c-5.213,0-9.814,2.938-12.625,7.342c-3.701-3.29-8.314-5.621-13.438-6.662C136.867,15.25,116.77,0,92.51,0
	C77.643,0,64.346,5.745,55.451,14.771C49.766,10.627,42.898,8.206,35.5,8.206C15.893,8.206,0,24.998,0,45.985
	c0,4.945,0.893,9.779,2.498,13.779H180.1z"/>
</svg>
