<?xml version="1.0" encoding="utf-8"?>
<!-- Generator: Adobe Illustrator 15.1.0, SVG Export Plug-In . SVG Version: 6.00 Build 0)  -->
<!DOCTYPE svg PUBLIC "-//W3C//DTD SVG 1.1//EN" "http://www.w3.org/Graphics/SVG/1.1/DTD/svg11.dtd">
<svg version="1.1" id="Calque_1" xmlns="http://www.w3.org/2000/svg" xmlns:xlink="http://www.w3.org/1999/xlink" x="0px" y="0px"
	 width="133.853px" height="236.261px" viewBox="0 0 133.853 236.261" enable-background="new 0 0 133.853 236.261"
	 xml:space="preserve">
<path fill="#102039" d="M133.853,165.273l-4.596-25.337l-5.863-21.293l-7.674-8.19l-8.796-1.676l-0.069-0.056l-18.958-2.461h-1.096
	c0.283,0,0.417-0.166,0.417-0.166l1.696-14.882l11.7-5.256l-2.724-12.51l0.045-0.107l0.271-0.075
	c4.208-7.544,2.851-14.977,2.851-14.977l-2.154-15.78c0,0-0.374-4.739-2.696-10.509l3.583-2.11
	c3.185-2.384,16.519-13.809,4.04-29.889c0,0-0.917,10.633-13.75,16.677l-3.329,1.953c-4.223-3.135-11.001-6.406-18.272-6.916
	l-2.671-4.406l-2.612,4.357c-7.687,0.382-13.498,2.729-17.884,5.979l-4.659-0.816c-4.278-1.925-7.467-4.418-9.456-6.784
	l-8.241,10.429c2.017,4.62,6.327,7.994,8.188,9.293l3.469,2.235c-3.908,5.149-3.037,26.035-3.037,26.035s-0.726,7.689,3.48,15.233
	l-2.618,12.869l14.204,6.829l1.553,13.279l-4.674,0.991L14.33,113.75l-4.582,4.894l-5.863,21.293L0.819,164.94L0,179.982
	l2.967,7.006l-0.393,6.415l6.14,17.151l-0.515,0.124l4.623,12.756l-0.093,12.826l108.65-0.311l-0.896-11.462l5.004-13.801
	l-0.516-0.115l6.14-17.135l-0.392-6.379l2.967-7.075L133.853,165.273z M103.434,171.774l-0.361,46.499l-3.47-46.417l1.689-19.384
	L103.434,171.774z M31.268,152.473l1.668,20.384l-2.155,45.292l-2.095-45.375L31.268,152.473z"/>
</svg>
