<?xml version="1.0" encoding="utf-8"?>
<!-- Generator: Adobe Illustrator 15.1.0, SVG Export Plug-In . SVG Version: 6.00 Build 0)  -->
<!DOCTYPE svg PUBLIC "-//W3C//DTD SVG 1.1//EN" "http://www.w3.org/Graphics/SVG/1.1/DTD/svg11.dtd">
<svg version="1.1" id="Calque_1" xmlns="http://www.w3.org/2000/svg" xmlns:xlink="http://www.w3.org/1999/xlink" x="0px" y="0px"
	 width="134.269px" height="236.273px" viewBox="0 0 134.269 236.273" enable-background="new 0 0 134.269 236.273"
	 xml:space="preserve">
<path fill="#102039" d="M134.269,171.552l-3.658-29.851l-5.937-21.562l-7.771-8.296l-8.906-1.697l-0.171,0.301l-19.098-2.174h-1.467
	c0.533,0,0.783-0.625,0.783-0.625l1.74-15.401l4.061-4.576l0.188-3.272l0.24-0.455l7.334,3.137l-2.76-12.688l0.046-0.119l0.276-0.08
	c4.26-7.64,3.525-15.426,3.525-15.426l-0.645,0.26l1.845-3.509l-1.48-6.245h-0.188V43.35c-1-0.099-2.351-0.191-3.547-0.278
	l1.175-0.025c0,0-0.37-4.801-2.722-10.641l5.16-0.067l-1.545-2.107c0,0,18.366-11.865,4.115-30.23c0,0,0.076,10.922-13.881,16.945
	l-1.899-2.585l-2.758,3.521c-4.278-3.174-9.894-5.504-17.258-6.018l-2.707-4.462l-2.645,4.412
	c-7.781,0.386-13.665,2.764-18.107,6.056l-2.748-3.509l-1.986,2.701c-4.47-1.963-7.501-4.442-9.561-6.892l-4.579,4.534l0.784,2.105
	l-2.693-0.392l-1.854,4.312c2.302,5.275,7.049,8.696,8.231,9.488l-1.558,2.119l5.129,0.066c-1.96,4.868-2.598,9.011-2.741,10.257
	c-1.142,0.062-1.807,0.101-1.807,0.101v5.722l3.558,0.54l-2.501,1.6l-1.475,3.859l2.947,4.728l-1.06-0.442
	c0,0-0.772,7.786,3.489,15.426l0.361,0.118v0.001l-3.028,12.912l2.631-1.113l3.374,2.876l3.235-2.098l1.874,2.547l0.167,0.612
	l0.201-0.115l2.93,3.986l1.596,13.729c0,0,0.297,0.625,0.906,0.625h-0.268l-5.341,0.596l-0.438-3.284l-29.968,4.23l0.065,0.184
	l0.783,5.16l-4.668,4.982l-5.937,21.561L0,171.553l0.291,8.569l2.966,6.937l-0.393,6.379l6.14,17.135l-0.515,0.115l4.624,12.751
	l-1.528,12.835l111.519-0.333l-2.329-11.452l5.004-13.801l-0.516-0.115l6.14-17.135l-0.392-6.379l2.967-6.937L134.269,171.552z
	 M16.628,177.729l1.601-2.271l0.001,6.325L16.628,177.729z"/>
</svg>
