<?xml version="1.0" encoding="utf-8"?>
<!-- Generator: Adobe Illustrator 15.1.0, SVG Export Plug-In . SVG Version: 6.00 Build 0)  -->
<!DOCTYPE svg PUBLIC "-//W3C//DTD SVG 1.1//EN" "http://www.w3.org/Graphics/SVG/1.1/DTD/svg11.dtd">
<svg version="1.1" id="Calque_1" xmlns="http://www.w3.org/2000/svg" xmlns:xlink="http://www.w3.org/1999/xlink" x="0px" y="0px"
	 width="800px" height="600px" viewBox="0 0 800 600" enable-background="new 0 0 800 600" xml:space="preserve">
<rect x="1" fill="#6EC6E3" width="800" height="600"/>
<g>
	<polygon fill="#938D80" points="165,158 205.15,215.396 234.343,185.499 	"/>
	<polygon fill="#ACA190" points="34.875,371 722,371 408,24 	"/>
	<polygon fill="#ACA190" points="1,371 314,371 165,158 	"/>
	<polygon fill="#737356" points="801,371 643,136 395,371 	"/>
	<polygon fill="#938D80" points="408,24 427,241.238 352,203.045 314,256.104 284,253.714 238,372 801,372 643,136.5 
		571.047,204.307 	"/>
	<polygon fill="#ACA190" points="571.047,204.307 643,136.5 532,161.126 	"/>
	<polygon fill="#F1F0F1" points="408,24 337.143,89.896 368,84.667 378.438,64.667 382.667,89.896 372.571,103.333 386.667,98 
		395,112 401,91.333 414.425,97.463 412.134,71.264 	"/>
	<polygon fill="#E4E5E5" points="412.134,71.264 414.425,97.463 421,80 429,101.5 425.5,112 432,105.5 438,108 429.5,75 434.5,63 
		441.5,77 443.5,68 458.5,79 408,24 	"/>
	<polygon fill="#F1F0F1" points="164.75,157.847 132.235,200.315 151.438,186.659 153.469,200.22 148.68,204 159,204 157.5,186.698 
		165,178 170,190 173,183.5 184,193 178.5,183 185.075,186.698 	"/>
	<polygon fill="#E4E5E5" points="184.95,186.523 178.438,171.913 194.219,183.282 197.5,179 194,179 182.75,169.75 199.672,171.749 
		164.75,157.847 	"/>
	<polygon fill="#F1F0F1" points="643,136.5 599.792,145.907 613.917,146 611.333,152.25 626,149.667 617.951,160.105 	"/>
	<polygon fill="#E4E5E5" points="617.951,160.021 633,150.75 635,155.583 645.583,150.583 650.167,152.75 650.715,147.413 
		643.021,136 	"/>
</g>
<rect y="404" fill="#009145" width="800" height="197"/>
<g>
	<polygon fill="#464541" points="1,370.5 1,452 169,452 221.194,436.75 279,429.625 323,409.984 418.26,418 440.699,418 
		484.613,409.922 527.098,421.711 624.903,429.605 660.405,430.542 722,424.519 747,436.806 801,424.5 801,371.5 	"/>
	<polygon opacity="0.28" fill="#FFFFFF" points="1,370.5 1,452 169,452 221.194,436.75 279,429.625 323,409.984 418.26,418 
		440.699,418 484.613,409.922 527.098,421.711 624.903,429.605 660.405,430.542 722,424.519 747,436.806 801,424.5 801,371.5 	"/>
	<g>
		<rect x="425" y="400" fill="#464541" width="9" height="14"/>
		<polygon fill="#B8BF57" points="438.683,362 445.305,362 429.702,336.409 414.1,362 420.722,362 407.653,400 429.647,400 
			451.75,400 		"/>
		<polygon fill="#D3D55A" points="429.702,336.674 414.1,362 420.722,362 407.653,400 429.647,400 		"/>
		<polygon fill="#B8BF57" points="429.702,336.674 445.305,362 438.683,362 451.75,400 429.647,400 		"/>
		<polygon opacity="0.1" fill="#464541" points="407.653,400 438.683,362.531 451.75,400 		"/>
	</g>
	<g>
		<rect x="537" y="381" fill="#464541" width="9" height="14"/>
		<polygon fill="#B8BF57" points="550.683,343 557.305,343 541.702,317.409 526.1,343 532.722,343 519.653,381 541.647,381 
			563.75,381 		"/>
		<polygon fill="#D3D55A" points="541.702,317.674 526.1,343 532.722,343 519.653,381 541.647,381 		"/>
		<polygon fill="#B8BF57" points="541.702,317.674 557.305,343 550.683,343 563.75,381 541.647,381 		"/>
		<polygon opacity="0.1" fill="#464541" points="519.653,381 550.683,343.531 563.75,381 		"/>
	</g>
	<g>
		<rect x="652" y="395" fill="#464541" width="9" height="14"/>
		<polygon fill="#B8BF57" points="665.683,357 672.305,357 656.702,331.409 641.1,357 647.722,357 634.653,395 656.647,395 
			678.75,395 		"/>
		<polygon fill="#D3D55A" points="656.702,331.674 641.1,357 647.722,357 634.653,395 656.647,395 		"/>
		<polygon fill="#B8BF57" points="656.702,331.674 672.305,357 665.683,357 678.75,395 656.647,395 		"/>
		<polygon opacity="0.1" fill="#464541" points="634.653,395 665.683,357.531 678.75,395 		"/>
	</g>
	<g>
		<rect x="64" y="433" fill="#464541" width="9" height="14"/>
		<polygon fill="#B8BF57" points="77.264,395 83.886,395 68.284,369.409 52.68,395 59.303,395 46.235,433 68.229,433 90.331,433 		
			"/>
		<polygon fill="#B8BF57" points="68.284,369.674 52.68,395 59.303,395 46.235,433 68.229,433 		"/>
		<polygon fill="#868C4F" points="68.284,369.674 83.886,395 77.264,395 90.331,433 68.229,433 		"/>
		<polygon opacity="0.1" fill="#464541" points="46.235,433 77.264,395.531 90.331,433 		"/>
	</g>
	<g>
		<rect x="169" y="396" fill="#464541" width="9" height="14"/>
		<polygon fill="#B8BF57" points="182.264,358 188.886,358 173.284,332.409 157.68,358 164.303,358 151.235,396 173.229,396 
			195.331,396 		"/>
		<polygon fill="#B8BF57" points="173.284,332.674 157.68,358 164.303,358 151.235,396 173.229,396 		"/>
		<polygon fill="#868C4F" points="173.284,332.674 188.886,358 182.264,358 195.331,396 173.229,396 		"/>
		<polygon opacity="0.1" fill="#464541" points="151.235,396 182.264,358.531 195.331,396 		"/>
	</g>
	<g>
		<rect x="385" y="393" fill="#464541" width="9" height="14"/>
		<polygon fill="#B8BF57" points="398.264,355 404.886,355 389.284,329.409 373.68,355 380.303,355 367.235,393 389.229,393 
			411.331,393 		"/>
		<polygon fill="#B8BF57" points="389.284,329.674 373.68,355 380.303,355 367.235,393 389.229,393 		"/>
		<polygon fill="#868C4F" points="389.284,329.674 404.886,355 398.264,355 411.331,393 389.229,393 		"/>
		<polygon opacity="0.1" fill="#464541" points="367.235,393 398.264,355.531 411.331,393 		"/>
	</g>
	<g>
		<polygon fill="#B8BF57" points="199,351.196 177.153,414 199,414 		"/>
		<polygon fill="#868C4F" points="199,351.342 221.194,414 199,414 		"/>
		<rect x="195" y="414" fill="#464541" width="9" height="14"/>
		<polygon opacity="0.1" fill="#464541" points="177.153,414 207.641,375.14 221.194,414 		"/>
	</g>
	<g>
		<polygon fill="#B8BF57" points="516,337.196 494.152,400 516,400 		"/>
		<polygon fill="#868C4F" points="516,337.342 538.194,400 516,400 		"/>
		<rect x="512" y="400" fill="#464541" width="9" height="14"/>
		<polygon opacity="0.1" fill="#464541" points="494.152,400 524.641,361.14 538.194,400 		"/>
	</g>
	<g>
		<polygon fill="#B8BF57" points="760,329.196 738.152,392 760,392 		"/>
		<polygon fill="#868C4F" points="760,329.342 782.194,392 760,392 		"/>
		<rect x="756" y="392" fill="#464541" width="9" height="14"/>
		<polygon opacity="0.1" fill="#464541" points="738.152,392 768.641,353.14 782.194,392 		"/>
	</g>
	<g>
		<polygon fill="#B8BF57" points="35,327.196 13.153,390 35,390 		"/>
		<polygon fill="#868C4F" points="35,327.342 57.194,390 35,390 		"/>
		<rect x="31" y="390" fill="#464541" width="9" height="14"/>
		<polygon opacity="0.1" fill="#464541" points="13.153,390 43.641,351.14 57.194,390 		"/>
	</g>
	<g>
		<polygon fill="#D3D55A" points="139,330.202 116.572,393 139,393 		"/>
		<polygon fill="#B8BF57" points="139,330.202 160.613,393 139,393 		"/>
		<rect x="134" y="393" fill="#464541" width="9" height="14"/>
		<polygon opacity="0.1" fill="#464541" points="116.572,393 147.06,354.14 160.613,393 		"/>
	</g>
	<g>
		<polygon fill="#D3D55A" points="307,331.202 284.572,394 307,394 		"/>
		<polygon fill="#B8BF57" points="307,331.202 328.613,394 307,394 		"/>
		<rect x="302" y="394" fill="#464541" width="9" height="14"/>
		<polygon opacity="0.1" fill="#464541" points="284.572,394 315.06,355.14 328.613,394 		"/>
	</g>
	<g>
		<polygon fill="#D3D55A" points="463,319.202 440.572,382 463,382 		"/>
		<polygon fill="#B8BF57" points="463,319.202 484.613,382 463,382 		"/>
		<rect x="458" y="382" fill="#464541" width="9" height="14"/>
		<polygon opacity="0.1" fill="#464541" points="440.572,382 471.06,343.14 484.613,382 		"/>
	</g>
	<g>
		<polygon fill="#D3D55A" points="588,324.202 565.572,387 588,387 		"/>
		<polygon fill="#B8BF57" points="588,324.202 609.613,387 588,387 		"/>
		<rect x="583" y="387" fill="#464541" width="9" height="14"/>
		<polygon opacity="0.1" fill="#464541" points="565.572,387 596.06,348.14 609.613,387 		"/>
	</g>
	<g>
		<polygon fill="#D3D55A" points="712,329.202 689.572,392 712,392 		"/>
		<polygon fill="#B8BF57" points="712,329.202 733.613,392 712,392 		"/>
		<rect x="707" y="392" fill="#464541" width="9" height="14"/>
		<polygon opacity="0.1" fill="#464541" points="689.572,392 720.06,353.14 733.613,392 		"/>
	</g>
	<g>
		<g>
			<rect x="783" y="397" fill="#464541" width="10" height="24"/>
			<g>
				<path fill="#D3D55A" d="M789,401.83c-10,0-18.098-10.228-18.098-22.845c0-12.616,8.098-22.844,18.098-22.844V401.83z"/>
				<path fill="#B8BF57" d="M788,401.83c10,0,18.098-10.228,18.098-22.845c0-12.616-8.098-22.844-18.098-22.844V401.83z"/>
			</g>
		</g>
		<g opacity="0.1">
			<path fill="#464541" d="M788,401.814v0.016c0,0,0.393-0.003,0.5-0.005c0.105,0.002,0.5,0.005,0.5,0.005v-0.016
				c9-0.426,17.316-10.483,17.316-22.829c0-2.629-0.428-5.153-1.078-7.505l-34.561,9.397C771.428,392.344,779,401.41,788,401.814z"
				/>
		</g>
	</g>
	<g>
		<g>
			<rect x="19" y="417" fill="#464541" width="10" height="24"/>
			<g>
				<path fill="#D3D55A" d="M25,421.83c-10,0-18.098-10.228-18.098-22.845c0-12.616,8.098-22.844,18.098-22.844V421.83z"/>
				<path fill="#B8BF57" d="M24,421.83c10,0,18.098-10.228,18.098-22.845c0-12.616-8.098-22.844-18.098-22.844V421.83z"/>
			</g>
		</g>
		<g opacity="0.1">
			<path fill="#464541" d="M24,421.814v0.016c0,0,0.393-0.003,0.5-0.005c0.105,0.002,0.5,0.005,0.5,0.005v-0.016
				c9-0.426,17.316-10.483,17.316-22.829c0-2.629-0.428-5.153-1.078-7.505l-34.561,9.397C7.428,412.344,15,421.41,24,421.814z"/>
		</g>
	</g>
	<g>
		<g>
			<rect x="223" y="396" fill="#464541" width="10" height="24"/>
			<g>
				<path fill="#D3D55A" d="M229,400.83c-10,0-18.098-10.228-18.098-22.845c0-12.616,8.098-22.844,18.098-22.844V400.83z"/>
				<path fill="#B8BF57" d="M228,400.83c10,0,18.098-10.228,18.098-22.845c0-12.616-8.098-22.844-18.098-22.844V400.83z"/>
			</g>
		</g>
		<g opacity="0.1">
			<path fill="#464541" d="M228,400.814v0.016c0,0,0.393-0.003,0.5-0.005c0.105,0.002,0.5,0.005,0.5,0.005v-0.016
				c9-0.426,17.316-10.483,17.316-22.829c0-2.629-0.428-5.153-1.078-7.505l-34.561,9.397C211.428,391.344,219,400.41,228,400.814z"
				/>
		</g>
	</g>
	<g>
		<g>
			<rect x="479" y="382" fill="#464541" width="10" height="24"/>
			<g>
				<path fill="#D3D55A" d="M485,386.83c-10,0-18.098-10.228-18.098-22.845c0-12.616,8.098-22.844,18.098-22.844V386.83z"/>
				<path fill="#B8BF57" d="M484,386.83c10,0,18.098-10.228,18.098-22.845c0-12.616-8.098-22.844-18.098-22.844V386.83z"/>
			</g>
		</g>
		<g opacity="0.1">
			<path fill="#464541" d="M484,386.814v0.016c0,0,0.393-0.003,0.5-0.005c0.105,0.002,0.5,0.005,0.5,0.005v-0.016
				c9-0.426,17.316-10.483,17.316-22.829c0-2.629-0.428-5.153-1.078-7.505l-34.561,9.397C467.428,377.344,475,386.41,484,386.814z"
				/>
		</g>
	</g>
	<g>
		<g>
			<rect x="558" y="393" fill="#464541" width="10" height="24"/>
			<g>
				<path fill="#D3D55A" d="M564,397.83c-10,0-18.098-10.228-18.098-22.845c0-12.616,8.098-22.844,18.098-22.844V397.83z"/>
				<path fill="#B8BF57" d="M563,397.83c10,0,18.098-10.228,18.098-22.845c0-12.616-8.098-22.844-18.098-22.844V397.83z"/>
			</g>
		</g>
		<g opacity="0.1">
			<path fill="#464541" d="M563,397.814v0.016c0,0,0.393-0.003,0.5-0.005c0.105,0.002,0.5,0.005,0.5,0.005v-0.016
				c9-0.426,17.316-10.483,17.316-22.829c0-2.629-0.428-5.153-1.078-7.505l-34.561,9.397C546.428,388.344,554,397.41,563,397.814z"
				/>
		</g>
	</g>
	<g>
		<g>
			<rect x="85" y="375" fill="#464541" width="10" height="24"/>
			<g>
				<path fill="#B8BF57" d="M91,379.83c-10,0-18.097-10.228-18.097-22.845c0-12.616,8.097-22.844,18.097-22.844V379.83z"/>
				<path fill="#868C4F" d="M90,379.83c10,0,18.096-10.228,18.096-22.845c0-12.616-8.096-22.844-18.096-22.844V379.83z"/>
			</g>
		</g>
		<g opacity="0.1">
			<path fill="#464541" d="M90,379.814v0.016c0,0,0.394-0.003,0.5-0.005c0.105,0.002,0.5,0.005,0.5,0.005v-0.016
				c10-0.426,17.405-10.483,17.405-22.829c0-2.629-0.382-5.153-1.032-7.505l-34.63,9.397C73.493,370.344,81,379.41,90,379.814z"/>
		</g>
	</g>
	<g>
		<g>
			<rect x="159" y="422" fill="#464541" width="10" height="24"/>
			<g>
				<path fill="#B8BF57" d="M165,426.83c-10,0-18.097-10.228-18.097-22.845c0-12.616,8.097-22.844,18.097-22.844V426.83z"/>
				<path fill="#868C4F" d="M164,426.83c10,0,18.096-10.228,18.096-22.845c0-12.616-8.096-22.844-18.096-22.844V426.83z"/>
			</g>
		</g>
		<g opacity="0.1">
			<path fill="#464541" d="M164,426.814v0.016c0,0,0.394-0.003,0.5-0.005c0.105,0.002,0.5,0.005,0.5,0.005v-0.016
				c10-0.426,17.405-10.483,17.405-22.829c0-2.629-0.382-5.153-1.032-7.505l-34.63,9.397C147.493,417.344,155,426.41,164,426.814z"
				/>
		</g>
	</g>
	<g>
		<g>
			<rect x="261" y="403" fill="#464541" width="10" height="24"/>
			<g>
				<path fill="#B8BF57" d="M267,407.83c-10,0-18.097-10.228-18.097-22.845c0-12.616,8.097-22.844,18.097-22.844V407.83z"/>
				<path fill="#868C4F" d="M266,407.83c10,0,18.096-10.228,18.096-22.845c0-12.616-8.096-22.844-18.096-22.844V407.83z"/>
			</g>
		</g>
		<g opacity="0.1">
			<path fill="#464541" d="M266,407.814v0.016c0,0,0.394-0.003,0.5-0.005c0.105,0.002,0.5,0.005,0.5,0.005v-0.016
				c10-0.426,17.405-10.483,17.405-22.829c0-2.629-0.382-5.153-1.032-7.505l-34.63,9.397C249.493,398.344,257,407.41,266,407.814z"
				/>
		</g>
	</g>
	<g>
		<g>
			<rect x="343" y="379" fill="#464541" width="10" height="24"/>
			<g>
				<path fill="#B8BF57" d="M349,383.83c-10,0-18.097-10.228-18.097-22.845c0-12.616,8.097-22.844,18.097-22.844V383.83z"/>
				<path fill="#868C4F" d="M348,383.83c10,0,18.096-10.228,18.096-22.845c0-12.616-8.096-22.844-18.096-22.844V383.83z"/>
			</g>
		</g>
		<g opacity="0.1">
			<path fill="#464541" d="M348,383.814v0.016c0,0,0.394-0.003,0.5-0.005c0.105,0.002,0.5,0.005,0.5,0.005v-0.016
				c10-0.426,17.405-10.483,17.405-22.829c0-2.629-0.382-5.153-1.032-7.505l-34.63,9.397C331.493,374.344,339,383.41,348,383.814z"
				/>
		</g>
	</g>
	<g>
		<g>
			<rect x="637" y="403" fill="#464541" width="10" height="24"/>
			<g>
				<path fill="#B8BF57" d="M643,407.83c-10,0-18.097-10.228-18.097-22.845c0-12.616,8.097-22.844,18.097-22.844V407.83z"/>
				<path fill="#868C4F" d="M642,407.83c10,0,18.096-10.228,18.096-22.845c0-12.616-8.096-22.844-18.096-22.844V407.83z"/>
			</g>
		</g>
		<g opacity="0.1">
			<path fill="#464541" d="M642,407.814v0.016c0,0,0.394-0.003,0.5-0.005c0.105,0.002,0.5,0.005,0.5,0.005v-0.016
				c10-0.426,17.405-10.483,17.405-22.829c0-2.629-0.382-5.153-1.032-7.505l-34.63,9.397C625.493,398.344,633,407.41,642,407.814z"
				/>
		</g>
	</g>
	<g>
		<rect x="603" y="407" fill="#464541" width="9" height="14"/>
		<polygon fill="#B8BF57" points="616.264,369 622.886,369 607.284,343.409 591.68,369 598.303,369 585.235,407 607.229,407 
			629.331,407 		"/>
		<polygon fill="#B8BF57" points="607.284,343.674 591.68,369 598.303,369 585.235,407 607.229,407 		"/>
		<polygon fill="#868C4F" points="607.284,343.674 622.886,369 616.264,369 629.331,407 607.229,407 		"/>
		<polygon opacity="0.1" fill="#464541" points="585.235,407 616.264,369.531 629.331,407 		"/>
	</g>
	<g>
		<rect x="674" y="411" fill="#464541" width="9" height="14"/>
		<polygon fill="#B8BF57" points="687.264,373 693.886,373 678.284,347.409 662.68,373 669.303,373 656.235,411 678.229,411 
			700.331,411 		"/>
		<polygon fill="#B8BF57" points="678.284,347.674 662.68,373 669.303,373 656.235,411 678.229,411 		"/>
		<polygon fill="#868C4F" points="678.284,347.674 693.886,373 687.264,373 700.331,411 678.229,411 		"/>
		<polygon opacity="0.1" fill="#464541" points="656.235,411 687.264,373.531 700.331,411 		"/>
	</g>
	<g>
		<rect x="729" y="413" fill="#464541" width="9" height="14"/>
		<polygon fill="#B8BF57" points="742.264,375 748.886,375 733.284,349.409 717.68,375 724.303,375 711.235,413 733.229,413 
			755.331,413 		"/>
		<polygon fill="#B8BF57" points="733.284,349.674 717.68,375 724.303,375 711.235,413 733.229,413 		"/>
		<polygon fill="#868C4F" points="733.284,349.674 748.886,375 742.264,375 755.331,413 733.229,413 		"/>
		<polygon opacity="0.1" fill="#464541" points="711.235,413 742.264,375.531 755.331,413 		"/>
	</g>
	<g>
		<g>
			<rect x="109" y="415" fill="#464541" width="10" height="24"/>
			<g>
				<path fill="#D3D55A" d="M115,419.83c-10,0-18.098-10.228-18.098-22.845c0-12.616,8.098-22.844,18.098-22.844V419.83z"/>
				<path fill="#B8BF57" d="M114,419.83c10,0,18.098-10.228,18.098-22.845c0-12.616-8.098-22.844-18.098-22.844V419.83z"/>
			</g>
		</g>
		<g opacity="0.1">
			<path fill="#464541" d="M114,419.814v0.016c0,0,0.393-0.003,0.5-0.005c0.105,0.002,0.5,0.005,0.5,0.005v-0.016
				c9-0.426,17.316-10.483,17.316-22.829c0-2.629-0.428-5.153-1.078-7.505l-34.561,9.397C97.428,410.344,105,419.41,114,419.814z"/>
		</g>
	</g>
</g>
<g>
	
		<radialGradient id="SVGID_1_" cx="569.04" cy="431.501" r="18.6678" gradientTransform="matrix(1.2445 -0.0115 0.0063 0.4372 -220.7024 249.3815)" gradientUnits="userSpaceOnUse">
		<stop  offset="0" style="stop-color:#000100;stop-opacity:0.4"/>
		<stop  offset="1" style="stop-color:#000100;stop-opacity:0"/>
	</radialGradient>
	<ellipse fill="url(#SVGID_1_)" cx="489.562" cy="431.709" rx="24.062" ry="8.292"/>
	<g>
		<path fill="#E5E6E5" d="M504,430.172c0,0-7.001,4.696-15,4.696s-14-4.696-14-4.696V414h29V430.172z"/>
		<path fill="#464541" d="M506,414c0,0-8.053,5.868-17.062,5.868C479.926,419.868,473,414,473,414l16-20L506,414z"/>
		<g opacity="0.1">
			<path fill="#464541" d="M488.938,419.868c-6.11,0-11.254-2.695-13.938-4.433v1c2.684,1.737,7.827,4.433,13.938,4.433
				c6.303,0,12.125-2.866,15.062-4.593v-1C501.062,417.002,495.24,419.868,488.938,419.868z"/>
		</g>
		<path fill="#333333" d="M489,426c-1.657,0-3,1.343-3,3v5.649c0.961,0.137,1.963,0.219,3,0.219c1.021,0,2.024-0.078,3-0.212V429
			C492,427.343,490.657,426,489,426z"/>
		<path opacity="0.15" fill="#000100" d="M487.993,395.26l6.373,23.951C500.875,417.688,506,414,506,414l-17-20L487.993,395.26z"/>
		<g>
			<path fill="#BCCBD4" d="M495,424.418v2c0,0,1.079-0.167,2.856-0.573l-0.062-1.985C496.056,424.255,495,424.418,495,424.418z"/>
			<path fill="#BCCBD4" d="M501,424.563v-2c0,0-0.714,0.68-2.794,1.195l0.065,1.982C500.3,425.229,501,424.563,501,424.563z"/>
			<path fill="#BCCBD4" d="M495,421.917v2c0,0,1.525-0.203,2.778-0.603l-0.061-1.981C496.477,421.72,495,421.917,495,421.917z"/>
			<path fill="#BCCBD4" d="M501,422.062v-2c0,0-0.902,0.476-2.879,1.14l0.065,1.978C500.116,422.527,501,422.062,501,422.062z"/>
		</g>
		<g>
			<path fill="#BCCBD4" d="M484,424.418v2c0,0-1.079-0.167-2.856-0.573l0.062-1.985C482.944,424.255,484,424.418,484,424.418z"/>
			<path fill="#BCCBD4" d="M478,424.563v-2c0,0,0.714,0.68,2.794,1.195l-0.065,1.982C478.7,425.229,478,424.563,478,424.563z"/>
			<path fill="#BCCBD4" d="M484,421.917v2c0,0-1.525-0.203-2.778-0.603l0.061-1.981C482.523,421.72,484,421.917,484,421.917z"/>
			<path fill="#BCCBD4" d="M478,422.062v-2c0,0,0.902,0.476,2.879,1.14l-0.065,1.978C478.884,422.527,478,422.062,478,422.062z"/>
		</g>
	</g>
</g>
<g>
	
		<radialGradient id="SVGID_2_" cx="533.6885" cy="431.501" r="18.667" gradientTransform="matrix(1.2445 -0.0115 0.0063 0.4372 -220.7053 248.9744)" gradientUnits="userSpaceOnUse">
		<stop  offset="0" style="stop-color:#000100;stop-opacity:0.4"/>
		<stop  offset="1" style="stop-color:#000100;stop-opacity:0"/>
	</radialGradient>
	<ellipse fill="url(#SVGID_2_)" cx="445.562" cy="431.709" rx="24.062" ry="8.292"/>
	<g>
		<path fill="#E5E6E5" d="M460,430.172c0,0-7.001,4.696-15,4.696s-14-4.696-14-4.696V414h29V430.172z"/>
		<path fill="#464541" d="M462,414c0,0-8.053,5.868-17.062,5.868C435.926,419.868,429,414,429,414l16-20L462,414z"/>
		<g opacity="0.1">
			<path fill="#464541" d="M444.938,419.868c-6.11,0-11.254-2.695-13.938-4.433v1c2.684,1.737,7.827,4.433,13.938,4.433
				c6.303,0,12.125-2.866,15.062-4.593v-1C457.062,417.002,451.24,419.868,444.938,419.868z"/>
		</g>
		<path fill="#333333" d="M445,426c-1.657,0-3,1.343-3,3v5.649c0.961,0.137,1.963,0.219,3,0.219c1.021,0,2.024-0.078,3-0.212V429
			C448,427.343,446.657,426,445,426z"/>
		<path opacity="0.15" fill="#000100" d="M443.993,395.26l6.373,23.951C456.875,417.688,462,414,462,414l-17-20L443.993,395.26z"/>
		<g>
			<path fill="#BCCBD4" d="M451,424.418v2c0,0,1.079-0.167,2.856-0.573l-0.062-1.985C452.056,424.255,451,424.418,451,424.418z"/>
			<path fill="#BCCBD4" d="M457,424.563v-2c0,0-0.714,0.68-2.794,1.195l0.065,1.982C456.3,425.229,457,424.563,457,424.563z"/>
			<path fill="#BCCBD4" d="M451,421.917v2c0,0,1.525-0.203,2.778-0.603l-0.061-1.981C452.477,421.72,451,421.917,451,421.917z"/>
			<path fill="#BCCBD4" d="M457,422.062v-2c0,0-0.902,0.476-2.879,1.14l0.065,1.978C456.116,422.527,457,422.062,457,422.062z"/>
		</g>
		<g>
			<path fill="#BCCBD4" d="M440,424.418v2c0,0-1.079-0.167-2.856-0.573l0.062-1.985C438.944,424.255,440,424.418,440,424.418z"/>
			<path fill="#BCCBD4" d="M434,424.563v-2c0,0,0.714,0.68,2.794,1.195l-0.065,1.982C434.7,425.229,434,424.563,434,424.563z"/>
			<path fill="#BCCBD4" d="M440,421.917v2c0,0-1.525-0.203-2.778-0.603l0.061-1.981C438.523,421.72,440,421.917,440,421.917z"/>
			<path fill="#BCCBD4" d="M434,422.062v-2c0,0,0.902,0.476,2.879,1.14l-0.065,1.978C434.884,422.527,434,422.062,434,422.062z"/>
		</g>
	</g>
</g>
<g>
	
		<radialGradient id="SVGID_3_" cx="606.001" cy="434.501" r="18.667" gradientTransform="matrix(1.2445 -0.0115 0.0063 0.4372 -220.718 251.4954)" gradientUnits="userSpaceOnUse">
		<stop  offset="0" style="stop-color:#000100;stop-opacity:0.4"/>
		<stop  offset="1" style="stop-color:#000100;stop-opacity:0"/>
	</radialGradient>
	<ellipse fill="url(#SVGID_3_)" cx="535.562" cy="434.709" rx="24.062" ry="8.292"/>
	<g>
		<path fill="#E5E6E5" d="M550,433.172c0,0-7.001,4.696-15,4.696s-14-4.696-14-4.696V417h29V433.172z"/>
		<path fill="#464541" d="M552,417c0,0-8.053,5.868-17.062,5.868C525.926,422.868,519,417,519,417l16-20L552,417z"/>
		<g opacity="0.1">
			<path fill="#464541" d="M534.938,422.868c-6.11,0-11.254-2.695-13.938-4.433v1c2.684,1.737,7.827,4.433,13.938,4.433
				c6.303,0,12.125-2.866,15.062-4.593v-1C547.062,420.002,541.24,422.868,534.938,422.868z"/>
		</g>
		<path fill="#333333" d="M535,429c-1.657,0-3,1.343-3,3v5.649c0.961,0.137,1.963,0.219,3,0.219c1.021,0,2.024-0.078,3-0.212V432
			C538,430.343,536.657,429,535,429z"/>
		<path opacity="0.15" fill="#000100" d="M533.993,398.26l6.373,23.951C546.875,420.688,552,417,552,417l-17-20L533.993,398.26z"/>
		<g>
			<path fill="#BCCBD4" d="M541,427.418v2c0,0,1.079-0.167,2.856-0.573l-0.062-1.985C542.056,427.255,541,427.418,541,427.418z"/>
			<path fill="#BCCBD4" d="M547,427.563v-2c0,0-0.714,0.68-2.794,1.195l0.065,1.982C546.3,428.229,547,427.563,547,427.563z"/>
			<path fill="#BCCBD4" d="M541,424.917v2c0,0,1.525-0.203,2.778-0.603l-0.061-1.981C542.477,424.72,541,424.917,541,424.917z"/>
			<path fill="#BCCBD4" d="M547,425.062v-2c0,0-0.902,0.476-2.879,1.14l0.065,1.978C546.116,425.527,547,425.062,547,425.062z"/>
		</g>
		<g>
			<path fill="#BCCBD4" d="M530,427.418v2c0,0-1.079-0.167-2.856-0.573l0.062-1.985C528.944,427.255,530,427.418,530,427.418z"/>
			<path fill="#BCCBD4" d="M524,427.563v-2c0,0,0.714,0.68,2.794,1.195l-0.065,1.982C524.7,428.229,524,427.563,524,427.563z"/>
			<path fill="#BCCBD4" d="M530,424.917v2c0,0-1.525-0.203-2.778-0.603l0.061-1.981C528.523,424.72,530,424.917,530,424.917z"/>
			<path fill="#BCCBD4" d="M524,425.062v-2c0,0,0.902,0.476,2.879,1.14l-0.065,1.978C524.884,425.527,524,425.062,524,425.062z"/>
		</g>
	</g>
</g>
<g>
	
		<radialGradient id="SVGID_4_" cx="640.5498" cy="437.501" r="18.6678" gradientTransform="matrix(1.2445 -0.0115 0.0063 0.4372 -220.7341 253.5815)" gradientUnits="userSpaceOnUse">
		<stop  offset="0" style="stop-color:#000100;stop-opacity:0.4"/>
		<stop  offset="1" style="stop-color:#000100;stop-opacity:0"/>
	</radialGradient>
	<ellipse fill="url(#SVGID_4_)" cx="578.562" cy="437.709" rx="24.062" ry="8.292"/>
	<g>
		<path fill="#E5E6E5" d="M593,436.172c0,0-7.001,4.696-15,4.696s-14-4.696-14-4.696V420h29V436.172z"/>
		<path fill="#464541" d="M595,420c0,0-8.053,5.868-17.062,5.868C568.926,425.868,562,420,562,420l16-20L595,420z"/>
		<g opacity="0.1">
			<path fill="#464541" d="M577.938,425.868c-6.11,0-11.254-2.695-13.938-4.433v1c2.684,1.737,7.827,4.433,13.938,4.433
				c6.303,0,12.125-2.866,15.062-4.593v-1C590.062,423.002,584.24,425.868,577.938,425.868z"/>
		</g>
		<path fill="#333333" d="M578,432c-1.657,0-3,1.343-3,3v5.649c0.961,0.137,1.963,0.219,3,0.219c1.021,0,2.024-0.078,3-0.212V435
			C581,433.343,579.657,432,578,432z"/>
		<path opacity="0.15" fill="#000100" d="M576.993,401.26l6.373,23.951C589.875,423.688,595,420,595,420l-17-20L576.993,401.26z"/>
		<g>
			<path fill="#BCCBD4" d="M584,430.418v2c0,0,1.079-0.167,2.856-0.573l-0.062-1.985C585.056,430.255,584,430.418,584,430.418z"/>
			<path fill="#BCCBD4" d="M590,430.563v-2c0,0-0.714,0.68-2.794,1.195l0.065,1.982C589.3,431.229,590,430.563,590,430.563z"/>
			<path fill="#BCCBD4" d="M584,427.917v2c0,0,1.525-0.203,2.778-0.603l-0.061-1.981C585.477,427.72,584,427.917,584,427.917z"/>
			<path fill="#BCCBD4" d="M590,428.062v-2c0,0-0.902,0.476-2.879,1.14l0.065,1.978C589.116,428.527,590,428.062,590,428.062z"/>
		</g>
		<g>
			<path fill="#BCCBD4" d="M573,430.418v2c0,0-1.079-0.167-2.856-0.573l0.062-1.985C571.944,430.255,573,430.418,573,430.418z"/>
			<path fill="#BCCBD4" d="M567,430.563v-2c0,0,0.714,0.68,2.794,1.195l-0.065,1.982C567.7,431.229,567,430.563,567,430.563z"/>
			<path fill="#BCCBD4" d="M573,427.917v2c0,0-1.525-0.203-2.778-0.603l0.061-1.981C571.523,427.72,573,427.917,573,427.917z"/>
			<path fill="#BCCBD4" d="M567,428.062v-2c0,0,0.902,0.476,2.879,1.14l-0.065,1.978C567.884,428.527,567,428.062,567,428.062z"/>
		</g>
	</g>
</g>
<g>
	
		<radialGradient id="SVGID_5_" cx="672.6885" cy="439.501" r="18.6678" gradientTransform="matrix(1.2445 -0.0115 0.0063 0.4372 -220.7439 255.0771)" gradientUnits="userSpaceOnUse">
		<stop  offset="0" style="stop-color:#000100;stop-opacity:0.4"/>
		<stop  offset="1" style="stop-color:#000100;stop-opacity:0"/>
	</radialGradient>
	<ellipse fill="url(#SVGID_5_)" cx="618.562" cy="439.709" rx="24.062" ry="8.292"/>
	<g>
		<path fill="#E5E6E5" d="M633,438.172c0,0-7.001,4.696-15,4.696s-14-4.696-14-4.696V422h29V438.172z"/>
		<path fill="#464541" d="M635,422c0,0-8.053,5.868-17.062,5.868C608.926,427.868,602,422,602,422l16-20L635,422z"/>
		<g opacity="0.1">
			<path fill="#464541" d="M617.938,427.868c-6.11,0-11.254-2.695-13.938-4.433v1c2.684,1.737,7.827,4.433,13.938,4.433
				c6.303,0,12.125-2.866,15.062-4.593v-1C630.062,425.002,624.24,427.868,617.938,427.868z"/>
		</g>
		<path fill="#333333" d="M618,434c-1.657,0-3,1.343-3,3v5.649c0.961,0.137,1.963,0.219,3,0.219c1.021,0,2.024-0.078,3-0.212V437
			C621,435.343,619.657,434,618,434z"/>
		<path opacity="0.15" fill="#000100" d="M616.993,403.26l6.373,23.951C629.875,425.688,635,422,635,422l-17-20L616.993,403.26z"/>
		<g>
			<path fill="#BCCBD4" d="M624,432.418v2c0,0,1.079-0.167,2.856-0.573l-0.062-1.985C625.056,432.255,624,432.418,624,432.418z"/>
			<path fill="#BCCBD4" d="M630,432.563v-2c0,0-0.714,0.68-2.794,1.195l0.065,1.982C629.3,433.229,630,432.563,630,432.563z"/>
			<path fill="#BCCBD4" d="M624,429.917v2c0,0,1.525-0.203,2.778-0.603l-0.061-1.981C625.477,429.72,624,429.917,624,429.917z"/>
			<path fill="#BCCBD4" d="M630,430.062v-2c0,0-0.902,0.476-2.879,1.14l0.065,1.978C629.116,430.527,630,430.062,630,430.062z"/>
		</g>
		<g>
			<path fill="#BCCBD4" d="M613,432.418v2c0,0-1.079-0.167-2.856-0.573l0.062-1.985C611.944,432.255,613,432.418,613,432.418z"/>
			<path fill="#BCCBD4" d="M607,432.563v-2c0,0,0.714,0.68,2.794,1.195l-0.065,1.982C607.7,433.229,607,432.563,607,432.563z"/>
			<path fill="#BCCBD4" d="M613,429.917v2c0,0-1.525-0.203-2.778-0.603l0.061-1.981C611.523,429.72,613,429.917,613,429.917z"/>
			<path fill="#BCCBD4" d="M607,430.062v-2c0,0,0.902,0.476,2.879,1.14l-0.065,1.978C607.884,430.527,607,430.062,607,430.062z"/>
		</g>
	</g>
</g>
<g>
	
		<radialGradient id="SVGID_6_" cx="706.4346" cy="442.501" r="18.667" gradientTransform="matrix(1.2445 -0.0115 0.0063 0.4372 -220.7599 257.154)" gradientUnits="userSpaceOnUse">
		<stop  offset="0" style="stop-color:#000100;stop-opacity:0.4"/>
		<stop  offset="1" style="stop-color:#000100;stop-opacity:0"/>
	</radialGradient>
	<ellipse fill="url(#SVGID_6_)" cx="660.562" cy="442.709" rx="24.062" ry="8.292"/>
	<g>
		<path fill="#E5E6E5" d="M675,441.172c0,0-7.001,4.696-15,4.696s-14-4.696-14-4.696V425h29V441.172z"/>
		<path fill="#464541" d="M677,425c0,0-8.053,5.868-17.062,5.868C650.926,430.868,644,425,644,425l16-20L677,425z"/>
		<g opacity="0.1">
			<path fill="#464541" d="M659.938,430.868c-6.11,0-11.254-2.695-13.938-4.433v1c2.684,1.737,7.827,4.433,13.938,4.433
				c6.303,0,12.125-2.866,15.062-4.593v-1C672.062,428.002,666.24,430.868,659.938,430.868z"/>
		</g>
		<path fill="#333333" d="M660,437c-1.657,0-3,1.343-3,3v5.649c0.961,0.137,1.963,0.219,3,0.219c1.021,0,2.024-0.078,3-0.212V440
			C663,438.343,661.657,437,660,437z"/>
		<path opacity="0.15" fill="#000100" d="M658.993,406.26l6.373,23.951C671.875,428.688,677,425,677,425l-17-20L658.993,406.26z"/>
		<g>
			<path fill="#BCCBD4" d="M666,435.418v2c0,0,1.079-0.167,2.856-0.573l-0.062-1.985C667.056,435.255,666,435.418,666,435.418z"/>
			<path fill="#BCCBD4" d="M672,435.563v-2c0,0-0.714,0.68-2.794,1.195l0.065,1.982C671.3,436.229,672,435.563,672,435.563z"/>
			<path fill="#BCCBD4" d="M666,432.917v2c0,0,1.525-0.203,2.778-0.603l-0.061-1.981C667.477,432.72,666,432.917,666,432.917z"/>
			<path fill="#BCCBD4" d="M672,433.062v-2c0,0-0.902,0.476-2.879,1.14l0.065,1.978C671.116,433.527,672,433.062,672,433.062z"/>
		</g>
		<g>
			<path fill="#BCCBD4" d="M655,435.418v2c0,0-1.079-0.167-2.856-0.573l0.062-1.985C653.944,435.255,655,435.418,655,435.418z"/>
			<path fill="#BCCBD4" d="M649,435.563v-2c0,0,0.714,0.68,2.794,1.195l-0.065,1.982C649.7,436.229,649,435.563,649,435.563z"/>
			<path fill="#BCCBD4" d="M655,432.917v2c0,0-1.525-0.203-2.778-0.603l0.061-1.981C653.523,432.72,655,432.917,655,432.917z"/>
			<path fill="#BCCBD4" d="M649,433.062v-2c0,0,0.902,0.476,2.879,1.14l-0.065,1.978C649.884,433.527,649,433.062,649,433.062z"/>
		</g>
	</g>
</g>
<g>
	
		<radialGradient id="SVGID_7_" cx="680.7236" cy="466.501" r="18.667" gradientTransform="matrix(1.2445 -0.0115 0.0063 0.4372 -220.9124 270.364)" gradientUnits="userSpaceOnUse">
		<stop  offset="0" style="stop-color:#000100;stop-opacity:0.4"/>
		<stop  offset="1" style="stop-color:#000100;stop-opacity:0"/>
	</radialGradient>
	<ellipse fill="url(#SVGID_7_)" cx="628.562" cy="466.709" rx="24.062" ry="8.292"/>
	<g>
		<path fill="#E5E6E5" d="M643,465.172c0,0-7.001,4.696-15,4.696s-14-4.696-14-4.696V449h29V465.172z"/>
		<path fill="#464541" d="M645,449c0,0-8.053,5.868-17.062,5.868C618.926,454.868,612,449,612,449l16-20L645,449z"/>
		<g opacity="0.1">
			<path fill="#464541" d="M627.938,454.868c-6.11,0-11.254-2.695-13.938-4.433v1c2.684,1.737,7.827,4.433,13.938,4.433
				c6.303,0,12.125-2.866,15.062-4.593v-1C640.062,452.002,634.24,454.868,627.938,454.868z"/>
		</g>
		<path fill="#333333" d="M628,461c-1.657,0-3,1.343-3,3v5.649c0.961,0.137,1.963,0.219,3,0.219c1.021,0,2.024-0.078,3-0.212V464
			C631,462.343,629.657,461,628,461z"/>
		<path opacity="0.15" fill="#000100" d="M626.993,430.26l6.373,23.951C639.875,452.688,645,449,645,449l-17-20L626.993,430.26z"/>
		<g>
			<path fill="#BCCBD4" d="M634,459.418v2c0,0,1.079-0.167,2.856-0.573l-0.062-1.985C635.056,459.255,634,459.418,634,459.418z"/>
			<path fill="#BCCBD4" d="M640,459.563v-2c0,0-0.714,0.68-2.794,1.195l0.065,1.982C639.3,460.229,640,459.563,640,459.563z"/>
			<path fill="#BCCBD4" d="M634,456.917v2c0,0,1.525-0.203,2.778-0.603l-0.061-1.981C635.477,456.72,634,456.917,634,456.917z"/>
			<path fill="#BCCBD4" d="M640,457.062v-2c0,0-0.902,0.476-2.879,1.14l0.065,1.978C639.116,457.527,640,457.062,640,457.062z"/>
		</g>
		<g>
			<path fill="#BCCBD4" d="M623,459.418v2c0,0-1.079-0.167-2.856-0.573l0.062-1.985C621.944,459.255,623,459.418,623,459.418z"/>
			<path fill="#BCCBD4" d="M617,459.563v-2c0,0,0.714,0.68,2.794,1.195l-0.065,1.982C617.7,460.229,617,459.563,617,459.563z"/>
			<path fill="#BCCBD4" d="M623,456.917v2c0,0-1.525-0.203-2.778-0.603l0.061-1.981C621.523,456.72,623,456.917,623,456.917z"/>
			<path fill="#BCCBD4" d="M617,457.062v-2c0,0,0.902,0.476,2.879,1.14l-0.065,1.978C617.884,457.527,617,457.062,617,457.062z"/>
		</g>
	</g>
</g>
<g>
	
		<radialGradient id="SVGID_8_" cx="646.9775" cy="484.501" r="18.6678" gradientTransform="matrix(1.2445 -0.0115 0.0063 0.4372 -221.028 280.1049)" gradientUnits="userSpaceOnUse">
		<stop  offset="0" style="stop-color:#000100;stop-opacity:0.4"/>
		<stop  offset="1" style="stop-color:#000100;stop-opacity:0"/>
	</radialGradient>
	<ellipse fill="url(#SVGID_8_)" cx="586.562" cy="484.709" rx="24.062" ry="8.292"/>
	<g>
		<path fill="#E5E6E5" d="M601,483.172c0,0-7.001,4.696-15,4.696s-14-4.696-14-4.696V467h29V483.172z"/>
		<path fill="#464541" d="M603,467c0,0-8.053,5.868-17.062,5.868C576.926,472.868,570,467,570,467l16-20L603,467z"/>
		<g opacity="0.1">
			<path fill="#464541" d="M585.938,472.868c-6.11,0-11.254-2.695-13.938-4.433v1c2.684,1.737,7.827,4.433,13.938,4.433
				c6.303,0,12.125-2.866,15.062-4.593v-1C598.062,470.002,592.24,472.868,585.938,472.868z"/>
		</g>
		<path fill="#333333" d="M586,479c-1.657,0-3,1.343-3,3v5.649c0.961,0.137,1.963,0.219,3,0.219c1.021,0,2.024-0.078,3-0.212V482
			C589,480.343,587.657,479,586,479z"/>
		<path opacity="0.15" fill="#000100" d="M584.993,448.26l6.373,23.951C597.875,470.688,603,467,603,467l-17-20L584.993,448.26z"/>
		<g>
			<path fill="#BCCBD4" d="M592,477.418v2c0,0,1.079-0.167,2.856-0.573l-0.062-1.985C593.056,477.255,592,477.418,592,477.418z"/>
			<path fill="#BCCBD4" d="M598,477.563v-2c0,0-0.714,0.68-2.794,1.195l0.065,1.982C597.3,478.229,598,477.563,598,477.563z"/>
			<path fill="#BCCBD4" d="M592,474.917v2c0,0,1.525-0.203,2.778-0.603l-0.061-1.981C593.477,474.72,592,474.917,592,474.917z"/>
			<path fill="#BCCBD4" d="M598,475.062v-2c0,0-0.902,0.476-2.879,1.14l0.065,1.978C597.116,475.527,598,475.062,598,475.062z"/>
		</g>
		<g>
			<path fill="#BCCBD4" d="M581,477.418v2c0,0-1.079-0.167-2.856-0.573l0.062-1.985C579.944,477.255,581,477.418,581,477.418z"/>
			<path fill="#BCCBD4" d="M575,477.563v-2c0,0,0.714,0.68,2.794,1.195l-0.065,1.982C575.7,478.229,575,477.563,575,477.563z"/>
			<path fill="#BCCBD4" d="M581,474.917v2c0,0-1.525-0.203-2.778-0.603l0.061-1.981C579.523,474.72,581,474.917,581,474.917z"/>
			<path fill="#BCCBD4" d="M575,475.062v-2c0,0,0.902,0.476,2.879,1.14l-0.065,1.978C575.884,475.527,575,475.062,575,475.062z"/>
		</g>
	</g>
</g>
<g>
	
		<radialGradient id="SVGID_9_" cx="614.0361" cy="497.501" r="18.667" gradientTransform="matrix(1.2445 -0.0115 0.0063 0.4372 -221.1123 287.0414)" gradientUnits="userSpaceOnUse">
		<stop  offset="0" style="stop-color:#000100;stop-opacity:0.4"/>
		<stop  offset="1" style="stop-color:#000100;stop-opacity:0"/>
	</radialGradient>
	<ellipse fill="url(#SVGID_9_)" cx="545.562" cy="497.709" rx="24.062" ry="8.292"/>
	<g>
		<path fill="#E5E6E5" d="M560,496.172c0,0-7.001,4.696-15,4.696s-14-4.696-14-4.696V480h29V496.172z"/>
		<path fill="#464541" d="M562,480c0,0-8.053,5.868-17.062,5.868C535.926,485.868,529,480,529,480l16-20L562,480z"/>
		<g opacity="0.1">
			<path fill="#464541" d="M544.938,485.868c-6.11,0-11.254-2.695-13.938-4.433v1c2.684,1.737,7.827,4.433,13.938,4.433
				c6.303,0,12.125-2.866,15.062-4.593v-1C557.062,483.002,551.24,485.868,544.938,485.868z"/>
		</g>
		<path fill="#333333" d="M545,492c-1.657,0-3,1.343-3,3v5.649c0.961,0.137,1.963,0.219,3,0.219c1.021,0,2.024-0.078,3-0.212V495
			C548,493.343,546.657,492,545,492z"/>
		<path opacity="0.15" fill="#000100" d="M543.993,461.26l6.373,23.951C556.875,483.688,562,480,562,480l-17-20L543.993,461.26z"/>
		<g>
			<path fill="#BCCBD4" d="M551,490.418v2c0,0,1.079-0.167,2.856-0.573l-0.062-1.985C552.056,490.255,551,490.418,551,490.418z"/>
			<path fill="#BCCBD4" d="M557,490.563v-2c0,0-0.714,0.68-2.794,1.195l0.065,1.982C556.3,491.229,557,490.563,557,490.563z"/>
			<path fill="#BCCBD4" d="M551,487.917v2c0,0,1.525-0.203,2.778-0.603l-0.061-1.981C552.477,487.72,551,487.917,551,487.917z"/>
			<path fill="#BCCBD4" d="M557,488.062v-2c0,0-0.902,0.476-2.879,1.14l0.065,1.978C556.116,488.527,557,488.062,557,488.062z"/>
		</g>
		<g>
			<path fill="#BCCBD4" d="M540,490.418v2c0,0-1.079-0.167-2.856-0.573l0.062-1.985C538.944,490.255,540,490.418,540,490.418z"/>
			<path fill="#BCCBD4" d="M534,490.563v-2c0,0,0.714,0.68,2.794,1.195l-0.065,1.982C534.7,491.229,534,490.563,534,490.563z"/>
			<path fill="#BCCBD4" d="M540,487.917v2c0,0-1.525-0.203-2.778-0.603l0.061-1.981C538.523,487.72,540,487.917,540,487.917z"/>
			<path fill="#BCCBD4" d="M534,488.062v-2c0,0,0.902,0.476,2.879,1.14l-0.065,1.978C534.884,488.527,534,488.062,534,488.062z"/>
		</g>
	</g>
</g>
<g>
	
		<radialGradient id="SVGID_10_" cx="577.0752" cy="497.501" r="18.6678" gradientTransform="matrix(1.2445 -0.0115 0.0063 0.4372 -221.1153 286.6157)" gradientUnits="userSpaceOnUse">
		<stop  offset="0" style="stop-color:#000100;stop-opacity:0.4"/>
		<stop  offset="1" style="stop-color:#000100;stop-opacity:0"/>
	</radialGradient>
	<ellipse fill="url(#SVGID_10_)" cx="499.562" cy="497.709" rx="24.062" ry="8.292"/>
	<g>
		<path fill="#E5E6E5" d="M514,496.172c0,0-7.001,4.696-15,4.696s-14-4.696-14-4.696V480h29V496.172z"/>
		<path fill="#464541" d="M516,480c0,0-8.053,5.868-17.062,5.868C489.926,485.868,483,480,483,480l16-20L516,480z"/>
		<g opacity="0.1">
			<path fill="#464541" d="M498.938,485.868c-6.11,0-11.254-2.695-13.938-4.433v1c2.684,1.737,7.827,4.433,13.938,4.433
				c6.303,0,12.125-2.866,15.062-4.593v-1C511.062,483.002,505.24,485.868,498.938,485.868z"/>
		</g>
		<path fill="#333333" d="M499,492c-1.657,0-3,1.343-3,3v5.649c0.961,0.137,1.963,0.219,3,0.219c1.021,0,2.024-0.078,3-0.212V495
			C502,493.343,500.657,492,499,492z"/>
		<path opacity="0.15" fill="#000100" d="M497.993,461.26l6.373,23.951C510.875,483.688,516,480,516,480l-17-20L497.993,461.26z"/>
		<g>
			<path fill="#BCCBD4" d="M505,490.418v2c0,0,1.079-0.167,2.856-0.573l-0.062-1.985C506.056,490.255,505,490.418,505,490.418z"/>
			<path fill="#BCCBD4" d="M511,490.563v-2c0,0-0.714,0.68-2.794,1.195l0.065,1.982C510.3,491.229,511,490.563,511,490.563z"/>
			<path fill="#BCCBD4" d="M505,487.917v2c0,0,1.525-0.203,2.778-0.603l-0.061-1.981C506.477,487.72,505,487.917,505,487.917z"/>
			<path fill="#BCCBD4" d="M511,488.062v-2c0,0-0.902,0.476-2.879,1.14l0.065,1.978C510.116,488.527,511,488.062,511,488.062z"/>
		</g>
		<g>
			<path fill="#BCCBD4" d="M494,490.418v2c0,0-1.079-0.167-2.856-0.573l0.062-1.985C492.944,490.255,494,490.418,494,490.418z"/>
			<path fill="#BCCBD4" d="M488,490.563v-2c0,0,0.714,0.68,2.794,1.195l-0.065,1.982C488.7,491.229,488,490.563,488,490.563z"/>
			<path fill="#BCCBD4" d="M494,487.917v2c0,0-1.525-0.203-2.778-0.603l0.061-1.981C492.523,487.72,494,487.917,494,487.917z"/>
			<path fill="#BCCBD4" d="M488,488.062v-2c0,0,0.902,0.476,2.879,1.14l-0.065,1.978C488.884,488.527,488,488.062,488,488.062z"/>
		</g>
	</g>
</g>
<g>
	
		<radialGradient id="SVGID_11_" cx="523.2432" cy="431.501" r="18.667" gradientTransform="matrix(-1.2445 -0.0115 -0.0063 0.4372 997.8311 248.8541)" gradientUnits="userSpaceOnUse">
		<stop  offset="0" style="stop-color:#000100;stop-opacity:0.4"/>
		<stop  offset="1" style="stop-color:#000100;stop-opacity:0"/>
	</radialGradient>
	<ellipse fill="url(#SVGID_11_)" cx="344.562" cy="431.709" rx="24.062" ry="8.292"/>
	<g>
		<path fill="#E5E6E5" d="M330,430.172c0,0,7.001,4.696,15,4.696s14-4.696,14-4.696V414h-29V430.172z"/>
		<path fill="#464541" d="M328.125,414c0,0,8.053,5.868,17.062,5.868c9.012,0,15.938-5.868,15.938-5.868l-16-20L328.125,414z"/>
		<g opacity="0.1">
			<path fill="#464541" d="M345.062,419.868c6.11,0,10.938-2.695,13.938-4.433v1c-3,1.737-7.827,4.433-13.938,4.433
				c-6.303,0-12.062-2.866-15.062-4.593v-1C333,417.002,338.76,419.868,345.062,419.868z"/>
		</g>
		<path fill="#333333" d="M345,426c1.657,0,3,1.343,3,3v5.649c-1,0.137-1.963,0.219-3,0.219c-1.021,0-2-0.078-3-0.212V429
			C342,427.343,343.343,426,345,426z"/>
		<path opacity="0.15" fill="#000100" d="M346.132,395.26l-6.373,23.951c-6.509-1.523-11.634-5.211-11.634-5.211l17-20
			L346.132,395.26z"/>
		<g>
			<path fill="#BCCBD4" d="M339,424.418v2c0,0-1.017-0.167-2.794-0.573l0.03-1.985C337.976,424.255,339,424.418,339,424.418z"/>
			<path fill="#BCCBD4" d="M333,424.563v-2c0,0,0.776,0.68,2.856,1.195l-0.097,1.982C333.731,425.229,333,424.563,333,424.563z"/>
			<path fill="#BCCBD4" d="M339,421.917v2c0,0-1.463-0.203-2.716-0.603l0.029-1.981C337.555,421.72,339,421.917,339,421.917z"/>
			<path fill="#BCCBD4" d="M333,422.062v-2c0,0,0.965,0.476,2.941,1.14l-0.097,1.978C333.915,422.527,333,422.062,333,422.062z"/>
		</g>
		<g>
			<path fill="#BCCBD4" d="M350,424.418v2c0,0,1.142-0.167,2.919-0.573l-0.093-1.985C351.087,424.255,350,424.418,350,424.418z"/>
			<path fill="#BCCBD4" d="M356,424.563v-2c0,0-0.651,0.68-2.731,1.195l0.034,1.982C355.331,425.229,356,424.563,356,424.563z"/>
			<path fill="#BCCBD4" d="M350,421.917v2c0,0,1.588-0.203,2.841-0.603l-0.092-1.981C351.508,421.72,350,421.917,350,421.917z"/>
			<path fill="#BCCBD4" d="M356,422.062v-2c0,0-0.84,0.476-2.816,1.14l0.034,1.978C355.147,422.527,356,422.062,356,422.062z"/>
		</g>
	</g>
</g>
<g>
	
		<radialGradient id="SVGID_12_" cx="569.04" cy="463.501" r="18.6678" gradientTransform="matrix(1.2445 -0.0115 0.0063 0.4372 -220.9029 267.3896)" gradientUnits="userSpaceOnUse">
		<stop  offset="0" style="stop-color:#000100;stop-opacity:0.4"/>
		<stop  offset="1" style="stop-color:#000100;stop-opacity:0"/>
	</radialGradient>
	<ellipse fill="url(#SVGID_12_)" cx="489.562" cy="463.709" rx="24.062" ry="8.292"/>
	<g>
		<path fill="#E5E6E5" d="M504,462.172c0,0-7.001,4.696-15,4.696s-14-4.696-14-4.696V446h29V462.172z"/>
		<path fill="#464541" d="M506,446c0,0-8.053,5.868-17.062,5.868C479.926,451.868,473,446,473,446l16-20L506,446z"/>
		<g opacity="0.1">
			<path fill="#464541" d="M488.938,451.868c-6.11,0-11.254-2.695-13.938-4.433v1c2.684,1.737,7.827,4.433,13.938,4.433
				c6.303,0,12.125-2.866,15.062-4.593v-1C501.062,449.002,495.24,451.868,488.938,451.868z"/>
		</g>
		<path fill="#333333" d="M489,458c-1.657,0-3,1.343-3,3v5.649c0.961,0.137,1.963,0.219,3,0.219c1.021,0,2.024-0.078,3-0.212V461
			C492,459.343,490.657,458,489,458z"/>
		<path opacity="0.15" fill="#000100" d="M487.993,427.26l6.373,23.951C500.875,449.688,506,446,506,446l-17-20L487.993,427.26z"/>
		<g>
			<path fill="#BCCBD4" d="M495,456.418v2c0,0,1.079-0.167,2.856-0.573l-0.062-1.985C496.056,456.255,495,456.418,495,456.418z"/>
			<path fill="#BCCBD4" d="M501,456.563v-2c0,0-0.714,0.68-2.794,1.195l0.065,1.982C500.3,457.229,501,456.563,501,456.563z"/>
			<path fill="#BCCBD4" d="M495,453.917v2c0,0,1.525-0.203,2.778-0.603l-0.061-1.981C496.477,453.72,495,453.917,495,453.917z"/>
			<path fill="#BCCBD4" d="M501,454.062v-2c0,0-0.902,0.476-2.879,1.14l0.065,1.978C500.116,454.527,501,454.062,501,454.062z"/>
		</g>
		<g>
			<path fill="#BCCBD4" d="M484,456.418v2c0,0-1.079-0.167-2.856-0.573l0.062-1.985C482.944,456.255,484,456.418,484,456.418z"/>
			<path fill="#BCCBD4" d="M478,456.563v-2c0,0,0.714,0.68,2.794,1.195l-0.065,1.982C478.7,457.229,478,456.563,478,456.563z"/>
			<path fill="#BCCBD4" d="M484,453.917v2c0,0-1.525-0.203-2.778-0.603l0.061-1.981C482.523,453.72,484,453.917,484,453.917z"/>
			<path fill="#BCCBD4" d="M478,454.062v-2c0,0,0.902,0.476,2.879,1.14l-0.065,1.978C478.884,454.527,478,454.062,478,454.062z"/>
		</g>
	</g>
</g>
<g>
	
		<radialGradient id="SVGID_13_" cx="523.2432" cy="463.501" r="18.667" gradientTransform="matrix(-1.2445 -0.0115 -0.0063 0.4372 998.0317 266.8622)" gradientUnits="userSpaceOnUse">
		<stop  offset="0" style="stop-color:#000100;stop-opacity:0.4"/>
		<stop  offset="1" style="stop-color:#000100;stop-opacity:0"/>
	</radialGradient>
	<ellipse fill="url(#SVGID_13_)" cx="344.562" cy="463.709" rx="24.062" ry="8.292"/>
	<g>
		<path fill="#E5E6E5" d="M330,462.172c0,0,7.001,4.696,15,4.696s14-4.696,14-4.696V446h-29V462.172z"/>
		<path fill="#464541" d="M328.125,446c0,0,8.053,5.868,17.062,5.868c9.012,0,15.938-5.868,15.938-5.868l-16-20L328.125,446z"/>
		<g opacity="0.1">
			<path fill="#464541" d="M345.062,451.868c6.11,0,10.938-2.695,13.938-4.433v1c-3,1.737-7.827,4.433-13.938,4.433
				c-6.303,0-12.062-2.866-15.062-4.593v-1C333,449.002,338.76,451.868,345.062,451.868z"/>
		</g>
		<path fill="#333333" d="M345,458c1.657,0,3,1.343,3,3v5.649c-1,0.137-1.963,0.219-3,0.219c-1.021,0-2-0.078-3-0.212V461
			C342,459.343,343.343,458,345,458z"/>
		<path opacity="0.15" fill="#000100" d="M346.132,427.26l-6.373,23.951c-6.509-1.523-11.634-5.211-11.634-5.211l17-20
			L346.132,427.26z"/>
		<g>
			<path fill="#BCCBD4" d="M339,456.418v2c0,0-1.017-0.167-2.794-0.573l0.03-1.985C337.976,456.255,339,456.418,339,456.418z"/>
			<path fill="#BCCBD4" d="M333,456.563v-2c0,0,0.776,0.68,2.856,1.195l-0.097,1.982C333.731,457.229,333,456.563,333,456.563z"/>
			<path fill="#BCCBD4" d="M339,453.917v2c0,0-1.463-0.203-2.716-0.603l0.029-1.981C337.555,453.72,339,453.917,339,453.917z"/>
			<path fill="#BCCBD4" d="M333,454.062v-2c0,0,0.965,0.476,2.941,1.14l-0.097,1.978C333.915,454.527,333,454.062,333,454.062z"/>
		</g>
		<g>
			<path fill="#BCCBD4" d="M350,456.418v2c0,0,1.142-0.167,2.919-0.573l-0.093-1.985C351.087,456.255,350,456.418,350,456.418z"/>
			<path fill="#BCCBD4" d="M356,456.563v-2c0,0-0.651,0.68-2.731,1.195l0.034,1.982C355.331,457.229,356,456.563,356,456.563z"/>
			<path fill="#BCCBD4" d="M350,453.917v2c0,0,1.588-0.203,2.841-0.603l-0.092-1.981C351.508,453.72,350,453.917,350,453.917z"/>
			<path fill="#BCCBD4" d="M356,454.062v-2c0,0-0.84,0.476-2.816,1.14l0.034,1.978C355.147,454.527,356,454.062,356,454.062z"/>
		</g>
	</g>
</g>
<g>
	
		<radialGradient id="SVGID_14_" cx="484.6768" cy="431.501" r="18.667" gradientTransform="matrix(-1.2445 -0.0115 -0.0063 0.4372 997.8342 248.41)" gradientUnits="userSpaceOnUse">
		<stop  offset="0" style="stop-color:#000100;stop-opacity:0.4"/>
		<stop  offset="1" style="stop-color:#000100;stop-opacity:0"/>
	</radialGradient>
	<ellipse fill="url(#SVGID_14_)" cx="392.562" cy="431.709" rx="24.062" ry="8.292"/>
	<g>
		<path fill="#E5E6E5" d="M378,430.172c0,0,7.001,4.696,15,4.696s14-4.696,14-4.696V414h-29V430.172z"/>
		<path fill="#464541" d="M376.125,414c0,0,8.053,5.868,17.062,5.868c9.012,0,15.938-5.868,15.938-5.868l-16-20L376.125,414z"/>
		<g opacity="0.1">
			<path fill="#464541" d="M393.062,419.868c6.11,0,10.938-2.695,13.938-4.433v1c-3,1.737-7.827,4.433-13.938,4.433
				c-6.303,0-12.062-2.866-15.062-4.593v-1C381,417.002,386.76,419.868,393.062,419.868z"/>
		</g>
		<path fill="#333333" d="M393,426c1.657,0,3,1.343,3,3v5.649c-1,0.137-1.963,0.219-3,0.219c-1.021,0-2-0.078-3-0.212V429
			C390,427.343,391.343,426,393,426z"/>
		<path opacity="0.15" fill="#000100" d="M394.132,395.26l-6.373,23.951c-6.509-1.523-11.634-5.211-11.634-5.211l17-20
			L394.132,395.26z"/>
		<g>
			<path fill="#BCCBD4" d="M387,424.418v2c0,0-1.017-0.167-2.794-0.573l0.03-1.985C385.976,424.255,387,424.418,387,424.418z"/>
			<path fill="#BCCBD4" d="M381,424.563v-2c0,0,0.776,0.68,2.856,1.195l-0.097,1.982C381.731,425.229,381,424.563,381,424.563z"/>
			<path fill="#BCCBD4" d="M387,421.917v2c0,0-1.463-0.203-2.716-0.603l0.029-1.981C385.555,421.72,387,421.917,387,421.917z"/>
			<path fill="#BCCBD4" d="M381,422.062v-2c0,0,0.965,0.476,2.941,1.14l-0.097,1.978C381.915,422.527,381,422.062,381,422.062z"/>
		</g>
		<g>
			<path fill="#BCCBD4" d="M398,424.418v2c0,0,1.142-0.167,2.919-0.573l-0.093-1.985C399.087,424.255,398,424.418,398,424.418z"/>
			<path fill="#BCCBD4" d="M404,424.563v-2c0,0-0.651,0.68-2.731,1.195l0.034,1.982C403.331,425.229,404,424.563,404,424.563z"/>
			<path fill="#BCCBD4" d="M398,421.917v2c0,0,1.588-0.203,2.841-0.603l-0.092-1.981C399.508,421.72,398,421.917,398,421.917z"/>
			<path fill="#BCCBD4" d="M404,422.062v-2c0,0-0.84,0.476-2.816,1.14l0.034,1.978C403.147,422.527,404,422.062,404,422.062z"/>
		</g>
	</g>
</g>
<g>
	
		<radialGradient id="SVGID_15_" cx="560.2021" cy="434.501" r="18.6678" gradientTransform="matrix(-1.2445 -0.0115 -0.0063 0.4372 997.8468 250.968)" gradientUnits="userSpaceOnUse">
		<stop  offset="0" style="stop-color:#000100;stop-opacity:0.4"/>
		<stop  offset="1" style="stop-color:#000100;stop-opacity:0"/>
	</radialGradient>
	<ellipse fill="url(#SVGID_15_)" cx="298.562" cy="434.709" rx="24.062" ry="8.292"/>
	<g>
		<path fill="#E5E6E5" d="M284,433.172c0,0,7.001,4.696,15,4.696s14-4.696,14-4.696V417h-29V433.172z"/>
		<path fill="#464541" d="M282.125,417c0,0,8.053,5.868,17.062,5.868c9.012,0,15.938-5.868,15.938-5.868l-16-20L282.125,417z"/>
		<g opacity="0.1">
			<path fill="#464541" d="M299.062,422.868c6.11,0,10.938-2.695,13.938-4.433v1c-3,1.737-7.827,4.433-13.938,4.433
				c-6.303,0-12.062-2.866-15.062-4.593v-1C287,420.002,292.76,422.868,299.062,422.868z"/>
		</g>
		<path fill="#333333" d="M299,429c1.657,0,3,1.343,3,3v5.649c-1,0.137-1.963,0.219-3,0.219c-1.021,0-2-0.078-3-0.212V432
			C296,430.343,297.343,429,299,429z"/>
		<path opacity="0.15" fill="#000100" d="M300.132,398.26l-6.373,23.951c-6.509-1.523-11.634-5.211-11.634-5.211l17-20
			L300.132,398.26z"/>
		<g>
			<path fill="#BCCBD4" d="M293,427.418v2c0,0-1.017-0.167-2.794-0.573l0.03-1.985C291.976,427.255,293,427.418,293,427.418z"/>
			<path fill="#BCCBD4" d="M287,427.563v-2c0,0,0.776,0.68,2.856,1.195l-0.097,1.982C287.731,428.229,287,427.563,287,427.563z"/>
			<path fill="#BCCBD4" d="M293,424.917v2c0,0-1.463-0.203-2.716-0.603l0.029-1.981C291.555,424.72,293,424.917,293,424.917z"/>
			<path fill="#BCCBD4" d="M287,425.062v-2c0,0,0.965,0.476,2.941,1.14l-0.097,1.978C287.915,425.527,287,425.062,287,425.062z"/>
		</g>
		<g>
			<path fill="#BCCBD4" d="M304,427.418v2c0,0,1.142-0.167,2.919-0.573l-0.093-1.985C305.087,427.255,304,427.418,304,427.418z"/>
			<path fill="#BCCBD4" d="M310,427.563v-2c0,0-0.651,0.68-2.731,1.195l0.034,1.982C309.331,428.229,310,427.563,310,427.563z"/>
			<path fill="#BCCBD4" d="M304,424.917v2c0,0,1.588-0.203,2.841-0.603l-0.092-1.981C305.508,424.72,304,424.917,304,424.917z"/>
			<path fill="#BCCBD4" d="M310,425.062v-2c0,0-0.84,0.476-2.816,1.14l0.034,1.978C309.147,425.527,310,425.062,310,425.062z"/>
		</g>
	</g>
</g>
<g>
	
		<radialGradient id="SVGID_16_" cx="606.001" cy="462.501" r="18.667" gradientTransform="matrix(1.2445 -0.0115 0.0063 0.4372 -220.8935 267.2525)" gradientUnits="userSpaceOnUse">
		<stop  offset="0" style="stop-color:#000100;stop-opacity:0.4"/>
		<stop  offset="1" style="stop-color:#000100;stop-opacity:0"/>
	</radialGradient>
	<ellipse fill="url(#SVGID_16_)" cx="535.562" cy="462.709" rx="24.062" ry="8.292"/>
	<g>
		<path fill="#E5E6E5" d="M550,461.172c0,0-7.001,4.696-15,4.696s-14-4.696-14-4.696V445h29V461.172z"/>
		<path fill="#464541" d="M552,445c0,0-8.053,5.868-17.062,5.868C525.926,450.868,519,445,519,445l16-20L552,445z"/>
		<g opacity="0.1">
			<path fill="#464541" d="M534.938,450.868c-6.11,0-11.254-2.695-13.938-4.433v1c2.684,1.737,7.827,4.433,13.938,4.433
				c6.303,0,12.125-2.866,15.062-4.593v-1C547.062,448.002,541.24,450.868,534.938,450.868z"/>
		</g>
		<path fill="#333333" d="M535,457c-1.657,0-3,1.343-3,3v5.649c0.961,0.137,1.963,0.219,3,0.219c1.021,0,2.024-0.078,3-0.212V460
			C538,458.343,536.657,457,535,457z"/>
		<path opacity="0.15" fill="#000100" d="M533.993,426.26l6.373,23.951C546.875,448.688,552,445,552,445l-17-20L533.993,426.26z"/>
		<g>
			<path fill="#BCCBD4" d="M541,455.418v2c0,0,1.079-0.167,2.856-0.573l-0.062-1.985C542.056,455.255,541,455.418,541,455.418z"/>
			<path fill="#BCCBD4" d="M547,455.563v-2c0,0-0.714,0.68-2.794,1.195l0.065,1.982C546.3,456.229,547,455.563,547,455.563z"/>
			<path fill="#BCCBD4" d="M541,452.917v2c0,0,1.525-0.203,2.778-0.603l-0.061-1.981C542.477,452.72,541,452.917,541,452.917z"/>
			<path fill="#BCCBD4" d="M547,453.062v-2c0,0-0.902,0.476-2.879,1.14l0.065,1.978C546.116,453.527,547,453.062,547,453.062z"/>
		</g>
		<g>
			<path fill="#BCCBD4" d="M530,455.418v2c0,0-1.079-0.167-2.856-0.573l0.062-1.985C528.944,455.255,530,455.418,530,455.418z"/>
			<path fill="#BCCBD4" d="M524,455.563v-2c0,0,0.714,0.68,2.794,1.195l-0.065,1.982C524.7,456.229,524,455.563,524,455.563z"/>
			<path fill="#BCCBD4" d="M530,452.917v2c0,0-1.525-0.203-2.778-0.603l0.061-1.981C528.523,452.72,530,452.917,530,452.917z"/>
			<path fill="#BCCBD4" d="M524,453.062v-2c0,0,0.902,0.476,2.879,1.14l-0.065,1.978C524.884,453.527,524,453.062,524,453.062z"/>
		</g>
	</g>
</g>
<g>
	
		<radialGradient id="SVGID_17_" cx="560.2021" cy="462.501" r="18.6678" gradientTransform="matrix(-1.2445 -0.0115 -0.0063 0.4372 998.0223 266.725)" gradientUnits="userSpaceOnUse">
		<stop  offset="0" style="stop-color:#000100;stop-opacity:0.4"/>
		<stop  offset="1" style="stop-color:#000100;stop-opacity:0"/>
	</radialGradient>
	<ellipse fill="url(#SVGID_17_)" cx="298.562" cy="462.709" rx="24.062" ry="8.292"/>
	<g>
		<path fill="#E5E6E5" d="M284,461.172c0,0,7.001,4.696,15,4.696s14-4.696,14-4.696V445h-29V461.172z"/>
		<path fill="#464541" d="M282.125,445c0,0,8.053,5.868,17.062,5.868c9.012,0,15.938-5.868,15.938-5.868l-16-20L282.125,445z"/>
		<g opacity="0.1">
			<path fill="#464541" d="M299.062,450.868c6.11,0,10.938-2.695,13.938-4.433v1c-3,1.737-7.827,4.433-13.938,4.433
				c-6.303,0-12.062-2.866-15.062-4.593v-1C287,448.002,292.76,450.868,299.062,450.868z"/>
		</g>
		<path fill="#333333" d="M299,457c1.657,0,3,1.343,3,3v5.649c-1,0.137-1.963,0.219-3,0.219c-1.021,0-2-0.078-3-0.212V460
			C296,458.343,297.343,457,299,457z"/>
		<path opacity="0.15" fill="#000100" d="M300.132,426.26l-6.373,23.951c-6.509-1.523-11.634-5.211-11.634-5.211l17-20
			L300.132,426.26z"/>
		<g>
			<path fill="#BCCBD4" d="M293,455.418v2c0,0-1.017-0.167-2.794-0.573l0.03-1.985C291.976,455.255,293,455.418,293,455.418z"/>
			<path fill="#BCCBD4" d="M287,455.563v-2c0,0,0.776,0.68,2.856,1.195l-0.097,1.982C287.731,456.229,287,455.563,287,455.563z"/>
			<path fill="#BCCBD4" d="M293,452.917v2c0,0-1.463-0.203-2.716-0.603l0.029-1.981C291.555,452.72,293,452.917,293,452.917z"/>
			<path fill="#BCCBD4" d="M287,453.062v-2c0,0,0.965,0.476,2.941,1.14l-0.097,1.978C287.915,453.527,287,453.062,287,453.062z"/>
		</g>
		<g>
			<path fill="#BCCBD4" d="M304,455.418v2c0,0,1.142-0.167,2.919-0.573l-0.093-1.985C305.087,455.255,304,455.418,304,455.418z"/>
			<path fill="#BCCBD4" d="M310,455.563v-2c0,0-0.651,0.68-2.731,1.195l0.034,1.982C309.331,456.229,310,455.563,310,455.563z"/>
			<path fill="#BCCBD4" d="M304,452.917v2c0,0,1.588-0.203,2.841-0.603l-0.092-1.981C305.508,452.72,304,452.917,304,452.917z"/>
			<path fill="#BCCBD4" d="M310,453.062v-2c0,0-0.84,0.476-2.816,1.14l0.034,1.978C309.147,453.527,310,453.062,310,453.062z"/>
		</g>
	</g>
</g>
<g>
	
		<radialGradient id="SVGID_18_" cx="594.752" cy="437.501" r="18.667" gradientTransform="matrix(-1.2445 -0.0115 -0.0063 0.4372 997.8629 253.0541)" gradientUnits="userSpaceOnUse">
		<stop  offset="0" style="stop-color:#000100;stop-opacity:0.4"/>
		<stop  offset="1" style="stop-color:#000100;stop-opacity:0"/>
	</radialGradient>
	<ellipse fill="url(#SVGID_18_)" cx="255.562" cy="437.709" rx="24.062" ry="8.292"/>
	<g>
		<path fill="#E5E6E5" d="M241,436.172c0,0,7.001,4.696,15,4.696s14-4.696,14-4.696V420h-29V436.172z"/>
		<path fill="#464541" d="M239.125,420c0,0,8.053,5.868,17.062,5.868c9.012,0,15.938-5.868,15.938-5.868l-16-20L239.125,420z"/>
		<g opacity="0.1">
			<path fill="#464541" d="M256.062,425.868c6.11,0,10.938-2.695,13.938-4.433v1c-3,1.737-7.827,4.433-13.938,4.433
				c-6.303,0-12.062-2.866-15.062-4.593v-1C244,423.002,249.76,425.868,256.062,425.868z"/>
		</g>
		<path fill="#333333" d="M256,432c1.657,0,3,1.343,3,3v5.649c-1,0.137-1.963,0.219-3,0.219c-1.021,0-2-0.078-3-0.212V435
			C253,433.343,254.343,432,256,432z"/>
		<path opacity="0.15" fill="#000100" d="M257.132,401.26l-6.373,23.951c-6.509-1.523-11.634-5.211-11.634-5.211l17-20
			L257.132,401.26z"/>
		<g>
			<path fill="#BCCBD4" d="M250,430.418v2c0,0-1.017-0.167-2.794-0.573l0.03-1.985C248.976,430.255,250,430.418,250,430.418z"/>
			<path fill="#BCCBD4" d="M244,430.563v-2c0,0,0.776,0.68,2.856,1.195l-0.097,1.982C244.731,431.229,244,430.563,244,430.563z"/>
			<path fill="#BCCBD4" d="M250,427.917v2c0,0-1.463-0.203-2.716-0.603l0.029-1.981C248.555,427.72,250,427.917,250,427.917z"/>
			<path fill="#BCCBD4" d="M244,428.062v-2c0,0,0.965,0.476,2.941,1.14l-0.097,1.978C244.915,428.527,244,428.062,244,428.062z"/>
		</g>
		<g>
			<path fill="#BCCBD4" d="M261,430.418v2c0,0,1.142-0.167,2.919-0.573l-0.093-1.985C262.087,430.255,261,430.418,261,430.418z"/>
			<path fill="#BCCBD4" d="M267,430.563v-2c0,0-0.651,0.68-2.731,1.195l0.034,1.982C266.331,431.229,267,430.563,267,430.563z"/>
			<path fill="#BCCBD4" d="M261,427.917v2c0,0,1.588-0.203,2.841-0.603l-0.092-1.981C262.508,427.72,261,427.917,261,427.917z"/>
			<path fill="#BCCBD4" d="M267,428.062v-2c0,0-0.84,0.476-2.816,1.14l0.034,1.978C266.147,428.527,267,428.062,267,428.062z"/>
		</g>
	</g>
</g>
<g>
	
		<radialGradient id="SVGID_19_" cx="640.5498" cy="460.501" r="18.6678" gradientTransform="matrix(1.2445 -0.0115 0.0063 0.4372 -220.8782 266.5248)" gradientUnits="userSpaceOnUse">
		<stop  offset="0" style="stop-color:#000100;stop-opacity:0.4"/>
		<stop  offset="1" style="stop-color:#000100;stop-opacity:0"/>
	</radialGradient>
	<ellipse fill="url(#SVGID_19_)" cx="578.562" cy="460.709" rx="24.062" ry="8.292"/>
	<g>
		<path fill="#E5E6E5" d="M593,459.172c0,0-7.001,4.696-15,4.696s-14-4.696-14-4.696V443h29V459.172z"/>
		<path fill="#464541" d="M595,443c0,0-8.053,5.868-17.062,5.868C568.926,448.868,562,443,562,443l16-20L595,443z"/>
		<g opacity="0.1">
			<path fill="#464541" d="M577.938,448.868c-6.11,0-11.254-2.695-13.938-4.433v1c2.684,1.737,7.827,4.433,13.938,4.433
				c6.303,0,12.125-2.866,15.062-4.593v-1C590.062,446.002,584.24,448.868,577.938,448.868z"/>
		</g>
		<path fill="#333333" d="M578,455c-1.657,0-3,1.343-3,3v5.649c0.961,0.137,1.963,0.219,3,0.219c1.021,0,2.024-0.078,3-0.212V458
			C581,456.343,579.657,455,578,455z"/>
		<path opacity="0.15" fill="#000100" d="M576.993,424.26l6.373,23.951C589.875,446.688,595,443,595,443l-17-20L576.993,424.26z"/>
		<g>
			<path fill="#BCCBD4" d="M584,453.418v2c0,0,1.079-0.167,2.856-0.573l-0.062-1.985C585.056,453.255,584,453.418,584,453.418z"/>
			<path fill="#BCCBD4" d="M590,453.563v-2c0,0-0.714,0.68-2.794,1.195l0.065,1.982C589.3,454.229,590,453.563,590,453.563z"/>
			<path fill="#BCCBD4" d="M584,450.917v2c0,0,1.525-0.203,2.778-0.603l-0.061-1.981C585.477,450.72,584,450.917,584,450.917z"/>
			<path fill="#BCCBD4" d="M590,451.062v-2c0,0-0.902,0.476-2.879,1.14l0.065,1.978C589.116,451.527,590,451.062,590,451.062z"/>
		</g>
		<g>
			<path fill="#BCCBD4" d="M573,453.418v2c0,0-1.079-0.167-2.856-0.573l0.062-1.985C571.944,453.255,573,453.418,573,453.418z"/>
			<path fill="#BCCBD4" d="M567,453.563v-2c0,0,0.714,0.68,2.794,1.195l-0.065,1.982C567.7,454.229,567,453.563,567,453.563z"/>
			<path fill="#BCCBD4" d="M573,450.917v2c0,0-1.525-0.203-2.778-0.603l0.061-1.981C571.523,450.72,573,450.917,573,450.917z"/>
			<path fill="#BCCBD4" d="M567,451.062v-2c0,0,0.902,0.476,2.879,1.14l-0.065,1.978C567.884,451.527,567,451.062,567,451.062z"/>
		</g>
	</g>
</g>
<g>
	
		<radialGradient id="SVGID_20_" cx="594.752" cy="460.501" r="18.667" gradientTransform="matrix(-1.2445 -0.0115 -0.0063 0.4372 998.007 265.9974)" gradientUnits="userSpaceOnUse">
		<stop  offset="0" style="stop-color:#000100;stop-opacity:0.4"/>
		<stop  offset="1" style="stop-color:#000100;stop-opacity:0"/>
	</radialGradient>
	<ellipse fill="url(#SVGID_20_)" cx="255.562" cy="460.709" rx="24.062" ry="8.292"/>
	<g>
		<path fill="#E5E6E5" d="M241,459.172c0,0,7.001,4.696,15,4.696s14-4.696,14-4.696V443h-29V459.172z"/>
		<path fill="#464541" d="M239.125,443c0,0,8.053,5.868,17.062,5.868c9.012,0,15.938-5.868,15.938-5.868l-16-20L239.125,443z"/>
		<g opacity="0.1">
			<path fill="#464541" d="M256.062,448.868c6.11,0,10.938-2.695,13.938-4.433v1c-3,1.737-7.827,4.433-13.938,4.433
				c-6.303,0-12.062-2.866-15.062-4.593v-1C244,446.002,249.76,448.868,256.062,448.868z"/>
		</g>
		<path fill="#333333" d="M256,455c1.657,0,3,1.343,3,3v5.649c-1,0.137-1.963,0.219-3,0.219c-1.021,0-2-0.078-3-0.212V458
			C253,456.343,254.343,455,256,455z"/>
		<path opacity="0.15" fill="#000100" d="M257.132,424.26l-6.373,23.951c-6.509-1.523-11.634-5.211-11.634-5.211l17-20
			L257.132,424.26z"/>
		<g>
			<path fill="#BCCBD4" d="M250,453.418v2c0,0-1.017-0.167-2.794-0.573l0.03-1.985C248.976,453.255,250,453.418,250,453.418z"/>
			<path fill="#BCCBD4" d="M244,453.563v-2c0,0,0.776,0.68,2.856,1.195l-0.097,1.982C244.731,454.229,244,453.563,244,453.563z"/>
			<path fill="#BCCBD4" d="M250,450.917v2c0,0-1.463-0.203-2.716-0.603l0.029-1.981C248.555,450.72,250,450.917,250,450.917z"/>
			<path fill="#BCCBD4" d="M244,451.062v-2c0,0,0.965,0.476,2.941,1.14l-0.097,1.978C244.915,451.527,244,451.062,244,451.062z"/>
		</g>
		<g>
			<path fill="#BCCBD4" d="M261,453.418v2c0,0,1.142-0.167,2.919-0.573l-0.093-1.985C262.087,453.255,261,453.418,261,453.418z"/>
			<path fill="#BCCBD4" d="M267,453.563v-2c0,0-0.651,0.68-2.731,1.195l0.034,1.982C266.331,454.229,267,453.563,267,453.563z"/>
			<path fill="#BCCBD4" d="M261,450.917v2c0,0,1.588-0.203,2.841-0.603l-0.092-1.981C262.508,450.72,261,450.917,261,450.917z"/>
			<path fill="#BCCBD4" d="M267,451.062v-2c0,0-0.84,0.476-2.816,1.14l0.034,1.978C266.147,451.527,267,451.062,267,451.062z"/>
		</g>
	</g>
</g>
<g>
	
		<radialGradient id="SVGID_21_" cx="626.8906" cy="439.501" r="18.667" gradientTransform="matrix(-1.2445 -0.0115 -0.0063 0.4372 997.8727 254.5497)" gradientUnits="userSpaceOnUse">
		<stop  offset="0" style="stop-color:#000100;stop-opacity:0.4"/>
		<stop  offset="1" style="stop-color:#000100;stop-opacity:0"/>
	</radialGradient>
	<ellipse fill="url(#SVGID_21_)" cx="215.562" cy="439.709" rx="24.062" ry="8.292"/>
	<g>
		<path fill="#E5E6E5" d="M201,438.172c0,0,7.001,4.696,15,4.696s14-4.696,14-4.696V422h-29V438.172z"/>
		<path fill="#464541" d="M199.125,422c0,0,8.053,5.868,17.062,5.868c9.012,0,15.938-5.868,15.938-5.868l-16-20L199.125,422z"/>
		<g opacity="0.1">
			<path fill="#464541" d="M216.062,427.868c6.11,0,10.938-2.695,13.938-4.433v1c-3,1.737-7.827,4.433-13.938,4.433
				c-6.303,0-12.062-2.866-15.062-4.593v-1C204,425.002,209.76,427.868,216.062,427.868z"/>
		</g>
		<path fill="#333333" d="M216,434c1.657,0,3,1.343,3,3v5.649c-1,0.137-1.963,0.219-3,0.219c-1.021,0-2-0.078-3-0.212V437
			C213,435.343,214.343,434,216,434z"/>
		<path opacity="0.15" fill="#000100" d="M217.132,403.26l-6.373,23.951c-6.509-1.523-11.634-5.211-11.634-5.211l17-20
			L217.132,403.26z"/>
		<g>
			<path fill="#BCCBD4" d="M210,432.418v2c0,0-1.017-0.167-2.794-0.573l0.03-1.985C208.976,432.255,210,432.418,210,432.418z"/>
			<path fill="#BCCBD4" d="M204,432.563v-2c0,0,0.776,0.68,2.856,1.195l-0.097,1.982C204.731,433.229,204,432.563,204,432.563z"/>
			<path fill="#BCCBD4" d="M210,429.917v2c0,0-1.463-0.203-2.716-0.603l0.029-1.981C208.555,429.72,210,429.917,210,429.917z"/>
			<path fill="#BCCBD4" d="M204,430.062v-2c0,0,0.965,0.476,2.941,1.14l-0.097,1.978C204.915,430.527,204,430.062,204,430.062z"/>
		</g>
		<g>
			<path fill="#BCCBD4" d="M221,432.418v2c0,0,1.142-0.167,2.919-0.573l-0.093-1.985C222.087,432.255,221,432.418,221,432.418z"/>
			<path fill="#BCCBD4" d="M227,432.563v-2c0,0-0.651,0.68-2.731,1.195l0.034,1.982C226.331,433.229,227,432.563,227,432.563z"/>
			<path fill="#BCCBD4" d="M221,429.917v2c0,0,1.588-0.203,2.841-0.603l-0.092-1.981C222.508,429.72,221,429.917,221,429.917z"/>
			<path fill="#BCCBD4" d="M227,430.062v-2c0,0-0.84,0.476-2.816,1.14l0.034,1.978C226.147,430.527,227,430.062,227,430.062z"/>
		</g>
	</g>
</g>
<g>
	
		<radialGradient id="SVGID_22_" cx="660.6357" cy="442.501" r="18.6678" gradientTransform="matrix(-1.2445 -0.0115 -0.0063 0.4372 997.8887 256.6266)" gradientUnits="userSpaceOnUse">
		<stop  offset="0" style="stop-color:#000100;stop-opacity:0.4"/>
		<stop  offset="1" style="stop-color:#000100;stop-opacity:0"/>
	</radialGradient>
	<ellipse fill="url(#SVGID_22_)" cx="173.562" cy="442.709" rx="24.062" ry="8.292"/>
	<g>
		<path fill="#E5E6E5" d="M159,441.172c0,0,7.001,4.696,15,4.696s14-4.696,14-4.696V425h-29V441.172z"/>
		<path fill="#464541" d="M157.125,425c0,0,8.053,5.868,17.062,5.868c9.012,0,15.938-5.868,15.938-5.868l-16-20L157.125,425z"/>
		<g opacity="0.1">
			<path fill="#464541" d="M174.062,430.868c6.11,0,10.938-2.695,13.938-4.433v1c-3,1.737-7.827,4.433-13.938,4.433
				c-6.303,0-12.062-2.866-15.062-4.593v-1C162,428.002,167.76,430.868,174.062,430.868z"/>
		</g>
		<path fill="#333333" d="M174,437c1.657,0,3,1.343,3,3v5.649c-1,0.137-1.963,0.219-3,0.219c-1.021,0-2-0.078-3-0.212V440
			C171,438.343,172.343,437,174,437z"/>
		<path opacity="0.15" fill="#000100" d="M175.132,406.26l-6.373,23.951c-6.509-1.523-11.634-5.211-11.634-5.211l17-20
			L175.132,406.26z"/>
		<g>
			<path fill="#BCCBD4" d="M168,435.418v2c0,0-1.017-0.167-2.794-0.573l0.03-1.985C166.976,435.255,168,435.418,168,435.418z"/>
			<path fill="#BCCBD4" d="M162,435.563v-2c0,0,0.776,0.68,2.856,1.195l-0.097,1.982C162.731,436.229,162,435.563,162,435.563z"/>
			<path fill="#BCCBD4" d="M168,432.917v2c0,0-1.463-0.203-2.716-0.603l0.029-1.981C166.555,432.72,168,432.917,168,432.917z"/>
			<path fill="#BCCBD4" d="M162,433.062v-2c0,0,0.965,0.476,2.941,1.14l-0.097,1.978C162.915,433.527,162,433.062,162,433.062z"/>
		</g>
		<g>
			<path fill="#BCCBD4" d="M179,435.418v2c0,0,1.142-0.167,2.919-0.573l-0.093-1.985C180.087,435.255,179,435.418,179,435.418z"/>
			<path fill="#BCCBD4" d="M185,435.563v-2c0,0-0.651,0.68-2.731,1.195l0.034,1.982C184.331,436.229,185,435.563,185,435.563z"/>
			<path fill="#BCCBD4" d="M179,432.917v2c0,0,1.588-0.203,2.841-0.603l-0.092-1.981C180.508,432.72,179,432.917,179,432.917z"/>
			<path fill="#BCCBD4" d="M185,433.062v-2c0,0-0.84,0.476-2.816,1.14l0.034,1.978C184.147,433.527,185,433.062,185,433.062z"/>
		</g>
	</g>
</g>
<g>
	
		<radialGradient id="SVGID_23_" cx="634.9248" cy="466.501" r="18.6678" gradientTransform="matrix(-1.2445 -0.0115 -0.0063 0.4372 998.0412 269.8366)" gradientUnits="userSpaceOnUse">
		<stop  offset="0" style="stop-color:#000100;stop-opacity:0.4"/>
		<stop  offset="1" style="stop-color:#000100;stop-opacity:0"/>
	</radialGradient>
	<ellipse fill="url(#SVGID_23_)" cx="205.562" cy="466.709" rx="24.062" ry="8.292"/>
	<g>
		<path fill="#E5E6E5" d="M191,465.172c0,0,7.001,4.696,15,4.696s14-4.696,14-4.696V449h-29V465.172z"/>
		<path fill="#464541" d="M189.125,449c0,0,8.053,5.868,17.062,5.868c9.012,0,15.938-5.868,15.938-5.868l-16-20L189.125,449z"/>
		<g opacity="0.1">
			<path fill="#464541" d="M206.062,454.868c6.11,0,10.938-2.695,13.938-4.433v1c-3,1.737-7.827,4.433-13.938,4.433
				c-6.303,0-12.062-2.866-15.062-4.593v-1C194,452.002,199.76,454.868,206.062,454.868z"/>
		</g>
		<path fill="#333333" d="M206,461c1.657,0,3,1.343,3,3v5.649c-1,0.137-1.963,0.219-3,0.219c-1.021,0-2-0.078-3-0.212V464
			C203,462.343,204.343,461,206,461z"/>
		<path opacity="0.15" fill="#000100" d="M207.132,430.26l-6.373,23.951c-6.509-1.523-11.634-5.211-11.634-5.211l17-20
			L207.132,430.26z"/>
		<g>
			<path fill="#BCCBD4" d="M200,459.418v2c0,0-1.017-0.167-2.794-0.573l0.03-1.985C198.976,459.255,200,459.418,200,459.418z"/>
			<path fill="#BCCBD4" d="M194,459.563v-2c0,0,0.776,0.68,2.856,1.195l-0.097,1.982C194.731,460.229,194,459.563,194,459.563z"/>
			<path fill="#BCCBD4" d="M200,456.917v2c0,0-1.463-0.203-2.716-0.603l0.029-1.981C198.555,456.72,200,456.917,200,456.917z"/>
			<path fill="#BCCBD4" d="M194,457.062v-2c0,0,0.965,0.476,2.941,1.14l-0.097,1.978C194.915,457.527,194,457.062,194,457.062z"/>
		</g>
		<g>
			<path fill="#BCCBD4" d="M211,459.418v2c0,0,1.142-0.167,2.919-0.573l-0.093-1.985C212.087,459.255,211,459.418,211,459.418z"/>
			<path fill="#BCCBD4" d="M217,459.563v-2c0,0-0.651,0.68-2.731,1.195l0.034,1.982C216.331,460.229,217,459.563,217,459.563z"/>
			<path fill="#BCCBD4" d="M211,456.917v2c0,0,1.588-0.203,2.841-0.603l-0.092-1.981C212.508,456.72,211,456.917,211,456.917z"/>
			<path fill="#BCCBD4" d="M217,457.062v-2c0,0-0.84,0.476-2.816,1.14l0.034,1.978C216.147,457.527,217,457.062,217,457.062z"/>
		</g>
	</g>
</g>
<g>
	
		<radialGradient id="SVGID_24_" cx="601.1797" cy="484.501" r="18.667" gradientTransform="matrix(-1.2445 -0.0115 -0.0063 0.4372 998.1569 279.5775)" gradientUnits="userSpaceOnUse">
		<stop  offset="0" style="stop-color:#000100;stop-opacity:0.4"/>
		<stop  offset="1" style="stop-color:#000100;stop-opacity:0"/>
	</radialGradient>
	<ellipse fill="url(#SVGID_24_)" cx="247.562" cy="484.709" rx="24.062" ry="8.292"/>
	<g>
		<path fill="#E5E6E5" d="M233,483.172c0,0,7.001,4.696,15,4.696s14-4.696,14-4.696V467h-29V483.172z"/>
		<path fill="#464541" d="M231.125,467c0,0,8.053,5.868,17.062,5.868c9.012,0,15.938-5.868,15.938-5.868l-16-20L231.125,467z"/>
		<g opacity="0.1">
			<path fill="#464541" d="M248.062,472.868c6.11,0,10.938-2.695,13.938-4.433v1c-3,1.737-7.827,4.433-13.938,4.433
				c-6.303,0-12.062-2.866-15.062-4.593v-1C236,470.002,241.76,472.868,248.062,472.868z"/>
		</g>
		<path fill="#333333" d="M248,479c1.657,0,3,1.343,3,3v5.649c-1,0.137-1.963,0.219-3,0.219c-1.021,0-2-0.078-3-0.212V482
			C245,480.343,246.343,479,248,479z"/>
		<path opacity="0.15" fill="#000100" d="M249.132,448.26l-6.373,23.951c-6.509-1.523-11.634-5.211-11.634-5.211l17-20
			L249.132,448.26z"/>
		<g>
			<path fill="#BCCBD4" d="M242,477.418v2c0,0-1.017-0.167-2.794-0.573l0.03-1.985C240.976,477.255,242,477.418,242,477.418z"/>
			<path fill="#BCCBD4" d="M236,477.563v-2c0,0,0.776,0.68,2.856,1.195l-0.097,1.982C236.731,478.229,236,477.563,236,477.563z"/>
			<path fill="#BCCBD4" d="M242,474.917v2c0,0-1.463-0.203-2.716-0.603l0.029-1.981C240.555,474.72,242,474.917,242,474.917z"/>
			<path fill="#BCCBD4" d="M236,475.062v-2c0,0,0.965,0.476,2.941,1.14l-0.097,1.978C236.915,475.527,236,475.062,236,475.062z"/>
		</g>
		<g>
			<path fill="#BCCBD4" d="M253,477.418v2c0,0,1.142-0.167,2.919-0.573l-0.093-1.985C254.087,477.255,253,477.418,253,477.418z"/>
			<path fill="#BCCBD4" d="M259,477.563v-2c0,0-0.651,0.68-2.731,1.195l0.034,1.982C258.331,478.229,259,477.563,259,477.563z"/>
			<path fill="#BCCBD4" d="M253,474.917v2c0,0,1.588-0.203,2.841-0.603l-0.092-1.981C254.508,474.72,253,474.917,253,474.917z"/>
			<path fill="#BCCBD4" d="M259,475.062v-2c0,0-0.84,0.476-2.816,1.14l0.034,1.978C258.147,475.527,259,475.062,259,475.062z"/>
		</g>
	</g>
</g>
<g>
	
		<radialGradient id="SVGID_25_" cx="568.2373" cy="497.501" r="18.6678" gradientTransform="matrix(-1.2445 -0.0115 -0.0063 0.4372 998.241 286.5139)" gradientUnits="userSpaceOnUse">
		<stop  offset="0" style="stop-color:#000100;stop-opacity:0.4"/>
		<stop  offset="1" style="stop-color:#000100;stop-opacity:0"/>
	</radialGradient>
	<ellipse fill="url(#SVGID_25_)" cx="288.562" cy="497.709" rx="24.062" ry="8.292"/>
	<g>
		<path fill="#E5E6E5" d="M274,496.172c0,0,7.001,4.696,15,4.696s14-4.696,14-4.696V480h-29V496.172z"/>
		<path fill="#464541" d="M272.125,480c0,0,8.053,5.868,17.062,5.868c9.012,0,15.938-5.868,15.938-5.868l-16-20L272.125,480z"/>
		<g opacity="0.1">
			<path fill="#464541" d="M289.062,485.868c6.11,0,10.938-2.695,13.938-4.433v1c-3,1.737-7.827,4.433-13.938,4.433
				c-6.303,0-12.062-2.866-15.062-4.593v-1C277,483.002,282.76,485.868,289.062,485.868z"/>
		</g>
		<path fill="#333333" d="M289,492c1.657,0,3,1.343,3,3v5.649c-1,0.137-1.963,0.219-3,0.219c-1.021,0-2-0.078-3-0.212V495
			C286,493.343,287.343,492,289,492z"/>
		<path opacity="0.15" fill="#000100" d="M290.132,461.26l-6.373,23.951c-6.509-1.523-11.634-5.211-11.634-5.211l17-20
			L290.132,461.26z"/>
		<g>
			<path fill="#BCCBD4" d="M283,490.418v2c0,0-1.017-0.167-2.794-0.573l0.03-1.985C281.976,490.255,283,490.418,283,490.418z"/>
			<path fill="#BCCBD4" d="M277,490.563v-2c0,0,0.776,0.68,2.856,1.195l-0.097,1.982C277.731,491.229,277,490.563,277,490.563z"/>
			<path fill="#BCCBD4" d="M283,487.917v2c0,0-1.463-0.203-2.716-0.603l0.029-1.981C281.555,487.72,283,487.917,283,487.917z"/>
			<path fill="#BCCBD4" d="M277,488.062v-2c0,0,0.965,0.476,2.941,1.14l-0.097,1.978C277.915,488.527,277,488.062,277,488.062z"/>
		</g>
		<g>
			<path fill="#BCCBD4" d="M294,490.418v2c0,0,1.142-0.167,2.919-0.573l-0.093-1.985C295.087,490.255,294,490.418,294,490.418z"/>
			<path fill="#BCCBD4" d="M300,490.563v-2c0,0-0.651,0.68-2.731,1.195l0.034,1.982C299.331,491.229,300,490.563,300,490.563z"/>
			<path fill="#BCCBD4" d="M294,487.917v2c0,0,1.588-0.203,2.841-0.603l-0.092-1.981C295.508,487.72,294,487.917,294,487.917z"/>
			<path fill="#BCCBD4" d="M300,488.062v-2c0,0-0.84,0.476-2.816,1.14l0.034,1.978C299.147,488.527,300,488.062,300,488.062z"/>
		</g>
	</g>
</g>
<g>
	
		<radialGradient id="SVGID_26_" cx="531.2783" cy="497.501" r="18.667" gradientTransform="matrix(-1.2445 -0.0115 -0.0063 0.4372 998.2441 286.0883)" gradientUnits="userSpaceOnUse">
		<stop  offset="0" style="stop-color:#000100;stop-opacity:0.4"/>
		<stop  offset="1" style="stop-color:#000100;stop-opacity:0"/>
	</radialGradient>
	<ellipse fill="url(#SVGID_26_)" cx="334.562" cy="497.709" rx="24.062" ry="8.292"/>
	<g>
		<path fill="#E5E6E5" d="M320,496.172c0,0,7.001,4.696,15,4.696s14-4.696,14-4.696V480h-29V496.172z"/>
		<path fill="#464541" d="M318.125,480c0,0,8.053,5.868,17.062,5.868c9.012,0,15.938-5.868,15.938-5.868l-16-20L318.125,480z"/>
		<g opacity="0.1">
			<path fill="#464541" d="M335.062,485.868c6.11,0,10.938-2.695,13.938-4.433v1c-3,1.737-7.827,4.433-13.938,4.433
				c-6.303,0-12.062-2.866-15.062-4.593v-1C323,483.002,328.76,485.868,335.062,485.868z"/>
		</g>
		<path fill="#333333" d="M335,492c1.657,0,3,1.343,3,3v5.649c-1,0.137-1.963,0.219-3,0.219c-1.021,0-2-0.078-3-0.212V495
			C332,493.343,333.343,492,335,492z"/>
		<path opacity="0.15" fill="#000100" d="M336.132,461.26l-6.373,23.951c-6.509-1.523-11.634-5.211-11.634-5.211l17-20
			L336.132,461.26z"/>
		<g>
			<path fill="#BCCBD4" d="M329,490.418v2c0,0-1.017-0.167-2.794-0.573l0.03-1.985C327.976,490.255,329,490.418,329,490.418z"/>
			<path fill="#BCCBD4" d="M323,490.563v-2c0,0,0.776,0.68,2.856,1.195l-0.097,1.982C323.731,491.229,323,490.563,323,490.563z"/>
			<path fill="#BCCBD4" d="M329,487.917v2c0,0-1.463-0.203-2.716-0.603l0.029-1.981C327.555,487.72,329,487.917,329,487.917z"/>
			<path fill="#BCCBD4" d="M323,488.062v-2c0,0,0.965,0.476,2.941,1.14l-0.097,1.978C323.915,488.527,323,488.062,323,488.062z"/>
		</g>
		<g>
			<path fill="#BCCBD4" d="M340,490.418v2c0,0,1.142-0.167,2.919-0.573l-0.093-1.985C341.087,490.255,340,490.418,340,490.418z"/>
			<path fill="#BCCBD4" d="M346,490.563v-2c0,0-0.651,0.68-2.731,1.195l0.034,1.982C345.331,491.229,346,490.563,346,490.563z"/>
			<path fill="#BCCBD4" d="M340,487.917v2c0,0,1.588-0.203,2.841-0.603l-0.092-1.981C341.508,487.72,340,487.917,340,487.917z"/>
			<path fill="#BCCBD4" d="M346,488.062v-2c0,0-0.84,0.476-2.816,1.14l0.034,1.978C345.147,488.527,346,488.062,346,488.062z"/>
		</g>
	</g>
</g>
<g>
	<polygon fill="#B7814D" points="414,416.729 414,392 409.473,397 405.692,397 401.912,397 398,392 398,416.729 366.17,416.553 
		376.396,430 398,430 398,478 405.692,478 414,478 414,430 434.989,430 445.521,416.553 	"/>
	<polygon opacity="0.26" fill="#FFFFFF" points="406,478 398,478 398,430 376.396,430 366.17,416.553 398,416.729 398,392 
		401.912,397 406,397 	"/>
	<polygon fill="#B7814D" points="406,478 414,478 414,430 434.989,430 445.521,416.553 414,416.729 414,392 409.473,397 406,397 	
		"/>
</g>
<g>
	<g>
		<polygon fill="#8A643A" points="295,465.988 290,476 290,523 294.567,523 300,523 300,476 		"/>
		<g>
			<rect x="294" y="476" fill="#8A643A" width="6" height="47"/>
			<polygon fill="#A57E52" points="300,476 295.031,466 295,476 			"/>
			<rect x="290" y="476" fill="#8A643A" width="4" height="47"/>
			<rect x="290" y="476" opacity="0.26" fill="#FFFFFF" width="5" height="47"/>
			<polygon fill="#A57E52" points="295,476 295,465.988 290,476 			"/>
			<polygon opacity="0.26" fill="#FFFFFF" points="295,476 295,465.988 290,476 			"/>
		</g>
	</g>
	<path fill="#8A643A" d="M310,481.256c0-2.708-2.292-4.902-5-4.902c-2.707,0-5,2.194-5,4.902c0,0.048,0,41.744,0,41.744h10
		C310,523,310,481.304,310,481.256z"/>
	<path opacity="0.26" fill="#FFFFFF" d="M310,481.256c0-2.708-2.292-4.902-5-4.902c-2.707,0-5,2.194-5,4.902
		c0,0.048,0,41.744,0,41.744h10C310,523,310,481.304,310,481.256z"/>
	<path fill="#8A643A" d="M320,481.256c0-2.708-2.293-4.902-5-4.902c-2.708,0-5,2.194-5,4.902c0,0.048,0,41.744,0,41.744h10
		C320,523,320,481.304,320,481.256z"/>
	<path fill="#8A643A" d="M330,481.256c0-2.708-2.292-4.902-5-4.902s-5,2.194-5,4.902c0,0.048,0,41.744,0,41.744h10
		C330,523,330,481.304,330,481.256z"/>
	<path opacity="0.26" fill="#FFFFFF" d="M330,481.256c0-2.708-2.292-4.902-5-4.902s-5,2.194-5,4.902c0,0.048,0,41.744,0,41.744h10
		C330,523,330,481.304,330,481.256z"/>
	<path fill="#8A643A" d="M339,481.256c0-2.708-1.793-4.902-4.5-4.902s-4.5,2.194-4.5,4.902c0,0.048,0,41.744,0,41.744h9
		C339,523,339,481.304,339,481.256z"/>
	<path fill="#8A643A" d="M349,481.256c0-2.708-2.292-4.902-5-4.902s-5,2.194-5,4.902c0,0.048,0,41.744,0,41.744h10
		C349,523,349,481.304,349,481.256z"/>
	<path opacity="0.26" fill="#FFFFFF" d="M349,481.256c0-2.708-2.292-4.902-5-4.902s-5,2.194-5,4.902c0,0.048,0,41.744,0,41.744h10
		C349,523,349,481.304,349,481.256z"/>
	<path fill="#8A643A" d="M359,481.059c0-2.708-2.292-4.805-5-4.805c-2.707,0-5,2.294-5,5.002c0,0.048,0,41.744,0,41.744h10v-42
		h-0.008C358.994,481,359,481.105,359,481.059z"/>
</g>
<g>
	<g>
		<polygon fill="#8A643A" points="192,434.659 183,430.794 183,476.814 192,480.679 		"/>
		<polygon fill="#A57E52" points="187.5,423.417 183,430.794 192,434.659 		"/>
		<polygon opacity="0.26" fill="#FFFFFF" points="183,430.794 183,476.814 187.477,478.736 187.5,423.417 		"/>
	</g>
	<path fill="#8A643A" d="M237,458.897c0-2.66-2.105-8.534-4.5-8.534s-4.5,2.253-4.5,4.914c0,0.047,0,40.858,0,40.858l9,3.864
		C237,458.944,237,458.944,237,458.897z"/>
	<path fill="#8A643A" d="M228,455.033c0-2.66-2.105-8.533-4.5-8.533s-4.5,2.252-4.5,4.913c0,0.047,0,40.858,0,40.858l9,3.864
		C228,455.08,228,455.08,228,455.033z"/>
	<path fill="#8A643A" d="M219,451.169c0-2.661-2.105-8.533-4.5-8.533s-4.5,2.252-4.5,4.913c0,0.047,0,40.858,0,40.858l9,3.864
		C219,451.216,219,451.216,219,451.169z"/>
	<path fill="#8A643A" d="M210,447.305c0-2.661-1.605-8.533-4-8.533s-4,2.252-4,4.913c0,0.047,0,40.857,0,40.857l8,3.865
		C210,447.352,210,447.352,210,447.305z"/>
	<path fill="#8A643A" d="M202,443.441c0-2.661-2.605-8.534-5-8.534s-5,2.252-5,4.913c0,0.047,0,40.858,0,40.858l10,3.863
		C202,443.486,202,443.486,202,443.441z"/>
	<path opacity="0.26" fill="#FFFFFF" d="M237,458.897c0-2.66-2.105-8.534-4.5-8.534s-4.5,2.253-4.5,4.914c0,0.047,0,40.858,0,40.858
		l9,3.864C237,458.944,237,458.944,237,458.897z"/>
	<path opacity="0.26" fill="#FFFFFF" d="M219,451.169c0-2.661-2.105-8.533-4.5-8.533s-4.5,2.252-4.5,4.913
		c0,0.047,0,40.858,0,40.858l9,3.864C219,451.216,219,451.216,219,451.169z"/>
	<path opacity="0.26" fill="#FFFFFF" d="M202,443.441c0-2.661-2.605-8.534-5-8.534s-5,2.252-5,4.913c0,0.047,0,40.858,0,40.858
		l10,3.863C202,443.486,202,443.486,202,443.441z"/>
</g>
<g>
	<g>
		<polygon fill="#8A643A" points="471,466 465,476 465,523 470.941,523 477,523 477,476 		"/>
		<g>
			<rect x="471" y="476" fill="#8A643A" width="6" height="47"/>
			<polygon fill="#A57E52" points="477,476 471,466 471,476 			"/>
			<rect x="465" y="476" fill="#8A643A" width="6" height="47"/>
			<rect x="465" y="476" opacity="0.26" fill="#FFFFFF" width="6" height="47"/>
			<polygon fill="#A57E52" points="471,476 471,466 465,476 			"/>
			<polygon opacity="0.26" fill="#FFFFFF" points="471,476 471,466 465,476 			"/>
		</g>
	</g>
	<g>
		<polygon fill="#8A643A" points="365,466 359,476 359,523 364.941,523 371,523 371,476 		"/>
		<g>
			<rect x="365" y="476" fill="#8A643A" width="6" height="47"/>
			<polygon fill="#A57E52" points="371,476 365,466 365,476 			"/>
			<rect x="359" y="476" fill="#8A643A" width="6" height="47"/>
			<rect x="359" y="476" opacity="0.26" fill="#FFFFFF" width="6" height="47"/>
			<polygon fill="#A57E52" points="365,476 365,466 359,476 			"/>
			<polygon opacity="0.26" fill="#FFFFFF" points="365,476 365,466 359,476 			"/>
		</g>
	</g>
	<g>
		<g>
			<path fill="#8A643A" d="M418,486.298c-27,0-47-10.01-47-10.01V523h47V486.298z"/>
			<path opacity="0.26" fill="#FFFFFF" d="M418,486.298c-27,0-47-10.01-47-10.01V523h47V486.298z"/>
			<path fill="#8A643A" d="M405.967,506c0,2.304-1.072,4-2.396,4h-18.368c-1.323,0-2.396-1.696-2.396-4l0,0c0-2.304,1.072-4,2.396-4
				h18.368C404.895,502,405.967,503.696,405.967,506L405.967,506z"/>
		</g>
		<g>
			<path fill="#8A643A" d="M418,486.298c27,0,47-10.01,47-10.01V523h-47V486.298z"/>
			<path opacity="0.26" fill="#FFFFFF" d="M453.418,506c0,2.304-1.072,4-2.396,4h-18.369c-1.323,0-2.396-1.696-2.396-4l0,0
				c0-2.304,1.072-4,2.396-4h18.369C452.346,502,453.418,503.696,453.418,506L453.418,506z"/>
		</g>
	</g>
</g>
<g>
	<g>
		<polygon fill="#8A643A" points="136,408.815 127,404.782 127,452.806 136,456.838 		"/>
		<polygon fill="#A57E52" points="131.346,397.084 127,404.782 136.042,408.815 		"/>
		<polygon opacity="0.26" fill="#FFFFFF" points="136,408.815 136,456.838 130.803,454.598 131.314,397.084 		"/>
	</g>
	<path fill="#8A643A" d="M183,434.108c0-2.775-2.001-8.905-4.5-8.905c-2.498,0-4.5,2.351-4.5,5.128c0,0.049,0,42.637,0,42.637
		l9,4.032C183,434.157,183,434.157,183,434.108z"/>
	<path fill="#8A643A" d="M174,430.076c0-2.776-2.501-8.904-5-8.904s-5,2.35-5,5.127c0,0.049,0,42.637,0,42.637l10,4.032
		C174,430.125,174,430.125,174,430.076z"/>
	<path fill="#8A643A" d="M164,426.044c0-2.777-2.001-8.905-4.5-8.905s-4.5,2.351-4.5,5.127c0,0.05,0,42.637,0,42.637l9,4.033
		C164,426.093,164,426.093,164,426.044z"/>
	<path fill="#8A643A" d="M155,422.012c0-2.777-2.001-8.905-4.5-8.905s-4.5,2.351-4.5,5.127c0,0.049,0,42.636,0,42.636l9,4.033
		C155,422.061,155,422.061,155,422.012z"/>
	<path opacity="0.26" fill="#FFFFFF" d="M174,430.076c0-2.776-2.501-8.904-5-8.904s-5,2.35-5,5.127c0,0.049,0,42.637,0,42.637
		l10,4.032C174,430.125,174,430.125,174,430.076z"/>
	<path opacity="0.26" fill="#FFFFFF" d="M155,422.012c0-2.777-2.001-8.905-4.5-8.905s-4.5,2.351-4.5,5.127
		c0,0.049,0,42.636,0,42.636l9,4.033C155,422.061,155,422.061,155,422.012z"/>
	<path fill="#8A643A" d="M146,417.979c0-2.776-2.501-8.905-5-8.905s-5,2.35-5,5.127c0,0.049,0,42.637,0,42.637l10,4.031
		C146,418.026,146,418.026,146,417.979z"/>
</g>
<g>
	<g>
		<polygon fill="#8A643A" points="245,457.659 236,453.794 236,499.814 245,503.679 		"/>
		<polygon fill="#A57E52" points="240.5,446.417 236,453.794 245,457.659 		"/>
		<polygon opacity="0.26" fill="#FFFFFF" points="245,457.659 245,503.679 240,501.532 240.5,446.417 		"/>
	</g>
	<path fill="#8A643A" d="M290,481.897c0-2.66-2.105-8.534-4.5-8.534s-4.5,2.253-4.5,4.914c0,0.047,0,40.858,0,40.858l9,3.864
		C290,481.944,290,481.944,290,481.897z"/>
	<path fill="#8A643A" d="M281,478.033c0-2.66-2.105-8.533-4.5-8.533s-4.5,2.252-4.5,4.913c0,0.047,0,40.858,0,40.858l9,3.864
		C281,478.08,281,478.08,281,478.033z"/>
	<path fill="#8A643A" d="M272,474.169c0-2.661-2.105-8.533-4.5-8.533s-4.5,2.252-4.5,4.913c0,0.047,0,40.858,0,40.858l9,3.864
		C272,474.216,272,474.216,272,474.169z"/>
	<path fill="#8A643A" d="M263,470.305c0-2.661-1.605-8.533-4-8.533s-4,2.252-4,4.913c0,0.047,0,40.857,0,40.857l8,3.865
		C263,470.352,263,470.352,263,470.305z"/>
	<path opacity="0.26" fill="#FFFFFF" d="M281,478.033c0-2.66-2.105-8.533-4.5-8.533s-4.5,2.252-4.5,4.913c0,0.047,0,40.858,0,40.858
		l9,3.864C281,478.08,281,478.08,281,478.033z"/>
	<path opacity="0.26" fill="#FFFFFF" d="M263,470.305c0-2.661-1.605-8.533-4-8.533s-4,2.252-4,4.913c0,0.047,0,40.857,0,40.857
		l8,3.865C263,470.352,263,470.352,263,470.305z"/>
	<path fill="#8A643A" d="M255,466.441c0-2.661-2.605-8.534-5-8.534s-5,2.252-5,4.913c0,0.047,0,40.858,0,40.858l10,3.863
		C255,466.486,255,466.486,255,466.441z"/>
</g>
<g>
	<g>
		<polygon fill="#8A643A" points="541,465.988 546,476 546,523 541.433,523 536,523 536,476 		"/>
		<g>
			<rect x="536" y="476" fill="#8A643A" width="6" height="47"/>
			<polygon fill="#A57E52" points="536,476 540.969,466 541,476 			"/>
			<rect x="542" y="476" fill="#8A643A" width="4" height="47"/>
			<rect x="541" y="476" opacity="0.26" fill="#FFFFFF" width="5" height="47"/>
			<polygon fill="#A57E52" points="541,476 541,465.988 546,476 			"/>
			<polygon opacity="0.26" fill="#FFFFFF" points="541,476 541,465.988 546,476 			"/>
		</g>
	</g>
	<path fill="#8A643A" d="M526,481.256c0-2.708,2.292-4.902,5-4.902c2.707,0,5,2.194,5,4.902c0,0.048,0,41.744,0,41.744h-10
		C526,523,526,481.304,526,481.256z"/>
	<path opacity="0.26" fill="#FFFFFF" d="M526,481.256c0-2.708,2.292-4.902,5-4.902c2.707,0,5,2.194,5,4.902
		c0,0.048,0,41.744,0,41.744h-10C526,523,526,481.304,526,481.256z"/>
	<path fill="#8A643A" d="M516,481.256c0-2.708,2.293-4.902,5-4.902c2.708,0,5,2.194,5,4.902c0,0.048,0,41.744,0,41.744h-10
		C516,523,516,481.304,516,481.256z"/>
	<path fill="#8A643A" d="M506,481.256c0-2.708,2.292-4.902,5-4.902s5,2.194,5,4.902c0,0.048,0,41.744,0,41.744h-10
		C506,523,506,481.304,506,481.256z"/>
	<path opacity="0.26" fill="#FFFFFF" d="M506,481.256c0-2.708,2.292-4.902,5-4.902s5,2.194,5,4.902c0,0.048,0,41.744,0,41.744h-10
		C506,523,506,481.304,506,481.256z"/>
	<path fill="#8A643A" d="M497,481.256c0-2.708,1.793-4.902,4.5-4.902s4.5,2.194,4.5,4.902c0,0.048,0,41.744,0,41.744h-9
		C497,523,497,481.304,497,481.256z"/>
	<path fill="#8A643A" d="M487,481.256c0-2.708,2.292-4.902,5-4.902s5,2.194,5,4.902c0,0.048,0,41.744,0,41.744h-10
		C487,523,487,481.304,487,481.256z"/>
	<path opacity="0.26" fill="#FFFFFF" d="M487,481.256c0-2.708,2.292-4.902,5-4.902s5,2.194,5,4.902c0,0.048,0,41.744,0,41.744h-10
		C487,523,487,481.304,487,481.256z"/>
	<path fill="#8A643A" d="M477,481.059c0-2.708,2.292-4.805,5-4.805c2.707,0,5,2.294,5,5.002c0,0.048,0,41.744,0,41.744h-10v-42
		h0.008C477.006,481,477,481.105,477,481.059z"/>
</g>
<g>
	<g>
		<polygon fill="#8A643A" points="644,434.659 653,430.794 653,476.814 644,480.679 		"/>
		<polygon fill="#A57E52" points="648.5,423.417 653,430.794 644,434.659 		"/>
		<polygon opacity="0.26" fill="#FFFFFF" points="653,430.794 653,476.814 648.523,478.736 648.5,423.417 		"/>
	</g>
	<path fill="#8A643A" d="M599,458.897c0-2.66,2.105-8.534,4.5-8.534s4.5,2.253,4.5,4.914c0,0.047,0,40.858,0,40.858L599,500
		C599,458.944,599,458.944,599,458.897z"/>
	<path fill="#8A643A" d="M608,455.033c0-2.66,2.105-8.533,4.5-8.533s4.5,2.252,4.5,4.913c0,0.047,0,40.858,0,40.858l-9,3.864
		C608,455.08,608,455.08,608,455.033z"/>
	<path fill="#8A643A" d="M617,451.169c0-2.661,2.105-8.533,4.5-8.533s4.5,2.252,4.5,4.913c0,0.047,0,40.858,0,40.858l-9,3.864
		C617,451.216,617,451.216,617,451.169z"/>
	<path fill="#8A643A" d="M626,447.305c0-2.661,1.605-8.533,4-8.533s4,2.252,4,4.913c0,0.047,0,40.857,0,40.857l-8,3.865
		C626,447.352,626,447.352,626,447.305z"/>
	<path fill="#8A643A" d="M634,443.441c0-2.661,2.605-8.534,5-8.534s5,2.252,5,4.913c0,0.047,0,40.858,0,40.858l-10,3.863
		C634,443.486,634,443.486,634,443.441z"/>
	<path opacity="0.26" fill="#FFFFFF" d="M599,458.897c0-2.66,2.105-8.534,4.5-8.534s4.5,2.253,4.5,4.914c0,0.047,0,40.858,0,40.858
		L599,500C599,458.944,599,458.944,599,458.897z"/>
	<path opacity="0.26" fill="#FFFFFF" d="M617,451.169c0-2.661,2.105-8.533,4.5-8.533s4.5,2.252,4.5,4.913c0,0.047,0,40.858,0,40.858
		l-9,3.864C617,451.216,617,451.216,617,451.169z"/>
	<path opacity="0.26" fill="#FFFFFF" d="M634,443.441c0-2.661,2.605-8.534,5-8.534s5,2.252,5,4.913c0,0.047,0,40.858,0,40.858
		l-10,3.863C634,443.486,634,443.486,634,443.441z"/>
</g>
<g>
	<polygon fill="#8A643A" points="738,392.815 747,388.782 747,436.806 738,440.838 	"/>
	<polygon fill="#A57E52" points="742.654,381.084 747,388.782 737.959,392.815 	"/>
	<polygon opacity="0.26" fill="#FFFFFF" points="738,392.815 738,440.838 743.197,438.598 742.686,381.084 	"/>
</g>
<path fill="#8A643A" d="M653,434.108c0-2.775,2.001-8.905,4.5-8.905c2.498,0,4.5,2.351,4.5,5.128c0,0.049,0,42.637,0,42.637L653,477
	C653,434.157,653,434.157,653,434.108z"/>
<path fill="#8A643A" d="M662,430.076c0-2.776,2.502-8.904,5-8.904s5,2.35,5,5.127c0,0.049,0,42.637,0,42.637l-10,4.032
	C662,430.125,662,430.125,662,430.076z"/>
<path fill="#8A643A" d="M672,426.044c0-2.777,2.001-8.905,4.5-8.905s4.5,2.351,4.5,5.127c0,0.05,0,42.637,0,42.637l-9,4.033
	C672,426.093,672,426.093,672,426.044z"/>
<path fill="#8A643A" d="M681,422.012c0-2.777,2.001-8.905,4.5-8.905s4.5,2.351,4.5,5.127c0,0.049,0,42.636,0,42.636l-9,4.033
	C681,422.061,681,422.061,681,422.012z"/>
<path opacity="0.26" fill="#FFFFFF" d="M662,430.076c0-2.776,2.502-8.904,5-8.904s5,2.35,5,5.127c0,0.049,0,42.637,0,42.637
	l-10,4.032C662,430.125,662,430.125,662,430.076z"/>
<path opacity="0.26" fill="#FFFFFF" d="M681,422.012c0-2.777,2.001-8.905,4.5-8.905s4.5,2.351,4.5,5.127c0,0.049,0,42.636,0,42.636
	l-9,4.033C681,422.061,681,422.061,681,422.012z"/>
<path fill="#8A643A" d="M690,417.979c0-2.776,2.501-8.905,5-8.905s5,2.35,5,5.127c0,0.049,0,42.637,0,42.637l-10,4.031
	C690,418.026,690,418.026,690,417.979z"/>
<g>
	<path fill="#8A643A" d="M700,414.076c0-2.776,2.502-8.904,5-8.904s5,2.35,5,5.127c0,0.049,0,42.637,0,42.637l-10,4.032
		C700,414.125,700,414.125,700,414.076z"/>
	<path fill="#8A643A" d="M710,410.044c0-2.777,2.001-8.905,4.5-8.905s4.5,2.351,4.5,5.127c0,0.05,0,42.637,0,42.637l-9,4.033
		C710,410.093,710,410.093,710,410.044z"/>
	<path fill="#8A643A" d="M719,406.012c0-2.777,2.001-8.905,4.5-8.905s4.5,2.351,4.5,5.127c0,0.049,0,42.636,0,42.636l-9,4.033
		C719,406.061,719,406.061,719,406.012z"/>
	<path opacity="0.26" fill="#FFFFFF" d="M700,414.076c0-2.776,2.502-8.904,5-8.904s5,2.35,5,5.127c0,0.049,0,42.637,0,42.637
		l-10,4.032C700,414.125,700,414.125,700,414.076z"/>
	<path opacity="0.26" fill="#FFFFFF" d="M719,406.012c0-2.777,2.001-8.905,4.5-8.905s4.5,2.351,4.5,5.127c0,0.049,0,42.636,0,42.636
		l-9,4.033C719,406.061,719,406.061,719,406.012z"/>
	<path fill="#8A643A" d="M728,401.979c0-2.776,2.501-8.905,5-8.905s5,2.35,5,5.127c0,0.049,0,42.637,0,42.637l-10,4.031
		C728,402.026,728,402.026,728,401.979z"/>
</g>
<g>
	<g>
		<polygon fill="#8A643A" points="591,457.659 600,453.794 600,499.814 591,503.679 		"/>
		<polygon fill="#A57E52" points="595.5,446.417 600,453.794 591,457.659 		"/>
		<polygon opacity="0.26" fill="#FFFFFF" points="591,457.659 591,503.679 596,501.532 595.5,446.417 		"/>
	</g>
	<path fill="#8A643A" d="M546,481.897c0-2.66,2.105-8.534,4.5-8.534s4.5,2.253,4.5,4.914c0,0.047,0,40.858,0,40.858L546,523
		C546,481.944,546,481.944,546,481.897z"/>
	<path fill="#8A643A" d="M555,478.033c0-2.66,2.105-8.533,4.5-8.533s4.5,2.252,4.5,4.913c0,0.047,0,40.858,0,40.858l-9,3.864
		C555,478.08,555,478.08,555,478.033z"/>
	<path fill="#8A643A" d="M564,474.169c0-2.661,2.105-8.533,4.5-8.533s4.5,2.252,4.5,4.913c0,0.047,0,40.858,0,40.858l-9,3.864
		C564,474.216,564,474.216,564,474.169z"/>
	<path fill="#8A643A" d="M573,470.305c0-2.661,1.605-8.533,4-8.533s4,2.252,4,4.913c0,0.047,0,40.857,0,40.857l-8,3.865
		C573,470.352,573,470.352,573,470.305z"/>
	<path opacity="0.26" fill="#FFFFFF" d="M555,478.033c0-2.66,2.105-8.533,4.5-8.533s4.5,2.252,4.5,4.913c0,0.047,0,40.858,0,40.858
		l-9,3.864C555,478.08,555,478.08,555,478.033z"/>
	<path opacity="0.26" fill="#FFFFFF" d="M573,470.305c0-2.661,1.605-8.533,4-8.533s4,2.252,4,4.913c0,0.047,0,40.857,0,40.857
		l-8,3.865C573,470.352,573,470.352,573,470.305z"/>
	<path fill="#8A643A" d="M581,466.441c0-2.661,2.605-8.534,5-8.534s5,2.252,5,4.913c0,0.047,0,40.858,0,40.858l-10,3.863
		C581,466.486,581,466.486,581,466.441z"/>
</g>
<polygon fill="#6EC6E3" points="1,601 678.229,541 801,601 "/>
</svg>
