<?xml version="1.0" encoding="utf-8"?>
<!-- Generator: Adobe Illustrator 15.1.0, SVG Export Plug-In . SVG Version: 6.00 Build 0)  -->
<!DOCTYPE svg PUBLIC "-//W3C//DTD SVG 1.1//EN" "http://www.w3.org/Graphics/SVG/1.1/DTD/svg11.dtd">
<svg version="1.1" id="Calque_1" xmlns="http://www.w3.org/2000/svg" xmlns:xlink="http://www.w3.org/1999/xlink" x="0px" y="0px"
	 width="800px" height="600px" viewBox="0 0 800 600" enable-background="new 0 0 800 600" xml:space="preserve">
<rect x="0.254" fill="#00557C" width="800" height="600"/>
<rect x="282.576" fill="#147DA5" width="235.354" height="354.571"/>
<polygon fill="#186D94" points="528.197,380.783 272.311,380.783 282.576,354.571 517.931,354.571 "/>
<path fill="#00557C" d="M428.712,304.551l-13.492-78.646c7.799-4.958,12.979-13.668,12.979-23.595
	c0-15.435-12.512-27.947-27.945-27.947c-15.435,0-27.946,12.512-27.946,27.947c0,9.926,5.18,18.637,12.979,23.594l-13.491,78.647
	H428.712z"/>
<polygon fill="#3285A6" points="272.311,0 272.311,354.571 272.311,380.783 282.576,354.571 282.576,0 "/>
<polygon fill="#3285A6" points="528.196,0 528.196,354.571 528.196,380.783 517.931,354.571 517.931,0 "/>
<ellipse fill="#5FBAED" cx="400.253" cy="88" rx="63.838" ry="53.07"/>
<path fill="#B77E68" d="M462.622,99.315c-63.973,63.551-123.73,1.064-124.737,0.001c6.238,23.871,31.785,41.753,62.369,41.753
	C430.837,141.07,456.384,123.187,462.622,99.315z"/>
<path fill="#3399CC" d="M462.622,99.315c-63.973,63.551-123.73,1.064-124.737,0.001c6.238,23.871,31.785,41.753,62.369,41.753
	C430.837,141.07,456.384,123.187,462.622,99.315z"/>
<path fill="#71CBF1" d="M461.375,72.667c-7.915-21.833-32.279-37.737-61.121-37.737c-28.843,0-53.206,15.904-61.122,37.736
	C339.489,72.544,394.033,35.181,461.375,72.667z"/>
<polygon fill="#186D94" points="175.521,168.097 0.254,168.097 0.254,106.6 198.243,106.6 "/>
<polygon fill="#147DA5" points="175.521,45.103 0.254,45.103 0.254,106.6 198.243,106.6 "/>
<polygon fill="#186D94" points="624.987,168.097 800.254,168.097 800.254,106.6 602.265,106.6 "/>
<polygon fill="#147DA5" points="624.987,45.103 800.254,45.103 800.254,106.6 602.265,106.6 "/>
<polygon fill="#186D94" points="175.521,468.08 0.254,468.08 0.254,406.583 198.243,406.583 "/>
<polygon fill="#147DA5" points="175.521,345.086 0.254,345.086 0.254,406.583 198.243,406.583 "/>
<polygon fill="#186D94" points="624.987,468.08 800.254,468.08 800.254,406.583 602.265,406.583 "/>
<polygon fill="#147DA5" points="624.987,345.086 800.254,345.086 800.254,406.583 602.265,406.583 "/>
</svg>
