<?xml version="1.0" encoding="utf-8"?>
<!-- Generator: Adobe Illustrator 15.1.0, SVG Export Plug-In . SVG Version: 6.00 Build 0)  -->
<!DOCTYPE svg PUBLIC "-//W3C//DTD SVG 1.1//EN" "http://www.w3.org/Graphics/SVG/1.1/DTD/svg11.dtd">
<svg version="1.1" id="Calque_1" xmlns="http://www.w3.org/2000/svg" xmlns:xlink="http://www.w3.org/1999/xlink" x="0px" y="0px"
	 width="800px" height="202px" viewBox="0 0 800 202" enable-background="new 0 0 800 202" xml:space="preserve">
<path fill="#00557C" d="M0,0v202h372.062c0.167-15.292,12.608-27.637,27.938-27.637c15.33,0,27.771,12.345,27.938,27.637H800V0H0z"
	/>
<path fill="#147DA5" d="M282,0v202h90.062c0.167-15.292,12.608-27.637,27.938-27.637c15.33,0,27.771,12.345,27.938,27.637H518V0H282
	z"/>
<polygon fill="#3285A6" points="272.057,0 271.921,202 282.322,202 282.322,0 "/>
<polygon fill="#3285A6" points="527.942,0 527.808,202 517.677,202 517.677,0 "/>
<ellipse fill="#5FBAED" cx="400" cy="88" rx="63.838" ry="53.07"/>
<path fill="#B77E68" d="M462.368,99.315c-63.973,63.551-123.73,1.064-124.737,0.001c6.238,23.871,31.785,41.753,62.369,41.753
	C430.583,141.07,456.13,123.187,462.368,99.315z"/>
<path fill="#3399CC" d="M462.368,99.315c-63.973,63.551-123.73,1.064-124.737,0.001c6.238,23.871,31.785,41.753,62.369,41.753
	C430.583,141.07,456.13,123.187,462.368,99.315z"/>
<path fill="#71CBF1" d="M461.121,72.667C453.206,50.834,428.842,34.93,400,34.93c-28.843,0-53.206,15.904-61.122,37.736
	C339.235,72.544,393.779,35.181,461.121,72.667z"/>
<polygon fill="#186D94" points="175.267,168.097 0,168.097 0,106.6 197.989,106.6 "/>
<polygon fill="#147DA5" points="175.267,45.103 0,45.103 0,106.6 197.989,106.6 "/>
<polygon fill="#186D94" points="624.733,168.097 800,168.097 800,106.6 602.011,106.6 "/>
<polygon fill="#147DA5" points="624.733,45.103 800,45.103 800,106.6 602.011,106.6 "/>
</svg>
