<?xml version="1.0" encoding="utf-8"?>
<!-- Generator: Adobe Illustrator 15.1.0, SVG Export Plug-In . SVG Version: 6.00 Build 0)  -->
<!DOCTYPE svg PUBLIC "-//W3C//DTD SVG 1.1//EN" "http://www.w3.org/Graphics/SVG/1.1/DTD/svg11.dtd">
<svg version="1.1" id="Calque_1" xmlns="http://www.w3.org/2000/svg" xmlns:xlink="http://www.w3.org/1999/xlink" x="0px" y="0px"
	 width="537.747px" height="792.737px" viewBox="0 0 537.747 792.737" enable-background="new 0 0 537.747 792.737"
	 xml:space="preserve">
<rect x="440.132" y="-11.058" transform="matrix(0.9497 0.313 -0.313 0.9497 102.3002 -127.2733)" fill="#BBE5F3" width="14.734" height="531.999"/>
<path fill="#91C9E8" d="M214.835,792.737l162.189-245.838l51.936-44.469c0,0,35.949-35.443,40.913-48.855
	c4.964-13.413,3.832-48.873,3.832-48.873s5.272-23.282,9.552-41.157c4.28-17.876,8.962-19.096,13.43-30.279
	c4.467-11.184,11.499-55.967,9.189-61.813c-2.311-5.846-7.021-12.014-14.466-13.563c-7.444-1.549-18.847,6.661-22.016,9.515
	c-3.169,2.854-22.177,24.164-27.094,34.429c-4.916,10.265-14.981,49.963-14.981,49.963l-8.136,45.487c0,0-11.079-1.434-10.323-9.089
	c0.756-7.654,4.077-41.284,4.077-41.284l14.703-80.418c0,0,8.165-38.456,6.219-46.455c-1.945-7.999-22.783-15.478-33.405-13.013
	s-20.517,20.414-24.605,33.686s-6.255,42.072-6.255,42.072s-4.149-4.463-9.95-3.978s-30.961,25.232-33.24,31.207
	c-2.279,5.974-1.199,8.062-1.199,8.062s-2.538-3.17-9.406-1.398c-6.868,1.771-24.773,16.76-28.083,22.607
	c-3.309,5.848-2.896,19.483-2.896,19.483s-13.582-2.111-19.495,1.391c-5.913,3.503-10.145,16.098-10.145,16.098
	s-17.129,13.211-20.137,19.841s-4.842,24.791-5.98,37.475c-1.14,12.685,1.896,38.052,1.896,38.052l0.562,19.312L0,756.52
	L214.835,792.737z"/>
<polygon fill="#B4DCED" points="207.195,509.396 365.312,574.689 248.93,751.204 60.221,675.4 "/>
</svg>
