<?xml version="1.0" encoding="utf-8"?>
<!-- Generator: Adobe Illustrator 15.1.0, SVG Export Plug-In . SVG Version: 6.00 Build 0)  -->
<!DOCTYPE svg PUBLIC "-//W3C//DTD SVG 1.1//EN" "http://www.w3.org/Graphics/SVG/1.1/DTD/svg11.dtd">
<svg version="1.1" xmlns="http://www.w3.org/2000/svg" xmlns:xlink="http://www.w3.org/1999/xlink" x="0px" y="0px" width="800px"
	 height="600px" viewBox="0 0 800 600" enable-background="new 0 0 800 600" xml:space="preserve">
<g id="Calque_1">
	<rect x="0.237" fill="#00557C" width="800" height="600"/>
	<rect x="282.56" fill="#147DA5" width="235.354" height="354.571"/>
	<polygon fill="#186D94" points="528.181,380.783 272.294,380.783 282.56,354.571 517.914,354.571 	"/>
	<path fill="#00557C" d="M428.695,304.551l-13.492-78.646c7.799-4.958,12.979-13.668,12.979-23.595
		c0-15.435-12.512-27.947-27.945-27.947c-15.435,0-27.946,12.512-27.946,27.947c0,9.926,5.18,18.637,12.979,23.594l-13.491,78.647
		H428.695z"/>
	<polygon fill="#3285A6" points="272.294,0 272.294,354.571 272.294,380.783 282.56,354.571 282.56,0 	"/>
	<polygon fill="#3285A6" points="528.18,0 528.18,354.571 528.18,380.783 517.914,354.571 517.914,0 	"/>
	<ellipse fill="#5FBAED" cx="400.237" cy="88" rx="63.838" ry="53.07"/>
	<path fill="#B77E68" d="M462.605,99.315c-63.973,63.551-123.73,1.064-124.737,0.001c6.238,23.871,31.785,41.753,62.369,41.753
		C430.82,141.07,456.367,123.187,462.605,99.315z"/>
	<path fill="#3399CC" d="M462.605,99.315c-63.973,63.551-123.73,1.064-124.737,0.001c6.238,23.871,31.785,41.753,62.369,41.753
		C430.82,141.07,456.367,123.187,462.605,99.315z"/>
	<path fill="#71CBF1" d="M461.358,72.667c-7.915-21.833-32.279-37.737-61.121-37.737c-28.843,0-53.206,15.904-61.122,37.736
		C339.473,72.544,394.017,35.181,461.358,72.667z"/>
	<polygon fill="#BBE5F3" points="495.711,602.666 393.248,272.899 407.317,268.527 511.034,602.33 	"/>
	<polygon fill="#BBE5F3" points="258.436,600 386.125,212.519 400.117,217.129 273.948,600 	"/>
	<path fill="#91C9E8" d="M428.886,600c-3.909-17.27-7.597-46.442-5.668-51.185c2.368-5.822,7.139-11.943,14.599-13.419
		s18.78,6.847,21.921,9.732c3.141,2.885,21.936,24.382,26.75,34.695c1.919,4.11,4.097,11.084,6.639,20.176
		c3.836,13.719,8.372-55.368,8.372-55.368s-7.782-38.536-5.757-46.516c2.024-7.979,22.935-15.25,33.532-12.68
		c10.597,2.57,20.314,20.616,24.271,33.928c3.957,13.312,5.837,42.133,5.837,42.133s4.193-4.421,9.988-3.879
		c5.797,0.543,30.709,25.539,32.93,31.535c2.219,5.997,1.119,8.074,1.119,8.074s2.569-3.146,9.42-1.306
		c2.213,0.594,5.774,1.465,9.406,4.078C629.855,605.476,429.776,603.934,428.886,600z"/>
	<path fill="#91C9E8" d="M339.415,602.609c1.828-7.939,4.137-17.879,6.212-26.546c4.28-17.876,8.962-19.096,13.43-30.279
		c4.467-11.184,11.499-55.967,9.189-61.813c-2.311-5.846-7.021-12.014-14.466-13.563c-7.444-1.549-18.847,6.661-22.016,9.515
		c-3.169,2.854-22.177,24.164-27.094,34.429c-4.916,10.265-14.981,49.963-14.981,49.963L283.308,600h-12.007
		c0.756-7.654,4.007-40.572,4.007-40.572l14.703-80.418c0,0,8.165-38.456,6.219-46.455c-1.945-7.999-22.783-15.478-33.405-13.013
		s-20.517,20.414-24.605,33.686s-6.255,42.072-6.255,42.072s-4.149-4.463-9.95-3.978s-30.961,25.232-33.24,31.207
		c-2.279,5.974-1.199,8.062-1.199,8.062s-2.538-3.17-9.406-1.398c-6.868,1.771-24.773,16.76-28.083,22.607
		c-3.309,5.848-2.896,19.483-2.896,19.483s-13.582-2.111-19.495,1.391c-5.913,3.503-10.145,16.098-10.145,16.098
		s-8.888,4.922-14.982,11.229C100.191,602.457,337.474,611.043,339.415,602.609z"/>
	<polygon fill="#186D94" points="175.504,168.097 0.237,168.097 0.237,106.6 198.227,106.6 	"/>
	<polygon fill="#147DA5" points="175.504,45.103 0.237,45.103 0.237,106.6 198.227,106.6 	"/>
	<polygon fill="#186D94" points="624.971,168.097 800.237,168.097 800.237,106.6 602.248,106.6 	"/>
	<polygon fill="#147DA5" points="624.971,45.103 800.237,45.103 800.237,106.6 602.248,106.6 	"/>
	<polygon fill="#186D94" points="175.504,468.08 0.237,468.08 0.237,406.583 198.227,406.583 	"/>
	<polygon fill="#147DA5" points="175.504,345.086 0.237,345.086 0.237,406.583 198.227,406.583 	"/>
	<polygon fill="#186D94" points="624.971,468.08 800.237,468.08 800.237,406.583 602.248,406.583 	"/>
	<polygon fill="#147DA5" points="624.971,345.086 800.237,345.086 800.237,406.583 602.248,406.583 	"/>
</g>
<g id="Calque_2">
	<path opacity="0.7" fill="#FFFFFF" d="M165,124v224h224V124H165z M247.447,187c-3.003,0-5.363-1.997-5.363-5
		c0-3.004,2.36-5,5.363-5H252v-21h-4.553c-3.003,0-5.363-2.551-5.363-5.554c0-2.896,2.36-5.446,5.363-5.446h58.892
		c3.325,0,5.661,2.679,5.661,5.896v10.727c0,2.896-2.55,5.364-5.554,5.364c-2.896,0-5.446-2.468-5.446-5.364V156h-38v21h24.459
		c3.004,0,5.363,1.997,5.363,5c0,3.003-2.359,5-5.363,5H263v22h5.043c3.004,0,5.364,2.496,5.364,5.5c0,2.896-2.36,5.5-5.364,5.5
		h-20.596c-3.003,0-5.471-2.604-5.471-5.5c0-3.004,2.468-5.5,5.471-5.5H252v-22H247.447z M277,321.726l-51.677-25.794l37.087-0.246
		L239.281,251h75.438l-23.131,44.686l37.088,0.236L277,321.726z"/>
	<path opacity="0.7" fill="#FFFFFF" d="M165,368v109h469V368H165z M246.109,457h-46.117l0.216-39h-15.769l38.612-30.376L261.661,418
		h-15.768L246.109,457z M598.109,457h-46.117l0.216-39h-15.769l38.612-30.376L613.661,418h-15.768L598.109,457z"/>
	<path opacity="0.7" fill="#FFFFFF" d="M411,124v224h224V124H411z M552,297c0,39-58.23,39-58.23,0c0-3,2.467-5.364,5.363-5.364
		c3.004,0,5.471,2.364,5.471,5.364c0,25,37.396,25,37.396,0v-36h-13.582c-3.004,0-5.365-1.997-5.365-5c0-2.896,2.361-5,5.365-5
		h18.449c3.004,0,5.133,2.006,5.133,4.903V297z M560.719,221h-75.439l23.133-44.841l-37.088-0.296L523,149.998l51.676,25.833
		l-37.088,0.328L560.719,221z"/>
	<g>
		<path fill="#00557C" d="M328.747,430.227v4.561c0,0.96-0.528,1.729-1.296,2.16c-0.385,0.24-0.864,0.384-1.345,0.384h-26.498
			c-1.344,0-2.4-1.056-2.4-2.4c0-1.296,1.057-2.399,2.4-2.399h2.208v-9.649h-2.208c-1.344,0-2.4-1.104-2.4-2.448
			c0-1.296,1.057-2.4,2.4-2.4h2.208v-9.504h-2.208c-1.344,0-2.4-1.057-2.4-2.4c0-1.345,1.057-2.4,2.4-2.4h25.538
			c1.296,0,2.4,1.056,2.4,2.4v4.992c0,1.344-1.104,2.4-2.4,2.4c-1.344,0-2.448-1.057-2.448-2.4v-2.592h-16.081v9.504h10.945
			c1.296,0,2.399,1.104,2.399,2.4c0,1.345-1.104,2.448-2.399,2.448h-10.945v9.649h17.329v-2.305c0-1.344,1.057-2.4,2.4-2.4
			S328.747,428.883,328.747,430.227z"/>
		<path fill="#00557C" d="M357.545,437.331h-15.217c-5.713,0-9.89-3.792-9.89-9.024c0-1.344,1.104-2.4,2.448-2.4
			c1.297,0,2.4,1.057,2.4,2.4c0,2.928,2.544,4.225,5.041,4.225h15.217c6.289,0,6.192-9.602,0-9.602c-4.992,0-9.937,0-14.881,0
			c-12.577,0-12.625-19.249,0-19.249h12.049c1.872,0,3.552,0.384,4.944,1.104c0.384-0.912,1.248-1.536,2.256-1.536
			c1.297,0,2.4,1.104,2.4,2.448v6.625c0,1.296-1.104,2.4-2.4,2.4c-1.344,0-2.448-1.104-2.448-2.4c0-2.832-2.448-3.841-4.752-3.841
			h-12.049c-6.289,0-6.241,9.602,0,9.602c4.944,0,9.889,0,14.881,0C370.075,418.082,370.17,437.331,357.545,437.331z"/>
		<path fill="#00557C" d="M392.537,422.738h-12.577v9.744h2.209c1.344,0,2.399,1.104,2.399,2.448c0,1.297-1.056,2.4-2.399,2.4
			h-9.217c-1.345,0-2.4-1.104-2.4-2.4c0-1.344,1.056-2.448,2.4-2.448h2.208v-9.744h-2.208c-1.345,0-2.4-1.104-2.4-2.4
			c0-1.344,1.056-2.4,2.4-2.4h2.208v-9.553h-2.208c-1.345,0-2.4-1.056-2.4-2.4c0-1.344,1.056-2.4,2.4-2.4h19.585
			C405.113,403.584,405.113,422.738,392.537,422.738z M392.537,408.385h-12.577v9.553h12.529
			C398.826,417.938,398.778,408.385,392.537,408.385z"/>
		<path fill="#00557C" d="M437.322,434.931c0,1.297-1.057,2.4-2.4,2.4h-8.641c-1.297,0-2.4-1.104-2.4-2.4
			c0-1.344,1.104-2.448,2.4-2.448h1.055l-2.543-5.616h-13.537l-2.545,5.616h1.057c1.295,0,2.4,1.104,2.4,2.448
			c0,1.297-1.105,2.4-2.4,2.4h-8.641c-1.344,0-2.401-1.104-2.401-2.4c0-1.344,1.057-2.448,2.401-2.448h2.305l2.543-5.616h-0.24
			c-1.344,0-2.4-1.056-2.4-2.4c0-1.296,1.057-2.399,2.4-2.399h2.4l6.098-13.682h-0.529c-1.344,0-2.4-1.056-2.4-2.4
			c0-1.296,1.057-2.4,2.4-2.4h8.641c1.344,0,2.4,1.104,2.4,2.4c0,1.345-1.057,2.4-2.4,2.4h-0.527l6.096,13.682h2.4
			c1.344,0,2.4,1.104,2.4,2.399c0,1.345-1.057,2.4-2.4,2.4h-0.24l2.545,5.616h2.305
			C436.266,432.482,437.322,433.587,437.322,434.931z M422.633,422.066l-4.609-10.417l-4.607,10.417H422.633z"/>
		<path fill="#00557C" d="M453.352,437.331c-21.986,0-21.986-33.603,0-33.603h12.145c1.346,0,2.4,1.104,2.4,2.4v4.992
			c0,1.344-1.055,2.448-2.4,2.448c-1.295,0-2.398-1.104-2.398-2.448v-2.592h-9.746c-15.648,0-15.648,23.953,0,23.953h12.145
			c1.346,0,2.4,1.104,2.4,2.448c0,1.297-1.055,2.4-2.4,2.4H453.352z"/>
		<path fill="#00557C" d="M502.793,430.227v4.561c0,0.96-0.529,1.729-1.297,2.16c-0.385,0.24-0.863,0.384-1.344,0.384h-26.498
			c-1.344,0-2.4-1.056-2.4-2.4c0-1.296,1.057-2.399,2.4-2.399h2.207v-9.649h-2.207c-1.344,0-2.4-1.104-2.4-2.448
			c0-1.296,1.057-2.4,2.4-2.4h2.207v-9.504h-2.207c-1.344,0-2.4-1.057-2.4-2.4c0-1.345,1.057-2.4,2.4-2.4h25.537
			c1.297,0,2.4,1.056,2.4,2.4v4.992c0,1.344-1.104,2.4-2.4,2.4c-1.344,0-2.447-1.057-2.447-2.4v-2.592h-16.082v9.504h10.945
			c1.297,0,2.4,1.104,2.4,2.4c0,1.345-1.104,2.448-2.4,2.448h-10.945v9.649h17.33v-2.305c0-1.344,1.057-2.4,2.4-2.4
			S502.793,428.883,502.793,430.227z"/>
	</g>
</g>
</svg>
