<?xml version="1.0" encoding="utf-8"?>
<!-- Generator: Adobe Illustrator 15.1.0, SVG Export Plug-In . SVG Version: 6.00 Build 0)  -->
<!DOCTYPE svg PUBLIC "-//W3C//DTD SVG 1.1//EN" "http://www.w3.org/Graphics/SVG/1.1/DTD/svg11.dtd">
<svg version="1.1" id="Calque_1" xmlns="http://www.w3.org/2000/svg" xmlns:xlink="http://www.w3.org/1999/xlink" x="0px" y="0px"
	 width="800px" height="600px" viewBox="0 0 800 600" enable-background="new 0 0 800 600" xml:space="preserve">
<polygon fill="#EFDCCF" points="566.736,600 223.932,600 230.332,511.5 559.782,511.5 "/>
<path fill="#B3B3B3" d="M613.742,307.358c0,88.454-109.646,163.348-213.336,163.348c-103.694,0-213.325-74.886-213.325-163.348
	c0-88.464,109.638-231.716,213.33-231.716C504.105,75.642,613.742,218.9,613.742,307.358z"/>
<path fill="#EBD3C3" d="M512.557,403.422l-13.88,111.66c0,0-26.414,23.694-97.464,23.694c-71.038,0-102.568-23.694-102.568-23.694
	l-12.133-101.058L512.557,403.422z"/>
<polygon fill="#EFDCCF" points="287.19,217.542 259.727,261.558 286.533,414.247 339.712,474.553 384.937,490.145 423.305,490.145 
	470.662,474.453 512.557,403.206 546.419,263.739 522.462,217.542 "/>
<polygon fill="#EBD3C3" points="378.023,357.469 404.61,342.568 423.305,355.428 "/>
<g>
	<path fill="#FFFFFF" d="M356.27,300.721c-3.891-1.394-5.893-1.76-10.975-2.686c0.541,1.556,0.842,3.206,0.842,4.939
		c0,8.354-6.773,15.129-15.131,15.129c-8.345,0-15.121-6.774-15.121-15.129c0-3.304,1.076-6.356,2.871-8.847
		c-2.369-0.295-4.22-0.504-5.213-0.616c-5.582-0.583-17.428,10.943-17.282,17.604c0.149,6.674,12.644,7.959,14.831,8.211
		c2.204,0.258,23.57,2.899,32.093,1.021c8.529-1.892,21.751-10.009,21.558-13.107C364.543,304.133,360.174,302.119,356.27,300.721z"
		/>
	<path opacity="0.35" fill="#8CC63F" enable-background="new    " d="M331.013,318.104c8.356,0,15.124-6.774,15.124-15.129
		c0-1.733-0.301-3.384-0.842-4.939c-1.815-0.327-3.753-0.659-5.727-0.981c0.081,0.287,0.144,0.587,0.144,0.904
		c0,1.539-1.083,2.806-2.509,3.138c0.152,0.559,0.248,1.15,0.248,1.754c0,3.332-2.699,6.011-6.008,6.011
		c-3.322,0-6.014-2.686-6.014-6.011c0-3.326,2.697-6.012,6.014-6.012c0.687,0,1.322,0.116,1.951,0.321
		c0.09-0.365,0.221-0.702,0.433-1.003c-5.576-0.828-11.068-1.559-15.042-2.042c-1.809,2.483-2.885,5.548-2.885,8.849
		C315.885,311.336,322.661,318.104,331.013,318.104z"/>
	<path fill="#4D4D4D" d="M333.266,297.97c0-0.278,0.041-0.538,0.123-0.791c-0.629-0.205-1.275-0.322-1.953-0.322
		c-3.328,0-6.014,2.686-6.014,6.012c0,3.325,2.699,6.004,6.014,6.004c3.316,0,6.008-2.688,6.008-6.004
		c0-0.609-0.094-1.193-0.246-1.755c-0.227,0.048-0.466,0.086-0.721,0.086C334.703,301.177,333.266,299.74,333.266,297.97z"/>
	<path fill="#FFFFFF" d="M333.383,297.167c1.814,0.623,3.246,2.082,3.809,3.935c1.424-0.326,2.506-1.605,2.506-3.137
		c0-0.316-0.062-0.618-0.144-0.906c-1.896-0.302-3.823-0.603-5.753-0.883C333.607,296.478,333.478,296.806,333.383,297.167z"/>
	<path fill="#FFFFFF" d="M333.383,297.167c-0.084,0.26-0.125,0.517-0.125,0.791c0,1.774,1.44,3.213,3.213,3.213
		c0.248,0,0.479-0.026,0.721-0.082C336.629,299.254,335.197,297.79,333.383,297.167z"/>
</g>
<g>
	<path fill="#FFFFFF" d="M442.335,300.721c3.911-1.394,5.898-1.76,10.973-2.686c-0.533,1.556-0.85,3.206-0.85,4.939
		c0,8.354,6.771,15.129,15.142,15.129c8.337,0,15.104-6.774,15.104-15.129c0-3.304-1.062-6.356-2.862-8.847
		c2.382-0.295,4.219-0.504,5.204-0.616c5.613-0.583,17.441,10.943,17.306,17.604c-0.159,6.674-12.66,7.959-14.846,8.211
		c-2.198,0.258-23.564,2.899-32.102,1.021c-8.527-1.892-21.742-10.009-21.542-13.107
		C434.065,304.133,438.438,302.119,442.335,300.721z"/>
	<path opacity="0.35" fill="#8CC63F" enable-background="new    " d="M467.6,318.104c-8.365,0-15.142-6.774-15.142-15.129
		c0-1.733,0.315-3.384,0.85-4.939c1.824-0.327,3.757-0.659,5.723-0.981c-0.083,0.287-0.13,0.587-0.13,0.904
		c0,1.539,1.068,2.806,2.507,3.138c-0.172,0.559-0.26,1.15-0.26,1.754c0,3.332,2.685,6.011,5.999,6.011
		c3.338,0,6.018-2.686,6.018-6.011c0-3.326-2.688-6.012-6.018-6.012c-0.673,0-1.321,0.116-1.924,0.321
		c-0.107-0.365-0.232-0.702-0.438-1.003c5.581-0.828,11.067-1.559,15.057-2.042c1.802,2.483,2.862,5.548,2.862,8.849
		C482.719,311.336,475.95,318.104,467.6,318.104z"/>
	<path fill="#4D4D4D" d="M465.339,297.97c0-0.278-0.04-0.538-0.108-0.791c0.608-0.205,1.266-0.322,1.926-0.322
		c3.341,0,6.012,2.686,6.012,6.012c0,3.325-2.684,6.004-6.012,6.004c-3.324,0-6.004-2.688-6.004-6.004
		c0-0.609,0.09-1.193,0.261-1.755c0.219,0.048,0.453,0.086,0.708,0.086C463.906,301.177,465.339,299.74,465.339,297.97z"/>
	<path fill="#FFFFFF" d="M465.229,297.167c-1.837,0.623-3.27,2.082-3.816,3.935c-1.438-0.326-2.507-1.605-2.507-3.137
		c0-0.316,0.055-0.618,0.13-0.906c1.904-0.302,3.843-0.603,5.75-0.883C464.993,296.478,465.14,296.806,465.229,297.167z"/>
	<path fill="#FFFFFF" d="M465.229,297.167c0.069,0.26,0.109,0.517,0.109,0.791c0,1.774-1.433,3.213-3.215,3.213
		c-0.244,0-0.472-0.026-0.703-0.082C461.981,299.254,463.415,297.79,465.229,297.167z"/>
</g>
<polygon opacity="0.4" fill="#C1272D" enable-background="new    " points="351.714,412.119 382.998,435.627 422.858,435.627 
	461.714,412.119 422.359,411.396 388.047,411.396 "/>
<polygon fill="#B3B3B3" points="436.411,282.702 482.777,275.218 515.708,284.804 492.157,268.333 465.693,270.004 "/>
<polygon fill="#B3B3B3" points="365.084,282.702 318.723,275.218 285.793,284.804 309.35,268.333 335.808,270.004 "/>
<path fill="#BEBEBE" d="M552.521,206.417c-5.111-13.11-19.721-22.568-36.959-22.568c-3.072,0-6.062,0.307-8.924,0.877
	c-6.944-5.498-16.29-8.872-26.586-8.872c-11.482,0-21.777,4.2-28.903,10.859c-7.076-8.193-18.521-13.523-31.44-13.523
	c-6.215,0-12.105,1.241-17.312,3.429c-5.22-2.188-11.09-3.429-17.324-3.429c-14.337,0-26.845,6.57-33.607,16.307
	c-6.864-5.169-15.925-8.334-25.866-8.334c-16.051,0-29.818,8.214-35.773,19.935c-6.26-3.609-13.809-5.71-21.939-5.71
	c-19.414,0-35.49,11.999-38.425,27.696c-12.419,5.483-20.898,16.464-20.898,29.11c0,18.132,17.413,32.851,38.908,32.851
	c19.415,0,35.506-12.009,38.425-27.703c7.918-3.508,14.227-9.209,17.77-16.187c6.238,3.597,13.789,5.702,21.926,5.702
	c14.338,0,26.869-6.552,33.615-16.304c6.864,5.169,15.928,8.327,25.866,8.327c6.233,0,12.11-1.232,17.324-3.428
	c5.22,2.196,11.091,3.428,17.312,3.428c11.473,0,21.776-4.202,28.9-10.864c7.076,8.2,18.523,13.522,31.447,13.522
	c3.078,0,6.073-0.309,8.937-0.878c5.604,4.429,12.749,7.472,20.692,8.496c5.111,13.11,19.725,22.567,36.951,22.567
	c21.495,0,38.915-14.71,38.915-32.844C585.548,222.437,571.208,208.808,552.521,206.417z"/>
<path fill="#EFDCCF" d="M164.603,600c0,0,10.195-27.461,23.327-62.015c13.133-34.562,80.539-26.485,80.539-26.485L250.86,600
	H164.603z"/>
<path fill="#EFDCCF" d="M638.225,600c0,0-10.198-27.461-23.322-62.015c-13.126-34.557-93.756-26.485-93.756-26.485l30.827,88.5
	H638.225z"/>
<polygon fill="#665891" points="233.321,600 241.232,508.5 268.469,508.5 265.146,600 537.76,600 534.699,508.5 558.201,508.5 
	566.736,600 "/>
</svg>
