<?xml version="1.0" encoding="utf-8"?>
<!-- Generator: Adobe Illustrator 15.1.0, SVG Export Plug-In . SVG Version: 6.00 Build 0)  -->
<!DOCTYPE svg PUBLIC "-//W3C//DTD SVG 1.1//EN" "http://www.w3.org/Graphics/SVG/1.1/DTD/svg11.dtd">
<svg version="1.1" id="Calque_1" xmlns="http://www.w3.org/2000/svg" xmlns:xlink="http://www.w3.org/1999/xlink" x="0px" y="0px"
	 width="800px" height="600px" viewBox="0 0 800 600" enable-background="new 0 0 800 600" xml:space="preserve">
<polygon fill="#DE9D7E" points="161.081,600 184.887,508.158 286.321,495.829 494.609,495.829 662.001,517.079 659.652,600 "/>
<path fill="#CD957E" d="M277.81,387.13l12.111,108.699c0,0,27.478,22.451,101.366,22.451c73.884,0,106.672-22.451,106.672-22.451
	l12.115-105.426L277.81,387.13z"/>
<polygon fill="#DE9D7E" points="247.783,190.923 259.387,390.983 370.762,483.791 445.776,474.251 537.819,381.297 560.219,190.923 
	"/>
<path fill="#CD957E" d="M586.543,237.076c0,0,3.868,40.995-18.559,81.212l-23.677,6.999l8.688-74.229L586.543,237.076z"/>
<path fill="#CD957E" d="M212.792,237.076c0,0-3.862,40.995,18.567,81.212l24.267,6.999l-4.199-72.658L212.792,237.076z"/>
<polygon fill="#CD957E" points="362.11,333.01 409.023,306.715 442.018,329.399 "/>
<polygon fill="#8C6239" points="251.431,252.582 217.692,239.048 207.511,221.755 215.302,190.923 314.091,190.923 277.301,219.308 
	254.544,206.938 "/>
<polygon fill="#8C6239" points="234.078,319.074 219.553,385.855 258.166,369.329 255.625,325.283 "/>
<polygon fill="#8C6239" points="566.735,318.652 582.971,386.633 569.261,380.767 551.58,395.909 541.347,379.524 537.819,380.677 
	544.309,325.283 "/>
<polygon fill="#8C6239" points="544.309,190.923 537.819,208.172 548.645,211.67 555.706,223.637 535.598,255.77 552.995,251.102 
	581.269,239.301 597.456,214.443 589.637,194.286 576.196,186.856 560.219,190.923 "/>
<polygon fill="#8C6239" points="436.348,190.923 485.846,211.034 525.028,190.923 "/>
<polyline fill="#8C6239" points="320.861,189.448 300.387,227.063 340.456,248.2 316.74,221.006 343.035,189.448 "/>
<path fill="#FFFFFF" d="M363.962,281.696c0.214-4.598-1.966-10.96-8.666-15.727c-6.695-4.762-34.049-10.402-43.661-9.182
	c-9.607,1.22-17.476,6.26-17.655,14.356c-0.17,8.094,8.587,19.897,15.168,22.897c6.577,3.004,24.071,2.972,32.788,1.049
	C350.651,293.165,363.738,286.292,363.962,281.696z"/>
<path fill="#99C6E4" d="M328.585,261.885c8.539,0,15.457,6.92,15.457,15.457c0,8.536-6.918,15.455-15.457,15.455
	c-8.534,0-15.458-6.919-15.458-15.455C313.128,268.805,320.052,261.885,328.585,261.885z"/>
<path fill="#4D4D4D" d="M329.01,271.073c3.398,0,6.147,2.752,6.147,6.147c0,3.393-2.749,6.146-6.147,6.146
	c-3.394,0-6.144-2.753-6.144-6.146C322.866,273.825,325.616,271.073,329.01,271.073z"/>
<path fill="#FFFFFF" d="M334.177,268.934c1.817,0,3.288,1.472,3.288,3.286c0,1.815-1.471,3.287-3.288,3.287
	c-1.812,0-3.284-1.472-3.284-3.287C330.893,270.405,332.364,268.934,334.177,268.934z"/>
<path fill="#FFFFFF" d="M436.296,281.696c-0.219-4.598,1.958-10.96,8.655-15.727c6.695-4.762,34.055-10.402,43.663-9.182
	c9.602,1.22,17.474,6.26,17.649,14.356c0.18,8.094-8.583,19.897-15.161,22.897c-6.576,3.004-24.073,2.972-32.785,1.049
	C449.598,293.165,436.516,286.292,436.296,281.696z"/>
<path fill="#99C6E4" d="M471.668,261.885c8.533,0,15.457,6.92,15.457,15.457c0,8.536-6.924,15.455-15.457,15.455
	c-8.534,0-15.457-6.919-15.457-15.455C456.211,268.805,463.134,261.885,471.668,261.885z"/>
<circle fill="#4D4D4D" cx="472.347" cy="277.22" r="6.151"/>
<path fill="#FFFFFF" d="M477.499,268.934c1.819,0,3.29,1.472,3.29,3.286c0,1.815-1.471,3.287-3.29,3.287
	c-1.812,0-3.282-1.472-3.282-3.287C474.217,270.405,475.688,268.934,477.499,268.934z"/>
<polygon opacity="0.27" fill="#C1272D" enable-background="new    " points="349.731,395.038 381.696,410.636 422.429,410.636 
	462.13,395.038 421.916,388.215 386.859,388.215 "/>
<polygon opacity="0.55" fill="#CD957E" enable-background="new    " points="363.975,441.882 377.571,428.57 425.007,428.57 
	436.281,441.882 422.429,436.688 381.696,432.968 "/>
<polygon fill="#8C6239" points="436.281,256.617 483.654,248.972 517.294,258.769 493.221,241.931 466.193,243.644 "/>
<polygon fill="#8C6239" points="363.393,256.617 316.023,248.972 282.384,258.769 306.451,241.931 333.477,243.644 "/>
<g>
	<polygon fill="#DE9D7E" points="86.129,600 97.101,560.157 137.998,516.489 184.887,507.552 217.623,552.578 221.179,600 	"/>
</g>
<g>
	<polygon fill="#DE9D7E" points="713.875,600 702.904,560.157 662.001,516.489 615.11,507.552 582.378,552.578 582.971,600 	"/>
</g>
<polygon fill="#A67C52" points="666.575,600 684.152,505.725 548,486.232 548,486.618 525.047,483.368 510.073,606.077 "/>
<g>
	<path fill="#D2D2D2" d="M216.156,155.913v35.011h342.641l29.521-7.986v-30.114C588.317,152.819,399.995,140.493,216.156,155.913z"
		/>
	<path fill="#E6E6E6" d="M406.186-10.422c-165.492,0-178.543,168.653-178.543,168.653h178.543l178.553-3.919
		C584.741,154.312,571.685-10.422,406.186-10.422z"/>
</g>
<polygon fill="#D2D2D2" points="245.078,98.335 300.387,23.647 284.46,3.303 214.886,97.939 "/>
<polygon fill="#D2D2D2" points="567.169,98.335 511.855,23.647 527.783,3.303 597.355,97.939 "/>
<polyline fill="#D2D2D2" points="404.076,-33.335 420.286,-6.278 404.129,12.266 387.629,-6.235 404.076,-33.335 "/>
<path fill="#E8E3E3" d="M223.043,86.848c0,0-96.684-62.465-21.667-159.143c0,0-0.398,57.499,73.074,89.208L223.043,86.848z"/>
<path fill="#E8E3E3" d="M589.146,86.776c0,0,29.436-18.072,43.346-49.938l-9.764-22.707l-14.182,2.063l4.126-11.087l-24.104-23.869
	c-10.995,13.079-26.262,25.863-50.354,36.256L589.146,86.776z"/>
</svg>
